<?xml version="1.0" encoding="UTF-8"?>
<svg width="24px" height="24px" viewBox="0 0 24 24" version="1.1" xmlns="http://www.w3.org/2000/svg" xmlns:xlink="http://www.w3.org/1999/xlink">
    <title>activity-heart</title>
    <g id="Line-icons" stroke="none" stroke-width="1" fill="none" fill-rule="evenodd" stroke-linecap="round" stroke-linejoin="round">
        <g id="General" transform="translate(-64, -196)" fill-rule="nonzero" stroke="#000000" stroke-width="2">
            <g id="Icon" transform="translate(66, 199)">
                <path d="M9.99315166,2.13581443 C7.99379945,-0.201600075 4.65974569,-0.830357432 2.1546948,1.31001318 C-0.350356102,3.45038378 -0.703032255,7.02897668 1.26419806,9.56040096 C2.75008988,11.472441 6.97129321,15.3109542 8.94800949,17.0748863 C9.31138614,17.3991472 9.49307449,17.561277 9.70582962,17.6250973 C9.89052829,17.6805015 10.095775,17.6805015 10.2804737,17.6250973 C10.4932288,17.5612769 10.6749172,17.3991473 11.0382938,17.0748863 C13.0150094,15.3109541 17.2362109,11.4724408 18.7221031,9.56040096 C20.6893338,7.02897668 20.3797152,3.4278692 17.8316059,1.31001318 C15.2834966,-0.807842851 11.9925042,-0.201600075 9.99315166,2.13581443 Z"></path>
                <polyline points="13.5 8.5 12.5 8.5 11 11.5 9 5.5 7.5 8.5 6.5 8.5"></polyline>
            </g>
        </g>
    </g>
</svg>