<?xml version="1.0" encoding="UTF-8"?>
<svg width="24px" height="24px" viewBox="0 0 24 24" version="1.1" xmlns="http://www.w3.org/2000/svg" xmlns:xlink="http://www.w3.org/1999/xlink">
    <title>airplay</title>
    <g id="Line-icons" stroke="none" stroke-width="1" fill="none" fill-rule="evenodd" stroke-linecap="round" stroke-linejoin="round">
        <g id="Media-&amp;-devices" transform="translate(-64, -156)" fill-rule="nonzero" stroke="#000000" stroke-width="2">
            <g id="Icon" transform="translate(66, 159)">
                <path d="M9.38542366,12.7374916 C9.59647933,12.4842248 9.7020068,12.3575911 9.82835197,12.3114109 C9.93919763,12.2708959 10.0608024,12.2708959 10.171648,12.3114109 C10.2979932,12.3575911 10.4035212,12.4842252 10.6145773,12.7374926 L13.9065447,16.6878529 C14.2553531,17.106423 14.4297574,17.3157093 14.4324226,17.4924622 C14.4347396,17.6461185 14.3662686,17.7923047 14.2467432,17.8888931 C14.1092517,18 13.8368235,18 13.2919664,18 L6.70803356,18 C6.16317636,18 5.89074786,18 5.75325632,17.8888931 C5.63373092,17.7923047 5.56526085,17.6461185 5.56757784,17.4924622 C5.5702431,17.3157093 5.74464732,17.1064236 6.09345627,16.6878529 L9.38542366,12.7374916 Z"></path>
                <path d="M3,15 C1.34314585,15 0,13.6568546 0,12 L0,4.79999971 C0,3.11984253 0,2.2797637 0.326980442,1.6380285 C0.614600539,1.07354224 1.07354224,0.614600539 1.6380285,0.326980442 C2.2797637,0 3.11984253,0 4.80000019,0 L15.1999998,0 C16.8801575,0 17.7202358,0 18.3619709,0.326980442 C18.9264584,0.614600539 19.3853989,1.07354224 19.6730194,1.6380285 C20,2.2797637 20,3.11984253 20,4.80000019 L20,12 C20,13.6568546 18.6568546,15 17,15"></path>
            </g>
        </g>
    </g>
</svg>