<?xml version="1.0" encoding="UTF-8"?>
<svg width="24px" height="24px" viewBox="0 0 24 24" version="1.1" xmlns="http://www.w3.org/2000/svg" xmlns:xlink="http://www.w3.org/1999/xlink">
    <title>airpods</title>
    <g id="Line-icons" stroke="none" stroke-width="1" fill="none" fill-rule="evenodd" stroke-linecap="round" stroke-linejoin="round">
        <g id="Media-&amp;-devices" transform="translate(-64, -196)" fill-rule="nonzero" stroke="#000000" stroke-width="2">
            <g id="Icon" transform="translate(66, 199.5)">
                <path d="M0,4.125 C0,6.4031744 1.84682536,8.25 4.125,8.25 C4.43088627,8.25 4.5838294,8.25 4.66307545,8.27734089 C4.82888412,8.334548 4.915452,8.42111588 4.97265911,8.58692455 C5,8.66617012 5,8.79031372 5,9.03859997 L5,15.375 C5,16.2724628 5.72753716,17 6.625,17 C7.52246284,17 8.25,16.2724628 8.25,15.375 L8.25,4.125 C8.25,1.84682536 6.4031744,0 4.125,0 C1.84682536,0 0,1.84682536 0,4.125 Z"></path>
                <path d="M20,4.125 C20,6.4031744 18.1531746,8.25 15.875,8.25 C15.5691139,8.25 15.4161708,8.25000007 15.3369255,8.27734089 C15.1711158,8.33454774 15.0845477,8.42111579 15.0273409,8.58692551 C15,8.66617081 15,8.79031381 15,9.03859997 L15,15.375 C15,16.2724627 14.2724627,17 13.375,17 C12.4775373,17 11.75,16.2724627 11.75,15.375 L11.75,4.125 C11.75,1.84682536 13.5968256,0 15.875,0 C18.1531746,0 20,1.84682536 20,4.125 Z"></path>
            </g>
        </g>
    </g>
</svg>