<?xml version="1.0" encoding="UTF-8"?>
<svg width="24px" height="24px" viewBox="0 0 24 24" version="1.1" xmlns="http://www.w3.org/2000/svg" xmlns:xlink="http://www.w3.org/1999/xlink">
    <title>alarm-clock-off</title>
    <g id="Line-icons" stroke="none" stroke-width="1" fill="none" fill-rule="evenodd" stroke-linecap="round" stroke-linejoin="round">
        <g id="Time" transform="translate(-64, -276)" fill-rule="nonzero" stroke="#000000" stroke-width="2">
            <g id="Icon" transform="translate(66, 279)">
                <line x1="20" y1="3" x2="17" y2="0"></line>
                <line x1="4" y1="16" x2="2" y2="18"></line>
                <path d="M8.5,2.14184952 C8.99096623,2.04812646 9.49300212,2 10,2 C12.121732,2 14.1565638,2.84285486 15.6568546,4.34314585 C17.1571455,5.84343672 18,7.87826824 18,10 C18,10.5069981 17.9518738,11.0090342 17.8581505,11.5 M16.1355515,15.133749 C15.9843912,15.314393 15.8247395,15.4889698 15.6568546,15.6568546 C14.1565638,17.1571455 12.1217318,18 10,18 C7.87826824,18 5.84343672,17.1571455 4.34314585,15.6568546 C2.84285486,14.1565638 2,12.1217322 2,10 C2,7.87826777 2.84285486,5.84343684 4.34314585,4.34314585 C4.50947523,4.17681637 4.68237519,4.01856758 4.86123466,3.86865187 M0,3 L2,1 M19,18 L1,0"></path>
            </g>
        </g>
    </g>
</svg>