<?xml version="1.0" encoding="UTF-8"?>
<svg width="24px" height="24px" viewBox="0 0 24 24" version="1.1" xmlns="http://www.w3.org/2000/svg" xmlns:xlink="http://www.w3.org/1999/xlink">
    <title>align-horizontal-centre-02</title>
    <g id="Line-icons" stroke="none" stroke-width="1" fill="none" fill-rule="evenodd" stroke-linecap="round" stroke-linejoin="round">
        <g id="Layout" transform="translate(-64, -276)" fill-rule="nonzero" stroke="#000000" stroke-width="2">
            <g id="Icon" transform="translate(67, 280)">
                <path d="M13,6 C13.9318832,6 14.3978254,6 14.7653675,5.84775877 C15.2554237,5.64477088 15.6447713,5.25542274 15.8477592,4.76536655 C16,4.39782441 16,3.93188298 16,3 C16,2.06811714 16,1.60217568 15.8477592,1.23463356 C15.6447714,0.744577408 15.2554237,0.355229318 14.7653675,0.152241394 C14.3978254,0 13.9318834,0 13,0 L5,0 C4.06811702,0 3.60217577,0 3.23463368,0.152240798 C2.74457741,0.355228692 2.35522915,0.744576842 2.15224123,1.23463309 C2,1.60217515 2,2.06811666 2,3 C2,3.93188238 2,4.39782399 2.15224099,4.76536608 C2.35522889,5.25542235 2.7445772,5.64477035 3.23463345,5.84775829 C3.6021755,6 4.06811714,6 5,6 L13,6 Z"></path>
                <path d="M15,16 C15.9318832,16 16.3978254,16 16.7653675,15.8477583 C17.2554237,15.6447704 17.6447713,15.2554218 17.8477592,14.7653656 C18,14.3978235 18,13.9318821 18,13 C18,12.0681162 18,11.6021746 17.8477592,11.2346325 C17.6447713,10.7445763 17.2554237,10.3552287 16.7653675,10.1522408 C16.3978254,10 15.9318834,10 15,10 L3,10 C2.06811702,10 1.60217553,10 1.23463345,10.1522398 C0.744577169,10.3552277 0.355228901,10.7445762 0.152240962,11.2346325 C0,11.6021746 0,12.0681152 0,13 C0,13.931881 0,14.3978226 0.152240798,14.7653646 C0.355228677,15.2554209 0.744576842,15.6447694 1.23463309,15.8477573 C1.60217515,16 2.0681169,16 3,16 L15,16 Z"></path>
            </g>
        </g>
    </g>
</svg>