<?xml version="1.0" encoding="UTF-8"?>
<svg width="24px" height="24px" viewBox="0 0 24 24" version="1.1" xmlns="http://www.w3.org/2000/svg" xmlns:xlink="http://www.w3.org/1999/xlink">
    <title>align-top-02</title>
    <g id="Line-icons" stroke="none" stroke-width="1" fill="none" fill-rule="evenodd" stroke-linecap="round" stroke-linejoin="round">
        <g id="Layout" transform="translate(-64, -516)" fill-rule="nonzero" stroke="#000000" stroke-width="2">
            <g id="Icon" transform="translate(68, 519)">
                <path d="M6,15 L6,3 C6,2.0681169 6,1.60217524 5.84775925,1.23463309 C5.6447711,0.744576991 5.25542307,0.355228841 4.76536703,0.152240932 C4.39782476,0 3.9318831,0 3,0 C2.0681169,0 1.60217524,0 1.23463309,0.152240932 C0.744576991,0.355228841 0.355228841,0.744576991 0.152240932,1.23463309 C0,1.60217524 0,2.0681169 0,3 L0,15 C0,15.9318829 0,16.3978252 0.152240932,16.7653675 C0.355228841,17.2554226 0.744576991,17.6447716 1.23463309,17.8477592 C1.60217524,18 2.0681169,18 3,18 C3.9318831,18 4.39782476,18 4.76536703,17.8477592 C5.25542307,17.6447716 5.6447711,17.2554226 5.84775925,16.7653675 C6,16.3978252 6,15.9318829 6,15 Z"></path>
                <path d="M16,11 L16,3 C16,2.0681169 16,1.60217524 15.8477592,1.23463309 C15.6447711,0.744576991 15.2554235,0.355228841 14.7653675,0.152240932 C14.3978252,0 13.9318831,0 13,0 C12.0681169,0 11.6021756,0 11.2346334,0.152240932 C10.7445773,0.355228841 10.3552287,0.744576991 10.1522408,1.23463309 C10,1.60217524 10,2.0681169 10,3 L10,11 C10,11.9318838 10,12.3978252 10.1522408,12.7653675 C10.3552287,13.2554235 10.7445773,13.6447716 11.2346334,13.8477592 C11.6021756,14 12.0681169,14 13,14 C13.9318831,14 14.3978252,14 14.7653675,13.8477592 C15.2554235,13.6447716 15.6447711,13.2554235 15.8477592,12.7653675 C16,12.3978252 16,11.9318829 16,11 Z"></path>
            </g>
        </g>
    </g>
</svg>