<?xml version="1.0" encoding="UTF-8"?>
<svg width="24px" height="24px" viewBox="0 0 24 24" version="1.1" xmlns="http://www.w3.org/2000/svg" xmlns:xlink="http://www.w3.org/1999/xlink">
    <title>align-left-02</title>
    <g id="Line-icons" stroke="none" stroke-width="1" fill="none" fill-rule="evenodd" stroke-linecap="round" stroke-linejoin="round">
        <g id="Layout" transform="translate(-64, -356)" fill-rule="nonzero" stroke="#000000" stroke-width="2">
            <g id="Icon" transform="translate(67, 360)">
                <path d="M11,6 C11.9318832,6 12.3978254,6 12.7653675,5.84775877 C13.2554237,5.64477088 13.6447713,5.25542274 13.8477592,4.76536655 C14,4.39782441 14,3.93188298 14,3 C14,2.06811714 14,1.60217568 13.8477592,1.23463356 C13.6447714,0.744577408 13.2554237,0.355229318 12.7653675,0.152241394 C12.3978254,0 11.9318834,0 11,0 L3,0 C2.06811726,0 1.60217565,0 1.23463356,0.152240798 C0.744577289,0.355228692 0.35522908,0.744576842 0.152241156,1.23463309 C0,1.60217515 0,2.06811666 0,3 C0,3.93188238 0,4.39782399 0.152241006,4.76536608 C0.355228901,5.25542235 0.74457708,5.64477035 1.23463333,5.84775829 C1.60217538,6 2.06811714,6 3,6 L11,6 Z"></path>
                <path d="M15,16 C15.9318832,16 16.3978254,16 16.7653675,15.8477583 C17.2554237,15.6447704 17.6447713,15.2554218 17.8477592,14.7653656 C18,14.3978235 18,13.9318821 18,13 C18,12.0681162 18,11.6021746 17.8477592,11.2346325 C17.6447713,10.7445763 17.2554237,10.3552287 16.7653675,10.1522408 C16.3978254,10 15.9318834,10 15,10 L3,10 C2.06811702,10 1.60217553,10 1.23463345,10.1522398 C0.744577169,10.3552277 0.355228901,10.7445762 0.152240962,11.2346325 C0,11.6021746 0,12.0681152 0,13 C0,13.931881 0,14.3978226 0.152240798,14.7653646 C0.355228677,15.2554209 0.744576842,15.6447694 1.23463309,15.8477573 C1.60217515,16 2.0681169,16 3,16 L15,16 Z"></path>
            </g>
        </g>
    </g>
</svg>