<?xml version="1.0" encoding="UTF-8"?>
<svg width="24px" height="24px" viewBox="0 0 24 24" version="1.1" xmlns="http://www.w3.org/2000/svg" xmlns:xlink="http://www.w3.org/1999/xlink">
    <title>anchor</title>
    <g id="Line-icons" stroke="none" stroke-width="1" fill="none" fill-rule="evenodd" stroke-linecap="round" stroke-linejoin="round">
        <g id="General" transform="translate(-64, -236)" fill-rule="nonzero" stroke="#000000" stroke-width="2">
            <g id="Icon" transform="translate(66, 238)">
                <path d="M10,6 C11.6568542,6 13,4.65685415 13,3 C13,1.34314573 11.6568542,0 10,0 C8.34314573,0 7,1.34314573 7,3 C7,4.65685415 8.34314573,6 10,6 Z"></path>
                <path d="M3,10 L0,10 C0,12.6521649 1.05356836,15.195704 2.92893219,17.0710678 C4.80429602,18.9464316 7.34783506,20 10,20 C12.6521649,20 15.195704,18.9464316 17.0710678,17.0710678 C18.9464316,15.195704 20,12.6521649 20,10 L17,10"></path>
                <line x1="10" y1="20" x2="10" y2="6"></line>
            </g>
        </g>
    </g>
</svg>