<?xml version="1.0" encoding="UTF-8"?>
<svg width="24px" height="24px" viewBox="0 0 24 24" version="1.1" xmlns="http://www.w3.org/2000/svg" xmlns:xlink="http://www.w3.org/1999/xlink">
    <title>annotation-heart</title>
    <g id="Line-icons" stroke="none" stroke-width="1" fill="none" fill-rule="evenodd" stroke-linecap="round" stroke-linejoin="round">
        <g id="Communication" transform="translate(-64, -316)" fill-rule="nonzero" stroke="#000000" stroke-width="2">
            <g id="Icon" transform="translate(67, 319)">
                <path d="M0,4.79999971 C0,3.11984229 0,2.27976376 0.326980442,1.6380285 C0.614600539,1.0735423 1.0735423,0.614600539 1.6380285,0.326980442 C2.27976376,0 3.11984253,0 4.80000019,0 L13.2000008,0 C14.8801581,0 15.7202356,0 16.3619709,0.326980442 C16.9264571,0.614600539 17.3853993,1.0735423 17.6730194,1.6380285 C18,2.27976376 18,3.11984241 18,4.80000019 L18,10.5 C18,11.8978249 18,12.5967371 17.7716389,13.1480503 C17.467157,13.8831345 16.8831345,14.467157 16.1480503,14.7716389 C15.5967371,15 14.8978248,15 13.5,15 C13.0114216,15 12.7671322,15 12.540494,15.0535021 C12.2383097,15.1248381 11.9568843,15.2655508 11.7185049,15.4644966 C11.5397204,15.613706 11.3931475,15.809138 11.1000004,16.2000008 L9.64000034,18.1466675 C9.42288156,18.4361592 9.31432146,18.5809039 9.18123531,18.6326637 C9.0646645,18.6780004 8.9353355,18.6780004 8.81876469,18.6326637 C8.68567854,18.5809039 8.5771185,18.4361593 8.35999966,18.1466675 L6.9000001,16.2000008 C6.60685301,15.809138 6.46027963,15.613706 6.28149509,15.4644966 C6.04311574,15.2655508 5.76169026,15.1248381 5.45950603,15.0535021 C5.23286784,15 4.98857844,15 4.5,15 C3.10217524,15 2.40326291,15 1.85194969,14.7716389 C1.11686546,14.467157 0.532843262,13.8831345 0.228361398,13.1480503 C0,12.5967371 0,11.8978249 0,10.5 L0,4.79999971 Z"></path>
                <path d="M8.99726105,5.33059454 C8.19752014,4.42159998 6.86389828,4.17708313 5.86187792,5.00944948 C4.85985756,5.84181583 4.71878701,7.23349088 5.50567913,8.21793365 C5.97360614,8.80333459 7.11968738,9.85309118 7.97192717,10.6079388 C8.32372618,10.9195349 8.49962586,11.0753324 8.71135807,11.138504 C8.89250603,11.1925507 9.10201512,11.1925507 9.28316307,11.138504 C9.49489526,11.0753324 9.67079538,10.9195341 10.0225945,10.6079378 C10.8748339,9.85309029 12.020914,8.80333447 12.4888411,8.21793365 C13.2757334,7.23349088 13.1518865,5.83306015 12.1326427,5.00944948 C11.113399,4.18583882 9.79700208,4.42159998 8.99726105,5.33059454 Z"></path>
            </g>
        </g>
    </g>
</svg>