<?xml version="1.0" encoding="UTF-8"?>
<svg width="24px" height="24px" viewBox="0 0 24 24" version="1.1" xmlns="http://www.w3.org/2000/svg" xmlns:xlink="http://www.w3.org/1999/xlink">
    <title>announcement-02</title>
    <g id="Line-icons" stroke="none" stroke-width="1" fill="none" fill-rule="evenodd" stroke-linecap="round" stroke-linejoin="round">
        <g id="Alerts-&amp;-feedback" transform="translate(-64, -396)" fill-rule="nonzero" stroke="#000000" stroke-width="2">
            <g id="Icon" transform="translate(66, 398.8844)">
                <path d="M8.24999714,2.61563396 L4.5,2.61563396 C2.01471734,2.61563396 0,4.63035464 0,7.11563683 C0,9.60091686 2.01471949,11.615634 4.5,11.615634 L8.25000286,11.615634 C10.0164299,11.615634 12.1772474,12.5625203 13.8442965,13.4712782 C14.8168268,14.0014333 15.3030912,14.2665109 15.6215725,14.2275038 C15.9168983,14.1913327 16.1402071,14.0587318 16.3133183,13.8167439 C16.5,13.5557824 16.5,13.0336368 16.5,11.9893465 L16.5,2.2419188 C16.5,1.19762957 16.5,0.675484896 16.3133183,0.414523482 C16.1402071,0.172535598 15.9168991,0.0399342498 15.6215734,0.00376315624 C15.3030922,-0.0352440008 14.816827,0.229833484 13.8442965,0.759988368 C12.1772456,1.66874665 10.0164251,2.61563396 8.24999714,2.61563396 Z"></path>
                <path d="M2.16266462,11.7662913 L3.57464671,17.4142094 L3.57464671,17.4142094 C3.61893177,17.5913496 3.64107442,17.6799202 3.66726971,17.7572575 C3.92316747,18.5127525 4.60351872,19.0439548 5.39852095,19.1089764 C5.47990227,19.115633 5.5711987,19.115633 5.75379133,19.115633 C5.98244047,19.115633 6.09676504,19.115633 6.19307566,19.1062927 C7.14499569,19.0139656 7.89833546,18.2606268 7.99066162,17.3087063 C8,17.2123966 8,17.0980721 8,16.8694229 L8,5.76635497 C8,5.21407022 7.55228475,4.76635497 7,4.76635497 C6.6750768,4.76635497 6.37040989,4.92421996 6.18303214,5.18967177 M16.5,10.615634 C18.4329985,10.615634 20,9.04863071 20,7.11563396 C20,5.18263733 18.4329985,3.61563396 16.5,3.61563396"></path>
            </g>
        </g>
    </g>
</svg>