<?xml version="1.0" encoding="UTF-8"?>
<svg width="24px" height="24px" viewBox="0 0 24 24" version="1.1" xmlns="http://www.w3.org/2000/svg" xmlns:xlink="http://www.w3.org/1999/xlink">
    <title>announcement-03</title>
    <g id="Line-icons" stroke="none" stroke-width="1" fill="none" fill-rule="evenodd" stroke-linecap="round" stroke-linejoin="round">
        <g id="Alerts-&amp;-feedback" transform="translate(-336, -156)" fill-rule="nonzero" stroke="#000000" stroke-width="2">
            <g id="Icon" transform="translate(338, 159)">
                <path d="M20,6.5 C20,10.0898509 18.4329966,13 16.5,13 C14.5670034,13 13,10.0898509 13,6.5 C13,2.9101491 14.5670034,0 16.5,0 C18.4329966,0 20,2.9101491 20,6.5 Z"></path>
                <path d="M16.5,0 L3.44354415,2.37390113 C2.51605153,2.54253602 2.05230522,2.6268537 1.67732501,2.81104803 C0.91446954,3.18577123 0.346359991,3.86648726 0.114144914,4.68407011 C0,5.08595181 0,5.55730104 0,6.5 C0,7.44269896 0,7.91404819 0.114144914,8.31592941 C0.346359991,9.1335125 0.91446954,9.81422901 1.67732501,10.1889515 C2.05230522,10.3731461 2.51605177,10.4574642 3.44354486,10.6260986 L16.5,13 M3.08460289,12.1844408 L3.39385676,16.5139961 L3.39385676,16.5139961 C3.43125984,17.0376387 3.44996139,17.2994599 3.56387401,17.4978809 C3.66416919,17.6725821 3.8148886,17.8129196 3.99629164,17.9005127 C4.20232439,18 4.46481335,18 4.98979092,18 L6.77219629,18 C7.37234211,18 7.67241526,18 7.89451218,17.8803139 C8.08966494,17.7751489 8.24434042,17.6081195 8.33422852,17.4054756 C8.43652678,17.1748533 8.41351223,16.8756642 8.36748314,16.2772865 L8.08447051,12.5981179 C8.05367525,12.1977791 8.00726292,12.0549478 7.92636198,11.9094468 C7.84546103,11.7639457 7.73258537,11.6484555 7.58897464,11.5642445 C7.44536391,11.4800335 7.3036327,11.4303633 6.9041039,11.3904104"></path>
            </g>
        </g>
    </g>
</svg>