<?xml version="1.0" encoding="UTF-8"?>
<svg width="24px" height="24px" viewBox="0 0 24 24" version="1.1" xmlns="http://www.w3.org/2000/svg" xmlns:xlink="http://www.w3.org/1999/xlink">
    <title>annotation-question</title>
    <g id="Line-icons" stroke="none" stroke-width="1" fill="none" fill-rule="evenodd" stroke-linecap="round" stroke-linejoin="round">
        <g id="Communication" transform="translate(-64, -436)" fill-rule="nonzero" stroke="#000000" stroke-width="2">
            <g id="Icon" transform="translate(67, 439)">
                <path d="M0,4.79999971 C0,3.11984229 0,2.27976376 0.326980442,1.6380285 C0.614600539,1.0735423 1.0735423,0.614600539 1.6380285,0.326980442 C2.27976376,0 3.11984253,0 4.80000019,0 L13.2000008,0 C14.8801581,0 15.7202356,0 16.3619709,0.326980442 C16.9264571,0.614600539 17.3853993,1.0735423 17.6730194,1.6380285 C18,2.27976376 18,3.11984241 18,4.80000019 L18,10.5 C18,11.8978249 18,12.5967371 17.7716389,13.1480503 C17.467157,13.8831345 16.8831345,14.467157 16.1480503,14.7716389 C15.5967371,15 14.8978248,15 13.5,15 C13.0114216,15 12.7671322,15 12.540494,15.0535021 C12.2383097,15.1248381 11.9568843,15.2655508 11.7185049,15.4644966 C11.5397204,15.613706 11.3931475,15.809138 11.1000004,16.2000008 L9.64000034,18.1466675 C9.42288156,18.4361592 9.31432146,18.5809039 9.18123531,18.6326637 C9.0646645,18.6780004 8.9353355,18.6780004 8.81876469,18.6326637 C8.68567854,18.5809039 8.5771185,18.4361593 8.35999966,18.1466675 L6.9000001,16.2000008 C6.60685301,15.809138 6.46027963,15.613706 6.28149509,15.4644966 C6.04311574,15.2655508 5.76169026,15.1248381 5.45950603,15.0535021 C5.23286784,15 4.98857844,15 4.5,15 C3.10217524,15 2.40326291,15 1.85194969,14.7716389 C1.11686546,14.467157 0.532843262,13.8831345 0.228361398,13.1480503 C0,12.5967371 0,11.8978249 0,10.5 L0,4.79999971 Z"></path>
                <path d="M7,5.50223637 C7.1761966,5.00136083 7.52397341,4.57900494 7.9817338,4.30997515 C8.43949419,4.04094535 8.9776963,3.94260341 9.50101662,4.03236675 C10.0243369,4.1221301 10.4990028,4.39420626 10.8409433,4.80040598 C11.1828839,5.2066057 11.3700318,5.72071522 11.3692408,6.25167751 C11.3692408,7.25093214 10.6197999,8.00037297 9.12091827,8.5"></path>
                <line x1="9.14990234" y1="11.5" x2="9.15990257" y2="11.5"></line>
            </g>
        </g>
    </g>
</svg>