<?xml version="1.0" encoding="UTF-8"?>
<svg width="24px" height="24px" viewBox="0 0 24 24" version="1.1" xmlns="http://www.w3.org/2000/svg" xmlns:xlink="http://www.w3.org/1999/xlink">
    <title>annotation-alert</title>
    <g id="Line-icons" stroke="none" stroke-width="1" fill="none" fill-rule="evenodd" stroke-linecap="round" stroke-linejoin="round">
        <g id="Communication" transform="translate(-64, -196)" fill-rule="nonzero" stroke="#000000" stroke-width="2">
            <g id="Icon" transform="translate(67, 199)">
                <path d="M0,4.79999971 C0,3.11984229 0,2.27976376 0.326980442,1.6380285 C0.614600539,1.0735423 1.0735423,0.614600539 1.6380285,0.326980442 C2.27976376,0 3.11984253,0 4.80000019,0 L13.2000008,0 C14.8801581,0 15.7202356,0 16.3619709,0.326980442 C16.9264571,0.614600539 17.3853993,1.0735423 17.6730194,1.6380285 C18,2.27976376 18,3.11984241 18,4.80000019 L18,10.5 C18,11.8978249 18,12.5967371 17.7716389,13.1480503 C17.467157,13.8831345 16.8831345,14.467157 16.1480503,14.7716389 C15.5967371,15 14.8978248,15 13.5,15 C13.0114216,15 12.7671322,15 12.540494,15.0535021 C12.2383097,15.1248381 11.9568843,15.2655508 11.7185049,15.4644966 C11.5397204,15.613706 11.3931475,15.809138 11.1000004,16.2000008 L9.64000034,18.1466675 C9.42288156,18.4361592 9.31432146,18.5809039 9.18123531,18.6326637 C9.0646645,18.6780004 8.9353355,18.6780004 8.81876469,18.6326637 C8.68567854,18.5809039 8.5771185,18.4361593 8.35999966,18.1466675 L6.9000001,16.2000008 C6.60685301,15.809138 6.46027963,15.613706 6.28149509,15.4644966 C6.04311574,15.2655508 5.76169026,15.1248381 5.45950603,15.0535021 C5.23286784,15 4.98857844,15 4.5,15 C3.10217524,15 2.40326291,15 1.85194969,14.7716389 C1.11686546,14.467157 0.532843262,13.8831345 0.228361398,13.1480503 C0,12.5967371 0,11.8978249 0,10.5 L0,4.79999971 Z"></path>
                <path d="M9,4 L9,7.5 M9,11 L9.01000023,11"></path>
            </g>
        </g>
    </g>
</svg>