<?xml version="1.0" encoding="UTF-8"?>
<svg width="24px" height="24px" viewBox="0 0 24 24" version="1.1" xmlns="http://www.w3.org/2000/svg" xmlns:xlink="http://www.w3.org/1999/xlink">
    <title>announcement-01</title>
    <g id="Line-icons" stroke="none" stroke-width="1" fill="none" fill-rule="evenodd" stroke-linecap="round" stroke-linejoin="round">
        <g id="Alerts-&amp;-feedback" transform="translate(-64, -356)" fill-rule="nonzero" stroke="#000000" stroke-width="2">
            <g id="Icon" transform="translate(66, 358.8844)">
                <path d="M8.24999714,2.61563396 L4.80000019,2.61563396 C3.11984158,2.61563396 2.27976227,2.61563408 1.63802683,2.94261479 C1.07354039,3.23023513 0.614598691,3.68917692 0.326978713,4.25366354 C0,4.89539921 0,5.73547864 0,7.41563702 L0,8.61563396 C0,9.54751849 0,10.0134608 0.152243316,10.3810034 C0.355231345,10.8710581 0.744578511,11.2604045 1.23463333,11.4633923 C1.60217598,11.6156337 2.06811816,11.615634 3,11.615634 L3,15.865634 C3,16.0978031 3,16.2138878 3.0096333,16.3116684 C3.10315622,17.2612225 3.85441434,18.0124799 4.80396843,18.1060028 C4.90174901,18.115633 5.01783372,18.115633 5.25000286,18.115633 C5.482172,18.115633 5.59825624,18.115633 5.69603682,18.1060028 C6.6455909,18.0124799 7.39684927,17.2612225 7.49037218,16.3116684 C7.5,16.2138878 7.5,16.0978031 7.5,15.865634 L7.5,11.615634 L8.25000286,11.615634 C10.0164299,11.615634 12.1772474,12.5625203 13.8442965,13.4712782 C14.8168268,14.0014333 15.3030912,14.2665109 15.6215725,14.2275038 C15.9168983,14.1913327 16.1402071,14.0587318 16.3133183,13.8167439 C16.5,13.5557824 16.5,13.0336368 16.5,11.9893465 L16.5,2.2419188 C16.5,1.19762957 16.5,0.675484896 16.3133183,0.414523482 C16.1402071,0.172535598 15.9168982,0.0399342498 15.6215725,0.00376315624 C15.3030913,-0.0352440008 14.816826,0.229833484 13.8442955,0.759988368 C12.1772447,1.66874665 10.0164251,2.61563396 8.24999714,2.61563396 Z"></path>
                <line x1="20.0000019" y1="5.11563778" x2="20.0000019" y2="9.11563587"></line>
            </g>
        </g>
    </g>
</svg>