<?xml version="1.0" encoding="UTF-8"?>
<svg width="24px" height="24px" viewBox="0 0 24 24" version="1.1" xmlns="http://www.w3.org/2000/svg" xmlns:xlink="http://www.w3.org/1999/xlink">
    <title>archive</title>
    <g id="Line-icons" stroke="none" stroke-width="1" fill="none" fill-rule="evenodd" stroke-linecap="round" stroke-linejoin="round">
        <g id="General" transform="translate(-64, -276)" fill-rule="nonzero" stroke="#000000" stroke-width="2">
            <g id="Icon" transform="translate(66, 279)">
                <path d="M2,5 L18,5 L18,13.1999998 C18,14.8801577 18,15.7202356 17.6730194,16.3619709 C17.3853993,16.9264571 16.9264571,17.3853993 16.3619709,17.6730194 C15.7202356,18 14.8801575,18 13.1999998,18 L6.80000019,18 C5.11984253,18 4.27976364,18 3.63802838,17.6730194 C3.07354218,17.3853993 2.61460045,16.9264571 2.32698035,16.3619709 C2,15.7202356 2,14.8801575 2,13.1999998 L2,5 Z"></path>
                <path d="M2,4.99659586 C1.83599257,4.99236345 1.71689606,4.98286963 1.60981941,4.96157074 C0.816438138,4.80375719 0.196242779,4.1835618 0.0384294391,3.39018059 C0,3.19698286 0,2.96465516 0,2.5 C0,2.03534484 0,1.80301714 0.0384294391,1.60981941 C0.196242779,0.816438138 0.816438138,0.196242779 1.60981941,0.0384294391 C1.80301714,0 2.03534484,0 2.5,0 L17.5,0 C17.9646549,0 18.1969833,0 18.3901806,0.0384294391 C19.1835613,0.196242779 19.8037567,0.816438138 19.9615707,1.60981941 C20,1.80301714 20,2.03534484 20,2.5 C20,2.96465516 20,3.19698286 19.9615707,3.39018059 C19.8037567,4.1835618 19.1835613,4.80375719 18.3901806,4.96157074 C18.2831039,4.98286963 18.1640072,4.99236345 18,4.99659586 M8,10 L12,10"></path>
            </g>
        </g>
    </g>
</svg>