<?xml version="1.0" encoding="UTF-8"?>
<svg width="24px" height="24px" viewBox="0 0 24 24" version="1.1" xmlns="http://www.w3.org/2000/svg" xmlns:xlink="http://www.w3.org/1999/xlink">
    <title>arrows-triangle</title>
    <g id="Line-icons" stroke="none" stroke-width="1" fill="none" fill-rule="evenodd" stroke-linecap="round" stroke-linejoin="round">
        <g id="Arrows" transform="translate(-608, -196)" fill-rule="nonzero" stroke="#000000" stroke-width="2">
            <g id="Icon" transform="translate(610, 198.8355)">
                <polyline points="16 2.16460919 14.9019241 6.26268578 10.8038473 5.16460991"></polyline>
                <polyline points="0 8.76261711 4.09807634 7.66454124 5.19615221 11.7626171"></polyline>
                <polyline points="13.5 19.1645412 10.5 16.1645412 13.5 13.1645412"></polyline>
                <path d="M15.2942171,16.1645412 L15.2942171,16.1645412 L15.2942171,16.1645412 C17.1594129,16.1645412 18.0920105,16.1645408 18.6215343,15.7737303 C19.0831904,15.4330082 19.376277,14.9104204 19.4262772,14.3388281 C19.4836283,13.6832066 18.9973259,12.8874378 18.0247192,11.2958994 C17.6077708,10.6136211 16.7166714,10.3985287 16.0343931,10.8154772 C15.9211685,10.8846701 15.8179937,10.9691001 15.7277663,11.066396 M1.97527981,11.2959032 L1.97527981,11.2959032 L1.97527981,11.2959032 C1.00267363,12.8874402 0.516370773,13.6832089 0.573722243,14.33883 C0.62372303,14.9104223 0.916808367,15.4330106 1.37846494,15.7737322 C1.90798879,16.1645432 2.84058642,16.1645432 4.70578194,16.1645432 C5.45569162,16.1645432 6.06361353,15.5566212 6.06361353,14.8067116 C6.06361353,14.6819828 6.04642777,14.5578488 6.01254105,14.4378115 M12.7305012,2.63263535 L12.7305012,2.63263535 L12.7305012,2.63263535 C11.8277097,1.15533996 11.3763151,0.416692346 10.7951984,0.164881557 C10.2878585,-0.0549605191 9.71214199,-0.0549605191 9.20480156,0.164881557 C8.62368512,0.416692346 8.17228901,1.15534043 7.26949692,2.63263679 C6.86966994,3.28689936 7.07593074,4.14140778 7.73019332,4.54123476 C7.8632447,4.62254391 8.00904289,4.68085811 8.16146768,4.7137295"></path>
            </g>
        </g>
    </g>
</svg>