<?xml version="1.0" encoding="UTF-8"?>
<svg width="24px" height="24px" viewBox="0 0 24 24" version="1.1" xmlns="http://www.w3.org/2000/svg" xmlns:xlink="http://www.w3.org/1999/xlink">
    <title>at-sign</title>
    <g id="Line-icons" stroke="none" stroke-width="1" fill="none" fill-rule="evenodd" stroke-linecap="round" stroke-linejoin="round">
        <g id="General" transform="translate(-64, -396)" fill-rule="nonzero" stroke="#000000" stroke-width="2">
            <g id="Icon" transform="translate(66, 398.0006)">
                <path d="M10.0000114,13.9993792 C12.2091503,13.9993792 14.0000114,12.208518 14.0000114,9.99937916 C14.0000114,7.79024005 12.2091503,5.99937916 10.0000114,5.99937916 C7.79087234,5.99937916 6.00001144,7.79024005 6.00001144,9.99937916 C6.00001144,12.208518 7.79087234,13.9993792 10.0000114,13.9993792 Z"></path>
                <path d="M14.0000114,5.99937916 L14.0000114,10.9993792 C14.0000114,11.7950286 14.3160816,12.5580907 14.8786907,13.1206999 C15.4412999,13.683309 16.204362,13.9993792 17.0000114,13.9993792 C17.7956609,13.9993792 18.558723,13.683309 19.1213322,13.1206999 C19.6839413,12.5580907 20.0000114,11.7950286 20.0000114,10.9993792 L20.0000114,9.99937916 C20.0000114,7.74240875 19.2362374,5.55185676 17.8332825,3.78391075 C16.4303275,2.01596475 14.4705627,0.774604648 12.2726498,0.261676878 C10.0747368,-0.251250893 7.76794362,-0.00557887554 5.72735739,0.958746552 C3.68677115,1.92307198 2.03240675,3.54933476 1.03326702,5.57310247 C0.034127295,7.59687018 -0.251024514,9.89911675 0.224177182,12.1054935 C0.699378878,14.3118703 1.90698564,16.2926126 3.6506393,17.725647 C5.39429295,19.1586814 7.57144237,19.9597267 9.82807922,19.9985313 C12.0847161,20.0373359 14.288119,19.3116187 16.0800114,17.9393806"></path>
            </g>
        </g>
    </g>
</svg>