<?xml version="1.0" encoding="UTF-8"?>
<svg width="24px" height="24px" viewBox="0 0 24 24" version="1.1" xmlns="http://www.w3.org/2000/svg" xmlns:xlink="http://www.w3.org/1999/xlink">
    <title>atom-01</title>
    <g id="Line-icons" stroke="none" stroke-width="1" fill="none" fill-rule="evenodd" stroke-linecap="round" stroke-linejoin="round">
        <g id="Education" transform="translate(-64, -156)" fill-rule="nonzero" stroke="#000000" stroke-width="2">
            <g id="Icon" transform="translate(66.8047, 158.8052)">
                <path d="M12.73036,12.7305002 C8.04406881,17.4167914 2.66216642,19.6328697 0.709544957,17.6802483 C-1.2430765,15.7276268 0.973001003,10.3457241 5.65929222,5.65943289 C10.3455834,0.97314167 15.7274857,-1.24293584 17.6801071,0.709685624 C19.6327286,2.66230708 17.4166512,8.044209 12.73036,12.7305002 Z"></path>
                <path d="M12.73032,5.65925217 C17.4166112,10.3455434 19.6326885,15.7274456 17.6800671,17.6800671 C15.7274456,19.6326885 10.3455434,17.4166112 5.65925217,12.73032 C0.972960949,8.04402876 -1.24311668,2.66212624 0.709504783,0.709504783 C2.66212624,-1.24311668 8.04402876,0.972960949 12.73032,5.65925217 Z"></path>
                <path d="M9.69482613,9.19496727 C9.69482613,9.47110966 9.47096851,9.69496727 9.19482613,9.69496727 C8.91868374,9.69496727 8.69482613,9.47110966 8.69482613,9.19496727 C8.69482613,8.91882488 8.91868374,8.69496727 9.19482613,8.69496727 C9.47096851,8.69496727 9.69482613,8.91882488 9.69482613,9.19496727 Z"></path>
                <line x1="9.19482613" y1="9.19496727" x2="9.20482635" y2="9.19496727"></line>
            </g>
        </g>
    </g>
</svg>