<?xml version="1.0" encoding="UTF-8"?>
<svg width="24px" height="24px" viewBox="0 0 24 24" version="1.1" xmlns="http://www.w3.org/2000/svg" xmlns:xlink="http://www.w3.org/1999/xlink">
    <title>atom-02</title>
    <g id="Line-icons" stroke="none" stroke-width="1" fill="none" fill-rule="evenodd" stroke-linecap="round" stroke-linejoin="round">
        <g id="Education" transform="translate(-64, -196)" fill-rule="nonzero" stroke="#000000" stroke-width="2">
            <g id="Icon" transform="translate(67.1591, 199.1592)">
                <path d="M13.1043386,4.61905766 C17.400106,8.91482496 18.9830191,14.2967279 16.6398735,16.6398735 C14.2967279,18.9830191 8.91482496,17.400106 4.61905766,13.1043386 C0.323290348,8.80857134 -1.25962186,3.42666936 1.08352375,1.08352375 C3.42666936,-1.25962186 8.80857134,0.323290348 13.1043386,4.61905766 Z"></path>
                <path d="M8.84088326,9.84081268 C9.39316797,9.84081268 9.84088326,9.3930974 9.84088326,8.84081268 C9.84088326,8.28852791 9.39316797,7.84081316 8.84088326,7.84081316 C8.28859848,7.84081316 7.84088326,8.28852791 7.84088326,8.84081268 C7.84088326,9.3930974 8.28859848,9.84081268 8.84088326,9.84081268 Z"></path>
                <path d="M13.9561462,12.1990004 C13.6854486,12.505064 13.4013796,12.8072977 13.1043386,13.1043386 C8.80857086,17.4001064 3.42666936,18.9830189 1.08352375,16.6398735 C-0.522879124,15.0334702 -0.283981562,11.9988098 1.40928674,8.86505604 M3.73049021,5.56607533 C4.0121994,5.24576616 4.30854082,4.92957497 4.61905766,4.61905813 C8.91482544,0.323290825 14.2967281,-1.25962162 16.6398735,1.08352399 C18.2473831,2.69103384 18.0070496,5.7287693 16.3106079,8.86481857"></path>
            </g>
        </g>
    </g>
</svg>