<?xml version="1.0" encoding="UTF-8"?>
<svg width="24px" height="24px" viewBox="0 0 24 24" version="1.1" xmlns="http://www.w3.org/2000/svg" xmlns:xlink="http://www.w3.org/1999/xlink">
    <title>attachment-01</title>
    <g id="Line-icons" stroke="none" stroke-width="1" fill="none" fill-rule="evenodd" stroke-linecap="round" stroke-linejoin="round">
        <g id="Editor" transform="translate(-64, -316)" fill-rule="nonzero" stroke="#000000" stroke-width="2">
            <g id="attachment-01" transform="translate(67.1746, 318.4497)">
                <path d="M15.446865,10.9808043 L8.96230984,17.4653587 L8.96230984,17.4653587 C6.91205788,19.5156107 3.58794188,19.5156114 1.53768921,17.4653587 C-0.512563229,15.4151063 -0.512562752,12.0909891 1.53768921,10.0407372 L10.5532999,1.02512634 C11.9201349,-0.34170866 14.1362131,-0.341708779 15.5030479,1.0251261 C16.8698831,2.39196122 16.8698828,4.60803866 15.5030479,5.97487354 L6.84099007,14.6369314 C6.15757322,15.3203483 5.04953361,15.320349 4.36611605,14.6369314 C3.68269849,13.9535139 3.6826992,12.8454747 4.36611605,12.1620579 L9.43645674,7.09171718 C10.9127876,5.61538634 13.219824,5.370978 14.9727182,6.50520349" id="Icon"></path>
            </g>
        </g>
    </g>
</svg>