<?xml version="1.0" encoding="UTF-8"?>
<svg width="24px" height="24px" viewBox="0 0 24 24" version="1.1" xmlns="http://www.w3.org/2000/svg" xmlns:xlink="http://www.w3.org/1999/xlink">
    <title>award-03</title>
    <g id="Line-icons" stroke="none" stroke-width="1" fill="none" fill-rule="evenodd" stroke-linecap="round" stroke-linejoin="round">
        <g id="Education" transform="translate(-64, -316)" fill-rule="nonzero" stroke="#000000" stroke-width="2">
            <g id="Icon" transform="translate(68.5, 318)">
                <path d="M11.9258862,2.24887991 C12.0803248,2.62239906 12.3767671,2.91929859 12.7500401,3.0743041 L14.0589266,3.61648297 C14.4324615,3.77121188 14.7292346,4.06799498 14.8839579,4.44154358 C15.0386811,4.81509218 15.0386811,5.2348074 14.8839579,5.608356 L14.3421888,6.91635227 C14.1873974,7.29006544 14.1871805,7.71020618 14.3426752,8.08373928 L14.8835068,9.39134693 C14.9602087,9.57636081 14.9997047,9.77467616 14.9997368,9.97496033 C14.9997689,10.1752445 14.9603373,10.3735725 14.8836946,10.5586109 C14.807052,10.7436493 14.6947003,10.9117718 14.5530605,11.0533714 C14.4114207,11.194971 14.2432685,11.3072716 14.0582123,11.3838577 L12.7502632,11.9256477 C12.3767577,12.080092 12.0798694,12.3765446 11.9248695,12.7498312 L11.3827105,14.0587664 C11.2279872,14.432315 10.931216,14.7290974 10.5576811,14.8838263 C10.1841461,15.0385551 9.7644451,15.0385571 9.39091015,14.8838282 L8.08296299,14.3420382 C7.7094177,14.1876901 7.28986919,14.1880033 6.91655636,14.3429127 L5.60766935,14.8843155 C5.23434195,15.0386863 4.81500757,15.0385553 4.44177628,14.8839521 C4.06854498,14.729349 3.77193898,14.4329173 3.6171093,14.0597687 L3.07478929,12.7504435 C2.92035069,12.3769243 2.62390834,12.0800248 2.25063539,11.9250193 L0.941748083,11.3828402 C0.568375707,11.2281787 0.271692067,10.9315839 0.11691168,10.5582495 C-0.0378687084,10.1849151 -0.038078852,9.76539665 0.116328068,9.39190769 L0.658097804,8.0839119 C0.812440187,7.71035299 0.812125385,7.29078835 0.657221675,6.91746187 L0.116229177,5.60758829 C0.0395272523,5.42257442 0,5.22425859 0,5.02397442 C0,4.82369025 0.0393994823,4.62536322 0.116042107,4.44032478 C0.192684732,4.25528635 0.305035979,4.08716387 0.446675777,3.94556427 C0.588315576,3.80396467 0.756467685,3.69166362 0.94152391,3.6150775 L2.24947262,3.07328725 C2.62265304,2.91897798 2.91936368,2.62290049 3.07447743,2.25004244 L3.61663628,0.941107273 C3.7713595,0.567558676 4.06813213,0.270775549 4.44166708,0.116046675 C4.81520203,-0.0386822 5.23490164,-0.0386822373 5.60843658,0.116046667 L6.91638422,0.657836497 C7.28992951,0.812184542 7.7094785,0.8118691 8.08279133,0.656959772 L9.39222813,0.116886869 C9.76571277,-0.0377551019 10.1853242,-0.0377234966 10.5587854,0.116974875 C10.9322467,0.271673247 11.2289779,0.568371207 11.3837271,0.941822767 L11.9260473,2.25114727 L11.9258862,2.24887991 Z"></path>
                <path d="M3.36865878,13.4599352 L2.5,20 L7.08840322,17.2469597 C7.23805332,17.1571693 7.31287861,17.1122735 7.39275599,17.0947323 C7.46341038,17.0792167 7.53658962,17.0792167 7.60724401,17.0947323 C7.68712139,17.1122735 7.76194668,17.1571696 7.91159678,17.2469597 L12.5,20 L11.6319189,13.4571047"></path>
            </g>
        </g>
    </g>
</svg>