<?xml version="1.0" encoding="UTF-8"?>
<svg width="24px" height="24px" viewBox="0 0 24 24" version="1.1" xmlns="http://www.w3.org/2000/svg" xmlns:xlink="http://www.w3.org/1999/xlink">
    <title>award-01</title>
    <g id="Line-icons" stroke="none" stroke-width="1" fill="none" fill-rule="evenodd" stroke-linecap="round" stroke-linejoin="round">
        <g id="Education" transform="translate(-64, -236)" fill-rule="nonzero" stroke="#000000" stroke-width="2">
            <g id="Icon" transform="translate(69, 238)">
                <path d="M7,14 C10.8659935,14 14,10.8659935 14,7 C14,3.13400674 10.8659935,0 7,0 C3.13400674,0 0,3.13400674 0,7 C0,10.8659935 3.13400674,14 7,14 Z"></path>
                <path d="M2.9666822,12.7219276 L2,20 L6.58840322,17.2469635 C6.73805332,17.1571732 6.81287861,17.1122789 6.89275599,17.094738 C6.96341038,17.0792227 7.03658962,17.0792227 7.10724401,17.094738 C7.18712139,17.1122789 7.26194668,17.1571736 7.41159678,17.2469635 L12,20 L11.0342875,12.7212429"></path>
            </g>
        </g>
    </g>
</svg>