<?xml version="1.0" encoding="UTF-8"?>
<svg width="24px" height="24px" viewBox="0 0 24 24" version="1.1" xmlns="http://www.w3.org/2000/svg" xmlns:xlink="http://www.w3.org/1999/xlink">
    <title>award-04</title>
    <g id="Line-icons" stroke="none" stroke-width="1" fill="none" fill-rule="evenodd" stroke-linecap="round" stroke-linejoin="round">
        <g id="Education" transform="translate(-64, -356)" fill-rule="nonzero" stroke="#000000" stroke-width="2">
            <g id="Icon" transform="translate(68, 358)">
                <line x1="1.00005388" y1="0.999995232" x2="8.00005341" y2="9.99999523"></line>
                <path d="M11.5355377,11.4644632 C13.4881549,13.4170805 13.4881549,16.5829084 11.5355377,18.5355377 C9.58292055,20.488155 6.41709185,20.488155 4.46446276,18.5355377 C2.51184559,16.5829204 2.51184559,13.4170926 4.46446276,11.4644632 C6.41707993,9.51184595 9.58290863,9.51184595 11.5355377,11.4644632 Z"></path>
                <line x1="14.9999561" y1="0.999995232" x2="8.00005341" y2="9.99999523"></line>
                <path d="M4.87624884,11.0953112 L0.701220393,5.8765254 C0.441324532,5.55165577 0.311376601,5.38922071 0.218968377,5.20834255 C0.136983946,5.04786777 0.077063866,4.87704849 0.0408350639,4.70052338 C0,4.50155401 0,4.29353619 0,3.87750077 L0,3.20000005 C0,2.07989502 0,1.51984251 0.217986971,1.09201896 C0.409733713,0.715694845 0.715694845,0.409733713 1.09201896,0.217986971 C1.51984251,0 2.07989502,0 3.20000005,0 L12.8000002,0 C13.920105,0 14.4801579,0 14.9079809,0.217986971 C15.2843056,0.409733713 15.5902662,0.715694845 15.7820129,1.09201896 C16,1.51984251 16,2.07989502 16,3.19999981 L16,3.87750053 C16,4.29353619 16,4.50155401 15.9591646,4.70052338 C15.9229364,4.87704849 15.8630161,5.04786777 15.7810316,5.20834255 C15.6886234,5.38922071 15.5586758,5.55165529 15.2987804,5.87652493 L11.1237507,11.0953121"></path>
            </g>
        </g>
    </g>
</svg>