<?xml version="1.0" encoding="UTF-8"?>
<svg width="24px" height="24px" viewBox="0 0 24 24" version="1.1" xmlns="http://www.w3.org/2000/svg" xmlns:xlink="http://www.w3.org/1999/xlink">
    <title>award-02</title>
    <g id="Line-icons" stroke="none" stroke-width="1" fill="none" fill-rule="evenodd" stroke-linecap="round" stroke-linejoin="round">
        <g id="Education" transform="translate(-64, -276)" fill-rule="nonzero" stroke="#000000" stroke-width="2">
            <g id="Icon" transform="translate(68.5, 278)">
                <path d="M7.5,15 C11.6421356,15 15,11.6421356 15,7.5 C15,3.35786438 11.6421356,0 7.5,0 C3.35786438,0 0,3.35786438 0,7.5 C0,11.6421356 3.35786438,15 7.5,15 Z"></path>
                <path d="M2.5,13.0902662 L2.5,20 L7.20288706,18.118845 C7.31264877,18.0749402 7.36752987,18.0529876 7.42419243,18.0442963 C7.47443676,18.0365891 7.52556324,18.0365891 7.57580757,18.0442963 C7.63247013,18.0529876 7.68735123,18.0749402 7.79711246,18.118845 L12.5,20 L12.5,13.0902662"></path>
            </g>
        </g>
    </g>
</svg>