<?xml version="1.0" encoding="UTF-8"?>
<svg width="24px" height="24px" viewBox="0 0 24 24" version="1.1" xmlns="http://www.w3.org/2000/svg" xmlns:xlink="http://www.w3.org/1999/xlink">
    <title>award-05</title>
    <g id="Line-icons" stroke="none" stroke-width="1" fill="none" fill-rule="evenodd" stroke-linecap="round" stroke-linejoin="round">
        <g id="Education" transform="translate(-64, -396)" fill-rule="nonzero" stroke="#000000" stroke-width="2">
            <g id="Icon" transform="translate(66.7069, 398)">
                <path d="M13.8892727,8.90380192 C16.427675,11.4422042 16.427675,15.557781 13.8892727,18.096199 C11.3508704,20.6346014 7.23529339,20.6346014 4.69687557,18.096199 C2.15847325,15.5577967 2.15847325,11.44222 4.69687557,8.90380192 C7.23527789,6.3653996 11.3508549,6.3653996 13.8892727,8.90380192 Z"></path>
                <polyline points="7.79307413 12 9.29307365 11 9.29307365 16"></polyline>
                <line x1="8.04307365" y1="16" x2="10.5430737" y2="16"></line>
                <path d="M4.42811537,9.1889801 L0.62336874,2.38051677 C0.185881019,1.59764743 -0.0328628733,1.20621276 0.00400140742,0.885727167 C0.0361643718,0.606113195 0.184672624,0.35299921 0.413069755,0.188520655 C0.674852043,0 1.12326002,0 2.0200758,0 L4.25489664,0 C4.58819389,0 4.75484228,0 4.90431929,0.0481334887 C5.03658724,0.0907254294 5.1585269,0.160415947 5.26236105,0.252760053 C5.37970448,0.357118875 5.46429157,0.500704288 5.63346577,0.787875175 L9.29307365,7 L12.9526825,0.787875175 C13.1218569,0.500704288 13.2064435,0.357118875 13.3237867,0.252760053 C13.4276209,0.160415947 13.5495605,0.0907254294 13.6818285,0.0481334887 C13.8313055,0 13.9979539,0 14.3312511,0 L16.5660725,0 C17.4628882,0 17.9112968,0 18.1730785,0.188520655 C18.4014759,0.35299921 18.549984,0.606113255 18.5821476,0.885727167 C18.6190119,1.20621276 18.4002676,1.59764755 17.96278,2.38051701 L14.1580334,9.1889782"></path>
            </g>
        </g>
    </g>
</svg>