<?xml version="1.0" encoding="UTF-8"?>
<svg width="24px" height="24px" viewBox="0 0 24 24" version="1.1" xmlns="http://www.w3.org/2000/svg" xmlns:xlink="http://www.w3.org/1999/xlink">
    <title>backpack</title>
    <g id="Line-icons" stroke="none" stroke-width="1" fill="none" fill-rule="evenodd" stroke-linecap="round" stroke-linejoin="round">
        <g id="Education" transform="translate(-64, -436)" fill-rule="nonzero" stroke="#000000" stroke-width="2">
            <g id="Icon" transform="translate(67, 439)">
                <path d="M0,4.71428585 C0,3.1149416 0,2.31526971 0.297093302,1.698349 C0.59197256,1.08602577 1.08602577,0.59197256 1.698349,0.297093302 C2.31526971,0 3.11494172,0 4.71428585,0 L13.2857141,0 C14.8850583,0 15.6847303,0 16.301651,0.297093302 C16.9139742,0.59197256 17.4080283,1.08602577 17.7029076,1.698349 C18,2.31526971 18,3.11494184 18,4.71428585 C18,6.84674454 18,7.9129737 17.6038761,8.73553467 C17.2107038,9.55196559 16.5519656,10.2107028 15.7355347,10.6038752 C14.9129737,11 13.8467443,11 11.7142859,11 L6.28571415,11 C4.1532557,11 3.0870263,11 2.26446533,10.6038752 C1.44803441,10.2107028 0.789296746,9.55196559 0.396124393,8.73553467 C0,7.9129737 0,6.8467443 0,4.71428585 Z"></path>
                <path d="M17,12.5638852 L17,14.8000002 L17,14.8000002 C17,15.920105 17,16.4801583 16.7820129,16.9079819 C16.5902662,17.284306 16.2843056,17.5902662 15.9079809,17.7820129 C15.4801579,18 14.920105,18 13.8000002,18 L4.19999981,18 C3.07989502,18 2.51984262,18 2.09201908,17.7820129 C1.71569496,17.5902662 1.40973368,17.284306 1.21798694,16.9079819 C1,16.4801583 1,15.920105 1,14.8000002 L1,12.5638852 C1,11.6723665 1.09282561,11.3490802 1.2671327,11.0231543 C1.4414398,10.6972284 1.69722837,10.4414398 2.0231543,10.2671327 C2.34908022,10.0928256 2.67236646,10 3.5638852,10 M6,7 L12,7"></path>
            </g>
        </g>
    </g>
</svg>