<?xml version="1.0" encoding="UTF-8"?>
<svg width="24px" height="24px" viewBox="0 0 24 24" version="1.1" xmlns="http://www.w3.org/2000/svg" xmlns:xlink="http://www.w3.org/1999/xlink">
    <title>bar-chart-12</title>
    <g id="Line-icons" stroke="none" stroke-width="1" fill="none" fill-rule="evenodd" stroke-linecap="round" stroke-linejoin="round">
        <g id="Charts" transform="translate(-64, -596)" fill-rule="nonzero" stroke="#000000" stroke-width="2">
            <g id="Icon" transform="translate(67, 599)">
                <path d="M12,5.60000038 C12,5.03994769 12,4.75992131 11.8910065,4.54600954 C11.7951331,4.35784745 11.6421521,4.20486691 11.45399,4.10899353 C11.2400782,4 10.9600523,4 10.3999996,4 L7.5999999,4 C7.03994733,4 6.75992128,4 6.54600954,4.10899353 C6.35784747,4.20486691 6.20486689,4.35784747 6.10899353,4.54600954 C6,4.75992128 6,5.03994787 6,5.60000086 L6,18 L12,18 L12,5.60000038 Z"></path>
                <path d="M6,9 L1.60000014,9 C1.03994751,9 0.759921193,9 0.546009481,9.10899353 C0.357847393,9.20486691 0.204866856,9.35784796 0.108993486,9.54601002 C0,9.75992179 0,10.039948 0,10.6000004 L0,16.3999996 C0,16.960052 0,17.2400789 0.108993538,17.4539909 C0.204866916,17.6421528 0.357847452,17.7951336 0.546009541,17.8910065 C0.759921312,18 1.03994739,18 1.59999967,18 L6,18 M12,18 L16.3999996,18 C16.960052,18 17.2400775,18 17.453989,17.8910065 C17.6421514,17.7951336 17.7951331,17.6421528 17.8910065,17.4539909 C18,17.240078 18,16.9600525 18,16.3999996 L18,1.60000026 C18,1.03994763 18,0.759921312 17.8910065,0.546009541 C17.7951331,0.357847482 17.6421528,0.204866901 17.4539909,0.108993538 C17.2400789,0 16.9600525,0 16.3999996,0 L13.5999994,0 C13.0399472,0 12.7599217,0 12.54601,0.108993828 C12.3578479,0.204867199 12.2048669,0.35784775 12.1089935,0.546009839 C12,0.759921551 12,1.03994775 12,1.60000026 L12,5"></path>
            </g>
        </g>
    </g>
</svg>