<?xml version="1.0" encoding="UTF-8"?>
<svg width="24px" height="24px" viewBox="0 0 24 24" version="1.1" xmlns="http://www.w3.org/2000/svg" xmlns:xlink="http://www.w3.org/1999/xlink">
    <title>bar-chart-07</title>
    <g id="Line-icons" stroke="none" stroke-width="1" fill="none" fill-rule="evenodd" stroke-linecap="round" stroke-linejoin="round">
        <g id="Charts" transform="translate(-64, -396)" fill-rule="nonzero" stroke="#000000" stroke-width="2">
            <g id="Icon" transform="translate(67, 399)">
                <line x1="4" y1="7.5" x2="4" y2="14.5"></line>
                <line x1="8.5" y1="2.5" x2="8.5" y2="14.5"></line>
                <line x1="13" y1="7.5" x2="13" y2="14.5"></line>
                <line x1="17.5" y1="2.5" x2="17.5" y2="14.5"></line>
                <path d="M13.1715729,18 L3.19999981,18 L3.19999981,18 C2.07989478,18 1.51984251,18 1.09201896,17.7820129 C0.715694845,17.5902653 0.409733713,17.2843056 0.217986971,16.90798 C0,16.4801579 0,15.920105 0,14.7999992 L-8.8817842e-16,4.82842712 C-1.02344917e-15,3.72385763 0.8954305,2.82842712 2,2.82842712 C2.53043298,2.82842712 3.03914081,3.03914081 3.41421356,3.41421356"></path>
            </g>
        </g>
    </g>
</svg>