<?xml version="1.0" encoding="UTF-8"?>
<svg width="24px" height="24px" viewBox="0 0 24 24" version="1.1" xmlns="http://www.w3.org/2000/svg" xmlns:xlink="http://www.w3.org/1999/xlink">
    <title>bar-chart-square-down</title>
    <g id="Line-icons" stroke="none" stroke-width="1" fill="none" fill-rule="evenodd" stroke-linecap="round" stroke-linejoin="round">
        <g id="Charts" transform="translate(-336, -356)" fill-rule="nonzero" stroke="#000000" stroke-width="2">
            <g id="Icon" transform="translate(338, 358)">
                <line x1="6" y1="11" x2="6" y2="15"></line>
                <line x1="14" y1="9" x2="14" y2="15"></line>
                <line x1="10" y1="5" x2="10" y2="15"></line>
                <path d="M11.8588139,1 L14.1999998,1 L14.1999998,1 C15.8801575,1 16.7202368,1 17.3619709,1.32698047 C17.9264584,1.61460057 18.3853989,2.07354236 18.6730194,2.63802862 C19,3.27976382 19,4.11984253 19,5.80000019 L19,14.2000008 C19,15.8801575 19,16.7202368 18.6730194,17.3619709 C18.3853989,17.9264584 17.9264584,18.3853989 17.3619709,18.6730194 C16.7202368,19 15.8801575,19 14.1999998,19 L5.79999971,19 C4.11984229,19 3.27976382,19 2.63802862,18.6730194 C2.07354236,18.3853989 1.61460057,17.9264584 1.32698047,17.3619709 C1,16.7202368 1,15.8801575 1,14.1999998 L1,11.8588139 C1,11.0841896 1.02804788,10.816233 1.09649619,10.5192453 C1.1649445,10.2222576 1.27379325,9.95947351 1.43539498,9.70107124 C1.59699671,9.44266898 1.76663779,9.23336221 2.3143799,8.6856201 M0,3 L3,6 L6,3 M3,0 L3,6"></path>
            </g>
        </g>
    </g>
</svg>