<?xml version="1.0" encoding="UTF-8"?>
<svg width="24px" height="24px" viewBox="0 0 24 24" version="1.1" xmlns="http://www.w3.org/2000/svg" xmlns:xlink="http://www.w3.org/1999/xlink">
    <title>bar-chart-10</title>
    <g id="Line-icons" stroke="none" stroke-width="1" fill="none" fill-rule="evenodd" stroke-linecap="round" stroke-linejoin="round">
        <g id="Charts" transform="translate(-64, -516)" fill-rule="nonzero" stroke="#000000" stroke-width="2">
            <g id="Icon" transform="translate(67, 519)">
                <path d="M12,1.60000026 C12,1.03994757 12,0.759921238 11.8910074,0.546009481 C11.7951341,0.357847393 11.642153,0.204866834 11.4539909,0.108993456 C11.2400792,0 10.9600523,0 10.3999996,0 L7.5999999,0 C7.03994733,0 6.75992128,0 6.54600954,0.10899362 C6.35784747,0.204866998 6.20486689,0.357847527 6.10899353,0.5460096 C6,0.759921342 6,1.03994757 6,1.60000002 L6,18 L12,18 L12,1.60000026 Z"></path>
                <path d="M6,4 L1.5999999,4 C1.03994739,4 0.759921193,4 0.546009481,4.10899353 C0.357847393,4.2048669 0.204866856,4.35784748 0.108993486,4.54600954 C0,4.75992131 0,5.03994775 0,5.60000086 L0,16.3999996 C0,16.9600525 0,17.2400789 0.108993538,17.4539909 C0.204866916,17.6421528 0.357847452,17.7951336 0.546009541,17.8910065 C0.759921312,18 1.03994751,18 1.59999979,18 L6,18 M12,8 L16.3999996,8 C16.9600525,8 17.2400789,8 17.4539909,8.10899353 C17.6421528,8.20486691 17.7951331,8.35784701 17.8910065,8.54600906 C18,8.75992084 18,9.03994775 18,9.60000038 L18,16.3999996 C18,16.9600515 18,17.2400789 17.8910065,17.4539909 C17.7951331,17.6421528 17.6421533,17.7951336 17.4539909,17.8910065 C17.2400794,18 16.960052,18 16.3999996,18 L12,18"></path>
            </g>
        </g>
    </g>
</svg>