<?xml version="1.0" encoding="UTF-8"?>
<svg width="24px" height="24px" viewBox="0 0 24 24" version="1.1" xmlns="http://www.w3.org/2000/svg" xmlns:xlink="http://www.w3.org/1999/xlink">
    <title>bar-line-chart</title>
    <g id="Line-icons" stroke="none" stroke-width="1" fill="none" fill-rule="evenodd" stroke-linecap="round" stroke-linejoin="round">
        <g id="Charts" transform="translate(-336, -516)" fill-rule="nonzero" stroke="#000000" stroke-width="2">
            <g id="Icon" transform="translate(338.5, 519)">
                <path d="M18.5606594,3.43933964 C19.1464456,4.02512598 19.1464456,4.97487402 18.5606594,5.56066036 C17.9748732,6.1464467 17.0251268,6.1464467 16.4393406,5.56066036 C15.8535544,4.97487402 15.8535544,4.02512598 16.4393406,3.43933964 C17.0251268,2.8535533 17.9748732,2.8535533 18.5606594,3.43933964 Z"></path>
                <path d="M2.56066036,6.43933964 C3.14644659,7.02512598 3.14644659,7.97487402 2.56066036,8.56066036 C1.97487414,9.1464467 1.02512592,9.1464467 0.439339697,8.56066036 C-0.146446526,7.97487402 -0.146446526,7.02512598 0.439339697,6.43933964 C1.02512592,5.8535533 1.97487414,5.8535533 2.56066036,6.43933964 Z"></path>
                <path d="M10.5606604,0.439339727 C11.1464466,1.02512607 11.1464466,1.97487378 10.5606604,2.56066012 C9.97487414,3.14644647 9.02512586,3.14644647 8.43933964,2.56066012 C7.85355341,1.97487378 7.85355341,1.02512607 8.43933964,0.439339727 C9.02512586,-0.146446615 9.97487414,-0.146446615 10.5606604,0.439339727 Z"></path>
                <path d="M17.5,10 L17.5,17 M9.5,7 L9.5,17 M1.5,13 L1.5,17 M16.0751171,3.96566987 L10.9066772,2.02750444 M8.2987709,2.40092182 L2.70022821,6.59982872"></path>
            </g>
        </g>
    </g>
</svg>