<?xml version="1.0" encoding="UTF-8"?>
<svg width="24px" height="24px" viewBox="0 0 24 24" version="1.1" xmlns="http://www.w3.org/2000/svg" xmlns:xlink="http://www.w3.org/1999/xlink">
    <title>bar-chart-11</title>
    <g id="Line-icons" stroke="none" stroke-width="1" fill="none" fill-rule="evenodd" stroke-linecap="round" stroke-linejoin="round">
        <g id="Charts" transform="translate(-64, -556)" fill-rule="nonzero" stroke="#000000" stroke-width="2">
            <g id="Icon" transform="translate(67, 559)">
                <path d="M12,5.60000038 C12,5.03994769 12,4.75992131 11.8910065,4.54600954 C11.7951331,4.35784745 11.6421521,4.20486691 11.45399,4.10899353 C11.2400782,4 10.9600523,4 10.3999996,4 L6,4 L6,18 L12,18 L12,5.60000038 Z"></path>
                <path d="M6,18 L1.59999967,18 C1.03994739,18 0.759921312,18 0.546009541,17.8910065 C0.357847452,17.7951336 0.204866916,17.6421528 0.108993545,17.4539909 C0,17.240078 0,16.9600525 0,16.3999996 L0,1.60000014 C0,1.03994775 0,0.759921491 0.108993478,0.546009719 C0.204866841,0.357847661 0.357847393,0.20486711 0.546009481,0.108993731 C0.759921193,0 1.03994739,0 1.5999999,0 L4.4000001,0 C4.96005249,0 5.24007893,0 5.45399046,0.108993515 C5.64215279,0.204866886 5.79513311,0.357847422 5.89100647,0.546009541 C6,0.759921253 6,1.03994751 6,1.60000002 L6,4 M12,8 L16.3999996,8 C16.9600525,8 17.2400789,8 17.4539909,8.10899353 C17.6421528,8.20486691 17.7951331,8.35784701 17.8910065,8.54600906 C18,8.75992084 18,9.03994775 18,9.60000038 L18,16.4000015 C18,16.9600534 18,17.2400789 17.8910065,17.4539909 C17.7951331,17.6421528 17.6421533,17.7951336 17.4539909,17.8910065 C17.2400794,18 16.960052,18 16.3999996,18 L12,18"></path>
            </g>
        </g>
    </g>
</svg>