<?xml version="1.0" encoding="UTF-8"?>
<svg width="24px" height="24px" viewBox="0 0 24 24" version="1.1" xmlns="http://www.w3.org/2000/svg" xmlns:xlink="http://www.w3.org/1999/xlink">
    <title>bar-chart-square-minus</title>
    <g id="Line-icons" stroke="none" stroke-width="1" fill="none" fill-rule="evenodd" stroke-linecap="round" stroke-linejoin="round">
        <g id="Charts" transform="translate(-336, -396)" fill-rule="nonzero" stroke="#000000" stroke-width="2">
            <g id="Icon" transform="translate(338, 399)">
                <line x1="6" y1="10" x2="6" y2="14"></line>
                <line x1="14" y1="8" x2="14" y2="14"></line>
                <line x1="10" y1="4" x2="10" y2="14"></line>
                <path d="M11.8588139,1.21907845e-15 L14.1999998,0 L14.1999998,0 C15.8801575,0 16.7202368,0 17.3619709,0.326980442 C17.9264584,0.614600539 18.3853989,1.07354224 18.6730194,1.6380285 C19,2.2797637 19,3.11984253 19,4.80000019 L19,13.2000008 C19,14.8801575 19,15.7202368 18.6730194,16.3619709 C18.3853989,16.9264584 17.9264584,17.3853989 17.3619709,17.6730194 C16.7202368,18 15.8801575,18 14.1999998,18 L5.79999971,18 C4.11984229,18 3.27976382,18 2.63802862,17.6730194 C2.07354236,17.3853989 1.61460057,16.9264584 1.32698047,16.3619709 C1,15.7202368 1,14.8801575 1,13.1999998 L1,10.8588139 C1,10.0841896 1.02804788,9.81623297 1.09649619,9.51924529 C1.1649445,9.22225762 1.27379325,8.95947351 1.43539498,8.70107124 C1.59699671,8.44266898 1.76663779,8.23336221 2.3143799,7.6856201 M0,2 L6,2"></path>
            </g>
        </g>
    </g>
</svg>