<?xml version="1.0" encoding="UTF-8"?>
<svg width="24px" height="24px" viewBox="0 0 24 24" version="1.1" xmlns="http://www.w3.org/2000/svg" xmlns:xlink="http://www.w3.org/1999/xlink">
    <title>battery-charging-02</title>
    <g id="Line-icons" stroke="none" stroke-width="1" fill="none" fill-rule="evenodd" stroke-linecap="round" stroke-linejoin="round">
        <g id="Media-&amp;-devices" transform="translate(-64, -276)" fill-rule="nonzero" stroke="#000000" stroke-width="2">
            <g id="Icon" transform="translate(66, 282)">
                <polyline points="7.5 12 11.5 6 5.5 6 9.5 0"></polyline>
                <path d="M20,5 L20,7 M12.1999998,12 L12.1999998,12 L12.1999998,12 C13.8801575,12 14.7202368,12 15.3619719,11.6730194 C15.9264574,11.3853998 16.3853989,10.9264574 16.6730194,10.3619719 C17,9.72023678 17,8.88015747 17,7.19999981 L17,4 C17,3.07002831 17,2.60504246 16.8977776,2.22354293 C16.6203766,1.18826675 15.8117332,0.379623927 14.7764568,0.10222251 C14.3949575,0 13.9299717,0 13,0 M4.80000019,0 L4.80000019,0 L4.80000019,0 C3.11984253,0 2.2797637,0 1.6380285,0.326980442 C1.07354224,0.614600539 0.614600539,1.07354224 0.326980442,1.6380285 C0,2.2797637 0,3.11984253 0,4.80000019 L0,8 C0,8.92997169 0,9.39495754 0.10222251,9.77645683 C0.379623927,10.8117332 1.18826675,11.6203756 2.22354293,11.8977776 C2.60504246,12 3.07002831,12 4,12"></path>
            </g>
        </g>
    </g>
</svg>