<?xml version="1.0" encoding="UTF-8"?>
<svg width="24px" height="24px" viewBox="0 0 24 24" version="1.1" xmlns="http://www.w3.org/2000/svg" xmlns:xlink="http://www.w3.org/1999/xlink">
    <title>battery-mid</title>
    <g id="Line-icons" stroke="none" stroke-width="1" fill="none" fill-rule="evenodd" stroke-linecap="round" stroke-linejoin="round">
        <g id="Media-&amp;-devices" transform="translate(-64, -436)" fill-rule="nonzero" stroke="#000000" stroke-width="2">
            <g id="Icon" transform="translate(66, 442)">
                <path d="M0,4.80000019 C0,3.11984241 0,2.27976376 0.326980442,1.6380285 C0.614600539,1.0735423 1.0735423,0.614600539 1.6380285,0.326980442 C2.27976376,0 3.11984253,0 4.80000019,0 L12.2000008,0 C13.8801581,0 14.7202366,0 15.3619719,0.326980442 C15.9264581,0.614600539 16.3853993,1.0735423 16.6730194,1.6380285 C17,2.27976376 17,3.11984265 17,4.80000019 L17,7.19999981 C17,8.88015759 17,9.7202366 16.6730194,10.3619719 C16.3853993,10.9264581 15.9264581,11.3853993 15.3619719,11.6730194 C14.7202366,12 13.8801575,12 12.1999998,12 L4.79999971,12 C3.11984241,12 2.27976376,12 1.6380285,11.6730194 C1.0735423,11.3853993 0.614600539,10.9264581 0.326980442,10.3619719 C0,9.7202366 0,8.88015735 0,7.19999981 L0,4.80000019 Z"></path>
                <line x1="4.5" y1="4" x2="4.5" y2="8"></line>
                <line x1="8.5" y1="4" x2="8.5" y2="8"></line>
                <line x1="20" y1="7" x2="20" y2="5"></line>
            </g>
        </g>
    </g>
</svg>