<?xml version="1.0" encoding="UTF-8"?>
<svg width="24px" height="24px" viewBox="0 0 24 24" version="1.1" xmlns="http://www.w3.org/2000/svg" xmlns:xlink="http://www.w3.org/1999/xlink">
    <title>beaker-01</title>
    <g id="Line-icons" stroke="none" stroke-width="1" fill="none" fill-rule="evenodd" stroke-linecap="round" stroke-linejoin="round">
        <g id="Education" transform="translate(-336, -156)" fill-rule="nonzero" stroke="#000000" stroke-width="2">
            <g id="beaker-01" transform="translate(340.5, 158)">
                <path d="M5.5,0.6409713 L5.5,4.66050434 L5.5,4.66050434 C5.5,4.87767506 5.5,4.98625994 5.46690226,5.07264376 C5.4356823,5.1541276 5.39435339,5.21328306 5.32858133,5.27062702 C5.25885391,5.33141947 5.14592791,5.37278891 4.92007637,5.45552731 C2.04892015,6.50734425 0,9.26439667 0,12.5 C0,16.6421366 3.35786438,20 7.5,20 C11.6421356,20 15,16.6421366 15,12.5 C15,9.26439667 12.9510803,6.50734472 10.0799236,5.45552731 C9.85407162,5.37278891 9.74114609,5.33141947 9.67141819,5.27062702 C9.60564613,5.21328306 9.5643177,5.1541276 9.53309727,5.07264376 C9.5,4.98625994 9.5,4.87767506 9.5,4.66050434 L9.5,0.6409713 C9.5,0.418091615 9.4767936,0.337270056 9.43321682,0.255788574 C9.38964005,0.174307093 9.32569291,0.110359949 9.24421143,0.0667831759 C9.16272994,0.0232064028 9.08190838,-2.00617683e-17 8.8590287,3.45280103e-17 M4,0 L11,0" id="Icon"></path>
            </g>
        </g>
    </g>
</svg>