<?xml version="1.0" encoding="UTF-8"?>
<svg width="24px" height="24px" viewBox="0 0 24 24" version="1.1" xmlns="http://www.w3.org/2000/svg" xmlns:xlink="http://www.w3.org/1999/xlink">
    <title>beaker-02</title>
    <g id="Line-icons" stroke="none" stroke-width="1" fill="none" fill-rule="evenodd" stroke-linecap="round" stroke-linejoin="round">
        <g id="Education" transform="translate(-336, -196)" fill-rule="nonzero" stroke="#000000" stroke-width="2">
            <g id="Icon" transform="translate(339, 198)">
                <path d="M4.5,0.799999952 C4.5,0.519973725 4.5,0.379960611 4.55449677,0.27300474 C4.60243345,0.178923704 4.6789235,0.102433428 4.77300453,0.0544967428 C4.8799604,0 5.01997393,0 5.30000019,0 L12.6999998,0 C12.980026,0 13.1200396,0 13.2269955,0.0544967428 C13.3210765,0.102433428 13.3975665,0.178923704 13.4455032,0.27300474 C13.5,0.379960611 13.5,0.519973755 13.5,0.800000012 L13.5,3.20000005 C13.5,3.48002627 13.5,3.62003936 13.4455032,3.72699523 C13.3975665,3.82107627 13.3210765,3.89756655 13.2269955,3.94550323 C13.1200396,4 12.9800261,4 12.6999998,4 L5.30000019,4 C5.01997396,4 4.8799604,4 4.77300453,3.94550323 C4.6789235,3.89756655 4.60243345,3.82107627 4.55449677,3.72699523 C4.5,3.62003936 4.5,3.4800263 4.5,3.20000005 L4.5,0.799999952 Z"></path>
                <path d="M15.5,15 L2.5,15 C2.03534484,15 1.80301714,15 1.60981941,15.0384293 C0.816438138,15.1962426 0.196242779,15.8164381 0.0384294391,16.6098194 C0,16.8030171 0,17.0353448 0,17.5 C0,17.9646552 0,18.1969829 0.0384294391,18.3901806 C0.196242779,19.1835618 0.816438138,19.8037572 1.60981941,19.9615707 C1.80301714,20 2.03534484,20 2.5,20 L15.5,20 C15.9646549,20 16.1969833,20 16.3901806,19.9615707 C17.1835613,19.8037572 17.8037567,19.1835618 17.9615707,18.3901806 C18,18.1969829 18,17.9646552 18,17.5 C18,17.0353448 18,16.8030171 17.9615707,16.6098194 C17.8037567,15.8164381 17.1835613,15.1962426 16.3901806,15.0384293 C16.1969833,15 15.9646549,15 15.5,15 Z"></path>
                <path d="M6,5.2819426 L6,8.50119972 L6,8.50119972 C6,9.05212688 6,9.32759142 5.93132353,9.58285522 C5.87047434,9.80902767 5.77037001,10.0227532 5.63557434,10.2142916 C5.48344088,10.4304657 5.27182436,10.606813 4.84859133,10.959507 L1.15140986,14.0404921 C0.728175938,14.3931866 0.516559005,14.5695343 0.364425451,14.7857084 C0.229629934,14.9772463 0.1295259,15.1909733 0.0686763227,15.4171457 C0,15.6724091 0,15.9478731 0,16.4988003 L0,16.7999992 C0,17.920104 0,18.4801588 0.217986971,18.9079819 C0.409733713,19.2843065 0.715694845,19.5902662 1.09201896,19.7820129 C1.51984251,20 2.07989502,20 3.19999981,20 L14.8000002,20 C15.920105,20 16.4801579,20 16.9079819,19.7820129 C17.2843056,19.5902662 17.5902672,19.2843065 17.7820129,18.9079819 C18,18.4801588 18,17.920104 18,16.7999992 L18,16.4987984 C18,15.9478722 18,15.6724091 17.931324,15.4171457 C17.8704739,15.1909733 17.7703705,14.9772463 17.6355743,14.7857084 C17.4834404,14.5695343 17.2718239,14.3931866 16.8485909,14.040493 L13.1514101,10.9595089 C12.7281761,10.6068139 12.5165586,10.4304657 12.3644257,10.2142916 C12.2296295,10.0227532 12.1295261,9.80902767 12.068676,9.58285522 C12,9.32759142 12,9.05212688 12,8.50119972 L12,5.2819426 C12,4.83618323 11.9535872,4.67454011 11.8664336,4.51157715 C11.7792801,4.34861419 11.6513858,4.2207199 11.4884229,4.13356635 C11.3254599,4.04641281 11.1638168,4 10.7180574,4"></path>
            </g>
        </g>
    </g>
</svg>