<?xml version="1.0" encoding="UTF-8"?>
<svg width="24px" height="24px" viewBox="0 0 24 24" version="1.1" xmlns="http://www.w3.org/2000/svg" xmlns:xlink="http://www.w3.org/1999/xlink">
    <title>bell-plus</title>
    <g id="Line-icons" stroke="none" stroke-width="1" fill="none" fill-rule="evenodd" stroke-linecap="round" stroke-linejoin="round">
        <g id="Alerts-&amp;-feedback" transform="translate(-608, -236)" fill-rule="nonzero" stroke="#000000" stroke-width="2">
            <g id="bell-plus" transform="translate(611.261, 238)">
                <path d="M6.09320784,19 C6.79834104,19.6223634 7.72458625,20 8.73903275,20 C9.75347924,20 10.6797237,19.6223634 11.3848572,19 M14.7390327,0 L14.7390327,6 M17.7390327,3 L11.7390327,3 M9.73903275,0.0838943645 C9.41075993,0.0284063555 9.0763607,0 8.73903275,0 C7.14773369,0 5.62161016,0.632140994 4.49639177,1.75735927 C3.37117338,2.88257742 2.73903227,4.40870094 2.73903227,6 C2.73903227,9.09018517 1.95950222,11.2059574 1.0886972,12.6054125 C0.35416317,13.7858706 -0.0131095169,14.3761063 0.000357318125,14.5407581 C0.0152687313,14.723073 0.0538924188,14.7925978 0.200808331,14.9015779 C0.333491251,15 0.931622982,15 2.12788653,15 L15.3501778,15 C16.5463924,15 17.1444988,15 17.2771797,14.9015808 C17.4240971,14.7926016 17.462719,14.7230835 17.4776344,14.5407696 C17.4911041,14.3761215 17.1237984,13.7857847 16.3892174,12.6051702 C15.8971691,11.814352 15.4342766,10.794817 15.124712,9.5" id="Icon"></path>
            </g>
        </g>
    </g>
</svg>