<?xml version="1.0" encoding="UTF-8"?>
<svg width="24px" height="24px" viewBox="0 0 24 24" version="1.1" xmlns="http://www.w3.org/2000/svg" xmlns:xlink="http://www.w3.org/1999/xlink">
    <title>bell-ringing-04</title>
    <g id="Line-icons" stroke="none" stroke-width="1" fill="none" fill-rule="evenodd" stroke-linecap="round" stroke-linejoin="round">
        <g id="Alerts-&amp;-feedback" transform="translate(-608, -396)" fill-rule="nonzero" stroke="#000000" stroke-width="2">
            <g id="bell-ringing-04" transform="translate(609.9112, 398.026)">
                <g id="Icon" transform="translate(0, 0)">
                    <path d="M15.5794983,7.4194026 C15.2225543,6.08726943 14.26963,4.97330707 12.9303551,4.32257462 C11.5910802,3.67184216 9.97516131,3.53764448 8.4380846,3.94950294 C6.90100789,4.36136141 5.56868178,5.28553903 4.73420191,6.5187273 C3.89972204,7.75191557 3.63144478,9.19309819 3.98838878,10.5252314 C4.57896286,12.7292838 4.46428671,14.4876575 4.09133291,15.8238096 C3.66626677,17.3466605 3.45373383,18.1080859 3.51115203,18.2609825 C3.57684285,18.435908 3.62436198,18.4839236 3.79859495,18.5514297 C3.95088629,18.6104346 4.59065664,18.4390091 5.87019777,18.0961571 L17.7352676,14.9169207 C19.0148091,14.5740685 19.6545799,14.4026427 19.7569656,14.2753973 C19.8739853,14.1298188 19.8912467,14.0644766 19.8606739,13.8801413 C19.8339512,13.7190198 19.2691801,13.1658725 18.139637,12.0595789 C17.1485731,11.0889142 16.1700726,9.62345576 15.5794983,7.4194026 Z"></path>
                    <path d="M13.7347813,15.9889002 C14.1636067,17.5892986 13.2138602,19.2343081 11.6134615,19.6631336 C10.0130631,20.0919591 8.3680521,19.1422132 7.93922663,17.5418148 M1.19765115,5.66149616 C0.161248684,6.67760897 -0.243793815,8.1892482 0.145700663,9.58742905 M10.2351789,3.71496892 C10.5393863,3.16766888 10.639595,2.50616986 10.4647322,1.85357285 C10.1073776,0.519907594 8.73653483,-0.271548577 7.4028697,0.0858059153 C6.06920445,0.443160467 5.2777482,1.81400287 5.63510275,3.14766812 C5.8099656,3.80026513 6.22749788,4.32303593 6.76459932,4.64490795 M18.4078865,4.69411898 C18.0461083,3.28851163 16.9395114,2.18191475 15.5339041,1.82013643"></path>
                </g>
            </g>
        </g>
    </g>
</svg>