<?xml version="1.0" encoding="UTF-8"?>
<svg width="24px" height="24px" viewBox="0 0 24 24" version="1.1" xmlns="http://www.w3.org/2000/svg" xmlns:xlink="http://www.w3.org/1999/xlink">
    <title>bell-03</title>
    <g id="Line-icons" stroke="none" stroke-width="1" fill="none" fill-rule="evenodd" stroke-linecap="round" stroke-linejoin="round">
        <g id="Alerts-&amp;-feedback" transform="translate(-336, -276)" fill-rule="nonzero" stroke="#000000" stroke-width="2">
            <g id="Icon" transform="translate(339.5361, 278)">
                <path d="M14.4635878,9.19999981 C14.4635878,7.82087409 13.8314475,6.49823374 12.7062292,5.52304459 C11.5810109,4.54785544 10.0548867,4 8.46358776,4 C6.87228882,4 5.34616554,4.54785544 4.22094727,5.52304459 C3.09572899,6.49823374 2.463588,7.82087409 2.463588,9.19999981 C2.463588,11.4818027 1.89771879,13.1505806 1.19165146,14.344677 C0.386926293,15.7056228 -0.0154363394,16.3860954 0.000452824635,16.5486431 C0.0186312448,16.7346102 0.0521037132,16.7932885 0.202927977,16.9035892 C0.334758535,17 0.99709785,17 2.32177639,17 L14.6053991,17 C15.930078,17 16.5924183,17 16.7242489,16.9035892 C16.8750731,16.7932885 16.9085451,16.7346102 16.9267235,16.5486431 C16.9426126,16.3860954 16.5402501,15.7056236 15.7355251,14.3446789 C15.0294574,13.1505826 14.4635878,11.4818037 14.4635878,9.19999981 Z"></path>
                <path d="M11.4635878,17 C11.4635878,18.6568544 10.1204424,20 8.46358776,20 C6.80673337,20 5.46358776,18.6568544 5.46358776,17 M10.2600918,4.23855782 C10.6955853,3.78864121 10.9635878,3.17561817 10.9635878,2.5 C10.9635878,1.11928809 9.84429955,0 8.46358776,0 C7.08287585,0 5.96358776,1.11928809 5.96358776,2.5 C5.96358776,3.17561817 6.23159021,3.78864121 6.66708374,4.23855782"></path>
            </g>
        </g>
    </g>
</svg>