<?xml version="1.0" encoding="UTF-8"?>
<svg width="24px" height="24px" viewBox="0 0 24 24" version="1.1" xmlns="http://www.w3.org/2000/svg" xmlns:xlink="http://www.w3.org/1999/xlink">
    <title>bell-04</title>
    <g id="Line-icons" stroke="none" stroke-width="1" fill="none" fill-rule="evenodd" stroke-linecap="round" stroke-linejoin="round">
        <g id="Alerts-&amp;-feedback" transform="translate(-336, -316)" fill-rule="nonzero" stroke="#000000" stroke-width="2">
            <g id="Icon" transform="translate(340.1583, 318.026)">
                <path d="M12.0775766,7.41940928 C11.7206326,6.0872761 10.7677073,4.97331375 9.42843246,4.32258129 C8.08915758,3.67184883 6.47323918,3.53765115 4.93616247,3.94950962 C3.39908576,4.36136809 2.06675941,5.28554571 1.23227954,6.51873398 C0.397799671,7.75192225 0.129522681,9.19310486 0.486466676,10.525238 C1.07704076,12.7292905 0.962364644,14.4876642 0.589410841,15.8238163 C0.164344698,17.3466672 -0.0481883688,18.1080916 0.00922983233,18.2609882 C0.0749206552,18.4359137 0.122439668,18.4839294 0.296672642,18.5514355 C0.448963985,18.6104404 1.08873451,18.4390148 2.36827564,18.0961628 L14.2333441,14.9169273 C15.5128856,14.5740752 16.1526573,14.4026494 16.255043,14.275404 C16.3720627,14.1298255 16.3893241,14.0644832 16.3587513,13.8801479 C16.3320286,13.7190265 15.7672575,13.1658791 14.6377144,12.0595856 C13.6466505,11.0889208 12.668151,9.62346244 12.0775766,7.41940928 Z"></path>
                <path d="M10.2326612,15.9889078 C10.6614867,17.5893062 9.71174014,19.2343157 8.11134148,19.6631413 C6.51094306,20.0919667 4.86593208,19.1422209 4.43710661,17.5418224 M6.7331953,3.71496892 C7.03740269,3.16766888 7.13761137,2.50616986 6.96274853,1.85357285 C6.60539398,0.519907594 5.23455143,-0.271548577 3.9008863,0.0858059153 C2.56722105,0.443160467 1.77576479,1.81400287 2.13311934,3.14766812 C2.30798219,3.80026513 2.72551447,4.32303593 3.26261592,4.64490795"></path>
            </g>
        </g>
    </g>
</svg>