<?xml version="1.0" encoding="UTF-8"?>
<svg width="24px" height="24px" viewBox="0 0 24 24" version="1.1" xmlns="http://www.w3.org/2000/svg" xmlns:xlink="http://www.w3.org/1999/xlink">
    <title>bell-ringing-01</title>
    <g id="Line-icons" stroke="none" stroke-width="1" fill="none" fill-rule="evenodd" stroke-linecap="round" stroke-linejoin="round">
        <g id="Alerts-&amp;-feedback" transform="translate(-608, -276)" fill-rule="nonzero" stroke="#000000" stroke-width="2">
            <g id="bell-ringing-01" transform="translate(610.2938, 278)">
                <g id="Icon" transform="translate(0.0002, 0)">
                    <path d="M15.7063036,6 C15.7063036,4.40870106 15.0741633,2.88257754 13.948945,1.75735927 C12.8237268,0.632140994 11.2976025,0 9.7063036,0 C8.11500466,0 6.58888137,0.632140994 5.4636631,1.75735927 C4.33844483,2.88257754 3.70630383,4.40870106 3.70630383,6 C3.70630383,9.09018493 2.92677373,11.2059571 2.05596852,12.6054125 C1.3214308,13.785875 0.954162007,14.3761059 0.967628777,14.5407581 C0.982540142,14.7230728 1.02116396,14.7925977 1.16807985,14.9015779 C1.30076273,15 1.89889455,15 3.0951581,15 L16.3174477,15 C17.5137122,15 18.1118449,15 18.2445278,14.9015779 C18.3914437,14.7925977 18.4300674,14.7230728 18.4449787,14.5407581 C18.4584455,14.3761059 18.0911774,13.7858753 17.3566399,12.6054134 C16.4858345,11.205958 15.7063036,9.0901854 15.7063036,6 Z"></path>
                    <path d="M7.06047916,19 C7.76561236,19.6223634 8.6918571,20 9.7063036,20 C10.7207501,20 11.6469946,19.6223634 12.352128,19 M2.03240633,0.299997121 C0.768329024,1.01324603 -0.0141529909,2.36854494 0,3.81989241 M19.4084377,3.81989837 C19.4227848,2.36855078 18.6403037,1.01325202 17.3762264,0.300003052"></path>
                </g>
            </g>
        </g>
    </g>
</svg>