<?xml version="1.0" encoding="UTF-8"?>
<svg width="24px" height="24px" viewBox="0 0 24 24" version="1.1" xmlns="http://www.w3.org/2000/svg" xmlns:xlink="http://www.w3.org/1999/xlink">
    <title>bell-ringing-03</title>
    <g id="Line-icons" stroke="none" stroke-width="1" fill="none" fill-rule="evenodd" stroke-linecap="round" stroke-linejoin="round">
        <g id="Alerts-&amp;-feedback" transform="translate(-608, -356)" fill-rule="nonzero" stroke="#000000" stroke-width="2">
            <g id="bell-ringing-03" transform="translate(610.5469, 358)">
                <g id="Icon" transform="translate(0, 0)">
                    <path d="M15.4533739,9.19999981 C15.4533739,7.82087409 14.8212336,6.49823374 13.6960154,5.52304459 C12.5707971,4.54785544 11.0446728,4 9.45337391,4 C7.86207497,4 6.33595169,4.54785544 5.21073341,5.52304459 C4.08551514,6.49823374 3.45337415,7.82087409 3.45337415,9.19999981 C3.45337415,11.4818027 2.88750482,13.1505806 2.18143749,14.344677 C1.37671232,15.7056228 0.9743498,16.3860954 0.990238965,16.5486431 C1.00841738,16.7346102 1.04188983,16.7932885 1.1927141,16.9035892 C1.32454465,17 1.986884,17 3.31156254,17 L15.5951853,17 C16.9198642,17 17.5822045,17 17.714035,16.9035892 C17.8648593,16.7932885 17.8983312,16.7346102 17.9165096,16.5486431 C17.9323988,16.3860954 17.5300363,15.7056236 16.7253113,14.3446789 C16.0192435,13.1505826 15.4533739,11.4818037 15.4533739,9.19999981 Z"></path>
                    <path d="M12.4533739,17 C12.4533739,18.6568544 11.1102285,20 9.45337391,20 C7.79651952,20 6.45337391,18.6568544 6.45337391,17 M11.2498779,4.23855782 C11.6853714,3.78864121 11.9533739,3.17561817 11.9533739,2.5 C11.9533739,1.11928809 10.8340857,0 9.45337391,0 C8.072662,0 6.95337391,1.11928809 6.95337391,2.5 C6.95337391,3.17561817 7.22137636,3.78864121 7.65686989,4.23855782 M2.03240633,2.80306411 C0.768329024,3.51631302 -0.0141529909,4.87161195 0.000193969099,6.32295942 M18.9065533,6.32295895 C18.9209003,4.87161136 18.1384193,3.51631284 16.874342,2.80306387"></path>
                </g>
            </g>
        </g>
    </g>
</svg>