<?xml version="1.0" encoding="UTF-8"?>
<svg width="24px" height="24px" viewBox="0 0 24 24" version="1.1" xmlns="http://www.w3.org/2000/svg" xmlns:xlink="http://www.w3.org/1999/xlink">
    <title>bell-02</title>
    <g id="Line-icons" stroke="none" stroke-width="1" fill="none" fill-rule="evenodd" stroke-linecap="round" stroke-linejoin="round">
        <g id="Alerts-&amp;-feedback" transform="translate(-336, -236)" fill-rule="nonzero" stroke="#000000" stroke-width="2">
            <g id="Icon" transform="translate(339.261, 238)">
                <path d="M14.7390327,6 C14.7390327,4.40870106 14.1068925,2.88257754 12.9816742,1.75735927 C11.8564559,0.632140994 10.3303317,0 8.73903275,0 C7.14773381,0 5.62161005,0.632140994 4.49639177,1.75735927 C3.3711735,2.88257754 2.73903227,4.40870106 2.73903227,6 C2.73903227,9.09018493 1.9595024,11.2059571 1.0886972,12.6054125 C0.354159474,13.785875 -0.0131094516,14.3761059 0.000357318262,14.5407581 C0.015268683,14.7230728 0.0538924783,14.7925977 0.200808376,14.9015779 C0.333491251,15 0.931622982,15 2.12788653,15 L15.3501768,15 C16.5464413,15 17.1445731,15 17.277256,14.9015779 C17.4241719,14.7925977 17.4627956,14.7230728 17.4777069,14.5407581 C17.4911737,14.3761059 17.1239056,13.7858753 16.3893681,12.6054134 C15.5185627,11.205958 14.7390327,9.0901854 14.7390327,6 Z"></path>
                <line x1="10.7390327" y1="19" x2="6.73903227" y2="19"></line>
            </g>
        </g>
    </g>
</svg>