<?xml version="1.0" encoding="UTF-8"?>
<svg width="24px" height="24px" viewBox="0 0 24 24" version="1.1" xmlns="http://www.w3.org/2000/svg" xmlns:xlink="http://www.w3.org/1999/xlink">
    <title>bell-off-03</title>
    <g id="Line-icons" stroke="none" stroke-width="1" fill="none" fill-rule="evenodd" stroke-linecap="round" stroke-linejoin="round">
        <g id="Alerts-&amp;-feedback" transform="translate(-608, -196)" fill-rule="nonzero" stroke="#000000" stroke-width="2">
            <g id="Icon" transform="translate(611, 198)">
                <path d="M10.796504,4.23855782 C11.2319975,3.78864121 11.5,3.17561817 11.5,2.5 C11.5,1.11928809 10.3807118,0 9,0 C7.61928809,0 6.5,1.11928809 6.5,2.5 C6.5,2.83740941 6.56684197,3.15920699 6.68800688,3.45287347 C6.74921733,3.60122879 6.7798226,3.67540661 6.91979408,3.81603503 C7.02056326,3.91727716 7.22840041,4.03809897 7.36624241,4.07556868 C7.55770919,4.12761525 7.74847078,4.10338856 8.12999439,4.05493498 C8.41639236,4.01856238 8.7070924,4 9,4 C9.61503077,4 10.2203281,4.08183956 10.796504,4.23855782 Z"></path>
                <path d="M12,17 C12,18.6568544 10.6568546,20 9,20 C7.34314561,20 6,18.6568544 6,17 M4.37747908,5.88478661 C3.49088001,6.81325769 3,7.98469734 3,9.19999981 C3,11.4818029 2.43413091,13.1505809 1.72806358,14.344677 C0.923338294,15.7056227 0.520975709,16.386096 0.536864877,16.5486431 C0.55504334,16.7346106 0.588515759,16.7932901 0.739340067,16.9035912 C0.87117064,17 1.53350997,17 2.85818863,17 L16.8799992,17 M0,2 L18,18 M9,4 C10.5912989,4 12.1174231,4.54785544 13.2426414,5.52304459 C14.3678598,6.49823368 15,7.82087421 15,9.19999981 C15,9.53476906 15.0091357,9.85634327 15.0263977,10.1651592"></path>
            </g>
        </g>
    </g>
</svg>