<?xml version="1.0" encoding="UTF-8"?>
<svg width="24px" height="24px" viewBox="0 0 24 24" version="1.1" xmlns="http://www.w3.org/2000/svg" xmlns:xlink="http://www.w3.org/1999/xlink">
    <title>bell-off-01</title>
    <g id="Line-icons" stroke="none" stroke-width="1" fill="none" fill-rule="evenodd" stroke-linecap="round" stroke-linejoin="round">
        <g id="Alerts-&amp;-feedback" transform="translate(-336, -396)" fill-rule="nonzero" stroke="#000000" stroke-width="2">
            <g id="bell-off-01" transform="translate(339, 398)">
                <path d="M5.63306332,1.03371 C6.61959249,0.364899814 7.79098535,0 9,0 C10.5912991,0 12.1174231,0.632140994 13.2426414,1.75735927 C14.3678594,2.88257742 15,4.40870094 15,6 C15,8.10077095 15.2701979,9.75121212 15.6484156,11.0324116 M3.2586689,4.25723505 C3.08865786,4.81726003 3,5.40405965 3,6 C3,9.09018469 2.22046995,11.2059579 1.34966493,12.6054134 C0.615126967,13.7858763 0.247858167,14.3761063 0.261324883,14.5407581 C0.276236296,14.723073 0.314860106,14.7925987 0.461776018,14.9015789 C0.594458818,15 1.19259048,15 2.38885379,15 L14,15 M6.35417557,19 C7.05930877,19.6223634 7.9855535,20 9,20 C10.0144465,20 10.940691,19.6223634 11.6458244,19 M18,19 L0,1" id="Icon"></path>
            </g>
        </g>
    </g>
</svg>