<?xml version="1.0" encoding="UTF-8"?>
<svg width="24px" height="24px" viewBox="0 0 24 24" version="1.1" xmlns="http://www.w3.org/2000/svg" xmlns:xlink="http://www.w3.org/1999/xlink">
    <title>bezier-curve-02</title>
    <g id="Line-icons" stroke="none" stroke-width="1" fill="none" fill-rule="evenodd" stroke-linecap="round" stroke-linejoin="round">
        <g id="Editor" transform="translate(-64, -436)" fill-rule="nonzero" stroke="#000000" stroke-width="2">
            <g id="Icon" transform="translate(66, 438)">
                <path d="M0,9.60000038 C0,9.03994793 0,8.75992081 0.108993486,8.54600906 C0.204866856,8.35784699 0.357847407,8.2048669 0.546009481,8.10899353 C0.759921223,8 1.03994751,8 1.60000002,8 L2.4000001,8 C2.96005255,8 3.24007872,8 3.45399046,8.10899353 C3.64215253,8.2048669 3.7951331,8.35784699 3.89100647,8.54600906 C4,8.75992081 4,9.03994787 4,9.60000038 L4,10.3999996 C4,10.9600521 4,11.2400792 3.89100647,11.4539909 C3.7951331,11.642153 3.64215253,11.7951331 3.45399046,11.8910065 C3.24007872,12 2.96005261,12 2.4000001,12 L1.5999999,12 C1.03994745,12 0.759921223,12 0.546009481,11.8910065 C0.357847407,11.7951331 0.204866856,11.642153 0.108993486,11.4539909 C0,11.2400792 0,10.9600521 0,10.3999996 L0,9.60000038 Z"></path>
                <path d="M16,9.60000038 C16,9.03994793 16,8.75992081 16.1089935,8.54600906 C16.2048669,8.35784699 16.357847,8.2048669 16.5460091,8.10899353 C16.7599208,8 17.0399479,8 17.6000004,8 L18.3999996,8 C18.9600521,8 19.2400792,8 19.4539909,8.10899353 C19.642153,8.2048669 19.7951331,8.35784699 19.8910065,8.54600906 C20,8.75992081 20,9.03994787 20,9.60000038 L20,10.3999996 C20,10.9600521 20,11.2400792 19.8910065,11.4539909 C19.7951331,11.642153 19.642153,11.7951331 19.4539909,11.8910065 C19.2400792,12 18.9600521,12 18.3999996,12 L17.6000004,12 C17.0399479,12 16.7599208,12 16.5460091,11.8910065 C16.357847,11.7951331 16.2048669,11.642153 16.1089935,11.4539909 C16,11.2400792 16,10.9600521 16,10.3999996 L16,9.60000038 Z"></path>
                <path d="M8,1.5999999 C8,1.03994745 8,0.759921223 8.10899353,0.546009481 C8.2048669,0.357847407 8.35784699,0.204866856 8.54600906,0.108993486 C8.75992081,0 9.03994787,0 9.60000038,0 L10.3999996,0 C10.9600521,0 11.2400792,0 11.4539909,0.108993486 C11.642153,0.204866856 11.7951331,0.357847407 11.8910065,0.546009481 C12,0.759921223 12,1.03994751 12,1.60000002 L12,2.4000001 C12,2.96005255 12,3.24007872 11.8910065,3.45399046 C11.7951331,3.64215253 11.642153,3.7951331 11.4539909,3.89100647 C11.2400792,4 10.9600521,4 10.3999996,4 L9.60000038,4 C9.03994793,4 8.75992081,4 8.54600906,3.89100647 C8.35784699,3.7951331 8.2048669,3.64215253 8.10899353,3.45399046 C8,3.24007872 8,2.96005261 8,2.4000001 L8,1.5999999 Z"></path>
                <path d="M8,17.6000004 C8,17.0399479 8,16.7599208 8.10899353,16.5460091 C8.2048669,16.357847 8.35784699,16.2048669 8.54600906,16.1089935 C8.75992081,16 9.03994787,16 9.60000038,16 L10.3999996,16 C10.9600521,16 11.2400792,16 11.4539909,16.1089935 C11.642153,16.2048669 11.7951331,16.357847 11.8910065,16.5460091 C12,16.7599208 12,17.0399479 12,17.6000004 L12,18.3999996 C12,18.9600521 12,19.2400792 11.8910065,19.4539909 C11.7951331,19.642153 11.642153,19.7951331 11.4539909,19.8910065 C11.2400792,20 10.9600521,20 10.3999996,20 L9.60000038,20 C9.03994793,20 8.75992081,20 8.54600906,19.8910065 C8.35784699,19.7951331 8.2048669,19.642153 8.10899353,19.4539909 C8,19.2400792 8,18.9600521 8,18.3999996 L8,17.6000004 Z"></path>
                <path d="M1.7366159,11.9999428 C2.48130667,15.0878868 4.91189218,17.5185385 7.99979973,18.2633228 M12.0003967,18.2632656 C15.0882678,17.5184913 17.5188336,15.0878909 18.2635574,12 M18.2635574,7.99988842 C17.5188189,4.91193056 15.0881658,2.481291 12.0002003,1.73657227 M1.73681641,8 C2.48152328,4.91198921 4.91219759,2.4813 8.00020027,1.73657227"></path>
            </g>
        </g>
    </g>
</svg>