<?xml version="1.0" encoding="UTF-8"?>
<svg width="24px" height="24px" viewBox="0 0 24 24" version="1.1" xmlns="http://www.w3.org/2000/svg" xmlns:xlink="http://www.w3.org/1999/xlink">
    <title>bezier-curve-03</title>
    <g id="Line-icons" stroke="none" stroke-width="1" fill="none" fill-rule="evenodd" stroke-linecap="round" stroke-linejoin="round">
        <g id="Editor" transform="translate(-64, -476)" fill-rule="nonzero" stroke="#000000" stroke-width="2">
            <g id="Icon" transform="translate(66, 479)">
                <path d="M0,15.6000004 C0,15.0399479 0,14.7599208 0.108993486,14.5460091 C0.204866856,14.357847 0.357847407,14.2048669 0.546009481,14.1089935 C0.759921223,14 1.03994751,14 1.60000002,14 L2.4000001,14 C2.96005255,14 3.24007872,14 3.45399046,14.1089935 C3.64215253,14.2048669 3.7951331,14.357847 3.89100647,14.5460091 C4,14.7599208 4,15.0399479 4,15.6000004 L4,16.3999996 C4,16.9600521 4,17.2400792 3.89100647,17.4539909 C3.7951331,17.642153 3.64215253,17.7951331 3.45399046,17.8910065 C3.24007872,18 2.96005261,18 2.4000001,18 L1.5999999,18 C1.03994745,18 0.759921223,18 0.546009481,17.8910065 C0.357847407,17.7951331 0.204866856,17.642153 0.108993486,17.4539909 C0,17.2400792 0,16.9600521 0,16.3999996 L0,15.6000004 Z"></path>
                <path d="M16,15.6000004 C16,15.0399479 16,14.7599208 16.1089935,14.5460091 C16.2048669,14.357847 16.357847,14.2048669 16.5460091,14.1089935 C16.7599208,14 17.0399479,14 17.6000004,14 L18.3999996,14 C18.9600521,14 19.2400792,14 19.4539909,14.1089935 C19.642153,14.2048669 19.7951331,14.357847 19.8910065,14.5460091 C20,14.7599208 20,15.0399479 20,15.6000004 L20,16.3999996 C20,16.9600521 20,17.2400792 19.8910065,17.4539909 C19.7951331,17.642153 19.642153,17.7951331 19.4539909,17.8910065 C19.2400792,18 18.9600521,18 18.3999996,18 L17.6000004,18 C17.0399479,18 16.7599208,18 16.5460091,17.8910065 C16.357847,17.7951331 16.2048669,17.642153 16.1089935,17.4539909 C16,17.2400792 16,16.9600521 16,16.3999996 L16,15.6000004 Z"></path>
                <path d="M8,1.5999999 C8,1.03994745 8,0.759921223 8.10899353,0.546009481 C8.2048669,0.357847407 8.35784699,0.204866856 8.54600906,0.108993486 C8.75992081,0 9.03994787,0 9.60000038,0 L10.3999996,0 C10.9600521,0 11.2400792,0 11.4539909,0.108993486 C11.642153,0.204866856 11.7951331,0.357847407 11.8910065,0.546009481 C12,0.759921223 12,1.03994751 12,1.60000002 L12,2.4000001 C12,2.96005255 12,3.24007872 11.8910065,3.45399046 C11.7951331,3.64215253 11.642153,3.7951331 11.4539909,3.89100647 C11.2400792,4 10.9600521,4 10.3999996,4 L9.60000038,4 C9.03994793,4 8.75992081,4 8.54600906,3.89100647 C8.35784699,3.7951331 8.2048669,3.64215253 8.10899353,3.45399046 C8,3.24007872 8,2.96005261 8,2.4000001 L8,1.5999999 Z"></path>
                <path d="M3.14285707,14 L8.8571434,4 M15.9997902,16 L4,16 M16.8571415,14 L11.1428566,4"></path>
            </g>
        </g>
    </g>
</svg>