<?xml version="1.0" encoding="UTF-8"?>
<svg width="24px" height="24px" viewBox="0 0 24 24" version="1.1" xmlns="http://www.w3.org/2000/svg" xmlns:xlink="http://www.w3.org/1999/xlink">
    <title>book-open-01</title>
    <g id="Line-icons" stroke="none" stroke-width="1" fill="none" fill-rule="evenodd" stroke-linecap="round" stroke-linejoin="round">
        <g id="Education" transform="translate(-336, -276)" fill-rule="nonzero" stroke="#000000" stroke-width="2">
            <g id="Icon" transform="translate(338, 279)">
                <path d="M0,3.19999957 C0,2.07989478 0,1.51984245 0.217986971,1.09201896 C0.409733713,0.715694815 0.715694815,0.409733713 1.09201896,0.217986971 C1.51984245,0 2.07989478,0 3.19999981,0 L3.5999999,0 C5.84020996,0 6.96031487,0 7.81596184,0.435973942 C8.56861013,0.819467425 9.1805324,1.43138963 9.56402588,2.18403792 C10,3.03968489 10,4.15979004 10,6.4000001 L10,18 L9.89994526,17.8499184 C9.20530313,16.8079551 8.85798216,16.2869732 8.39910126,15.9098167 C7.99285752,15.575923 7.5247649,15.3254079 7.02160501,15.1726036 C6.45325053,15 5.82710791,15 4.57482338,15 L3.19999981,15 C2.0798949,15 1.51984245,15 1.09201896,14.7820129 C0.715694815,14.5902662 0.409733713,14.2843051 0.217986971,13.9079809 C0,13.4801574 0,12.9201052 0,11.8000002 L0,3.19999957 Z"></path>
                <path d="M20,3.19999957 C20,2.07989478 20,1.51984245 19.7820129,1.09201896 C19.5902662,0.715694815 19.284306,0.409733713 18.9079819,0.217986971 C18.4801584,0 17.9201043,0 16.7999992,0 L16.3999996,0 C14.1597896,0 13.0396851,0 12.1840382,0.435973942 C11.4313899,0.819467425 10.8194676,1.43138963 10.4359741,2.18403792 C10,3.03968489 10,4.15979004 10,6.4000001 L10,18 L10.1000547,17.8499184 C10.7946969,16.8079551 11.1420178,16.2869732 11.6008987,15.9098167 C12.0071425,15.575923 12.4752356,15.3254079 12.9783955,15.1726036 C13.5467499,15 14.1728921,15 15.4251766,15 L16.7999992,15 C17.9201041,15 18.4801584,15 18.9079819,14.7820129 C19.284306,14.5902662 19.5902662,14.2843051 19.7820129,13.9079809 C20,13.4801574 20,12.9201052 20,11.8000002 L20,3.19999957 Z"></path>
            </g>
        </g>
    </g>
</svg>