<?xml version="1.0" encoding="UTF-8"?>
<svg width="24px" height="24px" viewBox="0 0 24 24" version="1.1" xmlns="http://www.w3.org/2000/svg" xmlns:xlink="http://www.w3.org/1999/xlink">
    <title>book-closed</title>
    <g id="Line-icons" stroke="none" stroke-width="1" fill="none" fill-rule="evenodd" stroke-linecap="round" stroke-linejoin="round">
        <g id="Education" transform="translate(-336, -236)" fill-rule="nonzero" stroke="#000000" stroke-width="2">
            <g id="Icon" transform="translate(340, 238)">
                <path d="M0,4.80000019 C0,3.11984253 0,2.27976376 0.326980442,1.6380285 C0.614600539,1.0735423 1.0735423,0.614600539 1.6380285,0.326980442 C2.27976376,0 3.11984253,0 4.80000019,0 L12.8000002,0 C13.9201051,0 14.4801574,0 14.9079809,0.217986971 C15.2843051,0.409733713 15.5902662,0.715694815 15.7820129,1.09201896 C16,1.51984245 16,2.07989478 16,3.19999981 L16,16.7999992 C16,17.9201046 16,18.4801584 15.7820129,18.9079819 C15.5902662,19.284306 15.2843051,19.5902662 14.9079809,19.7820129 C14.4801574,20 13.9201052,20 12.8000002,20 L4.80000019,20 C3.11984253,20 2.27976376,20 1.6380285,19.6730194 C1.0735423,19.3853993 0.614600539,18.9264571 0.326980442,18.3619709 C0,17.7202356 0,16.8801575 0,15.1999998 L0,4.80000019 Z"></path>
                <path d="M16,14.4907962 L16,14 L16,14 L3,14 C1.34314585,14 0,15.3431458 0,17"></path>
            </g>
        </g>
    </g>
</svg>