<?xml version="1.0" encoding="UTF-8"?>
<svg width="24px" height="24px" viewBox="0 0 24 24" version="1.1" xmlns="http://www.w3.org/2000/svg" xmlns:xlink="http://www.w3.org/1999/xlink">
    <title>brackets-check</title>
    <g id="Line-icons" stroke="none" stroke-width="1" fill="none" fill-rule="evenodd" stroke-linecap="round" stroke-linejoin="round">
        <g id="Development" transform="translate(-64, -196)" fill-rule="nonzero" stroke="#000000" stroke-width="2">
            <g id="Icon" transform="translate(66, 200)">
                <path d="M16.5708008,16 C17.8328007,16 18.856802,14.9770007 18.856802,13.7140007 L18.856802,9.14299965 L19.9998016,8 L18.856802,6.85700035 L18.856802,2.28599977 C18.856802,1.02299976 17.8338008,0 16.5708008,0"></path>
                <path d="M3.4289999,0 C2.16599989,0 1.14299989,1.02299976 1.14299989,2.28599977 L1.14299989,6.85700035 L0,8 L1.14299989,9.14299965 L1.14299989,13.7140007 C1.14299989,14.9770007 2.16599989,16 3.4289999,16"></path>
                <path d="M6.0720614,8.5720614 L7.93431473,10.4343147 L7.93431473,10.4343147 C8.13232327,10.6323233 8.2313273,10.7313266 8.34549141,10.7684212 C8.44591331,10.8010502 8.55408669,10.8010502 8.65450859,10.7684212 C8.7686727,10.7313266 8.86767673,10.6323228 9.06568527,10.4343147 L13.0023238,6.4976762 C13.1975859,6.30241405 13.1975859,5.98583156 13.0023238,5.79056942 C12.8684077,5.65665327 12.6703239,5.60989204 12.4906565,5.66978116"></path>
            </g>
        </g>
    </g>
</svg>