<?xml version="1.0" encoding="UTF-8"?>
<svg width="24px" height="24px" viewBox="0 0 24 24" version="1.1" xmlns="http://www.w3.org/2000/svg" xmlns:xlink="http://www.w3.org/1999/xlink">
    <title>briefcase-01</title>
    <g id="Line-icons" stroke="none" stroke-width="1" fill="none" fill-rule="evenodd" stroke-linecap="round" stroke-linejoin="round">
        <g id="Education" transform="translate(-336, -356)" fill-rule="nonzero" stroke="#000000" stroke-width="2">
            <g id="Icon" transform="translate(338, 359)">
                <path d="M0,7.19999981 C0,6.0798949 0,5.51984257 0.217986971,5.09201908 C0.409733713,4.71569493 0.715694815,4.4097338 1.09201896,4.21798706 C1.51984245,4 2.07989478,4 3.19999981,4 L16.7999992,4 C17.9201046,4 18.4801584,4 18.9079819,4.21798706 C19.284306,4.4097338 19.5902662,4.71569493 19.7820129,5.09201908 C20,5.51984257 20,6.07989478 20,7.19999981 L20,14.8000002 C20,15.9201051 20,16.4801584 19.7820129,16.9079819 C19.5902662,17.284306 19.284306,17.5902662 18.9079819,17.7820129 C18.4801584,18 17.9201043,18 16.7999992,18 L3.20000052,18 C2.07989514,18 1.51984245,18 1.09201896,17.7820129 C0.715694815,17.5902662 0.409733713,17.284306 0.217986971,16.9079819 C0,16.4801584 0,15.9201052 0,14.8000002 L0,7.19999981 Z"></path>
                <path d="M14,4 C14,3.07002831 14,2.60504246 13.8977776,2.22354293 C13.6203761,1.18826675 12.8117328,0.379623927 11.7764568,0.10222251 C11.3949571,0 10.9299717,0 10,0 C9.07002831,0 8.6050427,0 8.22354317,0.10222251 C7.18826699,0.379623927 6.37962386,1.18826675 6.10222244,2.22354293 C6,2.60504246 6,3.07002831 6,4"></path>
            </g>
        </g>
    </g>
</svg>