<?xml version="1.0" encoding="UTF-8"?>
<svg width="24px" height="24px" viewBox="0 0 24 24" version="1.1" xmlns="http://www.w3.org/2000/svg" xmlns:xlink="http://www.w3.org/1999/xlink">
    <title>brush-03</title>
    <g id="Line-icons" stroke="none" stroke-width="1" fill="none" fill-rule="evenodd" stroke-linecap="round" stroke-linejoin="round">
        <g id="Editor" transform="translate(-64, -716)" fill-rule="nonzero" stroke="#000000" stroke-width="2">
            <g id="Icon" transform="translate(68, 718)">
                <path d="M0.199999809,8 L15.8000002,8 C15.910457,8 16,8.08954296 16,8.19999981 L16,8.19999981 L16,8.19999981 C16,9.88015747 16,10.7202366 15.6730194,11.3619719 C15.3853993,11.9264581 14.9264581,12.3853993 14.3619719,12.6730194 C13.7202366,13 12.8801575,13 11.1999998,13 L4.80000019,13 C3.11984253,13 2.27976376,13 1.6380285,12.6730194 C1.0735423,12.3853993 0.614600539,11.9264581 0.326980442,11.3619719 C0,10.7202366 0,9.88015747 0,8.19999981 C-1.35270621e-17,8.08954296 0.0895429646,8 0.199999809,8 Z"></path>
                <path d="M16,4.1541722 L16,1.60000002 L16,1.60000002 C16,1.03994751 16,0.759921253 15.8910065,0.546009481 C15.7951336,0.357847422 15.6421528,0.204866856 15.4539909,0.108993486 C15.2400789,0 14.9600525,0 14.3999996,0 L1.60000002,0 C1.03994751,0 0.759921253,0 0.546009481,0.108993486 C0.357847422,0.204866856 0.204866856,0.357847422 0.108993486,0.546009481 C0,0.759921253 0,1.03994751 0,1.5999999 L-1.03584031e-16,4.1541722 C6.01853049e-17,5.49145031 0.139238417,5.97637967 0.400699056,6.46526856 C0.662159695,6.95415744 1.04584256,7.33784031 1.53473144,7.59930094 C2.02362033,7.86076158 2.50854969,8 3.8458278,8 M10.5,13 L10.5,17.5 C10.5,18.8807116 9.38071179,20 8,20 C6.61928821,20 5.5,18.8807116 5.5,17.5 L5.5,13"></path>
            </g>
        </g>
    </g>
</svg>