<?xml version="1.0" encoding="UTF-8"?>
<svg width="24px" height="24px" viewBox="0 0 24 24" version="1.1" xmlns="http://www.w3.org/2000/svg" xmlns:xlink="http://www.w3.org/1999/xlink">
    <title>brush-01</title>
    <g id="Line-icons" stroke="none" stroke-width="1" fill="none" fill-rule="evenodd" stroke-linecap="round" stroke-linejoin="round">
        <g id="Editor" transform="translate(-64, -636)" fill-rule="nonzero" stroke="#000000" stroke-width="2">
            <g id="Icon" transform="translate(66, 638.3543)">
                <path d="M0,19.6456795 C2,19.6456795 4.6080122,19.9873891 5.97484732,18.620554 C7.34168231,17.253719 7.34168243,15.037641 5.97484732,13.6708059 C4.60801232,12.3039709 2.39193523,12.3039709 1.02510023,13.6708059 C-0.341734886,15.037641 1.02510023,17.6456795 0,19.6456795 Z"></path>
                <path d="M5.99994659,13.6456795 C5.50853431,13.1542672 5.2628278,12.9085611 5.12391043,12.651248 C4.7907944,12.0342257 4.80514342,11.2878152 5.16172743,10.6840515 C5.31043151,10.4322676 5.56539947,10.1961859 6.0753355,9.72402287 L15.9434071,0.586920023 C16.8125716,-0.21786201 18.1623545,-0.191912413 18.9999466,0.645679712 C19.8375387,1.48327184 19.8634864,2.83305609 19.0587044,3.70222068 L9.9216013,13.5702925 C9.44943917,14.0802276 9.21335849,14.335195 8.96157455,14.4838991 C8.35781085,14.8404831 7.61140037,14.8548312 6.99437809,14.5217152 C6.73706502,14.3827978 6.49135888,14.1370918 5.99994659,13.6456795 Z"></path>
                <line x1="6.99997425" y1="8.8679018" x2="10.7777519" y2="12.6456795"></line>
            </g>
        </g>
    </g>
</svg>