<?xml version="1.0" encoding="UTF-8"?>
<svg width="24px" height="24px" viewBox="0 0 24 24" version="1.1" xmlns="http://www.w3.org/2000/svg" xmlns:xlink="http://www.w3.org/1999/xlink">
    <title>brush-02</title>
    <g id="Line-icons" stroke="none" stroke-width="1" fill="none" fill-rule="evenodd" stroke-linecap="round" stroke-linejoin="round">
        <g id="Editor" transform="translate(-64, -676)" fill-rule="nonzero" stroke="#000000" stroke-width="2">
            <g id="Icon" transform="translate(70, 678)">
                <path d="M0.199999809,8 L11.8000002,8 C11.910457,8 12,8.08954296 12,8.19999981 L12,8.19999981 L12,8.19999981 C12,9.88015747 12,10.7202366 11.6730194,11.3619719 C11.3853993,11.9264581 10.9264581,12.3853993 10.3619719,12.6730194 C9.7202366,13 8.88015735,13 7.19999981,13 L4.80000019,13 C3.11984241,13 2.27976376,13 1.6380285,12.6730194 C1.0735423,12.3853993 0.614600539,11.9264581 0.326980442,11.3619719 C0,10.7202366 0,9.88015747 0,8.19999981 C-1.35270621e-17,8.08954296 0.0895429646,8 0.199999809,8 Z"></path>
                <path d="M12,4.1541722 L12,1.60000002 L12,1.60000002 C12,1.03994751 12,0.759921253 11.8910065,0.546009481 C11.7951336,0.357847422 11.6421528,0.204866856 11.4539909,0.108993486 C11.2400789,0 10.9600525,0 10.3999996,0 L1.60000014,0 C1.03994751,0 0.759921253,0 0.546009481,0.108993486 C0.357847422,0.204866856 0.204866856,0.357847422 0.108993486,0.546009481 C0,0.759921253 0,1.03994751 0,1.5999999 L-1.03584031e-16,4.1541722 C6.01853049e-17,5.49145031 0.139238417,5.97637967 0.400699056,6.46526856 C0.662159695,6.95415744 1.04584256,7.33784031 1.53473144,7.59930094 C2.02362033,7.86076158 2.50854969,8 3.8458278,8 M8.5,13 L8.5,17.5 C8.5,18.8807116 7.38071179,20 6,20 C4.61928821,20 3.5,18.8807116 3.5,17.5 L3.5,13"></path>
            </g>
        </g>
    </g>
</svg>