<?xml version="1.0" encoding="UTF-8"?>
<svg width="24px" height="24px" viewBox="0 0 24 24" version="1.1" xmlns="http://www.w3.org/2000/svg" xmlns:xlink="http://www.w3.org/1999/xlink">
    <title>building-07</title>
    <g id="Line-icons" stroke="none" stroke-width="1" fill="none" fill-rule="evenodd" stroke-linecap="round" stroke-linejoin="round">
        <g id="General" transform="translate(-64, -876)" fill-rule="nonzero" stroke="#000000" stroke-width="2">
            <g id="building-07" transform="translate(66, 879)">
                <path d="M5.5,8 L2.5999999,8 C2.03994739,8 1.75992131,8 1.54600954,8.10899353 C1.35784748,8.2048669 1.2048669,8.35784701 1.10899353,8.54600906 C1,8.75992084 1,9.03994775 1,9.60000038 L1,18 M14.5,8 L17.3999996,8 C17.960052,8 18.2400792,8 18.4539909,8.10899353 C18.6421533,8.2048669 18.7951331,8.35784701 18.8910065,8.54600906 C19,8.75992084 19,9.03994787 19,9.60000038 L19,18 M14.5,18 L14.5,3.20000005 C14.5,2.07989502 14.5,1.51984251 14.2820129,1.09201896 C14.0902662,0.715694845 13.7843056,0.409733713 13.4079809,0.217986971 C12.9801574,0 12.420105,0 11.3000002,0 L8.69999981,0 C7.57989478,0 7.01984262,0 6.59201908,0.217986971 C6.21569496,0.409733713 5.9097338,0.715694845 5.71798706,1.09201896 C5.5,1.51984251 5.5,2.07989502 5.5,3.19999981 L5.5,18 M0,18 L20,18 M11,4 L9,4 M11,8 L9,8 M9,12 L11,12" id="Icon"></path>
            </g>
        </g>
    </g>
</svg>