<?xml version="1.0" encoding="UTF-8"?>
<svg width="24px" height="24px" viewBox="0 0 24 24" version="1.1" xmlns="http://www.w3.org/2000/svg" xmlns:xlink="http://www.w3.org/1999/xlink">
    <title>building-01</title>
    <g id="Line-icons" stroke="none" stroke-width="1" fill="none" fill-rule="evenodd" stroke-linecap="round" stroke-linejoin="round">
        <g id="General" transform="translate(-64, -636)" fill-rule="nonzero" stroke="#000000" stroke-width="2">
            <g id="Icon" transform="translate(67, 639)">
                <path d="M7,5 C7,5.27614239 6.77614239,5.5 6.5,5.5 C6.22385761,5.5 6,5.27614239 6,5 C6,4.72385761 6.22385761,4.5 6.5,4.5 C6.77614239,4.5 7,4.72385761 7,5 Z"></path>
                <path d="M12,5 C12,5.27614239 11.7761424,5.5 11.5,5.5 C11.2238576,5.5 11,5.27614239 11,5 C11,4.72385761 11.2238576,4.5 11.5,4.5 C11.7761424,4.5 12,4.72385761 12,5 Z"></path>
                <path d="M12,16.7180574 L12,12.6000004 L12,12.6000004 C12,12.0399479 12,11.7599208 11.8910065,11.5460091 C11.7951331,11.357847 11.6421533,11.2048669 11.4539909,11.1089935 C11.2400794,11 10.960052,11 10.3999996,11 L7.60000038,11 C7.03994775,11 6.75992131,11 6.54600954,11.1089935 C6.35784748,11.2048669 6.2048669,11.357847 6.10899353,11.5460091 C6,11.7599208 6,12.039948 6,12.6000004 L6,16.7180574 C6,17.1638168 6.04641281,17.3254599 6.13356635,17.4884229 C6.2207199,17.6513858 6.34861419,17.7792801 6.51157715,17.8664336 C6.67454011,17.9535872 6.83618323,18 7.2819426,18 M16,18 L16,3.20000005 C16,2.07989502 16,1.51984251 15.7820129,1.09201896 C15.5902662,0.715694845 15.2843056,0.409733713 14.9079809,0.217986971 C14.4801579,0 13.920105,0 12.8000002,0 L5.19999981,0 C4.07989478,0 3.51984262,0 3.09201908,0.217986971 C2.71569496,0.409733713 2.4097338,0.715694845 2.21798706,1.09201896 C2,1.51984251 2,2.07989502 2,3.19999981 L2,18 M0,18 L18,18 M6.51000023,5 L6.5,5 M11.5,5 L11.5100002,5"></path>
            </g>
        </g>
    </g>
</svg>