<?xml version="1.0" encoding="UTF-8"?>
<svg width="24px" height="24px" viewBox="0 0 24 24" version="1.1" xmlns="http://www.w3.org/2000/svg" xmlns:xlink="http://www.w3.org/1999/xlink">
    <title>building-05</title>
    <g id="Line-icons" stroke="none" stroke-width="1" fill="none" fill-rule="evenodd" stroke-linecap="round" stroke-linejoin="round">
        <g id="General" transform="translate(-64, -796)" fill-rule="nonzero" stroke="#000000" stroke-width="2">
            <g id="building-05" transform="translate(66, 799)">
                <path d="M11,8 L15.8000002,8 C16.920105,8 17.4801583,8 17.9079819,8.21798706 C18.284306,8.4097338 18.5902662,8.71569496 18.7820129,9.09201908 C19,9.51984262 19,10.079895 19,11.1999998 L19,18 M11,18 L11,3.20000005 C11,2.07989502 11,1.51984251 10.7820129,1.09201896 C10.5902662,0.715694845 10.2843056,0.409733713 9.90798092,0.217986971 C9.48015785,0 8.92010498,0 7.80000019,0 L4.19999981,0 C3.07989502,0 2.51984262,0 2.09201908,0.217986971 C1.71569496,0.409733713 1.40973368,0.715694845 1.21798694,1.09201896 C1,1.51984251 1,2.07989502 1,3.19999981 L1,18 M0,18 L20,18 M7.5,4 L4.5,4 M7.5,8 L4.5,8 M4.5,12 L7.5,12" id="Icon"></path>
            </g>
        </g>
    </g>
</svg>