<?xml version="1.0" encoding="UTF-8"?>
<svg width="24px" height="24px" viewBox="0 0 24 24" version="1.1" xmlns="http://www.w3.org/2000/svg" xmlns:xlink="http://www.w3.org/1999/xlink">
    <title>building-02</title>
    <g id="Line-icons" stroke="none" stroke-width="1" fill="none" fill-rule="evenodd" stroke-linecap="round" stroke-linejoin="round">
        <g id="General" transform="translate(-64, -676)" fill-rule="nonzero" stroke="#000000" stroke-width="2">
            <g id="Icon" transform="translate(67, 679)">
                <path d="M0,3.19999981 C0,2.0798949 0,1.51984245 0.217986971,1.09201896 C0.409733713,0.715694815 0.715694815,0.409733713 1.09201896,0.217986971 C1.51984245,0 2.07989502,0 3.20000005,0 L14.8000002,0 C15.9201051,0 16.4801565,0 16.90798,0.217986971 C17.2843041,0.409733713 17.5902662,0.715694815 17.7820129,1.09201896 C18,1.51984245 18,2.07989502 18,3.20000005 L18,14.8000002 C18,15.9201051 18,16.4801584 17.7820129,16.9079819 C17.5902662,17.284306 17.2843041,17.5902662 16.90798,17.7820129 C16.4801565,18 15.9201052,18 14.8000002,18 L3.19999981,18 C2.0798949,18 1.51984245,18 1.09201896,17.7820129 C0.715694815,17.5902662 0.409733713,17.284306 0.217986971,16.9079819 C0,16.4801584 0,15.9201052 0,14.8000002 L0,3.19999981 Z"></path>
                <path d="M12,16.7180574 L12,12.6000004 L12,12.6000004 C12,12.0399479 12,11.7599208 11.8910065,11.5460091 C11.7951331,11.357847 11.6421533,11.2048669 11.4539909,11.1089935 C11.2400794,11 10.960052,11 10.3999996,11 L7.60000038,11 C7.03994775,11 6.75992131,11 6.54600954,11.1089935 C6.35784748,11.2048669 6.2048669,11.357847 6.10899353,11.5460091 C6,11.7599208 6,12.039948 6,12.6000004 L6,16.7180574 C6,17.1638168 6.04641281,17.3254599 6.13356635,17.4884229 C6.2207199,17.6513858 6.34861419,17.7792801 6.51157715,17.8664336 C6.67454011,17.9535872 6.83618323,18 7.2819426,18 M0,4 C0,5.65685427 1.34314573,7 3,7 C4.65685415,7 6,5.65685427 6,4 C6,5.65685427 7.34314585,7 9,7 C10.6568546,7 12,5.65685427 12,4 C12,5.65685427 13.3431454,7 15,7 C16.6568546,7 18,5.65685427 18,4"></path>
            </g>
        </g>
    </g>
</svg>