<?xml version="1.0" encoding="UTF-8"?>
<svg width="24px" height="24px" viewBox="0 0 24 24" version="1.1" xmlns="http://www.w3.org/2000/svg" xmlns:xlink="http://www.w3.org/1999/xlink">
    <title>building-03</title>
    <g id="Line-icons" stroke="none" stroke-width="1" fill="none" fill-rule="evenodd" stroke-linecap="round" stroke-linejoin="round">
        <g id="General" transform="translate(-64, -716)" fill-rule="nonzero" stroke="#000000" stroke-width="2">
            <g id="building-03" transform="translate(66, 719)">
                <path d="M8.25,4 L5.5,4 M8.25,8 L5.5,8 M8.25,12 L5.5,12 M14.5,4 L11.75,4 M14.5,8 L11.75,8 M14.5,12 L11.75,12 M18,18 L18,3.20000005 C18,2.07989502 18,1.51984251 17.7820129,1.09201896 C17.5902662,0.715694845 17.2843065,0.409733713 16.9079819,0.217986971 C16.4801588,0 15.920105,0 14.8000002,0 L5.19999981,0 C4.07989478,0 3.51984262,0 3.09201908,0.217986971 C2.71569496,0.409733713 2.4097338,0.715694845 2.21798706,1.09201896 C2,1.51984251 2,2.07989502 2,3.19999981 L2,18 M20,18 L0,18" id="Icon"></path>
            </g>
        </g>
    </g>
</svg>