<?xml version="1.0" encoding="UTF-8"?>
<svg width="24px" height="24px" viewBox="0 0 24 24" version="1.1" xmlns="http://www.w3.org/2000/svg" xmlns:xlink="http://www.w3.org/1999/xlink">
    <title>bus</title>
    <g id="Line-icons" stroke="none" stroke-width="1" fill="none" fill-rule="evenodd" stroke-linecap="round" stroke-linejoin="round">
        <g id="Maps-&amp;-travel" transform="translate(-64, -156)" fill-rule="nonzero" stroke="#000000" stroke-width="2">
            <g id="Icon" transform="translate(67, 158)">
                <path d="M0,4.79999971 C0,3.11984229 0,2.27976376 0.326980442,1.6380285 C0.614600539,1.0735423 1.0735423,0.614600539 1.6380285,0.326980442 C2.27976376,0 3.11984253,0 4.80000019,0 L13.2000008,0 C14.8801581,0 15.7202356,0 16.3619709,0.326980442 C16.9264571,0.614600539 17.3853993,1.0735423 17.6730194,1.6380285 C18,2.27976376 18,3.11984241 18,4.80000019 L18,12.2000008 C18,13.8801582 18,14.7202366 17.6730194,15.3619719 C17.3853993,15.9264581 16.9264571,16.3853993 16.3619709,16.6730194 C15.7202356,17 14.8801575,17 13.1999998,17 L4.79999971,17 C3.11984241,17 2.27976376,17 1.6380285,16.6730194 C1.0735423,16.3853993 0.614600539,15.9264581 0.326980442,15.3619719 C0,14.7202366 0,13.8801576 0,12.1999998 L0,4.79999971 Z"></path>
                <path d="M5.5,17 L5.5,19.2000008 C5.5,19.480027 5.5,19.6200397 5.44550323,19.7269955 C5.39756656,19.8210766 5.32107663,19.8975666 5.22699547,19.9455032 C5.1200397,20 4.98002601,20 4.69999981,20 L2.79999995,20 C2.51997375,20 2.37996066,20 2.27300477,19.9455032 C2.17892374,19.8975666 2.10243345,19.8210766 2.05449677,19.7269955 C2,19.6200397 2,19.480027 2,19.2000008 L2,17 M16,17 L16,19.2000008 C16,19.480027 16,19.6200397 15.9455032,19.7269955 C15.8975666,19.8210766 15.8210766,19.8975666 15.7269955,19.9455032 C15.6200397,20 15.480026,20 15.1999998,20 L13.3000002,20 C13.019974,20 12.8799604,20 12.7730045,19.9455032 C12.6789235,19.8975666 12.6024335,19.8210766 12.5544968,19.7269955 C12.5,19.6200397 12.5,19.480027 12.5,19.2000008 L12.5,17 M18,10 L0,10 M18,3.5 L0,3.5 M5,13.5 L3.5,13.5 M13,13.5 L14.5,13.5"></path>
            </g>
        </g>
    </g>
</svg>