<?xml version="1.0" encoding="UTF-8"?>
<svg width="24px" height="24px" viewBox="0 0 24 24" version="1.1" xmlns="http://www.w3.org/2000/svg" xmlns:xlink="http://www.w3.org/1999/xlink">
    <title>calendar-check-02</title>
    <g id="Line-icons" stroke="none" stroke-width="1" fill="none" fill-rule="evenodd" stroke-linecap="round" stroke-linejoin="round">
        <g id="Time" transform="translate(-336, -156)" fill-rule="nonzero" stroke="#000000" stroke-width="2">
            <g id="calendar-check-02" transform="translate(339, 158)">
                <path d="M0,8 L18,8 M18,8.69588997 L18,6.80000019 L18,6.80000019 C18,5.11984253 18,4.27976382 17.6730194,3.63802862 C17.3853989,3.07354236 16.9264584,2.61460045 16.3619709,2.32698035 C15.7202368,2 14.8801575,2 13.2000008,2 L4.80000019,2 C3.11984253,2 2.2797637,2 1.6380285,2.32698035 C1.07354224,2.61460045 0.614600539,3.07354236 0.326980442,3.63802862 C0,4.27976382 0,5.11984229 0,6.79999971 L0,15.1999998 C0,16.8801575 0,17.7202368 0.326980442,18.3619709 C0.614600539,18.9264584 1.07354224,19.3853989 1.6380285,19.6730194 C2.2797637,20 3.11984253,20 4.80000019,20 L7.0859306,20 C7.87893173,20 8.15455137,19.9696214 8.45945579,19.8964817 C8.76436022,19.823342 9.03381463,19.707441 9.296607,19.5363963 C9.55939937,19.3653516 9.77100871,19.1861575 10.316391,18.6104762 M13,4 L13,0 M5,4 L5,0 M11.5,17 L13.5,19 L18,14.5" id="Icon"></path>
            </g>
        </g>
    </g>
</svg>