<?xml version="1.0" encoding="UTF-8"?>
<svg width="24px" height="24px" viewBox="0 0 24 24" version="1.1" xmlns="http://www.w3.org/2000/svg" xmlns:xlink="http://www.w3.org/1999/xlink">
    <title>calendar-minus-01</title>
    <g id="Line-icons" stroke="none" stroke-width="1" fill="none" fill-rule="evenodd" stroke-linecap="round" stroke-linejoin="round">
        <g id="Time" transform="translate(-336, -316)" fill-rule="nonzero" stroke="#000000" stroke-width="2">
            <g id="Icon" transform="translate(339, 318)">
                <path d="M0,6.79999971 C0,5.11984241 0,4.27976364 0.326980442,3.63802838 C0.614600539,3.07354218 1.0735423,2.61460045 1.6380285,2.32698035 C2.27976376,2 3.11984253,2 4.80000019,2 L13.2000008,2 C14.8801581,2 15.7202356,2 16.3619709,2.32698035 C16.9264571,2.61460045 17.3853993,3.07354218 17.6730194,3.63802838 C18,4.27976364 18,5.11984253 18,6.80000019 L18,15.2000008 C18,16.8801581 18,17.7202356 17.6730194,18.3619709 C17.3853993,18.9264571 16.9264571,19.3853993 16.3619709,19.6730194 C15.7202356,20 14.8801575,20 13.1999998,20 L4.79999971,20 C3.11984241,20 2.27976376,20 1.6380285,19.6730194 C1.0735423,19.3853993 0.614600539,18.9264571 0.326980442,18.3619709 C0,17.7202356 0,16.8801575 0,15.1999998 L0,6.79999971 Z"></path>
                <path d="M12,13 L6,13 M0,6 L18,6 M13,3 L13,0 M5,0 L5,3"></path>
            </g>
        </g>
    </g>
</svg>