<?xml version="1.0" encoding="UTF-8"?>
<svg width="24px" height="24px" viewBox="0 0 24 24" version="1.1" xmlns="http://www.w3.org/2000/svg" xmlns:xlink="http://www.w3.org/1999/xlink">
    <title>calendar-heart-01</title>
    <g id="Line-icons" stroke="none" stroke-width="1" fill="none" fill-rule="evenodd" stroke-linecap="round" stroke-linejoin="round">
        <g id="Time" transform="translate(-336, -236)" fill-rule="nonzero" stroke="#000000" stroke-width="2">
            <g id="Icon" transform="translate(339, 238)">
                <path d="M0,6.79999971 C0,5.11984241 0,4.27976364 0.326980442,3.63802838 C0.614600539,3.07354218 1.0735423,2.61460045 1.6380285,2.32698035 C2.27976376,2 3.11984253,2 4.80000019,2 L13.2000008,2 C14.8801581,2 15.7202356,2 16.3619709,2.32698035 C16.9264571,2.61460045 17.3853993,3.07354218 17.6730194,3.63802838 C18,4.27976364 18,5.11984253 18,6.80000019 L18,15.2000008 C18,16.8801581 18,17.7202356 17.6730194,18.3619709 C17.3853993,18.9264571 16.9264571,19.3853993 16.3619709,19.6730194 C15.7202356,20 14.8801575,20 13.1999998,20 L4.79999971,20 C3.11984241,20 2.27976376,20 1.6380285,19.6730194 C1.0735423,19.3853993 0.614600539,18.9264571 0.326980442,18.3619709 C0,17.7202356 0,16.8801575 0,15.1999998 L0,6.79999971 Z"></path>
                <path d="M8.99726105,10.330595 C8.19752014,9.42160046 6.86389828,9.17708361 5.86187792,10.00945 C4.85985756,10.8418163 4.71878701,12.2334909 5.50567913,13.2179337 C6.07699841,13.9326836 7.65926898,15.3396668 8.48333168,16.0569229 C8.66197765,16.2124146 8.75130032,16.2901591 8.85596943,16.3209934 C8.94663645,16.3477029 9.0478847,16.3477029 9.13855171,16.3209934 C9.24322081,16.290159 9.33254372,16.2124145 9.51118946,16.0569229 C10.3352518,15.3396668 11.9175225,13.9326837 12.488842,13.2179337 C13.2757343,12.2334909 13.1518865,10.8330606 12.1326427,10.00945 C11.113399,9.1858393 9.79700208,9.42160046 8.99726105,10.330595 Z"></path>
                <path d="M0,6 L18,6 M13,3 L13,0 M5,0 L5,3"></path>
            </g>
        </g>
    </g>
</svg>