<?xml version="1.0" encoding="UTF-8"?>
<svg width="24px" height="24px" viewBox="0 0 24 24" version="1.1" xmlns="http://www.w3.org/2000/svg" xmlns:xlink="http://www.w3.org/1999/xlink">
    <title>camera-02</title>
    <g id="Line-icons" stroke="none" stroke-width="1" fill="none" fill-rule="evenodd" stroke-linecap="round" stroke-linejoin="round">
        <g id="Images" transform="translate(-64, -196)" fill-rule="nonzero" stroke="#000000" stroke-width="2">
            <g id="Icon" transform="translate(66, 198)">
                <path d="M0,5.70177841 C0,4.20962739 1.20962763,3 2.70177865,3 C3.47706372,3 4.16536677,2.50389922 4.41053343,1.76839924 L4.5,1.5 C4.54219061,1.37342793 4.56328577,1.31014209 4.58585501,1.25400138 C4.87404853,0.537123263 5.54938924,0.0503654098 6.32061434,0.00365780201 C6.38101111,0 6.44772017,0 6.58113861,0 L13.4188614,0 C13.5522796,0 13.6189894,0 13.6793861,0.00365780201 C14.4506112,0.0503654098 15.125951,0.537123263 15.4141445,1.25400138 C15.4367137,1.31014209 15.4578094,1.37342799 15.5,1.5 L15.5894661,1.76839924 C15.8346328,2.50389922 16.5229365,3 17.2982216,3 C18.7903726,3 20,4.20962739 20,5.70177841 L20,14.1999998 C20,15.8801575 20,16.7202356 19.6730194,17.3619709 C19.3853993,17.9264571 18.9264571,18.3853993 18.3619709,18.6730194 C17.7202356,19 16.8801575,19 15.1999998,19 L4.80000019,19 C3.11984253,19 2.27976376,19 1.6380285,18.6730194 C1.0735423,18.3853993 0.614600539,17.9264571 0.326980442,17.3619709 C0,16.7202356 0,15.8801575 0,14.1999998 L0,5.70177841 Z"></path>
                <path d="M10,14.5 C12.4852815,14.5 14.5,12.4852815 14.5,10 C14.5,7.51471853 12.4852815,5.5 10,5.5 C7.51471853,5.5 5.5,7.51471853 5.5,10 C5.5,12.4852815 7.51471853,14.5 10,14.5 Z"></path>
            </g>
        </g>
    </g>
</svg>