<?xml version="1.0" encoding="UTF-8"?>
<svg width="24px" height="24px" viewBox="0 0 24 24" version="1.1" xmlns="http://www.w3.org/2000/svg" xmlns:xlink="http://www.w3.org/1999/xlink">
    <title>camera-lens</title>
    <g id="Line-icons" stroke="none" stroke-width="1" fill="none" fill-rule="evenodd" stroke-linecap="round" stroke-linejoin="round">
        <g id="Images" transform="translate(-64, -276)" fill-rule="nonzero" stroke="#000000" stroke-width="2">
            <g id="Icon" transform="translate(66, 278)">
                <path d="M17.0710468,2.92893386 C20.9762919,6.83417892 20.9762919,13.1658242 17.0710468,17.0710468 C13.1658018,20.9762919 6.83415651,20.9762919 2.92893386,17.0710468 C-0.976311207,13.1658018 -0.976311207,6.83415651 2.92893386,2.92893386 C6.83417892,-0.976311207 13.1658242,-0.976311207 17.0710468,2.92893386 Z"></path>
                <path d="M12.8284283,7.17157078 C14.390523,8.73366547 14.390523,11.2663336 12.8284283,12.8284283 C11.2663336,14.390523 8.73366547,14.390523 7.17157078,12.8284283 C5.60947609,11.2663336 5.60947609,8.73366547 7.17157078,7.17157078 C8.73366547,5.60947609 11.2663336,5.60947609 12.8284283,7.17157078 Z"></path>
                <path d="M9.87703323,14 C12.8894703,15.5725547 16.5923872,15.3494658 19.4154797,13.341115 M10.1448231,6.0114913 C7.12844181,4.42637682 3.41439271,4.64566231 0.584445477,6.65888977 M17.6009789,3.51222181 C17.9318576,6.9741292 16.2603853,10.3050089 13.3736935,12.1243439 M2.39877582,16.4877815 C2.06959039,13.0435905 3.72231364,9.72908986 6.5818367,7.90370941 M8.1821022,0.172220945 C11.3449633,1.61684334 13.3939056,4.72851276 13.5268955,8.13703918 M6.47561836,11.925643 C6.63112041,15.3095937 8.67428637,18.3920155 11.817749,19.8277779"></path>
            </g>
        </g>
    </g>
</svg>