<?xml version="1.0" encoding="UTF-8"?>
<svg width="24px" height="24px" viewBox="0 0 24 24" version="1.1" xmlns="http://www.w3.org/2000/svg" xmlns:xlink="http://www.w3.org/1999/xlink">
    <title>camera-01</title>
    <g id="Line-icons" stroke="none" stroke-width="1" fill="none" fill-rule="evenodd" stroke-linecap="round" stroke-linejoin="round">
        <g id="Images" transform="translate(-64, -156)" fill-rule="nonzero" stroke="#000000" stroke-width="2">
            <g id="Icon" transform="translate(66, 158)">
                <path d="M0,6.37722301 C0,6.0269039 0,5.85174452 0.0146174626,5.70421124 C0.155601312,4.28126848 1.28126824,3.15560129 2.704211,3.01461744 C2.85174428,3 3.03635728,3 3.40558338,3 C3.54785371,3 3.61898889,3 3.67938566,2.99634218 C4.45061076,2.94963457 5.12595147,2.46287674 5.41414499,1.74599862 C5.43671423,1.68985791 5.45780935,1.62657195 5.5,1.5 C5.54219065,1.37342805 5.56328577,1.31014209 5.58585501,1.25400138 C5.87404853,0.537123263 6.54938924,0.0503654098 7.32061434,0.00365780201 C7.38101111,0 7.4477202,0 7.58113861,0 L12.4188614,0 C12.5522798,0 12.6189894,0 12.6793861,0.00365780201 C13.4506112,0.0503654098 14.125951,0.537123263 14.4141445,1.25400138 C14.4367137,1.31014209 14.4578093,1.37342805 14.5,1.5 C14.5421907,1.62657195 14.5632863,1.68985791 14.5858555,1.74599862 C14.874049,2.46287674 15.5493888,2.94963457 16.3206139,2.99634218 C16.3810106,3 16.4521454,3 16.5944157,3 C16.9636419,3 17.1482564,3 17.2957897,3.01461744 C18.7187325,3.15560129 19.8443982,4.28126848 19.9853821,5.70421124 C20,5.85174452 20,6.0269039 20,6.37722301 L20,14.1999998 C20,15.8801575 20,16.7202356 19.6730194,17.3619709 C19.3853993,17.9264571 18.9264571,18.3853993 18.3619709,18.6730194 C17.7202356,19 16.8801575,19 15.1999998,19 L4.80000019,19 C3.11984253,19 2.27976376,19 1.6380285,18.6730194 C1.0735423,18.3853993 0.614600539,17.9264571 0.326980442,17.3619709 C0,16.7202356 0,15.8801575 0,14.1999998 L0,6.37722301 Z"></path>
                <path d="M10,14.5 C12.2091389,14.5 14,12.7091389 14,10.5 C14,8.29086089 12.2091389,6.5 10,6.5 C7.79086089,6.5 6,8.29086089 6,10.5 C6,12.7091389 7.79086089,14.5 10,14.5 Z"></path>
            </g>
        </g>
    </g>
</svg>