<?xml version="1.0" encoding="UTF-8"?>
<svg width="24px" height="24px" viewBox="0 0 24 24" version="1.1" xmlns="http://www.w3.org/2000/svg" xmlns:xlink="http://www.w3.org/1999/xlink">
    <title>camera-03</title>
    <g id="Line-icons" stroke="none" stroke-width="1" fill="none" fill-rule="evenodd" stroke-linecap="round" stroke-linejoin="round">
        <g id="Images" transform="translate(-64, -236)" fill-rule="nonzero" stroke="#000000" stroke-width="2">
            <g id="Icon" transform="translate(66, 239)">
                <path d="M0,4.79999971 C0,3.11984241 0,2.27976376 0.326980442,1.6380285 C0.614600539,1.0735423 1.0735423,0.614600539 1.6380285,0.326980442 C2.27976376,0 3.11984253,0 4.80000019,0 L15.1999998,0 C16.8801575,0 17.7202356,0 18.3619709,0.326980442 C18.9264571,0.614600539 19.3853993,1.0735423 19.6730194,1.6380285 C20,2.27976376 20,3.11984253 20,4.80000019 L20,13.2000008 C20,14.8801581 20,15.7202356 19.6730194,16.3619709 C19.3853993,16.9264571 18.9264571,17.3853993 18.3619709,17.6730194 C17.7202356,18 16.8801575,18 15.1999998,18 L4.80000019,18 C3.11984253,18 2.27976376,18 1.6380285,17.6730194 C1.0735423,17.3853993 0.614600539,16.9264571 0.326980442,16.3619709 C0,15.7202356 0,14.8801575 0,13.1999998 L0,4.79999971 Z"></path>
                <path d="M10,13 C12.2091389,13 14,11.2091389 14,9 C14,6.79086089 12.2091389,5 10,5 C7.79086089,5 6,6.79086089 6,9 C6,11.2091389 7.79086089,13 10,13 Z"></path>
            </g>
        </g>
    </g>
</svg>