<?xml version="1.0" encoding="UTF-8"?>
<svg width="24px" height="24px" viewBox="0 0 24 24" version="1.1" xmlns="http://www.w3.org/2000/svg" xmlns:xlink="http://www.w3.org/1999/xlink">
    <title>camera-off</title>
    <g id="Line-icons" stroke="none" stroke-width="1" fill="none" fill-rule="evenodd" stroke-linecap="round" stroke-linejoin="round">
        <g id="Images" transform="translate(-64, -316)" fill-rule="nonzero" stroke="#000000" stroke-width="2">
            <g id="camera-off" transform="translate(66, 318)">
                <path d="M3.41886139,3 L3.41886139,3 L3.41886139,3 C3.55227977,3 3.61898887,3 3.67938566,2.99634218 C4.45061076,2.94963455 5.12595105,2.4628768 5.41414452,1.74599862 C5.4367137,1.68985796 5.45780945,1.62657189 5.5,1.5 C5.54219055,1.37342811 5.5632863,1.31014204 5.58585548,1.25400138 C5.87404895,0.537123203 6.54938912,0.0503654061 7.32061434,0.00365780201 C7.38101101,0 7.44772005,0 7.58113861,0 L12.4188614,0 C12.5522795,0 12.618989,0 12.6793861,0.00365780201 C13.4506111,0.0503654061 14.1259508,0.537123203 14.4141445,1.25400138 C14.4367142,1.31014204 14.4578094,1.37342811 14.5,1.5 C14.5421906,1.62657189 14.5632858,1.68985796 14.5858555,1.74599862 C14.8740492,2.4628768 15.5493889,2.94963455 16.3206139,2.99634218 C16.381011,3 16.4521475,3 16.5944176,3 C16.9636431,3 17.1482544,3 17.2957878,3.01461744 C18.7187309,3.15560126 19.8443985,4.28126812 19.9853821,5.70421124 C20,5.85174417 20,6.02690411 20,6.37722301 L20,16 C20,17.084919 19.4240971,18.0353298 18.5613174,18.5622025 M13.0640812,13.0714092 C13.6481895,12.3761163 14,11.4791431 14,10.5 C14,8.29086089 12.2091393,6.5 10,6.5 C9.02157331,6.5 8.12519556,6.85129535 7.43011665,7.43463707 M0,0 L20,20 M0,5.5 L0,14.1999998 C0,15.8801575 0,16.7202377 0.326980442,17.3619728 C0.614600539,17.9264584 1.07354224,18.3853998 1.6380285,18.6730194 C2.2797637,19 3.11984253,19 4.80000067,19 L13.5,19 M10,14.5 C7.79086089,14.5 6,12.7091391 6,10.5" id="Icon"></path>
            </g>
        </g>
    </g>
</svg>