<?xml version="1.0" encoding="UTF-8"?>
<svg width="24px" height="24px" viewBox="0 0 24 24" version="1.1" xmlns="http://www.w3.org/2000/svg" xmlns:xlink="http://www.w3.org/1999/xlink">
    <title>camera-plus</title>
    <g id="Line-icons" stroke="none" stroke-width="1" fill="none" fill-rule="evenodd" stroke-linecap="round" stroke-linejoin="round">
        <g id="Images" transform="translate(-64, -356)" fill-rule="nonzero" stroke="#000000" stroke-width="2">
            <g id="Icon" transform="translate(66, 358)">
                <path d="M10,14 C12.2091389,14 14,12.2091389 14,10 C14,7.79086089 12.2091389,6 10,6 C7.79086089,6 6,7.79086089 6,10 C6,12.2091389 7.79086089,14 10,14 Z"></path>
                <path d="M20,9.5 L20,12.5999994 C20,14.84021 20,15.9603148 19.5640259,16.8159618 C19.1805325,17.5686111 18.5686111,18.1805325 17.8159618,18.5640259 C16.9603157,19 15.84021,19 13.6000004,19 L6.39999962,19 C4.15979004,19 3.03968501,19 2.18403792,18.5640259 C1.43138969,18.1805325 0.819467425,17.5686111 0.435973942,16.8159618 C0,15.9603148 0,14.84021 0,12.6000004 L0,7.4000001 C0,5.15979004 0,4.03968501 0.435973942,3.18403792 C0.819467425,2.43138969 1.43138969,1.81946737 2.18403792,1.43597388 C3.03968501,1 4.15979004,1 6.4000001,1 L10.5,1 M17,0 L17,6 M14,3 L20,3"></path>
            </g>
        </g>
    </g>
</svg>