<?xml version="1.0" encoding="UTF-8"?>
<svg width="24px" height="24px" viewBox="0 0 24 24" version="1.1" xmlns="http://www.w3.org/2000/svg" xmlns:xlink="http://www.w3.org/1999/xlink">
    <title>car-01</title>
    <g id="Line-icons" stroke="none" stroke-width="1" fill="none" fill-rule="evenodd" stroke-linecap="round" stroke-linejoin="round">
        <g id="Maps-&amp;-travel" transform="translate(-64, -196)" fill-rule="nonzero" stroke="#000000" stroke-width="2">
            <g id="Icon" transform="translate(66, 200)">
                <path d="M15.1999998,6 L4.80000019,6 C3.11984253,6 2.2797637,6 1.6380285,6.32698059 C1.07354224,6.61460069 0.614600539,7.07354236 0.326980442,7.63802862 C0,8.27976382 0,9.11984253 0,10.8000002 L0,13.5 C0,13.9646554 0,14.1969824 0.0384294391,14.3901806 C0.196242779,15.1835623 0.816438138,15.8037577 1.60981941,15.9615707 C1.80301714,16 2.03534484,16 2.5,16 L3,16 C4.10456944,16 5,15.1045694 5,14 C5,13.7238574 5.22385788,13.5 5.5,13.5 L14.5,13.5 C14.7761421,13.5 15,13.7238574 15,14 C15,15.1045694 15.8954306,16 17,16 L17.5,16 C17.9646549,16 18.1969833,16 18.3901806,15.9615707 C19.1835613,15.8037577 19.8037567,15.1835623 19.9615707,14.3901806 C20,14.1969824 20,13.9646554 20,13.5 L20,10.8000002 C20,9.11984253 20,8.27976382 19.6730194,7.63802862 C19.3853989,7.07354236 18.9264584,6.61460069 18.3619709,6.32698059 C17.7202358,6 16.8801575,6 15.1999998,6 Z"></path>
                <path d="M6,9 L3,9 M0,5 L2,6 L3.270643,2.18807101 C3.53291631,1.40125108 3.66405296,1.00784111 3.90728807,0.716981173 C4.12207961,0.460134238 4.39791679,0.261321992 4.70950603,0.13877514 C5.06235766,0 5.4770484,0 6.30642939,0 L13.6935701,0 C14.5229511,0 14.9376421,0 15.290494,0.13877514 C15.6020832,0.261321992 15.8779211,0.460134238 16.0927124,0.716981173 C16.335948,1.00784111 16.4670839,1.4012512 16.7293568,2.18807125 L18,6 L20,5 M14,9 L17,9"></path>
            </g>
        </g>
    </g>
</svg>