<?xml version="1.0" encoding="UTF-8"?>
<svg width="24px" height="24px" viewBox="0 0 24 24" version="1.1" xmlns="http://www.w3.org/2000/svg" xmlns:xlink="http://www.w3.org/1999/xlink">
    <title>car-02</title>
    <g id="Line-icons" stroke="none" stroke-width="1" fill="none" fill-rule="evenodd" stroke-linecap="round" stroke-linejoin="round">
        <g id="Maps-&amp;-travel" transform="translate(-64, -236)" fill-rule="nonzero" stroke="#000000" stroke-width="2">
            <g id="Icon" transform="translate(66, 239)">
                <path d="M15.1999998,7 L4.80000019,7 C3.11984253,7 2.2797637,7 1.6380285,7.32698059 C1.07354224,7.61460069 0.614600539,8.07354188 0.326980442,8.63802814 C0,9.27976334 0,10.1198425 0,11.8000002 L0,15 C0,15.9318829 0,16.3978233 0.152240932,16.7653656 C0.355228841,17.2554216 0.744576991,17.6447716 1.23463309,17.8477592 C1.60217524,18 2.0681169,18 3,18 L3.5999999,18 C3.9716022,18 4.15740347,18 4.31286907,17.9753761 C5.16865396,17.8398323 5.83983374,17.1686544 5.97537661,16.31287 C6,16.1574039 6,15.9716024 6,15.6000004 C6,15.5070992 6,15.4606495 6.00615597,15.4217825 C6.04004145,15.2078362 6.20783663,15.0400419 6.42178297,15.006156 C6.46064901,15 6.50709963,15 6.5999999,15 L13.3999996,15 C13.4929008,15 13.5393505,15 13.5782175,15.006156 C13.7921638,15.0400419 13.9599581,15.2078362 13.993844,15.4217825 C14,15.4606495 14,15.5070992 14,15.6000004 C14,15.9716024 14,16.1574039 14.0246229,16.31287 C14.1601667,17.1686544 14.8313465,17.8398323 15.6871309,17.9753761 C15.842597,18 16.0283985,18 16.3999996,18 L17,18 C17.9318829,18 18.3978252,18 18.7653675,17.8477592 C19.2554226,17.6447716 19.6447716,17.2554216 19.8477592,16.7653656 C20,16.3978233 20,15.9318829 20,15 L20,11.8000002 C20,10.1198425 20,9.27976334 19.6730194,8.63802814 C19.3853989,8.07354188 18.9264584,7.61460069 18.3619709,7.32698059 C17.7202358,7 16.8801575,7 15.1999998,7 Z"></path>
                <path d="M4.5,10.5 C4.5,10.7761424 4.27614239,11 4,11 C3.72385761,11 3.5,10.7761424 3.5,10.5 C3.5,10.2238576 3.72385761,10 4,10 C4.27614239,10 4.5,10.2238576 4.5,10.5 Z"></path>
                <path d="M16.5,10.5 C16.5,10.7761424 16.2761424,11 16,11 C15.7238576,11 15.5,10.7761424 15.5,10.5 C15.5,10.2238576 15.7238576,10 16,10 C16.2761424,10 16.5,10.2238576 16.5,10.5 Z"></path>
                <path d="M17,7 L17,3.20000005 C17,2.07989502 17,1.51984251 16.7820129,1.09201896 C16.5902662,0.715694845 16.2843056,0.409733713 15.9079809,0.217986971 C15.4801579,0 14.920105,0 13.8000002,0 L6.19999981,0 C5.07989478,0 4.51984262,0 4.09201908,0.217986971 C3.71569496,0.409733713 3.4097338,0.715694845 3.21798706,1.09201896 C3,1.51984251 3,2.07989502 3,3.20000029 L3,7 M3,6 L0,6 L0,5 M17,6 L20,6 L20,5 M4.01000023,10.5 L4,10.5 M16,10.5 L16.0100002,10.5"></path>
            </g>
        </g>
    </g>
</svg>