<?xml version="1.0" encoding="UTF-8"?>
<svg width="24px" height="24px" viewBox="0 0 24 24" version="1.1" xmlns="http://www.w3.org/2000/svg" xmlns:xlink="http://www.w3.org/1999/xlink">
    <title>chart-breakout-square</title>
    <g id="Line-icons" stroke="none" stroke-width="1" fill="none" fill-rule="evenodd" stroke-linecap="round" stroke-linejoin="round">
        <g id="Charts" transform="translate(-336, -596)" fill-rule="nonzero" stroke="#000000" stroke-width="2">
            <g id="Icon" transform="translate(339, 598)">
                <polyline points="9 6 13 6 13 10"></polyline>
                <path d="M6.14118612,1 L4.80000019,1 L4.80000019,1 C3.11984253,1 2.2797637,1 1.6380285,1.32698047 C1.07354224,1.61460057 0.614600539,2.07354236 0.326980442,2.63802862 C0,3.27976382 0,4.11984229 0,5.79999971 L0,14.1999998 C0,15.8801575 0,16.7202368 0.326980442,17.3619709 C0.614600539,17.9264584 1.07354224,18.3853989 1.6380285,18.6730194 C2.2797637,19 3.11984229,19 4.79999971,19 L13.1999998,19 C14.8801575,19 15.7202368,19 16.3619709,18.6730194 C16.9264584,18.3853989 17.3853989,17.9264584 17.6730194,17.3619709 C18,16.7202368 18,15.8801575 18,14.1999998 L18,12.8588139 C18,12.0841896 17.9719521,11.816233 17.9035038,11.5192453 C17.8350555,11.2222576 17.7262068,10.9594735 17.564605,10.7010712 C17.4030033,10.442669 17.2333622,10.2333622 16.6856201,9.6856201 M12.5,0 L12.5,1.5 M17.5,1.5 L16.4393406,2.56066012 M19.0102539,6.5 L17.5102539,6.5 M0,11.3471031 C0.65193975,11.4477701 1.31987047,11.5 2,11.5 C6.3863616,11.5 10.2653313,9.32759237 12.6196842,6"></path>
            </g>
        </g>
    </g>
</svg>