<?xml version="1.0" encoding="UTF-8"?>
<svg width="24px" height="24px" viewBox="0 0 24 24" version="1.1" xmlns="http://www.w3.org/2000/svg" xmlns:xlink="http://www.w3.org/1999/xlink">
    <title>check-verified-01</title>
    <g id="Line-icons" stroke="none" stroke-width="1" fill="none" fill-rule="evenodd" stroke-linecap="round" stroke-linejoin="round">
        <g id="General" transform="translate(-64, -1276)" fill-rule="nonzero" stroke="#000000" stroke-width="2">
            <g id="Icon" transform="translate(66, 1278)">
                <path d="M7.51446867,0.91541934 C6.90071392,1.43845731 6.13760185,1.75454879 5.33376789,1.81869519 C3.45794463,1.96838713 1.96838725,3.45794463 1.81869531,5.33376789 C1.75454891,6.13760185 1.43845731,6.90071392 0.91541934,7.51446867 C-0.30513978,8.94672394 -0.30513978,11.0532751 0.91541934,12.4855309 C1.43845731,13.0992851 1.75454879,13.8623981 1.81869519,14.6662312 C1.96838713,16.5420551 3.45794463,18.0316124 5.33376789,18.1813049 C6.13760138,18.245451 6.9007144,18.5615425 7.51446867,19.0845814 C8.94672394,20.3051395 11.0532751,20.3051395 12.4855309,19.0845814 C13.0992851,18.5615425 13.8623981,18.245451 14.6662312,18.1813049 C16.5420551,18.0316124 18.0316124,16.5420551 18.1813049,14.6662312 C18.245451,13.8623981 18.5615425,13.0992851 19.0845814,12.4855309 C20.3051395,11.0532751 20.3051395,8.94672394 19.0845814,7.51446867 C18.5615425,6.9007144 18.245451,6.13760138 18.1813049,5.33376789 C18.0316124,3.45794463 16.5420551,1.96838725 14.6662312,1.81869531 C13.8623981,1.75454891 13.0992851,1.43845731 12.4855309,0.91541934 C11.0532751,-0.30513978 8.94672394,-0.30513978 7.51446867,0.91541934 Z"></path>
                <polyline points="7 10 9 12 13.5 7.5"></polyline>
            </g>
        </g>
    </g>
</svg>