<?xml version="1.0" encoding="UTF-8"?>
<svg width="24px" height="24px" viewBox="0 0 24 24" version="1.1" xmlns="http://www.w3.org/2000/svg" xmlns:xlink="http://www.w3.org/1999/xlink">
    <title>check-verified-03</title>
    <g id="Line-icons" stroke="none" stroke-width="1" fill="none" fill-rule="evenodd" stroke-linecap="round" stroke-linejoin="round">
        <g id="General" transform="translate(-64, -1356)" fill-rule="nonzero" stroke="#000000" stroke-width="2">
            <g id="Icon" transform="translate(66, 1358)">
                <path d="M7.20190001,18.600872 C7.52965045,18.5575399 7.86073396,18.6464268 8.12182331,18.8475323 L9.32505608,19.7708416 C9.72280073,20.0763887 10.2760882,20.0763887 10.6727219,19.7708416 L11.9215059,18.8119774 C12.1548198,18.6330935 12.44924,18.5542061 12.7403269,18.5930939 L14.3024197,18.798645 C14.7990449,18.8641988 15.2778932,18.5875404 15.4700994,18.1242199 L16.0711613,16.6709251 C16.1833741,16.3987105 16.3989106,16.1831629 16.6711102,16.0709438 L18.1243229,15.4698486 C18.5876176,15.2787428 18.8642619,14.7987559 18.7987118,14.302103 L18.6009502,12.7965899 C18.5576205,12.4688212 18.6465028,12.1377184 18.8475971,11.8766146 L19.770853,10.673315 C20.0763831,10.2755483 20.0763831,9.72222957 19.770853,9.32557392 L18.8120422,8.07672024 C18.6331683,7.84339339 18.5542883,7.54895654 18.593174,7.25785351 L18.7987118,5.69567585 C18.8642619,5.19902298 18.5876176,4.72014667 18.1243229,4.52792978 L16.6711102,3.9268353 C16.3989106,3.81461619 16.1833741,3.59906653 16.0711613,3.32685184 L15.4700994,1.87355888 C15.2790043,1.41023842 14.7990449,1.13357954 14.3024197,1.19913328 L12.7403269,1.40468299 C12.44924,1.44468188 12.1548208,1.36579497 11.9226179,1.18802214 L10.6738329,0.229160309 C10.2760882,-0.0763867795 9.72280073,-0.0763867795 9.32616711,0.229160309 L8.07738304,1.18802214 C7.84406915,1.36579497 7.54964846,1.44468179 7.25856161,1.40690506 L5.69646931,1.20135522 C5.19984403,1.13580148 4.72099572,1.41246095 4.52878952,1.87578142 L3.92883897,3.32907391 C3.81551508,3.6001775 3.59997743,3.81572717 3.32888889,3.92905736 L1.87567711,4.52904129 C1.41238239,4.72125818 1.13573837,5.20013306 1.20128846,5.69678593 L1.40682685,7.25896502 C1.44460149,7.55006805 1.36571905,7.84450445 1.18795609,8.07672024 L0.229147583,9.32557392 C-0.0763825178,9.72334069 -0.0763825178,10.2766594 0.229147583,10.673315 L1.18795609,11.9221687 C1.36683008,12.1554956 1.4457125,12.4499324 1.40682685,12.7410355 L1.20128846,14.3032141 C1.13573837,14.7998669 1.41238239,15.2787428 1.87567711,15.4709597 L3.32888889,16.0720539 C3.60108843,16.184273 3.81662609,16.3998224 3.92883897,16.6720371 L4.52990055,18.12533 C4.72099574,18.5886504 5.20095554,18.8653107 5.69758081,18.799757 L7.20190001,18.600872 Z"></path>
                <polyline points="7 10 9 12 13.5 7.5"></polyline>
            </g>
        </g>
    </g>
</svg>