<?xml version="1.0" encoding="UTF-8"?>
<svg width="24px" height="24px" viewBox="0 0 24 24" version="1.1" xmlns="http://www.w3.org/2000/svg" xmlns:xlink="http://www.w3.org/1999/xlink">
    <title>check-verified-02</title>
    <g id="Line-icons" stroke="none" stroke-width="1" fill="none" fill-rule="evenodd" stroke-linecap="round" stroke-linejoin="round">
        <g id="General" transform="translate(-64, -1316)" fill-rule="nonzero" stroke="#000000" stroke-width="2">
            <g id="Icon" transform="translate(66, 1318)">
                <path d="M15.9011812,2.99850678 C16.1070994,3.49653235 16.5023561,3.89239842 17.0000534,4.09907246 L18.7452354,4.82197714 C19.243282,5.02828236 19.6389801,5.42399377 19.8452778,5.92205858 C20.0515755,6.4201234 20.0515754,6.97974318 19.8452778,7.477808 L19.1229172,9.22180271 C18.9165286,9.72008693 18.9162413,10.2802752 19.1235676,10.7783194 L19.844677,12.5217962 C19.9469462,12.7684814 19.9996063,13.0329012 19.999649,13.2999468 C19.9996918,13.5669923 19.947117,13.83143 19.8449268,14.0781479 C19.7427367,14.3248658 19.5929344,14.5490297 19.4040813,14.7378292 C19.2152283,14.9266287 18.9910234,15.0763624 18.7442818,15.1784773 L17.000351,15.9008646 C16.5023436,16.1067902 16.1064935,16.5020595 15.899827,16.9997749 L15.1769476,18.7450218 C14.9706499,19.2430866 14.5749547,19.6387971 14.0769081,19.8451023 C13.5788615,20.0514075 13.0192601,20.0514094 12.5212135,19.8451042 L10.7772837,19.1227188 C10.2792233,18.9169214 9.71982589,18.9173384 9.22207546,19.1238842 L7.47689247,19.8457546 C6.97912261,20.0515824 6.42001027,20.0514077 5.92236853,19.8452702 C5.42472678,19.6391326 5.02925213,19.2438904 4.82281256,18.7463589 L4.09971905,17.0005913 C3.89380091,16.5025657 3.49854437,16.1067004 3.0008471,15.9000263 L1.25566411,15.1771212 C0.757834285,14.9709059 0.36225608,14.5754455 0.155882239,14.0776663 C-0.0504916012,13.5798871 -0.0507718027,13.0205292 0.155104086,12.5225439 L0.877463758,10.7785501 C1.08325359,10.2804716 1.08283384,9.72105148 0.876295567,9.22328281 L0.15497224,7.47678423 C0.0527030081,7.23009905 0,6.96567827 0,6.69863272 C0,6.43158716 0.0525326356,6.16715097 0.15472281,5.92043304 C0.256912984,5.67371511 0.406714633,5.44955215 0.595567703,5.26075268 C0.784420773,5.07195321 1.00862361,4.92221849 1.25536525,4.82010365 L2.9992969,4.09771681 C3.49687079,3.8919711 3.8924849,3.49720058 4.09930325,3.00005651 L4.8221817,1.25480974 C5.02847935,0.756744921 5.42417601,0.36103408 5.92222261,0.154728904 C6.42026922,-0.0515762717 6.97986868,-0.0515763313 7.47791529,0.154728889 L9.22184563,0.877115309 C9.719906,1.08291271 10.2793044,1.08249219 10.7770548,0.875946403 L12.5229712,0.155849159 C13.0209506,-0.0503401309 13.5804313,-0.0502980053 14.0783796,0.155966505 C14.5763279,0.362231016 14.9719706,0.757828355 15.1783028,1.25576377 L15.9013958,3.00152993 L15.9011812,2.99850678 Z"></path>
                <polyline points="7 10 9 12 13.5 7.5"></polyline>
            </g>
        </g>
    </g>
</svg>