<?xml version="1.0" encoding="UTF-8"?>
<svg width="24px" height="24px" viewBox="0 0 24 24" version="1.1" xmlns="http://www.w3.org/2000/svg" xmlns:xlink="http://www.w3.org/1999/xlink">
    <title>chrome-cast</title>
    <g id="Line-icons" stroke="none" stroke-width="1" fill="none" fill-rule="evenodd" stroke-linecap="round" stroke-linejoin="round">
        <g id="Media-&amp;-devices" transform="translate(-64, -636)" fill-rule="nonzero" stroke="#000000" stroke-width="2">
            <g id="chrome-cast" transform="translate(66, 639)">
                <path d="M0,9.05000019 C2.03078938,9.27586477 3.92427516,10.1860459 5.3691144,11.6308851 C6.8139534,13.0757246 7.7241354,14.9692106 7.94999981,17 M0,13.099987 C0.960892081,13.2959552 1.842942,13.7701662 2.53638172,14.4636059 C3.22982144,15.1570456 3.70403194,16.0390944 3.9000001,16.9999866 M0.00999999046,17 L0,17 M13.9407721,18 L15.1999998,18 L15.1999998,18 C16.8801575,18 17.7202358,18 18.3619709,17.6730194 C18.9264584,17.3853989 19.3853989,16.9264584 19.6730194,16.3619709 C20,15.7202368 20,14.8801575 20,13.2000008 L20,4.80000019 C20,3.11984253 20,2.2797637 19.6730194,1.6380285 C19.3853989,1.07354224 18.9264584,0.614600539 18.3619709,0.326980442 C17.7202358,0 16.8801575,0 15.1999998,0 L4.80000019,0 C3.11984253,0 2.2797637,0 1.6380285,0.326980442 C1.07354224,0.614600539 0.614600539,1.07354224 0.326980442,1.6380285 C0,2.2797637 0,3.11984253 0,4.80000019 C1.57481545e-17,4.92859363 0.0484335195,5.05246965 0.135655891,5.14696055" id="Icon"></path>
            </g>
        </g>
    </g>
</svg>