<?xml version="1.0" encoding="UTF-8"?>
<svg width="24px" height="24px" viewBox="0 0 24 24" version="1.1" xmlns="http://www.w3.org/2000/svg" xmlns:xlink="http://www.w3.org/1999/xlink">
    <title>cloud-off</title>
    <g id="Line-icons" stroke="none" stroke-width="1" fill="none" fill-rule="evenodd" stroke-linecap="round" stroke-linejoin="round">
        <g id="Weather" transform="translate(-64, -356)" fill-rule="nonzero" stroke="#000000" stroke-width="2">
            <g id="cloud-off" transform="translate(66, 359)">
                <path d="M19.7003212,13.1180859 C19.8938847,12.6159515 20,12.0703678 20,11.5 C20,9.15643024 18.2084908,7.23129272 15.9202576,7.01936913 C15.4521847,4.17213202 12.9797564,2 10,2 C9.55343592,2 9.11826587,2.04878569 8.69952965,2.14131808 M5.28745651,4.28585005 C4.67316914,5.06419444 4.24758816,5.99837697 4.07974148,7.01936913 C1.7915082,7.23129272 0,9.15643024 0,11.5 C0,13.9852805 2.01471853,16 4.5,16 L15.5,16 C15.9560795,16 16.3963108,15.9321508 16.8111534,15.8059959 M1,0 L19,18" id="Icon"></path>
            </g>
        </g>
    </g>
</svg>