<?xml version="1.0" encoding="UTF-8"?>
<svg width="24px" height="24px" viewBox="0 0 24 24" version="1.1" xmlns="http://www.w3.org/2000/svg" xmlns:xlink="http://www.w3.org/1999/xlink">
    <title>cloud-moon</title>
    <g id="Line-icons" stroke="none" stroke-width="1" fill="none" fill-rule="evenodd" stroke-linecap="round" stroke-linejoin="round">
        <g id="Weather" transform="translate(-64, -316)" fill-rule="nonzero" stroke="#000000" stroke-width="2">
            <g id="Icon" transform="translate(66, 318.1636)">
                <path d="M4,19.8364258 C1.79086113,19.8364258 0,18.0455647 0,15.8364258 C0,13.8585691 1.43550766,12.2159929 3.32148242,11.8937378 C4.12875557,9.53346395 6.36619568,7.83642578 9,7.83642578 C11.2882004,7.83642578 13.2772331,9.11731863 14.2891912,11.0011988 C14.6744394,10.8938282 15.0805149,10.8364258 15.5,10.8364258 C17.985281,10.8364258 20,12.8511443 20,15.3364258 C20,17.8217068 17.985281,19.8364258 15.5,19.8364258 C11.6666667,19.8364258 7.83333325,19.8364258 4,19.8364258 Z"></path>
                <path d="M14.5,10.8364582 C17.0768023,10.8364582 19.2397203,9.06441307 19.8366089,6.67246389 C19.4087162,6.77929258 18.9609804,6.83600473 18.5,6.83600473 C15.4624338,6.83600473 13,4.3735708 13,1.33600461 C13,0.875240564 13.0566587,0.427709997 13.1633902,0 C10.7717478,0.59710294 9,2.75987387 9,5.33645868 C9,6.24917889 9.22232491,7.10997248 9.61577415,7.86763811 M3,0.836425781 L3,4.83642578 M1,2.83642578 L5,2.83642578"></path>
            </g>
        </g>
    </g>
</svg>