<?xml version="1.0" encoding="UTF-8"?>
<svg width="24px" height="24px" viewBox="0 0 24 24" version="1.1" xmlns="http://www.w3.org/2000/svg" xmlns:xlink="http://www.w3.org/1999/xlink">
    <title>cloud-sun-01</title>
    <g id="Line-icons" stroke="none" stroke-width="1" fill="none" fill-rule="evenodd" stroke-linecap="round" stroke-linejoin="round">
        <g id="Weather" transform="translate(-336, -196)" fill-rule="nonzero" stroke="#000000" stroke-width="2">
            <g id="Icon" transform="translate(338, 199)">
                <path d="M5,18 C2.23857617,18 0,15.7614241 0,13 C0,10.2385764 2.23857617,8 5,8 C5.03314924,8 5.06622076,8.00032377 5.09921598,8.00096607 C6.00939512,6.21960294 7.86227083,5 10,5 C12.5192347,5 14.6428709,6.6937542 15.2942724,9.00462341 C15.3624649,9.00155497 15.4310503,9 15.5,9 C17.985281,9 20,11.0147185 20,13.5 C20,15.985281 17.985281,18 15.5,18 C11.7434146,18 9.23521137,18 5,18 Z"></path>
                <path d="M17.3679714,9.40481758 C18.9349833,8.56064129 20,6.90469503 20,5 C20,2.23857617 17.7614241,0 15,0 C12.2385762,0 10,2.23857617 10,5"></path>
            </g>
        </g>
    </g>
</svg>