<?xml version="1.0" encoding="UTF-8"?>
<svg width="24px" height="24px" viewBox="0 0 24 24" version="1.1" xmlns="http://www.w3.org/2000/svg" xmlns:xlink="http://www.w3.org/1999/xlink">
    <title>cloud-raining-05</title>
    <g id="Line-icons" stroke="none" stroke-width="1" fill="none" fill-rule="evenodd" stroke-linecap="round" stroke-linejoin="round">
        <g id="Weather" transform="translate(-64, -556)" fill-rule="nonzero" stroke="#000000" stroke-width="2">
            <g id="Icon" transform="translate(66, 558)">
                <path d="M5,13 C2.23857617,13 0,10.7614241 0,8 C0,5.23857641 2.23857617,3 5,3 C5.03314924,3 5.06622076,3.00032377 5.09921598,3.00096607 C6.00939512,1.21960294 7.86227083,0 10,0 C12.5192347,0 14.6428709,1.69375372 15.2942724,4.00462294 C15.3624649,4.00155449 15.4310503,4 15.5,4 C17.985281,4 20,6.01471853 20,8.5 C20,10.985281 17.985281,13 15.5,13 C11.7434146,13 9.23521137,13 5,13 Z"></path>
                <path d="M13,19 L14,16.5 M5,19 L6,16.5 M10,16.5 L9,19"></path>
            </g>
        </g>
    </g>
</svg>