<?xml version="1.0" encoding="UTF-8"?>
<svg width="24px" height="24px" viewBox="0 0 24 24" version="1.1" xmlns="http://www.w3.org/2000/svg" xmlns:xlink="http://www.w3.org/1999/xlink">
    <title>cloud-sun-02</title>
    <g id="Line-icons" stroke="none" stroke-width="1" fill="none" fill-rule="evenodd" stroke-linecap="round" stroke-linejoin="round">
        <g id="Weather" transform="translate(-336, -236)" fill-rule="nonzero" stroke="#000000" stroke-width="2">
            <g id="Icon" transform="translate(338, 237.5)">
                <path d="M4,20.5 C1.79086113,20.5 0,18.7091389 0,16.5 C0,14.2908611 1.79086113,12.5 4,12.5 C4.46418643,12.5 4.90990543,12.5790677 5.32442379,12.7244701 C6.04060745,10.8395587 7.86386824,9.5 10,9.5 C12.1361341,9.5 13.9593964,10.8395612 14.6755781,12.7244749 C15.0900965,12.5790722 15.5358133,12.5 16,12.5 C18.2091389,12.5 20,14.2908611 20,16.5 C20,18.7091389 18.2091389,20.5 16,20.5 C11.3597069,20.5 7.87920761,20.5 4,20.5 Z"></path>
                <path d="M8.5,1.60000134 L8.5,0 M0,8.5 L1.60000134,8.5 M2.31982422,2.32000017 L3.45119619,3.45137215 M14.6811762,2.31999993 L13.5498047,3.45137167 M15.3999996,8.5 L17,8.5 M4.500072,8.50007534 C4.500072,6.29093432 6.29093432,4.500072 8.50007534,4.500072 C10.0060859,4.500072 11.3177056,5.3323549 12.0000725,6.56205845"></path>
            </g>
        </g>
    </g>
</svg>