<?xml version="1.0" encoding="UTF-8"?>
<svg width="24px" height="24px" viewBox="0 0 24 24" version="1.1" xmlns="http://www.w3.org/2000/svg" xmlns:xlink="http://www.w3.org/1999/xlink">
    <title>codepen</title>
    <g id="Line-icons" stroke="none" stroke-width="1" fill="none" fill-rule="evenodd" stroke-linecap="round" stroke-linejoin="round">
        <g id="Development" transform="translate(-336, -196)" fill-rule="nonzero" stroke="#000000" stroke-width="2">
            <g id="Icon" transform="translate(338, 198.1927)">
                <path d="M10.8719816,0.374102235 C10.5563593,0.168947741 10.3985482,0.0663705021 10.2285128,0.0264591575 C10.0782132,-0.00881971791 9.92178684,-0.00881971791 9.77148724,0.0264591575 C9.60145178,0.0663705021 9.44364023,0.168947622 9.12801838,0.374101818 L0.728019476,5.8341012 C0.462013721,6.00700493 0.329010852,6.09345688 0.232647821,6.20877409 C0.147346653,6.31085362 0.0832700357,6.42892654 0.0441702493,6.55607891 C0,6.69972041 0,6.85835081 0,7.1756115 L0,12.4390163 C0,12.756277 0,12.9149074 0.0441702493,13.0585489 C0.0832700357,13.1857013 0.147346653,13.3037747 0.232647821,13.4058542 C0.329010852,13.5211714 0.462013453,13.6076228 0.728018641,13.7805262 L9.12801838,19.2405262 C9.44364068,19.4456807 9.60145178,19.5482578 9.77148724,19.5881691 C9.92178684,19.623448 10.0782132,19.623448 10.2285128,19.5881691 C10.3985482,19.5482578 10.5563598,19.4456804 10.8719816,19.2405262 L19.2719803,13.7805262 C19.537986,13.6076224 19.67099,13.5211714 19.7673531,13.4058542 C19.8526542,13.3037747 19.9167298,13.1857013 19.9558296,13.0585489 C20,12.9149074 20,12.756277 20,12.4390163 L20,7.1756115 C20,6.85835087 20,6.69972041 19.9558296,6.55607891 C19.9167298,6.42892654 19.8526542,6.31085362 19.7673531,6.20877409 C19.67099,6.09345688 19.5379874,6.00700505 19.2719822,5.83410168 L10.8719816,0.374102235 Z"></path>
                <path d="M19.0870266,13.6946764 C19.1911221,13.4469252 19.1911221,13.1677036 19.0870266,12.9199524 C18.9679108,12.6364565 18.6239872,12.4129057 17.9361382,11.9658041 L10,6.80731392 L2.06386328,11.9658031 C1.37601376,12.4129052 1.03208899,12.6364565 0.912973881,12.9199524 C0.808877505,13.1677036 0.808877505,13.4469252 0.912973881,13.6946764 M10,6.80731392 L10,0.307313919 M19.0870266,5.91995239 C19.1911221,6.16770345 19.1911221,6.44692534 19.0870266,6.6946764 C18.9679108,6.9781723 18.6239853,7.20172346 17.9361362,7.64882565 L10,12.8073149 L2.06386137,7.64882421 C1.37601388,7.20172334 1.03208894,6.97817218 0.912973881,6.6946764 C0.808877505,6.44692534 0.808877505,6.16770345 0.912973881,5.91995239 M10,19.3073139 L10,12.8073149"></path>
            </g>
        </g>
    </g>
</svg>