<?xml version="1.0" encoding="UTF-8"?>
<svg width="24px" height="24px" viewBox="0 0 24 24" version="1.1" xmlns="http://www.w3.org/2000/svg" xmlns:xlink="http://www.w3.org/1999/xlink">
    <title>colors</title>
    <g id="Line-icons" stroke="none" stroke-width="1" fill="none" fill-rule="evenodd" stroke-linecap="round" stroke-linejoin="round">
        <g id="Images" transform="translate(-64, -396)" fill-rule="nonzero" stroke="#000000" stroke-width="2">
            <g id="Icon" transform="translate(66, 398)">
                <path d="M10,12 C13.3137093,12 16,9.31370926 16,6 C16,2.68629146 13.3137093,0 10,0 C6.68629146,0 4,2.68629146 4,6 C4,9.31370926 6.68629146,12 10,12 Z"></path>
                <path d="M10,18.4722195 C11.0615071,19.4223032 12.4632876,20.0000114 14,20.0000114 C17.3137093,20.0000114 20,17.3137217 20,14.0000124 C20,11.2330759 18.1270642,8.9035874 15.5798206,8.21017456 M4.42017841,8.21016216 C1.87293482,8.90357506 0,11.2330635 0,14 C0,17.3137093 2.68629146,20.0000114 6,20.0000114 C9.31370926,20.0000114 12,17.3137093 12,14 C12,13.2195044 11.8509722,12.4738173 11.5798206,11.7898388"></path>
            </g>
        </g>
    </g>
</svg>