<?xml version="1.0" encoding="UTF-8"?>
<svg width="24px" height="24px" viewBox="0 0 24 24" version="1.1" xmlns="http://www.w3.org/2000/svg" xmlns:xlink="http://www.w3.org/1999/xlink">
    <title>columns-01</title>
    <g id="Line-icons" stroke="none" stroke-width="1" fill="none" fill-rule="evenodd" stroke-linecap="round" stroke-linejoin="round">
        <g id="Layout" transform="translate(-64, -636)" fill-rule="nonzero" stroke="#000000" stroke-width="2">
            <g id="Icon" transform="translate(67, 639)">
                <path d="M3.79999971,0 L3.20000005,0 C2.07989502,0 1.51984251,0 1.09201896,0.217986971 C0.715694845,0.409733713 0.409733713,0.715694845 0.217986971,1.09201896 C0,1.51984251 0,2.07989478 0,3.19999981 L0,14.8000002 C0,15.920105 0,16.4801579 0.217986971,16.90798 C0.409733713,17.2843056 0.715694845,17.5902653 1.09201896,17.7820129 C1.51984251,18 2.07989502,18 3.20000029,18 L3.79999995,18 C4.92010498,18 5.48015738,18 5.90798092,17.7820129 C6.2843051,17.5902653 6.59026623,17.2843056 6.78201294,16.90798 C7,16.4801579 7,15.920105 7,14.8000002 L7,3.20000005 C7,2.07989502 7,1.51984251 6.78201294,1.09201896 C6.59026623,0.715694845 6.2843051,0.409733713 5.90798092,0.217986971 C5.48015738,0 4.92010498,0 3.79999971,0 Z"></path>
                <path d="M14.7999992,0 L14.1999998,0 C13.0798948,0 12.5198426,0 12.0920191,0.217986971 C11.715695,0.409733713 11.4097338,0.715694845 11.2179871,1.09201896 C11,1.51984251 11,2.07989502 11,3.19999981 L11,14.8000002 C11,15.920105 11,16.4801579 11.2179871,16.9079819 C11.4097338,17.2843056 11.715695,17.5902672 12.0920191,17.7820129 C12.5198426,18 13.0798955,18 14.2000008,18 L14.8000002,18 C15.9201052,18 16.4801583,18 16.9079819,17.7820129 C17.284306,17.5902672 17.5902662,17.2843056 17.7820129,16.9079819 C18,16.4801579 18,15.920105 18,14.8000002 L18,3.20000005 C18,2.07989502 18,1.51984251 17.7820129,1.09201896 C17.5902662,0.715694845 17.284306,0.409733713 16.9079819,0.217986971 C16.4801583,0 15.9201045,0 14.7999992,0 Z"></path>
            </g>
        </g>
    </g>
</svg>