<?xml version="1.0" encoding="UTF-8"?>
<svg width="24px" height="24px" viewBox="0 0 24 24" version="1.1" xmlns="http://www.w3.org/2000/svg" xmlns:xlink="http://www.w3.org/1999/xlink">
    <title>command</title>
    <g id="Line-icons" stroke="none" stroke-width="1" fill="none" fill-rule="evenodd" stroke-linecap="round" stroke-linejoin="round">
        <g id="Editor" transform="translate(-64, -916)" fill-rule="nonzero" stroke="#000000" stroke-width="2">
            <g id="command" transform="translate(67, 919)">
                <path d="M6,3 C6,4.65685425 7.34314575,6 9,6 C10.6568542,6 12,4.65685425 12,3 L12,3 L12,3 C12,1.3431462 13.3431454,0 15,0 C16.6568546,0 18,1.34314585 18,3 C18,4.65685415 16.6568546,6 15,6 L13.3416408,9.31671843 C12.8836975,10.2326049 13.2549339,11.346314 14.1708204,11.8042572 C14.4282725,11.9329833 14.7121598,12 15,12 L15,12 L15,12 C16.6568546,12 18,13.3431454 18,15 C18,16.6568546 16.6568546,18 15,18 C13.3431454,18 12,16.6568546 12,15 L8.68328157,13.3416408 C7.76739507,12.8836975 6.653686,13.2549339 6.19574275,14.1708204 C6.06701669,14.4282725 6,14.7121598 6,15 L6,15 L6,15 C6,16.6568546 4.65685415,18 3,18 C1.34314585,18 0,16.6568546 0,15 C0,13.3431454 1.34314585,12 3,12 L3,6 C1.3431462,6 0,4.65685415 0,3 C0,1.34314585 1.34314585,0 3,0 C4.65685415,0 6,1.34314585 6,3 Z" id="Icon"></path>
            </g>
        </g>
    </g>
</svg>