<?xml version="1.0" encoding="UTF-8"?>
<svg width="24px" height="24px" viewBox="0 0 24 24" version="1.1" xmlns="http://www.w3.org/2000/svg" xmlns:xlink="http://www.w3.org/1999/xlink">
    <title>compass-03</title>
    <g id="Line-icons" stroke="none" stroke-width="1" fill="none" fill-rule="evenodd" stroke-linecap="round" stroke-linejoin="round">
        <g id="Maps-&amp;-travel" transform="translate(-64, -356)" fill-rule="nonzero" stroke="#000000" stroke-width="2">
            <g id="Icon" transform="translate(66, 358)">
                <path d="M10,20 C15.5228481,20 20,15.5228481 20,10 C20,4.47715235 15.5228481,0 10,0 C4.47715235,0 0,4.47715235 0,10 C0,15.5228481 4.47715235,20 10,20 Z"></path>
                <path d="M12.722106,6.26596498 C13.210654,6.10311565 13.4549274,6.02169078 13.6173697,6.07961702 C13.7587315,6.13002605 13.8699735,6.24126805 13.9203825,6.38262987 C13.9783087,6.54507217 13.8968846,6.78934607 13.7340355,7.27789354 L12.2464914,11.7405262 C12.2001115,11.8796661 12.1769216,11.9492362 12.1374006,12.0070114 C12.1023973,12.0581823 12.0581823,12.1023973 12.0070114,12.1374006 C11.9492362,12.1769216 11.8796659,12.2001115 11.7405262,12.2464914 L7.2778945,13.7340355 C6.78934646,13.8968848 6.54507217,13.9783087 6.38262987,13.9203825 C6.24126805,13.8699735 6.13002605,13.7587315 6.07961702,13.6173697 C6.02169078,13.4549274 6.10311535,13.2106544 6.26596451,12.7221069 L7.75350904,8.2594738 C7.79988902,8.12033387 7.82307887,8.05076379 7.86259985,7.99298859 C7.89760314,7.94181773 7.94181773,7.89760314 7.99298859,7.86259985 C8.05076379,7.82307887 8.12033412,7.79988894 8.2594738,7.75350904 L12.722106,6.26596498 Z"></path>
            </g>
        </g>
    </g>
</svg>