<?xml version="1.0" encoding="UTF-8"?>
<svg width="24px" height="24px" viewBox="0 0 24 24" version="1.1" xmlns="http://www.w3.org/2000/svg" xmlns:xlink="http://www.w3.org/1999/xlink">
    <title>contrast-03</title>
    <g id="Line-icons" stroke="none" stroke-width="1" fill="none" fill-rule="evenodd" stroke-linecap="round" stroke-linejoin="round">
        <g id="Editor" transform="translate(-64, -1036)" fill-rule="nonzero" stroke="#000000" stroke-width="2">
            <g id="Icon" transform="translate(66, 1038)">
                <path d="M10,20 C15.5228481,20 20,15.5228481 20,10 C20,4.47715235 15.5228481,0 10,0 C4.47715235,0 0,4.47715235 0,10 C0,15.5228481 4.47715235,20 10,20 Z"></path>
                <path d="M14,6.5 C14,10.6421356 10.6421356,14 6.5,14 C5.88533795,14 5.28794581,13.9260588 4.71623325,13.7865858 C5.89585328,15.4297018 7.82293558,16.5 10,16.5 C13.5898504,16.5 16.5,13.5898504 16.5,10 C16.5,7.82293558 15.4297018,5.89585328 13.7865858,4.71623325 C13.9260588,5.28794581 14,5.88533795 14,6.5 Z"></path>
            </g>
        </g>
    </g>
</svg>