<?xml version="1.0" encoding="UTF-8"?>
<svg width="24px" height="24px" viewBox="0 0 24 24" version="1.1" xmlns="http://www.w3.org/2000/svg" xmlns:xlink="http://www.w3.org/1999/xlink">
    <title>copy-02</title>
    <g id="Line-icons" stroke="none" stroke-width="1" fill="none" fill-rule="evenodd" stroke-linecap="round" stroke-linejoin="round">
        <g id="General" transform="translate(-64, -1516)" fill-rule="nonzero" stroke="#000000" stroke-width="2">
            <g id="Icon" transform="translate(66, 1518)">
                <path d="M6,9.19999981 C6,8.0798949 6,7.51984257 6.21798706,7.09201908 C6.4097338,6.71569493 6.71569493,6.4097338 7.09201908,6.21798706 C7.51984257,6 8.07989478,6 9.19999981,6 L16.7999992,6 C17.9201041,6 18.4801584,6 18.9079819,6.21798706 C19.284306,6.4097338 19.5902662,6.71569493 19.7820129,7.09201908 C20,7.51984257 20,8.07989478 20,9.19999981 L20,16.7999992 C20,17.9201041 20,18.4801584 19.7820129,18.9079819 C19.5902662,19.284306 19.284306,19.5902662 18.9079819,19.7820129 C18.4801584,20 17.9201043,20 16.7999992,20 L9.19999981,20 C8.0798949,20 7.51984257,20 7.09201908,19.7820129 C6.71569493,19.5902662 6.4097338,19.284306 6.21798706,18.9079819 C6,18.4801584 6,17.9201043 6,16.7999992 L6,9.19999981 Z"></path>
                <path d="M14,6 L14,3.20000005 C14,2.07989502 14,1.51984251 13.7820129,1.09201896 C13.5902662,0.715694845 13.2843056,0.409733713 12.9079809,0.217986971 C12.4801579,0 11.920105,0 10.8000002,0 L3.19999981,0 C2.07989502,0 1.51984251,0 1.09201896,0.217986971 C0.715694845,0.409733713 0.409733713,0.715694845 0.217986971,1.09201896 C0,1.51984251 0,2.07989502 0,3.20000005 L0,10.8000002 C0,11.920105 0,12.4801579 0.217986971,12.9079809 C0.409733713,13.2843056 0.715694845,13.5902662 1.09201896,13.7820129 C1.51984251,14 2.07989502,14 3.20000029,14 L6,14"></path>
            </g>
        </g>
    </g>
</svg>