<?xml version="1.0" encoding="UTF-8"?>
<svg width="24px" height="24px" viewBox="0 0 24 24" version="1.1" xmlns="http://www.w3.org/2000/svg" xmlns:xlink="http://www.w3.org/1999/xlink">
    <title>copy-06</title>
    <g id="Line-icons" stroke="none" stroke-width="1" fill="none" fill-rule="evenodd" stroke-linecap="round" stroke-linejoin="round">
        <g id="General" transform="translate(-64, -1676)" fill-rule="nonzero" stroke="#000000" stroke-width="2">
            <g id="Icon" transform="translate(67, 1679)">
                <path d="M0,6.69999981 C0,5.57989478 0,5.01984257 0.217986971,4.59201908 C0.409733713,4.21569493 0.715694815,3.9097338 1.09201896,3.71798706 C1.51984245,3.5 2.07989502,3.5 3.20000005,3.5 L11.3000002,3.5 C12.4201052,3.5 12.9801574,3.5 13.4079809,3.71798706 C13.7843051,3.9097338 14.0902662,4.21569493 14.2820129,4.59201908 C14.5,5.01984257 14.5,5.57989478 14.5,6.69999981 L14.5,14.8000002 C14.5,15.9201052 14.5,16.4801584 14.2820129,16.9079819 C14.0902662,17.284306 13.7843051,17.5902662 13.4079809,17.7820129 C12.9801574,18 12.4201052,18 11.3000002,18 L3.20000005,18 C2.07989502,18 1.51984245,18 1.09201896,17.7820129 C0.715694815,17.5902662 0.409733713,17.284306 0.217986971,16.9079819 C0,16.4801584 0,15.9201052 0,14.8000002 L0,6.69999981 Z"></path>
                <path d="M4.5,0 L11.6000004,0 C13.8402104,0 14.9603148,0 15.8159618,0.435973942 C16.5686102,0.819467425 17.1805325,1.43138969 17.5640259,2.18403792 C18,3.03968501 18,4.15979004 18,6.4000001 L18,13.5"></path>
            </g>
        </g>
    </g>
</svg>