<?xml version="1.0" encoding="UTF-8"?>
<svg width="24px" height="24px" viewBox="0 0 24 24" version="1.1" xmlns="http://www.w3.org/2000/svg" xmlns:xlink="http://www.w3.org/1999/xlink">
    <title>copy-05</title>
    <g id="Line-icons" stroke="none" stroke-width="1" fill="none" fill-rule="evenodd" stroke-linecap="round" stroke-linejoin="round">
        <g id="General" transform="translate(-64, -1636)" fill-rule="nonzero" stroke="#000000" stroke-width="2">
            <g id="Icon" transform="translate(66, 1638)">
                <path d="M0,3.19999981 C0,2.0798949 0,1.51984245 0.217986971,1.09201896 C0.409733713,0.715694815 0.715694815,0.409733713 1.09201896,0.217986971 C1.51984245,0 2.07989502,0 3.20000005,0 L10.8000002,0 C11.9201051,0 12.4801574,0 12.9079809,0.217986971 C13.2843051,0.409733713 13.5902662,0.715694815 13.7820129,1.09201896 C14,1.51984245 14,2.07989502 14,3.20000005 L14,10.8000002 C14,11.9201051 14,12.4801574 13.7820129,12.9079809 C13.5902662,13.2843051 13.2843051,13.5902662 12.9079809,13.7820129 C12.4801574,14 11.9201052,14 10.8000002,14 L3.19999981,14 C2.0798949,14 1.51984245,14 1.09201896,13.7820129 C0.715694815,13.5902662 0.409733713,13.2843051 0.217986971,12.9079809 C0,12.4801574 0,11.9201052 0,10.8000002 L0,3.19999981 Z"></path>
                <path d="M6,14 L6,16.7999992 C6,17.920104 6,18.4801588 6.21798706,18.9079819 C6.4097338,19.2843065 6.71569496,19.5902662 7.09201908,19.7820129 C7.51984262,20 8.07989478,20 9.19999981,20 L16.7999992,20 C17.920104,20 18.4801588,20 18.9079819,19.7820129 C19.2843065,19.5902662 19.5902662,19.2843065 19.7820129,18.9079819 C20,18.4801588 20,17.920104 20,16.7999992 L20,9.19999981 C20,8.07989502 20,7.51984262 19.7820129,7.09201908 C19.5902662,6.71569496 19.2843065,6.4097338 18.9079819,6.21798706 C18.4801588,6 17.920104,6 16.7999992,6 L14,6"></path>
            </g>
        </g>
    </g>
</svg>