<?xml version="1.0" encoding="UTF-8"?>
<svg width="24px" height="24px" viewBox="0 0 24 24" version="1.1" xmlns="http://www.w3.org/2000/svg" xmlns:xlink="http://www.w3.org/1999/xlink">
    <title>copy-04</title>
    <g id="Line-icons" stroke="none" stroke-width="1" fill="none" fill-rule="evenodd" stroke-linecap="round" stroke-linejoin="round">
        <g id="General" transform="translate(-64, -1596)" fill-rule="nonzero" stroke="#000000" stroke-width="2">
            <g id="Icon" transform="translate(66, 1598)">
                <path d="M6,3.19999981 C6,2.0798949 6,1.51984245 6.21798706,1.09201896 C6.4097338,0.715694815 6.71569493,0.409733713 7.09201908,0.217986971 C7.51984257,0 8.07989478,0 9.19999981,0 L16.7999992,0 C17.9201041,0 18.4801584,0 18.9079819,0.217986971 C19.284306,0.409733713 19.5902662,0.715694815 19.7820129,1.09201896 C20,1.51984245 20,2.07989502 20,3.20000005 L20,10.8000002 C20,11.9201051 20,12.4801574 19.7820129,12.9079809 C19.5902662,13.2843051 19.284306,13.5902662 18.9079819,13.7820129 C18.4801584,14 17.9201043,14 16.7999992,14 L9.19999981,14 C8.0798949,14 7.51984257,14 7.09201908,13.7820129 C6.71569493,13.5902662 6.4097338,13.2843051 6.21798706,12.9079809 C6,12.4801574 6,11.9201052 6,10.8000002 L6,3.19999981 Z"></path>
                <path d="M14,14 L14,16.7999992 C14,17.920104 14,18.4801588 13.7820129,18.9079819 C13.5902662,19.2843065 13.2843056,19.5902662 12.9079809,19.7820129 C12.4801579,20 11.920105,20 10.8000002,20 L3.19999981,20 C2.07989502,20 1.51984251,20 1.09201896,19.7820129 C0.715694845,19.5902662 0.409733713,19.2843065 0.217986971,18.9079819 C0,18.4801588 0,17.920104 0,16.7999992 L0,9.19999981 C0,8.07989502 0,7.51984262 0.217986971,7.09201908 C0.409733713,6.71569496 0.715694845,6.4097338 1.09201896,6.21798706 C1.51984251,6 2.07989502,6 3.20000029,6 L6,6"></path>
            </g>
        </g>
    </g>
</svg>