<?xml version="1.0" encoding="UTF-8"?>
<svg width="24px" height="24px" viewBox="0 0 24 24" version="1.1" xmlns="http://www.w3.org/2000/svg" xmlns:xlink="http://www.w3.org/1999/xlink">
    <title>copy-07</title>
    <g id="Line-icons" stroke="none" stroke-width="1" fill="none" fill-rule="evenodd" stroke-linecap="round" stroke-linejoin="round">
        <g id="General" transform="translate(-64, -1716)" fill-rule="nonzero" stroke="#000000" stroke-width="2">
            <g id="Icon" transform="translate(66, 1718)">
                <path d="M0,9.19999886 C0,8.07989395 0,7.51984257 0.217986971,7.09201908 C0.409733713,6.71569493 0.715694815,6.4097338 1.09201896,6.21798706 C1.51984245,6 2.07989502,6 3.20000005,6 L10.8000002,6 C11.9201051,6 12.4801574,6 12.9079809,6.21798706 C13.2843051,6.4097338 13.5902662,6.71569493 13.7820129,7.09201908 C14,7.51984257 14,8.07989383 14,9.19999886 L14,16.7999992 C14,17.9201041 14,18.4801584 13.7820129,18.9079819 C13.5902662,19.284306 13.2843051,19.5902662 12.9079809,19.7820129 C12.4801574,20 11.9201052,20 10.8000002,20 L3.19999981,20 C2.0798949,20 1.51984245,20 1.09201896,19.7820129 C0.715694815,19.5902662 0.409733713,19.284306 0.217986971,18.9079819 C0,18.4801584 0,17.9201043 0,16.7999992 L0,9.19999886 Z"></path>
                <path d="M8.5,0.00279569626 C7.82494938,0.011943832 7.41969904,0.0510255992 7.09201908,0.217986867 C6.71569496,0.409733608 6.4097338,0.715694726 6.21798706,1.09201884 C6.05102581,1.41969877 6.0119443,1.82494938 6.00279617,2.5 M17.5,0.00279569626 C18.1750512,0.011943832 18.5803023,0.0510255992 18.9079819,0.217986867 C19.2843065,0.409733608 19.5902662,0.715694726 19.7820129,1.09201884 C19.9489733,1.41969684 19.9880554,1.82494456 19.9972038,2.49998808 M19.9972038,11.4999886 C19.988056,12.1750461 19.9489752,12.5802985 19.7820129,12.90798 C19.5902662,13.2843046 19.2843065,13.5902662 18.9079819,13.7820129 C18.5803024,13.9489742 18.1750508,13.9880557 17.5,13.9972038 M20,8 L20,6 M12.0000525,0 L13.999959,0"></path>
            </g>
        </g>
    </g>
</svg>