<?xml version="1.0" encoding="UTF-8"?>
<svg width="24px" height="24px" viewBox="0 0 24 24" version="1.1" xmlns="http://www.w3.org/2000/svg" xmlns:xlink="http://www.w3.org/1999/xlink">
    <title>copy-01</title>
    <g id="Line-icons" stroke="none" stroke-width="1" fill="none" fill-rule="evenodd" stroke-linecap="round" stroke-linejoin="round">
        <g id="General" transform="translate(-64, -1476)" fill-rule="nonzero" stroke="#000000" stroke-width="2">
            <g id="Icon" transform="translate(66, 1478)">
                <path d="M7,10.1999998 C7,9.0798949 7,8.51984257 7.21798706,8.09201908 C7.4097338,7.71569493 7.71569493,7.4097338 8.09201908,7.21798706 C8.51984257,7 9.07989478,7 10.1999998,7 L16.7999992,7 C17.9201041,7 18.4801584,7 18.9079819,7.21798706 C19.284306,7.4097338 19.5902662,7.71569493 19.7820129,8.09201908 C20,8.51984257 20,9.07989478 20,10.1999998 L20,16.7999992 C20,17.9201041 20,18.4801584 19.7820129,18.9079819 C19.5902662,19.284306 19.284306,19.5902662 18.9079819,19.7820129 C18.4801584,20 17.9201043,20 16.7999992,20 L10.1999998,20 C9.0798949,20 8.51984257,20 8.09201908,19.7820129 C7.71569493,19.5902662 7.4097338,19.284306 7.21798706,18.9079819 C7,18.4801584 7,17.9201043 7,16.7999992 L7,10.1999998 Z"></path>
                <path d="M3,13 C2.0681169,13 1.60217524,13 1.23463309,12.8477592 C0.744576991,12.6447716 0.355228841,12.2554226 0.152240932,11.7653666 C0,11.3978243 0,10.9318829 0,10 L0,3.20000005 C0,2.07989502 0,1.51984251 0.217986971,1.09201896 C0.409733713,0.715694845 0.715694845,0.409733713 1.09201896,0.217986971 C1.51984251,0 2.07989502,0 3.19999981,0 L10,0 C10.9318829,0 11.3978243,0 11.7653666,0.152240932 C12.2554226,0.355228841 12.6447716,0.744576991 12.8477592,1.23463309 C13,1.60217524 13,2.0681169 13,3"></path>
            </g>
        </g>
    </g>
</svg>