<?xml version="1.0" encoding="UTF-8"?>
<svg width="24px" height="24px" viewBox="0 0 24 24" version="1.1" xmlns="http://www.w3.org/2000/svg" xmlns:xlink="http://www.w3.org/1999/xlink">
    <title>corner-right-up</title>
    <g id="Line-icons" stroke="none" stroke-width="1" fill="none" fill-rule="evenodd" stroke-linecap="round" stroke-linejoin="round">
        <g id="Arrows" transform="translate(-608, -876)" fill-rule="nonzero" stroke="#000000" stroke-width="2">
            <g id="Icon" transform="translate(611, 880)">
                <path d="M8,5 L8.18470781,4.81529219 C9.32766908,3.67233092 10.3350815,3.05874418 11.396236,2.73711206 C12.4573905,2.41547995 13.5426095,2.41547995 14.603764,2.73711206 C15.6649185,3.05874418 16.6723309,3.67233092 17.8152922,4.81529219 L18,5 L18,5"></path>
                <path d="M3.3999989,16 L3.3999989,16 L3.3999989,16 C6.76031446,16 8.44047165,16 9.72394276,15.3460388 C10.8529148,14.7707987 11.7707987,13.8529158 12.3460388,12.7239428 C13,11.4404726 13,9.76031494 13,6.39999962 C13,5.14506515 11.9826746,4.12773975 10.7277401,4.12773975 C10.0434978,4.12773975 9.39568564,4.43607921 8.96420744,4.9671293"></path>
            </g>
        </g>
    </g>
</svg>