<?xml version="1.0" encoding="UTF-8"?>
<svg width="24px" height="24px" viewBox="0 0 24 24" version="1.1" xmlns="http://www.w3.org/2000/svg" xmlns:xlink="http://www.w3.org/1999/xlink">
    <title>corner-up-right</title>
    <g id="Line-icons" stroke="none" stroke-width="1" fill="none" fill-rule="evenodd" stroke-linecap="round" stroke-linejoin="round">
        <g id="Arrows" transform="translate(-608, -956)" fill-rule="nonzero" stroke="#000000" stroke-width="2">
            <g id="Icon" transform="translate(612, 960)">
                <path d="M11,10 L11.1847078,9.81529219 C12.3276691,8.67233092 12.9412558,7.66491846 13.2628879,6.60376398 C13.5845201,5.54260951 13.5845201,4.45739049 13.2628879,3.39623602 C12.9412558,2.33508154 12.3276691,1.32766908 11.1847078,0.184707806 L11,0 L11,0"></path>
                <path d="M0,14.6000004 L0,14.6000004 L0,14.6000004 C0,11.2396851 0,9.55952764 0.653960884,8.27605724 C1.22920108,7.14708471 2.14708447,6.2292009 3.276057,5.6539607 C4.5595274,5 6.23968506,5 9.60000038,5 C10.697818,5 11.587775,5.88995701 11.587775,6.98777462 C11.587775,7.64234223 11.2655231,8.25495283 10.726132,8.62578425"></path>
            </g>
        </g>
    </g>
</svg>