<?xml version="1.0" encoding="UTF-8"?>
<svg width="24px" height="24px" viewBox="0 0 24 24" version="1.1" xmlns="http://www.w3.org/2000/svg" xmlns:xlink="http://www.w3.org/1999/xlink">
    <title>cpu-chip-02</title>
    <g id="Line-icons" stroke="none" stroke-width="1" fill="none" fill-rule="evenodd" stroke-linecap="round" stroke-linejoin="round">
        <g id="Development" transform="translate(-336, -316)" fill-rule="nonzero" stroke="#000000" stroke-width="2">
            <g id="Icon" transform="translate(338, 318)">
                <path d="M3,7.80000067 C3,6.11984277 3,5.27976388 3.32698035,4.63802862 C3.61460045,4.07354242 4.07354242,3.61460045 4.63802862,3.32698035 C5.27976388,3 6.11984253,3 7.80000019,3 L12.1999998,3 C13.8801577,3 14.7202366,3 15.3619719,3.32698035 C15.9264581,3.61460045 16.3853993,4.07354242 16.6730194,4.63802862 C17,5.27976388 17,6.11984253 17,7.80000019 L17,12.1999998 C17,13.8801577 17,14.7202366 16.6730194,15.3619719 C16.3853993,15.9264581 15.9264581,16.3853993 15.3619719,16.6730194 C14.7202366,17 13.8801575,17 12.1999998,17 L7.80000067,17 C6.11984277,17 5.27976388,17 4.63802862,16.6730194 C4.07354242,16.3853993 3.61460045,15.9264581 3.32698035,15.3619719 C3,14.7202366 3,13.8801575 3,12.1999998 L3,7.80000067 Z"></path>
                <path d="M7,3 L7,0 M13,3 L13,0 M7,20 L7,17 M13,20 L13,17 M20,7 L17,7 M20,12 L17,12 M3,7 L0,7 M0,12 L3,12"></path>
            </g>
        </g>
    </g>
</svg>