<?xml version="1.0" encoding="UTF-8"?>
<svg width="24px" height="24px" viewBox="0 0 24 24" version="1.1" xmlns="http://www.w3.org/2000/svg" xmlns:xlink="http://www.w3.org/1999/xlink">
    <title>cpu-chip-01</title>
    <g id="Line-icons" stroke="none" stroke-width="1" fill="none" fill-rule="evenodd" stroke-linecap="round" stroke-linejoin="round">
        <g id="Development" transform="translate(-336, -276)" fill-rule="nonzero" stroke="#000000" stroke-width="2">
            <g id="Icon" transform="translate(338, 278)">
                <path d="M2,6.80000019 C2,5.11984253 2,4.27976364 2.32698035,3.63802838 C2.61460045,3.07354218 3.07354218,2.61460045 3.63802838,2.32698035 C4.27976364,2 5.11984253,2 6.80000019,2 L13.1999998,2 C14.8801575,2 15.7202356,2 16.3619709,2.32698035 C16.9264571,2.61460045 17.3853993,3.07354218 17.6730194,3.63802838 C18,4.27976364 18,5.11984253 18,6.80000019 L18,13.1999998 C18,14.8801575 18,15.7202356 17.6730194,16.3619709 C17.3853993,16.9264571 16.9264571,17.3853993 16.3619709,17.6730194 C15.7202356,18 14.8801575,18 13.1999998,18 L6.80000019,18 C5.11984253,18 4.27976364,18 3.63802838,17.6730194 C3.07354218,17.3853993 2.61460045,16.9264571 2.32698035,16.3619709 C2,15.7202356 2,14.8801575 2,13.1999998 L2,6.80000019 Z"></path>
                <path d="M7,8.60000038 C7,8.03994793 7,7.75992128 7.10899353,7.54600954 C7.2048669,7.35784747 7.35784747,7.2048669 7.54600954,7.10899353 C7.75992128,7 8.03994781,7 8.60000038,7 L11.3999996,7 C11.9600521,7 12.2400792,7 12.4539909,7.10899353 C12.642153,7.2048669 12.7951331,7.35784747 12.8910065,7.54600954 C13,7.75992128 13,8.03994781 13,8.60000038 L13,11.3999996 C13,11.9600521 13,12.2400792 12.8910065,12.4539909 C12.7951331,12.642153 12.642153,12.7951331 12.4539909,12.8910065 C12.2400792,13 11.9600522,13 11.3999996,13 L8.60000038,13 C8.03994793,13 7.75992128,13 7.54600954,12.8910065 C7.35784747,12.7951331 7.2048669,12.642153 7.10899353,12.4539909 C7,12.2400792 7,11.9600522 7,11.3999996 L7,8.60000038 Z"></path>
                <path d="M7,2 L7,0 M13,2 L13,0 M7,20 L7,18 M13,20 L13,18 M20,7 L18,7 M20,12 L18,12 M2,7 L0,7 M0,12 L2,12"></path>
            </g>
        </g>
    </g>
</svg>