<?xml version="1.0" encoding="UTF-8"?>
<svg width="24px" height="24px" viewBox="0 0 24 24" version="1.1" xmlns="http://www.w3.org/2000/svg" xmlns:xlink="http://www.w3.org/1999/xlink">
    <title>crop-02</title>
    <g id="Line-icons" stroke="none" stroke-width="1" fill="none" fill-rule="evenodd" stroke-linecap="round" stroke-linejoin="round">
        <g id="Editor" transform="translate(-64, -1116)" fill-rule="nonzero" stroke="#000000" stroke-width="2">
            <g id="crop-02" transform="translate(66, 1118)">
                <path d="M12.8000002,4 L12.8000002,4 L12.8000002,4 C13.920105,4 14.4801574,4 14.9079809,4.21798563 C15.2843051,4.40973237 15.5902662,4.71569353 15.7820129,5.09201765 C16,5.51984119 16,6.07989383 16,7.19999886 C16,8.29806552 15.1098411,9.18822443 14.0117744,9.18822443 C13.4844642,9.18822443 12.9787513,8.97875126 12.6058866,8.60588664 M4,4 L0,4 M16,20 L16,16 M20,16 L7.19999981,16 C6.07989478,16 5.51984262,16 5.09201908,15.7820129 C4.71569496,15.5902662 4.40973382,15.2843056 4.21798706,14.9079809 C4,14.4801579 4,13.920105 4,12.8000002 L4,0" id="Icon"></path>
            </g>
        </g>
    </g>
</svg>