<?xml version="1.0" encoding="UTF-8"?>
<svg width="24px" height="24px" viewBox="0 0 24 24" version="1.1" xmlns="http://www.w3.org/2000/svg" xmlns:xlink="http://www.w3.org/1999/xlink">
    <title>crop-01</title>
    <g id="Line-icons" stroke="none" stroke-width="1" fill="none" fill-rule="evenodd" stroke-linecap="round" stroke-linejoin="round">
        <g id="Editor" transform="translate(-64, -1076)" fill-rule="nonzero" stroke="#000000" stroke-width="2">
            <g id="crop-01" transform="translate(70, 1078)">
                <path d="M0.828427125,4 L8.80000019,4 L8.80000019,4 C9.92010498,4 10.4801579,4 10.9079809,4.21798563 C11.2843056,4.40973237 11.5902662,4.71569353 11.7820129,5.09201765 C12,5.51984119 12,6.07989383 12,7.19999886 L12,15.1715729 C12,16.2761424 11.1045695,17.1715729 10,17.1715729 C9.46956702,17.1715729 8.96085919,16.9608592 8.58578644,16.5857864 M16,16 L3.19999981,16 C2.07989478,16 1.51984262,16 1.09201908,15.7820129 C0.715694964,15.5902662 0.409733817,15.2843056 0.217987061,14.9079809 C0,14.4801579 0,13.920105 0,12.8000002 L0,0" id="Icon"></path>
            </g>
        </g>
    </g>
</svg>