<?xml version="1.0" encoding="UTF-8"?>
<svg width="24px" height="24px" viewBox="0 0 24 24" version="1.1" xmlns="http://www.w3.org/2000/svg" xmlns:xlink="http://www.w3.org/1999/xlink">
    <title>cube-04</title>
    <g id="Line-icons" stroke="none" stroke-width="1" fill="none" fill-rule="evenodd" stroke-linecap="round" stroke-linejoin="round">
        <g id="Shapes" transform="translate(-64, -316)" fill-rule="nonzero" stroke="#000000" stroke-width="2">
            <g id="Icon" transform="translate(67, 319)">
                <path d="M0,5.66274214 C0,5.41815133 0,5.29585558 0.0276300814,5.18076801 C0.0521268118,5.07873179 0.0925311334,4.98118736 0.147359833,4.89171505 C0.209201615,4.79079843 0.295677453,4.70432234 0.468629152,4.53137064 L4.53137112,0.468628705 C4.70432252,0.295677304 4.79079843,0.209201615 4.89171505,0.147359833 C4.98118736,0.0925311334 5.07873179,0.0521268118 5.18076801,0.0276300814 C5.29585558,0 5.41815102,0 5.66274166,0 L17.2000008,0 C17.480027,0 17.6200396,0 17.7269955,0.0544967428 C17.8210765,0.102433428 17.8975665,0.178923704 17.9455032,0.27300474 C18,0.379960611 18,0.519973755 18,0.800000012 L18,12.3372583 C18,12.5818491 18,12.7041444 17.9723701,12.819232 C17.9478734,12.9212682 17.9074689,13.0188126 17.8526402,13.108285 C17.7907984,13.2092016 17.7043219,13.2956772 17.5313702,13.4686289 L13.4686289,17.5313721 C13.2956775,17.7043235 13.2092016,17.7907984 13.108285,17.8526402 C13.0188126,17.9074689 12.9212682,17.9478734 12.819232,17.9723701 C12.7041444,18 12.581849,18 12.3372583,18 L0.799999952,18 C0.519973725,18 0.379960611,18 0.27300474,17.9455032 C0.178923704,17.8975665 0.102433428,17.8210765 0.0544967428,17.7269955 C0,17.6200396 0,17.480027 0,17.2000008 L0,5.66274214 Z"></path>
                <path d="M15.0857864,13 L5,13 L5,13 L5,2.91421356 C5,2.36192881 5.44771525,1.91421356 6,1.91421356 C6.26521649,1.91421356 6.5195704,2.0195704 6.70710678,2.20710678 M5,13 L0.5,17.5 M2.91421356,5 L13,5 L13,5 L13,15.0857864 C13,15.6380712 12.5522847,16.0857864 12,16.0857864 C11.7347835,16.0857864 11.4804296,15.9804296 11.2928932,15.7928932 M13,5 L17.5,0.5"></path>
            </g>
        </g>
    </g>
</svg>