<?xml version="1.0" encoding="UTF-8"?>
<svg width="24px" height="24px" viewBox="0 0 24 24" version="1.1" xmlns="http://www.w3.org/2000/svg" xmlns:xlink="http://www.w3.org/1999/xlink">
    <title>cube-outline</title>
    <g id="Line-icons" stroke="none" stroke-width="1" fill="none" fill-rule="evenodd" stroke-linecap="round" stroke-linejoin="round">
        <g id="Shapes" transform="translate(-64, -356)" fill-rule="nonzero" stroke="#000000" stroke-width="2">
            <g id="cube-outline" transform="translate(67, 358.144)">
                <path d="M8.22297287,19.4243584 L8.22297287,19.4243584 L8.22297287,19.4243584 C8.50657749,19.5819168 8.64837933,19.660696 8.79855061,19.6915798 C8.93146038,19.7189159 9.06854343,19.7189159 9.20145321,19.6915798 C9.35162449,19.660696 9.49342632,19.5819168 9.77703094,19.4243584 C9.98782986,19.3072478 10.0637793,19.0414247 9.94666876,18.8306258 C9.86966012,18.6920103 9.723554,18.606041 9.56498356,18.606041 M0.822971642,15.3132477 L0.822971642,15.3132477 L0.822971642,15.3132477 C0.523457289,15.1468515 0.373683721,15.0636425 0.264633179,14.9453068 C0.168157667,14.8406172 0.0951472968,14.7165356 0.0504848026,14.5813589 C0,14.4285603 0,14.2572384 0,13.9145956 C-2.91978346e-17,13.6761772 0.193276312,13.4829009 0.431694725,13.4829009 C0.583333031,13.4829009 0.7238526,13.5624617 0.801869877,13.6924905 M0,5.79748869 L0,5.79748869 L0,5.79748869 C0,5.45484543 0,5.28352404 0.0504847877,5.13072586 C0.0951472595,4.9955492 0.168157622,4.87146711 0.264633119,4.76677752 C0.373684973,4.64844084 0.52344954,4.56523895 0.822971284,4.39883709 C1.0340137,4.28159127 1.3001439,4.35762843 1.41738972,4.56867085 C1.49325879,4.70523513 1.4904817,4.87190722 1.41010513,5.00586814 M8.22297287,0.287724018 L8.22297287,0.287724018 L8.22297287,0.287724018 C8.50657749,0.130165905 8.64837933,0.0513868425 8.79855061,0.0205014888 C8.93146038,-0.00683382712 9.06854343,-0.00683382712 9.20145321,0.0205014739 C9.35162449,0.0513868127 9.49342632,0.130165786 9.77703094,0.28772375 C9.98782991,0.404834323 10.0637794,0.670657528 9.94666879,0.881456497 C9.86966015,1.02007202 9.72355401,1.10604135 9.56498354,1.10604137 M17.1770306,4.39883471 L17.1770306,4.39883471 L17.1770306,4.39883471 C17.4765549,4.56523705 17.6263161,4.64843845 17.7353687,4.76677561 C17.8318443,4.87146521 17.9048538,4.99554729 17.9495163,5.13072395 C18,5.28352213 18,5.45484352 18,5.79748678 C18,6.03590493 17.8067239,6.22918103 17.5683058,6.22918103 C17.4166676,6.22918103 17.2761481,6.14962023 17.1981309,6.01959152 M18,13.9145956 L18,13.9145956 L18,13.9145956 C18,14.2572384 18,14.4285603 17.9495163,14.5813589 C17.9048538,14.7165356 17.8318443,14.8406172 17.7353687,14.9453068 C17.6263161,15.0636444 17.4765549,15.1468449 17.1770306,15.3132477 C16.9659879,15.4304936 16.6998574,15.3544562 16.5826115,15.1434135 C16.5067425,15.0068492 16.5095196,14.8401771 16.5898961,14.7062161 M6.75,8.60604095 L9,9.85604095 L11.25,8.60604095 M9,12.356041 L9,9.85604095 M2.25,6.10604095 L0,4.85604095 M18,4.85604095 L15.75,6.10604095 M9,17.356041 L9,19.856041" id="Icon"></path>
            </g>
        </g>
    </g>
</svg>