<?xml version="1.0" encoding="UTF-8"?>
<svg width="24px" height="24px" viewBox="0 0 24 24" version="1.1" xmlns="http://www.w3.org/2000/svg" xmlns:xlink="http://www.w3.org/1999/xlink">
    <title>database-01</title>
    <g id="Line-icons" stroke="none" stroke-width="1" fill="none" fill-rule="evenodd" stroke-linecap="round" stroke-linejoin="round">
        <g id="Development" transform="translate(-336, -396)" fill-rule="nonzero" stroke="#000000" stroke-width="2">
            <g id="Icon" transform="translate(339, 398)">
                <path d="M9,6 C13.9705629,6 18,4.65685415 18,3 C18,1.34314573 13.9705629,0 9,0 C4.02943707,0 0,1.34314573 0,3 C0,4.65685415 4.02943707,6 9,6 Z"></path>
                <path d="M18,10 C18,11.66 14,13 9,13 C4,13 0,11.66 0,10"></path>
                <path d="M0,3 L0,17 C0,18.66 4,20 9,20 C14,20 18,18.66 18,17 L18,3"></path>
            </g>
        </g>
    </g>
</svg>