<?xml version="1.0" encoding="UTF-8"?>
<svg width="24px" height="24px" viewBox="0 0 24 24" version="1.1" xmlns="http://www.w3.org/2000/svg" xmlns:xlink="http://www.w3.org/1999/xlink">
    <title>dataflow-03</title>
    <g id="Line-icons" stroke="none" stroke-width="1" fill="none" fill-rule="evenodd" stroke-linecap="round" stroke-linejoin="round">
        <g id="Development" transform="translate(-336, -596)" fill-rule="nonzero" stroke="#000000" stroke-width="2">
            <g id="Icon" transform="translate(338, 598)">
                <path d="M7.5,8.30000019 C7.5,8.01997384 7.5,7.8799604 7.55449677,7.77300453 C7.60243345,7.6789235 7.6789235,7.60243345 7.77300453,7.55449677 C7.8799604,7.5 8.01997393,7.5 8.30000019,7.5 L11.6999998,7.5 C11.9800262,7.5 12.1200396,7.5 12.2269955,7.55449677 C12.3210765,7.60243345 12.3975665,7.6789235 12.4455032,7.77300453 C12.5,7.8799604 12.5,8.01997393 12.5,8.30000019 L12.5,11.6999998 C12.5,11.9800262 12.5,12.1200396 12.4455032,12.2269955 C12.3975665,12.3210765 12.3210765,12.3975665 12.2269955,12.4455032 C12.1200396,12.5 11.9800261,12.5 11.6999998,12.5 L8.30000019,12.5 C8.01997384,12.5 7.8799604,12.5 7.77300453,12.4455032 C7.6789235,12.3975665 7.60243345,12.3210765 7.55449677,12.2269955 C7.5,12.1200396 7.5,11.9800261 7.5,11.6999998 L7.5,8.30000019 Z"></path>
                <path d="M15,15.8000002 C15,15.5199738 15,15.3799604 15.0544968,15.2730045 C15.1024335,15.1789235 15.1789235,15.1024335 15.2730045,15.0544968 C15.3799604,15 15.5199739,15 15.8000002,15 L19.2000008,15 C19.4800271,15 19.6200396,15 19.7269955,15.0544968 C19.8210765,15.1024335 19.8975665,15.1789235 19.9455032,15.2730045 C20,15.3799604 20,15.5199739 20,15.8000002 L20,19.2000008 C20,19.4800271 20,19.6200396 19.9455032,19.7269955 C19.8975665,19.8210765 19.8210765,19.8975665 19.7269955,19.9455032 C19.6200396,20 19.480027,20 19.2000008,20 L15.8000002,20 C15.5199738,20 15.3799604,20 15.2730045,19.9455032 C15.1789235,19.8975665 15.1024335,19.8210765 15.0544968,19.7269955 C15,19.6200396 15,19.480027 15,19.2000008 L15,15.8000002 Z"></path>
                <path d="M0,0.800000131 C0,0.519973785 0,0.379960611 0.0544967428,0.27300474 C0.102433428,0.178923704 0.178923704,0.102433428 0.27300474,0.0544967428 C0.379960611,0 0.519973695,0 0.799999952,0 L4.19999981,0 C4.48002616,0 4.6200396,0 4.72699547,0.0544967428 C4.8210765,0.102433428 4.89756655,0.178923704 4.94550323,0.27300474 C5,0.379960611 5,0.519973695 5,0.799999952 L5,4.19999981 C5,4.48002616 5,4.6200396 4.94550323,4.72699547 C4.89756655,4.8210765 4.8210765,4.89756655 4.72699547,4.94550323 C4.6200396,5 4.48002607,5 4.19999981,5 L0.800000131,5 C0.519973785,5 0.379960611,5 0.27300474,4.94550323 C0.178923704,4.89756655 0.102433428,4.8210765 0.0544967428,4.72699547 C0,4.6200396 0,4.48002607 0,4.19999981 L0,0.800000131 Z"></path>
                <path d="M13.8284271,2.5 L16.2999992,2.5 L16.2999992,2.5 C17.420104,2.5 17.9801588,2.5 18.4079819,2.71798706 C18.7843065,2.9097338 19.0902662,3.21569496 19.2820129,3.59201908 C19.5,4.01984262 19.5,4.57989478 19.5,5.69999981 L19.5,7 C19.5,7.93188334 19.5,8.39782524 19.3477592,8.76536751 C19.1447716,9.25542355 18.7554216,9.6447711 18.2653656,9.84775925 C17.8978233,10 17.4318829,10 16.5,10 M6.17157288,17.5 L3.70000005,17.5 L3.70000005,17.5 C2.57989502,17.5 2.01984251,17.5 1.59201896,17.2820129 C1.21569484,17.0902662 0.909733683,16.784306 0.717986941,16.4079819 C0.5,15.9801583 0.5,15.420105 0.5,14.3000002 L0.5,13 C0.5,12.0681169 0.5,11.6021756 0.652240932,11.2346334 C0.855228841,10.7445773 1.24457699,10.3552287 1.73463309,10.1522408 C2.10217524,10 2.5681169,10 3.5,10"></path>
            </g>
        </g>
    </g>
</svg>