<?xml version="1.0" encoding="UTF-8"?>
<svg width="24px" height="24px" viewBox="0 0 24 24" version="1.1" xmlns="http://www.w3.org/2000/svg" xmlns:xlink="http://www.w3.org/1999/xlink">
    <title>database-03</title>
    <g id="Line-icons" stroke="none" stroke-width="1" fill="none" fill-rule="evenodd" stroke-linecap="round" stroke-linejoin="round">
        <g id="Development" transform="translate(-336, -476)" fill-rule="nonzero" stroke="#000000" stroke-width="2">
            <g id="Icon" transform="translate(339, 478)">
                <path d="M9,20 C10.1045697,20 11,19.1045697 11,18 C11,16.8954306 10.1045697,16 9,16 C7.89543056,16 7,16.8954306 7,18 C7,19.1045697 7.89543056,20 9,20 Z"></path>
                <path d="M9,6 C13.9705629,6 18,4.65685415 18,3 C18,1.34314573 13.9705629,0 9,0 C4.02943707,0 0,1.34314573 0,3 C0,4.65685415 4.02943707,6 9,6 Z"></path>
                <path d="M0,3 L0,9 C0,10.66 4,12 9,12 C14,12 18,10.66 18,9 L18,3"></path>
                <path d="M0,18 L7,18 M11,18 L18,18 M9,12 L9,16 L9,16"></path>
            </g>
        </g>
    </g>
</svg>