<?xml version="1.0" encoding="UTF-8"?>
<svg width="24px" height="24px" viewBox="0 0 24 24" version="1.1" xmlns="http://www.w3.org/2000/svg" xmlns:xlink="http://www.w3.org/1999/xlink">
    <title>dataflow-04</title>
    <g id="Line-icons" stroke="none" stroke-width="1" fill="none" fill-rule="evenodd" stroke-linecap="round" stroke-linejoin="round">
        <g id="Development" transform="translate(-336, -636)" fill-rule="nonzero" stroke="#000000" stroke-width="2">
            <g id="Icon" transform="translate(338, 638)">
                <path d="M2,20 C3.10456967,20 4,19.1045697 4,18 C4,16.8954306 3.10456967,16 2,16 C0.895430565,16 0,16.8954306 0,18 C0,19.1045697 0.895430565,20 2,20 Z"></path>
                <path d="M18,20 C19.1045697,20 20,19.1045697 20,18 C20,16.8954306 19.1045697,16 18,16 C16.8954306,16 16,16.8954306 16,18 C16,19.1045697 16.8954306,20 18,20 Z"></path>
                <path d="M10,20 C11.1045697,20 12,19.1045697 12,18 C12,16.8954306 11.1045697,16 10,16 C8.89543056,16 8,16.8954306 8,18 C8,19.1045697 8.89543056,20 10,20 Z"></path>
                <path d="M1,3 C1,2.06811684 1,1.60217521 1.15224099,1.23463309 C1.3552289,0.744576931 1.74457705,0.355228841 2.23463321,0.152240932 C2.60217533,0 3.06811678,0 4,0 L16,0 C16.9318834,0 17.3978254,0 17.7653675,0.152240932 C18.2554237,0.355228841 18.6447713,0.744576931 18.8477592,1.23463309 C19,1.60217521 19,2.06811684 19,3 C19,3.93188316 19,4.39782491 18.8477592,4.76536703 C18.6447713,5.25542319 18.2554237,5.64477134 17.7653675,5.84775925 C17.3978254,6 16.9318832,6 16,6 L4,6 C3.06811708,6 2.60217533,6 2.23463321,5.84775925 C1.74457705,5.64477134 1.3552289,5.25542319 1.15224099,4.76536703 C1,4.39782491 1,3.93188316 1,3 Z"></path>
                <path d="M2,15.8000002 L2,15.8000002 L2,15.8000002 C2,14.1198425 2,13.2797633 2.32698035,12.6380281 C2.61460045,12.0735419 3.07354236,11.6146007 3.63802862,11.3269806 C4.27976382,11 5.11984253,11 6.80000019,11 L13.1999998,11 C14.8801575,11 15.7202377,11 16.3619728,11.3269806 C16.9264584,11.6146007 17.3853998,12.0735419 17.6730194,12.6380281 C18,13.2797633 18,14.1198425 18,15.8000002 C18,15.910457 17.910457,16 17.8000002,16 M10,16 L10,6"></path>
            </g>
        </g>
    </g>
</svg>