<?xml version="1.0" encoding="UTF-8"?>
<svg width="24px" height="24px" viewBox="0 0 24 24" version="1.1" xmlns="http://www.w3.org/2000/svg" xmlns:xlink="http://www.w3.org/1999/xlink">
    <title>dataflow-01</title>
    <g id="Line-icons" stroke="none" stroke-width="1" fill="none" fill-rule="evenodd" stroke-linecap="round" stroke-linejoin="round">
        <g id="Development" transform="translate(-336, -516)" fill-rule="nonzero" stroke="#000000" stroke-width="2">
            <g id="Icon" transform="translate(339, 518)">
                <path d="M16,12 C17.1045697,12 18,11.1045697 18,10 C18,8.89543056 17.1045697,8 16,8 C14.8954306,8 14,8.89542961 14,10 C14,11.1045687 14.8954306,12 16,12 Z"></path>
                <path d="M2,12 C3.10456967,12 4,11.1045697 4,10 C4,8.89543056 3.10456967,8 2,8 C0.895430565,8 0,8.89543056 0,10 C0,11.1045697 0.895430565,12 2,12 Z"></path>
                <path d="M16,4 C17.1045697,4 18,3.10456967 18,2 C18,0.895430565 17.1045697,0 16,0 C14.8954306,0 14,0.895430565 14,2 C14,3.10456967 14.8954306,4 16,4 Z"></path>
                <path d="M16,20 C17.1045697,20 18,19.1045697 18,18 C18,16.8954306 17.1045697,16 16,16 C14.8954306,16 14,16.8954306 14,18 C14,19.1045697 14.8954306,20 16,20 Z"></path>
                <path d="M13.8000002,18 L13.8000002,18 L13.8000002,18 C12.1198425,18 11.2797633,18 10.6380281,17.6730194 C10.0735419,17.3853989 9.61460069,16.9264584 9.32698059,16.3619728 C9,15.7202368 9,14.8801584 9,13.2000008 L9,6.80000067 C9,5.11984253 9,4.27976382 9.32698059,3.63802862 C9.61460069,3.07354236 10.0735419,2.61460045 10.6380281,2.32698035 C11.2797633,2 12.1198425,2 13.8000002,2 C13.910457,2 14,2.08954296 14,2.19999981 M4,10 L14,10"></path>
            </g>
        </g>
    </g>
</svg>