<?xml version="1.0" encoding="UTF-8"?>
<svg width="24px" height="24px" viewBox="0 0 24 24" version="1.1" xmlns="http://www.w3.org/2000/svg" xmlns:xlink="http://www.w3.org/1999/xlink">
    <title>dataflow-02</title>
    <g id="Line-icons" stroke="none" stroke-width="1" fill="none" fill-rule="evenodd" stroke-linecap="round" stroke-linejoin="round">
        <g id="Development" transform="translate(-336, -556)" fill-rule="nonzero" stroke="#000000" stroke-width="2">
            <g id="Icon" transform="translate(339, 558)">
                <path d="M16,12 C17.1045697,12 18,11.1045697 18,10 C18,8.89543056 17.1045697,8 16,8 C14.8954306,8 14,8.89543056 14,10 C14,11.1045697 14.8954306,12 16,12 Z"></path>
                <path d="M2,4 C3.10456967,4 4,3.10456967 4,2 C4,0.895430565 3.10456967,0 2,0 C0.895430565,0 0,0.895430565 0,2 C0,3.10456967 0.895430565,4 2,4 Z"></path>
                <path d="M16,4 C17.1045697,4 18,3.10456967 18,2 C18,0.895430565 17.1045697,0 16,0 C14.8954306,0 14,0.89542973 14,2 C14,3.10456884 14.8954306,4 16,4 Z"></path>
                <path d="M16,20 C17.1045697,20 18,19.1045697 18,18 C18,16.8954306 17.1045697,16 16,16 C14.8954306,16 14,16.8954306 14,18 C14,19.1045697 14.8954306,20 16,20 Z"></path>
                <path d="M9,10.3815273 L9,13.1999998 L9,13.1999998 C9,14.8801575 9,15.7202377 9.32698059,16.3619728 C9.61460069,16.9264584 10.0735419,17.3853998 10.6380281,17.6730194 C11.2797633,18 12.1198425,18 13.8000002,18 C13.8812071,18 13.9470382,17.9341688 13.9470382,17.852962 C13.9470382,17.8380883 13.9447815,17.8233008 13.9403451,17.8091042 M14,2 L4,2 M9,10 L14,10"></path>
            </g>
        </g>
    </g>
</svg>