<?xml version="1.0" encoding="UTF-8"?>
<svg width="24px" height="24px" viewBox="0 0 24 24" version="1.1" xmlns="http://www.w3.org/2000/svg" xmlns:xlink="http://www.w3.org/1999/xlink">
    <title>data</title>
    <g id="Line-icons" stroke="none" stroke-width="1" fill="none" fill-rule="evenodd" stroke-linecap="round" stroke-linejoin="round">
        <g id="Development" transform="translate(-336, -356)" fill-rule="nonzero" stroke="#000000" stroke-width="2">
            <g id="Icon" transform="translate(338, 358)">
                <path d="M19.2000008,20 C19.480027,20 19.6200396,20 19.7269955,19.9455032 C19.8210765,19.8975666 19.8975665,19.8210765 19.9455032,19.7269955 C20,19.6200396 20,19.4800269 20,19.2000008 L20,8.80000114 C20,8.51997489 20,8.3799623 19.9455032,8.27300644 C19.8975666,8.17892541 19.8210765,8.10243537 19.7269955,8.05449867 C19.6200396,8 19.480027,8 19.2000008,8 L16.7999992,8 C16.519973,8 16.3799604,8 16.2730045,8.05449772 C16.1789235,8.1024344 16.1024335,8.17892443 16.0544968,8.27300549 C16,8.37996137 16,8.51997492 16,8.80000114 L16,11.1999998 C16,11.480026 16,11.6200396 15.9455032,11.7269955 C15.8975665,11.8210765 15.8210765,11.8975665 15.7269955,11.9455032 C15.6200396,12 15.480026,12 15.1999998,12 L12.8000002,12 C12.5199739,12 12.3799604,12 12.2730045,12.0544968 C12.1789235,12.1024335 12.1024335,12.1789235 12.0544968,12.2730045 C12,12.3799604 12,12.519974 12,12.8000002 L12,15.1999998 C12,15.4800261 12,15.6200396 11.9455032,15.7269955 C11.8975665,15.8210765 11.8210765,15.8975665 11.7269955,15.9455032 C11.6200396,16 11.480026,16 11.1999998,16 L8.80000019,16 C8.51997393,16 8.3799604,16 8.27300453,16.0544968 C8.1789235,16.1024335 8.10243345,16.1789235 8.05449677,16.2730045 C8,16.3799604 8,16.5199733 8,16.7999992 L8,19.1999989 C8,19.4800251 8,19.6200377 8.05449677,19.7269936 C8.10243344,19.8210746 8.17892351,19.8975646 8.27300453,19.9455013 C8.37996039,20 8.51997393,20 8.80000019,20 L19.2000008,20 Z"></path>
                <path d="M8,4.80000019 C8,4.51997396 8,4.3799604 8.05449677,4.27300453 C8.10243345,4.1789235 8.1789235,4.10243345 8.27300453,4.05449677 C8.3799604,4 8.51997393,4 8.80000019,4 L11.1999998,4 C11.480026,4 11.6200396,4 11.7269955,4.05449677 C11.8210765,4.10243345 11.8975665,4.1789235 11.9455032,4.27300453 C12,4.3799604 12,4.51997393 12,4.80000019 L12,7.19999981 C12,7.48002604 12,7.6200396 11.9455032,7.72699547 C11.8975665,7.8210765 11.8210765,7.89756655 11.7269955,7.94550323 C11.6200396,8 11.4800261,8 11.1999998,8 L8.80000019,8 C8.51997396,8 8.3799604,8 8.27300453,7.94550323 C8.1789235,7.89756655 8.10243345,7.8210765 8.05449677,7.72699547 C8,7.6200396 8,7.48002607 8,7.19999981 L8,4.80000019 Z"></path>
                <path d="M1,10.8000002 C1,10.519974 1,10.3799604 1.05449677,10.2730045 C1.10243345,10.1789235 1.17892373,10.1024335 1.27300477,10.0544968 C1.37996064,10 1.5199737,10 1.79999995,10 L4.19999981,10 C4.48002604,10 4.6200396,10 4.72699547,10.0544968 C4.8210765,10.1024335 4.89756655,10.1789235 4.94550323,10.2730045 C5,10.3799604 5,10.5199739 5,10.8000002 L5,13.1999998 C5,13.480026 5,13.6200396 4.94550323,13.7269955 C4.89756655,13.8210765 4.8210765,13.8975665 4.72699547,13.9455032 C4.6200396,14 4.48002607,14 4.19999981,14 L1.79999995,14 C1.51997373,14 1.37996064,14 1.27300477,13.9455032 C1.17892373,13.8975665 1.10243345,13.8210765 1.05449677,13.7269955 C1,13.6200396 1,13.4800261 1,13.1999998 L1,10.8000002 Z"></path>
                <path d="M0,0.799999952 C0,0.519973725 0,0.379960611 0.0544967428,0.27300474 C0.102433428,0.178923704 0.178923704,0.102433428 0.27300474,0.0544967428 C0.379960611,0 0.519973755,0 0.800000012,0 L3.20000005,0 C3.48002627,0 3.62003936,0 3.72699523,0.0544967428 C3.82107627,0.102433428 3.89756655,0.178923704 3.94550323,0.27300474 C4,0.379960611 4,0.519973755 4,0.800000012 L4,3.20000005 C4,3.48002627 4,3.62003936 3.94550323,3.72699523 C3.89756655,3.82107627 3.82107627,3.89756655 3.72699523,3.94550323 C3.62003936,4 3.4800263,4 3.20000005,4 L0.799999952,4 C0.519973725,4 0.379960611,4 0.27300474,3.94550323 C0.178923704,3.89756655 0.102433428,3.82107627 0.0544967428,3.72699523 C0,3.62003936 0,3.4800263 0,3.20000005 L0,0.799999952 Z"></path>
            </g>
        </g>
    </g>
</svg>