<?xml version="1.0" encoding="UTF-8"?>
<svg width="24px" height="24px" viewBox="0 0 24 24" version="1.1" xmlns="http://www.w3.org/2000/svg" xmlns:xlink="http://www.w3.org/1999/xlink">
    <title>delete</title>
    <g id="Line-icons" stroke="none" stroke-width="1" fill="none" fill-rule="evenodd" stroke-linecap="round" stroke-linejoin="round">
        <g id="Editor" transform="translate(-336, -396)" fill-rule="nonzero" stroke="#000000" stroke-width="2">
            <g id="Icon" transform="translate(338.25, 400)">
                <path d="M4.78999996,1.28000021 C5.14199871,0.810668528 5.31799789,0.576002702 5.54104996,0.406751752 C5.73860469,0.256848067 5.96231554,0.144992657 6.20077133,0.0768910795 C6.47000334,0 6.76333547,0 7.3499999,0 L14.9499998,0 C16.6301577,0 17.4702356,0 18.1119709,0.326980442 C18.6764571,0.614600539 19.1353993,1.0735423 19.4230194,1.6380285 C19.75,2.27976376 19.75,3.11984253 19.75,4.80000019 L19.75,11.1999998 C19.75,12.8801575 19.75,13.7202366 19.4230194,14.3619719 C19.1353993,14.9264581 18.6764571,15.3853993 18.1119709,15.6730194 C17.4702356,16 16.6301575,16 14.9499998,16 L7.35000086,16 C6.76333594,16 6.47000334,16 6.20077133,15.9231091 C5.96231554,15.8550075 5.73860469,15.7431521 5.54104996,15.5932484 C5.31799789,15.4239974 5.14199859,15.1893318 4.78999996,14.7200003 L0.470000029,8.96000004 C0.211806059,8.61574143 0.0827090815,8.44361177 0.0329449885,8.25456715 C-0.0109816641,8.08769788 -0.0109816641,7.91230164 0.0329449885,7.74543238 C0.0827090815,7.55638775 0.211806059,7.38425857 0.470000029,7.03999996 L4.78999996,1.28000021 Z"></path>
                <path d="M8.75,11 L14.75,5 M8.75,5 L14.75,11"></path>
            </g>
        </g>
    </g>
</svg>