<?xml version="1.0" encoding="UTF-8"?>
<svg width="24px" height="24px" viewBox="0 0 24 24" version="1.1" xmlns="http://www.w3.org/2000/svg" xmlns:xlink="http://www.w3.org/1999/xlink">
    <title>disc-02</title>
    <g id="Line-icons" stroke="none" stroke-width="1" fill="none" fill-rule="evenodd" stroke-linecap="round" stroke-linejoin="round">
        <g id="Media-&amp;-devices" transform="translate(-64, -756)" fill-rule="nonzero" stroke="#000000" stroke-width="2">
            <g id="Icon" transform="translate(66, 758)">
                <path d="M10,20 C15.5228481,20 20,15.5228481 20,10 C20,4.47715235 15.5228481,0 10,0 C4.47715235,0 0,4.47715235 0,10 C0,15.5228481 4.47715235,20 10,20 Z"></path>
                <path d="M10,13 C11.6568542,13 13,11.6568542 13,10 C13,8.34314573 11.6568542,7 10,7 C8.34314573,7 7,8.34314573 7,10 C7,11.6568542 8.34314573,13 10,13 Z"></path>
                <path d="M17,10 C17,7.20760393 15.3649473,4.79709518 13,3.67363119 M6.39241314,15.9999523 C4.35958195,14.7750554 3,12.5462775 3,9.99995232"></path>
            </g>
        </g>
    </g>
</svg>