<?xml version="1.0" encoding="UTF-8"?>
<svg width="24px" height="24px" viewBox="0 0 24 24" version="1.1" xmlns="http://www.w3.org/2000/svg" xmlns:xlink="http://www.w3.org/1999/xlink">
    <title>distribute-spacing-vertical</title>
    <g id="Line-icons" stroke="none" stroke-width="1" fill="none" fill-rule="evenodd" stroke-linecap="round" stroke-linejoin="round">
        <g id="Layout" transform="translate(-336, -156)" fill-rule="nonzero" stroke="#000000" stroke-width="2">
            <g id="Icon" transform="translate(339, 159)">
                <path d="M13,12 C13.9318832,12 14.3978244,12 14.7653666,11.8477592 C15.2554228,11.6447714 15.6447713,11.2554227 15.8477592,10.7653666 C16,10.3978244 16,9.93188298 16,9 C16,8.06811714 16,7.60217604 15.8477592,7.23463392 C15.6447714,6.74457777 15.2554237,6.35522963 14.7653675,6.15224171 C14.3978254,6 13.9318834,6 13,6 L5,6 C4.06811702,6 3.60217553,6 3.23463345,6.15224075 C2.74457717,6.35522865 2.35522892,6.7445772 2.15224099,7.23463345 C2,7.6021755 2,8.06811714 2,9 C2,9.93188286 2,10.3978235 2.15224099,10.7653656 C2.35522889,11.2554219 2.74457696,11.6447704 3.23463321,11.8477583 C3.60217527,12 4.06811714,12 5,12 L13,12 Z"></path>
                <path d="M0,0 L18,0 M18,18 L0,18"></path>
            </g>
        </g>
    </g>
</svg>