<?xml version="1.0" encoding="UTF-8"?>
<svg width="24px" height="24px" viewBox="0 0 24 24" version="1.1" xmlns="http://www.w3.org/2000/svg" xmlns:xlink="http://www.w3.org/1999/xlink">
    <title>divider</title>
    <g id="Line-icons" stroke="none" stroke-width="1" fill="none" fill-rule="evenodd" stroke-linecap="round" stroke-linejoin="round">
        <g id="Layout" transform="translate(-336, -196)" fill-rule="nonzero" stroke="#000000" stroke-width="2">
            <g id="divider" transform="translate(339, 199)">
                <path d="M0.0100002289,9 L0,9 M4.51000023,9 L4.5,9 M13.5100002,9 L13.5,9 M9.01000023,9 L9,9 M18.0100002,9 L18,9 M18,18 L18,17.2000008 C18,16.079896 18,15.5198436 17.7820129,15.09202 C17.5902672,14.7156959 17.2843056,14.4097348 16.9079819,14.217988 C16.4801579,14 15.920105,14 14.8000002,14 L3.20000029,14 C2.07989526,14 1.51984262,14 1.0920192,14.2179871 C0.715695024,14.4097338 0.409733921,14.7156949 0.21798715,15.0920191 C0,15.5198425 0,16.0798943 0,17.1999989 L0,18 M18,0.799999952 L18,0.799999952 L18,0.799999952 C18,1.92010498 18,2.48015761 17.7820129,2.90798092 C17.5902672,3.2843051 17.2843056,3.59026623 16.9079819,3.78201294 C16.4801579,4 15.920105,4 14.8000002,4 L3.20000005,4 C2.07989502,4 1.51984251,4 1.09201896,3.78201294 C0.715694845,3.59026623 0.409733713,3.2843051 0.217986971,2.90798092 C0,2.48015761 0,1.92010516 0,0.800000608 C-5.41083412e-17,0.358172472 0.358172472,5.41083412e-17 0.800000608,0" id="Icon"></path>
            </g>
        </g>
    </g>
</svg>