<?xml version="1.0" encoding="UTF-8"?>
<svg width="24px" height="24px" viewBox="0 0 24 24" version="1.1" xmlns="http://www.w3.org/2000/svg" xmlns:xlink="http://www.w3.org/1999/xlink">
    <title>divide-01</title>
    <g id="Line-icons" stroke="none" stroke-width="1" fill="none" fill-rule="evenodd" stroke-linecap="round" stroke-linejoin="round">
        <g id="General" transform="translate(-64, -1756)" fill-rule="nonzero" stroke="#000000" stroke-width="2">
            <g id="Icon" transform="translate(68, 1761)">
                <path d="M9,1 C9,1.55228478 8.55228478,2 8,2 C7.44771522,2 7,1.55228478 7,1 C7,0.447715223 7.44771522,0 8,0 C8.55228478,0 9,0.447715223 9,1 Z"></path>
                <path d="M9,13 C9,13.5522848 8.55228478,14 8,14 C7.44771522,14 7,13.5522848 7,13 C7,12.4477152 7.44771522,12 8,12 C8.55228478,12 9,12.4477152 9,13 Z"></path>
                <line x1="0" y1="7" x2="16" y2="7"></line>
            </g>
        </g>
    </g>
</svg>