<?xml version="1.0" encoding="UTF-8"?>
<svg width="24px" height="24px" viewBox="0 0 24 24" version="1.1" xmlns="http://www.w3.org/2000/svg" xmlns:xlink="http://www.w3.org/1999/xlink">
    <title>divide-02</title>
    <g id="Line-icons" stroke="none" stroke-width="1" fill="none" fill-rule="evenodd" stroke-linecap="round" stroke-linejoin="round">
        <g id="General" transform="translate(-64, -1796)" fill-rule="nonzero" stroke="#000000" stroke-width="2">
            <g id="Icon" transform="translate(68, 1800)">
                <path d="M8,4 C9.10456944,4 10,3.10456944 10,2 C10,0.895430446 9.10456944,0 8,0 C6.89543045,0 6,0.895430446 6,2 C6,3.10456944 6.89543045,4 8,4 Z"></path>
                <path d="M8,16 C9.10456944,16 10,15.1045694 10,14 C10,12.8954304 9.10456944,12 8,12 C6.89543045,12 6,12.8954304 6,14 C6,15.1045694 6.89543045,16 8,16 Z"></path>
                <line x1="0" y1="8" x2="16" y2="8"></line>
            </g>
        </g>
    </g>
</svg>