<?xml version="1.0" encoding="UTF-8"?>
<svg width="24px" height="24px" viewBox="0 0 24 24" version="1.1" xmlns="http://www.w3.org/2000/svg" xmlns:xlink="http://www.w3.org/1999/xlink">
    <title>divide-03</title>
    <g id="Line-icons" stroke="none" stroke-width="1" fill="none" fill-rule="evenodd" stroke-linecap="round" stroke-linejoin="round">
        <g id="General" transform="translate(-64, -1836)" fill-rule="nonzero" stroke="#000000" stroke-width="2">
            <g id="Icon" transform="translate(66, 1838)">
                <path d="M10.5,6 C10.5,6.27614239 10.2761424,6.5 10,6.5 C9.72385761,6.5 9.5,6.27614239 9.5,6 C9.5,5.72385761 9.72385761,5.5 10,5.5 C10.2761424,5.5 10.5,5.72385761 10.5,6 Z"></path>
                <path d="M10.5,14 C10.5,14.2761424 10.2761424,14.5 10,14.5 C9.72385761,14.5 9.5,14.2761424 9.5,14 C9.5,13.7238576 9.72385761,13.5 10,13.5 C10.2761424,13.5 10.5,13.7238576 10.5,14 Z"></path>
                <path d="M10,20 C15.5228481,20 20,15.5228481 20,10 C20,4.47715235 15.5228481,0 10,0 C4.47715235,0 0,4.47715235 0,10 C0,15.5228481 4.47715235,20 10,20 Z"></path>
                <path d="M10.0100002,6 L10,6 M10.0100002,14 L10,14 M5,10 L15,10"></path>
            </g>
        </g>
    </g>
</svg>