<?xml version="1.0" encoding="UTF-8"?>
<svg width="24px" height="24px" viewBox="0 0 24 24" version="1.1" xmlns="http://www.w3.org/2000/svg" xmlns:xlink="http://www.w3.org/1999/xlink">
    <title>dots-horizontal</title>
    <g id="Line-icons" stroke="none" stroke-width="1" fill="none" fill-rule="evenodd" stroke-linecap="round" stroke-linejoin="round">
        <g id="General" transform="translate(-64, -1916)" fill-rule="nonzero" stroke="#000000" stroke-width="2">
            <g id="Icon" transform="translate(68, 1927)">
                <path d="M8,2 C8.55228472,2 9,1.55228472 9,1 C9,0.447715223 8.55228472,0 8,0 C7.44771522,0 7,0.447715223 7,1 C7,1.55228472 7.44771522,2 8,2 Z"></path>
                <path d="M15,2 C15.5522847,2 16,1.55228472 16,1 C16,0.447715223 15.5522847,0 15,0 C14.4477152,0 14,0.447715223 14,1 C14,1.55228472 14.4477152,2 15,2 Z"></path>
                <path d="M1,2 C1.55228472,2 2,1.55228472 2,1 C2,0.447715223 1.55228472,0 1,0 C0.447715223,0 0,0.447715223 0,1 C0,1.55228472 0.447715223,2 1,2 Z"></path>
            </g>
        </g>
    </g>
</svg>