<?xml version="1.0" encoding="UTF-8"?>
<svg width="24px" height="24px" viewBox="0 0 24 24" version="1.1" xmlns="http://www.w3.org/2000/svg" xmlns:xlink="http://www.w3.org/1999/xlink">
    <title>dots-grid</title>
    <g id="Line-icons" stroke="none" stroke-width="1" fill="none" fill-rule="evenodd" stroke-linecap="round" stroke-linejoin="round">
        <g id="General" transform="translate(-64, -1876)" fill-rule="nonzero" stroke="#000000" stroke-width="2">
            <g id="Icon" transform="translate(68, 1880)">
                <path d="M8,2 C8.55228472,2 9,1.55228472 9,1 C9,0.447715223 8.55228472,0 8,0 C7.44771522,0 7,0.447715223 7,1 C7,1.55228472 7.44771522,2 8,2 Z"></path>
                <path d="M8,9 C8.55228472,9 9,8.55228472 9,8 C9,7.44771522 8.55228472,7 8,7 C7.44771522,7 7,7.44771522 7,8 C7,8.55228472 7.44771522,9 8,9 Z"></path>
                <path d="M8,16 C8.55228472,16 9,15.5522847 9,15 C9,14.4477152 8.55228472,14 8,14 C7.44771522,14 7,14.4477152 7,15 C7,15.5522847 7.44771522,16 8,16 Z"></path>
                <path d="M15,2 C15.5522847,2 16,1.55228472 16,1 C16,0.447715223 15.5522847,0 15,0 C14.4477152,0 14,0.447715223 14,1 C14,1.55228472 14.4477152,2 15,2 Z"></path>
                <path d="M15,9 C15.5522847,9 16,8.55228472 16,8 C16,7.44771522 15.5522847,7 15,7 C14.4477152,7 14,7.44771522 14,8 C14,8.55228472 14.4477152,9 15,9 Z"></path>
                <path d="M15,16 C15.5522847,16 16,15.5522847 16,15 C16,14.4477152 15.5522847,14 15,14 C14.4477152,14 14,14.4477152 14,15 C14,15.5522847 14.4477152,16 15,16 Z"></path>
                <path d="M1,2 C1.55228472,2 2,1.55228472 2,1 C2,0.447715223 1.55228472,0 1,0 C0.447715223,0 0,0.447715223 0,1 C0,1.55228472 0.447715223,2 1,2 Z"></path>
                <path d="M1,9 C1.55228472,9 2,8.55228472 2,8 C2,7.44771522 1.55228472,7 1,7 C0.447715223,7 0,7.44771522 0,8 C0,8.55228472 0.447715223,9 1,9 Z"></path>
                <path d="M1,16 C1.55228472,16 2,15.5522847 2,15 C2,14.4477152 1.55228472,14 1,14 C0.447715223,14 0,14.4477152 0,15 C0,15.5522847 0.447715223,16 1,16 Z"></path>
            </g>
        </g>
    </g>
</svg>