<?xml version="1.0" encoding="UTF-8"?>
<svg width="24px" height="24px" viewBox="0 0 24 24" version="1.1" xmlns="http://www.w3.org/2000/svg" xmlns:xlink="http://www.w3.org/1999/xlink">
    <title>dots-vertical</title>
    <g id="Line-icons" stroke="none" stroke-width="1" fill="none" fill-rule="evenodd" stroke-linecap="round" stroke-linejoin="round">
        <g id="General" transform="translate(-64, -1956)" fill-rule="nonzero" stroke="#000000" stroke-width="2">
            <g id="Icon" transform="translate(75, 1960)">
                <path d="M1,9 C1.55228472,9 2,8.55228472 2,8 C2,7.44771522 1.55228472,7 1,7 C0.447715223,7 0,7.44771522 0,8 C0,8.55228472 0.447715223,9 1,9 Z"></path>
                <path d="M1,2 C1.55228472,2 2,1.55228472 2,1 C2,0.447715223 1.55228472,0 1,0 C0.447715223,0 0,0.447715223 0,1 C0,1.55228472 0.447715223,2 1,2 Z"></path>
                <path d="M1,16 C1.55228472,16 2,15.5522847 2,15 C2,14.4477152 1.55228472,14 1,14 C0.447715223,14 0,14.4477152 0,15 C0,15.5522847 0.447715223,16 1,16 Z"></path>
            </g>
        </g>
    </g>
</svg>