<?xml version="1.0" encoding="UTF-8"?>
<svg width="24px" height="24px" viewBox="0 0 24 24" version="1.1" xmlns="http://www.w3.org/2000/svg" xmlns:xlink="http://www.w3.org/1999/xlink">
    <title>droplets-03</title>
    <g id="Line-icons" stroke="none" stroke-width="1" fill="none" fill-rule="evenodd" stroke-linecap="round" stroke-linejoin="round">
        <g id="Weather" transform="translate(-336, -396)" fill-rule="nonzero" stroke="#000000" stroke-width="2">
            <g id="Icon" transform="translate(339, 398.5)">
                <path d="M4,13.2799988 C6.20000005,13.2799988 8,11.4499996 8,9.22999954 C8,8.06999958 7.42999995,6.97000045 6.28999996,6.04000044 C5.14999998,5.11000043 4.28999999,3.73000026 4,2.28000021 C3.71000001,3.73000026 2.86000001,5.12000042 1.71000004,6.04000044 C0.560000062,6.96000046 0,8.07999957 0,9.22999954 C0,11.4499996 1.79999995,13.2799988 4,13.2799988 Z"></path>
                <path d="M9.56000042,3.57999992 C10.2477593,2.48112488 10.7352999,1.26904392 11,0 C11.5,2.5 13,4.90000045 15,6.5 C17,8.1000005 18.0000591,10 18.0000591,12 C18.0057144,13.3822918 17.6008719,14.7351552 16.8367958,15.8870888 C16.0727197,17.0390223 14.9838189,17.9381518 13.7081318,18.4704914 C12.4324447,19.002831 11.0274196,19.1444079 9.6711731,18.8772774 C8.31492662,18.6101468 7.06853342,17.9463373 6.09000015,16.9699993"></path>
            </g>
        </g>
    </g>
</svg>