<?xml version="1.0" encoding="UTF-8"?>
<svg width="24px" height="24px" viewBox="0 0 24 24" version="1.1" xmlns="http://www.w3.org/2000/svg" xmlns:xlink="http://www.w3.org/1999/xlink">
    <title>edit-03</title>
    <g id="Line-icons" stroke="none" stroke-width="1" fill="none" fill-rule="evenodd" stroke-linecap="round" stroke-linejoin="round">
        <g id="General" transform="translate(-336, -356)" fill-rule="nonzero" stroke="#000000" stroke-width="2">
            <g id="Icon" transform="translate(339, 358.8787)">
                <line x1="8.99997425" y1="17.1213303" x2="17.9999752" y2="17.1213303"></line>
                <path d="M0,15.446805 C0,14.9576231 0,14.7130331 0.0552602895,14.4828577 C0.104253866,14.278785 0.185062677,14.0836946 0.294720322,13.9047499 C0.418404154,13.7029165 0.591356218,13.5299655 0.93726033,13.184062 L13.5000248,0.62131983 C14.3284522,-0.207106113 15.6716,-0.207107008 16.5000267,0.621319652 C17.3284538,1.44974679 17.3284538,2.79289335 16.5000267,3.62132049 L3.93728542,16.1840611 C3.59138185,16.5299646 3.41842984,16.7029175 3.2165966,16.826601 C3.03765199,16.9362584 2.84256288,17.0170676 2.63849044,17.066061 C2.4083153,17.1213303 2.16372451,17.1213303 1.67454326,17.1213303 L0,17.1213303 L0,15.446805 Z"></path>
            </g>
        </g>
    </g>
</svg>