<?xml version="1.0" encoding="UTF-8"?>
<svg width="24px" height="24px" viewBox="0 0 24 24" version="1.1" xmlns="http://www.w3.org/2000/svg" xmlns:xlink="http://www.w3.org/1999/xlink">
    <title>edit-05</title>
    <g id="Line-icons" stroke="none" stroke-width="1" fill="none" fill-rule="evenodd" stroke-linecap="round" stroke-linejoin="round">
        <g id="General" transform="translate(-336, -436)" fill-rule="nonzero" stroke="#000000" stroke-width="2">
            <g id="Icon" transform="translate(338, 437.8787)">
                <path d="M5.9999733,12.4468069 C5.9999733,11.9576248 5.99997316,11.7130341 6.05523348,11.4828587 C6.10422708,11.2787859 6.18503624,11.0836966 6.29469395,10.9047518 C6.41837785,10.7029184 6.59133002,10.5299666 6.9372344,10.184063 L16.5,0.621318638 C17.3284276,-0.207107127 18.6715733,-0.207105994 19.5,0.621320724 C20.3284273,1.44974804 20.3284273,2.79289484 19.5,3.62132215 L9.93725777,13.184063 C9.59135443,13.5299663 9.41840313,13.7029184 9.2165699,13.826602 C9.03762528,13.9362594 8.84253642,14.0170676 8.63846397,14.066061 C8.40828884,14.1213212 8.16369793,14.1213217 7.67451668,14.1213217 L5.9999733,14.1213217 L5.9999733,12.4468069 Z"></path>
                <path d="M7.14118609,2.12132144 L4.80000019,2.12132144 L4.80000019,2.12132144 C3.11984253,2.12132144 2.2797637,2.12132159 1.6380285,2.44830203 C1.07354224,2.73592213 0.614600539,3.1948638 0.326980442,3.75935006 C0,4.40108526 0,5.24116397 0,6.92132139 L0,15.3213215 C0,17.0014791 0,17.8415575 0.326980442,18.4832916 C0.614600539,19.0477791 1.07354224,19.5067196 1.6380285,19.7943401 C2.2797637,20.1213207 3.11984229,20.1213207 4.79999971,20.1213207 L13.1999998,20.1213207 C14.8801575,20.1213207 15.7202368,20.1213207 16.3619709,19.7943401 C16.9264584,19.5067196 17.3853989,19.0477791 17.6730194,18.4832916 C18,17.8415575 18,17.0014791 18,15.3213215 L18,12.9801355 C18,12.2055112 17.9719521,11.9375546 17.9035038,11.640567 C17.8350555,11.3435793 17.7262068,11.0807952 17.564605,10.8223929 C17.4030033,10.5639907 17.2333622,10.3546839 16.6856201,9.80694178"></path>
            </g>
        </g>
    </g>
</svg>