<?xml version="1.0" encoding="UTF-8"?>
<svg width="24px" height="24px" viewBox="0 0 24 24" version="1.1" xmlns="http://www.w3.org/2000/svg" xmlns:xlink="http://www.w3.org/1999/xlink">
    <title>edit-02</title>
    <g id="Line-icons" stroke="none" stroke-width="1" fill="none" fill-rule="evenodd" stroke-linecap="round" stroke-linejoin="round">
        <g id="General" transform="translate(-336, -316)" fill-rule="nonzero" stroke="#000000" stroke-width="2">
            <g id="Icon" transform="translate(338.5, 318.1716)">
                <path d="M0.376040548,15.9440641 C0.421984047,15.5305727 0.444955796,15.3238267 0.507513702,15.1305838 C0.563014962,14.9591389 0.641432561,14.795982 0.740637243,14.6455421 C0.852455191,14.4759748 0.999546379,14.3288832 1.29372871,14.0347013 L14.5000277,0.828425229 C15.6045974,-0.276142776 17.395456,-0.276141465 18.5000248,0.828427374 C19.6045949,1.93299752 19.604594,3.72385991 18.5000229,4.82842922 L5.29372644,18.0347042 C4.99954504,18.3288851 4.85245414,18.4759759 4.68288708,18.5877934 C4.53244749,18.6869976 4.36929037,18.7654142 4.19784594,18.8209152 C4.0046034,18.8834729 3.7978583,18.9064454 3.3843677,18.9523888 L0,19.3284283 L0.376040548,15.9440641 Z"></path>
                <line x1="15.5000277" y1="7.82842922" x2="11.5000277" y2="3.82842898"></line>
            </g>
        </g>
    </g>
</svg>