<?xml version="1.0" encoding="UTF-8"?>
<svg width="24px" height="24px" viewBox="0 0 24 24" version="1.1" xmlns="http://www.w3.org/2000/svg" xmlns:xlink="http://www.w3.org/1999/xlink">
    <title>eraser</title>
    <g id="Line-icons" stroke="none" stroke-width="1" fill="none" fill-rule="evenodd" stroke-linecap="round" stroke-linejoin="round">
        <g id="Editor" transform="translate(-336, -596)" fill-rule="nonzero" stroke="#000000" stroke-width="2">
            <g id="Icon" transform="translate(338.2422, 598.2427)">
                <path d="M2.15146971,17.1514702 C0.963420391,15.9634209 0.369395673,15.3693956 0.146830425,14.6844101 C-0.0489434749,14.0818799 -0.0489434749,13.4328381 0.146830425,12.830308 C0.369395673,12.1453225 0.963421106,11.5512977 2.15147185,10.3632469 L10.363245,2.151474 C11.5512972,0.963421822 12.1453225,0.369395673 12.830308,0.146830425 C13.4328381,-0.0489434749 14.0818799,-0.0489434749 14.6844101,0.146830425 C15.3693956,0.369395673 15.9634212,0.963420987 17.1514721,2.15147185 L17.3632469,2.36324739 C18.5512972,3.55129766 19.1453222,4.14532298 19.3678875,4.83030844 C19.5636614,5.43283862 19.5636614,6.08187991 19.3678875,6.6844101 C19.1453222,7.36939555 18.5512977,7.96342134 17.3632469,9.15147209 L8.69461823,17.8201008 C8.34871456,18.1660044 8.17576264,18.3389553 7.97392941,18.4626389 C7.79498479,18.5722963 7.59989545,18.6531054 7.395823,18.7020988 C7.16564786,18.7573586 6.92105699,18.7573586 6.43187571,18.7573586 L5.08284283,18.7573586 C4.59366164,18.7573586 4.34907067,18.7573586 4.11889553,18.7020988 C3.91482309,18.6531054 3.71973398,18.5722963 3.54078937,18.4626389 C3.33895613,18.3389553 3.16600442,18.1660042 2.82010102,17.8201008 L2.15146971,17.1514702 Z"></path>
                <path d="M8.7573595,3.75735927 L15.7573595,10.7573595 M18.7573586,18.7573586 L5.7573595,18.7573586"></path>
            </g>
        </g>
    </g>
</svg>