<?xml version="1.0" encoding="UTF-8"?>
<svg width="24px" height="24px" viewBox="0 0 24 24" version="1.1" xmlns="http://www.w3.org/2000/svg" xmlns:xlink="http://www.w3.org/1999/xlink">
    <title>expand-04</title>
    <g id="Line-icons" stroke="none" stroke-width="1" fill="none" fill-rule="evenodd" stroke-linecap="round" stroke-linejoin="round">
        <g id="Arrows" transform="translate(-880, -196)" fill-rule="nonzero" stroke="#000000" stroke-width="2">
            <g id="Icon" transform="translate(883, 199)">
                <polyline points="12 0 18 0 18 6"></polyline>
                <polyline points="6 18 0 18 2.86117938e-07 11.999999"></polyline>
                <path d="M17,13.8000002 L17,13.8000002 L17,13.8000002 C17,14.9201052 17,15.4801574 16.7820129,15.9079809 C16.5902662,16.2843051 16.2843051,16.5902662 15.9079809,16.7820129 C15.4801574,17 14.9201045,17 13.7999992,17 C13.1594607,17 12.6402016,16.4807409 12.6402016,15.8402023 C12.6402016,15.5326049 12.7623942,15.2376058 12.9798984,15.0201016 M4.20000029,1 L4.20000029,1 L4.20000029,1 C3.07989502,1 2.51984262,1 2.09201908,1.21798694 C1.71569496,1.40973368 1.40973368,1.71569496 1.21798694,2.09201908 C1,2.51984262 1,3.07989478 1,4.19999981 C1,4.84053859 1.51925928,5.35979786 2.15979805,5.35979786 C2.46739562,5.35979786 2.7623948,5.2376052 2.97989912,5.02010088 M18,0 L12,6 M6,12 L0,18"></path>
            </g>
        </g>
    </g>
</svg>