<?xml version="1.0" encoding="UTF-8"?>
<svg width="24px" height="24px" viewBox="0 0 24 24" version="1.1" xmlns="http://www.w3.org/2000/svg" xmlns:xlink="http://www.w3.org/1999/xlink">
    <title>expand-03</title>
    <g id="Line-icons" stroke="none" stroke-width="1" fill="none" fill-rule="evenodd" stroke-linecap="round" stroke-linejoin="round">
        <g id="Arrows" transform="translate(-880, -156)" fill-rule="nonzero" stroke="#000000" stroke-width="2">
            <g id="Icon" transform="translate(883, 159)">
                <polyline points="12 0 18 0 18 6"></polyline>
                <polyline points="6 18 0 18 2.86117938e-07 11.999999"></polyline>
                <path d="M18,13.1999998 L18,13.1999998 L18,13.1999998 C18,14.8801575 18,15.7202358 17.6730194,16.3619709 C17.3853993,16.9264574 16.9264574,17.3853993 16.3619709,17.6730194 C15.7202358,18 14.8801575,18 13.1999998,18 C12.6967194,18 12.2887301,17.5920106 12.2887301,17.0887302 C12.2887301,16.8470465 12.3847386,16.6152614 12.5556348,16.4443652 M4.80000019,0 L4.80000019,0 L4.80000019,0 C3.11984253,0 2.2797637,0 1.6380285,0.326980442 C1.07354224,0.614600539 0.614600539,1.07354224 0.326980442,1.6380285 C0,2.2797637 0,3.11984253 0,4.80000019 C6.16340719e-17,5.30328058 0.407989368,5.71126995 0.911269758,5.71126995 C1.15295352,5.71126995 1.38473855,5.61526145 1.55563478,5.44436522 M18,0 L12,6 M6,12 L0,18"></path>
            </g>
        </g>
    </g>
</svg>