<?xml version="1.0" encoding="UTF-8"?>
<svg width="24px" height="24px" viewBox="0 0 24 24" version="1.1" xmlns="http://www.w3.org/2000/svg" xmlns:xlink="http://www.w3.org/1999/xlink">
    <title>eye-off</title>
    <g id="Line-icons" stroke="none" stroke-width="1" fill="none" fill-rule="evenodd" stroke-linecap="round" stroke-linejoin="round">
        <g id="General" transform="translate(-336, -596)" fill-rule="nonzero" stroke="#000000" stroke-width="2">
            <g id="eye-off" transform="translate(338.1562, 599)">
                <path d="M8.58669472,2.0923183 C8.9931052,2.03223073 9.41235638,2 9.8441658,2 C14.9491696,2 18.2990408,6.50484133 19.424448,8.28682232 C19.5606594,8.50250149 19.6287642,8.61034107 19.6668797,8.77667332 C19.6955051,8.90159035 19.695487,9.09866333 19.6668396,9.22357559 C19.6286936,9.38990068 19.5601082,9.49845648 19.4229374,9.71556759 C19.1230965,10.1901493 18.6659241,10.8571024 18.0602493,11.5804558 M4.56807184,3.71503687 C2.40599918,5.18170071 0.938200176,7.21937752 0.264855087,8.28528404 C0.12803498,8.50187063 0.0596249313,8.61016464 0.0214891345,8.77648163 C-0.00715296858,8.90139532 -0.00716444247,9.0984416 0.0214631171,9.22335815 C0.0595795572,9.38967991 0.127681077,9.49751329 0.263884157,9.71317863 C1.38929138,11.4951601 4.73916245,16 9.8441658,16 C11.9025745,16 13.6756306,15.2675962 15.1325684,14.2766018 M18.8441658,18 L0.844165385,0 M7.72284508,6.87867928 C7.17995185,7.42157251 6.84416533,8.17157292 6.84416533,9 C6.84416533,10.6568542 8.18731153,12 9.8441658,12 C10.6725929,12 11.4225931,11.6642141 11.9654865,11.1213207" id="Icon"></path>
            </g>
        </g>
    </g>
</svg>