<?xml version="1.0" encoding="UTF-8"?>
<svg width="24px" height="24px" viewBox="0 0 24 24" version="1.1" xmlns="http://www.w3.org/2000/svg" xmlns:xlink="http://www.w3.org/1999/xlink">
    <title>eye</title>
    <g id="Line-icons" stroke="none" stroke-width="1" fill="none" fill-rule="evenodd" stroke-linecap="round" stroke-linejoin="round">
        <g id="General" transform="translate(-336, -556)" fill-rule="nonzero" stroke="#000000" stroke-width="2">
            <g id="Icon" transform="translate(338.1562, 561)">
                <path d="M0.263872504,7.71317863 C0.127685636,7.49753892 0.0595921874,7.38971871 0.0214739516,7.22341585 C-0.0071579814,7.09849999 -0.00715798326,6.90150001 0.0214739442,6.77658415 C0.0595921725,6.61028129 0.127685502,6.50246125 0.263872176,6.28682184 C1.38927904,4.50484073 4.73914957,0 9.8441534,0 C14.9491568,0 18.2990276,4.50484002 19.4244347,6.28682137 C19.5606215,6.50246108 19.6287156,6.61028129 19.6668339,6.77658415 C19.6954658,6.90150001 19.6954658,7.09849999 19.6668339,7.22341585 C19.6287156,7.38971871 19.5606213,7.49753875 19.4244347,7.71317816 C18.2990278,9.49515927 14.9491572,14 9.8441534,14 C4.73915005,14 1.3892796,9.49515998 0.263872504,7.71317863 Z"></path>
                <path d="M9.8441534,10 C11.5010076,10 12.8441534,8.65685415 12.8441534,7 C12.8441534,5.34314573 11.5010076,4 9.8441534,4 C8.18729913,4 6.84415388,5.34314573 6.84415388,7 C6.84415388,8.65685415 8.18729913,10 9.8441534,10 Z"></path>
            </g>
        </g>
    </g>
</svg>