<?xml version="1.0" encoding="UTF-8"?>
<svg width="24px" height="24px" viewBox="0 0 24 24" version="1.1" xmlns="http://www.w3.org/2000/svg" xmlns:xlink="http://www.w3.org/1999/xlink">
    <title>face-content</title>
    <g id="Line-icons" stroke="none" stroke-width="1" fill="none" fill-rule="evenodd" stroke-linecap="round" stroke-linejoin="round">
        <g id="Users" transform="translate(-64, -156)" fill-rule="nonzero" stroke="#000000" stroke-width="2">
            <g id="Icon" transform="translate(66, 158)">
                <path d="M10,20 C15.5228481,20 20,15.5228481 20,10 C20,4.47715235 15.5228481,0 10,0 C4.47715235,0 0,4.47715235 0,10 C0,15.5228481 4.47715235,20 10,20 Z"></path>
                <path d="M6,12 C7,13.3333333 8.33333333,14 10,14 C11.6666667,14 13,13.3333333 14,12"></path>
                <path d="M15,7.23999786 C14.605,7.72499788 14.065,8 13.5,8 C12.935,8 12.41,7.72499788 12,7.23999786"></path>
                <path d="M8,7.23999786 C7.60499999,7.72499788 7.065,8 6.5,8 C5.935,8 5.41,7.72499788 5,7.23999786"></path>
            </g>
        </g>
    </g>
</svg>