<?xml version="1.0" encoding="UTF-8"?>
<svg width="24px" height="24px" viewBox="0 0 24 24" version="1.1" xmlns="http://www.w3.org/2000/svg" xmlns:xlink="http://www.w3.org/1999/xlink">
    <title>face-smile</title>
    <g id="Line-icons" stroke="none" stroke-width="1" fill="none" fill-rule="evenodd" stroke-linecap="round" stroke-linejoin="round">
        <g id="Users" transform="translate(-64, -356)" fill-rule="nonzero" stroke="#000000" stroke-width="2">
            <g id="Icon" transform="translate(66, 358)">
                <path d="M10,20 C15.5228481,20 20,15.5228481 20,10 C20,4.47715235 15.5228481,0 10,0 C4.47715235,0 0,4.47715235 0,10 C0,15.5228481 4.47715235,20 10,20 Z"></path>
                <path d="M6,12 C7,13.3333333 8.33333333,14 10,14 C11.6666667,14 13,13.3333333 14,12"></path>
                <path d="M13.5,7 C13.5,7.27614239 13.2761424,7.5 13,7.5 C12.7238576,7.5 12.5,7.27614239 12.5,7 C12.5,6.72385761 12.7238576,6.5 13,6.5 C13.2761424,6.5 13.5,6.72385761 13.5,7 Z"></path>
                <path d="M7.5,7 C7.5,7.27614239 7.27614239,7.5 7,7.5 C6.72385761,7.5 6.5,7.27614239 6.5,7 C6.5,6.72385761 6.72385761,6.5 7,6.5 C7.27614239,6.5 7.5,6.72385761 7.5,7 Z"></path>
                <path d="M13.0100002,7 L13,7 M7,7 L7.01000023,7"></path>
            </g>
        </g>
    </g>
</svg>