<?xml version="1.0" encoding="UTF-8"?>
<svg width="24px" height="24px" viewBox="0 0 24 24" version="1.1" xmlns="http://www.w3.org/2000/svg" xmlns:xlink="http://www.w3.org/1999/xlink">
    <title>fast-backward</title>
    <g id="Line-icons" stroke="none" stroke-width="1" fill="none" fill-rule="evenodd" stroke-linecap="round" stroke-linejoin="round">
        <g id="Media-&amp;-devices" transform="translate(-64, -796)" fill-rule="nonzero" stroke="#000000" stroke-width="2">
            <g id="Icon" transform="translate(66.5049, 801.2268)">
                <path d="M19.4948006,11.210207 C19.4948006,12.340237 19.4948006,12.9052521 19.2665348,13.1822577 C19.0682277,13.4229085 18.7690121,13.5572773 18.4573994,13.5456142 C18.0987117,13.5321892 17.6764126,13.1568132 16.8318176,12.4060621 L11.8401375,7.96901274 C11.3748488,7.55542275 11.1422046,7.34862782 11.056468,7.10443926 C10.9811772,6.89000164 10.9811772,6.65631355 11.056468,6.44187593 C11.1422046,6.19768737 11.374849,5.99089226 11.8401375,5.57730246 L16.8318195,1.14025259 C17.6764143,0.389501691 18.0987117,0.0141262036 18.4573994,0.000701175653 C18.7690121,-0.0109619232 19.0682277,0.123406291 19.2665348,0.364057094 C19.4948006,0.641062677 19.4948006,1.20607769 19.4948006,2.33610773 L19.4948006,11.210207 Z"></path>
                <path d="M8.49480057,11.210207 C8.49480057,12.340237 8.49480088,12.9052521 8.26653576,13.1822577 C8.06822863,13.4229085 7.76901114,13.5572773 7.45739841,13.5456142 C7.09871078,13.5321892 6.67641354,13.1568132 5.83181858,12.4060621 L0.84013772,7.96901274 C0.374849021,7.55542275 0.142204642,7.34862782 0.056468077,7.10443926 C-0.0188226923,6.89000164 -0.0188226923,6.65631355 0.056468077,6.44187593 C0.142204642,6.19768737 0.374848902,5.99089226 0.840137422,5.57730246 L5.83181858,1.14025259 C6.67641336,0.389501691 7.09871078,0.0141262036 7.45739841,0.000701175653 C7.76901114,-0.0109619232 8.06822863,0.123406291 8.26653576,0.364057094 C8.49480088,0.641062677 8.49480057,1.20607769 8.49480057,2.33610773 L8.49480057,11.210207 Z"></path>
            </g>
        </g>
    </g>
</svg>