<?xml version="1.0" encoding="UTF-8"?>
<svg width="24px" height="24px" viewBox="0 0 24 24" version="1.1" xmlns="http://www.w3.org/2000/svg" xmlns:xlink="http://www.w3.org/1999/xlink">
    <title>fast-forward</title>
    <g id="Line-icons" stroke="none" stroke-width="1" fill="none" fill-rule="evenodd" stroke-linecap="round" stroke-linejoin="round">
        <g id="Media-&amp;-devices" transform="translate(-64, -836)" fill-rule="nonzero" stroke="#000000" stroke-width="2">
            <g id="Icon" transform="translate(66, 841.2268)">
                <path d="M11,11.2102079 C11,12.3402381 11,12.905253 11.2282648,13.1822586 C11.4265719,13.4229094 11.7257894,13.5572773 12.0374022,13.5456142 C12.3960898,13.5321892 12.818387,13.1568142 13.662982,12.4060631 L18.6546631,7.96901321 C19.1199518,7.5554232 19.352597,7.3486283 19.4383335,7.10443974 C19.5136243,6.89000212 19.5136243,6.65631403 19.4383335,6.44187641 C19.352597,6.19768785 19.1199516,5.9908928 18.6546631,5.57730293 L13.662982,1.14025271 C12.8183872,0.38950175 12.3960898,0.0141262058 12.0374022,0.000701175944 C11.7257894,-0.0109619247 11.4265719,0.123406291 11.2282648,0.364057094 C11,0.641062677 11,1.20607781 11,2.33610797 L11,11.2102079 Z"></path>
                <path d="M0,11.2102079 C0,12.3402381 0,12.905253 0.228265122,13.1822586 C0.426572248,13.4229094 0.725789309,13.5572773 1.03740203,13.5456142 C1.39608967,13.5321892 1.81838721,13.1568142 2.66298223,12.4060631 L7.65466309,7.96901321 C8.11995181,7.5554232 8.352596,7.3486283 8.43833256,7.10443974 C8.51362333,6.89000212 8.51362333,6.65631403 8.43833256,6.44187641 C8.352596,6.19768785 8.11995164,5.9908928 7.65466309,5.57730293 L2.66298199,1.14025271 C1.81838715,0.38950175 1.39608967,0.0141262058 1.03740203,0.000701175944 C0.725789309,-0.0109619247 0.426572248,0.123406291 0.228265122,0.364057094 C0,0.641062677 0,1.20607781 0,2.33610797 L0,11.2102079 Z"></path>
            </g>
        </g>
    </g>
</svg>