<?xml version="1.0" encoding="UTF-8"?>
<svg width="24px" height="24px" viewBox="0 0 24 24" version="1.1" xmlns="http://www.w3.org/2000/svg" xmlns:xlink="http://www.w3.org/1999/xlink">
    <title>feather</title>
    <g id="Line-icons" stroke="none" stroke-width="1" fill="none" fill-rule="evenodd" stroke-linecap="round" stroke-linejoin="round">
        <g id="Editor" transform="translate(-336, -636)" fill-rule="nonzero" stroke="#000000" stroke-width="2">
            <g id="Icon" transform="translate(338, 638.4853)">
                <path d="M3,8.17746067 C3,7.93287008 3,7.81057411 3.02763009,7.69548655 C3.05212682,7.59345032 3.09253115,7.49590589 3.14735985,7.40643358 C3.20920163,7.30551697 3.29567742,7.21904135 3.46862912,7.04608965 L8.5,2.01471543 C8.73896325,1.77575505 8.8584439,1.65627484 8.96422768,1.56011927 C11.2526762,-0.520039916 14.7473238,-0.520039916 17.0357723,1.56011927 C17.1415561,1.65627484 17.2610375,1.77575608 17.5,2.01471853 C17.7389625,2.25368099 17.8584438,2.3731622 17.9545994,2.47894597 C20.0347586,4.76739454 20.0347586,8.26204276 17.9545994,10.5504913 C17.8584438,10.6562751 17.7389615,10.7757566 17.5,11.01472 L12.4686279,16.0460911 C12.2956767,16.2190423 12.2092016,16.3055174 12.108285,16.3673592 C12.0188126,16.4221879 11.9212682,16.4625924 11.819232,16.4870892 C11.7041444,16.5147192 11.581849,16.514719 11.3372583,16.514719 L4.5999999,16.514719 C4.03994745,16.514719 3.75992128,16.514719 3.54600954,16.4057255 C3.35784747,16.3098521 3.2048669,16.1568711 3.10899353,15.968709 C3,15.7547973 3,15.4747711 3,14.9147186 L3,8.17746067 Z"></path>
                <path d="M0,19.514719 L14,5.51471853 M16,12.514719 L7,12.514719"></path>
            </g>
        </g>
    </g>
</svg>