<?xml version="1.0" encoding="UTF-8"?>
<svg width="24px" height="24px" viewBox="0 0 24 24" version="1.1" xmlns="http://www.w3.org/2000/svg" xmlns:xlink="http://www.w3.org/1999/xlink">
    <title>figma</title>
    <g id="Line-icons" stroke="none" stroke-width="1" fill="none" fill-rule="evenodd" stroke-linecap="round" stroke-linejoin="round">
        <g id="Editor" transform="translate(-336, -676)" fill-rule="nonzero" stroke="#000000" stroke-width="2">
            <g id="Icon" transform="translate(341, 677.5)">
                <path d="M0,3.5 C0,1.56700349 1.56700349,0 3.5,0 L7,0 L7,7 L3.5,7 C1.56700349,7 0,5.43299651 0,3.5 Z"></path>
                <path d="M0,10.5 C0,8.56700349 1.56700349,7 3.5,7 L7,7 L7,14 L3.5,14 C1.56700349,14 0,12.4329965 0,10.5 Z"></path>
                <path d="M0,17.5 C0,15.5670035 1.56700349,14 3.5,14 L7,14 L7,17.5 C7,19.4329965 5.43299651,21 3.5,21 C1.56700349,21 0,19.4329965 0,17.5 Z"></path>
                <path d="M7,0 L10.5,0 C12.4329965,0 14,1.56700349 14,3.5 C14,5.43299651 12.4329965,7 10.5,7 L7,7 L7,0 Z"></path>
                <path d="M7,10.5 C7,8.56700349 8.56700349,7 10.5,7 C12.4329965,7 14,8.56700349 14,10.5 C14,12.4329965 12.4329965,14 10.5,14 C8.56700349,14 7,12.4329965 7,10.5 Z"></path>
            </g>
        </g>
    </g>
</svg>