<?xml version="1.0" encoding="UTF-8"?>
<svg width="24px" height="24px" viewBox="0 0 24 24" version="1.1" xmlns="http://www.w3.org/2000/svg" xmlns:xlink="http://www.w3.org/1999/xlink">
    <title>file-code-02</title>
    <g id="Line-icons" stroke="none" stroke-width="1" fill="none" fill-rule="evenodd" stroke-linecap="round" stroke-linejoin="round">
        <g id="Development" transform="translate(-336, -716)" fill-rule="nonzero" stroke="#000000" stroke-width="2">
            <g id="Icon" transform="translate(338.5, 718)">
                <polyline points="6.5 12.5 9 10 6.5 7.5"></polyline>
                <polyline points="2.5 7.5 0 10 2.5 12.5"></polyline>
                <path d="M2.5,16.5 C2.5,16.9644203 2.5,17.1966305 2.52566528,17.3915787 C2.70289591,18.7377796 3.7622205,19.7971039 5.10842133,19.9743347 C5.30336952,20 5.53557968,20 6,20 L13.6999998,20 C15.3801575,20 16.2202377,20 16.8619728,19.6730194 C17.4264584,19.3853989 17.8853998,18.9264584 18.1730194,18.3619709 C18.5,17.7202358 18.5,16.8801575 18.5,15.1999998 L18.5,7.98822498 C18.5,7.25445318 18.5,6.88756704 18.4171104,6.54230452 C18.3436203,6.23619604 18.2224064,5.94356203 18.0579205,5.67514515 C17.8723965,5.37239695 17.6129627,5.11296034 17.0941124,4.59411192 L13.9058876,1.40588748 C13.3870325,0.88703239 13.1276045,0.627604842 12.8248549,0.442079484 C12.5564384,0.277593404 12.2638044,0.156380445 11.957695,0.0828902423 C11.6124325,0 11.2455473,0 10.511775,0 L6,0 C5.53557968,0 5.30336952,0 5.10842133,0.0256653987 C3.7622205,0.202896025 2.70289591,1.26222074 2.52566528,2.60842156 C2.5,2.80336976 2.5,3.03557968 2.5,3.5"></path>
            </g>
        </g>
    </g>
</svg>