<?xml version="1.0" encoding="UTF-8"?>
<svg width="24px" height="24px" viewBox="0 0 24 24" version="1.1" xmlns="http://www.w3.org/2000/svg" xmlns:xlink="http://www.w3.org/1999/xlink">
    <title>film-02</title>
    <g id="Line-icons" stroke="none" stroke-width="1" fill="none" fill-rule="evenodd" stroke-linecap="round" stroke-linejoin="round">
        <g id="Media-&amp;-devices" transform="translate(-64, -916)" fill-rule="nonzero" stroke="#000000" stroke-width="2">
            <g id="Icon" transform="translate(66, 918)">
                <path d="M4.79999924,20 C3.11984241,20 2.27976424,20 1.63802898,19.6730194 C1.07354277,19.3853993 0.614601165,18.9264571 0.326981038,18.3619709 C0,17.7202357 0,16.8801579 0,15.2000008 L0,4.80000067 C0,3.11984313 0,2.27976435 0.326980323,1.6380291 C0.61460042,1.07354283 1.07354206,0.614601165 1.63802826,0.326981038 C2.27976352,0 3.11984253,0 4.80000019,0 L15.1999998,0 C16.8801574,0 17.7202356,0 18.3619709,0.326980323 C18.9264572,0.61460045 19.3853993,1.07354212 19.6730194,1.63802838 C20,2.27976364 20,3.11984265 20,4.80000019 L20,15.1999998 C20,16.8801575 20,17.7202356 19.6730194,18.3619709 C19.3853993,18.9264571 18.9264571,19.3853993 18.3619709,19.6730194 C17.7202356,20 16.8801574,20 15.1999998,20 L4.79999924,20 Z"></path>
                <path d="M5,15 L5,20 M5,0 L5,5 M15,15 L15,20 M15,0 L15,5 M20,5 L0,5 M20,15 L0,15 M10,20 L10,0"></path>
            </g>
        </g>
    </g>
</svg>