<?xml version="1.0" encoding="UTF-8"?>
<svg width="24px" height="24px" viewBox="0 0 24 24" version="1.1" xmlns="http://www.w3.org/2000/svg" xmlns:xlink="http://www.w3.org/1999/xlink">
    <title>film-03</title>
    <g id="Line-icons" stroke="none" stroke-width="1" fill="none" fill-rule="evenodd" stroke-linecap="round" stroke-linejoin="round">
        <g id="Media-&amp;-devices" transform="translate(-64, -956)" fill-rule="nonzero" stroke="#000000" stroke-width="2">
            <g id="Icon" transform="translate(66, 958)">
                <path d="M0,4.79999971 C0,3.11984241 0,2.27976376 0.326980442,1.6380285 C0.614600539,1.0735423 1.0735423,0.614600539 1.6380285,0.326980442 C2.27976376,0 3.11984253,0 4.80000019,0 L8.39999962,0 C8.96005231,0 9.24007919,0 9.45399094,0.108993486 C9.64215301,0.204866856 9.7951331,0.357847407 9.89100647,0.546009481 C10,0.759921223 10,1.03994751 10,1.60000002 L10,18 L4.80000019,18 C3.11984253,18 2.27976376,18 1.6380285,17.6730194 C1.0735423,17.3853993 0.614600539,16.9264571 0.326980442,16.3619709 C0,15.7202356 0,14.8801575 0,13.1999998 L0,4.79999971 Z"></path>
                <path d="M10,2 L15.1999998,2 C16.8801575,2 17.7202356,2 18.3619709,2.32698035 C18.9264571,2.61460045 19.3853993,3.07354218 19.6730194,3.63802838 C20,4.27976364 20,5.11984253 20,6.80000019 L20,15.2000008 C20,16.8801581 20,17.7202356 19.6730194,18.3619709 C19.3853993,18.9264571 18.9264571,19.3853993 18.3619709,19.6730194 C17.7202356,20 16.8801575,20 15.1999998,20 L11.6000004,20 C11.0399477,20 10.7599208,20 10.5460091,19.8910065 C10.357847,19.7951331 10.2048669,19.642153 10.1089935,19.4539909 C10,19.2400792 10,18.9600521 10,18.3999996 L10,2 Z"></path>
                <path d="M5,4 L5,0 M5,18 L5,14 M15,6 L15,2 M15,20 L15,16 M10,4 L0,4 M10,14 L0,14 M20,6 L10,6 M10,16 L20,16"></path>
            </g>
        </g>
    </g>
</svg>