<?xml version="1.0" encoding="UTF-8"?>
<svg width="24px" height="24px" viewBox="0 0 24 24" version="1.1" xmlns="http://www.w3.org/2000/svg" xmlns:xlink="http://www.w3.org/1999/xlink">
    <title>filter-funnel-02</title>
    <g id="Line-icons" stroke="none" stroke-width="1" fill="none" fill-rule="evenodd" stroke-linecap="round" stroke-linejoin="round">
        <g id="General" transform="translate(-336, -676)" fill-rule="nonzero" stroke="#000000" stroke-width="2">
            <g id="filter-funnel-02" transform="translate(338.2363, 679)">
                <path d="M1.14956439,2.66686988 C0.39322412,1.8215484 0.0150539534,1.39888766 0.000789223588,1.03968036 C-0.0116025346,0.727637291 0.122493282,0.4277208 0.363303423,0.228886932 C0.640511215,0 1.20765817,0 2.34195232,0 L17.1848831,0 C18.319177,0 18.8863245,0 19.1635323,0.228886932 C19.4043424,0.4277208 19.5384385,0.727637291 19.5260468,1.03968036 C19.511782,1.39888766 19.1336112,1.82154924 18.3772697,2.66687202 L12.671031,9.04443169 C12.5202629,9.21293724 12.4448794,9.29718985 12.3911276,9.39307594 C12.3434546,9.47811825 12.3084742,9.56967553 12.2872963,9.6648407 C12.263418,9.77214041 12.2634172,9.8851945 12.2634172,10.1113033 L12.2634172,15.4583731 C12.2634172,15.6539349 12.2634178,15.7517163 12.2318773,15.836257 C12.2040081,15.9109571 12.1586793,15.9779097 12.0996723,16.0315285 C12.0328921,16.0922107 11.9421049,16.1285249 11.7605305,16.2011547 L8.36053085,17.5611553 C7.9929868,17.7081729 7.80921456,17.7816817 7.66169071,17.7510262 C7.53268318,17.7242184 7.41947228,17.6475708 7.34666967,17.5377464 C7.26341777,17.4121591 7.26341772,17.2142295 7.26341772,16.8183727 L7.26341772,10.1113033 C7.26341772,9.88519463 7.26341742,9.77214041 7.23953915,9.6648407 C7.21836128,9.56967553 7.18338087,9.47811825 7.13570786,9.39307594 C7.08195603,9.29718985 7.0065717,9.21293733 6.85580349,9.04443169 L1.14956439,2.66686988 Z" id="Icon"></path>
            </g>
        </g>
    </g>
</svg>