<?xml version="1.0" encoding="UTF-8"?>
<svg width="24px" height="24px" viewBox="0 0 24 24" version="1.1" xmlns="http://www.w3.org/2000/svg" xmlns:xlink="http://www.w3.org/1999/xlink">
    <title>filter-funnel-01</title>
    <g id="Line-icons" stroke="none" stroke-width="1" fill="none" fill-rule="evenodd" stroke-linecap="round" stroke-linejoin="round">
        <g id="General" transform="translate(-336, -636)" fill-rule="nonzero" stroke="#000000" stroke-width="2">
            <g id="filter-funnel-01" transform="translate(338, 639)">
                <path d="M0,1.60000002 C0,1.03994751 0,0.759921223 0.108993486,0.546009481 C0.204866856,0.357847407 0.357847407,0.204866856 0.546009481,0.108993486 C0.759921223,0 1.03994739,0 1.5999999,0 L18.3999996,0 C18.9600527,0 19.2400792,0 19.4539909,0.108993486 C19.642153,0.204866856 19.7951331,0.357847407 19.8910065,0.546009481 C20,0.759921223 20,1.03994757 20,1.60000014 L20,2.26939368 C20,2.53819063 20,2.67258898 19.9671535,2.7975626 C19.9380467,2.90830915 19.8901351,3.01323386 19.8255081,3.10776091 C19.7525788,3.21443139 19.6510162,3.30245304 19.4478893,3.47849631 L13.0521116,9.02150345 C12.8489847,9.19754678 12.7474212,9.28556813 12.6744919,9.39223862 C12.6098649,9.48676567 12.5619533,9.59169085 12.5328465,9.7024374 C12.5,9.82741102 12.5,9.96180922 12.5,10.2306061 L12.5,15.4583731 C12.5,15.6539349 12.5,15.7517163 12.4684591,15.836257 C12.4405899,15.9109571 12.3952611,15.9779097 12.3362541,16.0315285 C12.2694739,16.0922107 12.1786867,16.1285249 11.9971123,16.2011547 L8.59711266,17.5611553 C8.2295686,17.7081729 8.04579684,17.7816817 7.89827299,17.7510262 C7.76926546,17.7242184 7.65605456,17.6475708 7.58325195,17.5377464 C7.5,17.4121591 7.5,17.2142295 7.5,16.8183727 L7.5,10.2306061 C7.5,9.96180934 7.5,9.82741102 7.46715403,9.7024374 C7.43804714,9.59169085 7.39013556,9.48676567 7.32550859,9.39223862 C7.25257931,9.28556813 7.1510157,9.19754672 6.94788885,9.02150345 L0.552111268,3.47849655 C0.348984346,3.30245322 0.247420885,3.21443139 0.174491599,3.10776091 C0.10986463,3.01323386 0.0619529895,2.90830915 0.0328461044,2.7975626 C0,2.67258898 0,2.53819054 0,2.26939368 L0,1.60000002 Z" id="Icon"></path>
            </g>
        </g>
    </g>
</svg>