<?xml version="1.0" encoding="UTF-8"?>
<svg width="24px" height="24px" viewBox="0 0 24 24" version="1.1" xmlns="http://www.w3.org/2000/svg" xmlns:xlink="http://www.w3.org/1999/xlink">
    <title>flag-06</title>
    <g id="Line-icons" stroke="none" stroke-width="1" fill="none" fill-rule="evenodd" stroke-linecap="round" stroke-linejoin="round">
        <g id="Maps-&amp;-travel" transform="translate(-64, -596)" fill-rule="nonzero" stroke="#000000" stroke-width="2">
            <g id="Icon" transform="translate(68, 599)">
                <path d="M0,1.60000026 C0,1.03994757 0,0.759921223 0.108993486,0.546009481 C0.204866856,0.357847407 0.357847407,0.204866856 0.546009481,0.108993486 C0.759921223,0 1.03994751,0 1.60000002,0 L7.4000001,0 C7.96005249,0 8.24007824,0 8.45398998,0.108993486 C8.64215206,0.204866856 8.7951331,0.357847407 8.89100647,0.546009481 C9,0.759921223 9,1.03994739 9,1.5999999 L9,8.39999962 C9,8.96005231 9,9.24007919 8.89100647,9.45399094 C8.7951331,9.64215301 8.64215206,9.7951331 8.45398998,9.89100647 C8.24007824,10 7.96005213,10 7.39999962,10 L0,10 L0,1.60000026 Z"></path>
                <path d="M9,2 L15.3999996,2 C15.9600521,2 16.2400792,2 16.4539909,2.10899353 C16.642153,2.2048669 16.7951331,2.35784747 16.8910065,2.54600954 C17,2.75992128 17,3.03994739 17,3.5999999 L17,10.3999996 C17,10.9600523 17,11.2400792 16.8910065,11.4539909 C16.7951331,11.642153 16.642153,11.7951331 16.4539909,11.8910065 C16.2400792,12 15.9600521,12 15.3999996,12 L10.6000004,12 C10.0399479,12 9.75992081,12 9.54600906,11.8910065 C9.35784699,11.7951331 9.2048669,11.642153 9.10899353,11.4539909 C9,11.2400792 9,10.9600521 9,10.3999996 L9,2 Z"></path>
                <line x1="7.43093551e-07" y1="18" x2="0" y2="1"></line>
            </g>
        </g>
    </g>
</svg>