<?xml version="1.0" encoding="UTF-8"?>
<svg width="24px" height="24px" viewBox="0 0 24 24" version="1.1" xmlns="http://www.w3.org/2000/svg" xmlns:xlink="http://www.w3.org/1999/xlink">
    <title>flag-03</title>
    <g id="Line-icons" stroke="none" stroke-width="1" fill="none" fill-rule="evenodd" stroke-linecap="round" stroke-linejoin="round">
        <g id="Maps-&amp;-travel" transform="translate(-64, -476)" fill-rule="nonzero" stroke="#000000" stroke-width="2">
            <g id="flag-03" transform="translate(68, 479)">
                <path d="M0,10 L15.5870476,10 C16.0495224,10 16.2807598,10 16.4128342,9.90301991 C16.5279999,9.8184576 16.6014862,9.68866634 16.6147461,9.54640579 C16.6299553,9.38326073 16.5109692,9.18495655 16.2730408,8.78840256 L14.2469578,5.41159678 C14.1571684,5.26194668 14.1122732,5.18712139 14.0947323,5.10724401 C14.079216,5.03658962 14.079216,4.96341038 14.0947323,4.89275599 C14.1122732,4.81287861 14.1571684,4.73805332 14.2469578,4.58840322 L16.2730427,1.21159661 C16.5109844,0.815027356 16.6299553,0.61674273 16.6147461,0.453594238 C16.6014862,0.311334103 16.5279999,0.181542814 16.4128342,0.0969797 C16.2807598,0 16.0495224,0 15.5870476,0 L0,0 L0,18" id="Icon"></path>
            </g>
        </g>
    </g>
</svg>