<?xml version="1.0" encoding="UTF-8"?>
<svg width="24px" height="24px" viewBox="0 0 24 24" version="1.1" xmlns="http://www.w3.org/2000/svg" xmlns:xlink="http://www.w3.org/1999/xlink">
    <title>flag-05</title>
    <g id="Line-icons" stroke="none" stroke-width="1" fill="none" fill-rule="evenodd" stroke-linecap="round" stroke-linejoin="round">
        <g id="Maps-&amp;-travel" transform="translate(-64, -556)" fill-rule="nonzero" stroke="#000000" stroke-width="2">
            <g id="Icon" transform="translate(66.7935, 558.5)">
                <path d="M0.203540385,1.98807156 C0.0341177881,1.31040776 -0.0505935177,0.971575886 0.0318804756,0.704721153 C0.10416501,0.470835656 0.259730354,0.271589294 0.469099879,0.1447355 C0.707982779,0 1.05724347,0 1.75576484,0 L9.71764851,0 C10.2777013,0 10.5577281,0 10.7716398,0.108993486 C10.9598019,0.204866856 11.1127829,0.357847407 11.2086563,0.546009481 C11.3176498,0.759921223 11.3176489,1.03994745 11.3176489,1.60000002 L11.3176489,6.84444523 C11.3176489,7.40449744 11.3176498,7.68452337 11.2086563,7.89843512 C11.1127829,8.08659719 10.9598019,8.23957776 10.7716398,8.33545113 C10.5577281,8.44444461 10.277702,8.44444466 9.71764946,8.44444466 L1.81769693,8.44444466 L0.203540385,1.98807156 Z"></path>
                <path d="M11.3176432,4.22216797 L17.34692,4.22216797 C17.7942181,4.22216797 18.017869,4.22216812 18.1486626,4.31620979 C18.2627811,4.39826208 18.3370934,4.52455801 18.3533993,4.66416407 C18.3720875,4.82416919 18.2634745,5.01967341 18.0462475,5.4106822 L16.5766945,8.05587578 C16.4979153,8.19767785 16.4585276,8.26857853 16.4430847,8.34366417 C16.4294167,8.41011906 16.4294167,8.47866154 16.4430847,8.54511642 C16.4585276,8.62020206 16.4979153,8.6911025 16.5766945,8.83290482 L18.0462475,11.4780979 C18.2634706,11.8691015 18.3720875,12.0646124 18.3533993,12.224617 C18.3370934,12.3642225 18.2627811,12.4905186 18.1486626,12.5725708 C18.017869,12.6666126 17.79422,12.6666126 17.3469219,12.6666126 L9.75097942,12.6666126 C9.190925,12.6666126 8.91089797,12.6666126 8.6969862,12.5576191 C8.50882414,12.4617462 8.35584308,12.3087659 8.25996971,12.1206036 C8.15097623,11.906692 8.15097618,11.6266651 8.15097618,11.0666122 L8.15097618,8.4443903 M4.45654202,19.0002174 L0.234319761,2.11132812"></path>
            </g>
        </g>
    </g>
</svg>