<?xml version="1.0" encoding="UTF-8"?>
<svg width="24px" height="24px" viewBox="0 0 24 24" version="1.1" xmlns="http://www.w3.org/2000/svg" xmlns:xlink="http://www.w3.org/1999/xlink">
    <title>flag-04</title>
    <g id="Line-icons" stroke="none" stroke-width="1" fill="none" fill-rule="evenodd" stroke-linecap="round" stroke-linejoin="round">
        <g id="Maps-&amp;-travel" transform="translate(-64, -516)" fill-rule="nonzero" stroke="#000000" stroke-width="2">
            <g id="Icon" transform="translate(67, 518.5)">
                <path d="M0,1.5999999 C0,1.03994745 0,0.759921223 0.108993486,0.546009481 C0.204866856,0.357847407 0.357847407,0.204866856 0.546009481,0.108993486 C0.759921223,0 1.03994745,0 1.60000002,0 L8.89999962,0 C9.46005249,0 9.74007919,0 9.95399094,0.108993486 C10.142153,0.204866856 10.2951331,0.357847407 10.3910065,0.546009481 C10.5,0.759921223 10.5,1.03994751 10.5,1.60000002 L10.5,6.9000001 C10.5,7.46005255 10.5,7.74007872 10.3910065,7.95399046 C10.2951331,8.14215253 10.142153,8.2951331 9.95399094,8.39100647 C9.74007919,8.5 9.46005219,8.5 8.89999962,8.5 L0,8.5 L0,1.5999999 Z"></path>
                <path d="M11.2590113,4 L16.705574,4 L16.705574,4 C17.1341829,4 17.3484869,4 17.4775543,4.09027147 C17.5902557,4.16909681 17.6655121,4.29086459 17.6856136,4.42691994 C17.7086344,4.58273017 17.6127911,4.77441901 17.4211159,5.15777111 L16.1688404,7.66231823 C16.1067953,7.78640866 16.0757723,7.84845424 16.0626144,7.91366911 C16.0509567,7.97144914 16.0496092,8.03083467 16.0586319,8.08908463 C16.0688143,8.1548295 16.0969868,8.21821976 16.1533337,8.34499931 L17.5000381,11.3750877 C17.6666622,11.7499919 17.7499743,11.9374442 17.7226753,12.088768 C17.6988182,12.2210112 17.622736,12.3380852 17.5115795,12.4135952 C17.3843851,12.5 17.1792526,12.5 16.7689896,12.5 L9.10000038,12.5 C8.53994751,12.5 8.25992084,12.5 8.04600906,12.3910065 C7.85784701,12.2951336 7.7048669,12.1421533 7.60899353,11.9539909 C7.5,11.7400794 7.5,11.460052 7.5,10.8999996 L7.5,8.99008897 C7.5,8.77617131 7.50464411,8.7055344 7.51756303,8.62648556 C7.53048195,8.54743672 7.55167567,8.47743861 7.58477489,8.40449987 C7.61787411,8.33156113 7.65319228,8.27021158 7.77185245,8.09222133 M0,18.5 L0,1"></path>
            </g>
        </g>
    </g>
</svg>