<?xml version="1.0" encoding="UTF-8"?>
<svg width="24px" height="24px" viewBox="0 0 24 24" version="1.1" xmlns="http://www.w3.org/2000/svg" xmlns:xlink="http://www.w3.org/1999/xlink">
    <title>folder-code</title>
    <g id="Line-icons" stroke="none" stroke-width="1" fill="none" fill-rule="evenodd" stroke-linecap="round" stroke-linejoin="round">
        <g id="Development" transform="translate(-608, -156)" fill-rule="nonzero" stroke="#000000" stroke-width="2">
            <g id="Icon" transform="translate(610, 159)">
                <path d="M0,4 L15.1999998,4 C16.8801575,4 17.7202356,4 18.3619709,4.32698059 C18.9264571,4.61460069 19.3853993,5.07354242 19.6730194,5.63802862 C20,6.27976388 20,7.11984253 20,8.80000019 L20,13.1999998 C20,14.8801577 20,15.7202356 19.6730194,16.3619709 C19.3853993,16.9264571 18.9264571,17.3853993 18.3619709,17.6730194 C17.7202356,18 16.8801575,18 15.1999998,18 L4.80000019,18 C3.11984253,18 2.27976376,18 1.6380285,17.6730194 C1.0735423,17.3853993 0.614600539,16.9264571 0.326980442,16.3619709 C0,15.7202356 0,14.8801575 0,13.1999998 L0,4 Z"></path>
                <polyline points="12 13.5 14.5 11 12 8.5"></polyline>
                <polyline points="8 8.5 5.5 11 8 13.5"></polyline>
                <path d="M11,4 L9.88445854,1.76891625 C9.56340313,1.12680328 9.40286446,0.805730224 9.16337013,0.571163654 C8.95157909,0.363730609 8.69632339,0.205973998 8.41607475,0.109309569 C8.09916401,0 7.74020672,0 7.02229118,0 L3.20000005,0 C2.07989502,0 1.51984251,0 1.09201896,0.217986971 C0.715694845,0.409733713 0.409733713,0.715694845 0.217986971,1.09201896 C0,1.51984251 0,2.07989502 0,3.20000005 L0,4"></path>
            </g>
        </g>
    </g>
</svg>