<?xml version="1.0" encoding="UTF-8"?>
<svg width="24px" height="24px" viewBox="0 0 24 24" version="1.1" xmlns="http://www.w3.org/2000/svg" xmlns:xlink="http://www.w3.org/1999/xlink">
    <title>gaming-pad-01</title>
    <g id="Line-icons" stroke="none" stroke-width="1" fill="none" fill-rule="evenodd" stroke-linecap="round" stroke-linejoin="round">
        <g id="Media-&amp;-devices" transform="translate(-64, -996)" fill-rule="nonzero" stroke="#000000" stroke-width="2">
            <g id="Icon" transform="translate(66.2157, 1001)">
                <path d="M11.3353615,0 L8.23326969,0 C5.60838175,0 4.29593754,0 3.26577377,0.497431099 C2.35875869,0.935397804 1.60516131,1.63708687 1.1036855,2.51059294 C0.534122348,3.50269842 0.4406147,4.81180573 0.253599346,7.43002081 L0.00756482733,10.8745041 C-0.113072105,12.5634212 1.22455335,14 2.91777349,14 C3.78366518,14 4.60482264,13.6153908 5.15915298,12.9501944 L5.53431463,12.5 C5.87747335,12.0882101 6.04905272,11.8823147 6.24442148,11.7159462 C6.65399313,11.3671694 7.1498127,11.1349401 7.67995119,11.0435801 C7.93283176,11 8.20084763,11 8.7368784,11 L10.8317518,11 C11.3677826,11 11.6357985,11 11.8886786,11.0435801 C12.4188175,11.1349401 12.9146376,11.3671694 13.3242083,11.7159462 C13.5195723,11.8823099 13.6911764,12.0882339 14.0343151,12.5 L14.4094763,12.9501934 C14.9638071,13.6153898 15.7849655,14 16.650856,14 C18.3440762,14 19.6817017,12.5634222 19.5610657,10.874505 L19.3150311,7.43002224 C19.1280155,4.8118062 19.0345078,3.50269842 18.4649448,2.51059294 C17.9634686,1.63708687 17.2098713,0.935397804 16.3028564,0.497431099 C15.2726927,0 13.9602489,0 11.3353615,0 Z"></path>
                <path d="M7.78431511,6 L3.78431511,6 M5.78431511,8 L5.78431511,4 M12.7943153,7 L12.7843151,7 M15.7843151,5 L15.7943153,5"></path>
            </g>
        </g>
    </g>
</svg>