<?xml version="1.0" encoding="UTF-8"?>
<svg width="24px" height="24px" viewBox="0 0 24 24" version="1.1" xmlns="http://www.w3.org/2000/svg" xmlns:xlink="http://www.w3.org/1999/xlink">
    <title>git-branch-01</title>
    <g id="Line-icons" stroke="none" stroke-width="1" fill="none" fill-rule="evenodd" stroke-linecap="round" stroke-linejoin="round">
        <g id="Development" transform="translate(-608, -196)" fill-rule="nonzero" stroke="#000000" stroke-width="2">
            <g id="Icon" transform="translate(611, 199)">
                <path d="M15,8 C16.6568542,8 18,6.65685415 18,5 C18,3.34314573 16.6568542,2 15,2 C13.3431457,2 12,3.34314668 12,5 C12,6.65685511 13.3431457,8 15,8 Z"></path>
                <path d="M15,18 C16.6568542,18 18,16.6568542 18,15 C18,13.3431457 16.6568542,12 15,12 C13.3431457,12 12,13.3431457 12,15 C12,16.6568542 13.3431457,18 15,18 Z"></path>
                <path d="M0,0 L0,10.1999998 C0,11.8801575 0,12.7202368 0.326980442,13.3619719 C0.614600539,13.9264574 1.07354224,14.3853998 1.6380285,14.6730194 C2.2797637,15 3.11984253,15 4.80000019,15 L12,15 M0,5 L12,5"></path>
            </g>
        </g>
    </g>
</svg>