<?xml version="1.0" encoding="UTF-8"?>
<svg width="24px" height="24px" viewBox="0 0 24 24" version="1.1" xmlns="http://www.w3.org/2000/svg" xmlns:xlink="http://www.w3.org/1999/xlink">
    <title>git-branch-02</title>
    <g id="Line-icons" stroke="none" stroke-width="1" fill="none" fill-rule="evenodd" stroke-linecap="round" stroke-linejoin="round">
        <g id="Development" transform="translate(-608, -236)" fill-rule="nonzero" stroke="#000000" stroke-width="2">
            <g id="Icon" transform="translate(611, 239)">
                <path d="M15,6 C16.6568542,6 18,4.65685415 18,3 C18,1.34314573 16.6568542,0 15,0 C13.3431457,0 12,1.34314573 12,3 C12,4.65685415 13.3431457,6 15,6 Z"></path>
                <path d="M3,18 C4.65685415,18 6,16.6568542 6,15 C6,13.3431457 4.65685415,12 3,12 C1.34314573,12 0,13.3431457 0,15 C0,16.6568542 1.34314573,18 3,18 Z"></path>
                <path d="M15,6 C15,8.38694835 14.0517886,10.6761339 12.3639612,12.3639612 C10.6761339,14.0517886 8.38694835,15 6,15"></path>
                <line x1="3" y1="0" x2="3" y2="12"></line>
            </g>
        </g>
    </g>
</svg>