<?xml version="1.0" encoding="UTF-8"?>
<svg width="24px" height="24px" viewBox="0 0 24 24" version="1.1" xmlns="http://www.w3.org/2000/svg" xmlns:xlink="http://www.w3.org/1999/xlink">
    <title>glasses-02</title>
    <g id="Line-icons" stroke="none" stroke-width="1" fill="none" fill-rule="evenodd" stroke-linecap="round" stroke-linejoin="round">
        <g id="Education" transform="translate(-608, -316)" fill-rule="nonzero" stroke="#000000" stroke-width="2">
            <g id="Icon" transform="translate(610, 321)">
                <path d="M6.82843018,7.1715703 C8.39052379,8.73366416 8.39052379,11.2663268 6.82843018,12.8284302 C5.26633656,14.390524 2.73367357,14.390524 1.1715703,12.8284302 C-0.390523314,11.2663363 -0.390523314,8.73367369 1.1715703,7.1715703 C2.73366392,5.60947645 5.2663269,5.60947645 6.82843018,7.1715703 Z"></path>
                <path d="M18.8284302,7.1715703 C20.3905238,8.73366416 20.3905238,11.2663268 18.8284302,12.8284302 C17.2663366,14.390524 14.7336731,14.390524 13.1715698,12.8284302 C11.6094762,11.2663363 11.6094762,8.73367369 13.1715698,7.1715703 C14.7336634,5.60947645 17.2663269,5.60947645 18.8284302,7.1715703 Z"></path>
                <path d="M11.9998827,9.53471661 C10.7663414,8.82176125 9.23353684,8.82176125 8,9.53471661 M0.701488733,2.98511267 L0.701488733,2.98511267 L0.701488733,2.98511267 C0.728084743,2.71915245 0.741383195,2.58616853 0.761777461,2.47208238 C1.00222421,1.12701631 2.12120175,0.11435554 3.48351812,0.00894109719 C3.59906769,0 3.73271179,0 4,0 M20,10 L19.2985115,2.98511267 C19.2719162,2.71915793 19.2586162,2.58616734 19.2382221,2.47208238 C18.9977753,1.12701631 17.8787975,0.11435554 16.5164814,0.00894109719 C16.4009318,0 16.2672882,0 16,0"></path>
            </g>
        </g>
    </g>
</svg>