<?xml version="1.0" encoding="UTF-8"?>
<svg width="24px" height="24px" viewBox="0 0 24 24" version="1.1" xmlns="http://www.w3.org/2000/svg" xmlns:xlink="http://www.w3.org/1999/xlink">
    <title>glasses-01</title>
    <g id="Line-icons" stroke="none" stroke-width="1" fill="none" fill-rule="evenodd" stroke-linecap="round" stroke-linejoin="round">
        <g id="Education" transform="translate(-608, -276)" fill-rule="nonzero" stroke="#000000" stroke-width="2">
            <g id="Icon" transform="translate(610, 284)">
                <path d="M6.8284297,1.17157042 C8.39052331,2.73366427 8.39052331,5.26632631 6.8284297,6.8284297 C5.26633608,8.39052355 2.73367345,8.39052355 1.17157018,6.8284297 C-0.390523434,5.26633584 -0.390523434,2.73367381 1.17157018,1.17157042 C2.7336638,-0.390523434 5.26632643,-0.390523434 6.8284297,1.17157042 Z"></path>
                <path d="M18.8284302,1.17157042 C20.3905238,2.73366427 20.3905238,5.26632631 18.8284302,6.8284297 C17.2663366,8.39052355 14.7336731,8.39052355 13.1715698,6.8284297 C11.6094762,5.26633584 11.6094762,2.73367381 13.1715698,1.17157042 C14.7336634,-0.390523434 17.2663269,-0.390523434 18.8284302,1.17157042 Z"></path>
                <path d="M8,3.53471637 C9.23353684,2.82176101 10.7663414,2.82176101 11.9998827,3.53471637"></path>
            </g>
        </g>
    </g>
</svg>