<?xml version="1.0" encoding="UTF-8"?>
<svg width="24px" height="24px" viewBox="0 0 24 24" version="1.1" xmlns="http://www.w3.org/2000/svg" xmlns:xlink="http://www.w3.org/1999/xlink">
    <title>globe-02</title>
    <g id="Line-icons" stroke="none" stroke-width="1" fill="none" fill-rule="evenodd" stroke-linecap="round" stroke-linejoin="round">
        <g id="Maps-&amp;-travel" transform="translate(-336, -196)" fill-rule="nonzero" stroke="#000000" stroke-width="2">
            <g id="Icon" transform="translate(338, 198)">
                <path d="M10,0 C12.5012803,2.73835278 13.9227528,6.29203391 14,10 C13.9227528,13.7079661 12.5012803,17.2616472 10,20 C7.49871969,17.2616472 6.07724724,13.7079661 6,10 C6.07724724,6.29203391 7.49871969,2.73835278 10,0 Z"></path>
                <path d="M10,20 C15.5228481,20 20,15.5228481 20,10 C20,4.47715235 15.5228481,0 10,0 C4.47715235,0 0,4.47715235 0,10 C0,15.5228481 4.47715235,20 10,20 Z"></path>
                <path d="M19.5000191,7 L0.500019312,7 M0.5,13 L19.5,13"></path>
            </g>
        </g>
    </g>
</svg>