<?xml version="1.0" encoding="UTF-8"?>
<svg width="24px" height="24px" viewBox="0 0 24 24" version="1.1" xmlns="http://www.w3.org/2000/svg" xmlns:xlink="http://www.w3.org/1999/xlink">
    <title>globe-06</title>
    <g id="Line-icons" stroke="none" stroke-width="1" fill="none" fill-rule="evenodd" stroke-linecap="round" stroke-linejoin="round">
        <g id="Maps-&amp;-travel" transform="translate(-336, -356)" fill-rule="nonzero" stroke="#000000" stroke-width="2">
            <g id="Icon" transform="translate(338, 358)">
                <polygon points="14.7577858 19.9397926 11.5910034 11.5910034 19.9397926 14.7577858 16.2376385 16.2376385"></polygon>
                <path d="M0.686749458,13.6451187 L2.59494495,12.5435457 C2.69830346,12.4838781 2.81959558,12.4631491 2.93690443,12.4851036 L6.69140482,13.1877775 C6.99995327,13.2455235 7.28477621,13.0079908 7.28338099,12.694088 L7.26876068,9.40445137 C7.26836348,9.31507301 7.29193258,9.2272234 7.33701134,9.15004635 L9.23173809,5.90621376 C9.33034801,5.737391 9.32151127,5.52658033 9.20911884,5.36660147 L6.01892328,0.825683594 M17.0002193,2.85905027 C11.5002089,5.50004148 14.5000488,9.00004196 15.5002165,9.50004196 C16.7515941,10.1256259 18.2474033,10.4589453 19.9876442,10.5 C19.9958,10.3343515 20,10.1676626 20,10 C20,4.47715235 15.5228481,0 10,0 C4.47715235,0 0,4.47715235 0,10 C0,15.5228481 4.47715235,20 10,20 C10.1676626,20 10.3343611,19.9958725 10.5,19.9877167"></path>
            </g>
        </g>
    </g>
</svg>