<?xml version="1.0" encoding="UTF-8"?>
<svg width="24px" height="24px" viewBox="0 0 24 24" version="1.1" xmlns="http://www.w3.org/2000/svg" xmlns:xlink="http://www.w3.org/1999/xlink">
    <title>globe-05</title>
    <g id="Line-icons" stroke="none" stroke-width="1" fill="none" fill-rule="evenodd" stroke-linecap="round" stroke-linejoin="round">
        <g id="Maps-&amp;-travel" transform="translate(-336, -316)" fill-rule="nonzero" stroke="#000000" stroke-width="2">
            <g id="Icon" transform="translate(338, 318)">
                <path d="M15,10 C17,8 19,6.20913887 19,4 C19,1.79086089 17.2091389,0 15,0 C12.7908609,0 11,1.79086089 11,4 C11,6.20913887 13,8 15,10 Z"></path>
                <path d="M15.25,3.75 C15.25,3.88807119 15.1380712,4 15,4 C14.8619288,4 14.75,3.88807119 14.75,3.75 C14.75,3.61192881 14.8619288,3.5 15,3.5 C15.1380712,3.5 15.25,3.61192881 15.25,3.75 Z"></path>
                <path d="M13,0.457802266 C12.0529585,0.160353839 11.0452061,0 10,0 C4.47715235,0 0,4.47715235 0,10 C0,15.5228481 4.47715235,20 10,20 C15.5228481,20 20,15.5228481 20,10 C20,8.28467369 19.5681133,6.67021942 18.8071499,5.25944662 M15.0050001,3.75 L15,3.75 M8.50005341,19.888258 L8.50016117,17.6849251 C8.50016689,17.5655804 8.54286098,17.4501734 8.62052822,17.3595581 L11.1063118,14.459404 C11.3105955,14.2210665 11.2472982,13.8556352 10.9747524,13.699892 L8.11853313,12.0677357 C8.04093075,12.0233908 7.9766345,11.9590547 7.93233681,11.8814268 L6.07045841,8.6186285 C5.97355843,8.44881883 5.78657341,8.35106563 5.59183121,8.36841106 L0.0641834736,8.86074352"></path>
            </g>
        </g>
    </g>
</svg>