<?xml version="1.0" encoding="UTF-8"?>
<svg width="24px" height="24px" viewBox="0 0 24 24" version="1.1" xmlns="http://www.w3.org/2000/svg" xmlns:xlink="http://www.w3.org/1999/xlink">
    <title>globe-03</title>
    <g id="Line-icons" stroke="none" stroke-width="1" fill="none" fill-rule="evenodd" stroke-linecap="round" stroke-linejoin="round">
        <g id="Maps-&amp;-travel" transform="translate(-336, -236)" fill-rule="nonzero" stroke="#000000" stroke-width="2">
            <g id="Icon" transform="translate(338, 238)">
                <path d="M10,0 C13,2 13.9227531,6.29203296 14,10 C13.9227544,13.7079651 13,18 10,20 C7,18 6.07724884,13.707967 6,10 C6.07724755,6.29203486 7,2 10,0 Z"></path>
                <path d="M10,20 C15.522851,20 20,15.5228481 20,10 C20,4.47715235 15.5228472,0 10,0 C4.47715139,0 0,4.47715235 0,10 C0,15.5228481 4.47715521,20 10,20 Z"></path>
                <path d="M20,10 C18,13 13.7079661,13.9227529 10,14 C6.29203391,13.9227526 2,13 0,10 C2,7 6.29203391,6.07724708 10,6 C13.7079661,6.0772474 18,7 20,10 Z"></path>
            </g>
        </g>
    </g>
</svg>