<?xml version="1.0" encoding="UTF-8"?>
<svg width="24px" height="24px" viewBox="0 0 24 24" version="1.1" xmlns="http://www.w3.org/2000/svg" xmlns:xlink="http://www.w3.org/1999/xlink">
    <title>globe-04</title>
    <g id="Line-icons" stroke="none" stroke-width="1" fill="none" fill-rule="evenodd" stroke-linecap="round" stroke-linejoin="round">
        <g id="Maps-&amp;-travel" transform="translate(-336, -276)" fill-rule="nonzero" stroke="#000000" stroke-width="2">
            <g id="Icon" transform="translate(338, 278)">
                <path d="M12.5718517,16.0000191 C12.7283878,16.0000191 12.8066553,16.0000187 12.8776999,15.9784431 C12.940595,15.9593425 12.9991071,15.9280284 13.0498877,15.8862915 C13.1072478,15.8391467 13.1506624,15.774023 13.2374926,15.6437769 L14.4665213,13.8002234 C14.6496895,13.5254692 14.7412739,13.3880918 14.7495947,13.253685 C14.7568945,13.1357699 14.722205,13.0190793 14.6516771,12.9243002 C14.5712851,12.8162652 14.419528,12.7512263 14.1160145,12.6211491 L11.5844016,11.5361721 C11.5370463,11.515877 11.5264778,11.5112667 11.5151996,11.5065892 C11.5039214,11.5019116 11.4957991,11.4988235 11.4842621,11.4948267 C11.472725,11.4908299 11.4617632,11.4872544 11.412886,11.470962 L10.6582308,11.2194099 L10.6582308,11.2194099 C10.424837,11.141612 10.3081403,11.1027135 10.1999226,11.1143284 C10.1045567,11.1245639 10.0141475,11.1620127 9.93947601,11.222209 C9.85474158,11.2905175 9.79972965,11.4005407 9.6897068,11.6205864 L9.14819336,12.7036133 C9.09350139,12.8129972 9.0661551,12.86769 9.05277729,12.9253368 C9.04091657,12.9764463 9.03717452,13.0291038 9.04168797,13.081377 C9.04677872,13.1403364 9.06611497,13.1983461 9.10478783,13.3143654 L9.81766129,15.4529991 C9.88322954,15.6497051 9.91601312,15.748058 9.9768219,15.8207731 C10.0305197,15.884985 10.0994793,15.9346885 10.1773767,15.9653254 C10.2655898,16.0000192 10.369263,16.0000191 10.5766087,16.0000191 L12.5718517,16.0000191 Z"></path>
                <path d="M10,20 C15.5228481,20 20,15.5228481 20,10 C20,4.47715235 15.5228481,0 10,0 C4.47715235,0 0,4.47715235 0,10 C0,15.5228481 4.47715235,20 10,20 Z"></path>
                <path d="M1.7747525,5.98193213 L5.36402416,8.5456543 L5.36402416,8.5456543 C5.58715105,8.70502758 5.69871521,8.7847147 5.81547642,8.80307579 C5.9182148,8.81923199 6.02343416,8.80294895 6.11648369,8.75649452 C6.22223377,8.70370102 6.30449343,8.59402084 6.46901226,8.37466049 L7.37511349,7.16651583 C7.42163706,7.10448408 7.44489908,7.07346869 7.47224045,7.0467124 C7.49651766,7.02295494 7.52315283,7.0017333 7.55173302,6.98337603 C7.58392,6.96270227 7.61934805,6.94695616 7.69020462,6.9154644 L11.5587988,5.19608927 C11.7191629,5.12481642 11.799345,5.08917999 11.859808,5.03352404 C11.9132862,4.98429728 11.955389,4.92400217 11.9831829,4.85683966 C12.0146065,4.7809062 12.020443,4.69335604 12.0321159,4.51825523 L12.2592481,1.11128193 C12.2776169,0.835751175 12.0691459,0.597498532 11.7936152,0.579129764 C11.7098816,0.573547513 11.6260899,0.589130521 11.5499617,0.62444277"></path>
            </g>
        </g>
    </g>
</svg>