<?xml version="1.0" encoding="UTF-8"?>
<svg width="24px" height="24px" viewBox="0 0 24 24" version="1.1" xmlns="http://www.w3.org/2000/svg" xmlns:xlink="http://www.w3.org/1999/xlink">
    <title>globe-slated-01</title>
    <g id="Line-icons" stroke="none" stroke-width="1" fill="none" fill-rule="evenodd" stroke-linecap="round" stroke-linejoin="round">
        <g id="Education" transform="translate(-608, -356)" fill-rule="nonzero" stroke="#000000" stroke-width="2">
            <g id="Icon" transform="translate(610.5821, 358.3683)">
                <path d="M7.9178896,15.6317282 C12.0600252,15.6317282 15.4178896,12.2738638 15.4178896,8.13172817 C15.4178896,3.98959255 12.0600252,0.631728172 7.9178896,0.631728172 C3.77575397,0.631728172 0.417889416,3.98959255 0.417889416,8.13172817 C0.417889416,12.2738638 3.77575397,15.6317282 7.9178896,15.6317282 Z"></path>
                <path d="M16.0496197,0 C20.5406475,4.49102879 20.5406494,11.7724266 16.0496197,16.2634563 C11.7487812,20.5642948 4.88890409,20.7464314 0.371320248,16.809864 C0.174305081,16.6381874 0.0757974908,16.5523491 0.0313312039,16.4349937 C-0.00608179718,16.3362541 -0.0102704223,16.2142162 0.0202845875,16.1131439 C0.0565999988,15.9930172 0.155015379,15.8946018 0.351846159,15.6977711 L2.56709576,13.482522"></path>
            </g>
        </g>
    </g>
</svg>