<?xml version="1.0" encoding="UTF-8"?>
<svg width="24px" height="24px" viewBox="0 0 24 24" version="1.1" xmlns="http://www.w3.org/2000/svg" xmlns:xlink="http://www.w3.org/1999/xlink">
    <title>google-chrome</title>
    <g id="Line-icons" stroke="none" stroke-width="1" fill="none" fill-rule="evenodd" stroke-linecap="round" stroke-linejoin="round">
        <g id="General" transform="translate(-336, -756)" fill-rule="nonzero" stroke="#000000" stroke-width="2">
            <g id="Icon" transform="translate(338, 758)">
                <path d="M10,20 C15.5228481,20 20,15.5228481 20,10 C20,4.47715235 15.5228481,0 10,0 C4.47715235,0 0,4.47715235 0,10 C0,15.5228481 4.47715235,20 10,20 Z"></path>
                <path d="M10,14 C12.2091389,14 14,12.2091389 14,10 C14,7.79086089 12.2091389,6 10,6 C7.79086089,6 6,7.79086089 6,10 C6,12.2091389 7.79086089,14 10,14 Z"></path>
                <path d="M10,6 L19.1700001,6 M6.53999996,12 L1.95000005,4.05999994 M8.88000011,19.9400005 L13.46,12"></path>
            </g>
        </g>
    </g>
</svg>