<?xml version="1.0" encoding="UTF-8"?>
<svg width="24px" height="24px" viewBox="0 0 24 24" version="1.1" xmlns="http://www.w3.org/2000/svg" xmlns:xlink="http://www.w3.org/1999/xlink">
    <title>graduation-hat-02</title>
    <g id="Line-icons" stroke="none" stroke-width="1" fill="none" fill-rule="evenodd" stroke-linecap="round" stroke-linejoin="round">
        <g id="Education" transform="translate(-880, -156)" fill-rule="nonzero" stroke="#000000" stroke-width="2">
            <g id="Icon" transform="translate(882, 159.559)">
                <path d="M10.3577709,0.119868465 C10.2265887,0.0542773753 10.1609981,0.0214818288 10.0921993,0.00857414398 C10.031265,-0.0028580483 9.968735,-0.0028580483 9.90780067,0.00857414398 C9.83900189,0.0214818288 9.77341123,0.0542773679 9.64222908,0.119868442 L0,4.94098282 L9.64222908,9.76209736 C9.77341126,9.82768845 9.83900189,9.86048442 9.90780067,9.87339211 C9.968735,9.8848243 10.031265,9.8848243 10.0921993,9.87339211 C10.1609981,9.86048442 10.2265888,9.82768843 10.3577709,9.76209736 L20,4.94098282 L10.3577709,0.119868465 Z"></path>
                <path d="M15,10.9409828 L15,7.93541002 C15,7.75593114 15,7.66619182 14.9726725,7.58696413 C14.9485064,7.51690197 14.9090672,7.45308805 14.8572092,7.40014029 C14.7985668,7.34026623 14.7183018,7.30013371 14.5577707,7.21986818 L10,4.94098282 M2,7.22292542 L2,12.7475986 L2,12.7475986 C2,13.1195092 2,13.3054647 2.05801821,13.4682827 C2.10930822,13.6122189 2.19290124,13.7424874 2.30237842,13.8490849 C2.42621505,13.9696646 2.59527242,14.0471487 2.93335247,14.2021036 L9.33335304,17.135437 C9.57858706,17.2478361 9.70120335,17.3040361 9.82894039,17.3262138 C9.94213343,17.3458662 10.0578661,17.3458662 10.1710596,17.3262138 C10.2987967,17.3040361 10.4214134,17.2478361 10.6666479,17.135437 L17.0666485,14.2021036 C17.4047308,14.0471487 17.5737829,13.9696655 17.6976204,13.8490849 C17.8070974,13.7424874 17.8906927,13.6122189 17.9419823,13.4682827 C18,13.3054647 18,13.1195097 18,12.7475996 L18,7.22292542 C18,6.77716605 17.9535872,6.61552293 17.8664336,6.45255997 C17.7792801,6.289597 17.6513858,6.16170272 17.4884229,6.07454917 C17.3254599,5.98739562 17.1638168,5.94098282 16.7180574,5.94098282"></path>
            </g>
        </g>
    </g>
</svg>