<?xml version="1.0" encoding="UTF-8"?>
<svg width="24px" height="24px" viewBox="0 0 24 24" version="1.1" xmlns="http://www.w3.org/2000/svg" xmlns:xlink="http://www.w3.org/1999/xlink">
    <title>graduation-hat-01</title>
    <g id="Line-icons" stroke="none" stroke-width="1" fill="none" fill-rule="evenodd" stroke-linecap="round" stroke-linejoin="round">
        <g id="Education" transform="translate(-608, -436)" fill-rule="nonzero" stroke="#000000" stroke-width="2">
            <g id="Icon" transform="translate(610, 439.559)">
                <path d="M10.3577709,0.119868465 C10.2265887,0.0542773753 10.1609981,0.0214818288 10.0921993,0.00857414398 C10.031265,-0.0028580483 9.968735,-0.0028580483 9.90780067,0.00857414398 C9.83900189,0.0214818288 9.77341123,0.0542773679 9.64222908,0.119868442 L0,4.94098282 L9.64222908,9.76209736 C9.77341126,9.82768845 9.83900189,9.86048442 9.90780067,9.87339211 C9.968735,9.8848243 10.031265,9.8848243 10.0921993,9.87339211 C10.1609981,9.86048442 10.2265888,9.82768843 10.3577709,9.76209736 L20,4.94098282 L10.3577709,0.119868465 Z"></path>
                <path d="M3,7.72292542 L3,12.4521284 L3,12.4521284 C3,12.8110862 3,12.9905648 3.05465484,13.1490202 C3.10298705,13.2891445 3.1818653,13.4167724 3.28558183,13.5226679 C3.40286508,13.642415 3.56340182,13.7226844 3.8844583,13.8832121 L9.28445816,16.5832119 C9.54681444,16.7143898 9.67800713,16.7799864 9.8156023,16.8058014 C9.93747091,16.8286657 10.0625291,16.8286657 10.1843977,16.8058014 C10.3219924,16.7799873 10.4531889,16.7143888 10.7155418,16.5832119 L16.1155415,13.8832121 C16.4366035,13.722681 16.5971336,13.642416 16.7144184,13.5226679 C16.8181343,13.4167724 16.8970127,13.2891445 16.9453449,13.1490202 C17,12.9905648 17,12.8110862 17,12.4521284 L17,7.72292542 C17,7.27716605 16.9535872,7.11552293 16.8664336,6.95255997 C16.7792801,6.789597 16.6513858,6.66170272 16.4884229,6.57454917 C16.3254599,6.48739562 16.1638168,6.44098282 15.7180574,6.44098282"></path>
            </g>
        </g>
    </g>
</svg>