<?xml version="1.0" encoding="UTF-8"?>
<svg width="24px" height="24px" viewBox="0 0 24 24" version="1.1" xmlns="http://www.w3.org/2000/svg" xmlns:xlink="http://www.w3.org/1999/xlink">
    <title>grid-02</title>
    <g id="Line-icons" stroke="none" stroke-width="1" fill="none" fill-rule="evenodd" stroke-linecap="round" stroke-linejoin="round">
        <g id="Layout" transform="translate(-336, -436)" fill-rule="nonzero" stroke="#000000" stroke-width="2">
            <g id="grid-02" transform="translate(339, 439)">
                <path d="M5,0 L3.19999981,0 C2.07989502,0 1.51984251,0 1.09201896,0.217986971 C0.715694845,0.409733713 0.409733713,0.715694845 0.217986971,1.09201896 C0,1.51984251 0,2.07989502 0,3.20000005 L0,5 M5,18 L3.19999981,18 C2.07989502,18 1.51984251,18 1.09201896,17.7820129 C0.715694845,17.5902662 0.409733713,17.284306 0.217986971,16.9079819 C0,16.4801586 0,15.9201052 0,14.8000002 L0,13 M18,5 L18,3.20000005 C18,2.07989502 18,1.51984262 17.7820129,1.09201908 C17.5902662,0.715694964 17.2843058,0.409733891 16.9079819,0.21798712 C16.4801583,0 15.9201052,0 14.8000002,0 L13,0 M18,13 L18,14.8000002 C18,15.9201051 18,16.4801586 17.7820129,16.9079819 C17.5902662,17.284306 17.284306,17.5902662 16.9079819,17.7820129 C16.4801586,18 15.9201052,18 14.8000002,18 L13,18 M9,4 L9,14 M4,9 L14,9" id="Icon"></path>
            </g>
        </g>
    </g>
</svg>