<?xml version="1.0" encoding="UTF-8"?>
<svg width="24px" height="24px" viewBox="0 0 24 24" version="1.1" xmlns="http://www.w3.org/2000/svg" xmlns:xlink="http://www.w3.org/1999/xlink">
    <title>grid-01</title>
    <g id="Line-icons" stroke="none" stroke-width="1" fill="none" fill-rule="evenodd" stroke-linecap="round" stroke-linejoin="round">
        <g id="Layout" transform="translate(-336, -396)" fill-rule="nonzero" stroke="#000000" stroke-width="2">
            <g id="Icon" transform="translate(339, 399)">
                <path d="M5.4000001,0 L1.60000002,0 C1.03994751,0 0.759921253,0 0.546009481,0.108993486 C0.357847422,0.204866856 0.204866856,0.357847422 0.108993486,0.546009481 C0,0.759921253 0,1.03994751 0,1.5999999 L0,5.4000001 C0,5.96005249 0,6.24007893 0.108993486,6.45399046 C0.204866856,6.64215279 0.357847422,6.79513311 0.546009481,6.89100647 C0.759921253,7 1.03994751,7 1.5999999,7 L5.4000001,7 C5.96005249,7 6.24007893,7 6.45399046,6.89100647 C6.64215279,6.79513311 6.79513311,6.64215279 6.89100647,6.45399046 C7,6.24007893 7,5.96005249 7,5.4000001 L7,1.60000002 C7,1.03994751 7,0.759921253 6.89100647,0.546009481 C6.79513311,0.357847422 6.64215279,0.204866856 6.45399046,0.108993486 C6.24007893,0 5.96005249,0 5.4000001,0 Z"></path>
                <path d="M16.3999996,0 L12.6000004,0 C12.0399479,0 11.7599208,0 11.5460091,0.108993486 C11.357847,0.204866856 11.2048669,0.357847422 11.1089935,0.546009481 C11,0.759921253 11,1.03994751 11,1.5999999 L11,5.4000001 C11,5.96005249 11,6.24007893 11.1089935,6.45399046 C11.2048669,6.64215279 11.357847,6.79513311 11.5460091,6.89100647 C11.7599208,7 12.039948,7 12.6000004,7 L16.3999996,7 C16.960052,7 17.2400794,7 17.4539909,6.89100647 C17.6421533,6.79513311 17.7951331,6.64215279 17.8910065,6.45399046 C18,6.24007893 18,5.96005249 18,5.4000001 L18,1.60000002 C18,1.03994751 18,0.759921253 17.8910065,0.546009481 C17.7951331,0.357847422 17.6421533,0.204866856 17.4539909,0.108993486 C17.2400794,0 16.960052,0 16.3999996,0 Z"></path>
                <path d="M16.3999996,11 L12.6000004,11 C12.0399479,11 11.7599208,11 11.5460091,11.1089935 C11.357847,11.2048669 11.2048669,11.357847 11.1089935,11.5460091 C11,11.7599208 11,12.039948 11,12.6000004 L11,16.3999996 C11,16.960052 11,17.2400794 11.1089935,17.4539909 C11.2048669,17.6421533 11.357847,17.7951331 11.5460091,17.8910065 C11.7599208,18 12.039948,18 12.6000004,18 L16.3999996,18 C16.960052,18 17.2400794,18 17.4539909,17.8910065 C17.6421533,17.7951331 17.7951331,17.6421533 17.8910065,17.4539909 C18,17.2400794 18,16.960052 18,16.3999996 L18,12.6000004 C18,12.0399479 18,11.7599208 17.8910065,11.5460091 C17.7951331,11.357847 17.6421533,11.2048669 17.4539909,11.1089935 C17.2400794,11 16.960052,11 16.3999996,11 Z"></path>
                <path d="M5.4000001,11 L1.60000002,11 C1.03994751,11 0.759921253,11 0.546009481,11.1089935 C0.357847422,11.2048669 0.204866856,11.357847 0.108993486,11.5460091 C0,11.7599208 0,12.039948 0,12.6000004 L0,16.3999996 C0,16.960052 0,17.2400794 0.108993486,17.4539909 C0.204866856,17.6421533 0.357847422,17.7951331 0.546009481,17.8910065 C0.759921253,18 1.03994751,18 1.5999999,18 L5.4000001,18 C5.96005249,18 6.24007893,18 6.45399046,17.8910065 C6.64215279,17.7951331 6.79513311,17.6421533 6.89100647,17.4539909 C7,17.2400794 7,16.960052 7,16.3999996 L7,12.6000004 C7,12.0399479 7,11.7599208 6.89100647,11.5460091 C6.79513311,11.357847 6.64215279,11.2048669 6.45399046,11.1089935 C6.24007893,11 5.96005249,11 5.4000001,11 Z"></path>
            </g>
        </g>
    </g>
</svg>