<?xml version="1.0" encoding="UTF-8"?>
<svg width="24px" height="24px" viewBox="0 0 24 24" version="1.1" xmlns="http://www.w3.org/2000/svg" xmlns:xlink="http://www.w3.org/1999/xlink">
    <title>grid-dots-outer</title>
    <g id="Line-icons" stroke="none" stroke-width="1" fill="none" fill-rule="evenodd" stroke-linecap="round" stroke-linejoin="round">
        <g id="Layout" transform="translate(-336, -676)" fill-rule="nonzero" stroke="#000000" stroke-width="2">
            <g id="Icon" transform="translate(339, 679)">
                <path d="M13.1999989,18 C14.8801566,18 15.7202355,18 16.3619709,17.6730194 C16.9264572,17.3853993 17.3853992,16.9264572 17.6730194,16.3619709 C18,15.7202356 18,14.880156 18,13.1999979 L18,4.80000067 C18,3.11984348 18,2.27976513 17.6730194,1.63802993 C17.3853993,1.07354373 16.926457,0.614602029 16.3619709,0.326981902 C15.7202358,0 14.8801583,0 13.2000008,0 L4.80000114,0 C3.11984336,0 2.27976418,0 1.63802886,0.326980084 C1.07354259,0.614600152 0.614600837,1.07354176 0.32698068,1.63802803 C0,2.27976328 0,3.11984265 0,4.80000067 L0,13.1999979 C0,14.880155 0,15.7202338 0.326980352,16.361969 C0.61460042,16.9264552 1.073542,17.3853954 1.63802814,17.6730156 C2.27976328,18 3.11984217,18 4.79999971,18 L13.1999989,18 Z"></path>
                <path d="M4.51000023,9 L4.5,9 M13.5100002,9 L13.5,9 M9.01000023,9 L9,9 M9.01000023,13.5 L9,13.5 M9,4.5 L9.01000023,4.5"></path>
            </g>
        </g>
    </g>
</svg>