<?xml version="1.0" encoding="UTF-8"?>
<svg width="24px" height="24px" viewBox="0 0 24 24" version="1.1" xmlns="http://www.w3.org/2000/svg" xmlns:xlink="http://www.w3.org/1999/xlink">
    <title>hand</title>
    <g id="Line-icons" stroke="none" stroke-width="1" fill="none" fill-rule="evenodd" stroke-linecap="round" stroke-linejoin="round">
        <g id="Editor" transform="translate(-336, -756)" fill-rule="nonzero" stroke="#000000" stroke-width="2">
            <g id="Icon" transform="translate(339.5, 758)">
                <path d="M8.5,20 C13.1944203,20 17,16.2690401 17,11.666667 L17,6.11111164 C17,5.19063735 16.2388844,4.44444466 15.3000002,4.44444466 C14.3611159,4.44444466 13.6000004,5.19063681 13.6000004,6.11111164 L13.6000004,2.77777791 C13.6000004,1.85730344 12.8388839,1.11111116 11.8999996,1.11111116 C10.9611154,1.11111116 10.1999998,1.85730332 10.1999998,2.77777791 L10.1999998,1.66666675 C10.1999998,0.746192157 9.43888426,0 8.5,0 C7.56111574,0 6.80000019,0.746192157 6.80000019,1.66666675 L6.80000019,2.77777791 C6.80000019,1.85730332 6.03888416,1.11111116 5.0999999,1.11111116 C4.16111588,1.11111116 3.4000001,1.85730308 3.4000001,2.77777767 L3.4000001,9.44444466 C3.4000001,8.52396983 2.63888407,7.77777815 1.70000005,7.77777815 C0.761116028,7.77777815 0,8.52396983 0,9.44444466 L0,11.666667 C0,16.2690401 3.80557966,20 8.5,20 Z"></path>
                <path d="M3.4000001,12.2222233 L3.4000001,9.44444466 M6.80000019,8.88888931 L6.80000019,2.77777791 M10.1999998,8.88888931 L10.1999998,2.77777791 M13.6000004,6.11111164 L13.6000004,8.88888931"></path>
            </g>
        </g>
    </g>
</svg>