<?xml version="1.0" encoding="UTF-8"?>
<svg width="24px" height="24px" viewBox="0 0 24 24" version="1.1" xmlns="http://www.w3.org/2000/svg" xmlns:xlink="http://www.w3.org/1999/xlink">
    <title>headphones-02</title>
    <g id="Line-icons" stroke="none" stroke-width="1" fill="none" fill-rule="evenodd" stroke-linecap="round" stroke-linejoin="round">
        <g id="Media-&amp;-devices" transform="translate(-64, -1156)" fill-rule="nonzero" stroke="#000000" stroke-width="2">
            <g id="Icon" transform="translate(66, 1159)">
                <path d="M3,12.5 C3,11.1192882 4.11928821,10 5.5,10 C6.88071179,10 8,11.1192882 8,12.5 L8,15.5 C8,16.8807118 6.88071179,18 5.5,18 C4.11928821,18 3,16.8807118 3,15.5 L3,12.5 Z"></path>
                <path d="M12,12.5 C12,11.1192882 13.1192882,10 14.5,10 C15.8807118,10 17,11.1192882 17,12.5 L17,15.5 C17,16.8807118 15.8807118,18 14.5,18 C13.1192882,18 12,16.8807118 12,15.5 L12,12.5 Z"></path>
                <path d="M20,10.4294466 L20,10 L20,10 C20,4.47715282 15.5228481,0 10,0 C4.4771533,0 0,4.47715235 0,10 L-6.98726336e-17,10.4294466 C5.34430255e-17,11.4363954 0.139238417,11.9763797 0.400699056,12.4652686 C0.662159695,12.9541574 1.04584256,13.3378403 1.53473144,13.5993009 C2.02362033,13.8607616 2.56360458,14 3.57055335,14"></path>
            </g>
        </g>
    </g>
</svg>