<?xml version="1.0" encoding="UTF-8"?>
<svg width="24px" height="24px" viewBox="0 0 24 24" version="1.1" xmlns="http://www.w3.org/2000/svg" xmlns:xlink="http://www.w3.org/1999/xlink">
    <title>headphones-01</title>
    <g id="Line-icons" stroke="none" stroke-width="1" fill="none" fill-rule="evenodd" stroke-linecap="round" stroke-linejoin="round">
        <g id="Media-&amp;-devices" transform="translate(-64, -1116)" fill-rule="nonzero" stroke="#000000" stroke-width="2">
            <g id="Icon" transform="translate(67, 1119)">
                <path d="M0,13.5 C0,12.1192882 1.11928821,11 2.5,11 C3.88071179,11 5,12.1192882 5,13.5 L5,15.5 C5,16.8807118 3.88071179,18 2.5,18 C1.11928821,18 0,16.8807118 0,15.5 L0,13.5 Z"></path>
                <path d="M13,13.5 C13,12.1192882 14.1192882,11 15.5,11 C16.8807118,11 18,12.1192882 18,13.5 L18,15.5 C18,16.8807118 16.8807118,18 15.5,18 C14.1192882,18 13,16.8807118 13,15.5 L13,13.5 Z"></path>
                <path d="M18,11.1541722 L18,9 L18,9 C18,4.02943754 13.970562,0 9,0 C4.02943802,0 0,4.02943707 0,9 L-1.03584031e-16,11.1541722 C6.01853049e-17,12.4914503 0.139238417,12.9763797 0.400699056,13.4652686 C0.662159695,13.9541574 1.04584256,14.3378403 1.53473144,14.5993009 C2.02362033,14.8607616 2.50854969,15 3.8458278,15"></path>
            </g>
        </g>
    </g>
</svg>