<?xml version="1.0" encoding="UTF-8"?>
<svg width="24px" height="24px" viewBox="0 0 24 24" version="1.1" xmlns="http://www.w3.org/2000/svg" xmlns:xlink="http://www.w3.org/1999/xlink">
    <title>heart-square</title>
    <g id="Line-icons" stroke="none" stroke-width="1" fill="none" fill-rule="evenodd" stroke-linecap="round" stroke-linejoin="round">
        <g id="General" transform="translate(-336, -1116)" fill-rule="nonzero" stroke="#000000" stroke-width="2">
            <g id="Icon" transform="translate(339, 1119)">
                <path d="M0,4.79999971 C0,3.11984241 0,2.27976376 0.326980442,1.6380285 C0.614600539,1.0735423 1.0735423,0.614600539 1.6380285,0.326980442 C2.27976376,0 3.11984253,0 4.80000019,0 L13.2000008,0 C14.8801581,0 15.7202356,0 16.3619709,0.326980442 C16.9264571,0.614600539 17.3853993,1.0735423 17.6730194,1.6380285 C18,2.27976376 18,3.11984253 18,4.80000019 L18,13.2000008 C18,14.8801581 18,15.7202356 17.6730194,16.3619709 C17.3853993,16.9264571 16.9264571,17.3853993 16.3619709,17.6730194 C15.7202356,18 14.8801575,18 13.1999998,18 L4.79999971,18 C3.11984241,18 2.27976376,18 1.6380285,17.6730194 C1.0735423,17.3853993 0.614600539,16.9264571 0.326980442,16.3619709 C0,15.7202356 0,14.8801575 0,13.1999998 L0,4.79999971 Z"></path>
                <path d="M8.99657631,6.06790733 C7.9969002,4.89920008 6.32987273,4.58482111 5.07734728,5.65500641 C3.82482183,6.72519171 3.64848399,8.51448882 4.63209915,9.78020096 C5.26211005,10.5908965 6.87558472,12.0942435 7.95423508,13.0703621 C8.31268519,13.3947395 8.49191003,13.5569279 8.70658588,13.6219769 C8.89112948,13.6778954 9.10202219,13.6778954 9.28656578,13.6219769 C9.50124162,13.5569279 9.68046665,13.3947395 10.0389166,13.0703621 C11.1175666,12.0942435 12.7310405,10.5908965 13.3610516,9.78020096 C14.3446669,8.51448882 14.1898576,6.71393442 12.915803,5.65500641 C11.6417483,4.5960784 9.9962526,4.89920008 8.99657631,6.06790733 Z"></path>
            </g>
        </g>
    </g>
</svg>