<?xml version="1.0" encoding="UTF-8"?>
<svg width="24px" height="24px" viewBox="0 0 24 24" version="1.1" xmlns="http://www.w3.org/2000/svg" xmlns:xlink="http://www.w3.org/1999/xlink">
    <title>heart-circle</title>
    <g id="Line-icons" stroke="none" stroke-width="1" fill="none" fill-rule="evenodd" stroke-linecap="round" stroke-linejoin="round">
        <g id="General" transform="translate(-336, -916)" fill-rule="nonzero" stroke="#000000" stroke-width="2">
            <g id="Icon" transform="translate(338, 918)">
                <path d="M10,20 C15.5228481,20 20,15.5228481 20,10 C20,4.47715235 15.5228481,0 10,0 C4.47715235,0 0,4.47715235 0,10 C0,15.5228481 4.47715235,20 10,20 Z"></path>
                <path d="M9.99657631,7.06790733 C8.9969002,5.89920008 7.32987273,5.58482111 6.07734728,6.65500641 C4.82482183,7.72519171 4.64848399,9.51448882 5.63209915,10.780201 C6.26211005,11.5908965 7.87558472,13.0942435 8.95423508,14.0703621 C9.31268519,14.3947395 9.49191003,14.5569279 9.70658588,14.6219769 C9.89112948,14.6778954 10.1020222,14.6778954 10.2865658,14.6219769 C10.5012416,14.5569279 10.6804667,14.3947395 11.0389166,14.0703621 C12.1175666,13.0942435 13.7310405,11.5908965 14.3610516,10.780201 C15.3446669,9.51448882 15.1898576,7.71393442 13.915803,6.65500641 C12.6417483,5.5960784 10.9962526,5.89920008 9.99657631,7.06790733 Z"></path>
            </g>
        </g>
    </g>
</svg>