<?xml version="1.0" encoding="UTF-8"?>
<svg width="24px" height="24px" viewBox="0 0 24 24" version="1.1" xmlns="http://www.w3.org/2000/svg" xmlns:xlink="http://www.w3.org/1999/xlink">
    <title>heart-hand</title>
    <g id="Line-icons" stroke="none" stroke-width="1" fill="none" fill-rule="evenodd" stroke-linecap="round" stroke-linejoin="round">
        <g id="General" transform="translate(-336, -956)" fill-rule="nonzero" stroke="#000000" stroke-width="2">
            <g id="Icon" transform="translate(338, 958.0733)">
                <path d="M2.39999938,19.926651 C2.96005213,19.926651 3.24007839,19.926651 3.45399022,19.8176594 C3.64215237,19.721786 3.79513305,19.568804 3.89100647,19.3806419 C4,19.1667302 4,18.8867053 4,18.3266525 L4,12.5266533 C4,11.966601 4,11.6865746 3.89100647,11.4726629 C3.79513313,11.2845009 3.64215273,11.1315208 3.4539907,11.0356474 C3.24007902,10.9266539 2.96005285,10.9266531 2.40000057,10.9266529 L1.60000038,10.9266529 C1.03994781,10.9266527 0.759921536,10.926653 0.546009719,11.0356464 C0.357847586,11.1315198 0.204866976,11.2844999 0.108993568,11.472662 C0,11.6865737 0,11.9666005 0,12.5266533 L0,18.3266525 C0,18.8867048 0,19.1667302 0.108993426,19.3806419 C0.204866752,19.568804 0.357847229,19.7217841 0.546009243,19.8176575 C0.75992091,19.926651 1.03994709,19.926651 1.59999943,19.926651 L2.39999938,19.926651 Z"></path>
                <path d="M11.2854996,14.9764833 L13.7136526,14.9764833 C14.1643128,14.9764833 14.6024851,14.834742 14.9625969,14.5715075 L17.4771328,12.7369642 C18.1047266,12.279341 18.9831507,12.3400869 19.5378895,12.8797178 C20.1540346,13.4790827 20.1540346,14.4500131 19.5378895,15.0483656 L17.3803406,17.1471558 C16.7995821,17.7120977 16.0585426,18.0978382 15.2529745,18.2547665 L12.2034731,18.8480549 C11.5987766,18.965498 10.9753448,18.9513239 10.376893,18.8055325 L7.61881208,18.1352997 C7.28888303,18.0543044 6.95062745,18.0138054 6.61029053,18.0138054 L4,18.0138054"></path>
                <path d="M11.2854996,14.9764833 L12.8310661,14.9764156 C13.7022038,14.9764156 14.4078569,14.2899798 14.4078569,13.4425669 L14.4078569,13.1357985 C14.4078569,12.4321522 13.9155647,11.8186134 13.2140751,11.6485233 L10.8285942,11.0683947 C10.4403812,10.9742377 10.0428015,10.9266529 9.64313984,10.9266529 C8.99993432,10.9266529 8.09618549,11.1929245 6.93189335,11.7254677 L4,12.9515343"></path>
                <path d="M15.19137,1.51890779 C14.5945537,0.270050049 13.2185819,-0.391562298 11.880434,0.247025713 C10.5422862,0.885613725 9.97219557,2.40003288 10.5324535,3.72947907 C10.8787078,4.55111217 11.8707452,6.14665413 12.5780888,7.24568415 C12.8394437,7.65176249 12.9701206,7.85480202 13.1609955,7.97358227 C13.3247134,8.07546292 13.5296631,8.13037857 13.7223873,8.12400627 C13.9470799,8.11657696 14.1617695,8.00607899 14.5911484,7.78508234 C15.7532405,7.18696612 17.4101412,6.30120438 18.1208229,5.76277637 C19.2707437,4.89157122 19.5555784,3.29022908 18.694664,2.07289314 C17.8337497,0.855557203 16.3326571,0.735773444 15.19137,1.51890779 Z"></path>
            </g>
        </g>
    </g>
</svg>