<?xml version="1.0" encoding="UTF-8"?>
<svg width="24px" height="24px" viewBox="0 0 24 24" version="1.1" xmlns="http://www.w3.org/2000/svg" xmlns:xlink="http://www.w3.org/1999/xlink">
    <title>hearts</title>
    <g id="Line-icons" stroke="none" stroke-width="1" fill="none" fill-rule="evenodd" stroke-linecap="round" stroke-linejoin="round">
        <g id="General" transform="translate(-336, -1156)" fill-rule="nonzero" stroke="#000000" stroke-width="2">
            <g id="Icon" transform="translate(338, 1158)">
                <path d="M14.2971888,9.74994755 C13.875102,7.48199511 11.9453547,5.82333517 9.5156374,6.27415276 C7.0859201,6.72497034 5.51487729,8.91708088 5.8433466,11.2990007 C6.10724828,13.2127041 7.56392288,17.7027197 8.12640572,19.3939877 C8.20316265,19.6247797 8.24154085,19.7401757 8.31752586,19.8206444 C8.38372044,19.8907449 8.47173512,19.9415589 8.56554127,19.9638348 C8.67322172,19.9894053 8.792347,19.964944 9.03059769,19.9160213 C10.7765204,19.5575114 15.393322,18.5740204 17.1825886,17.8457146 C19.4096267,16.9392176 20.558939,14.4841232 19.6980896,12.1529942 C18.8372402,9.82186508 16.472337,8.98150927 14.2971888,9.74994755 Z"></path>
                <path d="M13.5455437,7.92542601 C13.9194736,7.26103163 14.2312737,6.66151381 14.4235697,6.20521212 C15.3573332,3.9894681 14.4340057,1.44076771 12.1769361,0.401122987 C9.91986656,-0.638521731 7.65340614,0.43949604 6.65871191,2.520926 C4.756567,1.21570182 2.21917939,1.40738964 0.819885969,3.44423532 C-0.579407454,5.48108101 -0.140245795,8.14203167 1.77628875,9.59404087 C2.64610291,10.2530317 4.36636019,11.2241993 5.98595619,12.0884447"></path>
            </g>
        </g>
    </g>
</svg>