<?xml version="1.0" encoding="UTF-8"?>
<svg width="24px" height="24px" viewBox="0 0 24 24" version="1.1" xmlns="http://www.w3.org/2000/svg" xmlns:xlink="http://www.w3.org/1999/xlink">
    <title>heart-octagon</title>
    <g id="Line-icons" stroke="none" stroke-width="1" fill="none" fill-rule="evenodd" stroke-linecap="round" stroke-linejoin="round">
        <g id="General" transform="translate(-336, -1036)" fill-rule="nonzero" stroke="#000000" stroke-width="2">
            <g id="Icon" transform="translate(338, 1038)">
                <path d="M5.39137077,0.46862945 C5.56432268,0.295677543 5.65079857,0.209201615 5.75171518,0.147359833 C5.84118749,0.0925311334 5.93873192,0.0521268118 6.04076815,0.0276300814 C6.15585572,0 6.27815112,0 6.52274179,0 L13.4772577,0 C13.7218484,0 13.8441438,0 13.9592314,0.0276300795 C14.0612676,0.05212681 14.158812,0.0925311185 14.2482843,0.147359818 C14.349201,0.209201593 14.4356766,0.295677438 14.6086283,0.468629122 L19.5313702,5.39137077 C19.7043221,5.56432267 19.7907984,5.65079856 19.8526402,5.75171518 C19.9074689,5.84118749 19.9478734,5.93873192 19.9723701,6.04076815 C20,6.15585572 20,6.27815109 20,6.52274179 L20,13.4772577 C20,13.7218484 20,13.8441438 19.9723701,13.9592314 C19.9478734,14.0612676 19.9074689,14.158812 19.8526402,14.2482843 C19.7907984,14.349201 19.7043219,14.4356766 19.5313702,14.6086283 L14.6086283,19.5313702 C14.4356766,19.7043219 14.349201,19.7907984 14.2482843,19.8526402 C14.158812,19.9074689 14.0612676,19.9478734 13.9592314,19.9723701 C13.8441438,20 13.7218484,20 13.4772577,20 L6.52274179,20 C6.27815109,20 6.15585572,20 6.04076815,19.9723701 C5.93873192,19.9478734 5.84118749,19.9074689 5.75171518,19.8526402 C5.65079856,19.7907984 5.5643225,19.7043219 5.39137077,19.5313702 L0.46862945,14.6086292 C0.295677543,14.4356773 0.209201593,14.349201 0.147359818,14.2482843 C0.0925311185,14.158812 0.05212681,14.0612676 0.0276300795,13.9592314 C0,13.8441438 0,13.7218484 0,13.4772577 L0,6.52274179 C0,6.27815109 0,6.15585572 0.0276300814,6.04076815 C0.0521268118,5.93873192 0.0925311334,5.84118749 0.147359833,5.75171518 C0.209201615,5.65079857 0.295677453,5.56432247 0.468629152,5.39137077 L5.39137077,0.46862945 Z"></path>
                <path d="M9.99657631,7.06790733 C8.9969002,5.89920008 7.32987273,5.58482111 6.07734728,6.65500641 C4.82482183,7.72519171 4.64848399,9.51448882 5.63209915,10.780201 C6.26211005,11.5908965 7.87558472,13.0942435 8.95423508,14.0703621 C9.31268519,14.3947395 9.49191003,14.5569279 9.70658588,14.6219769 C9.89112948,14.6778954 10.1020222,14.6778954 10.2865658,14.6219769 C10.5012416,14.5569279 10.6804667,14.3947395 11.0389166,14.0703621 C12.1175666,13.0942435 13.7310405,11.5908965 14.3610516,10.780201 C15.3446669,9.51448882 15.1898576,7.71393442 13.915803,6.65500641 C12.6417483,5.5960784 10.9962526,5.89920008 9.99657631,7.06790733 Z"></path>
            </g>
        </g>
    </g>
</svg>