<?xml version="1.0" encoding="UTF-8"?>
<svg width="24px" height="24px" viewBox="0 0 24 24" version="1.1" xmlns="http://www.w3.org/2000/svg" xmlns:xlink="http://www.w3.org/1999/xlink">
    <title>heart</title>
    <g id="Line-icons" stroke="none" stroke-width="1" fill="none" fill-rule="evenodd" stroke-linecap="round" stroke-linejoin="round">
        <g id="General" transform="translate(-336, -876)" fill-rule="nonzero" stroke="#000000" stroke-width="2">
            <g id="heart" transform="translate(338, 879)">
                <path d="M9.99315166,2.13581443 C7.99379945,-0.201600075 4.65974569,-0.830357432 2.1546948,1.31001318 C-0.350356102,3.45038378 -0.703032255,7.02897668 1.26419806,9.56040096 C2.89981699,11.6651092 7.84977221,16.104097 9.47210026,17.5408306 C9.65360451,17.7015708 9.7443564,17.7819406 9.85021305,17.8135204 C9.94260409,17.8410831 10.0436992,17.8410831 10.1360903,17.8135204 C10.2419469,17.7819406 10.3326989,17.7015708 10.5142031,17.5408306 C12.1365306,16.1040969 17.0864838,11.6651092 18.7221031,9.56040096 C20.6893338,7.02897668 20.3797152,3.4278692 17.8316059,1.31001318 C15.2834966,-0.807842851 11.9925042,-0.201600075 9.99315166,2.13581443 Z" id="Icon"></path>
            </g>
        </g>
    </g>
</svg>