<?xml version="1.0" encoding="UTF-8"?>
<svg width="24px" height="24px" viewBox="0 0 24 24" version="1.1" xmlns="http://www.w3.org/2000/svg" xmlns:xlink="http://www.w3.org/1999/xlink">
    <title>help-octagon</title>
    <g id="Line-icons" stroke="none" stroke-width="1" fill="none" fill-rule="evenodd" stroke-linecap="round" stroke-linejoin="round">
        <g id="General" transform="translate(-336, -1276)" fill-rule="nonzero" stroke="#000000" stroke-width="2">
            <g id="Icon" transform="translate(338, 1278)">
                <path d="M5.39137077,0.46862945 C5.56432268,0.295677543 5.65079857,0.209201615 5.75171518,0.147359833 C5.84118749,0.0925311334 5.93873192,0.0521268118 6.04076815,0.0276300814 C6.15585572,0 6.27815112,0 6.52274179,0 L13.4772577,0 C13.7218484,0 13.8441438,0 13.9592314,0.0276300795 C14.0612676,0.05212681 14.158812,0.0925311185 14.2482843,0.147359818 C14.349201,0.209201593 14.4356766,0.295677438 14.6086283,0.468629122 L19.5313702,5.39137077 C19.7043221,5.56432267 19.7907984,5.65079856 19.8526402,5.75171518 C19.9074689,5.84118749 19.9478734,5.93873192 19.9723701,6.04076815 C20,6.15585572 20,6.27815109 20,6.52274179 L20,13.4772577 C20,13.7218484 20,13.8441438 19.9723701,13.9592314 C19.9478734,14.0612676 19.9074689,14.158812 19.8526402,14.2482843 C19.7907984,14.349201 19.7043219,14.4356766 19.5313702,14.6086283 L14.6086283,19.5313702 C14.4356766,19.7043219 14.349201,19.7907984 14.2482843,19.8526402 C14.158812,19.9074689 14.0612676,19.9478734 13.9592314,19.9723701 C13.8441438,20 13.7218484,20 13.4772577,20 L6.52274179,20 C6.27815109,20 6.15585572,20 6.04076815,19.9723701 C5.93873192,19.9478734 5.84118749,19.9074689 5.75171518,19.8526402 C5.65079856,19.7907984 5.5643225,19.7043219 5.39137077,19.5313702 L0.46862945,14.6086292 C0.295677543,14.4356773 0.209201593,14.349201 0.147359818,14.2482843 C0.0925311185,14.158812 0.05212681,14.0612676 0.0276300795,13.9592314 C0,13.8441438 0,13.7218484 0,13.4772577 L0,6.52274179 C0,6.27815109 0,6.15585572 0.0276300814,6.04076815 C0.0521268118,5.93873192 0.0925311334,5.84118749 0.147359833,5.75171518 C0.209201615,5.65079857 0.295677453,5.56432247 0.468629152,5.39137077 L5.39137077,0.46862945 Z"></path>
                <path d="M7.08996582,6.99998951 C7.32506984,6.33165729 7.78911805,5.76809642 8.39992046,5.40912247 C9.01072288,5.05014852 9.72886127,4.9189278 10.4271421,5.03870153 C11.125423,5.15847526 11.7587823,5.52151394 12.2150431,6.06351757 C12.6713039,6.6055212 12.9210212,7.29151171 12.9199657,7.99998951 C12.9199657,9.33332284 11.9199657,10.3333228 9.91996574,10.9999895"></path>
                <line x1="10" y1="15" x2="10.0100002" y2="15"></line>
            </g>
        </g>
    </g>
</svg>