<?xml version="1.0" encoding="UTF-8"?>
<svg width="24px" height="24px" viewBox="0 0 24 24" version="1.1" xmlns="http://www.w3.org/2000/svg" xmlns:xlink="http://www.w3.org/1999/xlink">
    <title>help-square</title>
    <g id="Line-icons" stroke="none" stroke-width="1" fill="none" fill-rule="evenodd" stroke-linecap="round" stroke-linejoin="round">
        <g id="General" transform="translate(-336, -1316)" fill-rule="nonzero" stroke="#000000" stroke-width="2">
            <g id="Icon" transform="translate(339, 1319)">
                <path d="M6.09000015,6 C6.32510418,5.33166778 6.78915238,4.76810691 7.3999548,4.40913296 C8.01075721,4.05015901 8.7288956,3.91893829 9.42717648,4.03871202 C10.1254573,4.15848576 10.7588166,4.52152443 11.2150774,5.06352806 C11.6713382,5.60553169 11.9210556,6.2915222 11.9200001,7 C11.9200001,8.33333333 10.9200001,9.33333333 8.92000008,10"></path>
                <path d="M0,4.79999971 C0,3.11984241 0,2.27976376 0.326980442,1.6380285 C0.614600539,1.0735423 1.0735423,0.614600539 1.6380285,0.326980442 C2.27976376,0 3.11984253,0 4.80000019,0 L13.2000008,0 C14.8801581,0 15.7202356,0 16.3619709,0.326980442 C16.9264571,0.614600539 17.3853993,1.0735423 17.6730194,1.6380285 C18,2.27976376 18,3.11984253 18,4.80000019 L18,13.2000008 C18,14.8801581 18,15.7202356 17.6730194,16.3619709 C17.3853993,16.9264571 16.9264571,17.3853993 16.3619709,17.6730194 C15.7202356,18 14.8801575,18 13.1999998,18 L4.79999971,18 C3.11984241,18 2.27976376,18 1.6380285,17.6730194 C1.0735423,17.3853993 0.614600539,16.9264571 0.326980442,16.3619709 C0,15.7202356 0,14.8801575 0,13.1999998 L0,4.79999971 Z"></path>
                <line x1="9" y1="14" x2="9.01000023" y2="14"></line>
            </g>
        </g>
    </g>
</svg>