<?xml version="1.0" encoding="UTF-8"?>
<svg width="24px" height="24px" viewBox="0 0 24 24" version="1.1" xmlns="http://www.w3.org/2000/svg" xmlns:xlink="http://www.w3.org/1999/xlink">
    <title>hexagon-02</title>
    <g id="Line-icons" stroke="none" stroke-width="1" fill="none" fill-rule="evenodd" stroke-linecap="round" stroke-linejoin="round">
        <g id="Shapes" transform="translate(-336, -396)" fill-rule="nonzero" stroke="#000000" stroke-width="2">
            <g id="hexagon-02" transform="translate(338.1436, 399)">
                <path d="M19.4243584,8.22297001 C19.5819166,8.50657481 19.6606945,8.64837773 19.6915798,8.7985487 C19.7189151,8.93145864 19.7189151,9.06854136 19.6915798,9.2014513 C19.6606945,9.35162227 19.5819163,9.49342474 19.4243584,9.77702904 L15.3132477,17.1770287 C15.1468453,17.476553 15.0636439,17.6263145 14.9453068,17.7353668 C14.8406172,17.8318423 14.7165354,17.9048519 14.5813589,17.9495144 C14.4285605,18 14.2572387,18 13.9145956,18 L5.79748583,18 C5.45484287,18 5.28352144,18 5.130723,17.9495144 C4.99554649,17.9048519 4.87146421,17.8318423 4.76677465,17.7353668 C4.64843752,17.6263145 4.56523639,17.4765526 4.39883423,17.1770287 L0.287724108,9.77702904 C0.130165875,9.49342418 0.0513867736,9.35162131 0.0205014553,9.20145035 C-0.00683382899,9.06854041 -0.00683381781,8.93145768 0.0205014888,8.79854774 C0.0513868332,8.64837679 0.130165815,8.5065743 0.28772378,8.22297001 L4.39883471,0.82297188 C4.56523715,0.523447543 4.64843848,0.373685353 4.76677561,0.264633089 C4.87146515,0.168157607 4.99554746,0.0951472297 5.13072395,0.0504847579 C5.28352238,0 5.45484373,0 5.79748678,0 L13.9145956,0 C14.2572386,0 14.4285605,0 14.5813589,0.0504851714 C14.7165354,0.0951476544 14.8406172,0.168158017 14.9453068,0.264633507 C15.0636439,0.373685777 15.1468455,0.523447782 15.3132477,0.822971702 L19.4243584,8.22297001 Z" id="Icon"></path>
            </g>
        </g>
    </g>
</svg>