<?xml version="1.0" encoding="UTF-8"?>
<svg width="24px" height="24px" viewBox="0 0 24 24" version="1.1" xmlns="http://www.w3.org/2000/svg" xmlns:xlink="http://www.w3.org/1999/xlink">
    <title>home-02</title>
    <g id="Line-icons" stroke="none" stroke-width="1" fill="none" fill-rule="evenodd" stroke-linecap="round" stroke-linejoin="round">
        <g id="General" transform="translate(-336, -1396)" fill-rule="nonzero" stroke="#000000" stroke-width="2">
            <g id="Icon" transform="translate(339, 1398.2669)">
                <path d="M0,8.29820633 C0,7.72385067 0,7.4366731 0.0740273446,7.17220545 C0.139601469,6.93793748 0.247365668,6.7175985 0.392026991,6.5220108 C0.555336729,6.30120972 0.782021195,6.12489951 1.23539007,5.77227926 L8.01769543,0.497152895 C8.36902037,0.223900169 8.54468308,0.0872737952 8.73865318,0.0347550362 C8.90980315,-0.0115850121 9.09019685,-0.0115850121 9.26134682,0.0347550362 C9.45531692,0.0872737952 9.63098007,0.223900348 9.98230553,0.497153461 L16.7646103,5.77228022 C17.2179784,6.12489989 17.4446634,6.30120972 17.6079731,6.5220108 C17.7526344,6.7175985 17.8603979,6.93793748 17.925972,7.17220545 C18,7.4366731 18,7.72385079 18,8.29820633 L18,15.5331383 C18,16.6532432 18,17.2132955 17.7820129,17.641119 C17.5902662,18.0174432 17.284306,18.3234052 16.9079819,18.515152 C16.4801584,18.733139 15.9201052,18.733139 14.8000002,18.733139 L3.19999981,18.733139 C2.0798949,18.733139 1.51984245,18.733139 1.09201896,18.515152 C0.715694815,18.3234052 0.409733713,18.0174432 0.217986971,17.641119 C0,17.2132955 0,16.6532434 0,15.5331383 L0,8.29820633 Z"></path>
                <path d="M6,18.733139 L6,11.3331385 C6,10.773086 6,10.4930598 6.10899353,10.2791481 C6.2048669,10.090986 6.35784747,9.93800499 6.54600954,9.84213161 C6.75992128,9.73313813 7.03994733,9.73313808 7.5999999,9.73313808 L10.3999996,9.73313808 C10.9600521,9.73313808 11.2400792,9.73313813 11.4539909,9.84213161 C11.642153,9.93800499 11.7951331,10.090986 11.8910065,10.2791481 C12,10.4930598 12,10.773086 12,11.3331385 L12,18.733139"></path>
            </g>
        </g>
    </g>
</svg>