<?xml version="1.0" encoding="UTF-8"?>
<svg width="24px" height="24px" viewBox="0 0 24 24" version="1.1" xmlns="http://www.w3.org/2000/svg" xmlns:xlink="http://www.w3.org/1999/xlink">
    <title>home-04</title>
    <g id="Line-icons" stroke="none" stroke-width="1" fill="none" fill-rule="evenodd" stroke-linecap="round" stroke-linejoin="round">
        <g id="General" transform="translate(-336, -1476)" fill-rule="nonzero" stroke="#000000" stroke-width="2">
            <g id="Icon" transform="translate(339, 1478.2669)">
                <path d="M9,13.7331381 C10.6568546,13.7331381 12,12.3899927 12,10.7331381 C12,9.07628381 10.6568546,7.73313856 9,7.73313856 C7.34314573,7.73313856 6,9.07628381 6,10.7331381 C6,12.3899927 7.34314573,13.7331381 9,13.7331381 Z"></path>
                <path d="M0,8.29820633 C0,7.72385067 0,7.4366731 0.0740273446,7.17220545 C0.139601469,6.93793748 0.247365668,6.7175985 0.392026991,6.5220108 C0.555336729,6.30120972 0.782021195,6.12489951 1.23539007,5.77227926 L8.01769543,0.497152895 C8.36902037,0.223900169 8.54468308,0.0872737952 8.73865318,0.0347550362 C8.90980315,-0.0115850121 9.09019685,-0.0115850121 9.26134682,0.0347550362 C9.45531692,0.0872737952 9.63098007,0.223900348 9.98230553,0.497153461 L16.7646103,5.77228022 C17.2179784,6.12489989 17.4446634,6.30120972 17.6079731,6.5220108 C17.7526344,6.7175985 17.8603979,6.93793748 17.925972,7.17220545 C18,7.4366731 18,7.72385079 18,8.29820633 L18,15.5331383 C18,16.6532432 18,17.2132955 17.7820129,17.641119 C17.5902662,18.0174432 17.284306,18.3234052 16.9079819,18.515152 C16.4801584,18.733139 15.9201052,18.733139 14.8000002,18.733139 L3.19999981,18.733139 C2.0798949,18.733139 1.51984245,18.733139 1.09201896,18.515152 C0.715694815,18.3234052 0.409733713,18.0174432 0.217986971,17.641119 C0,17.2132955 0,16.6532434 0,15.5331383 L0,8.29820633 Z"></path>
            </g>
        </g>
    </g>
</svg>