<?xml version="1.0" encoding="UTF-8"?>
<svg width="24px" height="24px" viewBox="0 0 24 24" version="1.1" xmlns="http://www.w3.org/2000/svg" xmlns:xlink="http://www.w3.org/1999/xlink">
    <title>home-05</title>
    <g id="Line-icons" stroke="none" stroke-width="1" fill="none" fill-rule="evenodd" stroke-linecap="round" stroke-linejoin="round">
        <g id="General" transform="translate(-336, -1516)" fill-rule="nonzero" stroke="#000000" stroke-width="2">
            <g id="home-05" transform="translate(339, 1518.2669)">
                <path d="M9.98230553,0.497153461 C9.63098007,0.223900348 9.45531692,0.0872737952 9.26134682,0.0347550362 C9.09019685,-0.0115850121 8.90980315,-0.0115850121 8.73865318,0.0347550362 C8.54468308,0.0872737952 8.36902037,0.223900169 8.01769543,0.497152895 L1.23539007,5.77227926 C0.782021195,6.12489951 0.555336729,6.30120972 0.392026991,6.5220108 C0.247365668,6.7175985 0.139601469,6.93793748 0.0740273446,7.17220545 C0,7.4366731 0,7.72385067 0,8.29820633 L0,15.5331383 C0,16.6532434 0,17.2132955 0.217986971,17.641119 C0.409733713,18.0174432 0.715694815,18.3234052 1.09201896,18.515152 C1.51984245,18.733139 2.07989502,18.733139 3.20000005,18.733139 L5.19999981,18.733139 C5.4800261,18.733139 5.6200396,18.733139 5.72699547,18.6786423 C5.8210765,18.6307056 5.89756655,18.5542155 5.94550323,18.4601345 C6,18.3531786 6,18.2131642 6,17.9331379 L6,11.3331385 C6,10.773086 6,10.4930598 6.10899353,10.2791481 C6.2048669,10.090986 6.35784747,9.93800499 6.54600954,9.84213161 C6.75992128,9.73313813 7.03994733,9.73313808 7.5999999,9.73313808 L10.3999996,9.73313808 C10.9600521,9.73313808 11.2400792,9.73313813 11.4539909,9.84213161 C11.642153,9.93800499 11.7951331,10.090986 11.8910065,10.2791481 C12,10.4930598 12,10.773086 12,11.3331385 L12,17.9331379 C12,18.2131641 12,18.3531786 12.0544968,18.4601345 C12.1024335,18.5542155 12.1789235,18.6307056 12.2730045,18.6786423 C12.3799604,18.733139 12.5199737,18.733139 12.8000002,18.733139 L14.8000002,18.733139 C15.9201053,18.733139 16.4801584,18.733139 16.9079819,18.515152 C17.284306,18.3234052 17.5902662,18.0174432 17.7820129,17.641119 C18,17.2132955 18,16.6532432 18,15.5331383 L18,8.29820633 C18,7.72385079 18,7.4366731 17.925972,7.17220545 C17.8603979,6.93793748 17.7526344,6.7175985 17.6079731,6.5220108 C17.4446634,6.30120972 17.2179784,6.12489989 16.7646103,5.77228022 L9.98230553,0.497153461 Z" id="Icon"></path>
            </g>
        </g>
    </g>
</svg>