<?xml version="1.0" encoding="UTF-8"?>
<svg width="24px" height="24px" viewBox="0 0 24 24" version="1.1" xmlns="http://www.w3.org/2000/svg" xmlns:xlink="http://www.w3.org/1999/xlink">
    <title>home-03</title>
    <g id="Line-icons" stroke="none" stroke-width="1" fill="none" fill-rule="evenodd" stroke-linecap="round" stroke-linejoin="round">
        <g id="General" transform="translate(-336, -1436)" fill-rule="nonzero" stroke="#000000" stroke-width="2">
            <g id="Icon" transform="translate(338, 1438.25)">
                <path d="M7,18.75 L7,11.3500004 C7,10.7899479 7,10.5099218 7.10899734,10.29601 C7.20487072,10.1078479 7.35785128,9.9548669 7.54601336,9.85899353 C7.7599251,9.75000004 8.03995162,9.75 8.6000042,9.75 L11.4000044,9.75 C11.9600568,9.75 12.240083,9.75000004 12.4539948,9.85899353 C12.6421568,9.9548669 12.7951369,10.1078479 12.8910103,10.29601 C13,10.5099218 13,10.7899479 13,11.3500004 L13,18.75"></path>
                <path d="M2,5.75 L8.08000374,1.19000018 C8.76852095,0.673612237 9.11278027,0.41541826 9.49086952,0.315890074 C9.82460806,0.228036769 10.1754005,0.228036769 10.5091391,0.315890074 C10.8872283,0.41541826 11.2314867,0.673612237 11.9200039,1.19000018 L18,5.75 L18,15.5500002 C18,16.6701051 18,17.2301584 17.7820168,17.6579819 C17.59027,18.034306 17.2843098,18.3402662 16.9079857,18.5320129 C16.4801622,18.75 15.920109,18.75 14.800004,18.75 L5.20000362,18.75 C4.07989872,18.75 3.51984662,18.75 3.09202313,18.5320129 C2.71569899,18.3402662 2.40973786,18.034306 2.21799111,17.6579819 C2,17.2301584 2,16.6701052 2,15.5500002 L2,5.75 Z"></path>
                <path d="M7.20000319,1.84999967 L9.04000378,0.46999976 L9.04000378,0.46999976 C9.38426208,0.21180594 9.55639172,0.0827090144 9.74543667,0.0329449475 C9.91230583,-0.0109816641 10.0877018,-0.0109816492 10.254571,0.0329450071 C10.4436159,0.0827091038 10.6157455,0.211806059 10.9600039,0.469999999 L12.8000036,1.85000037 C14.1254868,2.84411319 14.3941155,4.7245173 13.4000027,6.05000049 C12.8334395,6.80541773 11.9442748,7.25 11.0000031,7.25"></path>
            </g>
        </g>
    </g>
</svg>