<?xml version="1.0" encoding="UTF-8"?>
<svg width="24px" height="24px" viewBox="0 0 24 24" version="1.1" xmlns="http://www.w3.org/2000/svg" xmlns:xlink="http://www.w3.org/1999/xlink">
    <title>horizontal-bar-chart-03</title>
    <g id="Line-icons" stroke="none" stroke-width="1" fill="none" fill-rule="evenodd" stroke-linecap="round" stroke-linejoin="round">
        <g id="Charts" transform="translate(-608, -196)" fill-rule="nonzero" stroke="#000000" stroke-width="2">
            <g id="Icon" transform="translate(611, 198)">
                <path d="M16.3999996,17.5 C16.9600521,17.5 17.2400792,17.5 17.4539909,17.3910065 C17.642153,17.2951331 17.7951331,17.142153 17.8910065,16.9539909 C18,16.7400792 18,16.4600521 18,15.8999996 L18,14.1000004 C18,13.539948 18,13.2599218 17.8910065,13.04601 C17.7951331,12.8578479 17.642153,12.7048679 17.4539909,12.6089945 C17.2400792,12.5 16.9600521,12.5 16.3999996,12.5 L0,12.5 L0,17.5 L16.3999996,17.5 Z"></path>
                <line x1="0" y1="0" x2="8.74228135e-07" y2="20"></line>
                <path d="M10,7.5 L10,4.10000038 C10,3.53994799 10,3.25992173 9.89100647,3.04601002 C9.79513359,2.85784793 9.64215279,2.70486739 9.45399094,2.60899401 C9.24007893,2.5 8.96005249,2.5 8.39999962,2.5 L0,2.5 M14,12.5 L14,9.10000038 C14,8.53994799 14,8.25992173 13.8910065,8.04601002 C13.7951336,7.85784793 13.6421528,7.70486738 13.4539909,7.60899401 C13.2400789,7.5 12.9600525,7.5 12.3999996,7.5 L0,7.5"></path>
            </g>
        </g>
    </g>
</svg>