<?xml version="1.0" encoding="UTF-8"?>
<svg width="24px" height="24px" viewBox="0 0 24 24" version="1.1" xmlns="http://www.w3.org/2000/svg" xmlns:xlink="http://www.w3.org/1999/xlink">
    <title>horizontal-bar-chart-02</title>
    <g id="Line-icons" stroke="none" stroke-width="1" fill="none" fill-rule="evenodd" stroke-linecap="round" stroke-linejoin="round">
        <g id="Charts" transform="translate(-608, -156)" fill-rule="nonzero" stroke="#000000" stroke-width="2">
            <g id="Icon" transform="translate(611, 158)">
                <path d="M16.3999996,7.5 C16.9600521,7.5 17.2400792,7.5 17.4539909,7.39100647 C17.642153,7.2951331 17.7951331,7.14215255 17.8910065,6.95399046 C18,6.7400787 18,6.46005261 18,5.9000001 L18,4.10000038 C18,3.53994799 18,3.25992176 17.8910065,3.04601002 C17.7951331,2.85784794 17.642153,2.70486738 17.4539909,2.60899401 C17.2400792,2.5 16.9600521,2.5 16.3999996,2.5 L0,2.5 L0,7.5 L16.3999996,7.5 Z"></path>
                <line x1="0" y1="0" x2="8.74228135e-07" y2="20"></line>
                <path d="M14,7.5 L14,10.8999996 C14,11.4600523 14,11.7400794 13.8910065,11.9539909 C13.7951336,12.1421533 13.6421528,12.2951331 13.4539909,12.3910065 C13.2400789,12.5 12.9600525,12.5 12.3999996,12.5 L0,12.5 M10,12.5 L10,15.8999996 C10,16.4600523 10,16.7400794 9.89100647,16.9539909 C9.79513359,17.1421528 9.64215279,17.2951331 9.45398998,17.3910065 C9.24007893,17.5 8.96005249,17.5 8.39999962,17.5 L4.23606798,17.5 C3.68378323,17.5 3.23606798,17.0522847 3.23606798,16.5 C3.23606798,16.1212279 3.45007035,15.7749648 3.78885438,15.6055728"></path>
            </g>
        </g>
    </g>
</svg>