<?xml version="1.0" encoding="UTF-8"?>
<svg width="24px" height="24px" viewBox="0 0 24 24" version="1.1" xmlns="http://www.w3.org/2000/svg" xmlns:xlink="http://www.w3.org/1999/xlink">
    <title>hourglass-03</title>
    <g id="Line-icons" stroke="none" stroke-width="1" fill="none" fill-rule="evenodd" stroke-linecap="round" stroke-linejoin="round">
        <g id="Time" transform="translate(-880, -316)" fill-rule="nonzero" stroke="#000000" stroke-width="2">
            <g id="Icon" transform="translate(885, 318)">
                <path d="M12.3999996,0 L1.60000002,0 C1.03994751,0 0.759921253,0 0.546009481,0.108993486 C0.357847422,0.204866856 0.204866856,0.357847422 0.108993486,0.546009481 C0,0.759921253 0,1.03994751 0,1.5999999 L0,3.67451644 C0,4.16369772 0,4.40828848 0.0552601628,4.6384635 C0.104253627,4.84253597 0.185062259,5.03762531 0.294719666,5.2165699 C0.418402821,5.41840267 0.591356933,5.59135628 0.937257111,5.93725729 L3.86862922,8.86862946 C4.26464033,9.26463985 4.46265507,9.46265602 4.53684282,9.69098282 C4.60210085,9.89182663 4.60210085,10.1081734 4.53684282,10.3090172 C4.46265459,10.5373459 4.26464653,10.7353535 3.86863065,11.1313696 L0.937258303,14.0627413 C0.591354907,14.4086447 0.418403238,14.5815964 0.294719666,14.7834301 C0.185062259,14.9623747 0.104253627,15.157464 0.0552601628,15.361536 C0,15.591711 0,15.8363018 0,16.3254833 L0,18.3999996 C0,18.9600525 0,19.240078 0.108993486,19.4539909 C0.204866856,19.6421528 0.357847422,19.7951336 0.546009481,19.8910065 C0.759921253,20 1.03994751,20 1.60000002,20 L12.3999996,20 C12.9600525,20 13.2400789,20 13.4539909,19.8910065 C13.6421528,19.7951336 13.7951336,19.6421528 13.8910065,19.4539909 C14,19.240078 14,18.9600525 14,18.3999996 L14,16.3254833 C14,15.8363018 14,15.591711 13.9447403,15.361536 C13.8957462,15.157464 13.8149376,14.9623747 13.7052803,14.7834301 C13.5815964,14.5815964 13.4086447,14.4086447 13.0627413,14.0627413 L10.1313696,11.1313696 C9.73535347,10.7353535 9.53734589,10.5373459 9.4631567,10.3090172 C9.39789867,10.1081734 9.39789867,9.89182663 9.4631567,9.69098282 C9.53734589,9.46265411 9.73535347,9.26464653 10.1313705,8.86862946 L13.0627432,5.93725729 C13.4086456,5.59135437 13.5815964,5.41840315 13.7052803,5.2165699 C13.8149376,5.03762531 13.8957462,4.84253597 13.9447403,4.6384635 C14,4.40828848 14,4.16369772 14,3.67451668 L14,1.5999999 C14,1.03994751 14,0.759921253 13.8910065,0.546009481 C13.7951336,0.357847422 13.6421528,0.204866856 13.4539909,0.108993486 C13.2400789,0 12.9600525,0 12.3999996,0 Z"></path>
                <line x1="4" y1="16.5" x2="10" y2="16.5"></line>
            </g>
        </g>
    </g>
</svg>