<?xml version="1.0" encoding="UTF-8"?>
<svg width="24px" height="24px" viewBox="0 0 24 24" version="1.1" xmlns="http://www.w3.org/2000/svg" xmlns:xlink="http://www.w3.org/1999/xlink">
    <title>hourglass-02</title>
    <g id="Line-icons" stroke="none" stroke-width="1" fill="none" fill-rule="evenodd" stroke-linecap="round" stroke-linejoin="round">
        <g id="Time" transform="translate(-880, -276)" fill-rule="nonzero" stroke="#000000" stroke-width="2">
            <g id="hourglass-02" transform="translate(885, 278)">
                <path d="M13.1625576,0 L0.837441921,0 C0.374935538,0 0,0.374935597 0,0.837441981 C0,3.50268298 1.0587604,6.05876064 2.94337034,7.94337034 L4.1625576,9.1625576 C4.28362942,9.28362942 4.34416533,9.3441658 4.38750458,9.40229797 C4.65188026,9.75691414 4.65188026,10.2430859 4.38750458,10.597702 C4.34416533,10.6558342 4.28362989,10.7163706 4.16255856,10.8374414 L2.94337249,12.0566273 C1.05876255,13.9412374 0,16.4973164 0,19.1625576 C0,19.6250648 0.374935538,20 0.837441921,20 L13.1625576,20 C13.6250639,20 14,19.6250648 14,19.1625576 C14,16.4973164 12.9412374,13.9412374 11.0566273,12.0566273 L9.83744144,10.8374414 C9.71637058,10.7163706 9.6558342,10.6558342 9.61249542,10.597702 C9.34811974,10.2430859 9.34811974,9.75691414 9.61249542,9.40229797 C9.6558342,9.3441658 9.71637058,9.28362942 9.8374424,9.1625576 L11.0566292,7.94337034 C12.9412394,6.05876064 14,3.50268298 14,0.837441981 C14,0.374935597 13.6250639,0 13.1625576,0 Z" id="Icon"></path>
            </g>
        </g>
    </g>
</svg>