<?xml version="1.0" encoding="UTF-8"?>
<svg width="24px" height="24px" viewBox="0 0 24 24" version="1.1" xmlns="http://www.w3.org/2000/svg" xmlns:xlink="http://www.w3.org/1999/xlink">
    <title>hourglass-01</title>
    <g id="Line-icons" stroke="none" stroke-width="1" fill="none" fill-rule="evenodd" stroke-linecap="round" stroke-linejoin="round">
        <g id="Time" transform="translate(-880, -236)" fill-rule="nonzero" stroke="#000000" stroke-width="2">
            <g id="hourglass-01" transform="translate(884, 238)">
                <path d="M2,0 L2,2.7518003 C2,3.57819104 2,3.99138618 2.10301447,4.37428188 C2.19428883,4.71354055 2.34444496,5.0341301 2.54663825,5.32143688 C2.77483857,5.64569855 3.09226334,5.91021967 3.72711301,6.43926096 L5.47240869,7.89367398 C6.39500953,8.66250799 6.79769952,8.86125419 7.27813374,8.99200828 C7.75856796,9.12276236 8.24143205,9.12276236 8.72186627,8.99200828 C9.20230049,8.8612542 9.60499048,8.662508 10.5275913,7.89367399 L12.2728853,6.43926239 L12.2728853,6.43926239 C12.9077358,5.91022015 13.2251616,5.64569855 13.4533615,5.32143688 C13.6555548,5.0341301 13.8057108,4.71354055 13.8969851,4.37428188 C14,3.99138618 14,3.57819104 14,2.75180054 L14,0 M2,20 L2,17.2481995 C2,16.4218082 2,16.0086136 2.10301447,15.6257181 C2.19428883,15.286459 2.34444496,14.9658699 2.54663825,14.6785631 C2.77483857,14.3543015 3.09226382,14.0897799 3.72711468,13.5607376 L5.4724086,12.1063261 C6.39500946,11.3374921 6.79769946,11.1387458 7.2781337,11.0079918 C7.75856793,10.8772377 8.24143203,10.8772377 8.72186626,11.0079918 C9.20230049,11.1387459 9.60499048,11.3374921 10.5275913,12.1063262 L12.2728872,13.5607395 L12.2728872,13.5607395 C12.9077368,14.0897808 13.2251616,14.3543015 13.4533615,14.6785631 C13.6555548,14.9658699 13.8057108,15.286459 13.8969851,15.6257181 C14,16.0086136 14,16.4218082 14,17.2481995 L14,20 M16,0 L0,0 M0,20 L16,20" id="Icon"></path>
            </g>
        </g>
    </g>
</svg>