<?xml version="1.0" encoding="UTF-8"?>
<svg width="24px" height="24px" viewBox="0 0 24 24" version="1.1" xmlns="http://www.w3.org/2000/svg" xmlns:xlink="http://www.w3.org/1999/xlink">
    <title>hurricane-02</title>
    <g id="Line-icons" stroke="none" stroke-width="1" fill="none" fill-rule="evenodd" stroke-linecap="round" stroke-linejoin="round">
        <g id="Weather" transform="translate(-336, -476)" fill-rule="nonzero" stroke="#000000" stroke-width="2">
            <g id="Icon" transform="translate(338, 480)">
                <path d="M10,14 C13.3137093,14 16,11.3137093 16,8 C16,4.68629146 13.3137093,2 10,2 C6.68629146,2 4,4.68629146 4,8 C4,11.3137093 6.68629146,14 10,14 Z"></path>
                <path d="M10,9 C10.5522847,9 11,8.55228472 11,8 C11,7.44771522 10.5522847,7 10,7 C9.44771522,7 9,7.44771522 9,8 C9,8.55228472 9.44771522,9 10,9 Z"></path>
                <path d="M4,8 C4,3.58172178 7.58172178,0 12,0 C16.4182777,0 20,3.58172178 20,8 M0,8 C0,12.4182782 3.58172178,16 8,16 C12.4182777,16 16,12.4182782 16,8"></path>
            </g>
        </g>
    </g>
</svg>