<?xml version="1.0" encoding="UTF-8"?>
<svg width="24px" height="24px" viewBox="0 0 24 24" version="1.1" xmlns="http://www.w3.org/2000/svg" xmlns:xlink="http://www.w3.org/1999/xlink">
    <title>image-03</title>
    <g id="Line-icons" stroke="none" stroke-width="1" fill="none" fill-rule="evenodd" stroke-linecap="round" stroke-linejoin="round">
        <g id="Images" transform="translate(-336, -276)" fill-rule="nonzero" stroke="#000000" stroke-width="2">
            <g id="Icon" transform="translate(338, 279)">
                <path d="M6,8 C7.10456967,8 8,7.10456967 8,6 C8,4.89543056 7.10456967,4 6,4 C4.89543056,4 4,4.89543056 4,6 C4,7.10456967 4.89543056,8 6,8 Z"></path>
                <path d="M0,4.79999971 C0,3.11984241 0,2.27976376 0.326980442,1.6380285 C0.614600539,1.0735423 1.0735423,0.614600539 1.6380285,0.326980442 C2.27976376,0 3.11984253,0 4.80000019,0 L15.1999998,0 C16.8801575,0 17.7202356,0 18.3619709,0.326980442 C18.9264571,0.614600539 19.3853993,1.0735423 19.6730194,1.6380285 C20,2.27976376 20,3.11984253 20,4.80000019 L20,13.2000008 C20,14.8801581 20,15.7202356 19.6730194,16.3619709 C19.3853993,16.9264571 18.9264571,17.3853993 18.3619709,17.6730194 C17.7202356,18 16.8801575,18 15.1999998,18 L4.80000019,18 C3.11984253,18 2.27976376,18 1.6380285,17.6730194 C1.0735423,17.3853993 0.614600539,16.9264571 0.326980442,16.3619709 C0,15.7202356 0,14.8801575 0,13.1999998 L0,4.79999971 Z"></path>
                <path d="M3.98611418,16.0138858 L8.86863136,11.1313686 L8.86863136,11.1313686 C9.26464701,10.7353529 9.46265459,10.5373451 9.69098282,10.4631567 C9.89182663,10.3978987 10.1081734,10.3978988 10.3090172,10.4631567 C10.537344,10.5373446 10.7353601,10.7353587 11.1313705,11.1313705 L15.9836783,15.9836783 C16.3742026,16.3742026 16.3742026,17.0073676 15.9836783,17.3978919 C15.7968412,17.584729 15.5436523,17.6900268 15.2794258,17.690781 M12,12 L14.8686295,9.13137054 C15.2646465,8.73535353 15.4626544,8.53734514 15.6909828,8.4631567 C15.8918262,8.39789873 16.1081734,8.39789873 16.3090172,8.4631567 C16.5373454,8.53734514 16.7353544,8.73535353 17.1313705,9.13136959 L20,12"></path>
            </g>
        </g>
    </g>
</svg>