<?xml version="1.0" encoding="UTF-8"?>
<svg width="24px" height="24px" viewBox="0 0 24 24" version="1.1" xmlns="http://www.w3.org/2000/svg" xmlns:xlink="http://www.w3.org/1999/xlink">
    <title>image-indent-right</title>
    <g id="Line-icons" stroke="none" stroke-width="1" fill="none" fill-rule="evenodd" stroke-linecap="round" stroke-linejoin="round">
        <g id="Editor" transform="translate(-336, -956)" fill-rule="nonzero" stroke="#000000" stroke-width="2">
            <g id="Icon" transform="translate(339, 960)">
                <path d="M10,5.5999999 C10,5.03994745 10,4.75992128 10.1089935,4.54600954 C10.2048669,4.35784747 10.357847,4.2048669 10.5460091,4.10899353 C10.7599208,4 11.0399479,4 11.6000004,4 L16.3999996,4 C16.9600521,4 17.2400792,4 17.4539909,4.10899353 C17.642153,4.2048669 17.7951331,4.35784747 17.8910065,4.54600954 C18,4.75992128 18,5.03994739 18,5.5999999 L18,10.3999996 C18,10.9600521 18,11.2400792 17.8910065,11.4539909 C17.7951331,11.642153 17.642153,11.7951331 17.4539909,11.8910065 C17.2400792,12 16.9600521,12 16.3999996,12 L11.6000004,12 C11.0399479,12 10.7599208,12 10.5460091,11.8910065 C10.357847,11.7951331 10.2048669,11.642153 10.1089935,11.4539909 C10,11.2400792 10,10.9600521 10,10.3999996 L10,5.5999999 Z"></path>
                <path d="M0,0 L18,0 M0,16 L18,16 M0,5.25 L6,5.25 M6,10.75 L0,10.75"></path>
            </g>
        </g>
    </g>
</svg>