<?xml version="1.0" encoding="UTF-8"?>
<svg width="24px" height="24px" viewBox="0 0 24 24" version="1.1" xmlns="http://www.w3.org/2000/svg" xmlns:xlink="http://www.w3.org/1999/xlink">
    <title>image-05</title>
    <g id="Line-icons" stroke="none" stroke-width="1" fill="none" fill-rule="evenodd" stroke-linecap="round" stroke-linejoin="round">
        <g id="Images" transform="translate(-336, -356)" fill-rule="nonzero" stroke="#000000" stroke-width="2">
            <g id="Icon" transform="translate(337.909, 359)">
                <path d="M16.0909576,6 C17.7478118,6 19.0909576,4.65685415 19.0909576,3 C19.0909576,1.34314573 17.7478118,0 16.0909576,0 C14.4341034,0 13.0909586,1.34314573 13.0909586,3 C13.0909586,4.65685415 14.4341034,6 16.0909576,6 Z"></path>
                <path d="M6.77545166,6.90017605 L0.829160333,15.4892635 C0.266133547,16.3025246 -0.015379796,16.7091551 0.000647833338,17.0473404 C0.0146059894,17.3418579 0.15782702,17.6152039 0.392032385,17.794323 C0.660962224,18 1.15553045,18 2.14466739,18 L17.0909576,18 L9.40646648,6.90017748 C8.96452522,6.26181805 8.74355412,5.94263816 8.46753788,5.83043623 C8.22607899,5.73228222 7.95583773,5.73228222 7.71437883,5.83043623 C7.4383626,5.94263816 7.21739244,6.26181746 6.77545166,6.90017605 Z"></path>
                <path d="M17.0909576,18 L18.1013298,18 C19.0724931,18 19.558075,18 19.8257465,17.7975101 C20.0589356,17.6211052 20.2032361,17.3514776 20.2206631,17.0596008 C20.2406678,16.7245641 19.9713125,16.3205328 19.4326115,15.5124798 L16.4222393,10.9969215 C15.9771144,10.3292341 15.7545514,9.9953903 15.4740276,9.87905598 C15.2287741,9.77734846 14.953142,9.77734846 14.7078886,9.87905598 C14.4273648,9.9953903 14.2048023,10.3292339 13.7596779,10.9969206 L13.0154867,12.1132078"></path>
            </g>
        </g>
    </g>
</svg>