<?xml version="1.0" encoding="UTF-8"?>
<svg width="24px" height="24px" viewBox="0 0 24 24" version="1.1" xmlns="http://www.w3.org/2000/svg" xmlns:xlink="http://www.w3.org/1999/xlink">
    <title>image-x</title>
    <g id="Line-icons" stroke="none" stroke-width="1" fill="none" fill-rule="evenodd" stroke-linecap="round" stroke-linejoin="round">
        <g id="Images" transform="translate(-880, -316)" fill-rule="nonzero" stroke="#000000" stroke-width="2">
            <g id="Icon" transform="translate(883, 318.5)">
                <path d="M5.5,8 C6.60456967,8 7.5,7.10456967 7.5,6 C7.5,4.89543056 6.60456967,4 5.5,4 C4.39543056,4 3.5,4.89543056 3.5,6 C3.5,7.10456967 4.39543056,8 5.5,8 Z"></path>
                <path d="M3.53114843,17.1080475 L11.9900379,9.41814709 C12.3486357,9.09214836 12.5279455,8.92914104 12.7325354,8.86269093 C12.9128656,8.80412024 13.1061306,8.79802331 13.289794,8.84511089 C13.498167,8.89853352 13.6873875,9.04990923 14.0658274,9.35266113 L16.8630714,11.590457 C17.2411871,11.8929498 17.430253,12.0442016 17.5732574,12.2263956 C17.7529707,12.4553576 17.8805399,12.720787 17.9470634,13.0041504 C18,13.2296352 18,13.4717493 18,13.9559793 C18,15.3951454 18,16.1147294 17.7582245,16.6799164 C17.4547043,17.3894377 16.8894377,17.9547043 16.1799164,18.2582245 C15.6147299,18.5 14.8951454,18.5 13.4559793,18.5 L4.06928539,18.5 C3.42628062,18.5 3.10477853,18.5 2.96318531,18.3755302 C2.84045386,18.2676401 2.77818859,18.1065826 2.79642773,17.9441929 C2.81746995,17.7568455 3.0553627,17.5405798 3.53114843,17.1080475 Z"></path>
                <path d="M18.5,5 L13.5,0 M13.5,5 L18.5,0 M7.12826668,0.5 L4.79999971,0.5 L4.79999971,0.5 C3.11984253,0.5 2.2797637,0.5 1.6380285,0.826980472 C1.07354224,1.11460057 0.614600539,1.57354236 0.326980442,2.13802862 C0,2.77976382 0,3.61984229 0,5.29999971 L0,13.6999998 C0,15.3801575 0,16.2202368 0.326980442,16.8619709 C0.614600539,17.4264584 1.07354224,17.8853989 1.6380285,18.1730194 C2.2797637,18.5 3.11984229,18.5 4.79999971,18.5 L14,18.5 C14.9299717,18.5 15.3949575,18.5 15.7764568,18.3977776 C16.8117332,18.1203766 17.6203766,17.3117332 17.8977776,16.2764568 C18,15.8949575 18,15.4299717 18,14.5"></path>
            </g>
        </g>
    </g>
</svg>