<?xml version="1.0" encoding="UTF-8"?>
<svg width="24px" height="24px" viewBox="0 0 24 24" version="1.1" xmlns="http://www.w3.org/2000/svg" xmlns:xlink="http://www.w3.org/1999/xlink">
    <title>image-up</title>
    <g id="Line-icons" stroke="none" stroke-width="1" fill="none" fill-rule="evenodd" stroke-linecap="round" stroke-linejoin="round">
        <g id="Images" transform="translate(-608, -276)" fill-rule="nonzero" stroke="#000000" stroke-width="2">
            <g id="Icon" transform="translate(611, 278)">
                <path d="M5.5,8.5 C6.60456967,8.5 7.5,7.60456967 7.5,6.5 C7.5,5.39543056 6.60456967,4.5 5.5,4.5 C4.39543056,4.5 3.5,5.39543056 3.5,6.5 C3.5,7.60456967 4.39543056,8.5 5.5,8.5 Z"></path>
                <path d="M3.53114843,17.6080475 L11.9900379,9.91814709 C12.3486357,9.59214836 12.5279455,9.42914104 12.7325354,9.36269093 C12.9128656,9.30412024 13.1061306,9.29802331 13.289794,9.34511089 C13.498167,9.39853352 13.6873875,9.54990923 14.0658274,9.85266113 L16.8630714,12.090457 C17.2411871,12.3929498 17.430253,12.5442016 17.5732574,12.7263956 C17.7529707,12.9553576 17.8805399,13.220787 17.9470634,13.5041504 C18,13.7296352 18,13.9717493 18,14.4559793 C18,15.8951454 18,16.6147294 17.7582245,17.1799164 C17.4547043,17.8894377 16.8894377,18.4547043 16.1799164,18.7582245 C15.6147299,19 14.8951454,19 13.4559793,19 L4.06928539,19 C3.42628062,19 3.10477853,19 2.96318531,18.8755302 C2.84045386,18.7676401 2.77818859,18.6065826 2.79642773,18.4441929 C2.81746995,18.2568455 3.0553627,18.0405798 3.53114843,17.6080475 Z"></path>
                <path d="M13,3 L16,0 L19,3 M16,6 L16,0 M7.12826668,1 L4.79999971,1 L4.79999971,1 C3.11984253,1 2.2797637,1 1.6380285,1.32698047 C1.07354224,1.61460057 0.614600539,2.07354236 0.326980442,2.63802862 C0,3.27976382 0,4.11984229 0,5.79999971 L0,14.1999998 C0,15.8801575 0,16.7202368 0.326980442,17.3619709 C0.614600539,17.9264584 1.07354224,18.3853989 1.6380285,18.6730194 C2.2797637,19 3.11984229,19 4.79999971,19 L14,19 C14.9299717,19 15.3949575,19 15.7764568,18.8977776 C16.8117332,18.6203766 17.6203766,17.8117332 17.8977776,16.7764568 C18,16.3949575 18,15.9299717 18,15"></path>
            </g>
        </g>
    </g>
</svg>