<?xml version="1.0" encoding="UTF-8"?>
<svg width="24px" height="24px" viewBox="0 0 24 24" version="1.1" xmlns="http://www.w3.org/2000/svg" xmlns:xlink="http://www.w3.org/1999/xlink">
    <title>image-indent-left</title>
    <g id="Line-icons" stroke="none" stroke-width="1" fill="none" fill-rule="evenodd" stroke-linecap="round" stroke-linejoin="round">
        <g id="Editor" transform="translate(-336, -916)" fill-rule="nonzero" stroke="#000000" stroke-width="2">
            <g id="Icon" transform="translate(339, 920)">
                <path d="M0,5.5999999 C0,5.03994745 0,4.75992128 0.108993486,4.54600954 C0.204866856,4.35784747 0.357847407,4.2048669 0.546009481,4.10899353 C0.759921223,4 1.03994751,4 1.60000002,4 L6.4000001,4 C6.96005255,4 7.24007872,4 7.45399046,4.10899353 C7.64215253,4.2048669 7.7951331,4.35784747 7.89100647,4.54600954 C8,4.75992128 8,5.03994739 8,5.5999999 L8,10.3999996 C8,10.9600521 8,11.2400792 7.89100647,11.4539909 C7.7951331,11.642153 7.64215253,11.7951331 7.45399046,11.8910065 C7.24007872,12 6.96005261,12 6.4000001,12 L1.5999999,12 C1.03994745,12 0.759921223,12 0.546009481,11.8910065 C0.357847407,11.7951331 0.204866856,11.642153 0.108993486,11.4539909 C0,11.2400792 0,10.9600521 0,10.3999996 L0,5.5999999 Z"></path>
                <path d="M12,5.25 L18,5.25 M0,0 L18,0 M12,10.75 L18,10.75 M18,16 L0,16"></path>
            </g>
        </g>
    </g>
</svg>