<?xml version="1.0" encoding="UTF-8"?>
<svg width="24px" height="24px" viewBox="0 0 24 24" version="1.1" xmlns="http://www.w3.org/2000/svg" xmlns:xlink="http://www.w3.org/1999/xlink">
    <title>image-user-plus</title>
    <g id="Line-icons" stroke="none" stroke-width="1" fill="none" fill-rule="evenodd" stroke-linecap="round" stroke-linejoin="round">
        <g id="Images" transform="translate(-880, -156)" fill-rule="nonzero" stroke="#000000" stroke-width="2">
            <g id="Icon" transform="translate(882, 158)">
                <path d="M8,11.5 C10.2091389,11.5 12,9.70913887 12,7.5 C12,5.29086089 10.2091389,3.5 8,3.5 C5.79086089,3.5 4,5.29086089 4,7.5 C4,9.70913887 5.79086089,11.5 8,11.5 Z"></path>
                <path d="M17,0 L17,6 M20,3 L14,3 M20,11.8588139 L20,15.1999998 L20,15.1999998 C20,16.8801575 20,17.7202358 19.6730194,18.3619709 C19.3853989,18.9264584 18.9264584,19.3853989 18.3619709,19.6730194 C17.7202358,20 16.8801575,20 15.1999998,20 L4.80000019,20 C3.11984253,20 2.2797637,20 1.6380285,19.6730194 C1.07354224,19.3853989 0.614600539,18.9264584 0.326980442,18.3619709 C0,17.7202358 0,16.8801575 0,15.1999998 L0,4.80000019 C0,3.11984253 0,2.2797637 0.326980442,1.6380285 C0.614600539,1.07354224 1.07354224,0.614600539 1.6380285,0.326980442 C2.2797637,0 3.11984253,0 4.80000019,0 L8.14118612,-1.12191275e-15 C8.91581044,2.88503855e-16 9.18376703,0.028047879 9.48075471,0.0964961909 C9.77774238,0.164944503 10.0405265,0.273793248 10.2989288,0.43539498 C10.557331,0.596996712 10.7666378,0.766637789 11.3143799,1.3143799 M0.145739794,17.9263134 C0.614882767,16.2385976 2.16279626,15 4,15 L11,15 C11.9293108,15 12.3939657,15 12.7803612,15.0768585 C14.3671236,15.3924852 15.6075144,16.6328763 15.9231415,18.2196388 C16,18.6060343 16,19.0706897 16,20"></path>
            </g>
        </g>
    </g>
</svg>