<?xml version="1.0" encoding="UTF-8"?>
<svg width="24px" height="24px" viewBox="0 0 24 24" version="1.1" xmlns="http://www.w3.org/2000/svg" xmlns:xlink="http://www.w3.org/1999/xlink">
    <title>image-01</title>
    <g id="Line-icons" stroke="none" stroke-width="1" fill="none" fill-rule="evenodd" stroke-linecap="round" stroke-linejoin="round">
        <g id="Images" transform="translate(-336, -196)" fill-rule="nonzero" stroke="#000000" stroke-width="2">
            <g id="Icon" transform="translate(339, 199)">
                <path d="M3.36568642,16.6343136 L11.8686295,8.13137054 C12.2646399,7.7353586 12.4626551,7.53734514 12.6909828,7.46315718 C12.8918266,7.39789921 13.1081734,7.39789921 13.3090172,7.46315718 C13.5373459,7.53734562 13.7353535,7.73535359 14.1313696,8.13136959 L18,12 L18,13.1999998 C18,14.8801575 18,15.7202377 17.6730194,16.3619728 C17.3853998,16.9264584 16.9264584,17.3853998 16.3619728,17.6730194 C15.7202377,18 14.8801575,18 13.1999998,18 L3.93137097,18 C3.32555497,18 3.02264714,18 2.88238287,17.8802032 C2.76067799,17.7762575 2.69609064,17.6203289 2.7086482,17.4607697 C2.72312075,17.2768784 2.93730915,17.0626907 3.36568642,16.6343136 Z"></path>
                <path d="M0,4.79999971 C0,3.11984241 0,2.27976376 0.326980442,1.6380285 C0.614600539,1.0735423 1.0735423,0.614600539 1.6380285,0.326980442 C2.27976376,0 3.11984253,0 4.80000019,0 L13.1999998,0 C14.8801571,0 15.7202356,0 16.3619709,0.326980442 C16.9264571,0.614600539 17.3853993,1.0735423 17.6730194,1.6380285 C18,2.27976376 18,3.11984253 18,4.80000019 L18,13.1999998 C18,14.8801575 18,15.7202377 17.6730194,16.3619728 C17.3853998,16.9264584 16.9264584,17.3853998 16.3619728,17.6730194 C15.7202377,18 14.8801575,18 13.1999998,18 L4.79999971,18 C3.11984241,18 2.27976376,18 1.6380285,17.6730194 C1.0735423,17.3853993 0.614600539,16.9264571 0.326980442,16.3619709 C0,15.7202356 0,14.8801575 0,13.1999998 L0,4.79999971 Z"></path>
                <path d="M5.5,7.5 C6.60456967,7.5 7.5,6.60456967 7.5,5.5 C7.5,4.39543056 6.60456967,3.5 5.5,3.5 C4.39543056,3.5 3.5,4.39543056 3.5,5.5 C3.5,6.60456967 4.39543056,7.5 5.5,7.5 Z"></path>
            </g>
        </g>
    </g>
</svg>