<?xml version="1.0" encoding="UTF-8"?>
<svg width="24px" height="24px" viewBox="0 0 24 24" version="1.1" xmlns="http://www.w3.org/2000/svg" xmlns:xlink="http://www.w3.org/1999/xlink">
    <title>inbox-01</title>
    <g id="Line-icons" stroke="none" stroke-width="1" fill="none" fill-rule="evenodd" stroke-linecap="round" stroke-linejoin="round">
        <g id="Communication" transform="translate(-64, -516)" fill-rule="nonzero" stroke="#000000" stroke-width="2">
            <g id="Icon" transform="translate(66, 520)">
                <path d="M13.0334368,0 L6.96656322,0 C5.8896904,0 5.35125351,0 4.87588835,0.163964346 C4.45551443,0.308961004 4.07263088,0.545595884 3.75494504,0.856745481 C3.39570117,1.20859778 3.15490413,1.69019139 2.67331314,2.65337372 L0.506749451,6.98650122 C0.317758322,7.36448431 0.223260134,7.55348015 0.156620219,7.75154734 C0.0974376276,7.92745018 0.054705698,8.10846615 0.028974073,8.29226494 C0,8.49922562 0,8.71052551 0,9.13312626 L0,11.1999998 C0,12.8801575 0,13.7202368 0.326980442,14.3619719 C0.614600539,14.9264574 1.07354224,15.3853998 1.6380285,15.6730194 C2.2797637,16 3.11984253,16 4.80000019,16 L15.1999998,16 C16.8801575,16 17.7202358,16 18.3619709,15.6730194 C18.9264584,15.3853998 19.3853989,14.9264574 19.6730194,14.3619719 C20,13.7202368 20,12.8801575 20,11.1999998 L20,9.13312626 C20,8.71052551 20,8.49922562 19.9710255,8.29226494 C19.9452934,8.10846615 19.9025631,7.92745018 19.84338,7.75154734 C19.7767391,7.55347919 19.6822433,7.36448669 19.4932499,6.98650122 L17.3266869,2.65337467 C16.8450966,1.69019973 16.6042976,1.20859623 16.2450542,0.856745481 C15.9273691,0.545595884 15.544486,0.308961004 15.1241112,0.163964346 C14.6487465,0 14.1103096,0 13.0334368,0 Z"></path>
                <path d="M0.5,8 L3.88196564,8 L3.88196564,8 C4.5671711,8 5.1935668,8.38713372 5.5,9 C5.8064332,9.61286628 6.4328289,10 7.11803436,10 L12.8819656,10 C13.5671711,10 14.1935673,9.61286628 14.5,9 C14.8064327,8.38713372 15.4328289,8 16.1180344,8 L19.5,8"></path>
            </g>
        </g>
    </g>
</svg>