<?xml version="1.0" encoding="UTF-8"?>
<svg width="24px" height="24px" viewBox="0 0 24 24" version="1.1" xmlns="http://www.w3.org/2000/svg" xmlns:xlink="http://www.w3.org/1999/xlink">
    <title>inbox-02</title>
    <g id="Line-icons" stroke="none" stroke-width="1" fill="none" fill-rule="evenodd" stroke-linecap="round" stroke-linejoin="round">
        <g id="Communication" transform="translate(-64, -556)" fill-rule="nonzero" stroke="#000000" stroke-width="2">
            <g id="Icon" transform="translate(66, 560)">
                <path d="M15.1999998,0 L4.80000019,0 C3.11984253,0 2.2797637,0 1.6380285,0.326980442 C1.07354224,0.614600539 0.614600539,1.07354224 0.326980442,1.6380285 C0,2.2797637 0,3.11984253 0,4.80000019 L0,8 L0,11.1999998 L0,11.1999998 C0,12.8801575 0,13.7202368 0.326980442,14.3619719 C0.614600539,14.9264574 1.07354224,15.3853998 1.6380285,15.6730194 C2.2797637,16 3.11984253,16 4.80000019,16 L15.1999998,16 C16.8801575,16 17.7202358,16 18.3619709,15.6730194 C18.9264584,15.3853998 19.3853989,14.9264574 19.6730194,14.3619719 C20,13.7202368 20,12.8801575 20,11.1999998 L20,8 L20,4.80000019 L20,4.80000019 C20,3.11984253 20,2.2797637 19.6730194,1.6380285 C19.3853989,1.07354224 18.9264584,0.614600539 18.3619709,0.326980442 C17.7202358,0 16.8801575,0 15.1999998,0 Z"></path>
                <path d="M0,8 L3.88196564,8 L3.88196564,8 C4.5671711,8 5.1935668,8.38713372 5.5,9 C5.8064332,9.61286628 6.4328289,10 7.11803436,10 L12.8819656,10 C13.5671711,10 14.1935673,9.61286628 14.5,9 C14.8064327,8.38713372 15.4328289,8 16.1180344,8 L20,8"></path>
            </g>
        </g>
    </g>
</svg>