<?xml version="1.0" encoding="UTF-8"?>
<svg width="24px" height="24px" viewBox="0 0 24 24" version="1.1" xmlns="http://www.w3.org/2000/svg" xmlns:xlink="http://www.w3.org/1999/xlink">
    <title>info-hexagon</title>
    <g id="Line-icons" stroke="none" stroke-width="1" fill="none" fill-rule="evenodd" stroke-linecap="round" stroke-linejoin="round">
        <g id="General" transform="translate(-336, -1676)" fill-rule="nonzero" stroke="#000000" stroke-width="2">
            <g id="Icon" transform="translate(339, 1678.144)">
                <path d="M8.22297096,0.287723571 C8.50657505,0.130165741 8.64837679,0.0513868183 8.79854774,0.0205014814 C8.93145768,-0.00683381967 9.06854041,-0.00683382712 9.20145035,0.0205014627 C9.3516213,0.0513867866 9.49342382,0.130165756 9.77702808,0.28772366 L17.1770287,4.39883423 C17.4765531,4.56523667 17.6263145,4.648438 17.7353668,4.76677513 C17.8318423,4.87146468 17.9048538,4.99554697 17.9495163,5.13072348 C18,5.28352192 18,5.45484367 18,5.79748678 L18,13.9145956 C18,14.2572386 18,14.4285605 17.9495163,14.5813589 C17.9048538,14.7165354 17.8318423,14.8406172 17.7353668,14.9453068 C17.6263145,15.0636439 17.4765526,15.1468455 17.1770287,15.3132477 L9.77702808,19.4243584 C9.49342391,19.5819162 9.3516213,19.6606945 9.20145035,19.6915798 C9.06854041,19.7189151 8.93145768,19.7189151 8.79854774,19.6915798 C8.64837679,19.6606945 8.50657523,19.5819163 8.22297096,19.4243584 L0.82297194,15.3132477 C0.523447603,15.1468453 0.37368539,15.0636439 0.264633119,14.9453068 C0.16815763,14.8406172 0.095147267,14.7165354 0.0504847877,14.5813589 C0,14.4285605 0,14.2572387 0,13.9145956 L0,5.79748631 C0,5.45484331 0,5.28352191 0.0504847877,5.13072348 C0.095147267,4.995547 0.16815763,4.87146467 0.264633119,4.76677513 C0.37368539,4.64843801 0.523447394,4.56523688 0.822971284,4.39883471 L8.22297096,0.287723571 Z"></path>
                <path d="M9,9.85604095 L9,13.856041 M9,5.85604095 L9.01000023,5.85604095"></path>
            </g>
        </g>
    </g>
</svg>