<?xml version="1.0" encoding="UTF-8"?>
<svg width="24px" height="24px" viewBox="0 0 24 24" version="1.1" xmlns="http://www.w3.org/2000/svg" xmlns:xlink="http://www.w3.org/1999/xlink">
    <title>keyboard-01</title>
    <g id="Line-icons" stroke="none" stroke-width="1" fill="none" fill-rule="evenodd" stroke-linecap="round" stroke-linejoin="round">
        <g id="Media-&amp;-devices" transform="translate(-64, -1196)" fill-rule="nonzero" stroke="#000000" stroke-width="2">
            <g id="Icon" transform="translate(66, 1202)">
                <path d="M0,3.19999981 C0,2.0798949 0,1.51984245 0.217986971,1.09201896 C0.409733713,0.715694815 0.715694815,0.409733713 1.09201896,0.217986971 C1.51984245,0 2.07989478,0 3.19999981,0 L16.7999992,0 C17.9201046,0 18.4801584,0 18.9079819,0.217986971 C19.284306,0.409733713 19.5902662,0.715694815 19.7820129,1.09201896 C20,1.51984245 20,2.07989514 20,3.20000029 L20,8.80000019 C20,9.9201051 20,10.4801574 19.7820129,10.9079809 C19.5902662,11.2843051 19.284306,11.5902662 18.9079819,11.7820129 C18.4801584,12 17.9201043,12 16.7999992,12 L3.20000052,12 C2.07989514,12 1.51984245,12 1.09201896,11.7820129 C0.715694815,11.5902662 0.409733713,11.2843051 0.217986971,10.9079809 C0,10.4801574 0,9.92010534 0,8.80000019 L0,3.19999981 Z"></path>
                <path d="M4.01000023,4 L4,4 M6.01000023,8 L6,8 M8.01000023,4 L8,4 M10.0100002,8 L10,8 M12.0100002,4 L12,4 M14.0100002,8 L14,8 M16,4 L16.0100002,4"></path>
            </g>
        </g>
    </g>
</svg>