<?xml version="1.0" encoding="UTF-8"?>
<svg width="24px" height="24px" viewBox="0 0 24 24" version="1.1" xmlns="http://www.w3.org/2000/svg" xmlns:xlink="http://www.w3.org/1999/xlink">
    <title>laptop-02</title>
    <g id="Line-icons" stroke="none" stroke-width="1" fill="none" fill-rule="evenodd" stroke-linecap="round" stroke-linejoin="round">
        <g id="Media-&amp;-devices" transform="translate(-336, -236)" fill-rule="nonzero" stroke="#000000" stroke-width="2">
            <g id="Icon" transform="translate(338, 240)">
                <path d="M0,13.333333 C0,13.0233425 0,12.8683479 0.0340741687,12.7411814 C0.126541305,12.3960893 0.396088898,12.126541 0.741180956,12.0340738 C0.868347496,12 1.02334276,12 1.33333325,12 L18.666666,12 C18.9766573,12 19.131653,12 19.2588196,12.0340738 C19.6039116,12.126541 19.8734581,12.3960893 19.9659252,12.7411814 C20,12.8683479 20,13.0233424 20,13.333333 C20,13.9533141 20,14.2633051 19.9318523,14.5176382 C19.7469181,15.2078223 19.2078214,15.7469171 18.5176373,15.9318514 C18.2633042,16 17.953315,16 17.333334,16 L2.66666651,16 C2.04668552,16 1.73669499,16 1.48236191,15.9318514 C0.792177796,15.7469171 0.253082611,15.2078223 0.0681483373,14.5176382 C0,14.2633051 0,13.9533142 0,13.333333 Z"></path>
                <path d="M19,12 L19,3.20000029 C19,2.07989502 19,1.51984251 18.7820129,1.09201896 C18.5902672,0.715694845 18.2843056,0.409733713 17.9079819,0.217986971 C17.4801579,0 16.920105,0 15.8000002,0 L4.19999981,0 C3.07989478,0 2.51984262,0 2.09201908,0.217986971 C1.71569496,0.409733713 1.40973368,0.715694845 1.21798694,1.09201896 C1,1.51984251 1,2.07989502 1,3.19999981 L1,12"></path>
            </g>
        </g>
    </g>
</svg>