<?xml version="1.0" encoding="UTF-8"?>
<svg width="24px" height="24px" viewBox="0 0 24 24" version="1.1" xmlns="http://www.w3.org/2000/svg" xmlns:xlink="http://www.w3.org/1999/xlink">
    <title>laptop-01</title>
    <g id="Line-icons" stroke="none" stroke-width="1" fill="none" fill-rule="evenodd" stroke-linecap="round" stroke-linejoin="round">
        <g id="Media-&amp;-devices" transform="translate(-336, -196)" fill-rule="nonzero" stroke="#000000" stroke-width="2">
            <g id="Icon" transform="translate(338, 200)">
                <path d="M1,3.19999981 C1,2.0798949 1,1.51984245 1.21798694,1.09201896 C1.40973368,0.715694815 1.71569493,0.409733713 2.09201908,0.217986971 C2.51984257,0 3.07989526,0 4.20000029,0 L15.8000002,0 C16.9201051,0 17.4801584,0 17.9079819,0.217986971 C18.284306,0.409733713 18.5902662,0.715694815 18.7820129,1.09201896 C19,1.51984245 19,2.07989514 19,3.20000029 L19,12 L13.6627417,12 C13.4181511,12 13.2958556,12 13.180768,12.0276299 C13.0787318,12.0521266 12.9811874,12.0925311 12.891715,12.1473598 C12.7907984,12.2092016 12.7043229,12.2956771 12.5313711,12.4686289 L12.4686289,12.5313711 C12.2956774,12.7043226 12.2092016,12.7907984 12.108285,12.8526402 C12.0188126,12.9074689 11.9212682,12.9478734 11.819232,12.9723701 C11.7041444,13 11.581849,13 11.3372583,13 L8.66274166,13 C8.41815107,13 8.29585558,13 8.18076801,12.9723701 C8.07873179,12.9478734 7.98118736,12.9074689 7.89171505,12.8526402 C7.79079843,12.7907984 7.7043224,12.7043229 7.53137064,12.5313711 L7.46862888,12.4686289 C7.29567736,12.2956774 7.20920157,12.2092016 7.10828495,12.1473598 C7.01881264,12.0925311 6.92126821,12.0521266 6.81923199,12.0276299 C6.70414442,12 6.58184896,12 6.33725834,12 L1,12 L1,3.19999981 Z"></path>
                <path d="M18,12 L18.666666,12 L18.666666,12 C18.9766579,12 19.1316528,12 19.2588196,12.0340738 C19.6039104,12.126541 19.8734589,12.3960893 19.9659252,12.7411814 C20,12.8683479 20,13.0233425 20,13.333333 C20,13.9533141 20,14.2633052 19.9318523,14.5176382 C19.7469177,15.2078223 19.2078228,15.7469172 18.5176373,15.9318514 C18.2633057,16 17.9533138,16 17.333334,16 L2.66666651,16 C2.04668546,16 1.73669505,16 1.48236191,15.9318514 C0.792177796,15.7469172 0.253082596,15.2078223 0.0681483373,14.5176382 C0,14.2633052 0,13.953315 0,13.333334 L0,13 C0,12.4477153 0.447715282,12 1,12"></path>
            </g>
        </g>
    </g>
</svg>