<?xml version="1.0" encoding="UTF-8"?>
<svg width="24px" height="24px" viewBox="0 0 24 24" version="1.1" xmlns="http://www.w3.org/2000/svg" xmlns:xlink="http://www.w3.org/1999/xlink">
    <title>left-indent-01</title>
    <g id="Line-icons" stroke="none" stroke-width="1" fill="none" fill-rule="evenodd" stroke-linecap="round" stroke-linejoin="round">
        <g id="Editor" transform="translate(-336, -1116)" fill-rule="nonzero" stroke="#000000" stroke-width="2">
            <g id="Icon" transform="translate(339, 1120)">
                <path d="M0,11 C0,11.5149742 0,11.7724615 0.106322423,11.9082499 C0.19884716,12.0264167 0.339558348,12.096772 0.489606678,12.0998917 C0.662030846,12.1034766 0.868020505,11.948984 1.27999997,11.6399994 L5.14666653,8.73999977 C5.4361583,8.52288094 5.58090438,8.41432184 5.6326642,8.28123569 C5.67800089,8.16466488 5.67800089,8.03533493 5.6326642,7.91876411 C5.58090438,7.78567797 5.4361583,7.67711839 5.14666653,7.45999956 L1.27999985,4.55999994 C0.868020505,4.25101545 0.662030846,4.09652325 0.489606678,4.10010815 C0.339558348,4.10322782 0.19884716,4.1735831 0.106322423,4.29174995 C0,4.42753835 0,4.68502551 0,5.19999981 L0,11 Z"></path>
                <path d="M9,5.25 L18,5.25 M0,0 L18,0 M9,10.75 L18,10.75 M18,16 L0,16"></path>
            </g>
        </g>
    </g>
</svg>