<?xml version="1.0" encoding="UTF-8"?>
<svg width="24px" height="24px" viewBox="0 0 24 24" version="1.1" xmlns="http://www.w3.org/2000/svg" xmlns:xlink="http://www.w3.org/1999/xlink">
    <title>left-indent-02</title>
    <g id="Line-icons" stroke="none" stroke-width="1" fill="none" fill-rule="evenodd" stroke-linecap="round" stroke-linejoin="round">
        <g id="Editor" transform="translate(-336, -1156)" fill-rule="nonzero" stroke="#000000" stroke-width="2">
            <g id="Icon" transform="translate(339, 1158.5)">
                <path d="M0,6.89995289 C0,7.41492712 0,7.67241435 0.106322423,7.80820274 C0.19884716,7.9263696 0.339558348,7.99672487 0.489606678,7.99984455 C0.662030846,8.00342945 0.868020505,7.84893733 1.27999997,7.53995275 L5.14666653,4.63995266 C5.4361583,4.42283383 5.58090438,4.31427473 5.6326642,4.18118858 C5.67800089,4.06461777 5.67800089,3.93528806 5.6326642,3.81871724 C5.58090438,3.6856311 5.4361583,3.57707176 5.14666653,3.35995293 L1.27999985,0.459952831 C0.868020505,0.150968343 0.662030846,-0.00352391779 0.489606678,0 C0.339558348,0.00318065689 0.19884716,0.0735362545 0.106322423,0.191703111 C0,0.327491507 0,0.58497864 0,1.09995294 L0,6.89995289 Z"></path>
                <path d="M9,6.74995279 L18,6.74995279 M9,1.49995291 L18,1.49995375 M0,12.2499533 L18,12.2499533 M18,17.4999523 L0,17.4999523"></path>
            </g>
        </g>
    </g>
</svg>