<?xml version="1.0" encoding="UTF-8"?>
<svg width="24px" height="24px" viewBox="0 0 24 24" version="1.1" xmlns="http://www.w3.org/2000/svg" xmlns:xlink="http://www.w3.org/1999/xlink">
    <title>life-buoy-02</title>
    <g id="Line-icons" stroke="none" stroke-width="1" fill="none" fill-rule="evenodd" stroke-linecap="round" stroke-linejoin="round">
        <g id="General" transform="translate(-336, -1836)" fill-rule="nonzero" stroke="#000000" stroke-width="2">
            <g id="Icon" transform="translate(338, 1838)">
                <path d="M10,20 C15.5228481,20 20,15.5228481 20,10 C20,4.47715235 15.5228481,0 10,0 C4.47715235,0 0,4.47715235 0,10 C0,15.5228481 4.47715235,20 10,20 Z"></path>
                <path d="M10,15 C12.7614241,15 15,12.7614241 15,10 C15,7.23857617 12.7614241,5 10,5 C7.23857617,5 5,7.23857617 5,10 C5,12.7614241 7.23857617,15 10,15 Z"></path>
                <path d="M2.92893171,2.92895508 L6.46445465,6.46447754 M6.46447754,13.5355453 L2.92893171,17.0710907 M17.0710678,17.0710449 L13.5355453,13.5355225 M17.0710678,2.9289093 L13.5355225,6.46445465"></path>
            </g>
        </g>
    </g>
</svg>