<?xml version="1.0" encoding="UTF-8"?>
<svg width="24px" height="24px" viewBox="0 0 24 24" version="1.1" xmlns="http://www.w3.org/2000/svg" xmlns:xlink="http://www.w3.org/1999/xlink">
    <title>life-buoy-01</title>
    <g id="Line-icons" stroke="none" stroke-width="1" fill="none" fill-rule="evenodd" stroke-linecap="round" stroke-linejoin="round">
        <g id="General" transform="translate(-336, -1796)" fill-rule="nonzero" stroke="#000000" stroke-width="2">
            <g id="Icon" transform="translate(338, 1798)">
                <path d="M10,20 C15.5228481,20 20,15.5228481 20,10 C20,4.47715235 15.5228481,0 10,0 C4.47715235,0 0,4.47715235 0,10 C0,15.5228481 4.47715235,20 10,20 Z"></path>
                <path d="M10,14 C12.2091389,14 14,12.2091389 14,10 C14,7.79086089 12.2091389,6 10,6 C7.79086089,6 6,7.79086089 6,10 C6,12.2091389 7.79086089,14 10,14 Z"></path>
                <path d="M2.92893219,2.92895508 L7.13626099,7.13628387 M7.16796875,12.8320541 L2.92893219,17.0710907 M17.0683975,17.0710907 L12.8610678,12.8637619 M17.0683975,2.92895508 L12.8287344,7.16861725"></path>
            </g>
        </g>
    </g>
</svg>