<?xml version="1.0" encoding="UTF-8"?>
<svg width="24px" height="24px" viewBox="0 0 24 24" version="1.1" xmlns="http://www.w3.org/2000/svg" xmlns:xlink="http://www.w3.org/1999/xlink">
    <title>lightbulb-01</title>
    <g id="Line-icons" stroke="none" stroke-width="1" fill="none" fill-rule="evenodd" stroke-linecap="round" stroke-linejoin="round">
        <g id="Media-&amp;-devices" transform="translate(-336, -276)" fill-rule="nonzero" stroke="#000000" stroke-width="2">
            <g id="Icon" transform="translate(340.5, 278)">
                <path d="M7.5,0 C3.35786438,0 0,3.35786438 0,7.5 C0,10.5754786 1.85114288,13.3426628 4.5,14.5 L10.5,14.5 C13.1488571,13.3426628 15,10.5754786 15,7.5 C15,3.35786438 11.6421356,0 7.5,0 Z"></path>
                <path d="M10.5,14.5 L10.5,17 C10.5,17.9318814 10.5,18.3978233 10.3477592,18.7653656 C10.1447711,19.2554216 9.75542355,19.6447711 9.26536751,19.8477592 C8.89782524,20 8.4318831,20 7.5,20 C6.5681169,20 6.10217512,20 5.73463297,19.8477592 C5.24457687,19.6447711 4.85522866,19.2554216 4.65224075,18.7653656 C4.5,18.3978233 4.5,17.9318814 4.5,17 L4.5,14.5"></path>
            </g>
        </g>
    </g>
</svg>