<?xml version="1.0" encoding="UTF-8"?>
<svg width="24px" height="24px" viewBox="0 0 24 24" version="1.1" xmlns="http://www.w3.org/2000/svg" xmlns:xlink="http://www.w3.org/1999/xlink">
    <title>lightbulb-05</title>
    <g id="Line-icons" stroke="none" stroke-width="1" fill="none" fill-rule="evenodd" stroke-linecap="round" stroke-linejoin="round">
        <g id="Media-&amp;-devices" transform="translate(-336, -436)" fill-rule="nonzero" stroke="#000000" stroke-width="2">
            <g id="Icon" transform="translate(338, 438)">
                <path d="M13.5,14.8739529 C15.0140686,13.7847748 16,12.0075264 16,10 C16,6.68629146 13.3137093,4 10,4 C6.68629146,4 4,6.68629146 4,10 C4,12.0075264 4.9859314,13.7847748 6.5,14.8739529 L6.5,16.7999992 C6.5,17.9201049 6.5,18.4801584 6.71798706,18.9079819 C6.9097338,19.284306 7.21569493,19.5902662 7.59201908,19.7820129 C8.01984257,20 8.57989466,20 9.69999981,20 L10.3000002,20 C11.4201052,20 11.9801574,20 12.4079809,19.7820129 C12.7843051,19.5902662 13.0902662,19.284306 13.2820129,18.9079819 C13.5,18.4801584 13.5,17.9201057 13.5,16.8000011 L13.5,14.8739529 Z"></path>
                <path d="M10,1 L10,0 M0,10 L1,10 M2.89990234,2.89990234 L3.5,3.5 M17.1002483,2.89990234 L16.5,3.5 M19,10 L20,10 M12,11.5 L8,11.5 M10,11.5 L10,16.5"></path>
            </g>
        </g>
    </g>
</svg>