<?xml version="1.0" encoding="UTF-8"?>
<svg width="24px" height="24px" viewBox="0 0 24 24" version="1.1" xmlns="http://www.w3.org/2000/svg" xmlns:xlink="http://www.w3.org/1999/xlink">
    <title>lightbulb-02</title>
    <g id="Line-icons" stroke="none" stroke-width="1" fill="none" fill-rule="evenodd" stroke-linecap="round" stroke-linejoin="round">
        <g id="Media-&amp;-devices" transform="translate(-336, -316)" fill-rule="nonzero" stroke="#000000" stroke-width="2">
            <g id="Icon" transform="translate(338, 318)">
                <path d="M10,16 C13.3137093,16 16,13.3137093 16,10 C16,6.68629146 13.3137093,4 10,4 C6.68629146,4 4,6.68629146 4,10 C4,13.3137093 6.68629146,16 10,16 Z"></path>
                <path d="M8,15.6585884 L8,18 C8,19.1045697 8.89543056,20 10,20 C11.1045694,20 12,19.1045675 12,18 L12,15.6585884 M10,1 L10,0 M0,10 L1,10 M2.89990234,2.89990234 L3.5,3.5 M17.1002483,2.89990234 L16.5,3.5 M20,10 L19,10"></path>
            </g>
        </g>
    </g>
</svg>