<?xml version="1.0" encoding="UTF-8"?>
<svg width="24px" height="24px" viewBox="0 0 24 24" version="1.1" xmlns="http://www.w3.org/2000/svg" xmlns:xlink="http://www.w3.org/1999/xlink">
    <title>lightning-02</title>
    <g id="Line-icons" stroke="none" stroke-width="1" fill="none" fill-rule="evenodd" stroke-linecap="round" stroke-linejoin="round">
        <g id="Weather" transform="translate(-336, -596)" fill-rule="nonzero" stroke="#000000" stroke-width="2">
            <g id="lightning-02" transform="translate(339.3105, 598)">
                <path d="M10.9389782,0 L5.18340588,0 C5.00392701,0 4.91418753,0 4.83495998,0.0273273923 C4.76489763,0.0514935013 4.7010838,0.0909326524 4.64813614,0.142790914 C4.58826214,0.201432999 4.54812942,0.281698391 4.46786404,0.442229152 L0.267864615,8.84222794 C0.0761845261,9.22558811 -0.0196555324,9.41726832 0.00336515228,9.57308006 C0.0234668932,9.70913541 0.0987235233,9.83090366 0.211425349,9.909729 C0.340492442,10 0.554796934,10 0.983405888,10 L7.18897867,10 L4.18897867,20 L16.3820744,7.3553071 C16.7934437,6.92870194 16.9991285,6.71539941 17.011158,6.53288317 C17.0215998,6.37445569 16.9561777,6.22048517 16.8348866,6.1180315 C16.6951532,6 16.3988347,6 15.8061981,6 L8.6889782,6 L10.9389782,0 Z" id="Icon"></path>
            </g>
        </g>
    </g>
</svg>