<?xml version="1.0" encoding="UTF-8"?>
<svg width="24px" height="24px" viewBox="0 0 24 24" version="1.1" xmlns="http://www.w3.org/2000/svg" xmlns:xlink="http://www.w3.org/1999/xlink">
    <title>lightbulb-04</title>
    <g id="Line-icons" stroke="none" stroke-width="1" fill="none" fill-rule="evenodd" stroke-linecap="round" stroke-linejoin="round">
        <g id="Media-&amp;-devices" transform="translate(-336, -396)" fill-rule="nonzero" stroke="#000000" stroke-width="2">
            <g id="Icon" transform="translate(341, 398)">
                <path d="M10,13.3263693 C12.3649473,12.2029057 14,9.79239655 14,7 C14,3.1340065 10.8659935,0 7,0 C3.1340065,0 0,3.1340065 0,7 C0,9.79239655 1.63505268,12.2029057 4,13.3263693 L4,14 C4,14.9318826 4,15.3978244 4.15224075,15.7653666 C4.35522866,16.2554227 4.74457681,16.6447713 5.23463297,16.8477592 C5.60217509,17 6.06811684,17 7,17 C7.93188316,17 8.39782444,17 8.76536655,16.8477592 C9.25542271,16.6447713 9.64477134,16.2554227 9.84775925,15.7653666 C10,15.3978244 10,14.9318827 10,14 L10,13.3263693 Z"></path>
                <path d="M9.5,20 L4.5,20 M9,8 L5,8 M7,8 L7,14"></path>
            </g>
        </g>
    </g>
</svg>