<?xml version="1.0" encoding="UTF-8"?>
<svg width="24px" height="24px" viewBox="0 0 24 24" version="1.1" xmlns="http://www.w3.org/2000/svg" xmlns:xlink="http://www.w3.org/1999/xlink">
    <title>line-chart-up-03</title>
    <g id="Line-icons" stroke="none" stroke-width="1" fill="none" fill-rule="evenodd" stroke-linecap="round" stroke-linejoin="round">
        <g id="Charts" transform="translate(-608, -516)" fill-rule="nonzero" stroke="#000000" stroke-width="2">
            <g id="Icon" transform="translate(611, 519)">
                <path d="M11.3599279,8.64007206 L8.56568527,11.4343147 L8.56568527,11.4343147 C8.36767659,11.6323234 8.26867283,11.731327 8.15450859,11.7684212 C8.05408689,11.8010502 7.94591311,11.8010502 7.84549141,11.7684212 C7.73132717,11.731327 7.63232321,11.6323232 7.43431473,11.4343147 L5.56568575,9.56568527 C5.36767718,9.36767671 5.26867283,9.26867304 5.15450859,9.23157883 C5.05408689,9.19894984 4.94591311,9.19894984 4.84549141,9.23157883 C4.73132717,9.26867304 4.63232321,9.36767679 4.43431473,9.56568527 L2.64007206,11.3599279 C2.44480991,11.5551901 2.44480991,11.8717726 2.64007206,12.0670347 C2.79950733,12.22647 3.04592734,12.2594701 3.24169492,12.1476029"></path>
                <path d="M10,6 L13.3590287,6 C13.5819084,6 13.6627299,6.0232064 13.7442114,6.06678318 C13.8256929,6.11035995 13.8896401,6.17430709 13.9332168,6.25578857 C13.9767936,6.33727006 14,6.41809162 14,6.6409713 L14,10 L14,10"></path>
                <path d="M0,4.79999971 C0,3.11984241 0,2.27976376 0.326980442,1.6380285 C0.614600539,1.0735423 1.0735423,0.614600539 1.6380285,0.326980442 C2.27976376,0 3.11984253,0 4.80000019,0 L13.2000008,0 C14.8801581,0 15.7202356,0 16.3619709,0.326980442 C16.9264571,0.614600539 17.3853993,1.0735423 17.6730194,1.6380285 C18,2.27976376 18,3.11984253 18,4.80000019 L18,13.2000008 C18,14.8801581 18,15.7202356 17.6730194,16.3619709 C17.3853993,16.9264571 16.9264571,17.3853993 16.3619709,17.6730194 C15.7202356,18 14.8801575,18 13.1999998,18 L4.79999971,18 C3.11984241,18 2.27976376,18 1.6380285,17.6730194 C1.0735423,17.3853993 0.614600539,16.9264571 0.326980442,16.3619709 C0,15.7202356 0,14.8801575 0,13.1999998 L0,4.79999971 Z"></path>
            </g>
        </g>
    </g>
</svg>