<?xml version="1.0" encoding="UTF-8"?>
<svg width="24px" height="24px" viewBox="0 0 24 24" version="1.1" xmlns="http://www.w3.org/2000/svg" xmlns:xlink="http://www.w3.org/1999/xlink">
    <title>line-chart-down-02</title>
    <g id="Line-icons" stroke="none" stroke-width="1" fill="none" fill-rule="evenodd" stroke-linecap="round" stroke-linejoin="round">
        <g id="Charts" transform="translate(-608, -276)" fill-rule="nonzero" stroke="#000000" stroke-width="2">
            <g id="Icon" transform="translate(611, 279)">
                <path d="M15.3599274,9.35992762 L12.5656853,6.56568575 L12.5656853,6.56568575 C12.3676766,6.36767706 12.2686728,6.26867256 12.1545086,6.23157835 C12.0540869,6.19894937 11.9459131,6.19894937 11.8454914,6.23157835 C11.7313272,6.26867256 11.6323232,6.36767679 11.4343147,6.56568527 L9.56568527,8.43431473 C9.36767671,8.63232329 9.26867283,8.73132696 9.15450859,8.76842117 C9.05408689,8.80105016 8.94591311,8.80105016 8.84549141,8.76842117 C8.73132717,8.73132696 8.63232321,8.63232321 8.43431473,8.43431473 L6.64007206,6.64007206 C6.44480991,6.44480991 6.44480991,6.12822742 6.64007206,5.93296528 C6.79950733,5.77353 7.04592734,5.74052991 7.24169492,5.8523971"></path>
                <path d="M14,12 L17.3590287,12 C17.5819084,12 17.6627299,11.9767936 17.7442114,11.9332168 C17.8256929,11.8896401 17.8896401,11.8256929 17.9332168,11.7442114 C17.9767936,11.6627299 18,11.5819084 18,11.3590287 L18,8 L18,8"></path>
                <path d="M15.5857864,18 L1.5999999,18 L1.5999999,18 C1.03994739,18 0.759921253,18 0.546009481,17.8910065 C0.357847422,17.7951336 0.204866856,17.6421528 0.108993486,17.4539909 C0,17.240078 0,16.9600525 0,16.3999996 L-3.33066907e-16,2.41421356 C-1.55438584e-16,1.86192881 0.44771525,1.41421356 1,1.41421356 C1.26521649,1.41421356 1.5195704,1.5195704 1.70710678,1.70710678"></path>
            </g>
        </g>
    </g>
</svg>