<?xml version="1.0" encoding="UTF-8"?>
<svg width="24px" height="24px" viewBox="0 0 24 24" version="1.1" xmlns="http://www.w3.org/2000/svg" xmlns:xlink="http://www.w3.org/1999/xlink">
    <title>line-chart-down-03</title>
    <g id="Line-icons" stroke="none" stroke-width="1" fill="none" fill-rule="evenodd" stroke-linecap="round" stroke-linejoin="round">
        <g id="Charts" transform="translate(-608, -316)" fill-rule="nonzero" stroke="#000000" stroke-width="2">
            <g id="Icon" transform="translate(611, 319)">
                <path d="M11.3599274,9.35992762 L8.56568527,6.56568575 L8.56568527,6.56568575 C8.36767659,6.36767706 8.26867283,6.26867256 8.15450859,6.23157835 C8.05408689,6.19894937 7.94591311,6.19894937 7.84549141,6.23157835 C7.73132717,6.26867256 7.63232321,6.36767679 7.43431473,6.56568527 L5.56568575,8.43431473 C5.36767718,8.63232329 5.26867283,8.73132696 5.15450859,8.76842117 C5.05408689,8.80105016 4.94591311,8.80105016 4.84549141,8.76842117 C4.73132717,8.73132696 4.63232321,8.63232321 4.43431473,8.43431473 L2.64007206,6.64007206 C2.44480991,6.44480991 2.44480991,6.12822742 2.64007206,5.93296528 C2.79950733,5.77353 3.04592734,5.74052991 3.24169492,5.8523971"></path>
                <path d="M10,12 L13.3590287,12 C13.5819084,12 13.6627299,11.9767936 13.7442114,11.9332168 C13.8256929,11.8896401 13.8896401,11.8256929 13.9332168,11.7442114 C13.9767936,11.6627299 14,11.5819084 14,11.3590287 L14,8 L14,8"></path>
                <path d="M0,4.79999971 C0,3.11984241 0,2.27976376 0.326980442,1.6380285 C0.614600539,1.0735423 1.0735423,0.614600539 1.6380285,0.326980442 C2.27976376,0 3.11984253,0 4.80000019,0 L13.2000008,0 C14.8801581,0 15.7202356,0 16.3619709,0.326980442 C16.9264571,0.614600539 17.3853993,1.0735423 17.6730194,1.6380285 C18,2.27976376 18,3.11984253 18,4.80000019 L18,13.2000008 C18,14.8801581 18,15.7202356 17.6730194,16.3619709 C17.3853993,16.9264571 16.9264571,17.3853993 16.3619709,17.6730194 C15.7202356,18 14.8801575,18 13.1999998,18 L4.79999971,18 C3.11984241,18 2.27976376,18 1.6380285,17.6730194 C1.0735423,17.3853993 0.614600539,16.9264571 0.326980442,16.3619709 C0,15.7202356 0,14.8801575 0,13.1999998 L0,4.79999971 Z"></path>
            </g>
        </g>
    </g>
</svg>