<?xml version="1.0" encoding="UTF-8"?>
<svg width="24px" height="24px" viewBox="0 0 24 24" version="1.1" xmlns="http://www.w3.org/2000/svg" xmlns:xlink="http://www.w3.org/1999/xlink">
    <title>line-chart-up-02</title>
    <g id="Line-icons" stroke="none" stroke-width="1" fill="none" fill-rule="evenodd" stroke-linecap="round" stroke-linejoin="round">
        <g id="Charts" transform="translate(-608, -476)" fill-rule="nonzero" stroke="#000000" stroke-width="2">
            <g id="Icon" transform="translate(611, 479)">
                <path d="M15.3599279,6.64007206 L12.5656853,9.43431473 L12.5656853,9.43431473 C12.3676766,9.63232341 12.2686728,9.73132696 12.1545086,9.76842117 C12.0540869,9.80105016 11.9459131,9.80105016 11.8454914,9.76842117 C11.7313272,9.73132696 11.6323232,9.63232321 11.4343147,9.43431473 L9.56568527,7.56568575 C9.36767671,7.36767718 9.26867283,7.26867256 9.15450859,7.23157835 C9.05408689,7.19894937 8.94591311,7.19894937 8.84549141,7.23157835 C8.73132717,7.26867256 8.63232321,7.36767679 8.43431473,7.56568527 L6.64007206,9.35992794 C6.44480991,9.55519009 6.44480991,9.87177258 6.64007206,10.0670347 C6.79950733,10.22647 7.04592734,10.2594701 7.24169492,10.1476029"></path>
                <path d="M14,4 L17.3590287,4 C17.5819084,4 17.6627299,4.0232064 17.7442114,4.06678318 C17.8256929,4.11035995 17.8896401,4.17430709 17.9332168,4.25578857 C17.9767936,4.33727006 18,4.41809162 18,4.6409713 L18,8 L18,8"></path>
                <path d="M15.5857864,18 L1.5999999,18 L1.5999999,18 C1.03994739,18 0.759921253,18 0.546009481,17.8910065 C0.357847422,17.7951336 0.204866856,17.6421528 0.108993486,17.4539909 C0,17.240078 0,16.9600525 0,16.3999996 L-3.33066907e-16,2.41421356 C-1.55438584e-16,1.86192881 0.44771525,1.41421356 1,1.41421356 C1.26521649,1.41421356 1.5195704,1.5195704 1.70710678,1.70710678"></path>
            </g>
        </g>
    </g>
</svg>