<?xml version="1.0" encoding="UTF-8"?>
<svg width="24px" height="24px" viewBox="0 0 24 24" version="1.1" xmlns="http://www.w3.org/2000/svg" xmlns:xlink="http://www.w3.org/1999/xlink">
    <title>line-chart-down-01</title>
    <g id="Line-icons" stroke="none" stroke-width="1" fill="none" fill-rule="evenodd" stroke-linecap="round" stroke-linejoin="round">
        <g id="Charts" transform="translate(-608, -236)" fill-rule="nonzero" stroke="#000000" stroke-width="2">
            <g id="Icon" transform="translate(611, 239)">
                <path d="M14.9082786,9.76748079 L13.08113,7.81734324 L13.08113,7.81734324 C12.9326118,7.65882801 12.8583531,7.57957081 12.7687645,7.53860426 C12.6896935,7.50244711 12.6025604,7.48753361 12.5159655,7.49533606 C12.4178521,7.50417634 12.3214614,7.5542264 12.1286793,7.65432644 L8.87132072,9.34567451 C8.67853922,9.44577423 8.58214882,9.49582414 8.48403549,9.50466442 C8.39744051,9.51246687 8.3103075,9.49755336 8.23123646,9.46139622 C8.14164785,9.42042966 8.06738803,9.34117189 7.9188695,9.18265629 L6.09172132,7.23251919 C5.90291699,7.03100607 5.9132195,6.71459126 6.11473262,6.52578693 C6.27148176,6.37892347 6.50451755,6.34858637 6.69364301,6.45042316"></path>
                <path d="M15.5857864,18 L1.5999999,18 L1.5999999,18 C1.03994739,18 0.759921253,18 0.546009481,17.8910065 C0.357847422,17.7951336 0.204866856,17.6421528 0.108993486,17.4539909 C0,17.240078 0,16.9600525 0,16.3999996 L-3.33066907e-16,2.41421356 C-1.55438584e-16,1.86192881 0.44771525,1.41421356 1,1.41421356 C1.26521649,1.41421356 1.5195704,1.5195704 1.70710678,1.70710678"></path>
            </g>
        </g>
    </g>
</svg>