<?xml version="1.0" encoding="UTF-8"?>
<svg width="24px" height="24px" viewBox="0 0 24 24" version="1.1" xmlns="http://www.w3.org/2000/svg" xmlns:xlink="http://www.w3.org/1999/xlink">
    <title>line-chart-up-05</title>
    <g id="Line-icons" stroke="none" stroke-width="1" fill="none" fill-rule="evenodd" stroke-linecap="round" stroke-linejoin="round">
        <g id="Charts" transform="translate(-608, -596)" fill-rule="nonzero" stroke="#000000" stroke-width="2">
            <g id="Icon" transform="translate(610, 598)">
                <path d="M14.5023238,9.4976762 L12.5656853,11.4343147 L12.5656853,11.4343147 C12.3676771,11.6323229 12.2686728,11.731327 12.1545086,11.7684212 C12.0540869,11.8010502 11.9459131,11.8010502 11.8454914,11.7684212 C11.7313272,11.731327 11.6323232,11.6323232 11.4343147,11.4343147 L8.56568527,8.56568527 C8.36767706,8.36767706 8.26867283,8.26867304 8.15450859,8.23157883 C8.05408689,8.19894984 7.94591311,8.19894984 7.84549141,8.23157883 C7.73132717,8.26867304 7.63232321,8.36767679 7.43431473,8.56568527 L5.4976762,10.5023238 C5.30241405,10.6975859 5.30241405,11.0141684 5.4976762,11.2094306 C5.63159234,11.3433467 5.82967611,11.390108 6.00934347,11.3302188"></path>
                <path d="M10,20 C15.5228481,20 20,15.5228481 20,10 C20,4.47715235 15.5228481,0 10,0 C4.47715235,0 0,4.47715235 0,10 C0,15.5228481 4.47715235,20 10,20 Z"></path>
            </g>
        </g>
    </g>
</svg>