<?xml version="1.0" encoding="UTF-8"?>
<svg width="24px" height="24px" viewBox="0 0 24 24" version="1.1" xmlns="http://www.w3.org/2000/svg" xmlns:xlink="http://www.w3.org/1999/xlink">
    <title>line-chart-down-04</title>
    <g id="Line-icons" stroke="none" stroke-width="1" fill="none" fill-rule="evenodd" stroke-linecap="round" stroke-linejoin="round">
        <g id="Charts" transform="translate(-608, -356)" fill-rule="nonzero" stroke="#000000" stroke-width="2">
            <g id="Icon" transform="translate(611, 359)">
                <path d="M0,6 L6.65533161,10.753808 C6.85422401,10.895874 7.12667401,10.8733265 7.29950476,10.7004957 L10.7004957,7.29950428 C10.8733265,7.12667353 11.145775,7.1041255 11.3446674,7.2461915 L18,12"></path>
                <path d="M0,3 C0,1.34314632 1.34314585,0 3,0 L15,0 C16.6568542,0 18,1.34314585 18,3 L18,15 C18,16.6568542 16.6568542,18 15,18 L3,18 C1.34314632,18 0,16.6568542 0,15 L0,3 Z"></path>
            </g>
        </g>
    </g>
</svg>