<?xml version="1.0" encoding="UTF-8"?>
<svg width="24px" height="24px" viewBox="0 0 24 24" version="1.1" xmlns="http://www.w3.org/2000/svg" xmlns:xlink="http://www.w3.org/1999/xlink">
    <title>line-chart-up-04</title>
    <g id="Line-icons" stroke="none" stroke-width="1" fill="none" fill-rule="evenodd" stroke-linecap="round" stroke-linejoin="round">
        <g id="Charts" transform="translate(-608, -556)" fill-rule="nonzero" stroke="#000000" stroke-width="2">
            <g id="Icon" transform="translate(611, 559)">
                <path d="M15.2941866,7.93272383 L11.5514679,10.6060944 L11.5514679,10.6060944 C11.3555469,10.7460379 11.2575872,10.8160093 11.1526756,10.8371181 C11.0601971,10.8557254 10.964341,10.8477922 10.8761797,10.8142347 C10.7761658,10.7761657 10.6910418,10.6910418 10.520793,10.520793 L7.47920704,7.47920704 C7.30895866,7.30895866 7.22383416,7.22383428 7.1238203,7.18576527 C7.03565902,7.15220779 6.93980341,7.14427458 6.84732485,7.16288185 C6.74241327,7.18399072 6.64445274,7.25396247 6.44853163,7.39390612 L2.70581352,10.0672761 C2.48110723,10.2277806 2.42906138,10.5400556 2.58956587,10.7647619 C2.71714907,10.9433784 2.94630821,11.0178973 3.1545465,10.9484845"></path>
                <path d="M0,4.79999971 C0,3.11984241 0,2.27976376 0.326980442,1.6380285 C0.614600539,1.0735423 1.0735423,0.614600539 1.6380285,0.326980442 C2.27976376,0 3.11984253,0 4.80000019,0 L13.2000008,0 C14.8801581,0 15.7202356,0 16.3619709,0.326980442 C16.9264571,0.614600539 17.3853993,1.0735423 17.6730194,1.6380285 C18,2.27976376 18,3.11984253 18,4.80000019 L18,13.2000008 C18,14.8801581 18,15.7202356 17.6730194,16.3619709 C17.3853993,16.9264571 16.9264571,17.3853993 16.3619709,17.6730194 C15.7202356,18 14.8801575,18 13.1999998,18 L4.79999971,18 C3.11984241,18 2.27976376,18 1.6380285,17.6730194 C1.0735423,17.3853993 0.614600539,16.9264571 0.326980442,16.3619709 C0,15.7202356 0,14.8801575 0,13.1999998 L0,4.79999971 Z"></path>
            </g>
        </g>
    </g>
</svg>