<?xml version="1.0" encoding="UTF-8"?>
<svg width="24px" height="24px" viewBox="0 0 24 24" version="1.1" xmlns="http://www.w3.org/2000/svg" xmlns:xlink="http://www.w3.org/1999/xlink">
    <title>line-chart-up-01</title>
    <g id="Line-icons" stroke="none" stroke-width="1" fill="none" fill-rule="evenodd" stroke-linecap="round" stroke-linejoin="round">
        <g id="Charts" transform="translate(-608, -436)" fill-rule="nonzero" stroke="#000000" stroke-width="2">
            <g id="Icon" transform="translate(611, 439)">
                <path d="M14.9082781,7.23251949 L13.08113,9.18265629 L13.08113,9.18265629 C12.9326118,9.34117152 12.8583531,9.42042966 12.7687645,9.46139622 C12.6896935,9.49755336 12.6025604,9.51246687 12.5159655,9.50466442 C12.4178521,9.49582414 12.3214614,9.4457736 12.1286793,9.34567356 L8.87132072,7.65432549 C8.67853922,7.55422577 8.58214882,7.50417586 8.48403549,7.49533558 C8.39744051,7.48753313 8.3103075,7.50244664 8.23123646,7.53860378 C8.14164785,7.57957034 8.06738803,7.65882811 7.9188695,7.81734371 L6.09172132,9.76748081 C5.90291699,9.96899393 5.9132195,10.2854087 6.11473262,10.4742131 C6.27148176,10.6210765 6.50451755,10.6514136 6.69364301,10.5495768"></path>
                <path d="M15.5857864,18 L1.5999999,18 L1.5999999,18 C1.03994739,18 0.759921253,18 0.546009481,17.8910065 C0.357847422,17.7951336 0.204866856,17.6421528 0.108993486,17.4539909 C0,17.240078 0,16.9600525 0,16.3999996 L-3.33066907e-16,2.41421356 C-1.55438584e-16,1.86192881 0.44771525,1.41421356 1,1.41421356 C1.26521649,1.41421356 1.5195704,1.5195704 1.70710678,1.70710678"></path>
            </g>
        </g>
    </g>
</svg>