<?xml version="1.0" encoding="UTF-8"?>
<svg width="24px" height="24px" viewBox="0 0 24 24" version="1.1" xmlns="http://www.w3.org/2000/svg" xmlns:xlink="http://www.w3.org/1999/xlink">
    <title>link-external-01</title>
    <g id="Line-icons" stroke="none" stroke-width="1" fill="none" fill-rule="evenodd" stroke-linecap="round" stroke-linejoin="round">
        <g id="General" transform="translate(-608, -196)" fill-rule="nonzero" stroke="#000000" stroke-width="2">
            <g id="Icon" transform="translate(611, 199)">
                <polyline points="18 6 17.9999943 0 12 0"></polyline>
                <path d="M10,8 L18,0 M5.2034993,2 L4.80000019,2 L4.80000019,2 C3.11984253,2 2.2797637,2 1.6380285,2.32698035 C1.07354224,2.61460045 0.614600539,3.07354236 0.326980442,3.63802862 C0,4.27976382 0,5.11984253 0,6.80000019 L0,13.1999998 C0,14.8801575 0,15.7202377 0.326980442,16.3619728 C0.614600539,16.9264584 1.07354224,17.3853998 1.6380285,17.6730194 C2.2797637,18 3.11984253,18 4.80000019,18 L11.1999998,18 C12.8801575,18 13.7202368,18 14.3619719,17.6730194 C14.9264574,17.3853998 15.3853998,16.9264584 15.6730194,16.3619728 C16,15.7202377 16,14.8801575 16,13.1999998 L16,12.7965007 C16,12.0966522 15.9719521,11.816233 15.9035038,11.5192453 C15.8350555,11.2222576 15.7262068,10.9594735 15.564605,10.7010712 C15.4030033,10.442669 15.2245498,10.2245498 14.7296822,9.72968217"></path>
            </g>
        </g>
    </g>
</svg>