<?xml version="1.0" encoding="UTF-8"?>
<svg width="24px" height="24px" viewBox="0 0 24 24" version="1.1" xmlns="http://www.w3.org/2000/svg" xmlns:xlink="http://www.w3.org/1999/xlink">
    <title>link-03</title>
    <g id="Line-icons" stroke="none" stroke-width="1" fill="none" fill-rule="evenodd" stroke-linecap="round" stroke-linejoin="round">
        <g id="General" transform="translate(-336, -1956)" fill-rule="nonzero" stroke="#000000" stroke-width="2">
            <g id="Icon" transform="translate(338.0564, 1958.0664)">
                <path d="M7.94355917,10.9335594 C8.37301165,11.5076877 8.92091596,11.9827418 9.55010891,12.326499 C10.1793019,12.6702562 10.875066,12.8746757 11.590209,12.9258928 C12.305352,12.97711 13.0231457,12.8739262 13.6949043,12.6233406 C14.3666629,12.372755 14.9766738,11.980629 15.4835596,11.4735594 L18.4835606,8.47355938 C19.3943509,7.53054851 19.8983226,6.26753688 19.8871193,4.95655298 C19.8755384,3.64556909 19.3496938,2.39150691 18.4226532,1.46446633 C17.4956126,0.537425756 16.2415478,0.0115811092 14.9305639,0 C13.61958,-0.0112030829 12.3565698,0.492768824 11.413559,1.40355921 L9.69355869,3.11355901"></path>
                <path d="M11.9435587,8.93355846 C11.5141062,8.35943019 10.9662014,7.88437656 10.3370085,7.54061937 C9.70781553,7.19686219 9.0120514,6.99244267 8.29690838,6.94122553 C7.58176535,6.89000839 6.86397213,6.99319217 6.19221354,7.24377775 C5.52045494,7.49436334 4.91044497,7.88648891 4.40355921,8.3935585 L1.40355921,11.3935595 C0.492768824,12.3365703 -0.011203083,13.5995824 0,14.9105663 C0.0115811092,16.2215502 0.537425756,17.4756122 1.46446633,18.4026527 C2.39150691,19.3296933 3.64556909,19.8555379 4.95655298,19.8671188 C6.26753688,19.8783221 7.53054756,19.3743505 8.47355843,18.4635601 L10.1835585,16.7535591"></path>
            </g>
        </g>
    </g>
</svg>