<?xml version="1.0" encoding="UTF-8"?>
<svg width="24px" height="24px" viewBox="0 0 24 24" version="1.1" xmlns="http://www.w3.org/2000/svg" xmlns:xlink="http://www.w3.org/1999/xlink">
    <title>link-05</title>
    <g id="Line-icons" stroke="none" stroke-width="1" fill="none" fill-rule="evenodd" stroke-linecap="round" stroke-linejoin="round">
        <g id="General" transform="translate(-336, -2036)" fill-rule="nonzero" stroke="#000000" stroke-width="2">
            <g id="Icon" transform="translate(338, 2043)">
                <path d="M15,10 L13.7777777,10 C13.3482229,10 13,9.65177727 13,9.22222233 L13,0.777777791 C13,0.348223001 13.3482229,0 13.7777777,0 L15,0 C17.7614236,0 20,2.23857641 20,5 C20,7.76142359 17.7614236,10 15,10 Z"></path>
                <path d="M5,10 L5,10 L5,10 C2.23857617,10 0,7.76142359 0,5 C0,2.23857641 2.23857641,0 5,0 C6.1045695,-2.02906125e-16 7,0.8954305 7,2 M6,5 L16,5"></path>
            </g>
        </g>
    </g>
</svg>