<?xml version="1.0" encoding="UTF-8"?>
<svg width="24px" height="24px" viewBox="0 0 24 24" version="1.1" xmlns="http://www.w3.org/2000/svg" xmlns:xlink="http://www.w3.org/1999/xlink">
    <title>list</title>
    <g id="Line-icons" stroke="none" stroke-width="1" fill="none" fill-rule="evenodd" stroke-linecap="round" stroke-linejoin="round">
        <g id="Layout" transform="translate(-880, -236)" fill-rule="nonzero" stroke="#000000" stroke-width="2">
            <g id="Icon" transform="translate(883, 241)">
                <path d="M1,8 C1.55228472,8 2,7.55228472 2,7 C2,6.44771522 1.55228472,6 1,6 C0.447715223,6 0,6.44771522 0,7 C0,7.55228472 0.447715223,8 1,8 Z"></path>
                <path d="M1,2 C1.55228472,2 2,1.55228472 2,1 C2,0.447715223 1.55228472,0 1,0 C0.447715223,0 0,0.447715223 0,1 C0,1.55228472 0.447715223,2 1,2 Z"></path>
                <path d="M1,14 C1.55228472,14 2,13.5522847 2,13 C2,12.4477152 1.55228472,12 1,12 C0.447715223,12 0,12.4477152 0,13 C0,13.5522847 0.447715223,14 1,14 Z"></path>
                <path d="M6,7 L18,7 M6,1 L18,1 M18,13 L6,13"></path>
            </g>
        </g>
    </g>
</svg>