<?xml version="1.0" encoding="UTF-8"?>
<svg width="24px" height="24px" viewBox="0 0 24 24" version="1.1" xmlns="http://www.w3.org/2000/svg" xmlns:xlink="http://www.w3.org/1999/xlink">
    <title>loading-03</title>
    <g id="Line-icons" stroke="none" stroke-width="1" fill="none" fill-rule="evenodd" stroke-linecap="round" stroke-linejoin="round">
        <g id="General" transform="translate(-608, -356)" fill-rule="nonzero" stroke="#000000" stroke-width="2">
            <g id="Icon" transform="translate(610, 358)">
                <path d="M17.070488,2.9290123 C20.9758377,6.83436203 20.9758377,13.1651382 17.070488,17.070488 C13.1651382,20.9758377 6.83436203,20.9758377 2.9290123,17.070488 C-0.976337433,13.1651382 -0.976337433,6.83436203 2.9290123,2.9290123 C6.83436203,-0.976337433 13.1651382,-0.976337433 17.070488,2.9290123 Z"></path>
                <path d="M1.34025323,14.9997301 C0.0880972147,12.8298447 0.724730492,10.0644342 2.79795432,8.66006374 L2.80017638,8.65784264 C4.46564388,7.53234649 6.65775061,7.57012224 8.28433132,8.75228214 L11.7163715,11.2477064 C13.3418412,12.4298663 15.5339487,12.4676421 17.2005272,11.3421459 L17.2027493,11.3399239 C19.2770841,9.93555343 19.9148262,7.16792083 18.6604481,5.00025749"></path>
                <path d="M15.0019531,18.6592884 C12.8320677,19.9114445 10.0666562,19.2748098 8.6622858,17.2015858 L8.66006374,17.1993637 C7.53456759,15.5338961 7.57234335,13.3417898 8.75450325,11.715209 L11.2499275,8.28316784 C12.4320874,6.65769792 12.4698632,4.46559167 11.344367,2.7990129 L11.3399239,2.79679108 C9.93555343,0.72467804 7.16792083,0.0858225822 5.00025749,1.34020078"></path>
            </g>
        </g>
    </g>
</svg>