<?xml version="1.0" encoding="UTF-8"?>
<svg width="24px" height="24px" viewBox="0 0 24 24" version="1.1" xmlns="http://www.w3.org/2000/svg" xmlns:xlink="http://www.w3.org/1999/xlink">
    <title>log-out-02</title>
    <g id="Line-icons" stroke="none" stroke-width="1" fill="none" fill-rule="evenodd" stroke-linecap="round" stroke-linejoin="round">
        <g id="General" transform="translate(-608, -596)" fill-rule="nonzero" stroke="#000000" stroke-width="2">
            <g id="Icon" transform="translate(611, 599)">
                <polyline points="13.000001 14 18 9 13.000001 4"></polyline>
                <path d="M6,9 L18,9 M9,14 C9,14.9299717 9,15.3949575 8.89777851,15.7764568 C8.62037659,16.8117332 7.8117342,17.6203766 6.77645826,17.8977776 C6.3949585,18 5.92997265,18 5,18 L4.5,18 C3.10217547,18 2.40326285,18 1.85194957,17.7716389 C1.11686552,17.4671574 0.532843485,16.8831348 0.228361621,16.1480503 C0,15.5967369 0,14.8978243 0,13.5 L0,4.5 C0,3.102175 0,2.40326285 0.228362158,1.85194981 C0.532844082,1.1168654 1.11686635,0.532843173 1.85195076,0.228361309 C2.40326381,0 3.10217595,0 4.5,0 L5,0 C5.92997265,0 6.3949585,0 6.77645826,0.10222251 C7.8117342,0.379623927 8.62037659,1.18826675 8.89777851,2.22354293 C9,2.60504246 9,3.07002831 9,4"></path>
            </g>
        </g>
    </g>
</svg>