<?xml version="1.0" encoding="UTF-8"?>
<svg width="24px" height="24px" viewBox="0 0 24 24" version="1.1" xmlns="http://www.w3.org/2000/svg" xmlns:xlink="http://www.w3.org/1999/xlink">
    <title>log-in-02</title>
    <g id="Line-icons" stroke="none" stroke-width="1" fill="none" fill-rule="evenodd" stroke-linecap="round" stroke-linejoin="round">
        <g id="General" transform="translate(-608, -436)" fill-rule="nonzero" stroke="#000000" stroke-width="2">
            <g id="Icon" transform="translate(611, 439)">
                <polyline points="9 5 13 9 9 13"></polyline>
                <path d="M3,14 C3,14.9299717 3,15.3949575 3.10222244,15.7764568 C3.37962386,16.8117332 4.18826699,17.6203766 5.22354317,17.8977776 C5.6050427,18 6.07002831,18 7,18 L13.1999989,18 C14.8801565,18 15.7202358,18 16.3619709,17.6730194 C16.9264565,17.3853989 17.3853998,16.9264584 17.6730194,16.3619709 C18,15.7202368 18,14.8801575 18,13.2000008 L18,4.80000019 C18,3.11984253 18,2.2797637 17.6730194,1.6380285 C17.3853998,1.07354224 16.9264565,0.614600599 16.3619709,0.326980501 C15.7202349,0 14.8801565,0 13.1999989,0 L7,0 C6.07002759,0 5.60504174,0 5.22354221,0.102222674 C4.1882658,0.379624061 3.37962288,1.18826699 3.10222149,2.22354341 C3,2.60504293 3,3.07002854 3,4 M0,9 L13,9"></path>
            </g>
        </g>
    </g>
</svg>