<?xml version="1.0" encoding="UTF-8"?>
<svg width="24px" height="24px" viewBox="0 0 24 24" version="1.1" xmlns="http://www.w3.org/2000/svg" xmlns:xlink="http://www.w3.org/1999/xlink">
    <title>log-in-01</title>
    <g id="Line-icons" stroke="none" stroke-width="1" fill="none" fill-rule="evenodd" stroke-linecap="round" stroke-linejoin="round">
        <g id="General" transform="translate(-608, -396)" fill-rule="nonzero" stroke="#000000" stroke-width="2">
            <g id="Icon" transform="translate(611, 399)">
                <polyline points="7 4 12 9 7.00000048 14"></polyline>
                <path d="M12,0 L13.1999989,0 C14.8801565,0 15.7202358,0 16.3619709,0.326980531 C16.9264574,0.614600599 17.3853993,1.07354224 17.6730194,1.6380285 C18,2.27976322 18,3.11984539 18,4.80000019 L18,13.2000008 C18,14.8801575 18,15.7202358 17.6730194,16.3619709 C17.3853993,16.9264584 16.9264574,17.3853989 16.3619709,17.6730194 C15.7202356,18 14.8801575,18 13.1999998,18 L12,18 M0,9 L12,9"></path>
            </g>
        </g>
    </g>
</svg>