<?xml version="1.0" encoding="UTF-8"?>
<svg width="24px" height="24px" viewBox="0 0 24 24" version="1.1" xmlns="http://www.w3.org/2000/svg" xmlns:xlink="http://www.w3.org/1999/xlink">
    <title>log-out-03</title>
    <g id="Line-icons" stroke="none" stroke-width="1" fill="none" fill-rule="evenodd" stroke-linecap="round" stroke-linejoin="round">
        <g id="General" transform="translate(-608, -636)" fill-rule="nonzero" stroke="#000000" stroke-width="2">
            <g id="log-out-03" transform="translate(611, 639.3825)">
                <g id="Icon" transform="translate(0, 0)">
                    <polyline points="13.000001 13.6174955 18 8.61749554 13.000001 3.61749506"></polyline>
                    <path d="M6,8.61749554 L18,8.61749554 M9,13.6174955 C9,13.9130735 9,14.0608625 8.98901367,14.1888885 C8.87482262,15.5194569 7.89485502,16.6143398 6.58503437,16.8747692 C6.45902729,16.8998241 6.31201744,16.9161606 6.01835108,16.9487896 L4.996943,17.0622787 C3.46247721,17.2327709 2.69520688,17.3180256 2.08566284,17.1229687 C1.27293265,16.8628922 0.609415591,16.2690172 0.261178434,15.4899778 C0,14.9056978 0,14.1337328 0,12.5898008 L0,4.64518881 C0,3.1012578 0,2.32929265 0.261178881,1.74501288 C0.609416068,0.965974092 1.27293348,0.372097582 2.08566403,0.112020791 C2.69521236,-0.0830369294 3.46245551,0.0022123158 4.99694157,0.172710747 L6.01834965,0.286200613 C6.31212044,0.318841726 6.45900536,0.335162312 6.58503437,0.360220462 C7.89485502,0.620650023 8.87482262,1.71553326 8.98901367,3.04610229 C9,3.17412758 9,3.32191682 9,3.61749506"></path>
                </g>
            </g>
        </g>
    </g>
</svg>