<?xml version="1.0" encoding="UTF-8"?>
<svg width="24px" height="24px" viewBox="0 0 24 24" version="1.1" xmlns="http://www.w3.org/2000/svg" xmlns:xlink="http://www.w3.org/1999/xlink">
    <title>log-in-03</title>
    <g id="Line-icons" stroke="none" stroke-width="1" fill="none" fill-rule="evenodd" stroke-linecap="round" stroke-linejoin="round">
        <g id="General" transform="translate(-608, -476)" fill-rule="nonzero" stroke="#000000" stroke-width="2">
            <g id="Icon" transform="translate(611, 478.4718)">
                <polyline points="9 5.52815962 13 9.5281601 9 13.5281601"></polyline>
                <path d="M3,14.5281591 C3,14.8794622 3,15.0551138 3.01566792,15.2078171 C3.1457469,16.4755831 4.06260467,17.5228043 5.30205917,17.819294 C5.45134258,17.8550053 5.62550306,17.8782234 5.9736824,17.9246521 L12.5656128,18.8035755 C14.442049,19.0537663 15.3802662,19.1788616 16.108448,18.8893223 C16.7477684,18.6351166 17.2802887,18.1688881 17.6167603,17.5687714 C18,16.8852444 18,15.9387217 18,14.04568 L18,5.01063871 C18,3.11759663 18,2.17107511 17.6167603,1.48754787 C17.2802887,0.887432218 16.7477684,0.421203122 16.108448,0.166996464 C15.3802662,-0.122542962 14.44205,0.00255274773 12.5656147,0.252744079 L5.9736824,1.13166845 C5.62546086,1.17809796 5.45135045,1.20131278 5.30205822,1.23702502 C4.06260371,1.53351593 3.14574595,2.58073497 3.01566696,3.84850192 C3,4.00120473 3,4.17685652 3,4.52815962 M0,9.5281601 L13,9.5281601"></path>
            </g>
        </g>
    </g>
</svg>