<?xml version="1.0" encoding="UTF-8"?>
<svg width="24px" height="24px" viewBox="0 0 24 24" version="1.1" xmlns="http://www.w3.org/2000/svg" xmlns:xlink="http://www.w3.org/1999/xlink">
    <title>log-out-01</title>
    <g id="Line-icons" stroke="none" stroke-width="1" fill="none" fill-rule="evenodd" stroke-linecap="round" stroke-linejoin="round">
        <g id="General" transform="translate(-608, -556)" fill-rule="nonzero" stroke="#000000" stroke-width="2">
            <g id="Icon" transform="translate(611, 559)">
                <polyline points="13.000001 14 18 9 13.000001 4"></polyline>
                <path d="M6,9 L18,9 M4.80000067,0 L4.80000067,0 L4.80000067,0 C3.11984324,0 2.27976441,0 1.63802934,0.326980442 C1.07354307,0.614600539 0.614601433,1.07354212 0.326981306,1.63802838 C0,2.27976346 0,3.11984229 0,4.79999971 L0,13.2000008 C0,14.8801575 0,15.7202358 0.326980561,16.3619709 C0.614600658,16.9264584 1.07354236,17.3853989 1.63802862,17.6730194 C2.27976394,18 3.11984277,18 4.80000067,18 C5.462742,18 6,17.462742 6,16.8000007"></path>
            </g>
        </g>
    </g>
</svg>