<?xml version="1.0" encoding="UTF-8"?>
<svg width="24px" height="24px" viewBox="0 0 24 24" version="1.1" xmlns="http://www.w3.org/2000/svg" xmlns:xlink="http://www.w3.org/1999/xlink">
    <title>luggage-01</title>
    <g id="Line-icons" stroke="none" stroke-width="1" fill="none" fill-rule="evenodd" stroke-linecap="round" stroke-linejoin="round">
        <g id="Maps-&amp;-travel" transform="translate(-336, -396)" fill-rule="nonzero" stroke="#000000" stroke-width="2">
            <g id="Icon" transform="translate(340, 398)">
                <path d="M0,4.79999971 C0,3.11984241 0,2.27976376 0.326980442,1.6380285 C0.614600539,1.0735423 1.0735423,0.614600539 1.6380285,0.326980442 C2.27976376,0 3.11984253,0 4.80000019,0 L11.1999998,0 C12.8801575,0 13.7202366,0 14.3619719,0.326980442 C14.9264581,0.614600539 15.3853993,1.0735423 15.6730194,1.6380285 C16,2.27976376 16,3.11984253 16,4.80000019 L16,13.1999998 C16,14.8801571 16,15.7202356 15.6730194,16.3619709 C15.3853993,16.9264571 14.9264581,17.3853993 14.3619719,17.6730194 C13.7202366,18 12.8801575,18 11.1999998,18 L4.80000019,18 C3.11984253,18 2.27976376,18 1.6380285,17.6730194 C1.0735423,17.3853993 0.614600539,16.9264571 0.326980442,16.3619709 C0,15.7202356 0,14.8801575 0,13.1999998 L0,4.79999971 Z"></path>
                <path d="M4,18 L4,20 M5.5,5 L5.5,13 M12,18 L12,20 M10.5,13 L10.5,5"></path>
            </g>
        </g>
    </g>
</svg>