<?xml version="1.0" encoding="UTF-8"?>
<svg width="24px" height="24px" viewBox="0 0 24 24" version="1.1" xmlns="http://www.w3.org/2000/svg" xmlns:xlink="http://www.w3.org/1999/xlink">
    <title>luggage-02</title>
    <g id="Line-icons" stroke="none" stroke-width="1" fill="none" fill-rule="evenodd" stroke-linecap="round" stroke-linejoin="round">
        <g id="Maps-&amp;-travel" transform="translate(-336, -436)" fill-rule="nonzero" stroke="#000000" stroke-width="2">
            <g id="Icon" transform="translate(338, 439)">
                <path d="M10,11.3000002 C10,11.019974 10,10.8799604 10.0544968,10.7730045 C10.1024335,10.6789235 10.1789235,10.6024335 10.2730045,10.5544968 C10.3799604,10.5 10.5199739,10.5 10.8000002,10.5 L15.6999998,10.5 C15.9800263,10.5 16.1200396,10.5 16.2269955,10.5544968 C16.3210765,10.6024335 16.3975665,10.6789235 16.4455032,10.7730045 C16.5,10.8799604 16.5,11.0199739 16.5,11.3000002 L16.5,13.6999998 C16.5,13.980026 16.5,14.1200396 16.4455032,14.2269955 C16.3975665,14.3210765 16.3210765,14.3975665 16.2269955,14.4455032 C16.1200396,14.5 15.9800261,14.5 15.6999998,14.5 L10.8000002,14.5 C10.5199737,14.5 10.3799604,14.5 10.2730045,14.4455032 C10.1789235,14.3975665 10.1024335,14.3210765 10.0544968,14.2269955 C10,14.1200396 10,13.9800261 10,13.6999998 L10,11.3000002 Z"></path>
                <path d="M0,8.80000019 C0,7.11984229 0,6.27976388 0.326980442,5.63802862 C0.614600539,5.07354242 1.0735423,4.61460069 1.6380285,4.32698059 C2.27976376,4 3.11984253,4 4.80000019,4 L15.1999998,4 C16.8801575,4 17.7202356,4 18.3619709,4.32698059 C18.9264571,4.61460069 19.3853993,5.07354242 19.6730194,5.63802862 C20,6.27976388 20,7.11984253 20,8.80000019 L20,13.1999998 C20,14.8801577 20,15.7202356 19.6730194,16.3619709 C19.3853993,16.9264571 18.9264571,17.3853993 18.3619709,17.6730194 C17.7202356,18 16.8801575,18 15.1999998,18 L4.80000019,18 C3.11984253,18 2.27976376,18 1.6380285,17.6730194 C1.0735423,17.3853993 0.614600539,16.9264571 0.326980442,16.3619709 C0,15.7202356 0,14.8801575 0,13.1999998 L0,8.80000019 Z"></path>
                <path d="M14,4 C14,3.07002831 14,2.60504246 13.8977776,2.22354293 C13.6203761,1.18826675 12.8117328,0.379623927 11.7764568,0.10222251 C11.3949571,0 10.9299717,0 10,0 C9.07002831,0 8.6050427,0 8.22354317,0.10222251 C7.18826699,0.379623927 6.37962386,1.18826675 6.10222244,2.22354293 C6,2.60504246 6,3.07002831 6,4"></path>
            </g>
        </g>
    </g>
</svg>