<?xml version="1.0" encoding="UTF-8"?>
<svg width="24px" height="24px" viewBox="0 0 24 24" version="1.1" xmlns="http://www.w3.org/2000/svg" xmlns:xlink="http://www.w3.org/1999/xlink">
    <title>magic-wand-01</title>
    <g id="Line-icons" stroke="none" stroke-width="1" fill="none" fill-rule="evenodd" stroke-linecap="round" stroke-linejoin="round">
        <g id="Editor" transform="translate(-608, -276)" fill-rule="nonzero" stroke="#000000" stroke-width="2">
            <g id="Icon" transform="translate(610.4142, 278)">
                <path d="M0.71715796,18.1313705 C0.321140587,17.7353532 0.123131894,17.5373457 0.0489434749,17.3090172 C-0.0163144916,17.1081738 -0.0163144916,16.8918262 0.0489434749,16.6909828 C0.123131894,16.4626543 0.321140379,16.2646464 0.717157304,15.8686295 L9.95441437,6.6313715 C10.3504319,6.23535401 10.5484412,6.0373456 10.7767696,5.96315718 C10.977613,5.89789921 11.1939597,5.89789921 11.394803,5.96315718 C11.6231315,6.0373456 11.8211405,6.23535365 12.2171574,6.63137054 L12.9544153,7.3686285 C13.3504327,7.76464587 13.5484407,7.96265434 13.6226292,8.19098282 C13.6878871,8.39182621 13.6878871,8.60817379 13.6226292,8.80901718 C13.5484407,9.03734566 13.3504322,9.23535362 12.9544153,9.63137054 L3.71715808,18.8686275 C3.32114059,19.264645 3.12313201,19.4626539 2.89480352,19.5368423 C2.69396013,19.6021003 2.47761279,19.6021003 2.2767694,19.5368423 C2.04844092,19.4626539 1.85043257,19.2646464 1.45441568,18.8686295 L0.71715796,18.1313705 Z"></path>
                <path d="M7.58578634,9 L10.5857868,12 M12.596138,0 L12.596138,1.5 M17.596138,2 L16.5354767,3.06066012 M17.596138,12.0606604 L16.5354767,11 M7.53547859,2 L8.59613895,3.06066012 M18.096138,7 L19.596138,7"></path>
            </g>
        </g>
    </g>
</svg>