<?xml version="1.0" encoding="UTF-8"?>
<svg width="24px" height="24px" viewBox="0 0 24 24" version="1.1" xmlns="http://www.w3.org/2000/svg" xmlns:xlink="http://www.w3.org/1999/xlink">
    <title>mail-03</title>
    <g id="Line-icons" stroke="none" stroke-width="1" fill="none" fill-rule="evenodd" stroke-linecap="round" stroke-linejoin="round">
        <g id="Communication" transform="translate(-64, -676)" fill-rule="nonzero" stroke="#000000" stroke-width="2">
            <g id="Icon" transform="translate(66, 680)">
                <path d="M0,4.80000019 C0,3.11984253 0,2.27976376 0.326980442,1.6380285 C0.614600539,1.0735423 1.0735423,0.614600539 1.6380285,0.326980442 C2.27976376,0 3.11984253,0 4.80000019,0 L15.1999998,0 C16.8801575,0 17.7202356,0 18.3619709,0.326980442 C18.9264571,0.614600539 19.3853993,1.0735423 19.6730194,1.6380285 C20,2.27976376 20,3.11984253 20,4.80000019 L20,11.1999998 C20,12.8801575 20,13.7202366 19.6730194,14.3619719 C19.3853993,14.9264581 18.9264571,15.3853993 18.3619709,15.6730194 C17.7202356,16 16.8801575,16 15.1999998,16 L4.80000019,16 C3.11984253,16 2.27976376,16 1.6380285,15.6730194 C1.0735423,15.3853993 0.614600539,14.9264581 0.326980442,14.3619719 C0,13.7202366 0,12.8801575 0,11.1999998 L0,4.80000019 Z"></path>
                <path d="M0,3 L5.19384193,6.46256113 C5.49348545,6.66232347 5.64330721,6.76220441 5.8053956,6.83296204 C5.94926643,6.89576697 6.1000309,6.94141531 6.25457668,6.96896362 C6.42869186,7 6.60875511,7 6.96888208,7 L13.0311184,7 C13.3912449,7 13.5713081,7 13.7454233,6.96896362 C13.8999691,6.94141531 14.0507336,6.89576697 14.1946049,6.83296204 C14.3566914,6.76220536 14.5065222,6.66231751 14.806159,6.46256065 L20,3"></path>
            </g>
        </g>
    </g>
</svg>