<?xml version="1.0" encoding="UTF-8"?>
<svg width="24px" height="24px" viewBox="0 0 24 24" version="1.1" xmlns="http://www.w3.org/2000/svg" xmlns:xlink="http://www.w3.org/1999/xlink">
    <title>mail-05</title>
    <g id="Line-icons" stroke="none" stroke-width="1" fill="none" fill-rule="evenodd" stroke-linecap="round" stroke-linejoin="round">
        <g id="Communication" transform="translate(-336, -156)" fill-rule="nonzero" stroke="#000000" stroke-width="2">
            <g id="Icon" transform="translate(338, 157.8854)">
                <path d="M8.2560358,0.748204887 C8.88728082,0.337895632 9.20290262,0.132741001 9.54297352,0.0529183112 C9.84357274,-0.0176394396 10.1564273,-0.0176394396 10.4570265,0.0529183112 C10.7970974,0.132741001 11.1127186,0.337895244 11.7439623,0.748203635 L19.2719803,5.64141512 C19.537986,5.81431885 19.67099,5.9007708 19.7673531,6.01608801 C19.8526542,6.11816753 19.9167298,6.23624046 19.9558296,6.36339283 C20,6.50703433 20,6.66566473 20,6.98292542 L20,14.3146276 C20,15.9947855 20,16.8348635 19.6730194,17.4765987 C19.3853993,18.0410849 18.9264571,18.5000271 18.3619709,18.7876472 C17.7202356,19.1146278 16.8801575,19.1146278 15.1999998,19.1146278 L4.80000019,19.1146278 C3.11984253,19.1146278 2.27976376,19.1146278 1.6380285,18.7876472 C1.0735423,18.5000271 0.614600539,18.0410849 0.326980442,17.4765987 C0,16.8348635 0,15.9947853 0,14.3146276 L0,6.98292542 C0,6.66566473 0,6.50703433 0.0441702493,6.36339283 C0.0832700357,6.23624046 0.147346653,6.11816753 0.232647821,6.01608801 C0.329010852,5.9007708 0.462013453,5.81431897 0.728018641,5.6414156 L8.2560358,0.748204887 Z"></path>
                <path d="M8.2560358,11.4810505 L2.06386137,7.45613766 C1.37601316,7.00903654 1.03208899,6.78548574 0.912973881,6.50198984 C0.808877528,6.25423861 0.808877528,5.97501707 0.912973881,5.72726583 C1.03208899,5.44376993 1.37601316,5.22021914 2.06386137,4.77311802 L8.2560358,0.748204887 C8.88728082,0.337895632 9.20290262,0.132741001 9.54297352,0.0529183112 C9.84357274,-0.0176394396 10.1564273,-0.0176394396 10.4570265,0.0529183112 C10.7970974,0.132741001 11.1127186,0.337895244 11.7439623,0.748203635 L17.9361362,4.77311659 C18.6239853,5.22021866 18.9679108,5.44376993 19.0870266,5.72726583 C19.1911221,5.97501707 19.1911221,6.25423861 19.0870266,6.50198984 C18.9679108,6.78548574 18.6239853,7.00903702 17.9361362,7.45613909 L11.7439623,11.4810524 C11.1127262,11.8913565 10.7970953,12.0965147 10.4570265,12.1763372 C10.1564274,12.2468948 9.84357262,12.2468948 9.54297352,12.1763372 C9.20290279,12.0965147 8.88728046,11.8913603 8.2560358,11.4810505 Z"></path>
                <path d="M12.8571777,11.1146278 L19.5,17.1146278 M7.14282227,11.1146278 L0.5,17.1146278"></path>
            </g>
        </g>
    </g>
</svg>