<?xml version="1.0" encoding="UTF-8"?>
<svg width="24px" height="24px" viewBox="0 0 24 24" version="1.1" xmlns="http://www.w3.org/2000/svg" xmlns:xlink="http://www.w3.org/1999/xlink">
    <title>mail-04</title>
    <g id="Line-icons" stroke="none" stroke-width="1" fill="none" fill-rule="evenodd" stroke-linecap="round" stroke-linejoin="round">
        <g id="Communication" transform="translate(-64, -716)" fill-rule="nonzero" stroke="#000000" stroke-width="2">
            <g id="Icon" transform="translate(66, 717.8854)">
                <path d="M8.2560358,0.748204887 C8.88728082,0.337895632 9.20290262,0.132741001 9.54297352,0.0529183112 C9.84357274,-0.0176394396 10.1564273,-0.0176394396 10.4570265,0.0529183112 C10.7970974,0.132741001 11.1127186,0.337895244 11.7439623,0.748203635 L19.2719803,5.64141512 C19.537986,5.81431885 19.67099,5.9007708 19.7673531,6.01608801 C19.8526542,6.11816753 19.9167298,6.23624046 19.9558296,6.36339283 C20,6.50703433 20,6.66566473 20,6.98292542 L20,14.3146276 C20,15.9947855 20,16.8348635 19.6730194,17.4765987 C19.3853993,18.0410849 18.9264571,18.5000271 18.3619709,18.7876472 C17.7202356,19.1146278 16.8801575,19.1146278 15.1999998,19.1146278 L4.80000019,19.1146278 C3.11984253,19.1146278 2.27976376,19.1146278 1.6380285,18.7876472 C1.0735423,18.5000271 0.614600539,18.0410849 0.326980442,17.4765987 C0,16.8348635 0,15.9947853 0,14.3146276 L0,6.98292542 C0,6.66566473 0,6.50703433 0.0441702493,6.36339283 C0.0832700357,6.23624046 0.147346653,6.11816753 0.232647821,6.01608801 C0.329010852,5.9007708 0.462013453,5.81431897 0.728018641,5.6414156 L8.2560358,0.748204887 Z"></path>
                <path d="M8.2560358,11.4810505 L1.03193057,6.78538275 C0.68800652,6.56183195 0.516044497,6.45005655 0.45648694,6.3083086 C0.404438764,6.18443346 0.404438764,6.04482222 0.45648694,5.92094707 C0.516044497,5.77919912 0.68800652,5.66742373 1.03193057,5.44387293 L8.2560358,0.748204887 C8.88728082,0.337895632 9.20290262,0.132741001 9.54297352,0.0529183112 C9.84357274,-0.0176394396 10.1564273,-0.0176394396 10.4570265,0.0529183112 C10.7970974,0.132741001 11.1127186,0.337895244 11.7439623,0.748203635 L18.9680691,5.44387245 C19.3119926,5.66742325 19.4839554,5.77919912 19.5435123,5.92094707 C19.595562,6.04482222 19.595562,6.18443346 19.5435123,6.3083086 C19.4839554,6.45005655 19.3119926,6.56183243 18.9680691,6.78538322 L11.7439623,11.4810524 C11.1127262,11.8913565 10.7970953,12.0965147 10.4570265,12.1763372 C10.1564274,12.2468948 9.84357262,12.2468948 9.54297352,12.1763372 C9.20290279,12.0965147 8.88728046,11.8913603 8.2560358,11.4810505 Z"></path>
            </g>
        </g>
    </g>
</svg>