<?xml version="1.0" encoding="UTF-8"?>
<svg width="24px" height="24px" viewBox="0 0 24 24" version="1.1" xmlns="http://www.w3.org/2000/svg" xmlns:xlink="http://www.w3.org/1999/xlink">
    <title>marker-pin-05</title>
    <g id="Line-icons" stroke="none" stroke-width="1" fill="none" fill-rule="evenodd" stroke-linecap="round" stroke-linejoin="round">
        <g id="Maps-&amp;-travel" transform="translate(-608, -316)" fill-rule="nonzero" stroke="#000000" stroke-width="2">
            <g id="Icon" transform="translate(610, 319)">
                <line x1="10" y1="14" x2="10" y2="0"></line>
                <path d="M10,7.5 L15.2777252,4.65814781 C15.6787322,4.44222099 15.8792362,4.33425736 15.9496737,4.1877141 C16.0111103,4.05989668 16.0153789,3.91200285 15.9614172,3.78085446 C15.8995499,3.63049224 15.7056072,3.51114313 15.3177223,3.27244473 L10,0"></path>
                <path d="M14,10.3744392 C17.5318089,11.0688402 20,12.6547127 20,14.5 C20,16.9852815 15.5228481,19 10,19 C4.47715235,19 0,16.9852815 0,14.5 C0,12.6547127 2.46819043,11.0688402 6,10.3744392"></path>
            </g>
        </g>
    </g>
</svg>