<?xml version="1.0" encoding="UTF-8"?>
<svg width="24px" height="24px" viewBox="0 0 24 24" version="1.1" xmlns="http://www.w3.org/2000/svg" xmlns:xlink="http://www.w3.org/1999/xlink">
    <title>marker-pin-06</title>
    <g id="Line-icons" stroke="none" stroke-width="1" fill="none" fill-rule="evenodd" stroke-linecap="round" stroke-linejoin="round">
        <g id="Maps-&amp;-travel" transform="translate(-608, -356)" fill-rule="nonzero" stroke="#000000" stroke-width="2">
            <g id="Icon" transform="translate(610, 359)">
                <line x1="10" y1="14" x2="10" y2="6"></line>
                <path d="M10,6 C11.6568542,6 13,4.65685415 13,3 C13,1.34314573 11.6568542,0 10,0 C8.34314573,0 7,1.34314573 7,3 C7,4.65685415 8.34314573,6 10,6 Z"></path>
                <path d="M14,10.3744392 C17.5318089,11.0688402 20,12.6547127 20,14.5 C20,16.9852815 15.5228481,19 10,19 C4.47715235,19 0,16.9852815 0,14.5 C0,12.6547127 2.46819043,11.0688402 6,10.3744392"></path>
            </g>
        </g>
    </g>
</svg>