<?xml version="1.0" encoding="UTF-8"?>
<svg width="24px" height="24px" viewBox="0 0 24 24" version="1.1" xmlns="http://www.w3.org/2000/svg" xmlns:xlink="http://www.w3.org/1999/xlink">
    <title>maximize-02</title>
    <g id="Line-icons" stroke="none" stroke-width="1" fill="none" fill-rule="evenodd" stroke-linecap="round" stroke-linejoin="round">
        <g id="Layout" transform="translate(-880, -316)" fill-rule="nonzero" stroke="#000000" stroke-width="2">
            <g id="maximize-02" transform="translate(883, 319)">
                <path d="M5,0 L4.80000019,0 C3.11984253,0 2.2797637,0 1.6380285,0.326980442 C1.07354224,0.614600539 0.614600539,1.07354224 0.326980442,1.6380285 C0,2.2797637 0,3.11984253 0,4.80000019 L0,5 M5,18 L4.80000019,18 C3.11984253,18 2.2797637,18 1.6380285,17.6730194 C1.07354224,17.3853993 0.614600539,16.9264572 0.326980442,16.3619709 C0,15.7202356 0,14.8801575 0,13.1999998 L0,13 M18,5 L18,4.79999971 C18,3.11984229 18,2.2797637 17.6730194,1.63802862 C17.3853993,1.07354236 16.9264572,0.614600718 16.3619709,0.326980591 C15.7202356,0 14.8801582,0 13.2000008,0 L13,0 M18,13 L18,13.1999998 C18,14.8801575 18,15.7202356 17.6730194,16.3619709 C17.3853993,16.9264572 16.9264572,17.3853993 16.3619709,17.6730194 C15.7202356,18 14.8801575,18 13.1999998,18 L13,18" id="Icon"></path>
            </g>
        </g>
    </g>
</svg>