<?xml version="1.0" encoding="UTF-8"?>
<svg width="24px" height="24px" viewBox="0 0 24 24" version="1.1" xmlns="http://www.w3.org/2000/svg" xmlns:xlink="http://www.w3.org/1999/xlink">
    <title>medical-cross</title>
    <g id="Line-icons" stroke="none" stroke-width="1" fill="none" fill-rule="evenodd" stroke-linecap="round" stroke-linejoin="round">
        <g id="General" transform="translate(-608, -756)" fill-rule="nonzero" stroke="#000000" stroke-width="2">
            <g id="medical-cross" transform="translate(611, 759)">
                <path d="M12,1.60000002 C12,1.03994751 12,0.759921223 11.8910065,0.546009481 C11.7951331,0.357847407 11.642153,0.204866856 11.4539909,0.108993486 C11.2400792,0 10.9600521,0 10.3999996,0 L7.5999999,0 C7.03994733,0 6.75992128,0 6.54600954,0.108993486 C6.35784747,0.204866856 6.2048669,0.357847407 6.10899353,0.546009481 C6,0.759921223 6,1.03994739 6,1.59999979 L6,4.39999914 C6,4.96005183 6,5.24007823 5.89100647,5.45398998 C5.79513309,5.64215207 5.64215255,5.79513262 5.45399046,5.89100599 C5.2400787,6 4.96005225,6 4.39999962,6 L1.60000026,6 C1.03994763,6 0.759921297,6 0.546009541,6.10899258 C0.357847452,6.20486595 0.204866871,6.3578465 0.108993493,6.54600859 C0,6.75992034 0,7.03994715 0,7.5999999 L0,10.3999996 C0,10.9600522 0,11.2400792 0.108993486,11.4539909 C0.204866856,11.642153 0.357847407,11.7951331 0.546009481,11.8910065 C0.759921223,12 1.03994745,12 1.5999999,12 L4.4000001,12 C4.96005267,12 5.24007872,12 5.45399046,12.1089935 C5.64215253,12.2048669 5.7951331,12.357847 5.89100647,12.5460091 C6,12.7599208 6,13.0399479 6,13.6000004 L6,16.3999996 C6,16.9600522 6,17.2400792 6.10899353,17.4539909 C6.2048669,17.642153 6.35784747,17.7951331 6.54600954,17.8910065 C6.75992128,18 7.03994745,18 7.5999999,18 L10.3999996,18 C10.9600522,18 11.2400792,18 11.4539909,17.8910065 C11.642153,17.7951331 11.7951331,17.642153 11.8910065,17.4539909 C12,17.2400792 12,16.9600521 12,16.3999996 L12,13.6000004 C12,13.0399478 12,12.7599208 12.1089935,12.5460091 C12.2048669,12.357847 12.357847,12.2048669 12.5460091,12.1089935 C12.7599208,12 13.0399479,12 13.6000004,12 L16.3999996,12 C16.9600522,12 17.2400792,12 17.4539909,11.8910065 C17.642153,11.7951331 17.7951331,11.642153 17.8910065,11.4539909 C18,11.2400792 18,10.9600521 18,10.3999996 L18,7.5999999 C18,7.03994745 18,6.75992128 17.8910065,6.54600954 C17.7951331,6.35784747 17.642153,6.20486691 17.4539909,6.10899353 C17.2400792,6 16.9600521,6 16.3999996,6 L13.6000004,6 C13.0399479,6 12.7599208,6 12.5460091,5.89100599 C12.357847,5.79513261 12.2048669,5.64215206 12.1089935,5.45398998 C12,5.24007824 12,4.96005201 12,4.39999962 L12,1.60000002 Z" id="Icon"></path>
            </g>
        </g>
    </g>
</svg>