<?xml version="1.0" encoding="UTF-8"?>
<svg width="24px" height="24px" viewBox="0 0 24 24" version="1.1" xmlns="http://www.w3.org/2000/svg" xmlns:xlink="http://www.w3.org/1999/xlink">
    <title>medical-square</title>
    <g id="Line-icons" stroke="none" stroke-width="1" fill="none" fill-rule="evenodd" stroke-linecap="round" stroke-linejoin="round">
        <g id="General" transform="translate(-608, -796)" fill-rule="nonzero" stroke="#000000" stroke-width="2">
            <g id="Icon" transform="translate(611, 799)">
                <path d="M0,4.79999971 C0,3.11984241 0,2.27976376 0.326980442,1.6380285 C0.614600539,1.0735423 1.0735423,0.614600539 1.6380285,0.326980442 C2.27976376,0 3.11984253,0 4.80000019,0 L13.2000008,0 C14.8801581,0 15.7202356,0 16.3619709,0.326980442 C16.9264571,0.614600539 17.3853993,1.0735423 17.6730194,1.6380285 C18,2.27976376 18,3.11984253 18,4.80000019 L18,13.2000008 C18,14.8801581 18,15.7202356 17.6730194,16.3619709 C17.3853993,16.9264571 16.9264571,17.3853993 16.3619709,17.6730194 C15.7202356,18 14.8801575,18 13.1999998,18 L4.79999971,18 C3.11984241,18 2.27976376,18 1.6380285,17.6730194 C1.0735423,17.3853993 0.614600539,16.9264571 0.326980442,16.3619709 C0,15.7202356 0,14.8801575 0,13.1999998 L0,4.79999971 Z"></path>
                <path d="M10.833334,4.30000019 C10.833334,4.01997396 10.8333339,3.87996064 10.7788372,3.77300477 C10.7309005,3.67892373 10.6544095,3.60243345 10.5603285,3.55449677 C10.4533726,3.5 10.3133595,3.5 10.0333328,3.5 L7.9666667,3.5 C7.68664044,3.5 7.54662739,3.5 7.43967152,3.55449677 C7.34559048,3.60243345 7.26909996,3.67892373 7.22116327,3.77300477 C7.16666653,3.87996064 7.16666698,4.01997405 7.16666698,4.30000067 L7.16666698,6.36666632 C7.16666698,6.64669263 7.16666697,6.7867061 7.11217022,6.89366198 C7.06423353,6.98774302 6.98774302,7.06423306 6.89366198,7.11216974 C6.7867061,7.16666648 6.6466926,7.16666652 6.36666584,7.16666651 L4.30000019,7.16666651 C4.01997381,7.16666649 3.87996065,7.16666653 3.77300477,7.22116327 C3.67892373,7.26909996 3.60243345,7.34559 3.55449677,7.43967104 C3.5,7.54662692 3.5,7.68664035 3.5,7.96666718 L3.5,10.0333338 C3.5,10.31336 3.5,10.4533726 3.55449677,10.5603285 C3.60243345,10.6544095 3.67892373,10.7309005 3.77300477,10.7788372 C3.87996064,10.8333339 4.01997402,10.833334 4.30000067,10.833334 L6.36666679,10.833334 C6.64669305,10.833334 6.7867061,10.833333 6.89366198,10.8878298 C6.98774301,10.9357665 7.06423353,11.0122575 7.11217022,11.1063385 C7.16666696,11.2132944 7.16666698,11.3533075 7.16666698,11.6333342 L7.16666698,13.6999998 C7.16666698,13.9800261 7.16666653,14.1200396 7.22116327,14.2269955 C7.26909996,14.3210765 7.34559048,14.3975665 7.43967152,14.4455032 C7.54662739,14.5 7.68664053,14.5 7.96666718,14.5 L10.0333338,14.5 C10.31336,14.5 10.4533726,14.5 10.5603285,14.4455032 C10.6544095,14.3975665 10.7309005,14.3210765 10.7788372,14.2269955 C10.8333339,14.1200396 10.833334,13.9800265 10.833334,13.6999998 L10.833334,11.6333332 C10.833334,11.3533069 10.833333,11.2132944 10.8878298,11.1063385 C10.9357665,11.0122575 11.0122575,10.9357665 11.1063385,10.8878298 C11.2132944,10.833333 11.3533075,10.833334 11.6333342,10.833334 L13.6999998,10.833334 C13.9800261,10.833334 14.1200396,10.8333339 14.2269955,10.7788372 C14.3210765,10.7309005 14.3975665,10.6544095 14.4455032,10.5603285 C14.5,10.4533726 14.5,10.3133595 14.5,10.0333328 L14.5,7.9666667 C14.5,7.68664041 14.5,7.54662739 14.4455032,7.43967152 C14.3975666,7.34559048 14.3210765,7.26909996 14.2269955,7.22116327 C14.1200396,7.16666653 13.9800265,7.16666652 13.6999998,7.16666651 L11.6333332,7.16666651 C11.3533069,7.16666649 11.2132944,7.16666649 11.1063385,7.11216974 C11.0122575,7.06423305 10.9357665,6.98774301 10.8878298,6.89366198 C10.833333,6.7867061 10.833334,6.64669245 10.833334,6.36666584 L10.833334,4.30000019 Z"></path>
            </g>
        </g>
    </g>
</svg>