<?xml version="1.0" encoding="UTF-8"?>
<svg width="24px" height="24px" viewBox="0 0 24 24" version="1.1" xmlns="http://www.w3.org/2000/svg" xmlns:xlink="http://www.w3.org/1999/xlink">
    <title>medical-circle</title>
    <g id="Line-icons" stroke="none" stroke-width="1" fill="none" fill-rule="evenodd" stroke-linecap="round" stroke-linejoin="round">
        <g id="General" transform="translate(-608, -716)" fill-rule="nonzero" stroke="#000000" stroke-width="2">
            <g id="Icon" transform="translate(610, 718)">
                <path d="M10,20 C15.5228481,20 20,15.5228481 20,10 C20,4.47715235 15.5228481,0 10,0 C4.47715235,0 0,4.47715235 0,10 C0,15.5228481 4.47715235,20 10,20 Z"></path>
                <path d="M11.833334,5.30000019 C11.833334,5.01997387 11.8333339,4.8799604 11.7788372,4.77300453 C11.7309005,4.6789235 11.6544095,4.60243345 11.5603285,4.55449677 C11.4533726,4.5 11.3133595,4.5 11.0333328,4.5 L8.96666718,4.5 C8.68664092,4.5 8.54662739,4.5 8.43967152,4.55449677 C8.34559048,4.60243345 8.26910044,4.6789235 8.22116375,4.77300453 C8.16666701,4.8799604 8.16666698,5.01997408 8.16666698,5.30000067 L8.16666698,7.36666632 C8.16666698,7.64669269 8.16666697,7.7867061 8.11217022,7.89366198 C8.06423353,7.98774302 7.98774302,8.06423353 7.89366198,8.11217022 C7.7867061,8.16666696 7.6466926,8.16666605 7.36666584,8.16666603 L5.30000019,8.16666603 C5.01997384,8.16666601 4.87996041,8.16666606 4.77300453,8.2211628 C4.67892349,8.26909948 4.60243345,8.34558952 4.55449677,8.43967056 C4.5,8.54662644 4.5,8.68664035 4.5,8.96666718 L4.5,11.0333338 C4.5,11.31336 4.5,11.4533726 4.55449677,11.5603285 C4.60243345,11.6544095 4.6789235,11.7309005 4.77300453,11.7788372 C4.8799604,11.8333339 5.01997402,11.833334 5.30000067,11.833334 L7.36666679,11.833334 C7.64669305,11.833334 7.7867061,11.833333 7.89366198,11.8878298 C7.98774301,11.9357665 8.06423353,12.0122575 8.11217022,12.1063385 C8.16666696,12.2132944 8.16666698,12.3533076 8.16666698,12.6333342 L8.16666698,14.6999998 C8.16666698,14.9800261 8.16666701,15.1200396 8.22116375,15.2269955 C8.26910044,15.3210765 8.34559048,15.3975665 8.43967152,15.4455032 C8.54662739,15.5 8.68664053,15.5 8.96666718,15.5 L11.0333338,15.5 C11.31336,15.5 11.4533726,15.5 11.5603285,15.4455032 C11.6544095,15.3975665 11.7309005,15.3210765 11.7788372,15.2269955 C11.8333339,15.1200396 11.833334,14.9800264 11.833334,14.6999998 L11.833334,12.6333332 C11.833334,12.3533069 11.833333,12.2132944 11.8878298,12.1063385 C11.9357665,12.0122575 12.0122575,11.9357665 12.1063385,11.8878298 C12.2132944,11.833333 12.3533076,11.833334 12.6333342,11.833334 L14.6999998,11.833334 C14.9800261,11.833334 15.1200396,11.8333339 15.2269955,11.7788372 C15.3210765,11.7309005 15.3975665,11.6544095 15.4455032,11.5603285 C15.5,11.4533726 15.5,11.3133595 15.5,11.0333328 L15.5,8.96666718 C15.5,8.68664089 15.5,8.54662739 15.4455032,8.43967152 C15.3975666,8.34559048 15.3210765,8.26910044 15.2269955,8.22116375 C15.1200396,8.166667 14.9800264,8.166667 14.6999998,8.16666698 L12.6333332,8.16666698 C12.3533069,8.16666697 12.2132944,8.16666697 12.1063385,8.11217022 C12.0122575,8.06423353 11.9357665,7.98774301 11.8878298,7.89366198 C11.833333,7.7867061 11.833334,7.64669245 11.833334,7.36666584 L11.833334,5.30000019 Z"></path>
            </g>
        </g>
    </g>
</svg>