<?xml version="1.0" encoding="UTF-8"?>
<svg width="24px" height="24px" viewBox="0 0 24 24" version="1.1" xmlns="http://www.w3.org/2000/svg" xmlns:xlink="http://www.w3.org/1999/xlink">
    <title>message-dots-circle</title>
    <g id="Line-icons" stroke="none" stroke-width="1" fill="none" fill-rule="evenodd" stroke-linecap="round" stroke-linejoin="round">
        <g id="Communication" transform="translate(-336, -516)" fill-rule="nonzero" stroke="#000000" stroke-width="2">
            <g id="Icon" transform="translate(339, 519)">
                <path d="M18,9 C18,13.9705629 13.9705629,18 9,18 C7.80285621,18 6.66030395,17.766264 5.61549044,17.341938 C5.41552451,17.2607266 5.31554175,17.2201211 5.23471975,17.2020054 C5.15566061,17.1842848 5.09715314,17.1778039 5.01613235,17.1777935 C4.93330498,17.1777828 4.84308663,17.1928181 4.66265011,17.2228909 L1.10476112,17.8158741 C0.732182473,17.8779705 0.545893192,17.9090184 0.4111844,17.8512402 C0.293282911,17.8006708 0.199329782,17.7067172 0.148760423,17.5888157 C0.0909822099,17.4541069 0.122030418,17.2678175 0.184126854,16.8952389 L0.777108252,13.3373508 C0.807181049,13.1569141 0.822217407,13.066696 0.822206736,12.9838686 C0.822196297,12.9028478 0.815715792,12.8443399 0.79799521,12.7652807 C0.779879499,12.6844587 0.739273779,12.5844761 0.658062339,12.38451 C0.233736217,11.3396964 0,10.1971437 0,9 C0,4.02943754 4.02943754,0 9,0 C13.9705629,0 18,4.02943754 18,9 Z"></path>
                <path d="M5,9 C5,9.27614239 4.77614239,9.5 4.5,9.5 C4.22385761,9.5 4,9.27614239 4,9 C4,8.72385761 4.22385761,8.5 4.5,8.5 C4.77614239,8.5 5,8.72385761 5,9 Z"></path>
                <path d="M9.5,9 C9.5,9.27614239 9.27614239,9.5 9,9.5 C8.72385761,9.5 8.5,9.27614239 8.5,9 C8.5,8.72385761 8.72385761,8.5 9,8.5 C9.27614239,8.5 9.5,8.72385761 9.5,9 Z"></path>
                <path d="M14,9 C14,9.27614239 13.7761424,9.5 13.5,9.5 C13.2238576,9.5 13,9.27614239 13,9 C13,8.72385761 13.2238576,8.5 13.5,8.5 C13.7761424,8.5 14,8.72385761 14,9 Z"></path>
                <path d="M4.51000023,9 L4.5,9 M9.01000023,9 L9,9 M13.5,9 L13.5100002,9"></path>
            </g>
        </g>
    </g>
</svg>