<?xml version="1.0" encoding="UTF-8"?>
<svg width="24px" height="24px" viewBox="0 0 24 24" version="1.1" xmlns="http://www.w3.org/2000/svg" xmlns:xlink="http://www.w3.org/1999/xlink">
    <title>message-text-square-01</title>
    <g id="Line-icons" stroke="none" stroke-width="1" fill="none" fill-rule="evenodd" stroke-linecap="round" stroke-linejoin="round">
        <g id="Communication" transform="translate(-608, -556)" fill-rule="nonzero" stroke="#000000" stroke-width="2">
            <g id="Icon" transform="translate(611, 559)">
                <path d="M0,4.80000067 C0,3.11984277 0,2.27976376 0.326980442,1.6380285 C0.614600539,1.0735423 1.0735423,0.614600539 1.6380285,0.326980442 C2.27976376,0 3.11984253,0 4.80000019,0 L13.2000008,0 C14.8801581,0 15.7202356,0 16.3619709,0.326980442 C16.9264571,0.614600539 17.3853993,1.0735423 17.6730194,1.6380285 C18,2.27976376 18,3.11984241 18,4.80000019 L18,10.1999998 C18,11.8801572 18,12.7202366 17.6730194,13.3619719 C17.3853993,13.9264581 16.9264571,14.3853993 16.3619709,14.6730194 C15.7202356,15 14.8801575,15 13.1999998,15 L6.6837492,15 C6.0596956,15 5.74766871,15 5.44921494,15.0612526 C5.18442723,15.1155958 4.92819856,15.2054755 4.68748617,15.3284521 C4.41616872,15.4670645 4.17251697,15.6619872 3.68521309,16.0518303 L1.29975653,17.9601955 C0.88367036,18.2930645 0.675627172,18.4594991 0.500539839,18.4596882 C0.348269433,18.4596882 0.204222761,18.39062 0.109228574,18.2716141 C0,18.1347757 0,17.8683506 0,17.3355007 L0,4.80000067 Z"></path>
                <path d="M9,5.5 L4,5.5 M4,9 L12,9"></path>
            </g>
        </g>
    </g>
</svg>