<?xml version="1.0" encoding="UTF-8"?>
<svg width="24px" height="24px" viewBox="0 0 24 24" version="1.1" xmlns="http://www.w3.org/2000/svg" xmlns:xlink="http://www.w3.org/1999/xlink">
    <title>message-heart-circle</title>
    <g id="Line-icons" stroke="none" stroke-width="1" fill="none" fill-rule="evenodd" stroke-linecap="round" stroke-linejoin="round">
        <g id="Communication" transform="translate(-336, -596)" fill-rule="nonzero" stroke="#000000" stroke-width="2">
            <g id="Icon" transform="translate(338.3916, 599)">
                <path d="M18.6080227,8.5 C18.6080227,13.1944199 14.8024435,17 10.1080236,17 C9.03124499,17 8.00122982,16.7997787 7.05317831,16.434536 C6.87984389,16.3677578 6.79317682,16.3343693 6.72425556,16.3184853 C6.65646828,16.3028626 6.60739721,16.2963285 6.53788376,16.2936707 C6.46720745,16.2909683 6.38966759,16.2989833 6.23458719,16.3150139 L1.11356461,16.8443718 C0.625321895,16.8948413 0.381200507,16.9200765 0.237197459,16.8322353 C0.11177063,16.7557256 0.0263417468,16.6279228 0.00360122439,16.4827728 C-0.0225072603,16.3161256 0.0941484272,16.1002013 0.327459782,15.6683512 L1.96311605,12.6408157 C2.09781919,12.3914855 2.16517073,12.2668197 2.1956768,12.1469498 C2.22580338,12.028571 2.23308751,11.9431997 2.2234509,11.8214283 C2.21369289,11.698123 2.15959311,11.5376195 2.05139351,11.2166128 C1.76387078,10.3635902 1.60802329,9.44999516 1.60802329,8.5 C1.60802329,3.80557966 5.41360331,0 10.1080236,0 C14.8024435,0 18.6080227,3.80557966 18.6080227,8.5 Z"></path>
                <path d="M10.1049414,5.94925117 C9.20523292,4.91040027 7.70490861,4.63095236 6.57763577,5.58222818 C5.45036292,6.53350401 5.2916587,8.12398982 6.17691231,9.24906731 C6.72535759,9.94609183 8.10191035,11.2191499 9.06998158,12.0869617 C9.42557448,12.4057273 9.60337009,12.5651099 9.81675053,12.6293287 C9.99979596,12.6844179 10.2100868,12.684418 10.3931322,12.6293287 C10.6065126,12.5651099 10.7843089,12.4057267 11.1399021,12.0869608 C12.107973,11.219149 13.4845242,9.94609165 14.0329695,9.24906731 C14.9182233,8.12398982 14.7788951,6.52349752 13.632246,5.58222818 C12.4855969,4.64095885 11.00465,4.91040027 10.1049414,5.94925117 Z"></path>
            </g>
        </g>
    </g>
</svg>