<?xml version="1.0" encoding="UTF-8"?>
<svg width="24px" height="24px" viewBox="0 0 24 24" version="1.1" xmlns="http://www.w3.org/2000/svg" xmlns:xlink="http://www.w3.org/1999/xlink">
    <title>message-chat-square</title>
    <g id="Line-icons" stroke="none" stroke-width="1" fill="none" fill-rule="evenodd" stroke-linecap="round" stroke-linejoin="round">
        <g id="Communication" transform="translate(-336, -316)" fill-rule="nonzero" stroke="#000000" stroke-width="2">
            <g id="Icon" transform="translate(338, 318)">
                <path d="M20,12.1999989 C20,11.0798943 20,10.5198426 19.7820129,10.0920191 C19.5902662,9.71569493 19.284306,9.4097338 18.9079819,9.21798706 C18.4801584,9 17.9201044,9 16.7999992,9 L11.1999998,9 C10.0798949,9 9.51984257,9 9.09201908,9.21798706 C8.71569493,9.4097338 8.4097338,9.71569493 8.21798706,10.0920191 C8,10.5198426 8,11.0798954 8,12.2000008 L8,14.7142868 C8,15.8343914 8,16.394444 8.21798706,16.8222675 C8.4097338,17.1985917 8.71569493,17.5045519 9.09201908,17.6962986 C9.51984257,17.9142856 10.0798947,17.9142857 11.1999998,17.9142857 L12.9969196,17.9142857 C13.3695318,17.9142857 13.5558378,17.9142849 13.7355738,17.9474106 C13.8950929,17.9768103 14.0504433,18.0255081 14.1982012,18.0924282 C14.3646854,18.1678295 14.5176546,18.2741792 14.8235931,18.4868793 L17,20 L17,17.9142857 C17.9318832,17.9142857 18.3978254,17.9142858 18.7653675,17.7620449 C19.2554237,17.559057 19.6447713,17.1697093 19.8477592,16.6796532 C20,16.312111 20,15.846169 20,14.9142857 L20,12.1999989 Z"></path>
                <path d="M7.4984887,13.5077802 L4.92474365,16.1136971 L4.92474365,16.1136971 C4.49578524,16.5480175 4.28130579,16.7651768 4.09695196,16.7804928 C3.93701243,16.7937813 3.78041577,16.7294846 3.6759584,16.6076412 C3.55555558,16.4671993 3.55555558,16.1619778 3.55555558,15.5515366 L3.55555558,13 C3.03948379,13 2.78144813,13 2.56520367,12.9683247 C1.25374329,12.7762241 0.223776221,11.7462568 0.0316752046,10.4347963 C0,10.2185516 0,9.96051598 0,9.44444275 L0,4.80000067 C0,3.11984253 0,2.2797637 0.326980442,1.6380285 C0.614600539,1.07354224 1.07354224,0.614600539 1.6380285,0.326980442 C2.2797637,0 3.11984253,0 4.80000019,0 L12.2000008,0 C13.8801575,0 14.7202368,0 15.3619719,0.326980442 C15.9264574,0.614600539 16.3853989,1.07354224 16.6730194,1.6380285 C17,2.2797637 17,3.11984253 17,4.80000019 L17,9"></path>
            </g>
        </g>
    </g>
</svg>