<?xml version="1.0" encoding="UTF-8"?>
<svg width="24px" height="24px" viewBox="0 0 24 24" version="1.1" xmlns="http://www.w3.org/2000/svg" xmlns:xlink="http://www.w3.org/1999/xlink">
    <title>message-chat-circle</title>
    <g id="Line-icons" stroke="none" stroke-width="1" fill="none" fill-rule="evenodd" stroke-linecap="round" stroke-linejoin="round">
        <g id="Communication" transform="translate(-336, -276)" fill-rule="nonzero" stroke="#000000" stroke-width="2">
            <g id="Icon" transform="translate(338, 278)">
                <path d="M11,14.5 C11,17.5375659 8.59647512,20 5.63157845,20 C5.01910752,20 4.43059218,19.8949201 3.88227081,19.7013988 C3.67415963,19.6279493 3.57010397,19.591225 3.500108,19.5772705 C3.42640609,19.5625772 3.38651926,19.5585039 3.3113687,19.5579948 C3.23999693,19.5575113 3.15826529,19.5686734 2.994802,19.5909977 L0,20 L0.611344457,17.2383099 C0.651413705,17.0573008 0.671448309,16.9667959 0.67607981,16.8867188 C0.680914837,16.8031227 0.678639043,16.756662 0.665656865,16.6739388 C0.65322116,16.5946976 0.61533042,16.4787083 0.539548934,16.2467289 C0.360275686,15.6979443 0.263157845,15.1105918 0.263157845,14.5 C0.263157845,11.4624338 2.66668153,9 5.63157845,9 C8.59647512,9 11,11.4624338 11,14.5 Z"></path>
                <path d="M4.09436417,9.22879505 C4.03220828,8.82822704 3.99996185,8.41785526 3.99996185,8 C3.99996185,3.58172178 7.60524797,0 12.0525932,0 C16.499939,0 20.1052246,3.58172178 20.1052246,8 C20.1052246,8.99807167 19.9212513,9.95345402 19.5851555,10.8345041 C19.5153522,11.0174875 19.4804497,11.1089792 19.4645996,11.1804104 C19.4488955,11.2511854 19.4428415,11.3009748 19.4411316,11.3734512 C19.4394064,11.446599 19.4493275,11.527174 19.4691658,11.6883221 L19.8717499,14.9585238 C19.9153309,15.3125324 19.9371204,15.4895363 19.878233,15.6182222 C19.8266401,15.7309685 19.7349968,15.8205233 19.6210918,15.869503 C19.4910831,15.9254084 19.3146276,15.8995428 18.9617176,15.8478127 L15.7764502,15.3809128 C15.6101494,15.356535 15.5269718,15.3443441 15.4512424,15.3447714 C15.3763151,15.3451939 15.3244743,15.3507318 15.2511492,15.3661461 C15.1770344,15.3817272 15.0823498,15.4171925 14.8929815,15.4881229 C14.0096741,15.8189774 13.052413,16 12.0525932,16 C11.6344042,16 11.2236614,15.9683313 10.8226604,15.9072752"></path>
            </g>
        </g>
    </g>
</svg>