<?xml version="1.0" encoding="UTF-8"?>
<svg width="24px" height="24px" viewBox="0 0 24 24" version="1.1" xmlns="http://www.w3.org/2000/svg" xmlns:xlink="http://www.w3.org/1999/xlink">
    <title>message-heart-square</title>
    <g id="Line-icons" stroke="none" stroke-width="1" fill="none" fill-rule="evenodd" stroke-linecap="round" stroke-linejoin="round">
        <g id="Communication" transform="translate(-336, -636)" fill-rule="nonzero" stroke="#000000" stroke-width="2">
            <g id="Icon" transform="translate(339, 639)">
                <path d="M0,4.79999971 C0,3.11984229 0,2.27976376 0.326980442,1.6380285 C0.614600539,1.0735423 1.0735423,0.614600539 1.6380285,0.326980442 C2.27976376,0 3.11984253,0 4.80000019,0 L13.2000008,0 C14.8801581,0 15.7202356,0 16.3619709,0.326980442 C16.9264571,0.614600539 17.3853993,1.0735423 17.6730194,1.6380285 C18,2.27976376 18,3.11984241 18,4.80000019 L18,10.1999998 C18,11.8801572 18,12.7202366 17.6730194,13.3619719 C17.3853993,13.9264581 16.9264571,14.3853993 16.3619709,14.6730194 C15.7202356,15 14.8801575,15 13.1999998,15 L10.6837492,15 C10.0596955,15 9.74766871,15 9.44921494,15.0612526 C9.18442723,15.1155958 8.92819904,15.2054755 8.68748665,15.3284521 C8.4161692,15.4670645 8.17251697,15.6619872 7.68521309,16.0518303 L5.29975653,17.9601955 C4.88367036,18.2930645 4.67562711,18.4594991 4.50053978,18.4596882 C4.34826937,18.4596882 4.2042228,18.39062 4.10922861,18.2716141 C4,18.1347757 4,17.8683506 4,17.3355007 L4,15 C3.07002836,15 2.60504255,15 2.22354293,14.8977776 C1.18826675,14.6203762 0.379623897,13.811733 0.10222251,12.7764568 C0,12.3949572 0,11.9299715 0,11 L0,4.79999971 Z"></path>
                <path d="M8.99691772,4.69925117 C8.09720927,3.66040027 6.59688544,3.38095236 5.4696126,4.33222818 C4.34233975,5.28350401 4.18363553,6.87398982 5.06888914,7.99906731 C5.61733443,8.69609183 6.99388671,9.96914995 7.96195793,10.8369617 C8.31755084,11.1557273 8.4953474,11.3151099 8.70872784,11.3793287 C8.89177327,11.4344179 9.10206313,11.434418 9.28510857,11.3793287 C9.49848899,11.3151099 9.6762853,11.1557267 10.0318785,10.8369608 C10.9999493,9.96914899 12.3765005,8.69609165 12.9249458,7.99906731 C13.8101996,6.87398982 13.6708715,5.27349752 12.5242224,4.33222818 C11.3775733,3.39095885 9.89662635,3.66040027 8.99691772,4.69925117 Z"></path>
            </g>
        </g>
    </g>
</svg>