<?xml version="1.0" encoding="UTF-8"?>
<svg width="24px" height="24px" viewBox="0 0 24 24" version="1.1" xmlns="http://www.w3.org/2000/svg" xmlns:xlink="http://www.w3.org/1999/xlink">
    <title>message-question-circle</title>
    <g id="Line-icons" stroke="none" stroke-width="1" fill="none" fill-rule="evenodd" stroke-linecap="round" stroke-linejoin="round">
        <g id="Communication" transform="translate(-608, -236)" fill-rule="nonzero" stroke="#000000" stroke-width="2">
            <g id="Icon" transform="translate(610.3916, 239)">
                <path d="M18.6080227,8.5 C18.6080227,13.1944199 14.8024435,17 10.1080236,17 C9.03124499,17 8.00122982,16.7997787 7.05317831,16.434536 C6.87984389,16.3677578 6.79317682,16.3343693 6.72425556,16.3184853 C6.65646828,16.3028626 6.60739721,16.2963285 6.53788376,16.2936707 C6.46720745,16.2909683 6.38966759,16.2989833 6.23458719,16.3150139 L1.11356461,16.8443718 C0.625321895,16.8948413 0.381200507,16.9200765 0.237197459,16.8322353 C0.11177063,16.7557256 0.0263417468,16.6279228 0.00360122439,16.4827728 C-0.0225072603,16.3161256 0.0941484272,16.1002013 0.327459782,15.6683512 L1.96311605,12.6408157 C2.09781919,12.3914855 2.16517073,12.2668197 2.1956768,12.1469498 C2.22580338,12.028571 2.23308751,11.9431997 2.2234509,11.8214283 C2.21369289,11.698123 2.15959311,11.5376195 2.05139351,11.2166128 C1.76387078,10.3635902 1.60802329,9.44999516 1.60802329,8.5 C1.60802329,3.80557966 5.41360331,0 10.1080236,0 C14.8024435,0 18.6080227,3.80557966 18.6080227,8.5 Z"></path>
                <path d="M8.10802364,6.00223637 C8.28422025,5.50136083 8.63199657,5.07900494 9.08975697,4.80997515 C9.54751736,4.54094535 10.0857199,4.44260341 10.6090403,4.53236675 C11.1323606,4.6221301 11.6070255,4.89420626 11.948966,5.30040598 C12.2909066,5.7066057 12.4780554,6.22071522 12.4772644,6.75167751 C12.4772644,7.75093214 11.7278233,8.50037297 10.228941,9"></path>
                <line x1="10.257926" y1="12" x2="10.2679262" y2="12"></line>
            </g>
        </g>
    </g>
</svg>