<?xml version="1.0" encoding="UTF-8"?>
<svg width="24px" height="24px" viewBox="0 0 24 24" version="1.1" xmlns="http://www.w3.org/2000/svg" xmlns:xlink="http://www.w3.org/1999/xlink">
    <title>message-notification-circle</title>
    <g id="Line-icons" stroke="none" stroke-width="1" fill="none" fill-rule="evenodd" stroke-linecap="round" stroke-linejoin="round">
        <g id="Communication" transform="translate(-336, -676)" fill-rule="nonzero" stroke="#000000" stroke-width="2">
            <g id="Icon" transform="translate(338.3916, 679)">
                <path d="M17.7293434,0.878679454 C18.9009159,2.05025214 18.9009159,3.94974756 17.7293434,5.12132025 C16.557771,6.29289293 14.6582754,6.29289293 13.4867029,5.12132025 C12.3151305,3.94974756 12.3151305,2.05025214 13.4867029,0.878679454 C14.6582754,-0.292893231 16.557771,-0.292893231 17.7293434,0.878679454 Z"></path>
                <path d="M9.31539631,0.0364680588 C4.99260855,0.436210275 1.60802329,4.07284927 1.60802329,8.5 C1.60802329,9.44999504 1.76387072,10.3635902 2.05139327,11.2166128 C2.15959167,11.5376129 2.2136929,11.6981239 2.2234509,11.8214283 C2.2330873,11.9431992 2.22580338,12.0285711 2.1956768,12.1469498 C2.16517067,12.26682 2.09781921,12.3914852 1.96311605,12.6408157 L0.327459753,15.6683512 C0.0941483974,16.1002007 -0.0225072743,16.3161259 0.00360122905,16.4827728 C0.0263417421,16.627924 0.11177063,16.7557259 0.237197459,16.8322353 C0.381200492,16.9200764 0.625321865,16.8948421 1.11356461,16.8443718 L6.23458672,16.3150139 C6.38960648,16.2989922 6.46722126,16.2909679 6.53788376,16.2936707 C6.60739708,16.2963295 6.65646791,16.3028622 6.72425556,16.3184853 C6.79317665,16.3343697 6.87984371,16.3677578 7.05317831,16.434536 C8.00122976,16.7997799 9.03124523,17 10.1080236,17 C14.5388231,17 18.1778049,13.6098328 18.5725365,9.28193665"></path>
            </g>
        </g>
    </g>
</svg>