<?xml version="1.0" encoding="UTF-8"?>
<svg width="24px" height="24px" viewBox="0 0 24 24" version="1.1" xmlns="http://www.w3.org/2000/svg" xmlns:xlink="http://www.w3.org/1999/xlink">
    <title>microphone-02</title>
    <g id="Line-icons" stroke="none" stroke-width="1" fill="none" fill-rule="evenodd" stroke-linecap="round" stroke-linejoin="round">
        <g id="Media-&amp;-devices" transform="translate(-336, -516)" fill-rule="nonzero" stroke="#000000" stroke-width="2">
            <g id="Icon" transform="translate(340, 519)">
                <path d="M4,4 C4,1.79086089 5.79086113,0 8,0 C10.2091389,0 12,1.79086113 12,4 L12,10 C12,12.2091389 10.2091389,14 8,14 C5.79086113,14 4,12.2091389 4,10 L4,4 Z"></path>
                <path d="M16,10 L16,10 L16,10 C16,14.4182777 12.4182787,18 8,18 C3.58172226,18 0,14.4182777 0,10 C-6.76353751e-17,9.44771525 0.44771525,9 1,9"></path>
            </g>
        </g>
    </g>
</svg>