<?xml version="1.0" encoding="UTF-8"?>
<svg width="24px" height="24px" viewBox="0 0 24 24" version="1.1" xmlns="http://www.w3.org/2000/svg" xmlns:xlink="http://www.w3.org/1999/xlink">
    <title>microphone-off-02</title>
    <g id="Line-icons" stroke="none" stroke-width="1" fill="none" fill-rule="evenodd" stroke-linecap="round" stroke-linejoin="round">
        <g id="Media-&amp;-devices" transform="translate(-336, -596)" fill-rule="nonzero" stroke="#000000" stroke-width="2">
            <g id="Icon" transform="translate(338, 598)">
                <path d="M6,11 C6,13.2091389 7.79086113,15 10,15 C11.358304,15 12.5584784,14.3229675 13.2814722,13.2879524 L6,6 L6,11 Z"></path>
                <path d="M2,11 L2,11 L2,11 C2,15.4182777 5.58172226,19 10,19 C12.4652739,19 14.6700993,17.8848934 16.1376038,16.1315575 M20,20 L0,0 M14,8.39999962 L14,5 C14,2.79086113 12.2091386,1 10,1 C9.04058361,1 8.16005957,1.33777702 7.47085953,1.90089869"></path>
            </g>
        </g>
    </g>
</svg>