<?xml version="1.0" encoding="UTF-8"?>
<svg width="24px" height="24px" viewBox="0 0 24 24" version="1.1" xmlns="http://www.w3.org/2000/svg" xmlns:xlink="http://www.w3.org/1999/xlink">
    <title>microscope</title>
    <g id="Line-icons" stroke="none" stroke-width="1" fill="none" fill-rule="evenodd" stroke-linecap="round" stroke-linejoin="round">
        <g id="Education" transform="translate(-880, -196)" fill-rule="nonzero" stroke="#000000" stroke-width="2">
            <g id="Icon" transform="translate(883, 198)">
                <path d="M6.5,11 L2.5,11 C2.03534484,11 1.80301714,11 1.60981941,11.0384293 C0.816438138,11.1962426 0.196242779,11.8164381 0.0384294391,12.6098194 C0,12.8030171 0,13.0353448 0,13.5 C0,13.9646552 0,14.1969829 0.0384294391,14.3901806 C0.196242779,15.1835618 0.816438138,15.8037572 1.60981941,15.9615707 C1.80301714,16 2.03534484,16 2.5,16 L6.5,16 C6.9646554,16 7.19698286,16 7.39018059,15.9615707 C8.18356228,15.8037572 8.80375767,15.1835618 8.96157074,14.3901806 C9,14.1969829 9,13.9646552 9,13.5 C9,13.0353448 9,12.8030171 8.96157074,12.6098194 C8.80375767,11.8164381 8.18356228,11.1962426 7.39018059,11.0384293 C7.19698286,11 6.9646554,11 6.5,11 Z"></path>
                <path d="M1,11 L1,3.5 C1,1.56700337 2.56700349,0 4.5,0 C6.43299675,0 8,1.56700337 8,3.5 L8,11 L1,11 Z"></path>
                <path d="M9,20 L0,20 M8,4.25203514 C8.63923985,4.08750619 9.3094008,4 10,4 C14.4182782,4 18,7.58172178 18,12 C18,15.357378 15.9318304,18.2317095 13,19.4184837"></path>
            </g>
        </g>
    </g>
</svg>