<?xml version="1.0" encoding="UTF-8"?>
<svg width="24px" height="24px" viewBox="0 0 24 24" version="1.1" xmlns="http://www.w3.org/2000/svg" xmlns:xlink="http://www.w3.org/1999/xlink">
    <title>minimize-02</title>
    <g id="Line-icons" stroke="none" stroke-width="1" fill="none" fill-rule="evenodd" stroke-linecap="round" stroke-linejoin="round">
        <g id="Layout" transform="translate(-880, -396)" fill-rule="nonzero" stroke="#000000" stroke-width="2">
            <g id="minimize-02" transform="translate(883.1999, 399.1171)">
                <path d="M0,4.88284282 L0,4.88284282 L0,4.88284282 C1.68015766,4.88284282 2.52023649,4.88284282 3.16197181,4.55586223 C3.72645807,4.26824217 4.18539953,3.80930071 4.4730196,3.24481444 C4.80000019,2.60307913 4.80000019,1.76300029 4.80000019,0.0828426335 C4.80000019,0.0370899104 4.76291028,3.01841885e-14 4.71715756,3.01980663e-14 C4.69518632,3.01980663e-14 4.67411498,0.00872803811 4.65857897,0.0242640456 M0,12.8828428 L0,12.8828428 L0,12.8828428 C1.68015766,12.8828428 2.52023649,12.8828428 3.16197181,13.2098234 C3.72645807,13.4974435 4.18539953,13.9563847 4.4730196,14.520871 C4.80000019,15.1626062 4.80000019,16.0026844 4.80000019,17.6828421 C4.80000019,17.728595 4.7629101,17.7656851 4.71715716,17.7656851 C4.69518583,17.7656851 4.67411438,17.756957 4.6585783,17.7414209 M12.8000002,0.0828426335 L12.8000002,0.0828426335 L12.8000002,0.0828426335 C12.8000002,1.76300029 12.8000002,2.60307913 13.1269808,3.24481444 C13.4146009,3.80930071 13.873543,4.26824217 14.4380293,4.55586223 C15.0797645,4.88284282 15.9198437,4.88284282 17.6000013,4.88284282 C17.6457538,4.88284282 17.6828436,4.84575309 17.6828436,4.80000059 C17.6828436,4.77802946 17.6741156,4.75695821 17.6585796,4.74142228 M12.8000002,17.6828421 L12.8000002,17.6828421 L12.8000002,17.6828421 C12.8000002,16.0026844 12.8000002,15.1626062 13.1269808,14.520871 C13.4146009,13.9563847 13.873543,13.4974435 14.4380293,13.2098234 C15.0797645,12.8828428 15.9198437,12.8828428 17.6000013,12.8828428 C17.6457538,12.8828428 17.6828436,12.9199326 17.6828436,12.9656851 C17.6828436,12.9876562 17.6741156,13.0087274 17.6585796,13.0242634" id="Icon"></path>
            </g>
        </g>
    </g>
</svg>