<?xml version="1.0" encoding="UTF-8"?>
<svg width="24px" height="24px" viewBox="0 0 24 24" version="1.1" xmlns="http://www.w3.org/2000/svg" xmlns:xlink="http://www.w3.org/1999/xlink">
    <title>modem-01</title>
    <g id="Line-icons" stroke="none" stroke-width="1" fill="none" fill-rule="evenodd" stroke-linecap="round" stroke-linejoin="round">
        <g id="Media-&amp;-devices" transform="translate(-336, -636)" fill-rule="nonzero" stroke="#000000" stroke-width="2">
            <g id="modem-01" transform="translate(337.9998, 637.929)">
                <g id="Icon" transform="translate(0, 0)">
                    <path d="M0.000221215043,17.0710449 C0.000221215043,16.1391618 0.000221207738,15.6732205 0.15246214,15.3056784 C0.355450049,14.8156222 0.744798183,14.4262736 1.23485434,14.2232857 C1.60239646,14.0710447 2.06833804,14.0710449 3.00022125,14.0710449 L17.0002213,14.0710449 C17.9321041,14.0710449 18.3980466,14.0710447 18.7655888,14.2232857 C19.2556449,14.4262736 19.6449926,14.8156222 19.8479805,15.3056784 C20.0002214,15.6732205 20.0002213,16.1391618 20.0002213,17.0710449 C20.0002213,18.0029281 20.0002214,18.4688684 19.8479805,18.8364105 C19.6449926,19.3264667 19.2556449,19.7158163 18.7655888,19.9188042 C18.3980466,20.0710449 17.9321045,20.0710449 17.0002213,20.0710449 L3.00022078,20.0710449 C2.06833792,20.0710449 1.60239646,20.0710449 1.23485434,19.9188042 C0.744798183,19.7158163 0.355450049,19.3264667 0.15246214,18.8364105 C0.000221207738,18.4688684 0.000221215043,18.0029281 0.000221215043,17.0710449 Z"></path>
                    <path d="M14.242897,11.3136501 C16.5860424,8.97050476 16.5860443,5.17151546 14.242897,2.82836914 M5.75758123,2.82836914 C3.41443491,5.17151546 3.41443539,8.97050476 5.75758123,11.3136501 M2.92893219,0 C-0.952702045,3.88163424 -0.976168394,10.1604271 2.85853481,14.0710449 M17.1419086,14.0710449 C20.9766121,10.1604271 20.9531441,3.88163424 17.0715103,0 M10.0002213,14.0710449 L10.0002213,7.07104492"></path>
                </g>
            </g>
        </g>
    </g>
</svg>