<?xml version="1.0" encoding="UTF-8"?>
<svg width="24px" height="24px" viewBox="0 0 24 24" version="1.1" xmlns="http://www.w3.org/2000/svg" xmlns:xlink="http://www.w3.org/1999/xlink">
    <title>modem-02</title>
    <g id="Line-icons" stroke="none" stroke-width="1" fill="none" fill-rule="evenodd" stroke-linecap="round" stroke-linejoin="round">
        <g id="Media-&amp;-devices" transform="translate(-336, -676)" fill-rule="nonzero" stroke="#000000" stroke-width="2">
            <g id="Icon" transform="translate(337.9998, 678.4459)">
                <path d="M0.000221393275,15.7541199 C0.000221393275,14.6340147 0.000221386552,14.0739626 0.218208358,13.6461391 C0.409955099,13.269815 0.715916187,12.9638539 1.09224033,12.7721071 C1.52006382,12.5541202 2.08011627,12.5541201 3.2002213,12.5541201 L16.8002205,12.5541201 C17.9203259,12.5541201 18.4803796,12.5541202 18.9082031,12.7721071 C19.2845273,12.9638539 19.5904875,13.269815 19.7822342,13.6461391 C20.0002213,14.0739626 20.0002213,14.6340148 20.0002213,15.7541199 L20.0002213,16.3541203 C20.0002213,17.4742254 20.0002213,18.0342775 19.7822342,18.462101 C19.5904875,18.8384251 19.2845273,19.1443872 18.9082031,19.336134 C18.4803796,19.5541191 17.9203274,19.5541191 16.8002224,19.5541191 L3.20022202,19.5541191 C2.08011663,19.5541191 1.52006382,19.5541191 1.09224033,19.336134 C0.715916187,19.1443872 0.409955099,18.8384251 0.218208358,18.462101 C0.000221386552,18.0342775 0.000221393275,17.4742253 0.000221393275,16.3541203 L0.000221393275,15.7541199 Z"></path>
                <path d="M5.28889656,2.83786011 C4.08733809,4.35726213 3.72602797,6.32372236 4.20496559,8.11198616 M14.7115459,2.83781147 C15.9131044,4.3572135 16.2744145,6.32367373 15.7954769,8.11193752 M2.44675303,0 C0.205677986,2.57737565 -0.495881915,6.02900887 0.342072785,9.15375137 M17.5502205,0 C19.7912955,2.57741857 20.4928563,6.02905178 19.6549015,9.15379429 M10.0002213,6.55412006 L10.0002213,12.5541201 M3.50022149,16.0541191 L7.50022125,16.0541191"></path>
            </g>
        </g>
    </g>
</svg>