<?xml version="1.0" encoding="UTF-8"?>
<svg width="24px" height="24px" viewBox="0 0 24 24" version="1.1" xmlns="http://www.w3.org/2000/svg" xmlns:xlink="http://www.w3.org/1999/xlink">
    <title>monitor-05</title>
    <g id="Line-icons" stroke="none" stroke-width="1" fill="none" fill-rule="evenodd" stroke-linecap="round" stroke-linejoin="round">
        <g id="Media-&amp;-devices" transform="translate(-336, -876)" fill-rule="nonzero" stroke="#000000" stroke-width="2">
            <g id="Icon" transform="translate(338, 880)">
                <line x1="3.5" y1="16" x2="6" y2="16"></line>
                <line x1="15" y1="5" x2="15.0100002" y2="5"></line>
                <path d="M10,3.19999981 C10,2.0798949 10,1.51984245 10.2179871,1.09201896 C10.4097338,0.715694815 10.7156949,0.409733713 11.0920191,0.217986971 C11.5198426,0 12.0798948,0 13.1999998,0 L16.7999992,0 C17.9201043,0 18.4801584,0 18.9079819,0.217986971 C19.284306,0.409733713 19.5902662,0.715694815 19.7820129,1.09201896 C20,1.51984245 20,2.07989502 20,3.20000005 L20,12.8000002 C20,13.9201051 20,14.4801574 19.7820129,14.9079809 C19.5902662,15.2843051 19.284306,15.5902662 18.9079819,15.7820129 C18.4801584,16 17.9201043,16 16.7999992,16 L13.1999998,16 C12.0798948,16 11.5198426,16 11.0920191,15.7820129 C10.7156949,15.5902662 10.4097338,15.2843051 10.2179871,14.9079809 C10,14.4801574 10,13.9201052 10,12.8000002 L10,3.19999981 Z"></path>
                <path d="M15,12 C15.5522847,12 16,11.5522847 16,11 C16,10.4477152 15.5522847,10 15,10 C14.4477152,10 14,10.4477152 14,11 C14,11.5522847 14.4477152,12 15,12 Z"></path>
                <path d="M3.56809724,2 L3.20000029,2 L3.20000029,2 C2.07989502,2 1.51984251,2 1.09201896,2.21798706 C0.715694845,2.4097338 0.409733713,2.71569496 0.217986971,3.09201908 C0,3.51984262 0,4.07989502 0,5.19999981 L0,8.80000019 C0,9.92010498 0,10.4801579 0.217986971,10.9079809 C0.409733713,11.2843056 0.715694845,11.5902662 1.09201896,11.7820129 C1.51984251,12 2.07989502,12 3.20000005,12 L3.56809715,12 C4.30123707,12 4.65091978,11.9071744 4.9768457,11.7328673 C5.30277163,11.5585602 5.5585602,11.3027716 5.7328673,10.9768457 C5.90717439,10.6509198 6,10.3012371 6,9.56809715"></path>
            </g>
        </g>
    </g>
</svg>