<?xml version="1.0" encoding="UTF-8"?>
<svg width="24px" height="24px" viewBox="0 0 24 24" version="1.1" xmlns="http://www.w3.org/2000/svg" xmlns:xlink="http://www.w3.org/1999/xlink">
    <title>monitor-02</title>
    <g id="Line-icons" stroke="none" stroke-width="1" fill="none" fill-rule="evenodd" stroke-linecap="round" stroke-linejoin="round">
        <g id="Media-&amp;-devices" transform="translate(-336, -756)" fill-rule="nonzero" stroke="#000000" stroke-width="2">
            <g id="Icon" transform="translate(338, 759)">
                <path d="M0,4.80000067 C0,3.11984277 0,2.27976376 0.326980442,1.6380285 C0.614600539,1.0735423 1.0735423,0.614600539 1.6380285,0.326980442 C2.27976376,0 3.11984253,0 4.80000019,0 L15.1999998,0 C16.8801575,0 17.7202356,0 18.3619709,0.326980442 C18.9264571,0.614600539 19.3853993,1.0735423 19.6730194,1.6380285 C20,2.27976376 20,3.11984253 20,4.80000019 L20,9.19999981 C20,10.8801577 20,11.7202366 19.6730194,12.3619719 C19.3853993,12.9264581 18.9264571,13.3853993 18.3619709,13.6730194 C17.7202356,14 16.8801575,14 15.1999998,14 L4.80000019,14 C3.11984253,14 2.27976376,14 1.6380285,13.6730194 C1.0735423,13.3853993 0.614600539,12.9264581 0.326980442,12.3619719 C0,11.7202366 0,10.8801575 0,9.19999981 L0,4.80000067 Z"></path>
                <path d="M5.57181311,18 C6.90661073,17.3597974 8.40996838,17 10,17 C11.5900316,17 13.093389,17.3597974 14.4281864,18"></path>
            </g>
        </g>
    </g>
</svg>