<?xml version="1.0" encoding="UTF-8"?>
<svg width="24px" height="24px" viewBox="0 0 24 24" version="1.1" xmlns="http://www.w3.org/2000/svg" xmlns:xlink="http://www.w3.org/1999/xlink">
    <title>monitor-04</title>
    <g id="Line-icons" stroke="none" stroke-width="1" fill="none" fill-rule="evenodd" stroke-linecap="round" stroke-linejoin="round">
        <g id="Media-&amp;-devices" transform="translate(-336, -836)" fill-rule="nonzero" stroke="#000000" stroke-width="2">
            <g id="Icon" transform="translate(338, 839)">
                <path d="M0,3.19999981 C0,2.0798949 0,1.51984245 0.217986971,1.09201896 C0.409733713,0.715694815 0.715694815,0.409733713 1.09201896,0.217986971 C1.51984245,0 2.07989478,0 3.19999981,0 L16.7999992,0 C17.9201046,0 18.4801584,0 18.9079819,0.217986971 C19.284306,0.409733713 19.5902662,0.715694815 19.7820129,1.09201896 C20,1.51984245 20,2.07989502 20,3.20000005 L20,10.8000002 C20,11.9201051 20,12.4801574 19.7820129,12.9079809 C19.5902662,13.2843051 19.284306,13.5902662 18.9079819,13.7820129 C18.4801584,14 17.9201043,14 16.7999992,14 L3.20000052,14 C2.07989514,14 1.51984245,14 1.09201896,13.7820129 C0.715694815,13.5902662 0.409733713,13.2843051 0.217986971,12.9079809 C0,12.4801574 0,11.9201052 0,10.8000002 L0,3.19999981 Z"></path>
                <polyline points="13 14 13 18 7 18 7 14"></polyline>
            </g>
        </g>
    </g>
</svg>