<?xml version="1.0" encoding="UTF-8"?>
<svg width="24px" height="24px" viewBox="0 0 24 24" version="1.1" xmlns="http://www.w3.org/2000/svg" xmlns:xlink="http://www.w3.org/1999/xlink">
    <title>monitor-03</title>
    <g id="Line-icons" stroke="none" stroke-width="1" fill="none" fill-rule="evenodd" stroke-linecap="round" stroke-linejoin="round">
        <g id="Media-&amp;-devices" transform="translate(-336, -796)" fill-rule="nonzero" stroke="#000000" stroke-width="2">
            <g id="Icon" transform="translate(338, 799)">
                <path d="M0,4.79999971 C0,3.11984229 0,2.27976376 0.326980442,1.6380285 C0.614600539,1.0735423 1.0735423,0.614600539 1.6380285,0.326980442 C2.27976376,0 3.11984253,0 4.80000019,0 L15.1999998,0 C16.8801575,0 17.7202356,0 18.3619709,0.326980442 C18.9264571,0.614600539 19.3853993,1.0735423 19.6730194,1.6380285 C20,2.27976376 20,3.11984241 20,4.80000019 L20,10.1999998 C20,11.8801572 20,12.7202366 19.6730194,13.3619719 C19.3853993,13.9264581 18.9264571,14.3853993 18.3619709,14.6730194 C17.7202356,15 16.8801575,15 15.1999998,15 L4.80000019,15 C3.11984253,15 2.27976376,15 1.6380285,14.6730194 C1.0735423,14.3853993 0.614600539,13.9264581 0.326980442,13.3619719 C0,12.7202366 0,11.8801576 0,10.1999998 L0,4.79999971 Z"></path>
                <path d="M20,11 L0,11 M6,18 L14,18"></path>
            </g>
        </g>
    </g>
</svg>