<?xml version="1.0" encoding="UTF-8"?>
<svg width="24px" height="24px" viewBox="0 0 24 24" version="1.1" xmlns="http://www.w3.org/2000/svg" xmlns:xlink="http://www.w3.org/1999/xlink">
    <title>moon-star</title>
    <g id="Line-icons" stroke="none" stroke-width="1" fill="none" fill-rule="evenodd" stroke-linecap="round" stroke-linejoin="round">
        <g id="Weather" transform="translate(-608, -236)" fill-rule="nonzero" stroke="#000000" stroke-width="2">
            <g id="Icon" transform="translate(610, 238)">
                <path d="M16,0 L16.6177921,1.23558295 C16.8832817,1.76656193 17.0160248,2.03205153 17.1933632,2.26211381 C17.3507247,2.46625996 17.5337403,2.64927465 17.7378864,2.8066361 C17.9679487,2.98397441 18.233439,3.11671904 18.7644176,3.38220835 L20,4 L18.7644176,4.61779118 C18.2334386,4.88328075 17.9679488,5.01602575 17.7378864,5.19336414 C17.5337402,5.35072568 17.3507247,5.53374065 17.1933632,5.73788691 C17.0160248,5.96794929 16.8832815,6.23343831 16.6177921,6.76441717 L16,8 L15.3822088,6.76441717 C15.1167193,6.23343831 14.9839742,5.9679487 14.8066359,5.73788643 C14.6492744,5.53374028 14.4662597,5.35072559 14.2621136,5.19336414 C14.0320513,5.01602583 13.766562,4.88328102 13.2355833,4.61779165 L12,4 L13.2355824,3.38220906 C13.7665616,3.11671945 14.0320511,2.98397453 14.2621136,2.8066361 C14.4662599,2.64927451 14.6492743,2.46625966 14.8066359,2.26211333 C14.9839743,2.03205088 15.1167195,1.76656133 15.3822088,1.23558235 L16,0 Z"></path>
                <path d="M19,11.3892965 C17.6889762,13.6890044 15.2145312,15.2394981 12.3779478,15.2394981 C8.17108536,15.2394981 4.76074886,11.8291755 4.76074886,7.62232971 C4.76074886,4.7855382 6.31148863,2.31094015 8.61149883,1 C3.77979279,1.4581199 0,5.5269227 0,10.4785395 C0,15.7370968 4.26291943,20 9.52149773,20 C14.4728765,20 18.5415284,16.220623 19,11.3892965 Z"></path>
            </g>
        </g>
    </g>
</svg>