<?xml version="1.0" encoding="UTF-8"?>
<svg width="24px" height="24px" viewBox="0 0 24 24" version="1.1" xmlns="http://www.w3.org/2000/svg" xmlns:xlink="http://www.w3.org/1999/xlink">
    <title>music-note-02</title>
    <g id="Line-icons" stroke="none" stroke-width="1" fill="none" fill-rule="evenodd" stroke-linecap="round" stroke-linejoin="round">
        <g id="Media-&amp;-devices" transform="translate(-336, -996)" fill-rule="nonzero" stroke="#000000" stroke-width="2">
            <g id="Icon" transform="translate(342, 999.622)">
                <path d="M3,17.3779564 C4.65685415,17.3779564 6,16.0348115 6,14.3779573 C6,12.7211031 4.65685415,11.3779573 3,11.3779573 C1.34314573,11.3779573 0,12.7211031 0,14.3779573 C0,16.0348115 1.34314573,17.3779564 3,17.3779564 Z"></path>
                <path d="M6,10.1418894 L6,1.96681201 L6,1.96681201 C6,1.10959387 6,0.680984914 6.18054295,0.422850788 C6.33819363,0.197447062 6.58172917,0.0469338251 6.85383987,0.00673031341 C7.16546333,-0.039311056 7.54882312,0.152368724 8.31554222,0.535728276 L10.8533957,1.80465512 C11.252095,2.00400481 11.3759165,2.1178067 11.4826988,2.26863846 C11.589481,2.41947022 11.6466771,2.59105841 11.6517503,2.77579316 C11.6568236,2.96052792 11.6260475,3.12586235 11.4266978,3.52456164"></path>
            </g>
        </g>
    </g>
</svg>