<?xml version="1.0" encoding="UTF-8"?>
<svg width="24px" height="24px" viewBox="0 0 24 24" version="1.1" xmlns="http://www.w3.org/2000/svg" xmlns:xlink="http://www.w3.org/1999/xlink">
    <title>music-note-01</title>
    <g id="Line-icons" stroke="none" stroke-width="1" fill="none" fill-rule="evenodd" stroke-linecap="round" stroke-linejoin="round">
        <g id="Media-&amp;-devices" transform="translate(-336, -956)" fill-rule="nonzero" stroke="#000000" stroke-width="2">
            <g id="Icon" transform="translate(339, 959.1953)">
                <path d="M6,13.6241899 L6,3.16005349 L6,3.16005349 C6,2.67851749 6,2.43774965 6.08760309,2.24247098 C6.16482453,2.07033466 6.28916612,1.92355467 6.44626522,1.81908488 C6.62448503,1.70056996 6.86197722,1.66098791 7.33696175,1.58182383 L16.1369629,0.11515712 C16.7779328,0.00832879543 17.0984178,-0.0450853705 17.3481865,0.0476855636 C17.5673685,0.12909577 17.7510939,0.284735218 17.8674297,0.487551272 C18,0.718670145 18,1.04357594 18,1.69338751 L18,11.6924994 C18,12.0968077 17.9640199,12.2437959 17.8934382,12.3958746 C17.8228566,12.5479533 17.7176735,12.6721179 17.5792675,12.7667407 C17.4408615,12.8613636 17.3017883,12.9210189 16.9029811,12.9874868"></path>
                <path d="M3,17.8046513 C4.65685415,17.8046513 6,16.4615045 6,14.8046503 C6,13.147796 4.65685415,11.8046503 3,11.8046503 C1.34314573,11.8046503 0,13.147796 0,14.8046503 C0,16.4615045 1.34314573,17.8046513 3,17.8046513 Z"></path>
                <path d="M15,15.8046503 C16.6568542,15.8046503 18,14.4615045 18,12.8046503 C18,11.147796 16.6568542,9.80465031 15,9.80465031 C13.3431457,9.80465031 12,11.147796 12,12.8046503 C12,14.4615045 13.3431457,15.8046503 15,15.8046503 Z"></path>
            </g>
        </g>
    </g>
</svg>