<?xml version="1.0" encoding="UTF-8"?>
<svg width="24px" height="24px" viewBox="0 0 24 24" version="1.1" xmlns="http://www.w3.org/2000/svg" xmlns:xlink="http://www.w3.org/1999/xlink">
    <title>music-note-plus</title>
    <g id="Line-icons" stroke="none" stroke-width="1" fill="none" fill-rule="evenodd" stroke-linecap="round" stroke-linejoin="round">
        <g id="Media-&amp;-devices" transform="translate(-336, -1036)" fill-rule="nonzero" stroke="#000000" stroke-width="2">
            <g id="Icon" transform="translate(339.5, 1039.622)">
                <path d="M8,17.3779564 C9.65685415,17.3779564 11,16.0348115 11,14.3779573 C11,12.7211031 9.65685415,11.3779573 8,11.3779573 C6.34314573,11.3779573 5,12.7211031 5,14.3779573 C5,16.0348115 6.34314573,17.3779564 8,17.3779564 Z"></path>
                <path d="M11,10.1418894 L11,1.96681201 L11,1.96681201 C11,1.10959387 11,0.680984914 11.1805429,0.422850788 C11.3381936,0.197447062 11.5817292,0.0469338251 11.8538399,0.00673031341 C12.1654633,-0.039311056 12.5488231,0.152368724 13.3155422,0.535728276 L15.8533957,1.80465512 C16.252095,2.00400481 16.3759165,2.1178067 16.4826988,2.26863846 C16.589481,2.41947022 16.6466771,2.59105841 16.6517503,2.77579316 C16.6568236,2.96052792 16.6260475,3.12586235 16.4266978,3.52456164 M3,0.377957284 L3,6.37795734 M0,3.37795734 L6,3.37795734"></path>
            </g>
        </g>
    </g>
</svg>