<?xml version="1.0" encoding="UTF-8"?>
<svg width="24px" height="24px" viewBox="0 0 24 24" version="1.1" xmlns="http://www.w3.org/2000/svg" xmlns:xlink="http://www.w3.org/1999/xlink">
    <title>navigation-pointer-02</title>
    <g id="Line-icons" stroke="none" stroke-width="1" fill="none" fill-rule="evenodd" stroke-linecap="round" stroke-linejoin="round">
        <g id="Maps-&amp;-travel" transform="translate(-608, -436)" fill-rule="nonzero" stroke="#000000" stroke-width="2">
            <g id="navigation-pointer-02" transform="translate(611.6406, 438.7446)">
                <path d="M1.39622223,18.5806637 C0.811537564,18.8379248 0.519195154,18.9665563 0.339796096,18.9100609 C0.18427743,18.8610857 0.0624065083,18.7393576 0.0132484678,18.5838966 C-0.0434579458,18.4045642 0.0848289728,18.1120688 0.341402799,17.5270805 L7.62276888,0.925567627 C7.85438056,0.397493005 7.97018601,0.133455701 8.13208771,0.052638635 C8.27268977,-0.0175462142 8.43810849,-0.0175462142 8.57871056,0.052638635 C8.74061225,0.133455701 8.85641792,0.397493303 9.08802986,0.925568521 L16.3693962,17.5270805 C16.6259702,18.1120691 16.7542562,18.4045642 16.6975498,18.5838966 C16.6483918,18.7393576 16.5265209,18.8610857 16.3710022,18.9100609 C16.1916031,18.9665563 15.8992602,18.8379254 15.3145742,18.5806637 L8.67758942,15.6603909 C8.55890469,15.6081696 8.49956292,15.582059 8.43792152,15.571744 C8.38328667,15.5626014 8.32751159,15.5626014 8.27287674,15.571744 C8.21123534,15.582059 8.15189373,15.6081695 8.03320885,15.6603909 L1.39622223,18.5806637 Z" id="Icon"></path>
            </g>
        </g>
    </g>
</svg>