<?xml version="1.0" encoding="UTF-8"?>
<svg width="24px" height="24px" viewBox="0 0 24 24" version="1.1" xmlns="http://www.w3.org/2000/svg" xmlns:xlink="http://www.w3.org/1999/xlink">
    <title>navigation-pointer-off-02</title>
    <g id="Line-icons" stroke="none" stroke-width="1" fill="none" fill-rule="evenodd" stroke-linecap="round" stroke-linejoin="round">
        <g id="Maps-&amp;-travel" transform="translate(-608, -516)" fill-rule="nonzero" stroke="#000000" stroke-width="2">
            <g id="navigation-pointer-off-02" transform="translate(610, 518)">
                <path d="M8.65758984,3.0509056 L9.26305866,1.67043638 L9.26305866,1.67043638 C9.49467009,1.14236236 9.61047637,0.878323793 9.77237797,0.79750675 C9.91298008,0.727321923 10.0783987,0.727321923 10.2190008,0.797506809 C10.3809024,0.878323853 10.4967084,1.1423614 10.7283201,1.67043662 L12.8340704,6.47154753 C12.9449861,6.72443547 12.8298949,7.01935663 12.577007,7.13027238 C12.3883907,7.21299881 12.1683449,7.17160355 12.0226837,7.02599249 M6.65278196,7.62162441 L1.98157668,18.2719727 L1.98157668,18.2719727 C1.72500288,18.8569613 1.59671593,19.1494541 1.65342236,19.3287868 C1.70258039,19.4842472 1.82445133,19.6059742 1.97996998,19.6549492 C2.15936899,19.7114449 2.45171142,19.5828152 3.03639603,19.3255539 L9.67338276,16.4052811 C9.79206753,16.3530598 9.85140991,16.3269501 9.91305065,16.3166351 C9.9676857,16.3074923 10.0234604,16.3074923 10.0780954,16.3166351 C10.1397362,16.3269501 10.1990786,16.3530598 10.3177633,16.4052811 L16.9547482,19.3255539 C17.5394344,19.5828161 17.8317776,19.7114449 18.0111752,19.6549492 C18.1666946,19.6059742 18.2885647,19.4842472 18.3377228,19.3287868 C18.3944302,19.1494541 18.2661438,18.8569613 18.0095692,18.2719727 L17.8769629,17.96963 C17.8435781,17.8935125 17.832862,17.8707832 17.8191782,17.8461217 C17.8054943,17.8214601 17.7915679,17.8010799 17.7735647,17.7793699 C17.7555615,17.7576599 17.73828,17.739417 17.6794974,17.6806546 M20,20 L0,0" id="Icon"></path>
            </g>
        </g>
    </g>
</svg>