<?xml version="1.0" encoding="UTF-8"?>
<svg width="24px" height="24px" viewBox="0 0 24 24" version="1.1" xmlns="http://www.w3.org/2000/svg" xmlns:xlink="http://www.w3.org/1999/xlink">
    <title>navigation-pointer-off-01</title>
    <g id="Line-icons" stroke="none" stroke-width="1" fill="none" fill-rule="evenodd" stroke-linecap="round" stroke-linejoin="round">
        <g id="Maps-&amp;-travel" transform="translate(-608, -476)" fill-rule="nonzero" stroke="#000000" stroke-width="2">
            <g id="navigation-pointer-off-01" transform="translate(610.377, 478.3906)">
                <path d="M9.67058932,3.49324696 L17.9233704,0.272649585 L17.9233704,0.272649585 C18.4605513,0.0630180528 18.7291403,-0.0417977404 18.9007683,0.0155377555 C19.0498171,0.0653302539 19.1667852,0.182298361 19.2165775,0.331347226 C19.2739134,0.502975344 19.1690979,0.771565198 18.9594669,1.30874503 L15.7295461,9.58541875 C15.6291567,9.84266681 15.3392342,9.96982583 15.0819861,9.86943636 C15.0171016,9.84411559 14.958223,9.80551806 14.9091239,9.75611755 M13.846261,14.4113361 L12.3691273,18.1964931 L12.3691273,18.1964931 C12.1369038,18.7915611 12.0207901,19.0891018 11.8538866,19.1758118 C11.709199,19.2509785 11.5369492,19.2508783 11.3923502,19.1755409 C11.2255478,19.0886345 11.1097851,18.7909613 10.8782616,18.1956139 L8.25014973,11.4376125 C8.20315361,11.3167639 8.17965508,11.2563395 8.14336205,11.2054586 C8.11119366,11.1603613 8.07175541,11.1209226 8.02665806,11.0887547 C7.97577667,11.0524611 7.91535235,11.0289631 7.79450274,10.981966 L1.03649962,8.35385418 C0.441154004,8.1223309 0.143481259,8.00656891 0.0565753029,7.8397665 C-0.0187624051,7.69516754 -0.018863733,7.52291727 0.0563038038,7.37822962 C0.143013482,7.21132505 0.440550567,7.09521294 1.03562474,6.86298895 L4.82406494,5.38457359 C4.98445874,5.3219809 5.04653802,5.31012597 5.11729751,5.30860354 C5.18805699,5.30708111 5.25440333,5.32100078 5.31858427,5.35083415 C5.38276521,5.38066751 5.4348451,5.41647339 5.55655706,5.53825277 M18.6225681,18.6095467 L0.622568608,0.609547495" id="Icon"></path>
            </g>
        </g>
    </g>
</svg>