<?xml version="1.0" encoding="UTF-8"?>
<svg width="24px" height="24px" viewBox="0 0 24 24" version="1.1" xmlns="http://www.w3.org/2000/svg" xmlns:xlink="http://www.w3.org/1999/xlink">
    <title>notification-message</title>
    <g id="Line-icons" stroke="none" stroke-width="1" fill="none" fill-rule="evenodd" stroke-linecap="round" stroke-linejoin="round">
        <g id="Alerts-&amp;-feedback" transform="translate(-880, -196)" fill-rule="nonzero" stroke="#000000" stroke-width="2">
            <g id="Icon" transform="translate(883, 199)">
                <path d="M17.1213207,0.878679454 C18.2928932,2.05025214 18.2928932,3.94974756 17.1213207,5.12132025 C15.9497483,6.29289293 14.0502517,6.29289293 12.8786793,5.12132025 C11.7071068,3.94974756 11.7071068,2.05025214 12.8786793,0.878679454 C14.0502517,-0.292893231 15.9497483,-0.292893231 17.1213207,0.878679454 Z"></path>
                <path d="M6.14118612,1 L4.80000019,1 L4.80000019,1 C3.11984253,1 2.2797637,1 1.6380285,1.32698047 C1.07354224,1.61460057 0.614600539,2.07354236 0.326980442,2.63802862 C0,3.27976382 0,4.11984253 0,5.80000067 L0,11 C0,11.9299717 0,12.3949575 0.10222251,12.7764568 C0.379623927,13.8117332 1.18826675,14.6203756 2.22354293,14.8977776 C2.60504246,15 3.07002831,15 4,15 L4,17.3355007 C4,17.868351 4,18.1347752 4.10922861,18.2716141 C4.20422268,18.3906193 4.34826946,18.4596882 4.50053978,18.4596882 C4.67562723,18.4594975 4.88367033,18.2930641 5.29975653,17.9601955 L7.68521309,16.0518303 C8.17251682,15.6619873 8.41616917,15.4670649 8.68748665,15.3284521 C8.92819881,15.2054758 9.18442726,15.1155958 9.44921494,15.0612526 C9.74766827,15 10.0596952,15 10.6837492,15 L12.1999998,15 C13.8801575,15 14.7202368,15 15.3619719,14.6730194 C15.9264574,14.3853998 16.3853989,13.9264574 16.6730194,13.3619719 C17,12.7202368 17,11.8801575 17,10.1999998 C17,10.0719421 16.9491293,9.94912927 16.8585788,9.85857878"></path>
            </g>
        </g>
    </g>
</svg>