<?xml version="1.0" encoding="UTF-8"?>
<svg width="24px" height="24px" viewBox="0 0 24 24" version="1.1" xmlns="http://www.w3.org/2000/svg" xmlns:xlink="http://www.w3.org/1999/xlink">
    <title>notification-box</title>
    <g id="Line-icons" stroke="none" stroke-width="1" fill="none" fill-rule="evenodd" stroke-linecap="round" stroke-linejoin="round">
        <g id="Alerts-&amp;-feedback" transform="translate(-880, -156)" fill-rule="nonzero" stroke="#000000" stroke-width="2">
            <g id="Icon" transform="translate(883, 159)">
                <path d="M17.1213207,0.878679454 C18.2928932,2.05025214 18.2928932,3.94974756 17.1213207,5.12132025 C15.9497483,6.29289293 14.0502517,6.29289293 12.8786793,5.12132025 C11.7071068,3.94974756 11.7071068,2.05025214 12.8786793,0.878679454 C14.0502517,-0.292893231 15.9497483,-0.292893231 17.1213207,0.878679454 Z"></path>
                <path d="M6.14118612,1 L4.80000019,1 L4.80000019,1 C3.11984253,1 2.2797637,1 1.6380285,1.32698047 C1.07354224,1.61460057 0.614600539,2.07354236 0.326980442,2.63802862 C0,3.27976382 0,4.11984229 0,5.79999971 L0,13.1999998 C0,14.8801575 0,15.7202377 0.326980442,16.3619728 C0.614600539,16.9264584 1.07354224,17.3853989 1.6380285,17.6730194 C2.2797637,18 3.11984229,18 4.79999971,18 L12.1999998,18 C13.8801575,18 14.7202368,18 15.3619719,17.6730194 C15.9264574,17.3853989 16.3853989,16.9264584 16.6730194,16.3619728 C17,15.7202377 17,14.8801575 17,13.1999998 L17,11.8588139 C17,11.0841896 16.9719521,10.816233 16.9035038,10.5192453 C16.8350555,10.2222576 16.7262068,9.95947351 16.564605,9.70107124 C16.4030033,9.44266898 16.2333622,9.23336221 15.6856201,8.6856201"></path>
            </g>
        </g>
    </g>
</svg>