<?xml version="1.0" encoding="UTF-8"?>
<svg width="24px" height="24px" viewBox="0 0 24 24" version="1.1" xmlns="http://www.w3.org/2000/svg" xmlns:xlink="http://www.w3.org/1999/xlink">
    <title>package-search</title>
    <g id="Line-icons" stroke="none" stroke-width="1" fill="none" fill-rule="evenodd" stroke-linecap="round" stroke-linejoin="round">
        <g id="Development" transform="translate(-608, -556)" fill-rule="nonzero" stroke="#000000" stroke-width="2">
            <g id="Icon" transform="translate(611, 558.144)">
                <path d="M16,18.856041 C17.6568542,18.856041 19,17.5128951 19,15.856041 C19,14.1991866 17.6568542,12.856041 16,12.856041 C14.3431456,12.856041 13,14.1991866 13,15.856041 C13,17.5128951 14.3431456,18.856041 16,18.856041 Z"></path>
                <path d="M17.4999676,5.13379002 L8.99996948,9.85601139 L0.499967337,5.13379002 M9,19.356041 L8.99996948,9.85601139 M18,9.29164695 L18,5.79748678 L18,5.79748678 C18,5.45484352 18,5.28352213 17.9495163,5.13072395 C17.9048538,4.99554729 17.8318443,4.87146521 17.7353687,4.76677561 C17.6263161,4.64843845 17.4765549,4.56523705 17.1770306,4.39883471 L9.77703094,0.28772375 C9.49342632,0.130165786 9.35162449,0.0513868127 9.20145321,0.0205014739 C9.06854343,-0.00683382712 8.93146038,-0.00683382712 8.79855061,0.0205014888 C8.64838123,0.0513865296 8.50657082,0.130169123 8.22297192,0.287724316 L0.822971165,4.39883709 C0.523449481,4.56523895 0.373684943,4.64844084 0.264633089,4.76677752 C0.168157607,4.87146711 0.0951472595,4.9955492 0.0504847839,5.13072586 C0,5.28352404 0,5.45484543 0,5.79748821 L0,13.9145956 C0,14.2572384 0,14.4285603 0.0504848026,14.5813589 C0.0951472968,14.7165356 0.168157667,14.8406172 0.264633179,14.9453068 C0.373683721,15.0636425 0.523457468,15.1468515 0.822972178,15.3132477 L8.22297287,19.4243584 C8.50657749,19.5819168 8.64837933,19.660696 8.79855061,19.6915798 C8.93146038,19.7189159 9.06854343,19.7189159 9.20145321,19.6915798 C9.35162449,19.660696 9.49342632,19.5819168 9.77703094,19.4243584 L9.77703094,19.4243584 C9.83969264,19.389546 9.88822831,19.3607852 9.93024085,19.3318322 C9.9722534,19.3028792 10.0077428,19.2737339 10.044312,19.2381527 C10.0808812,19.2025714 10.1185302,19.1605542 10.1648618,19.1058571 M13.5,7.35604 L4.5,2.35604095 M19,19.356041 L18,18.356041"></path>
            </g>
        </g>
    </g>
</svg>