<?xml version="1.0" encoding="UTF-8"?>
<svg width="24px" height="24px" viewBox="0 0 24 24" version="1.1" xmlns="http://www.w3.org/2000/svg" xmlns:xlink="http://www.w3.org/1999/xlink">
    <title>package</title>
    <g id="Line-icons" stroke="none" stroke-width="1" fill="none" fill-rule="evenodd" stroke-linecap="round" stroke-linejoin="round">
        <g id="Development" transform="translate(-608, -396)" fill-rule="nonzero" stroke="#000000" stroke-width="2">
            <g id="package" transform="translate(611, 398.144)">
                <g id="Icon">
                    <path d="M8.22297192,0.287724316 C8.50657684,0.130165994 8.64837962,0.0513868332 8.79855061,0.020501487 C8.93146057,-0.00683382526 9.06854324,-0.00683382899 9.20145321,0.0205014721 C9.35162419,0.0513868071 9.49342665,0.1301658 9.77703094,0.28772375 L17.1770306,4.39883471 C17.476555,4.56523716 17.6263165,4.64843848 17.7353687,4.76677561 C17.8318442,4.87146515 17.9048538,4.99554747 17.9495163,5.13072395 C18,5.28352238 18,5.45484373 18,5.79748678 L18,13.9145956 C18,14.2572385 18,14.4285605 17.9495163,14.5813589 C17.9048538,14.7165354 17.8318442,14.8406172 17.7353687,14.9453068 C17.6263165,15.0636439 17.4765545,15.1468455 17.1770306,15.3132477 L9.77702999,19.4243584 C9.49342585,19.5819162 9.35162415,19.6606945 9.20145321,19.6915798 C9.06854327,19.7189151 8.93146054,19.7189151 8.79855061,19.6915798 C8.64837965,19.6606945 8.50657719,19.5819163 8.22297287,19.4243584 L0.822972178,15.3132477 C0.523447722,15.1468452 0.373685472,15.0636439 0.264633179,14.9453068 C0.168157659,14.8406172 0.0951472968,14.7165354 0.0504848026,14.5813589 C0,14.4285605 0,14.2572387 0,13.9145956 L0,5.79748821 C0,5.45484534 0,5.28352427 0.0504847839,5.13072586 C0.0951472595,4.99554938 0.168157607,4.87146706 0.264633089,4.76677752 C0.373685345,4.64844039 0.523447275,4.56523928 0.822971165,4.39883709 L8.22297192,0.287724316 Z"></path>
                    <path d="M17.4999676,5.13379002 L8.99996948,9.85601139 L0.499967337,5.13379002 M8.99996948,9.85601139 L9,19.356041"></path>
                </g>
                <line x1="4.5" y1="2.35604095" x2="13.500001" y2="7.35604" id="Icon"></line>
            </g>
        </g>
    </g>
</svg>