<?xml version="1.0" encoding="UTF-8"?>
<svg width="24px" height="24px" viewBox="0 0 24 24" version="1.1" xmlns="http://www.w3.org/2000/svg" xmlns:xlink="http://www.w3.org/1999/xlink">
    <title>package-x</title>
    <g id="Line-icons" stroke="none" stroke-width="1" fill="none" fill-rule="evenodd" stroke-linecap="round" stroke-linejoin="round">
        <g id="Development" transform="translate(-608, -596)" fill-rule="nonzero" stroke="#000000" stroke-width="2">
            <g id="package-x" transform="translate(611, 598.144)">
                <path d="M17.4999676,5.13379002 L8.99996948,9.85601139 L0.499967337,5.13379002 M9,19.356041 L8.99996948,9.85601139 M18,9.77382067 L18,5.79748726 L18,5.79748726 C18,5.454844 18,5.28352213 17.9495163,5.13072395 C17.9048538,4.99554729 17.8318443,4.87146521 17.7353687,4.76677561 C17.6263161,4.64843845 17.4765549,4.56523705 17.1770306,4.39883471 L9.77703094,0.28772375 C9.49342632,0.130165786 9.35162449,0.0513868127 9.20145321,0.0205014739 C9.06854343,-0.00683382712 8.93146038,-0.00683382712 8.79855061,0.0205014888 C8.64838123,0.0513865296 8.50657082,0.130169123 8.22297192,0.287724316 L0.822971165,4.39883709 C0.523449481,4.56523895 0.373684943,4.64844084 0.264633089,4.76677752 C0.168157607,4.87146711 0.0951472595,4.9955492 0.0504847839,5.13072586 C0,5.28352404 0,5.45484543 0,5.79748821 L0,13.9145956 C0,14.2572384 0,14.4285603 0.0504848026,14.5813589 C0.0951472968,14.7165356 0.168157667,14.8406172 0.264633179,14.9453068 C0.373683721,15.0636425 0.523457468,15.1468515 0.822972178,15.3132477 L8.22297287,19.4243584 C8.50657749,19.5819168 8.64837933,19.660696 8.79855061,19.6915798 C8.93146038,19.7189159 9.06854343,19.7189159 9.20145321,19.6915798 C9.35162449,19.660696 9.49342632,19.5819168 9.77703094,19.4243584 L9.77703094,19.4243584 C9.84231523,19.388089 9.89114874,19.3596666 9.93277685,19.3317046 C9.97440495,19.3037427 10.0088276,19.2762413 10.0452903,19.2418139 C10.0817529,19.2073865 10.1202555,19.1660332 10.1700435,19.1103676 M13.5,7.35604 L4.5,2.35604095 M18.5,18.856041 L13.5,13.856041 M18.5,13.856041 L13.5,18.856041" id="Icon"></path>
            </g>
        </g>
    </g>
</svg>