<?xml version="1.0" encoding="UTF-8"?>
<svg width="24px" height="24px" viewBox="0 0 24 24" version="1.1" xmlns="http://www.w3.org/2000/svg" xmlns:xlink="http://www.w3.org/1999/xlink">
    <title>paint-pour</title>
    <g id="Line-icons" stroke="none" stroke-width="1" fill="none" fill-rule="evenodd" stroke-linecap="round" stroke-linejoin="round">
        <g id="Editor" transform="translate(-608, -436)" fill-rule="nonzero" stroke="#000000" stroke-width="2">
            <g id="Icon" transform="translate(609.8281, 438)">
                <path d="M20.1715736,14 C20.1715736,15.1045696 19.2761432,16 18.1715736,16 C17.0670041,16 16.1715736,15.1045696 16.1715736,14 C16.1715736,13.2636203 16.8382403,12.2636203 18.1715736,11 C19.504907,12.2636203 20.1715736,13.2636203 20.1715736,14 Z"></path>
                <path d="M1.43431211,11.2627392 C0.642279923,10.470707 0.246263787,10.0746913 0.0978869498,9.61803436 C-0.0326289833,9.21634758 -0.0326289833,8.78365242 0.0978869498,8.38196564 C0.246263787,7.92530867 0.642280877,7.52929205 1.43431497,6.73725796 L7.17157269,1 L14.0402031,7.86862993 C14.4362195,8.26464635 14.6342276,8.46265434 14.708416,8.69098282 C14.773674,8.89182621 14.773674,9.10817379 14.708416,9.30901718 C14.6342276,9.53734566 14.4362191,9.73535359 14.0402021,10.1313705 L9.43431187,14.7372608 C8.64227968,15.529293 8.24626401,15.9253098 7.78960705,16.0736866 C7.38792026,16.2042025 6.95522559,16.2042025 6.5535388,16.0736866 C6.09688184,15.9253098 5.70086473,15.529292 4.90883064,14.737258 L1.43431211,11.2627392 Z"></path>
                <path d="M0.171572879,9 L14.1715736,9 M6.17157269,0 L8.17157269,2 M12.1715727,20 L0.171572879,20"></path>
            </g>
        </g>
    </g>
</svg>