<?xml version="1.0" encoding="UTF-8"?>
<svg width="24px" height="24px" viewBox="0 0 24 24" version="1.1" xmlns="http://www.w3.org/2000/svg" xmlns:xlink="http://www.w3.org/1999/xlink">
    <title>paint</title>
    <g id="Line-icons" stroke="none" stroke-width="1" fill="none" fill-rule="evenodd" stroke-linecap="round" stroke-linejoin="round">
        <g id="Editor" transform="translate(-608, -396)" fill-rule="nonzero" stroke="#000000" stroke-width="2">
            <g id="Icon" transform="translate(610.7422, 398)">
                <path d="M8.7573595,1 L17.6259899,9.86862946 C18.0220063,10.2646459 18.2200144,10.4626543 18.2942028,10.6909828 C18.3594608,10.8918262 18.3594608,11.1081738 18.2942028,11.3090172 C18.2200144,11.5373457 18.022005,11.7353536 17.625988,12.1313705 L12.1514683,17.6058903 C10.9634198,18.7939388 10.3693956,19.3879637 9.6844101,19.6105289 C9.08187991,19.8063028 8.43283862,19.8063028 7.83030844,19.6105289 C7.14532298,19.3879637 6.55129778,18.7939392 5.36324692,17.6058884 L2.15146828,14.3941088 C0.963419795,13.2060603 0.369395673,12.612036 0.146830425,11.9270506 C-0.0489434749,11.3245204 -0.0489434749,10.6754796 0.146830425,10.0729494 C0.369395673,9.38796395 0.963420987,8.79393828 2.15147185,7.60588741 L8.7573595,1 Z"></path>
                <path d="M17.2573586,11 L0.257359296,11 M9.2573595,1.5 L7.7573595,0"></path>
            </g>
        </g>
    </g>
</svg>