<?xml version="1.0" encoding="UTF-8"?>
<svg width="24px" height="24px" viewBox="0 0 24 24" version="1.1" xmlns="http://www.w3.org/2000/svg" xmlns:xlink="http://www.w3.org/1999/xlink">
    <title>palette</title>
    <g id="Line-icons" stroke="none" stroke-width="1" fill="none" fill-rule="evenodd" stroke-linecap="round" stroke-linejoin="round">
        <g id="Editor" transform="translate(-608, -476)" fill-rule="nonzero" stroke="#000000" stroke-width="2">
            <g id="Icon" transform="translate(610, 478)">
                <path d="M0,10 C0,15.5228481 4.47715235,20 10,20 C11.6568546,20 13,18.6568546 13,17 L13,16.5 C13,16.0355797 13,15.8033695 13.0256653,15.6084213 C13.2028961,14.2622204 14.2622204,13.2028961 15.6084213,13.0256653 C15.8033695,13 16.0355797,13 16.5,13 L17,13 C18.6568546,13 20,11.6568546 20,10 C20,4.47715235 15.5228481,0 10,0 C4.47715235,0 0,4.47715235 0,10 Z"></path>
                <path d="M5,11 C5.55228472,11 6,10.5522847 6,10 C6,9.44771522 5.55228472,9 5,9 C4.44771522,9 4,9.44771522 4,10 C4,10.5522847 4.44771522,11 5,11 Z"></path>
                <path d="M14,7 C14.5522847,7 15,6.55228472 15,6 C15,5.44771522 14.5522847,5 14,5 C13.4477152,5 13,5.44771522 13,6 C13,6.55228472 13.4477152,7 14,7 Z"></path>
                <path d="M8,6 C8.55228472,6 9,5.55228472 9,5 C9,4.44771522 8.55228472,4 8,4 C7.44771522,4 7,4.44771522 7,5 C7,5.55228472 7.44771522,6 8,6 Z"></path>
            </g>
        </g>
    </g>
</svg>