<?xml version="1.0" encoding="UTF-8"?>
<svg width="24px" height="24px" viewBox="0 0 24 24" version="1.1" xmlns="http://www.w3.org/2000/svg" xmlns:xlink="http://www.w3.org/1999/xlink">
    <title>pen-tool-01</title>
    <g id="Line-icons" stroke="none" stroke-width="1" fill="none" fill-rule="evenodd" stroke-linecap="round" stroke-linejoin="round">
        <g id="Editor" transform="translate(-608, -596)" fill-rule="nonzero" stroke="#000000" stroke-width="2">
            <g id="Icon" transform="translate(610, 598)">
                <path d="M11.1313715,18.1313705 C10.7353541,17.7353532 10.5373451,17.5373457 10.4631567,17.3090172 C10.3978987,17.1081738 10.3978987,16.8918262 10.4631567,16.6909828 C10.5373451,16.4626543 10.7353536,16.2646464 11.1313705,15.8686295 L15.8686304,11.1313696 C16.2646466,10.7353534 16.4626543,10.5373451 16.6909828,10.4631567 C16.8918262,10.3978987 17.1081738,10.3978987 17.3090172,10.4631567 C17.5373457,10.5373451 17.7353536,10.7353536 18.1313705,11.1313705 L18.8686295,11.8686285 C19.2646468,12.2646459 19.4626539,12.4626543 19.5368423,12.6909828 C19.6021003,12.8918262 19.6021003,13.1081738 19.5368423,13.3090172 C19.4626539,13.5373457 19.2646464,13.7353536 18.8686295,14.1313705 L14.1313696,18.8686295 C13.7353534,19.2646457 13.5373457,19.4626539 13.3090172,19.5368423 C13.1081738,19.6021003 12.8918262,19.6021003 12.6909828,19.5368423 C12.4626543,19.4626539 12.2646464,19.2646464 11.8686295,18.8686295 L11.1313715,18.1313705 Z"></path>
                <line x1="0" y1="0" x2="7.58600044" y2="7.58600044"></line>
                <path d="M9,11 C10.1045694,11 11,10.1045694 11,9 C11,7.89543045 10.1045694,7 9,7 C7.89543045,7 7,7.89543045 7,9 C7,10.1045694 7.89543045,11 9,11 Z"></path>
                <path d="M16,11 L14.7003641,4.50182199 C14.6277657,4.13882589 14.591466,3.95732808 14.5031977,3.80952549 C14.4251614,3.67885733 14.3183298,3.56772542 14.1908417,3.48459673 C14.0466356,3.39056706 13.8667107,3.34713697 13.5068598,3.26027656 L0,0 L3.26027656,13.5068598 C3.34713697,13.8667107 3.39056706,14.0466356 3.48459673,14.1908417 C3.56772542,14.3183298 3.67885733,14.4251614 3.80952549,14.5031977 C3.95732808,14.591466 4.13882637,14.6277657 4.50182247,14.7003641 L11,16"></path>
            </g>
        </g>
    </g>
</svg>