<?xml version="1.0" encoding="UTF-8"?>
<svg width="24px" height="24px" viewBox="0 0 24 24" version="1.1" xmlns="http://www.w3.org/2000/svg" xmlns:xlink="http://www.w3.org/1999/xlink">
    <title>pen-tool-plus</title>
    <g id="Line-icons" stroke="none" stroke-width="1" fill="none" fill-rule="evenodd" stroke-linecap="round" stroke-linejoin="round">
        <g id="Editor" transform="translate(-608, -716)" fill-rule="nonzero" stroke="#000000" stroke-width="2">
            <g id="Icon" transform="translate(610, 718)">
                <path d="M19.1313725,8.86862755 C18.735355,9.26464516 18.5373457,9.46265485 18.3090172,9.5368433 C18.1081738,9.6021013 17.8918262,9.60210126 17.6909828,9.5368433 C17.4626543,9.4626549 17.2646464,9.26464638 16.8686295,8.86862946 L13.1313715,5.13137102 C12.7353543,4.73535389 12.5373451,4.53734566 12.4631567,4.30901718 C12.3978987,4.10817377 12.3978987,3.89182647 12.4631567,3.69098306 C12.5373451,3.46265458 12.7353537,3.26464608 13.1313705,2.86862922 L13.8686285,2.1313715 C14.2646459,1.73535413 14.4626544,1.53734548 14.6909828,1.46315706 C14.8918262,1.39789908 15.1081738,1.39789909 15.3090172,1.46315706 C15.5373457,1.53734546 15.7353536,1.73535392 16.1313705,2.13137078 L19.8686295,5.8686285 C20.2646466,6.26464564 20.4626539,6.46265437 20.5368423,6.69098282 C20.6021003,6.89182618 20.6021003,7.10817333 20.5368423,7.3090167 C20.462654,7.53734517 20.2646462,7.73535368 19.8686295,8.13137054 L19.1313725,8.86862755 Z"></path>
                <line x1="2" y1="20" x2="8.58600044" y2="13.4139404"></line>
                <path d="M12,12 C12,10.8954306 11.1045694,10 10,10 C8.89543045,10 8,10.8954306 8,12 C8,13.1045696 8.89543045,14 10,14 C11.1045694,14 12,13.1045696 12,12 Z"></path>
                <path d="M13,5 L6.83446789,6.76158047 C6.52956104,6.84869671 6.37710762,6.89225519 6.25117111,6.97413588 C6.13969135,7.04661739 6.04378629,7.14060426 5.96906757,7.25059748 C5.88466001,7.37485433 5.83803177,7.52639675 5.74477482,7.8294816 L2,20 L14.1705189,16.2552261 C14.4735956,16.1619701 14.6251478,16.1153402 14.749402,16.0309334 C14.859396,15.9562149 14.9533825,15.8603086 15.0258646,15.7488289 C15.1077452,15.6228924 15.1513033,15.470439 15.2384195,15.1655321 L17,9 M3,0 L3,6 M0,3 L6,3"></path>
            </g>
        </g>
    </g>
</svg>