<?xml version="1.0" encoding="UTF-8"?>
<svg width="24px" height="24px" viewBox="0 0 24 24" version="1.1" xmlns="http://www.w3.org/2000/svg" xmlns:xlink="http://www.w3.org/1999/xlink">
    <title>pen-tool-minus</title>
    <g id="Line-icons" stroke="none" stroke-width="1" fill="none" fill-rule="evenodd" stroke-linecap="round" stroke-linejoin="round">
        <g id="Editor" transform="translate(-608, -676)" fill-rule="nonzero" stroke="#000000" stroke-width="2">
            <g id="Icon" transform="translate(610, 679.4142)">
                <path d="M19.1313725,7.45441437 C18.735355,7.85043198 18.5373457,8.04844072 18.3090172,8.12262917 C18.1081738,8.18788716 17.8918262,8.18788712 17.6909828,8.12262917 C17.4626543,8.04844076 17.2646464,7.85043272 16.8686295,7.4544158 L13.1313715,3.7171576 C12.7353543,3.32114047 12.5373451,3.12313201 12.4631567,2.89480352 C12.3978987,2.69396012 12.3978987,2.47761281 12.4631567,2.2767694 C12.5373451,2.04844092 12.7353537,1.85043254 13.1313705,1.45441568 L13.8686285,0.71715796 C14.2646459,0.321140587 14.4626544,0.123131901 14.6909828,0.0489434823 C14.8918262,-0.0163144916 15.1081738,-0.0163144991 15.3090172,0.0489434674 C15.5373457,0.123131871 15.7353536,0.321140319 16.1313705,0.717157185 L19.8686295,4.45441484 C20.2646466,4.85043198 20.4626539,5.04844071 20.5368423,5.27676916 C20.6021003,5.47761253 20.6021003,5.69395967 20.5368423,5.89480305 C20.462654,6.12313151 20.2646462,6.32114002 19.8686295,6.71715689 L19.1313725,7.45441437 Z"></path>
                <line x1="2" y1="18.5857868" x2="8.58600044" y2="11.9997272"></line>
                <path d="M12,10.5857868 C12,9.48121738 11.1045694,8.58578677 10,8.58578682 C8.89543045,8.58578687 8,9.48121738 8,10.5857868 C8,11.6903564 8.89543045,12.5857869 10,12.5857868 C11.1045694,12.5857868 12,11.6903564 12,10.5857868 Z"></path>
                <path d="M6,1.58578646 L0,1.58578646 M13,3.58578658 L6.83446789,5.34736729 C6.52956104,5.43448353 6.37710762,5.47804153 6.25117111,5.55992222 C6.13969135,5.63240373 6.04378629,5.7263906 5.96906757,5.83638382 C5.88466001,5.96064067 5.83803177,6.11218309 5.74477482,6.41526794 L2,18.5857868 L14.1705189,14.841012 C14.4735956,14.747756 14.6251478,14.7011261 14.749402,14.6167192 C14.859396,14.5420008 14.9533825,14.4460955 15.0258646,14.3346157 C15.1077452,14.2086792 15.1513033,14.0562258 15.2384195,13.7513189 L17,7.58578634"></path>
            </g>
        </g>
    </g>
</svg>