<?xml version="1.0" encoding="UTF-8"?>
<svg width="24px" height="24px" viewBox="0 0 24 24" version="1.1" xmlns="http://www.w3.org/2000/svg" xmlns:xlink="http://www.w3.org/1999/xlink">
    <title>pen-tool-02</title>
    <g id="Line-icons" stroke="none" stroke-width="1" fill="none" fill-rule="evenodd" stroke-linecap="round" stroke-linejoin="round">
        <g id="Editor" transform="translate(-608, -636)" fill-rule="nonzero" stroke="#000000" stroke-width="2">
            <g id="Icon" transform="translate(610, 638.4142)">
                <path d="M18.1313725,8.45441437 C17.735355,8.85043198 17.5373457,9.04844072 17.3090172,9.12262917 C17.1081738,9.18788716 16.8918262,9.18788712 16.6909828,9.12262917 C16.4626543,9.04844076 16.2646455,8.85043231 15.8686285,8.45441532 L11.1313696,3.71715641 C10.7353534,3.3211402 10.5373451,3.12313199 10.4631567,2.89480352 C10.3978987,2.69396015 10.3978987,2.47761303 10.4631567,2.27676964 C10.5373451,2.04844116 10.7353537,1.85043272 11.1313705,1.4544158 L11.8686275,0.71715802 C12.2646449,0.321140647 12.4626534,0.123131935 12.6909819,0.048943501 C12.8918253,-0.0163144879 13.1081728,-0.0163144991 13.3090162,0.04894346 C13.5373447,0.123131864 13.7353536,0.321140319 14.1313705,0.717157245 L18.8686295,5.45441675 C19.2646454,5.85043269 19.4626539,6.04844071 19.5368423,6.27676916 C19.6021003,6.47761253 19.6021003,6.69395967 19.5368423,6.89480305 C19.462654,7.12313151 19.2646462,7.32114002 18.8686295,7.71715689 L18.1313725,8.45441437 Z"></path>
                <line x1="0" y1="19.5857868" x2="7.58599997" y2="11.9997864"></line>
                <path d="M11,10.5857868 C11,9.48121738 10.1045685,8.58578677 9,8.58578682 C7.89542949,8.58578687 7,9.48121738 7,10.5857868 C7,11.6903564 7.89543045,12.5857869 9,12.5857868 C10.1045694,12.5857868 11,11.6903564 11,10.5857868 Z"></path>
                <path d="M11,3.5857861 L4.50182152,4.88542175 C4.13882542,4.95802093 3.95732737,4.99432063 3.80952477,5.08258915 C3.67885661,5.16062462 3.5677247,5.26745629 3.48459601,5.39494467 C3.39056659,5.5391506 3.34713554,5.71907711 3.26027584,6.07892609 L0,19.5857868 L13.5068598,16.32551 C13.8667107,16.2386503 14.0466356,16.19522 14.1908417,16.1011906 C14.3183298,16.0180616 14.4251614,15.9069281 14.5031967,15.7762604 C14.591466,15.628458 14.6277657,15.4469595 14.7003641,15.0839634 L16,8.58578587"></path>
            </g>
        </g>
    </g>
</svg>