<?xml version="1.0" encoding="UTF-8"?>
<svg width="24px" height="24px" viewBox="0 0 24 24" version="1.1" xmlns="http://www.w3.org/2000/svg" xmlns:xlink="http://www.w3.org/1999/xlink">
    <title>pencil-01</title>
    <g id="Line-icons" stroke="none" stroke-width="1" fill="none" fill-rule="evenodd" stroke-linecap="round" stroke-linejoin="round">
        <g id="Editor" transform="translate(-608, -756)" fill-rule="nonzero" stroke="#000000" stroke-width="2">
            <g id="Icon" transform="translate(610.5, 758.1716)">
                <path d="M2.13433218,13.7791653 C2.27084868,13.4242224 2.33910687,13.246751 2.42823458,13.0807114 C2.50740139,12.9332283 2.59877279,12.79263 2.70139194,12.660388 C2.81692279,12.5115071 2.95137593,12.3770542 3.22028208,12.1081486 L14.5000277,0.82842499 C15.6045974,-0.276142776 17.395456,-0.276141465 18.5000248,0.828427374 C19.6045951,1.93299764 19.6045942,3.72386003 18.5000229,4.82842922 L7.22027922,16.1081524 C6.95137408,16.377057 6.81692111,16.5115088 6.66804075,16.627039 C6.53579924,16.7296575 6.39520124,16.8210278 6.24771881,16.9001942 C6.08167991,16.9893214 5.90420991,17.0575799 5.5492692,17.1940956 L0,19.3284302 L2.13433218,13.7791653 Z"></path>
                <path d="M2.05812073,13.9773874 C2.20539691,13.5944694 2.27903488,13.4030101 2.40534019,13.3153114 C2.51571984,13.2386706 2.6523028,13.209686 2.7842958,13.2348919 C2.93533285,13.2637345 3.08038291,13.408785 3.37048292,13.698885 L5.62957335,15.9579754 C5.9196727,16.2480747 6.06472239,16.3931238 6.09356499,16.5441608 C6.11877086,16.6761538 6.08978582,16.812737 6.01314497,16.9231167 C5.92544631,17.049422 5.7339879,17.1230602 5.3510704,17.2703362 L0,19.3284302 L2.05812073,13.9773874 Z"></path>
            </g>
        </g>
    </g>
</svg>