<?xml version="1.0" encoding="UTF-8"?>
<svg width="24px" height="24px" viewBox="0 0 24 24" version="1.1" xmlns="http://www.w3.org/2000/svg" xmlns:xlink="http://www.w3.org/1999/xlink">
    <title>pencil-02</title>
    <g id="Line-icons" stroke="none" stroke-width="1" fill="none" fill-rule="evenodd" stroke-linecap="round" stroke-linejoin="round">
        <g id="Editor" transform="translate(-608, -796)" fill-rule="nonzero" stroke="#000000" stroke-width="2">
            <g id="Icon" transform="translate(610, 798)">
                <path d="M4.68013859,18.7235985 C4.98547733,18.6403243 5.13814636,18.5986882 5.28051519,18.5347691 C5.40692294,18.478016 5.52709065,18.4082783 5.63908195,18.326683 C5.76521403,18.2347851 5.87711091,18.1228886 6.10090399,17.8990955 L16.4343147,7.56568623 C16.6323237,7.36767724 16.731327,7.26867283 16.7684212,7.15450859 C16.8010502,7.05408689 16.8010502,6.94591311 16.7684212,6.84549141 C16.731327,6.73132717 16.6323232,6.63232321 16.4343147,6.43431473 L13.5656853,3.56568503 C13.3676771,3.36767682 13.2686728,3.2686728 13.1545086,3.23157859 C13.0540869,3.19894961 12.9459131,3.19894961 12.8454914,3.23157859 C12.7313272,3.2686728 12.6323232,3.36767705 12.4343147,3.56568551 L2.10090399,13.8990955 C1.87711069,14.1228888 1.76521412,14.234786 1.67331612,14.360918 C1.59172089,14.4729093 1.521985,14.5930766 1.4652319,14.7194843 C1.40131275,14.8618532 1.35967551,15.0145231 1.27640116,15.3198624 L0,20 L4.68013859,18.7235985 Z"></path>
                <line x1="16" y1="0" x2="20" y2="4"></line>
            </g>
        </g>
    </g>
</svg>