<?xml version="1.0" encoding="UTF-8"?>
<svg width="24px" height="24px" viewBox="0 0 24 24" version="1.1" xmlns="http://www.w3.org/2000/svg" xmlns:xlink="http://www.w3.org/1999/xlink">
    <title>pentagon</title>
    <g id="Line-icons" stroke="none" stroke-width="1" fill="none" fill-rule="evenodd" stroke-linecap="round" stroke-linejoin="round">
        <g id="Shapes" transform="translate(-608, -196)" fill-rule="nonzero" stroke="#000000" stroke-width="2">
            <g id="pentagon" transform="translate(610.1768, 198.4856)">
                <path d="M8.88376999,0.446433038 C9.22155017,0.20129402 9.39043997,0.0787245147 9.57505798,0.031364277 C9.73807548,-0.0104547665 9.90901066,-0.010454759 10.0720282,0.0313642956 C10.2566462,0.0787245519 10.4255358,0.201293781 10.7633152,0.446432263 L18.8818779,6.33836126 C19.2202907,6.58395945 19.3894975,6.70675892 19.491827,6.86790752 C19.582182,7.01019867 19.6351038,7.17302012 19.6456757,7.34124327 C19.6576486,7.53176059 19.592977,7.73057702 19.4636345,8.12821007 L16.3633423,17.6593323 C16.2341496,18.0565047 16.1695528,18.2550898 16.0479565,18.4020061 C15.9405878,18.5317321 15.8021979,18.6322446 15.6456223,18.6942196 C15.4682982,18.7644062 15.2594699,18.7644062 14.8418131,18.7644062 L4.8052702,18.7644062 C4.38761389,18.7644062 4.17878598,18.7644062 4.00146198,18.6942196 C3.8448863,18.6322446 3.70649663,18.5317321 3.59912801,18.4020061 C3.47753164,18.2550898 3.41293506,18.0565034 3.28374219,17.6593304 L0.183449194,8.12821007 C0.0541068017,7.73057735 -0.0105643942,7.5317606 0.00140851282,7.34124327 C0.0119803605,7.17302011 0.0649024621,7.01019867 0.155257449,6.86790752 C0.257586949,6.7067589 0.426793307,6.58395982 0.765206039,6.33836174 L8.88376999,0.446433038 Z" id="Icon"></path>
            </g>
        </g>
    </g>
</svg>