<?xml version="1.0" encoding="UTF-8"?>
<svg width="24px" height="24px" viewBox="0 0 24 24" version="1.1" xmlns="http://www.w3.org/2000/svg" xmlns:xlink="http://www.w3.org/1999/xlink">
    <title>percent-01</title>
    <g id="Line-icons" stroke="none" stroke-width="1" fill="none" fill-rule="evenodd" stroke-linecap="round" stroke-linejoin="round">
        <g id="General" transform="translate(-608, -1156)" fill-rule="nonzero" stroke="#000000" stroke-width="2">
            <g id="Icon" transform="translate(613, 1161)">
                <path d="M2.5,1.5 C2.5,2.05228478 2.05228478,2.5 1.5,2.5 C0.947715223,2.5 0.5,2.05228478 0.5,1.5 C0.5,0.947715223 0.947715223,0.5 1.5,0.5 C2.05228478,0.5 2.5,0.947715223 2.5,1.5 Z"></path>
                <path d="M13.5,12.5 C13.5,13.0522848 13.0522848,13.5 12.5,13.5 C11.9477152,13.5 11.5,13.0522848 11.5,12.5 C11.5,11.9477152 11.9477152,11.5 12.5,11.5 C13.0522848,11.5 13.5,11.9477152 13.5,12.5 Z"></path>
                <line x1="14" y1="0" x2="0" y2="14"></line>
            </g>
        </g>
    </g>
</svg>