<?xml version="1.0" encoding="UTF-8"?>
<svg width="24px" height="24px" viewBox="0 0 24 24" version="1.1" xmlns="http://www.w3.org/2000/svg" xmlns:xlink="http://www.w3.org/1999/xlink">
    <title>percent-02</title>
    <g id="Line-icons" stroke="none" stroke-width="1" fill="none" fill-rule="evenodd" stroke-linecap="round" stroke-linejoin="round">
        <g id="General" transform="translate(-608, -1196)" fill-rule="nonzero" stroke="#000000" stroke-width="2">
            <g id="Icon" transform="translate(613, 1201)">
                <path d="M2,4 C3.10456967,4 4,3.10456967 4,2 C4,0.895430565 3.10456967,0 2,0 C0.895430565,0 0,0.895430565 0,2 C0,3.10456967 0.895430565,4 2,4 Z"></path>
                <path d="M12,14 C13.1045697,14 14,13.1045697 14,12 C14,10.8954306 13.1045697,10 12,10 C10.8954306,10 10,10.8954306 10,12 C10,13.1045697 10.8954306,14 12,14 Z"></path>
                <line x1="14" y1="0" x2="0" y2="14"></line>
            </g>
        </g>
    </g>
</svg>