<?xml version="1.0" encoding="UTF-8"?>
<svg width="24px" height="24px" viewBox="0 0 24 24" version="1.1" xmlns="http://www.w3.org/2000/svg" xmlns:xlink="http://www.w3.org/1999/xlink">
    <title>perspective-02</title>
    <g id="Line-icons" stroke="none" stroke-width="1" fill="none" fill-rule="evenodd" stroke-linecap="round" stroke-linejoin="round">
        <g id="Editor" transform="translate(-608, -916)" fill-rule="nonzero" stroke="#000000" stroke-width="2">
            <g id="Icon" transform="translate(611, 918.5204)">
                <path d="M15.4941769,16.0364075 C16.3882987,15.8377139 16.8353607,15.7383679 17.1690712,15.4979525 C17.4634201,15.2858943 17.6945465,14.9977683 17.8377018,14.6644268 C18,14.2865095 18,13.8285429 18,12.9126101 L18,6.04651022 C18,5.1305775 18,4.67261112 17.8377018,4.29469395 C17.6945466,3.96135256 17.46342,3.67322648 17.1690712,3.46116829 C16.8353609,3.22075281 16.3882998,3.12140575 15.4941778,2.92271185 L3.89417815,0.344932675 C2.56262326,0.0490314066 1.89684594,-0.0989192128 1.37434125,0.0731730759 C0.916200399,0.224066481 0.52802667,0.535448402 0.281341732,0.949946165 C0,1.42267635 0,2.10469437 0,3.46873045 L0,15.4903851 C0,16.854421 0,17.5364385 0.281341434,18.0091686 C0.528026298,18.4236664 0.916199923,18.735049 1.37434065,18.8859425 C1.89684516,19.0580348 2.56262219,18.910084 3.89417601,18.6141834 L15.4941769,16.0364075 Z"></path>
                <path d="M13,16.4795589 L13,2.47955918 M7,17.4795589 L7,1.4795593 M0,9.47955894 L18,9.47955894"></path>
            </g>
        </g>
    </g>
</svg>