<?xml version="1.0" encoding="UTF-8"?>
<svg width="24px" height="24px" viewBox="0 0 24 24" version="1.1" xmlns="http://www.w3.org/2000/svg" xmlns:xlink="http://www.w3.org/1999/xlink">
    <title>phone-02</title>
    <g id="Line-icons" stroke="none" stroke-width="1" fill="none" fill-rule="evenodd" stroke-linecap="round" stroke-linejoin="round">
        <g id="Media-&amp;-devices" transform="translate(-336, -1196)" fill-rule="nonzero" stroke="#000000" stroke-width="2">
            <g id="Icon" transform="translate(341, 1198)">
                <path d="M0,3.20000052 C0,2.07989514 0,1.51984245 0.217986971,1.09201896 C0.409733713,0.715694815 0.715694815,0.409733713 1.09201896,0.217986971 C1.51984245,0 2.07989502,0 3.20000005,0 L10.8000002,0 C11.9201051,0 12.4801574,0 12.9079809,0.217986971 C13.2843051,0.409733713 13.5902662,0.715694815 13.7820129,1.09201896 C14,1.51984245 14,2.07989478 14,3.19999981 L14,16.7999992 C14,17.9201046 14,18.4801584 13.7820129,18.9079819 C13.5902662,19.284306 13.2843051,19.5902662 12.9079809,19.7820129 C12.4801574,20 11.9201052,20 10.8000002,20 L3.19999981,20 C2.0798949,20 1.51984245,20 1.09201896,19.7820129 C0.715694815,19.5902662 0.409733713,19.284306 0.217986971,18.9079819 C0,18.4801584 0,17.9201043 0,16.7999992 L0,3.20000052 Z"></path>
                <path d="M10,0 L10,1.39999998 C10,1.96005249 10,2.24007869 9.89100647,2.45399046 C9.79513311,2.64215255 9.64215326,2.79513311 9.45399094,2.89100647 C9.2400794,3 8.96005201,3 8.39999962,3 L5.5999999,3 C5.03994751,3 4.75992131,3 4.54600954,2.89100647 C4.35784748,2.79513311 4.2048669,2.64215255 4.10899353,2.45399046 C4,2.24007869 4,1.96005249 4,1.39999986 L4,0"></path>
            </g>
        </g>
    </g>
</svg>