<?xml version="1.0" encoding="UTF-8"?>
<svg width="24px" height="24px" viewBox="0 0 24 24" version="1.1" xmlns="http://www.w3.org/2000/svg" xmlns:xlink="http://www.w3.org/1999/xlink">
    <title>phone-call-02</title>
    <g id="Line-icons" stroke="none" stroke-width="1" fill="none" fill-rule="evenodd" stroke-linecap="round" stroke-linejoin="round">
        <g id="Communication" transform="translate(-880, -196)" fill-rule="nonzero" stroke="#000000" stroke-width="2">
            <g id="Icon" transform="translate(882, 199)">
                <path d="M14.3093929,14.7312899 C12.9607887,14.2576094 11.510478,14 10,14 C8.48952198,14 7.0392108,14.2576094 5.69060659,14.7312899 C5.64576578,14.7470393 5.62334538,14.7549143 5.58797789,14.7704983 C5.26740217,14.9117541 5.02122164,15.2591457 4.99418354,15.6084175 C4.99120045,15.6469512 4.99120045,15.6810899 4.99120045,15.7493668 C4.99120045,15.9821243 4.99120045,16.0985036 4.98152113,16.1965294 C4.88779879,17.1456881 4.13688803,17.8965979 3.1877296,17.9903202 C3.08970332,18 2.97332454,18 2.74056721,18 L2.49560022,18 C2.03504109,18 1.80476165,18 1.61320913,17.9622421 C0.817087591,17.8053131 0.194687147,17.1829128 0.0377582051,16.3867912 C0,16.1952391 0,15.9649587 0,15.5043993 L0,15.3062401 C0,14.8309612 0,14.5933213 0.0507426113,14.3209457 C0.164214566,13.711853 0.606748104,12.9582603 1.08339512,12.5624352 C1.296543,12.3854291 1.44109714,12.3047912 1.73020554,12.1435156 C4.17796803,10.7780602 6.99812126,10 10,10 C13.0018787,10 15.8220329,10.7780601 18.2697945,12.1435156 C18.5589027,12.304791 18.7034569,12.3854294 18.916605,12.5624352 C19.3932514,12.9582603 19.8357849,13.7118533 19.9492569,14.3209457 C20,14.5933213 20,14.8309612 20,15.3062401 L20,15.5043983 C20,15.9649587 20,16.1952386 19.9622421,16.3867912 C19.8053131,17.1829123 19.1829128,17.8053131 18.3867912,17.9622421 C18.1952381,18 17.9649582,18 17.5044003,18 L17.2594318,18 C17.0266743,18 16.9102955,18 16.8122692,17.9903202 C15.8631105,17.8965979 15.1121998,17.1456881 15.0184784,16.1965294 C15.0087986,16.0985036 15.0087986,15.9821243 15.0087986,15.7493668 C15.0087986,15.6810899 15.0087986,15.6469512 15.0058155,15.6084175 C14.9787779,15.2591457 14.7325974,14.9117541 14.4120216,14.7704983 C14.3766537,14.7549143 14.3542337,14.7470393 14.3093929,14.7312899 Z"></path>
                <path d="M2.85864258,3 C4.67356586,1.14863777 7.20268106,0 10.0000753,0 C12.7974701,0 15.3265867,1.14863777 17.14151,3 M14.4722576,6 C13.3736162,4.77250123 11.7770443,4 10.0000448,4 C8.22304511,4 6.62647319,4.77250123 5.52783203,6"></path>
            </g>
        </g>
    </g>
</svg>