<?xml version="1.0" encoding="UTF-8"?>
<svg width="24px" height="24px" viewBox="0 0 24 24" version="1.1" xmlns="http://www.w3.org/2000/svg" xmlns:xlink="http://www.w3.org/1999/xlink">
    <title>phone-hang-up</title>
    <g id="Line-icons" stroke="none" stroke-width="1" fill="none" fill-rule="evenodd" stroke-linecap="round" stroke-linejoin="round">
        <g id="Communication" transform="translate(-880, -236)" fill-rule="nonzero" stroke="#000000" stroke-width="2">
            <g id="phone-hang-up" transform="translate(882.9297, 238.5546)">
                <path d="M2.5457424,10.3085051 C1.51480831,8.70766176 0.746746477,6.98664857 0.241556939,5.20674897 C0.0813496975,4.64230223 0.00124622908,4.36007897 8.47554838e-06,3.94713141 C-0.00134698217,3.48890937 0.160015431,2.86841817 0.38443644,2.46891309 C0.586683985,2.10888056 0.851495337,1.84406919 1.38111867,1.31444586 L1.53875257,1.15681196 C2.07019569,0.625368845 2.33591719,0.359647449 2.62129821,0.215302583 C3.18885912,-0.0717673637 3.8591242,-0.0717676915 4.42668475,0.215302583 C4.71206577,0.359647449 4.97778697,0.625368427 5.50922908,1.15681053 L5.70409907,1.35168077 C6.0537055,1.70128719 6.22850855,1.87609025 6.34279479,2.05186773 C6.77378829,2.71475924 6.7737887,3.56933893 6.34279479,4.23222972 C6.22850863,4.40800762 6.05370597,4.5828105 5.70409955,4.93241693 C5.58978718,5.04672929 5.53263063,5.10388568 5.48478974,5.1706977 C5.31477788,5.40812716 5.25607738,5.75238697 5.33780087,6.03274013 C5.36079758,6.11163098 5.39073303,6.17398062 5.45060385,6.29867936 C5.57143461,6.55034406 5.69988385,6.79926695 5.83595265,7.04510165 M8.29696168,10.3085041 L8.29696168,10.3085041 L8.29696168,10.3085041 C9.49853994,11.5100824 10.8571818,12.4588706 12.3068007,13.1548681 C12.4314913,13.2147355 12.4938363,13.2446692 12.5727271,13.2676659 C12.8530802,13.3493893 13.1973398,13.2906886 13.4347695,13.120677 C13.5015814,13.0728359 13.5587375,13.0156796 13.6730498,12.9013672 C14.0226559,12.5517611 14.1974589,12.3769582 14.3732365,12.2626724 C15.0361279,11.8316777 15.8907082,11.8316781 16.5535993,12.2626724 C16.7293764,12.3769583 16.9041805,12.5517617 17.2537869,12.9013682 L17.4486569,13.0962372 C17.9800987,13.6276789 18.2458178,13.8933999 18.3901624,14.1787806 C18.6772331,14.7463417 18.6772332,15.4166076 18.3901624,15.984169 C18.2458178,16.2695496 17.9800974,16.5352709 17.448655,17.0667133 L17.2910203,17.2243481 C16.7613973,17.7539711 16.4965859,18.0187821 16.1365537,18.2210293 C15.7370484,18.4454505 15.1165573,18.6068137 14.6583356,18.6054573 C14.2453878,18.6042206 13.9631646,18.5241158 13.3987187,18.3639088 C10.3653227,17.5029391 7.50296153,15.8784642 5.11498154,13.4904842 C5.0901705,13.4655926 5.09020277,13.4253107 5.11505368,13.4004588 M18.0699319,0.445435833 L0.0699325395,18.4454365" id="Icon"></path>
            </g>
        </g>
    </g>
</svg>