<?xml version="1.0" encoding="UTF-8"?>
<svg width="24px" height="24px" viewBox="0 0 24 24" version="1.1" xmlns="http://www.w3.org/2000/svg" xmlns:xlink="http://www.w3.org/1999/xlink">
    <title>phone</title>
    <g id="Line-icons" stroke="none" stroke-width="1" fill="none" fill-rule="evenodd" stroke-linecap="round" stroke-linejoin="round">
        <g id="Communication" transform="translate(-608, -716)" fill-rule="nonzero" stroke="#000000" stroke-width="2">
            <g id="phone" transform="translate(610.9297, 718.5546)">
                <path d="M5.4505887,6.29866457 C6.14658725,7.74828446 7.09537494,9.10692585 8.2969532,10.3085041 C9.49853146,11.5100824 10.8571733,12.4588706 12.3067923,13.1548681 C12.4314829,13.2147355 12.4938278,13.2446692 12.5727186,13.2676659 C12.8530717,13.3493893 13.1973313,13.2906886 13.434761,13.120677 C13.5015729,13.0728359 13.558729,13.0156796 13.6730413,12.9013672 C14.0226474,12.5517611 14.1974504,12.3769582 14.3732281,12.2626724 C15.0361194,11.8316777 15.8906997,11.8316781 16.5535908,12.2626724 C16.7293679,12.3769583 16.904172,12.5517617 17.2537785,12.9013681 L17.4486465,13.0962372 C17.9800883,13.6276789 18.2458094,13.8933999 18.3901539,14.1787806 C18.6772247,14.7463416 18.6772247,15.4166076 18.3901539,15.984169 C18.2458093,16.2695496 17.9800889,16.5352709 17.4486465,17.0667133 L17.2910118,17.2243481 C16.7613888,17.7539711 16.4965774,18.0187821 16.1365452,18.2210293 C15.73704,18.4454505 15.1165488,18.6068137 14.6583271,18.6054573 C14.2453793,18.6042206 13.9631561,18.5241158 13.3987103,18.3639088 C10.3653142,17.5029391 7.50295258,15.8784642 5.11497259,13.4904842 C2.72699213,11.1025038 1.10251808,8.24014354 0.241548121,5.20674753 C0.0813410431,4.64230126 0.00123673779,4.36007771 0,3.94713116 C-0.00135512479,3.48890945 0.160006955,2.8684178 0.384427458,2.46891189 C0.586675003,2.10888001 0.851486683,1.84406841 1.38110971,1.31444538 L1.53874433,1.15681076 C2.07018673,0.625368357 2.33590785,0.359647274 2.62128854,0.21530275 C3.18885046,-0.0717675239 3.85911602,-0.0717675388 4.42667627,0.215302408 C4.71205696,0.359646931 4.97777784,0.625367641 5.5092206,1.1568104 L5.70409012,1.35167992 C6.0536972,1.701287 6.22849909,1.87608926 6.34278584,2.05186725 C6.77377951,2.71475756 6.77378023,3.56933856 6.34278488,4.23222923 C6.22849949,4.40800722 6.05369666,4.5828099 5.7040906,4.93241596 C5.58977823,5.04672833 5.53262232,5.1038844 5.48478127,5.17069626 C5.31476998,5.40812631 5.25606817,5.75238526 5.33779192,6.03273869 C5.36078926,6.11163016 5.39072231,6.17397498 5.4505887,6.29866457 Z" id="Icon"></path>
            </g>
        </g>
    </g>
</svg>