<?xml version="1.0" encoding="UTF-8"?>
<svg width="24px" height="24px" viewBox="0 0 24 24" version="1.1" xmlns="http://www.w3.org/2000/svg" xmlns:xlink="http://www.w3.org/1999/xlink">
    <title>phone-incoming-01</title>
    <g id="Line-icons" stroke="none" stroke-width="1" fill="none" fill-rule="evenodd" stroke-linecap="round" stroke-linejoin="round">
        <g id="Communication" transform="translate(-880, -276)" fill-rule="nonzero" stroke="#000000" stroke-width="2">
            <g id="Icon" transform="translate(881.9297, 279)">
                <polyline points="13.0699244 1 13.0699244 6 18.0699177 5.99999952"></polyline>
                <path d="M5.4505887,6.85322905 C6.14658725,8.30284894 7.09537494,9.66149032 8.2969532,10.8630686 C9.49853146,12.0646468 10.8571733,13.0134351 12.3067923,13.7094326 C12.4314829,13.7693 12.4938278,13.7992337 12.5727186,13.8222303 C12.8530717,13.9039538 13.1973313,13.8452521 13.434761,13.6752405 C13.5015729,13.6273995 13.558729,13.570244 13.6730413,13.4559317 C14.0226474,13.1063256 14.1974504,12.9315226 14.3732281,12.8172369 C15.0361194,12.3862422 15.8906997,12.3862416 16.5535908,12.8172359 C16.7293679,12.9315218 16.904172,13.1063252 17.2537785,13.4559317 L17.4486465,13.6508017 C17.9800883,14.1822434 18.2458094,14.4479643 18.3901539,14.733345 C18.6772247,15.3009061 18.6772247,15.9711711 18.3901539,16.5387325 C18.2458093,16.8241132 17.9800889,17.0898345 17.4486465,17.6212769 L17.2910118,17.7789116 C16.7613888,18.3085346 16.4965774,18.5733476 16.1365452,18.7755947 C15.73704,19.0000159 15.1165488,19.1613772 14.6583271,19.1600227 C14.2453793,19.1587841 13.9631561,19.0786812 13.3987103,18.9184742 C10.3653142,18.0575045 7.50295258,16.4330287 5.11497259,14.0450487 C2.72699213,11.6570683 1.10251808,8.79470801 0.241548121,5.76131201 C0.0813410431,5.19686574 0.00123673779,4.91464218 0,4.50169563 C-0.00135512479,4.04347393 0.160006955,3.42298204 0.384427458,3.02347612 C0.586675003,2.66344425 0.851486683,2.39863265 1.38110971,1.86900961 L1.53874433,1.711375 C2.07018673,1.17993259 2.33590785,0.914211586 2.62128854,0.769867063 C3.18885046,0.482796788 3.85911602,0.482796758 4.42667627,0.769866705 C4.71205696,0.914211228 4.97777784,1.17993188 5.5092206,1.71137464 L5.70409012,1.90624416 C6.0536972,2.25585124 6.22849909,2.4306535 6.34278584,2.60643148 C6.77377951,3.2693218 6.77378023,4.12390256 6.34278488,4.78679323 C6.22849949,4.96257122 6.05369666,5.13737437 5.7040906,5.48698044 C5.58977823,5.6012928 5.53262232,5.65844887 5.48478127,5.72526073 C5.31476998,5.96269079 5.25606817,6.30694973 5.33779192,6.58730316 C5.36078926,6.66619464 5.39072231,6.72853945 5.4505887,6.85322905 Z"></path>
                <line x1="19.0698967" y1="0" x2="13.0699244" y2="6"></line>
            </g>
        </g>
    </g>
</svg>