<?xml version="1.0" encoding="UTF-8"?>
<svg width="24px" height="24px" viewBox="0 0 24 24" version="1.1" xmlns="http://www.w3.org/2000/svg" xmlns:xlink="http://www.w3.org/1999/xlink">
    <title>phone-01</title>
    <g id="Line-icons" stroke="none" stroke-width="1" fill="none" fill-rule="evenodd" stroke-linecap="round" stroke-linejoin="round">
        <g id="Media-&amp;-devices" transform="translate(-336, -1156)" fill-rule="nonzero" stroke="#000000" stroke-width="2">
            <g id="Icon" transform="translate(341, 1158)">
                <path d="M0,3.20000052 C0,2.07989514 0,1.51984245 0.217986971,1.09201896 C0.409733713,0.715694815 0.715694815,0.409733713 1.09201896,0.217986971 C1.51984245,0 2.07989502,0 3.20000005,0 L10.8000002,0 C11.9201051,0 12.4801574,0 12.9079809,0.217986971 C13.2843051,0.409733713 13.5902662,0.715694815 13.7820129,1.09201896 C14,1.51984245 14,2.07989478 14,3.19999981 L14,16.7999992 C14,17.9201046 14,18.4801584 13.7820129,18.9079819 C13.5902662,19.284306 13.2843051,19.5902662 12.9079809,19.7820129 C12.4801574,20 11.9201052,20 10.8000002,20 L3.19999981,20 C2.0798949,20 1.51984245,20 1.09201896,19.7820129 C0.715694815,19.5902662 0.409733713,19.284306 0.217986971,18.9079819 C0,18.4801584 0,17.9201043 0,16.7999992 L0,3.20000052 Z"></path>
                <path d="M7.5,15.5 C7.5,15.7761424 7.27614239,16 7,16 C6.72385761,16 6.5,15.7761424 6.5,15.5 C6.5,15.2238576 6.72385761,15 7,15 C7.27614239,15 7.5,15.2238576 7.5,15.5 Z"></path>
                <line x1="7" y1="15.5" x2="7.01000023" y2="15.5"></line>
            </g>
        </g>
    </g>
</svg>