<?xml version="1.0" encoding="UTF-8"?>
<svg width="24px" height="24px" viewBox="0 0 24 24" version="1.1" xmlns="http://www.w3.org/2000/svg" xmlns:xlink="http://www.w3.org/1999/xlink">
    <title>pie-chart-04</title>
    <g id="Line-icons" stroke="none" stroke-width="1" fill="none" fill-rule="evenodd" stroke-linecap="round" stroke-linejoin="round">
        <g id="Charts" transform="translate(-880, -236)" fill-rule="nonzero" stroke="#000000" stroke-width="2">
            <g id="Icon" transform="translate(882, 238)">
                <path d="M20.0000114,10 C20.0000114,15.5228477 15.5228601,20 10.0000124,20 C4.47716475,20 0,15.5228477 0,10 C0,4.47715235 4.47716475,0 10.0000124,0 C15.5228601,0 20.0000114,4.47715235 20.0000114,10 Z"></path>
                <path d="M6.25394583,19.2718391 C3.99616122,18.3596349 2.14880741,16.6549456 1.05846965,14.4775915 C-0.0318681002,12.3002374 -0.290257603,9.79985356 0.331778139,7.44554281 L10.0000124,10 L6.25394583,19.2718391 Z"></path>
                <path d="M0.340753853,7.41180944 C0.915144503,5.26815462 2.18630171,3.37647331 3.9540205,2.03470159 C5.72173929,0.692929864 7.88557553,-0.0226907965 10.1047287,0.000548654003 L10.0000124,10 L0.340753853,7.41180944 Z"></path>
            </g>
        </g>
    </g>
</svg>