<?xml version="1.0" encoding="UTF-8"?>
<svg width="24px" height="24px" viewBox="0 0 24 24" version="1.1" xmlns="http://www.w3.org/2000/svg" xmlns:xlink="http://www.w3.org/1999/xlink">
    <title>pie-chart-02</title>
    <g id="Line-icons" stroke="none" stroke-width="1" fill="none" fill-rule="evenodd" stroke-linecap="round" stroke-linejoin="round">
        <g id="Charts" transform="translate(-880, -156)" fill-rule="nonzero" stroke="#000000" stroke-width="2">
            <g id="Icon" transform="translate(882, 158.0179)">
                <path d="M15.2000036,11.9821043 C15.477001,11.9821043 15.6154994,11.9821036 15.7277546,12.0436096 C15.8203554,12.0943467 15.9065482,12.1896208 15.9477873,12.2868242 C15.9977793,12.404659 15.9851998,12.5300391 15.9600401,12.7807989 C15.8296004,14.0808542 15.3821614,15.3335434 14.6517601,16.4266663 C13.7727088,17.7422595 12.5232799,18.7676393 11.061471,19.3731403 C9.59966207,19.9786414 7.99112904,20.1370681 6.43928099,19.8283863 C4.88743293,19.5197045 3.46196949,18.757778 2.34314942,17.638958 C1.22432935,16.5201379 0.462403104,15.0946747 0.153721347,13.5428267 C-0.154960409,11.9909786 0.00346630812,10.3824451 0.608967364,8.92063618 C1.21446842,7.45882726 2.23984861,6.20939833 3.55544186,5.33034706 C4.64856482,4.59994566 5.90125382,4.15250722 7.2013092,4.02206755 C7.45206881,3.99690785 7.57744867,3.98432838 7.69528341,4.03432035 C7.79248685,4.0755594 7.88776044,4.16175222 7.93849754,4.25435305 C8,4.36660828 8,4.50510672 8,4.78210402 L8,11.1821041 C8,11.4621305 8,11.6021439 8.05450058,11.7090998 C8.10243727,11.8031808 8.17892731,11.8796709 8.27300835,11.9276075 C8.37996422,11.9821043 8.51997775,11.9821043 8.80000401,11.9821043 L15.2000036,11.9821043 Z"></path>
                <path d="M12,0.782104254 C12,0.505100191 12,0.366598174 12.0615072,0.254344404 C12.1122435,0.161743142 12.2075125,0.0755528174 12.3047152,0.0343118422 C12.4225468,-0.0156815909 12.5479307,-0.00310487859 12.7986994,0.0220485386 C14.6271014,0.205446845 16.3460122,1.01440501 17.6568565,2.32524896 C18.9677006,3.63609266 19.7766592,5.35500324 19.9600582,7.18340492 C19.9852118,7.43417412 19.9977893,7.55955889 19.9477959,7.67739058 C19.9065549,7.77459321 19.8203654,7.86986121 19.7277641,7.92059755 C19.6155104,7.98210153 19.4770066,7.98210183 19.2000027,7.98210192 L12.800004,7.98210382 C12.5199777,7.98210391 12.3799643,7.98210379 12.2730083,7.92760706 C12.1789273,7.87967038 12.1024373,7.80318034 12.0545006,7.70909929 C12,7.6021434 12,7.46213001 12,7.18210363 L12,0.782104254 Z"></path>
            </g>
        </g>
    </g>
</svg>