<?xml version="1.0" encoding="UTF-8"?>
<svg width="24px" height="24px" viewBox="0 0 24 24" version="1.1" xmlns="http://www.w3.org/2000/svg" xmlns:xlink="http://www.w3.org/1999/xlink">
    <title>pie-chart-01</title>
    <g id="Line-icons" stroke="none" stroke-width="1" fill="none" fill-rule="evenodd" stroke-linecap="round" stroke-linejoin="round">
        <g id="Charts" transform="translate(-608, -636)" fill-rule="nonzero" stroke="#000000" stroke-width="2">
            <g id="Icon" transform="translate(610, 638.0151)">
                <path d="M19.2104034,13.8749332 C18.5742247,15.3794146 17.579187,16.7051481 16.3122807,17.7362328 C15.0453743,18.7673174 13.5451742,19.4723581 11.9428406,19.7897129 C10.3405069,20.1070677 8.68482637,20.0270749 7.12054968,19.5567284 C5.55627298,19.0863819 4.13102877,18.240003 2.96942282,17.0915871 C1.80781686,15.9431711 0.945217341,14.5276861 0.457038224,12.9688826 C-0.0311408937,11.410079 -0.130035371,9.75541985 0.169000924,8.14956665 C0.468037218,6.54371345 1.15589905,5.03556049 2.17244911,3.7569623 C3.18899918,2.47836411 4.50328553,1.46825039 6.00040388,0.814932764"></path>
                <path d="M19.2004032,9.9849329 C19.4782706,9.9849329 19.617205,9.98493246 19.7284222,9.92486 C19.8213257,9.87467937 19.9057151,9.78325356 19.9483109,9.68663692 C19.9993032,9.5709748 19.9890081,9.44257534 19.96842,9.18577576 C19.8850832,8.14629745 19.6395229,7.12456173 19.2392006,6.15809822 C18.7366536,4.94484234 18.000058,3.84245092 17.0714722,2.91386509 C16.1428863,1.98527926 15.040494,1.24868459 13.8272381,0.746137559 C12.8607746,0.345815301 11.8390398,0.100253073 10.7995615,0.0169159528 C10.542762,-0.00367219374 10.4143625,-0.0139662698 10.2987003,0.0370260812 C10.2020837,0.0796217732 10.1106569,0.16401156 10.0604763,0.256915122 C10.0004038,0.368132256 10.0004034,0.507065773 10.0004034,0.784932792 L10.0004034,9.18493271 C10.0004034,9.46495926 10.0004034,9.6049725 10.0549002,9.71192837 C10.1028369,9.8060094 10.1793279,9.88249945 10.2734089,9.93043613 C10.3803648,9.98493288 10.5203773,9.9849329 10.8004036,9.9849329 L19.2004032,9.9849329 Z"></path>
            </g>
        </g>
    </g>
</svg>