<?xml version="1.0" encoding="UTF-8"?>
<svg width="24px" height="24px" viewBox="0 0 24 24" version="1.1" xmlns="http://www.w3.org/2000/svg" xmlns:xlink="http://www.w3.org/1999/xlink">
    <title>pin-02</title>
    <g id="Line-icons" stroke="none" stroke-width="1" fill="none" fill-rule="evenodd" stroke-linecap="round" stroke-linejoin="round">
        <g id="General" transform="translate(-608, -1316)" fill-rule="nonzero" stroke="#000000" stroke-width="2">
            <g id="Icon" transform="translate(610.7199, 1318.2257)">
                <path d="M10.3828125,1.42065001 C10.694684,0.692949772 10.8506203,0.32909961 11.1026039,0.1638228 C11.3229601,0.0192905515 11.5914599,-0.0324178934 11.8497334,0.0199387036 C12.1450766,0.0798099898 12.4249895,0.359723091 12.9848156,0.919549167 L18.1279526,6.06268597 C18.6877787,6.62251204 18.9676918,6.90242547 19.0275631,7.19776869 C19.0799197,7.45604217 19.0282126,7.72454245 18.8836803,7.94489861 C18.7184035,8.19688225 18.3545535,8.35281783 17.6268539,8.66468906 L15.1324959,9.7336998 C15.0266793,9.77904978 14.9737707,9.80172432 14.9241581,9.83006763 C14.8800846,9.85524648 14.8379928,9.88374468 14.7982464,9.91531467 C14.7535046,9.95085237 14.712801,9.99155521 14.6313953,10.0729609 L13.070509,11.6338472 C12.9431848,11.7611714 12.8795224,11.8248335 12.8289366,11.8973656 C12.7840363,11.9617455 12.7468723,12.0311877 12.7182112,12.1042585 C12.6859208,12.1865821 12.6682641,12.2748654 12.6329508,12.4514322 L11.9000578,16.1158962 C11.7095972,17.068199 11.6143671,17.5443507 11.3633146,17.7671127 C11.1446038,17.9611776 10.8519126,18.0497982 10.5622864,18.0096455 C10.2298319,17.9635551 9.88647443,17.6201971 9.19975853,16.9334812 L2.11402178,9.84774399 C1.42730564,9.16102785 1.08394751,8.81767058 1.03785717,8.48521614 C0.997704394,8.19558993 1.0863241,7.90289871 1.28038895,7.68418789 C1.50315097,7.43313539 1.9793027,7.33790492 2.93160605,7.14744425 L6.59607029,6.41455126 C6.77263665,6.37923799 6.86091996,6.36158121 6.9432435,6.32929087 C7.01631436,6.30062977 7.08575658,6.2634653 7.15013647,6.21856499 C7.22266855,6.16797912 7.28633069,6.1043172 7.4136548,5.97699308 L8.97454166,4.4161067 C9.05594738,4.33470099 9.09665015,4.29399789 9.13218784,4.24925613 C9.16375783,4.20950969 9.19225604,4.1674174 9.21743488,4.12334394 C9.2457782,4.07373135 9.26845277,4.02082319 9.31380272,3.91500664 L10.3828125,1.42065001 Z"></path>
                <line x1="5.65685415" y1="13.3905993" x2="0" y2="19.0474529"></line>
            </g>
        </g>
    </g>
</svg>