<?xml version="1.0" encoding="UTF-8"?>
<svg width="24px" height="24px" viewBox="0 0 24 24" version="1.1" xmlns="http://www.w3.org/2000/svg" xmlns:xlink="http://www.w3.org/1999/xlink">
    <title>pin-01</title>
    <g id="Line-icons" stroke="none" stroke-width="1" fill="none" fill-rule="evenodd" stroke-linecap="round" stroke-linejoin="round">
        <g id="General" transform="translate(-608, -1276)" fill-rule="nonzero" stroke="#000000" stroke-width="2">
            <g id="Icon" transform="translate(613.0811, 1278)">
                <path d="M1.79706562,2.19422603 C1.5030303,1.45913774 1.35601259,1.09159368 1.41732359,0.796545982 C1.47093919,0.538530916 1.62423427,0.312109023 1.84388292,0.166503802 C2.09505749,0 2.4909144,0 3.28262806,0 L10.5561218,0 C11.3478355,0 11.7436928,0 11.9948673,0.166503802 C12.214516,0.312109023 12.3678112,0.538530916 12.4214268,0.796545982 C12.4827378,1.09159368 12.3357202,1.4591375 12.0416851,2.19422507 L11.0338125,4.71390676 C10.9910561,4.8207977 10.9696781,4.87424296 10.9546385,4.92936611 C10.941278,4.97833489 10.9316649,5.0282498 10.9258833,5.07867813 C10.919375,5.13544428 10.9193754,5.19300672 10.9193754,5.30813169 L10.9193754,7.43875027 C10.9193754,7.64676815 10.9193751,7.7507771 10.9397926,7.85026169 C10.957907,7.93852425 10.9878669,8.02393334 11.0288591,8.1041708 C11.0750633,8.19460995 11.1400375,8.27582735 11.2699852,8.43826199 L12.8397646,10.4004869 C13.5055025,11.2326593 13.8383718,11.6487458 13.8387499,11.9989204 C13.8390787,12.3034613 13.7006135,12.5915544 13.4626017,12.7815428 C13.188925,13 12.6560748,13 11.5903749,13 L2.2483747,13 C1.182675,13 0.649825126,13 0.376148462,12.7815428 C0.13813661,12.5915544 -0.000328239089,12.3034613 0,11.9989204 C0.000378680263,11.6487458 0.333247483,11.2326599 0.998985052,10.4004879 L2.56876516,8.43826294 C2.69871297,8.27582818 2.76368687,8.19460995 2.80989099,8.1041708 C2.8508832,8.02393334 2.88084333,7.93852425 2.89895773,7.85026169 C2.91937526,7.7507771 2.91937518,7.64676812 2.91937518,7.43875027 L2.91937518,5.30813217 C2.91937518,5.1930071 2.91937509,5.13544428 2.91286683,5.07867813 C2.9070852,5.0282498 2.89747263,4.97833489 2.88411212,4.92936611 C2.86907247,4.87424296 2.84769418,4.82079762 2.80493784,4.71390676 L1.79706562,2.19422603 Z"></path>
                <line x1="6.91937494" y1="13" x2="6.91937542" y2="20"></line>
            </g>
        </g>
    </g>
</svg>