<?xml version="1.0" encoding="UTF-8"?>
<svg width="24px" height="24px" viewBox="0 0 24 24" version="1.1" xmlns="http://www.w3.org/2000/svg" xmlns:xlink="http://www.w3.org/1999/xlink">
    <title>plane</title>
    <g id="Line-icons" stroke="none" stroke-width="1" fill="none" fill-rule="evenodd" stroke-linecap="round" stroke-linejoin="round">
        <g id="Maps-&amp;-travel" transform="translate(-608, -596)" fill-rule="nonzero" stroke="#000000" stroke-width="2">
            <g id="plane" transform="translate(610.2559, 598.057)">
                <path d="M15.4888554,0.75585258 C16.4536123,-0.240626156 18.0476447,-0.253516674 19.0283909,0.727229476 C19.982267,1.68110555 20.0000257,3.22207731 19.0683823,4.19767952 L16.2897243,7.10744476 C16.0719286,7.33551699 15.9630312,7.44955276 15.8959236,7.58311272 C15.8365169,7.70134606 15.8011656,7.83019389 15.7919178,7.9621892 C15.7814712,8.11129507 15.8169267,8.2649368 15.8878384,8.5722208 L17.6157341,16.0597706 C17.6885218,16.3751841 17.7249158,16.5328904 17.7131672,16.6854458 C17.7027688,16.8204684 17.6650542,16.9519733 17.6023102,17.0719833 C17.5314188,17.2075768 17.416973,17.3220236 17.1880798,17.5509167 L16.8173084,17.9216862 C16.2111638,18.5278308 15.908091,18.8309036 15.5978994,18.8857689 C15.3270391,18.9336775 15.0484046,18.8679016 14.8275652,18.7039185 C14.5746579,18.5161235 14.4391202,18.1095081 14.1680441,17.2962799 L12.1582842,11.2670021 L8.81296253,14.6123247 C8.6132763,14.8120109 8.51343315,14.9118537 8.44664478,15.0294323 C8.38747684,15.1335954 8.34750586,15.2475422 8.32863808,15.3658419 C8.30734025,15.4993777 8.32293352,15.6397143 8.3541193,15.9203863 L8.53782845,17.5737743 C8.56901419,17.8544461 8.5846075,17.994781 8.56330967,18.1283169 C8.54444188,18.2466165 8.5044709,18.3605643 8.44530296,18.4647274 C8.3785146,18.582306 8.27867152,18.6821477 8.07898521,18.881834 L7.88148117,19.07934 C7.40842173,19.5523994 7.17189154,19.7889282 6.90904284,19.8574295 C6.67849638,19.9175125 6.43407328,19.8933109 6.21978712,19.7891808 C5.97547697,19.6704608 5.78992766,19.3921354 5.41882896,18.8354874 L3.85050726,16.4830055 C3.78420654,16.3835544 3.75105627,16.3338297 3.71257067,16.2887306 C3.67838349,16.2486686 3.64108469,16.2113684 3.60102272,16.1771812 C3.55592367,16.1386956 3.50619821,16.1055465 3.40674686,16.0392456 L1.05426395,14.4709234 C0.497616291,14.099825 0.219292484,13.9142759 0.100572512,13.6699657 C-0.00355761498,13.4556796 -0.0277602822,13.2112565 0.0323227346,12.98071 C0.10082408,12.7178613 0.337353796,12.4813316 0.810413182,12.0082722 L1.007918,11.8107672 C1.20760426,11.6110809 1.30744743,11.5112378 1.42502606,11.4444494 C1.52918918,11.3852815 1.64313609,11.3453105 1.76143575,11.3264427 C1.89497159,11.3051449 2.03530774,11.3207382 2.31597972,11.3519239 L3.96936703,11.535634 C4.25003877,11.5668198 4.39037468,11.5824121 4.52391052,11.5611143 C4.64221018,11.5422465 4.75615744,11.5022765 4.86032057,11.4431086 C4.97789919,11.3763202 5.07774192,11.276477 5.27742815,11.0767908 L8.62275028,7.7314682 L2.59347224,5.72170877 C1.78024405,5.45063269 1.37362991,5.31509492 1.185835,5.06218767 C1.02185185,4.84134822 0.956075154,4.56271327 1.00398374,4.29185295 C1.05884906,3.98166141 1.36192137,3.67858928 1.96806598,3.07244468 L2.33883691,2.70167375 C2.56773002,2.47278063 2.68217659,2.35833408 2.81777,2.28744268 C2.93778004,2.22469865 3.06928378,2.1869838 3.20430636,2.17658544 C3.35686173,2.16483684 3.51456833,2.20123082 3.8299818,2.27401853 L11.2891197,3.99535775 C11.5990717,4.06688511 11.7540478,4.10264869 11.9036751,4.09200859 C12.0481392,4.08173565 12.1886481,4.04020567 12.315484,3.9702909 C12.4468531,3.89787735 12.5574843,3.78360866 12.7787466,3.55507112 L15.4888554,0.75585258 Z" id="Icon"></path>
            </g>
        </g>
    </g>
</svg>