<?xml version="1.0" encoding="UTF-8"?>
<svg width="24px" height="24px" viewBox="0 0 24 24" version="1.1" xmlns="http://www.w3.org/2000/svg" xmlns:xlink="http://www.w3.org/1999/xlink">
    <title>play-square</title>
    <g id="Line-icons" stroke="none" stroke-width="1" fill="none" fill-rule="evenodd" stroke-linecap="round" stroke-linejoin="round">
        <g id="Media-&amp;-devices" transform="translate(-608, -236)" fill-rule="nonzero" stroke="#000000" stroke-width="2">
            <g id="Icon" transform="translate(611, 239)">
                <path d="M6.5,5.96533251 C6.5,5.48804757 6.5,5.24940504 6.59974194,5.11617708 C6.6866625,5.00007489 6.81971322,4.92743585 6.96437883,4.91710329 C7.13038349,4.90524661 7.33112428,5.03429404 7.73260593,5.29238939 L12.4532003,8.32705688 C12.8015862,8.55101925 12.9757788,8.66300046 13.035944,8.80539036 C13.0885138,8.92980475 13.0885138,9.07019525 13.035944,9.19460964 C12.9757788,9.33699954 12.8015862,9.44898079 12.4532003,9.67294312 L7.73260689,12.7076101 C7.33112481,12.9657058 7.13038349,13.0947539 6.96437883,13.0828972 C6.81971322,13.0725646 6.6866625,12.9999246 6.59974194,12.8838224 C6.5,12.7505945 6.5,12.5119527 6.5,12.034668 L6.5,5.96533251 Z"></path>
                <path d="M0,4.79999971 C0,3.11984241 0,2.27976376 0.326980442,1.6380285 C0.614600539,1.0735423 1.0735423,0.614600539 1.6380285,0.326980442 C2.27976376,0 3.11984253,0 4.80000019,0 L13.2000008,0 C14.8801581,0 15.7202356,0 16.3619709,0.326980442 C16.9264571,0.614600539 17.3853993,1.0735423 17.6730194,1.6380285 C18,2.27976376 18,3.11984253 18,4.80000019 L18,13.2000008 C18,14.8801581 18,15.7202356 17.6730194,16.3619709 C17.3853993,16.9264571 16.9264571,17.3853993 16.3619709,17.6730194 C15.7202356,18 14.8801575,18 13.1999998,18 L4.79999971,18 C3.11984241,18 2.27976376,18 1.6380285,17.6730194 C1.0735423,17.3853993 0.614600539,16.9264571 0.326980442,16.3619709 C0,15.7202356 0,14.8801575 0,13.1999998 L0,4.79999971 Z"></path>
            </g>
        </g>
    </g>
</svg>