<?xml version="1.0" encoding="UTF-8"?>
<svg width="24px" height="24px" viewBox="0 0 24 24" version="1.1" xmlns="http://www.w3.org/2000/svg" xmlns:xlink="http://www.w3.org/1999/xlink">
    <title>play-circle</title>
    <g id="Line-icons" stroke="none" stroke-width="1" fill="none" fill-rule="evenodd" stroke-linecap="round" stroke-linejoin="round">
        <g id="Media-&amp;-devices" transform="translate(-608, -196)" fill-rule="nonzero" stroke="#000000" stroke-width="2">
            <g id="Icon" transform="translate(610, 198)">
                <path d="M10,20 C15.5228481,20 20,15.5228481 20,10 C20,4.47715235 15.5228481,0 10,0 C4.47715235,0 0,4.47715235 0,10 C0,15.5228481 4.47715235,20 10,20 Z"></path>
                <path d="M7.5,6.96533251 C7.5,6.48804757 7.5,6.24940504 7.59974194,6.11617708 C7.6866625,6.00007489 7.81971322,5.92743585 7.96437883,5.91710329 C8.13038349,5.90524661 8.33112428,6.03429404 8.73260593,6.29238939 L13.4532003,9.32705688 C13.8015862,9.55101925 13.9757788,9.66300046 14.035944,9.80539036 C14.0885138,9.92980475 14.0885138,10.0701953 14.035944,10.1946096 C13.9757788,10.3369995 13.8015862,10.4489808 13.4532003,10.6729431 L8.73260689,13.7076101 C8.33112481,13.9657058 8.13038349,14.0947539 7.96437883,14.0828972 C7.81971322,14.0725646 7.6866625,13.9999246 7.59974194,13.8838224 C7.5,13.7505945 7.5,13.5119527 7.5,13.034668 L7.5,6.96533251 Z"></path>
            </g>
        </g>
    </g>
</svg>