<?xml version="1.0" encoding="UTF-8"?>
<svg width="24px" height="24px" viewBox="0 0 24 24" version="1.1" xmlns="http://www.w3.org/2000/svg" xmlns:xlink="http://www.w3.org/1999/xlink">
    <title>play</title>
    <g id="Line-icons" stroke="none" stroke-width="1" fill="none" fill-rule="evenodd" stroke-linecap="round" stroke-linejoin="round">
        <g id="Media-&amp;-devices" transform="translate(-608, -156)" fill-rule="nonzero" stroke="#000000" stroke-width="2">
            <g id="play" transform="translate(613, 158.8693)">
                <path d="M0,2.12037158 C0,1.14920795 0,0.663626134 0.202490002,0.395954549 C0.378894374,0.162765563 0.648521781,0.0184653917 0.940398276,0.0010380646 C1.27543575,-0.0189663122 1.67946392,0.25038594 2.48752046,0.789090335 L13.0030794,7.79946375 C13.6707656,8.2445879 14.0046088,8.46715021 14.1209431,8.74767399 C14.2226506,8.99292743 14.2226506,9.26856053 14.1209431,9.51381397 C14.0046088,9.79433775 13.6707652,10.0168992 13.0030785,10.4620237 L2.48751903,17.4723988 C1.67946351,18.0111025 1.27543575,18.2804528 0.940398276,18.2604485 C0.648521781,18.2430211 0.378894374,18.0987209 0.202490002,17.8655319 C0,17.5978603 0,17.1122803 0,16.1411171 L0,2.12037158 Z" id="Icon"></path>
            </g>
        </g>
    </g>
</svg>