<?xml version="1.0" encoding="UTF-8"?>
<svg width="24px" height="24px" viewBox="0 0 24 24" version="1.1" xmlns="http://www.w3.org/2000/svg" xmlns:xlink="http://www.w3.org/1999/xlink">
    <title>podcast</title>
    <g id="Line-icons" stroke="none" stroke-width="1" fill="none" fill-rule="evenodd" stroke-linecap="round" stroke-linejoin="round">
        <g id="Media-&amp;-devices" transform="translate(-608, -276)" fill-rule="nonzero" stroke="#000000" stroke-width="2">
            <g id="Icon" transform="translate(611, 278)">
                <path d="M7,16 C7,14.8954306 7.89543056,14 9,14 C10.1045694,14 11,14.8954306 11,16 L11,18 C11,19.1045694 10.1045694,20 9,20 C7.89543056,20 7,19.1045694 7,18 L7,16 Z"></path>
                <path d="M14.1188717,16 C16.462291,14.4150896 18,11.7779031 18,8.78496075 C18,3.9332962 13.9704242,0 9,0 C4.02957582,0 0,3.9332962 0,8.78496075 C0,11.7779031 1.53770876,14.4150896 3.88112807,16"></path>
                <path d="M5.35966539,12 C4.51874793,11.1500216 4,10.0086471 4,8.75054073 C4,6.1271081 6.23880672,4 9,4 C11.7611952,4 14,6.1271081 14,8.75054073 C14,10.0095117 13.4812526,11.1500216 12.6403351,12"></path>
                <path d="M9,10 C9.55228472,10 10,9.55228472 10,9 C10,8.44771522 9.55228472,8 9,8 C8.44771522,8 8,8.44771522 8,9 C8,9.55228472 8.44771522,10 9,10 Z"></path>
            </g>
        </g>
    </g>
</svg>