<?xml version="1.0" encoding="UTF-8"?>
<svg width="24px" height="24px" viewBox="0 0 24 24" version="1.1" xmlns="http://www.w3.org/2000/svg" xmlns:xlink="http://www.w3.org/1999/xlink">
    <title>presentation-chart-01</title>
    <g id="Line-icons" stroke="none" stroke-width="1" fill="none" fill-rule="evenodd" stroke-linecap="round" stroke-linejoin="round">
        <g id="Charts" transform="translate(-880, -276)" fill-rule="nonzero" stroke="#000000" stroke-width="2">
            <g id="Icon" transform="translate(882, 279)">
                <line x1="10" y1="13" x2="10" y2="18"></line>
                <line x1="6" y1="6" x2="6" y2="9"></line>
                <line x1="10" y1="4" x2="10" y2="9"></line>
                <line x1="14" y1="8" x2="14" y2="9"></line>
                <path d="M16,18 L10,13 L4,18 M19,0 L19,8.19999981 C19,9.88015747 19,10.7202368 18.6730194,11.3619719 C18.3853989,11.9264574 17.9264584,12.3853998 17.3619709,12.6730194 C16.7202368,13 15.8801575,13 14.1999998,13 L5.79999971,13 C4.11984229,13 3.27976382,13 2.63802862,12.6730194 C2.07354236,12.3853998 1.61460057,11.9264574 1.32698047,11.3619719 C1,10.7202368 1,9.88015747 1,8.19999981 L1,0 M20,0 L0,0"></path>
            </g>
        </g>
    </g>
</svg>