<?xml version="1.0" encoding="UTF-8"?>
<svg width="24px" height="24px" viewBox="0 0 24 24" version="1.1" xmlns="http://www.w3.org/2000/svg" xmlns:xlink="http://www.w3.org/1999/xlink">
    <title>presentation-chart-02</title>
    <g id="Line-icons" stroke="none" stroke-width="1" fill="none" fill-rule="evenodd" stroke-linecap="round" stroke-linejoin="round">
        <g id="Charts" transform="translate(-880, -316)" fill-rule="nonzero" stroke="#000000" stroke-width="2">
            <g id="Icon" transform="translate(882, 319)">
                <line x1="10" y1="13" x2="10" y2="18"></line>
                <path d="M1,0 L19,0 L19,8.19999981 C19,9.88015759 19,10.7202356 18.6730194,11.3619709 C18.3853993,11.9264571 17.9264571,12.3853993 17.3619709,12.6730194 C16.7202356,13 15.8801575,13 14.1999998,13 L5.79999971,13 C4.11984241,13 3.27976364,13 2.63802838,12.6730194 C2.07354218,12.3853993 1.61460057,11.9264571 1.32698047,11.3619709 C1,10.7202356 1,9.88015735 1,8.19999981 L1,0 Z"></path>
                <line x1="6" y1="8" x2="6" y2="9"></line>
                <line x1="10" y1="6" x2="10" y2="9"></line>
                <line x1="14" y1="4" x2="14" y2="9"></line>
                <path d="M12.0485897,14.7071581 L12.0485897,14.7071581 L12.0485897,14.7071581 C11.3198113,14.0998427 10.9554219,13.7961848 10.5486641,13.6801462 C10.1900415,13.5778394 9.80995846,13.5778394 9.45133591,13.6801462 C9.04457855,13.7961847 8.68018794,14.099844 7.95141172,14.7071571 C7.16130859,15.3655764 7.05455769,16.5398358 7.71297692,17.3299389 C8.06679,17.7545146 8.59091149,18 9.1435852,18 M20,0 L0,0"></path>
            </g>
        </g>
    </g>
</svg>