<?xml version="1.0" encoding="UTF-8"?>
<svg width="24px" height="24px" viewBox="0 0 24 24" version="1.1" xmlns="http://www.w3.org/2000/svg" xmlns:xlink="http://www.w3.org/1999/xlink">
    <title>printer</title>
    <g id="Line-icons" stroke="none" stroke-width="1" fill="none" fill-rule="evenodd" stroke-linecap="round" stroke-linejoin="round">
        <g id="Media-&amp;-devices" transform="translate(-608, -436)" fill-rule="nonzero" stroke="#000000" stroke-width="2">
            <g id="Icon" transform="translate(610, 438)">
                <path d="M4,15.1999998 C4,14.0798948 4,13.5198426 4.21798706,13.0920191 C4.4097338,12.7156949 4.71569493,12.4097338 5.09201908,12.2179871 C5.51984257,12 6.07989502,12 7.20000029,12 L12.8000002,12 C13.9201052,12 14.4801584,12 14.9079819,12.2179871 C15.284306,12.4097338 15.5902672,12.7156949 15.7820139,13.0920191 C16,13.5198426 16,14.0798947 16,15.1999998 L16,16.8000011 C16,17.9201062 16,18.4801584 15.7820139,18.9079819 C15.5902672,19.284306 15.284306,19.5902662 14.9079819,19.7820129 C14.4801584,20 13.9201055,20 12.8000002,20 L7.19999981,20 C6.07989478,20 5.51984257,20 5.09201908,19.7820129 C4.71569493,19.5902662 4.4097338,19.284306 4.21798706,18.9079819 C4,18.4801584 4,17.9201044 4,16.7999992 L4,15.1999998 Z"></path>
                <path d="M16,5 L16,3.19999981 C16,2.07989502 16,1.51984251 15.7820129,1.09201896 C15.5902662,0.715694845 15.2843056,0.409733713 14.9079809,0.217986971 C14.4801579,0 13.920105,0 12.8000002,0 L7.20000029,0 C6.07989502,0 5.51984262,0 5.09201908,0.217986971 C4.71569496,0.409733713 4.4097338,0.715694845 4.21798706,1.09201896 C4,1.51984251 4,2.07989502 4,3.20000005 L4,5 M4,16 C3.07002831,16 2.60504246,16 2.22354293,15.8977776 C1.18826675,15.6203756 0.379623927,14.8117332 0.10222251,13.7764568 C0,13.3949575 0,12.9299717 0,12 L0,9.80000019 C0,8.11984253 0,7.27976382 0.326980442,6.63802862 C0.614600539,6.07354236 1.07354224,5.61460069 1.6380285,5.32698059 C2.2797637,5 3.11984253,5 4.80000019,5 L15.1999998,5 C16.8801575,5 17.7202358,5 18.3619709,5.32698059 C18.9264584,5.61460069 19.3853989,6.07354236 19.6730194,6.63802862 C20,7.27976382 20,8.11984253 20,9.80000019 L20,12 C20,12.9299717 20,13.3949575 19.8977776,13.7764568 C19.6203766,14.8117332 18.8117332,15.6203756 17.7764568,15.8977776 C17.3949566,16 16.9299717,16 16,16 M13,8.5 L16,8.5"></path>
            </g>
        </g>
    </g>
</svg>