<?xml version="1.0" encoding="UTF-8"?>
<svg width="24px" height="24px" viewBox="0 0 24 24" version="1.1" xmlns="http://www.w3.org/2000/svg" xmlns:xlink="http://www.w3.org/1999/xlink">
    <title>puzzle-piece-01</title>
    <g id="Line-icons" stroke="none" stroke-width="1" fill="none" fill-rule="evenodd" stroke-linecap="round" stroke-linejoin="round">
        <g id="Development" transform="translate(-608, -636)" fill-rule="nonzero" stroke="#000000" stroke-width="2">
            <g id="puzzle-piece-01" transform="translate(610, 638)">
                <path d="M5.5,2.5 C5.5,1.11928821 6.61928821,0 8,0 C9.38071179,0 10.5,1.11928821 10.5,2.5 L10.5,4 L11.5,4 C12.8978244,4 13.5967372,4 14.1480503,4.22836113 C14.8831347,4.53284299 15.467157,5.11686528 15.7716389,5.85194969 C16,6.40326279 16,7.10217535 16,8.5 L17.5,8.5 C18.8807118,8.5 20,9.61928821 20,11 C20,12.3807118 18.8807118,13.5 17.5,13.5 L16,13.5 L16,15.1999998 C16,16.8801575 16,17.7202356 15.6730194,18.3619709 C15.3853993,18.9264571 14.9264581,19.3853993 14.3619719,19.6730194 C13.7202366,20 12.8801575,20 11.1999998,20 L10.5,20 L10.5,18.25 C10.5,17.0073595 9.4926405,16 8.25,16 C7.0073595,16 6,17.0073595 6,18.25 L6,20 L4.80000019,20 C3.11984265,20 2.27976376,20 1.6380285,19.6730194 C1.0735423,19.3853993 0.614600539,18.9264571 0.326980442,18.3619709 C0,17.7202356 0,16.8801575 0,15.1999998 L0,13.5 L1.5,13.5 C2.88071179,13.5 4,12.3807118 4,11 C4,9.61928821 2.88071179,8.5 1.5,8.5 L0,8.5 C0,7.10217535 0,6.40326279 0.228361323,5.85194969 C0.532843187,5.11686528 1.11686552,4.53284299 1.85194993,4.22836113 C2.40326303,4 3.10217524,4 4.5,4 L5.5,4 L5.5,2.5 Z" id="Icon"></path>
            </g>
        </g>
    </g>
</svg>