<?xml version="1.0" encoding="UTF-8"?>
<svg width="24px" height="24px" viewBox="0 0 24 24" version="1.1" xmlns="http://www.w3.org/2000/svg" xmlns:xlink="http://www.w3.org/1999/xlink">
    <title>qr-code-01</title>
    <g id="Line-icons" stroke="none" stroke-width="1" fill="none" fill-rule="evenodd" stroke-linecap="round" stroke-linejoin="round">
        <g id="Development" transform="translate(-608, -716)" fill-rule="nonzero" stroke="#000000" stroke-width="2">
            <g id="Icon" transform="translate(611, 718)">
                <path d="M13,15.6000004 C13,15.0399479 13,14.7599208 13.1089935,14.5460091 C13.2048669,14.357847 13.357847,14.2048669 13.5460091,14.1089935 C13.7599208,14 14.0399479,14 14.6000004,14 L16.3999996,14 C16.9600521,14 17.2400792,14 17.4539909,14.1089935 C17.642153,14.2048669 17.7951331,14.357847 17.8910065,14.5460091 C18,14.7599208 18,15.0399479 18,15.6000004 L18,17.3999996 C18,17.9600521 18,18.2400792 17.8910065,18.4539909 C17.7951331,18.642153 17.642153,18.7951331 17.4539909,18.8910065 C17.2400792,19 16.9600521,19 16.3999996,19 L14.6000004,19 C14.0399479,19 13.7599208,19 13.5460091,18.8910065 C13.357847,18.7951331 13.2048669,18.642153 13.1089935,18.4539909 C13,18.2400792 13,17.9600521 13,17.3999996 L13,15.6000004 Z"></path>
                <path d="M13,2.5999999 C13,2.03994739 13,1.75992128 13.1089935,1.54600954 C13.2048669,1.35784747 13.357847,1.2048669 13.5460091,1.10899353 C13.7599208,1 14.0399479,1 14.6000004,1 L16.3999996,1 C16.9600521,1 17.2400792,1 17.4539909,1.10899353 C17.642153,1.2048669 17.7951331,1.35784747 17.8910065,1.54600954 C18,1.75992128 18,2.03994739 18,2.5999999 L18,4.4000001 C18,4.96005261 18,5.24007872 17.8910065,5.45399046 C17.7951331,5.64215253 17.642153,5.7951331 17.4539909,5.89100647 C17.2400792,6 16.9600521,6 16.3999996,6 L14.6000004,6 C14.0399479,6 13.7599208,6 13.5460091,5.89100647 C13.357847,5.7951331 13.2048669,5.64215253 13.1089935,5.45399046 C13,5.24007872 13,4.96005261 13,4.4000001 L13,2.5999999 Z"></path>
                <path d="M0,2.5999999 C0,2.03994739 0,1.75992128 0.108993486,1.54600954 C0.204866856,1.35784747 0.357847407,1.2048669 0.546009481,1.10899353 C0.759921223,1 1.03994739,1 1.5999999,1 L3.4000001,1 C3.96005261,1 4.24007872,1 4.45399046,1.10899353 C4.64215253,1.2048669 4.7951331,1.35784747 4.89100647,1.54600954 C5,1.75992128 5,2.03994739 5,2.5999999 L5,4.4000001 C5,4.96005261 5,5.24007872 4.89100647,5.45399046 C4.7951331,5.64215253 4.64215253,5.7951331 4.45399046,5.89100647 C4.24007872,6 3.96005261,6 3.4000001,6 L1.5999999,6 C1.03994739,6 0.759921223,6 0.546009481,5.89100647 C0.357847407,5.7951331 0.204866856,5.64215253 0.108993486,5.45399046 C0,5.24007872 0,4.96005261 0,4.4000001 L0,2.5999999 Z"></path>
                <path d="M4,10 L9,10 L9,15 M0,10 L0.00999999978,10 M5,15 L5.01000023,15 M9,19 L9.01000023,19 M18,10 L18.0100002,10 M1.5,15 L0,15 M14.5,10 L12.5,10 M5,19 L0,19 M9,0 L9,6"></path>
            </g>
        </g>
    </g>
</svg>