<?xml version="1.0" encoding="UTF-8"?>
<svg width="24px" height="24px" viewBox="0 0 24 24" version="1.1" xmlns="http://www.w3.org/2000/svg" xmlns:xlink="http://www.w3.org/1999/xlink">
    <title>qr-code-02</title>
    <g id="Line-icons" stroke="none" stroke-width="1" fill="none" fill-rule="evenodd" stroke-linecap="round" stroke-linejoin="round">
        <g id="Development" transform="translate(-880, -156)" fill-rule="nonzero" stroke="#000000" stroke-width="2">
            <g id="Icon" transform="translate(883, 159)">
                <line x1="3.5" y1="3.5" x2="3.51000023" y2="3.5"></line>
                <line x1="14.5" y1="3.5" x2="14.5100002" y2="3.5"></line>
                <line x1="3.5" y1="14.5" x2="3.51000023" y2="14.5"></line>
                <line x1="10" y1="10" x2="10.0100002" y2="10"></line>
                <line x1="14.5" y1="14.5" x2="14.5100002" y2="14.5"></line>
                <polyline points="14 18 18 18 18 14"></polyline>
                <line x1="11" y1="13.5" x2="11" y2="18"></line>
                <line x1="18" y1="11" x2="13.5" y2="11"></line>
                <path d="M11,1.5999999 C11,1.03994745 11,0.759921223 11.1089935,0.546009481 C11.2048669,0.357847407 11.357847,0.204866856 11.5460091,0.108993486 C11.7599208,0 12.0399479,0 12.6000004,0 L16.3999996,0 C16.9600521,0 17.2400792,0 17.4539909,0.108993486 C17.642153,0.204866856 17.7951331,0.357847407 17.8910065,0.546009481 C18,0.759921223 18,1.03994751 18,1.60000002 L18,5.4000001 C18,5.96005255 18,6.24007872 17.8910065,6.45399046 C17.7951331,6.64215253 17.642153,6.7951331 17.4539909,6.89100647 C17.2400792,7 16.9600521,7 16.3999996,7 L12.6000004,7 C12.0399479,7 11.7599208,7 11.5460091,6.89100647 C11.357847,6.7951331 11.2048669,6.64215253 11.1089935,6.45399046 C11,6.24007872 11,5.96005261 11,5.4000001 L11,1.5999999 Z"></path>
                <path d="M0,1.5999999 C0,1.03994745 0,0.759921223 0.108993486,0.546009481 C0.204866856,0.357847407 0.357847407,0.204866856 0.546009481,0.108993486 C0.759921223,0 1.03994751,0 1.60000002,0 L5.4000001,0 C5.96005255,0 6.24007872,0 6.45399046,0.108993486 C6.64215253,0.204866856 6.7951331,0.357847407 6.89100647,0.546009481 C7,0.759921223 7,1.03994751 7,1.60000002 L7,5.4000001 C7,5.96005255 7,6.24007872 6.89100647,6.45399046 C6.7951331,6.64215253 6.64215253,6.7951331 6.45399046,6.89100647 C6.24007872,7 5.96005261,7 5.4000001,7 L1.5999999,7 C1.03994745,7 0.759921223,7 0.546009481,6.89100647 C0.357847407,6.7951331 0.204866856,6.64215253 0.108993486,6.45399046 C0,6.24007872 0,5.96005261 0,5.4000001 L0,1.5999999 Z"></path>
                <path d="M0,12.6000004 C0,12.0399479 0,11.7599208 0.108993486,11.5460091 C0.204866856,11.357847 0.357847407,11.2048669 0.546009481,11.1089935 C0.759921223,11 1.03994751,11 1.60000002,11 L5.4000001,11 C5.96005255,11 6.24007872,11 6.45399046,11.1089935 C6.64215253,11.2048669 6.7951331,11.357847 6.89100647,11.5460091 C7,11.7599208 7,12.0399479 7,12.6000004 L7,16.3999996 C7,16.9600521 7,17.2400792 6.89100647,17.4539909 C6.7951331,17.642153 6.64215253,17.7951331 6.45399046,17.8910065 C6.24007872,18 5.96005261,18 5.4000001,18 L1.5999999,18 C1.03994745,18 0.759921223,18 0.546009481,17.8910065 C0.357847407,17.7951331 0.204866856,17.642153 0.108993486,17.4539909 C0,17.2400792 0,16.9600521 0,16.3999996 L0,12.6000004 Z"></path>
            </g>
        </g>
    </g>
</svg>