<?xml version="1.0" encoding="UTF-8"?>
<svg width="24px" height="24px" viewBox="0 0 24 24" version="1.1" xmlns="http://www.w3.org/2000/svg" xmlns:xlink="http://www.w3.org/1999/xlink">
    <title>reflect-01</title>
    <g id="Line-icons" stroke="none" stroke-width="1" fill="none" fill-rule="evenodd" stroke-linecap="round" stroke-linejoin="round">
        <g id="Editor" transform="translate(-608, -1076)" fill-rule="nonzero" stroke="#000000" stroke-width="2">
            <g id="Icon" transform="translate(610, 1079)">
                <path d="M0,12.3753099 C0,12.8971394 0,13.1580537 0.107452743,13.2942562 C0.200938351,13.4127546 0.342950329,13.4826822 0.493874162,13.4845314 C0.667346627,13.4866569 0.874153912,13.327574 1.28776848,13.009409 L5.6756711,9.63409901 C5.95616531,9.41833422 6.09641214,9.31045245 6.14681482,9.1789608 C6.1909802,9.06374117 6.1909802,8.93625883 6.14681482,8.8210392 C6.09641214,8.68954755 5.95616525,8.58166572 5.6756711,8.36590099 L1.28776908,4.99059153 C0.874154061,4.67242613 0.667346627,4.51334359 0.493874162,4.51546907 C0.342950329,4.51731828 0.200938351,4.58724495 0.107452743,4.70574331 C0,4.84194581 0,5.10286093 0,5.62469053 L0,12.3753099 Z"></path>
                <path d="M20,12.3753099 C20,12.8971394 20,13.1580537 19.8925476,13.2942562 C19.799062,13.4127546 19.6570502,13.4826822 19.5061264,13.4845314 C19.3326539,13.4866569 19.1258453,13.327574 18.7122307,13.009409 L14.3243294,9.63409901 C14.0438352,9.41833422 13.9035874,9.31045245 13.8531847,9.1789608 C13.8090193,9.06374117 13.8090193,8.93625883 13.8531847,8.8210392 C13.9035874,8.68954755 14.0438352,8.58166572 14.3243294,8.36590099 L18.7122307,4.99059153 C19.1258457,4.67242613 19.3326539,4.51334359 19.5061264,4.51546907 C19.6570502,4.51731828 19.799062,4.58724495 19.8925476,4.70574331 C20,4.84194581 20,5.10286093 20,5.62469053 L20,12.3753099 Z"></path>
                <path d="M10,3 L10,0 M10,10.5 L10,7.5 M10,15 L10,18"></path>
            </g>
        </g>
    </g>
</svg>