<?xml version="1.0" encoding="UTF-8"?>
<svg width="24px" height="24px" viewBox="0 0 24 24" version="1.1" xmlns="http://www.w3.org/2000/svg" xmlns:xlink="http://www.w3.org/1999/xlink">
    <title>refresh-cw-03</title>
    <g id="Line-icons" stroke="none" stroke-width="1" fill="none" fill-rule="evenodd" stroke-linecap="round" stroke-linejoin="round">
        <g id="Arrows" transform="translate(-880, -716)" fill-rule="nonzero" stroke="#000000" stroke-width="2">
            <g id="refresh-cw-03" transform="translate(883, 718)">
                <g id="Icon" transform="translate(0, 0)">
                    <polyline points="0.999999583 0 6.99999952 0.000194287291 7 5.99999952"></polyline>
                    <polyline points="17 20 10.999999 20 11 14"></polyline>
                    <path d="M11,20 C11.5661618,19.9191202 13.0208155,18.7071069 15.3639612,16.3639603 C18.8786798,12.8492413 18.8786793,7.15075827 15.3639603,3.6360395 C14.1186857,2.39076591 12.5992823,1.58669275 11,1.22382736 M7,0 C6.43383821,0.0810112953 4.97918447,1.29308971 2.63603878,3.63623524 C-0.878679752,7.15095448 -0.878679752,12.8494387 2.63603926,16.3641567 C3.88131356,17.6094303 5.40071726,18.4135017 7,18.7763672"></path>
                </g>
            </g>
        </g>
    </g>
</svg>