<?xml version="1.0" encoding="UTF-8"?>
<svg width="24px" height="24px" viewBox="0 0 24 24" version="1.1" xmlns="http://www.w3.org/2000/svg" xmlns:xlink="http://www.w3.org/1999/xlink">
    <title>refresh-cw-02</title>
    <g id="Line-icons" stroke="none" stroke-width="1" fill="none" fill-rule="evenodd" stroke-linecap="round" stroke-linejoin="round">
        <g id="Arrows" transform="translate(-880, -676)" fill-rule="nonzero" stroke="#000000" stroke-width="2">
            <g id="refresh-cw-02" transform="translate(882, 679)">
                <g id="Icon" transform="translate(0, 0)">
                    <polyline points="20 1 20 7 14 7"></polyline>
                    <polyline points="0 17 0 11 6 11"></polyline>
                    <path d="M0,11 C0.0808801651,11.5661616 1.29289317,13.0208154 3.63603902,15.3639612 C7.15075779,18.8786802 12.8492413,18.8786802 16.3639603,15.3639612 C17.6092339,14.1186867 18.4133072,12.5992832 18.7761726,11 M20,7 C19.9191189,6.43383853 18.7071056,4.97918487 16.3639603,2.63603902 C12.8492413,-0.878679752 7.15075779,-0.878679752 3.63603926,2.63603902 C2.39076495,3.88131332 1.58669454,5.40071678 1.22382832,7"></path>
                </g>
            </g>
        </g>
    </g>
</svg>