<?xml version="1.0" encoding="UTF-8"?>
<svg width="24px" height="24px" viewBox="0 0 24 24" version="1.1" xmlns="http://www.w3.org/2000/svg" xmlns:xlink="http://www.w3.org/1999/xlink">
    <title>repeat-01</title>
    <g id="Line-icons" stroke="none" stroke-width="1" fill="none" fill-rule="evenodd" stroke-linecap="round" stroke-linejoin="round">
        <g id="Media-&amp;-devices" transform="translate(-608, -596)" fill-rule="nonzero" stroke="#000000" stroke-width="2">
            <g id="Icon" transform="translate(611, 598)">
                <polyline points="14 0 18 4 14 8"></polyline>
                <polyline points="4 20 0 16 4 12"></polyline>
                <path d="M18,4 L4.80000019,4 C3.11984253,4 2.2797637,4 1.6380285,4.32698059 C1.07354224,4.61460069 0.614600539,5.07354236 0.326980442,5.63802862 C0,6.27976382 0,7.11984253 0,8.80000019 C1.02817258e-17,8.88395685 0.0680603224,8.95201718 0.152016985,8.95201718 C0.165767529,8.95201718 0.179454502,8.95015153 0.192703398,8.94647128 M0,16 L13.1999998,16 C14.8801575,16 15.7202368,16 16.3619709,15.6730194 C16.9264584,15.3853993 17.3853989,14.9264581 17.6730194,14.3619719 C18,13.7202365 18,12.8801575 18,11.1999998 L18,11"></path>
            </g>
        </g>
    </g>
</svg>