<?xml version="1.0" encoding="UTF-8"?>
<svg width="24px" height="24px" viewBox="0 0 24 24" version="1.1" xmlns="http://www.w3.org/2000/svg" xmlns:xlink="http://www.w3.org/1999/xlink">
    <title>right-indent-01</title>
    <g id="Line-icons" stroke="none" stroke-width="1" fill="none" fill-rule="evenodd" stroke-linecap="round" stroke-linejoin="round">
        <g id="Editor" transform="translate(-608, -1156)" fill-rule="nonzero" stroke="#000000" stroke-width="2">
            <g id="Icon" transform="translate(611, 1160)">
                <path d="M18,10.8999996 C18,11.4149739 18,11.6724611 17.8936768,11.8082495 C17.801152,11.9264163 17.6604415,11.9967716 17.5103931,11.9998913 C17.337969,12.0034762 17.1319788,11.8489845 16.7199993,11.54 L12.8533335,8.64000034 C12.5638417,8.42288151 12.4190961,8.31432146 12.3673363,8.18123531 C12.3219996,8.0646645 12.3219996,7.93533503 12.3673363,7.81876421 C12.4190961,7.68567806 12.5638417,7.57711849 12.8533335,7.35999966 L16.7199993,4.46000004 C17.1319787,4.15101555 17.337969,3.99652334 17.5103931,4.00010824 C17.6604415,4.00322792 17.801152,4.07358319 17.8936768,4.19175005 C18,4.32753845 18,4.58502561 18,5.0999999 L18,10.8999996 Z"></path>
                <path d="M0,0 L18,0 M0,16 L18,16 M0,5.25 L9,5.25 M9,10.75 L0,10.75"></path>
            </g>
        </g>
    </g>
</svg>