<?xml version="1.0" encoding="UTF-8"?>
<svg width="24px" height="24px" viewBox="0 0 24 24" version="1.1" xmlns="http://www.w3.org/2000/svg" xmlns:xlink="http://www.w3.org/1999/xlink">
    <title>right-indent-02</title>
    <g id="Line-icons" stroke="none" stroke-width="1" fill="none" fill-rule="evenodd" stroke-linecap="round" stroke-linejoin="round">
        <g id="Editor" transform="translate(-880, -156)" fill-rule="nonzero" stroke="#000000" stroke-width="2">
            <g id="Icon" transform="translate(883, 158.5)">
                <path d="M18,6.89995289 C18,7.41492712 18,7.67241435 17.8936768,7.80820274 C17.801152,7.9263696 17.6604415,7.99672535 17.5103931,7.99984503 C17.337969,8.00342992 17.1319788,7.84893733 16.7199993,7.53995275 L12.8533335,4.63995314 C12.5638417,4.42283429 12.4190961,4.31427473 12.3673363,4.18118858 C12.3219996,4.06461777 12.3219996,3.93528806 12.3673363,3.81871724 C12.4190961,3.6856311 12.5638417,3.57707177 12.8533335,3.35995293 L16.7199993,0.459952831 C17.1319787,0.150968343 17.337969,-0.00352391644 17.5103931,0 C17.6604415,0.00318065545 17.801152,0.0735362545 17.8936768,0.191703111 C18,0.327491507 18,0.58497864 18,1.09995294 L18,6.89995289 Z"></path>
                <path d="M0,6.74995279 L9,6.74995279 M0,1.49995291 L9,1.49995375 M0,12.2499533 L18,12.2499533 M18,17.4999523 L0,17.4999523"></path>
            </g>
        </g>
    </g>
</svg>