<?xml version="1.0" encoding="UTF-8"?>
<svg width="24px" height="24px" viewBox="0 0 24 24" version="1.1" xmlns="http://www.w3.org/2000/svg" xmlns:xlink="http://www.w3.org/1999/xlink">
    <title>rocket-01</title>
    <g id="Line-icons" stroke="none" stroke-width="1" fill="none" fill-rule="evenodd" stroke-linecap="round" stroke-linejoin="round">
        <g id="Maps-&amp;-travel" transform="translate(-880, -156)" fill-rule="nonzero" stroke="#000000" stroke-width="2">
            <g id="rocket-01" transform="translate(882.2061, 158.2427)">
                <g id="Icon" transform="translate(0, 0)">
                    <path d="M10.8530159,1.58664751 C11.2199469,1.19441089 11.7058941,0.93400418 12.2356968,0.845703721 L17.142168,0.0279585868 C18.4958105,-0.197648495 19.6693613,0.975901604 19.4437542,2.32954407 L18.626009,7.2360158 C18.5377085,7.76581854 18.2773017,8.25176519 17.8850651,8.61869621 L10.8159237,15.2317638 C8.98354876,16.9459211 6.12197256,16.898241 4.34772158,15.1239901 C2.57347059,13.3497391 2.52579105,10.4881634 4.23994827,8.65578842 L10.8530159,1.58664751 Z"></path>
                    <path d="M1.29358661,18.2572346 L10.7935867,8.75723457 M11.812007,1.29569924 C13.0300256,2.1039046 14.2007468,3.05673099 15.2947378,4.15072203 C16.3981659,5.25415015 17.3579841,6.43563747 18.1706448,7.66498423 M5.64502268,5.18553116 L4.17367887,4.69508314 L4.17367887,4.69508314 C3.84259477,4.58472174 3.47792557,4.65495051 3.21150875,4.88038015 L0.354350686,7.29797554 C-0.230576158,7.79291362 -0.0643972158,8.7348156 0.654586434,8.99970436 L2.47454715,9.67021656 C2.81158386,9.79438805 2.94260106,9.81495066 3.0907255,9.81220194 C3.23884993,9.80945323 3.37656839,9.77325673 3.50690199,9.70281842 C3.63723559,9.63238011 3.74121074,9.55005454 3.97363735,9.27621121 M9.80150873,16.9969944 L10.4720201,18.8169537 L10.4720201,18.8169537 C10.7369089,19.5359372 11.6788111,19.7021184 12.173749,19.1171913 L14.5913448,16.2600327 C14.8167744,15.9936158 14.8870033,15.6289473 14.7766418,15.297863 L14.2861938,13.8265189 C14.1115461,13.3025756 13.5452261,13.0194156 13.0212828,13.1940634 C12.9001082,13.2344549 12.7877937,13.2976869 12.6904121,13.3803402"></path>
                </g>
            </g>
        </g>
    </g>
</svg>