<?xml version="1.0" encoding="UTF-8"?>
<svg width="24px" height="24px" viewBox="0 0 24 24" version="1.1" xmlns="http://www.w3.org/2000/svg" xmlns:xlink="http://www.w3.org/1999/xlink">
    <title>rocket-02</title>
    <g id="Line-icons" stroke="none" stroke-width="1" fill="none" fill-rule="evenodd" stroke-linecap="round" stroke-linejoin="round">
        <g id="Maps-&amp;-travel" transform="translate(-880, -196)" fill-rule="nonzero" stroke="#000000" stroke-width="2">
            <g id="Icon" transform="translate(882.5, 197.9998)">
                <path d="M2,14.500248 C1,15.3402479 0.333333333,17.0069146 0,19.500248 C2.49333334,19.1669146 4.16000001,18.500248 5,17.500248 C5.70999998,16.660248 5.69999987,15.3702481 4.90999985,14.5902481 C4.5213064,14.2192568 4.00929344,14.0048849 3.47222614,13.9882746 C2.93515885,13.9716642 2.41087654,14.1539856 2,14.500248 Z"></path>
                <path d="M9.5,13.000248 L6.5,10.000248 C7.03214473,8.61967754 7.70220369,7.29631138 8.5,6.05024815 C9.66518211,4.18723452 11.2876229,2.65329683 13.2130003,1.59433925 C15.1383777,0.535381675 17.3026645,-0.0133811013 19.5,0.000247803371 C19.5,2.72024783 18.7199998,7.50024796 13.5,11.000248 C12.2368863,11.7989705 10.8968463,12.4689905 9.5,13.000248 Z"></path>
                <path d="M6.5,10.000248 L1.5,10.000248 C1.86666663,7.98024797 2.5333333,6.64691464 3.5,6.00024796 C4.58,5.28024793 6.24666667,5.28024793 8.5,6.00024796"></path>
                <path d="M9.5,13.000248 L9.5,18.000248 C11.52,17.6335813 12.8533333,16.9669147 13.5,16.000248 C14.22,14.920248 14.22,13.2535813 13.5,11.000248"></path>
            </g>
        </g>
    </g>
</svg>