<?xml version="1.0" encoding="UTF-8"?>
<svg width="24px" height="24px" viewBox="0 0 24 24" version="1.1" xmlns="http://www.w3.org/2000/svg" xmlns:xlink="http://www.w3.org/1999/xlink">
    <title>roller-brush</title>
    <g id="Line-icons" stroke="none" stroke-width="1" fill="none" fill-rule="evenodd" stroke-linecap="round" stroke-linejoin="round">
        <g id="Editor" transform="translate(-880, -196)" fill-rule="nonzero" stroke="#000000" stroke-width="2">
            <g id="Icon" transform="translate(883, 198)">
                <path d="M0,2.5 C0,2.03534478 0,1.80301724 0.0384294391,1.60981941 C0.196242779,0.816438198 0.816438198,0.196242779 1.60981941,0.0384294391 C1.80301724,0 2.03534481,0 2.5,0 L13.5,0 C13.9646552,0 14.1969828,0 14.3901806,0.0384294391 C15.1835618,0.196242779 15.8037574,0.816438198 15.9615707,1.60981941 C16,1.80301724 16,2.03534478 16,2.5 C16,2.96465522 16,3.19698299 15.9615707,3.39018083 C15.8037574,4.18356204 15.1835618,4.8037574 14.3901806,4.96157074 C14.1969828,5 13.9646552,5 13.5,5 L2.5,5 C2.03534481,5 1.80301724,5 1.60981941,4.96157074 C0.816438198,4.8037574 0.196242779,4.18356204 0.0384294391,3.39018083 C0,3.19698299 0,2.96465522 0,2.5 Z"></path>
                <path d="M7,14.6000004 C7,14.0399479 7,13.7599208 7.10899353,13.5460091 C7.2048669,13.357847 7.35784747,13.2048669 7.54600954,13.1089935 C7.75992128,13 8.03994781,13 8.60000038,13 L9.40000057,13 C9.96005303,13 10.2400792,13 10.4539909,13.1089935 C10.642153,13.2048669 10.7951331,13.357847 10.8910065,13.5460091 C11,13.7599208 11,14.0399479 11,14.6000004 L11,18.3999996 C11,18.9600521 11,19.2400792 10.8910065,19.4539909 C10.7951331,19.642153 10.642153,19.7951331 10.4539909,19.8910065 C10.2400792,20 9.96005219,20 9.39999962,20 L8.60000038,20 C8.03994793,20 7.75992128,20 7.54600954,19.8910065 C7.35784747,19.7951331 7.2048669,19.642153 7.10899353,19.4539909 C7,19.2400792 7,18.9600521 7,18.3999996 L7,14.6000004 Z"></path>
                <path d="M9,12.1999998 L9,12.1999998 L9,12.1999998 C9,11.079895 9,10.5198421 9.21798706,10.0920191 C9.4097338,9.7156949 9.71569496,9.40973377 10.0920191,9.21798706 C10.5198426,9 11.079895,9 12.1999998,9 L15.8000002,9 C16.920105,9 17.4801588,9 17.9079819,8.78201294 C18.2843065,8.59026623 18.5902662,8.2843051 18.7820129,7.90798092 C19,7.48015738 19,6.92010498 19,5.79999971 L19,5.5 C19,4.5681169 19,4.10217512 18.8477592,3.73463297 C18.6447716,3.24457687 18.2554216,2.8552289 17.7653656,2.65224099 C17.3978233,2.5 16.9318833,2.5 16,2.5"></path>
            </g>
        </g>
    </g>
</svg>