<?xml version="1.0" encoding="UTF-8"?>
<svg width="24px" height="24px" viewBox="0 0 24 24" version="1.1" xmlns="http://www.w3.org/2000/svg" xmlns:xlink="http://www.w3.org/1999/xlink">
    <title>route</title>
    <g id="Line-icons" stroke="none" stroke-width="1" fill="none" fill-rule="evenodd" stroke-linecap="round" stroke-linejoin="round">
        <g id="Maps-&amp;-travel" transform="translate(-880, -236)" fill-rule="nonzero" stroke="#000000" stroke-width="2">
            <g id="Icon" transform="translate(882, 238)">
                <path d="M3,6 C4.65685415,6 6,4.65685415 6,3 C6,1.34314573 4.65685415,0 3,0 C1.34314573,0 0,1.34314573 0,3 C0,4.65685415 1.34314573,6 3,6 Z"></path>
                <path d="M17,20 C18.6568542,20 20,18.6568542 20,17 C20,15.3431457 18.6568542,14 17,14 C15.3431457,14 14,15.3431457 14,17 C14,18.6568542 15.3431457,20 17,20 Z"></path>
                <path d="M9.9343977,3 L9.9343977,3 L9.9343977,3 C12.9816427,3 14.5052652,3 15.0836372,3.54728913 C15.5835838,4.02036697 15.8051434,4.71728134 15.6701641,5.39221096 C15.5140133,6.17301583 14.2701035,7.05285454 11.7822847,8.81253052 L7.71771908,11.6874666 C5.22990417,13.4471416 3.98598766,14.3269854 3.82983541,15.107789 C3.6948576,15.7827187 3.91641665,16.4796333 4.41636276,16.9527111 C4.99473524,17.5 6.51835728,17.5 9.5656023,17.5 C10.0472918,17.5 10.4377783,17.1095135 10.4377783,16.627824 C10.4377783,16.6078037 10.4370889,16.5877894 10.4357115,16.5678165"></path>
            </g>
        </g>
    </g>
</svg>