<?xml version="1.0" encoding="UTF-8"?>
<svg width="24px" height="24px" viewBox="0 0 24 24" version="1.1" xmlns="http://www.w3.org/2000/svg" xmlns:xlink="http://www.w3.org/1999/xlink">
    <title>rows-01</title>
    <g id="Line-icons" stroke="none" stroke-width="1" fill="none" fill-rule="evenodd" stroke-linecap="round" stroke-linejoin="round">
        <g id="Layout" transform="translate(-880, -436)" fill-rule="nonzero" stroke="#000000" stroke-width="2">
            <g id="Icon" transform="translate(883, 439)">
                <path d="M14.8000002,7 C15.9201052,7 16.4801565,7 16.90798,6.78201389 C17.2843041,6.59026715 17.5902662,6.28430605 17.7820129,5.90798187 C18,5.48015836 18,4.92010558 18,3.80000043 L18,3.20000052 C18,2.0798955 18,1.51984304 17.7820129,1.09201956 C17.5902662,0.715695411 17.284306,0.409734309 16.9079819,0.217987552 C16.4801584,0 15.9201051,0 14.8000002,0 L3.20000029,0 C2.07989526,0 1.51984259,0 1.09201908,0.217986882 C0.715694934,0.409733608 0.409733847,0.715694696 0.21798709,1.09201884 C0,1.51984233 0,2.0798949 0,3.20000005 L0,3.79999995 C0,4.92010498 0,5.48015741 0.217986867,5.90798092 C0.409733593,6.28430507 0.715694696,6.59026618 1.09201884,6.78201294 C1.51984233,7 2.07989466,7 3.19999957,7 L14.8000002,7 Z"></path>
                <path d="M14.8000002,18 C15.9201052,18 16.4801565,18 16.90798,17.7820129 C17.2843041,17.5902662 17.5902662,17.284306 17.7820129,16.9079819 C18,16.4801584 18,15.9201053 18,14.8000002 L18,14.1999998 C18,13.0798948 18,12.5198426 17.7820129,12.0920191 C17.5902662,11.7156949 17.284306,11.4097338 16.9079819,11.2179871 C16.4801584,11 15.9201051,11 14.8000002,11 L3.20000029,11 C2.07989526,11 1.51984259,11 1.09201908,11.2179861 C0.715694934,11.4097328 0.409733847,11.715694 0.21798709,12.0920181 C0,12.5198416 0,13.0798947 0,14.1999998 L0,14.7999992 C0,15.9201043 0,16.4801565 0.217986867,16.90798 C0.409733593,17.2843041 0.715694696,17.5902662 1.09201884,17.7820129 C1.51984233,18 2.07989466,18 3.19999957,18 L14.8000002,18 Z"></path>
            </g>
        </g>
    </g>
</svg>