<?xml version="1.0" encoding="UTF-8"?>
<svg width="24px" height="24px" viewBox="0 0 24 24" version="1.1" xmlns="http://www.w3.org/2000/svg" xmlns:xlink="http://www.w3.org/1999/xlink">
    <title>rss-01</title>
    <g id="Line-icons" stroke="none" stroke-width="1" fill="none" fill-rule="evenodd" stroke-linecap="round" stroke-linejoin="round">
        <g id="Media-&amp;-devices" transform="translate(-608, -756)" fill-rule="nonzero" stroke="#000000" stroke-width="2">
            <g id="Icon" transform="translate(612, 760)">
                <path d="M0,7 C2.38694835,7 4.67613387,7.94821143 6.36396122,9.63603878 C8.05178857,11.3238661 9,13.6130517 9,16"></path>
                <path d="M0,0 C4.24346399,0 8.31312633,1.68570971 11.3137083,4.68629169 C14.3142903,7.68687367 16,11.756536 16,16"></path>
                <path d="M1,16 C1.55228472,16 2,15.5522847 2,15 C2,14.4477152 1.55228472,14 1,14 C0.447715223,14 0,14.4477152 0,15 C0,15.5522847 0.447715223,16 1,16 Z"></path>
            </g>
        </g>
    </g>
</svg>