<?xml version="1.0" encoding="UTF-8"?>
<svg width="24px" height="24px" viewBox="0 0 24 24" version="1.1" xmlns="http://www.w3.org/2000/svg" xmlns:xlink="http://www.w3.org/1999/xlink">
    <title>ruler</title>
    <g id="Line-icons" stroke="none" stroke-width="1" fill="none" fill-rule="evenodd" stroke-linecap="round" stroke-linejoin="round">
        <g id="Education" transform="translate(-880, -236)" fill-rule="nonzero" stroke="#000000" stroke-width="2">
            <g id="Icon" transform="translate(882.2071, 238.2071)">
                <path d="M14.2272081,0.358578265 C14.4252163,0.160570055 14.5242206,0.0615659468 14.6383848,0.0244717374 C14.7388065,-0.00815724581 14.8469803,-0.00815724581 14.947402,0.0244717374 C15.0615662,0.0615659468 15.1605702,0.160570174 15.3585787,0.358578652 L19.2272091,4.22720814 C19.4252173,4.42521635 19.5242213,4.52422058 19.5613155,4.63838482 C19.5939445,4.73880652 19.5939445,4.84697983 19.5613155,4.94740152 C19.5242213,5.06156576 19.4252156,5.16057022 19.2272072,5.35857868 L5.35857821,19.2272091 C5.16057,19.4252173 5.06156576,19.5242213 4.94740152,19.5613155 C4.84697983,19.5939445 4.73880652,19.5939445 4.63838482,19.5613155 C4.52422058,19.5242213 4.42521614,19.4252157 4.22720766,19.2272072 L0.358578265,15.3585787 C0.160570055,15.1605705 0.0615659468,15.0615662 0.0244717374,14.947402 C-0.00815724581,14.8469803 -0.00815724581,14.7388065 0.0244717374,14.6383848 C0.0615659468,14.5242206 0.160570189,14.4252166 0.358578652,14.2272081 L14.2272081,0.358578265 Z"></path>
                <path d="M13.7929335,4.79285765 L12.2929335,3.29285765 M10.7929335,7.79285765 L9.29293346,6.29285765 M7.79293346,10.7928581 L6.29293346,9.29285812 M3.2929337,12.2928581 L4.79293346,13.7928581"></path>
            </g>
        </g>
    </g>
</svg>