<?xml version="1.0" encoding="UTF-8"?>
<svg width="24px" height="24px" viewBox="0 0 24 24" version="1.1" xmlns="http://www.w3.org/2000/svg" xmlns:xlink="http://www.w3.org/1999/xlink">
    <title>save-02</title>
    <g id="Line-icons" stroke="none" stroke-width="1" fill="none" fill-rule="evenodd" stroke-linecap="round" stroke-linejoin="round">
        <g id="General" transform="translate(-608, -1556)" fill-rule="nonzero" stroke="#000000" stroke-width="2">
            <g id="Icon" transform="translate(611, 1559)">
                <path d="M0,4.79999971 C0,3.11984241 0,2.27976376 0.326980442,1.6380285 C0.614600539,1.0735423 1.0735423,0.614600539 1.6380285,0.326980442 C2.27976376,0 3.11984253,0 4.80000019,0 L11.6745167,0 C12.1636977,0 12.4082888,0 12.638464,0.0552601628 C12.8425364,0.104253624 13.0376253,0.185062267 13.2165699,0.294719666 C13.4184031,0.418403231 13.5913553,0.591354907 13.9372587,0.937258303 L17.0627422,4.06274271 C17.4086448,4.4086453 17.5815967,4.58159687 17.7052803,4.7834301 C17.8149377,4.96237472 17.8957468,5.15746406 17.9447403,5.3615365 C18,5.59171164 18,5.83630204 18,6.32548332 L18,13.1999998 C18,14.8801577 18,15.7202356 17.6730194,16.3619709 C17.3853993,16.9264571 16.9264571,17.3853993 16.3619709,17.6730194 C15.7202356,18 14.8801575,18 13.1999998,18 L4.79999971,18 C3.11984241,18 2.27976376,18 1.6380285,17.6730194 C1.0735423,17.3853993 0.614600539,16.9264571 0.326980442,16.3619709 C0,15.7202356 0,14.8801575 0,13.1999998 L0,4.79999971 Z"></path>
                <path d="M8.51320377,5 L5.5999999,5 L5.5999999,5 C5.03994751,5 4.75992131,5 4.54600954,4.89100647 C4.35784748,4.79513311 4.2048669,4.64215279 4.10899353,4.45399046 C4,4.24007893 4,3.96005249 4,3.4000001 L4,0 M14,18 L14,11.6000004 C14,11.0399479 14,10.7599208 13.8910065,10.5460091 C13.7951336,10.357847 13.6421528,10.2048669 13.4539909,10.1089935 C13.2400789,10 12.9600525,10 12.3999996,10 L5.5999999,10 C5.03994739,10 4.75992131,10 4.54600954,10.1089935 C4.35784748,10.2048669 4.2048669,10.357847 4.10899353,10.5460091 C4,10.7599208 4,11.039948 4,11.6000004 L4,18"></path>
            </g>
        </g>
    </g>
</svg>