<?xml version="1.0" encoding="UTF-8"?>
<svg width="24px" height="24px" viewBox="0 0 24 24" version="1.1" xmlns="http://www.w3.org/2000/svg" xmlns:xlink="http://www.w3.org/1999/xlink">
    <title>save-03</title>
    <g id="Line-icons" stroke="none" stroke-width="1" fill="none" fill-rule="evenodd" stroke-linecap="round" stroke-linejoin="round">
        <g id="General" transform="translate(-608, -1596)" fill-rule="nonzero" stroke="#000000" stroke-width="2">
            <g id="Icon" transform="translate(611, 1599)">
                <path d="M0,6.69999981 C0,5.57989478 0,5.01984257 0.217986971,4.59201908 C0.409733713,4.21569493 0.715694815,3.9097338 1.09201896,3.71798706 C1.51984245,3.5 2.07989514,3.5 3.20000029,3.5 L10.8372583,3.5 C11.0818489,3.5 11.2041444,3.5 11.319232,3.52763009 C11.4212682,3.55212682 11.5188126,3.59253115 11.608285,3.64735985 C11.7092016,3.70920163 11.7956772,3.79567742 11.9686289,3.96862912 L14.0313711,6.03137064 C14.2043229,6.20432243 14.2907984,6.29079843 14.3526402,6.39171505 C14.4074689,6.48118736 14.4478734,6.57873179 14.4723701,6.68076801 C14.5,6.79585558 14.5,6.91815101 14.5,7.16274166 L14.5,14.8000002 C14.5,15.9201049 14.5,16.4801584 14.2820129,16.9079819 C14.0902662,17.284306 13.7843051,17.5902662 13.4079809,17.7820129 C12.9801574,18 12.4201052,18 11.3000002,18 L3.20000005,18 C2.07989502,18 1.51984245,18 1.09201896,17.7820129 C0.715694815,17.5902662 0.409733713,17.284306 0.217986971,16.9079819 C0,16.4801584 0,15.9201052 0,14.8000002 L0,6.69999981 Z"></path>
                <path d="M11.2426407,0 L11.6745167,0 L11.6745167,0 C12.1636982,0 12.408289,0 12.638464,0.0552601628 C12.842536,0.104253627 13.0376253,0.185062259 13.2165699,0.294719666 C13.4184036,0.418403238 13.5913553,0.591354907 13.9372587,0.937258303 L17.0627441,4.06274271 C17.4086466,4.40864563 17.5815964,4.58159685 17.7052803,4.7834301 C17.8149376,4.96237469 17.8957462,5.15746403 17.9447403,5.3615365 C18,5.59171152 18,5.83630228 18,6.32548332 L18,6.75735931 C18,8.41421356 16.6568542,9.75735931 15,9.75735931 C14.2043505,9.75735931 13.4412888,9.44128879 12.8786797,8.87867966 M6.2403988,7 L5.5999999,7 L5.5999999,7 C5.03994751,7 4.75992131,7 4.54600954,6.89100647 C4.35784748,6.79513311 4.2048669,6.64215255 4.10899353,6.45399046 C4,6.24007869 4,5.96005261 4,5.4000001 L4,5.32167316 C4,4.76938841 4.44771525,4.32167316 5,4.32167316 C5.19018402,4.32167316 5.37642456,4.37590654 5.53687549,4.47801168 M10.5,18 L10.5,13.6000004 C10.5,13.0399477 10.5,12.7599208 10.3910065,12.5460091 C10.2951331,12.357847 10.1421533,12.2048669 9.95399094,12.1089935 C9.7400794,12 9.46005201,12 8.89999962,12 L5.5999999,12 C5.03994739,12 4.75992131,12 4.54600954,12.1089935 C4.35784748,12.2048669 4.2048669,12.357847 4.10899353,12.5460091 C4,12.7599208 4,13.039948 4,13.6000004 L4,18"></path>
            </g>
        </g>
    </g>
</svg>