<?xml version="1.0" encoding="UTF-8"?>
<svg width="24px" height="24px" viewBox="0 0 24 24" version="1.1" xmlns="http://www.w3.org/2000/svg" xmlns:xlink="http://www.w3.org/1999/xlink">
    <title>scale-01</title>
    <g id="Line-icons" stroke="none" stroke-width="1" fill="none" fill-rule="evenodd" stroke-linecap="round" stroke-linejoin="round">
        <g id="Editor" transform="translate(-880, -236)" fill-rule="nonzero" stroke="#000000" stroke-width="2">
            <g id="Icon" transform="translate(882, 238)">
                <path d="M0,14.8000002 C0,13.1198425 0,12.2797634 0.326980442,11.6380281 C0.614600539,11.0735419 1.0735423,10.6146007 1.6380285,10.3269806 C2.27976376,10 3.11984253,10 4.80000019,10 L5.19999981,10 C6.88015747,10 7.7202366,10 8.36197186,10.3269806 C8.92645806,10.6146007 9.38539931,11.0735419 9.67301941,11.6380281 C10,12.2797634 10,13.1198425 10,14.8000002 L10,15.1999998 C10,16.8801575 10,17.7202356 9.67301941,18.3619709 C9.38539931,18.9264571 8.92645806,19.3853993 8.36197186,19.6730194 C7.7202366,20 6.88015747,20 5.19999981,20 L4.80000019,20 C3.11984253,20 2.2797637,20 1.6380285,19.6730194 C1.07354224,19.3853989 0.614600539,18.9264584 0.326980442,18.3619709 C0,17.7202358 0,16.8801575 0,15.1999998 L0,14.8000002 Z"></path>
                <path d="M4.80000019,20 L12,20 M0,8 L0,15.1999998 M12,0 L8,0 M20,12 L20,8 M16,20 C16.9299717,20 17.3949566,20 17.7764568,19.8977776 C18.8117332,19.6203766 19.6203766,18.8117332 19.8977776,17.7764568 C20,17.3949566 20,16.9299717 20,16 M20,4 C20,3.07002831 20,2.60504246 19.8977776,2.22354293 C19.6203766,1.18826675 18.8117332,0.379623927 17.7764568,0.10222251 C17.3949566,0 16.9299717,0 16,0 M4,0 C3.07002831,0 2.60504246,0 2.22354293,0.10222251 C1.18826675,0.379623927 0.379623927,1.18826675 0.10222251,2.22354293 C0,2.60504246 0,3.07002831 0,4"></path>
            </g>
        </g>
    </g>
</svg>