<?xml version="1.0" encoding="UTF-8"?>
<svg width="24px" height="24px" viewBox="0 0 24 24" version="1.1" xmlns="http://www.w3.org/2000/svg" xmlns:xlink="http://www.w3.org/1999/xlink">
    <title>scale-03</title>
    <g id="Line-icons" stroke="none" stroke-width="1" fill="none" fill-rule="evenodd" stroke-linecap="round" stroke-linejoin="round">
        <g id="Editor" transform="translate(-880, -316)" fill-rule="nonzero" stroke="#000000" stroke-width="2">
            <g id="Icon" transform="translate(883, 319)">
                <path d="M13.2000008,0 L4.80000019,0 C3.11984253,0 2.2797637,0 1.6380285,0.326980442 C1.07354224,0.614600539 0.614600539,1.07354224 0.326980442,1.6380285 C0,2.2797637 0,3.11984253 0,4.80000019 L0,13.2000008 C0,14.8801575 0,15.7202368 0.326980442,16.3619709 C0.614600539,16.9264584 1.07354224,17.3853989 1.6380285,17.6730194 C2.2797637,18 3.11984229,18 4.79999971,18 L13.1999998,18 C14.8801575,18 15.7202368,18 16.3619709,17.6730194 C16.9264584,17.3853989 17.3853989,16.9264584 17.6730194,16.3619709 C18,15.7202368 18,14.8801575 18,13.2000008 L18,4.80000019 C18,3.11984253 18,2.2797637 17.6730194,1.6380285 C17.3853989,1.07354224 16.9264584,0.614600539 16.3619709,0.326980442 C15.7202368,0 14.8801575,0 13.2000008,0 Z"></path>
                <path d="M9,3.19999981 C9,2.0798949 9,1.51984245 9.21798706,1.09201896 C9.4097338,0.715694815 9.71569493,0.409733713 10.0920191,0.217986971 C10.5198426,0 11.0798948,0 12.1999998,0 L13.2000008,0 C14.8801575,0 15.7202368,0 16.3619709,0.326980442 C16.9264584,0.614600539 17.3853989,1.07354224 17.6730194,1.6380285 C18,2.2797637 18,3.11984253 18,4.80000019 L18,5.80000019 C18,6.9201051 18,7.48015743 17.7820129,7.90798092 C17.5902662,8.28430507 17.284306,8.5902662 16.9079819,8.78201294 C16.4801584,9 15.9201052,9 14.8000002,9 L12.1999998,9 C11.0798949,9 10.5198426,9 10.0920191,8.78201294 C9.71569493,8.5902662 9.4097338,8.28430507 9.21798706,7.90798092 C9,7.48015743 9,6.92010474 9,5.79999971 L9,3.19999981 Z"></path>
                <polyline points="9 14 4 14 4.00000048 9"></polyline>
                <line x1="9.5" y1="8.5" x2="4" y2="14"></line>
            </g>
        </g>
    </g>
</svg>