<?xml version="1.0" encoding="UTF-8"?>
<svg width="24px" height="24px" viewBox="0 0 24 24" version="1.1" xmlns="http://www.w3.org/2000/svg" xmlns:xlink="http://www.w3.org/1999/xlink">
    <title>scale-02</title>
    <g id="Line-icons" stroke="none" stroke-width="1" fill="none" fill-rule="evenodd" stroke-linecap="round" stroke-linejoin="round">
        <g id="Editor" transform="translate(-880, -276)" fill-rule="nonzero" stroke="#000000" stroke-width="2">
            <g id="Icon" transform="translate(883, 279)">
                <path d="M0,12.1999998 C0,11.0798949 0,10.5198426 0.217986971,10.0920191 C0.409733713,9.71569493 0.715694815,9.4097338 1.09201896,9.21798706 C1.51984245,9 2.07989502,9 3.20000005,9 L5.80000019,9 C6.9201051,9 7.48015743,9 7.90798092,9.21798706 C8.28430507,9.4097338 8.5902662,9.71569493 8.78201294,10.0920191 C9,10.5198426 9,11.0798948 9,12.1999998 L9,14.8000002 C9,15.9201051 9,16.4801584 8.78201294,16.9079819 C8.5902662,17.284306 8.28430507,17.5902662 7.90798092,17.7820129 C7.48015743,18 6.92010474,18 5.79999971,18 L3.19999981,18 C2.0798949,18 1.51984245,18 1.09201896,17.7820129 C0.715694815,17.5902662 0.409733713,17.284306 0.217986971,16.9079819 C0,16.4801584 0,15.9201052 0,14.8000002 L0,12.1999998 Z"></path>
                <polyline points="9 4 14 4 14 9"></polyline>
                <path d="M13.1999998,18 L13.1999998,18 L13.1999998,18 C14.8801575,18 15.7202368,18 16.3619709,17.6730194 C16.9264584,17.3853989 17.3853989,16.9264584 17.6730194,16.3619709 C18,15.7202368 18,14.8801575 18,13.2000008 L18,4.80000019 C18,3.11984253 18,2.2797637 17.6730194,1.6380285 C17.3853989,1.07354224 16.9264584,0.614600539 16.3619709,0.326980442 C15.7202368,0 14.8801575,0 13.2000008,0 L4.80000019,0 C3.11984253,0 2.2797637,0 1.6380285,0.326980442 C1.07354224,0.614600539 0.614600539,1.07354224 0.326980442,1.6380285 C0,2.2797637 0,3.11984253 0,4.80000019 C1.56825486e-17,4.92805792 0.0508707341,5.05087073 0.141421221,5.14142122 M8.5,9.5 L14,4"></path>
            </g>
        </g>
    </g>
</svg>