<?xml version="1.0" encoding="UTF-8"?>
<svg width="24px" height="24px" viewBox="0 0 24 24" version="1.1" xmlns="http://www.w3.org/2000/svg" xmlns:xlink="http://www.w3.org/1999/xlink">
    <title>send-03</title>
    <g id="Line-icons" stroke="none" stroke-width="1" fill="none" fill-rule="evenodd" stroke-linecap="round" stroke-linejoin="round">
        <g id="Communication" transform="translate(-880, -636)" fill-rule="nonzero" stroke="#000000" stroke-width="2">
            <g id="Icon" transform="translate(882.3467, 639.4309)">
                <path d="M0.227694362,1.29839778 C0.0462206155,0.751643062 -0.0445162449,0.478265673 0.0215283614,0.309871227 C0.0788851772,0.163628101 0.20163621,0.0528425435 0.352975607,0.0107326405 C0.52723825,-0.0377556151 0.789910376,0.0804462433 1.31525481,0.316849977 L18.032547,7.83959198 C18.5468744,8.0710381 18.8040392,8.18676108 18.8835239,8.34752274 C18.9525791,8.4871902 18.9525789,8.65106671 18.8835239,8.79073429 C18.8040395,8.95149609 18.5468766,9.06721956 18.0325489,9.29866695 L1.32108128,16.8188248 C0.794147551,17.0559449 0.530680656,17.1745052 0.356245011,17.125824 C0.204763561,17.0835487 0.0820002053,16.9724637 0.0248409752,16.8259487 C-0.0409796666,16.6572321 0.0507371724,16.3832635 0.234170824,15.8353243 L2.5690906,8.86062813 C2.60050078,8.766802 2.61620577,8.71988904 2.62248135,8.67188358 C2.62804999,8.62928587 2.62810557,8.58614809 2.62264657,8.54353619 C2.61649455,8.49551474 2.60091027,8.4485617 2.56974173,8.35465527 L0.227694362,1.29839778 Z"></path>
                <line x1="8.1537466" y1="8.56912613" x2="2.65374684" y2="8.56912613"></line>
            </g>
        </g>
    </g>
</svg>