<?xml version="1.0" encoding="UTF-8"?>
<svg width="24px" height="24px" viewBox="0 0 24 24" version="1.1" xmlns="http://www.w3.org/2000/svg" xmlns:xlink="http://www.w3.org/1999/xlink">
    <title>send-01</title>
    <g id="Line-icons" stroke="none" stroke-width="1" fill="none" fill-rule="evenodd" stroke-linecap="round" stroke-linejoin="round">
        <g id="Communication" transform="translate(-880, -556)" fill-rule="nonzero" stroke="#000000" stroke-width="2">
            <g id="Icon" transform="translate(882.377, 558.3905)">
                <path d="M1.03649962,8.35385418 C0.441154003,8.12233089 0.143481292,8.00656909 0.056575276,7.8397665 C-0.0187623948,7.69516754 -0.0188637227,7.52291758 0.0563037843,7.37823009 C0.1430135,7.21132538 0.440550566,7.09521303 1.03562474,6.86298895 L17.9233723,0.272648722 C18.4605516,0.0630177706 18.7291402,-0.0417977097 18.9007683,0.0155377863 C19.0498171,0.0653302735 19.166785,0.182298407 19.2165775,0.331347257 C19.273913,0.502975345 19.1690981,0.771565318 18.9594669,1.30874515 L12.3691273,18.1964912 C12.1369031,18.7915657 12.0207913,19.0891021 11.8538866,19.1758118 C11.7091991,19.2509793 11.5369482,19.2508786 11.3923492,19.1755409 C11.2255467,19.0886349 11.1097854,18.7909608 10.8782616,18.1956139 L8.25014973,11.4376125 C8.20315298,11.3167638 8.17965434,11.2563395 8.14336109,11.2054586 C8.11119316,11.1603612 8.07175454,11.1209226 8.0266571,11.0887547 C7.97577622,11.0524614 7.91535223,11.0289629 7.79450321,10.981966 L1.03649962,8.35385418 Z"></path>
                <line x1="8.12256908" y1="11.1095476" x2="18.6225681" y2="0.609547555"></line>
            </g>
        </g>
    </g>
</svg>