<?xml version="1.0" encoding="UTF-8"?>
<svg width="24px" height="24px" viewBox="0 0 24 24" version="1.1" xmlns="http://www.w3.org/2000/svg" xmlns:xlink="http://www.w3.org/1999/xlink">
    <title>send-02</title>
    <g id="Line-icons" stroke="none" stroke-width="1" fill="none" fill-rule="evenodd" stroke-linecap="round" stroke-linejoin="round">
        <g id="Communication" transform="translate(-880, -596)" fill-rule="nonzero" stroke="#000000" stroke-width="2">
            <g id="Icon" transform="translate(883.4336, 598.7184)">
                <path d="M1.29986262,18.7063713 C0.752075911,18.8881866 0.478182599,18.9790938 0.309693336,18.9129181 C0.1633728,18.8554493 0.0525988592,18.7325121 0.0106291128,18.5810165 C-0.0376993837,18.4065682 0.0811479092,18.1435926 0.318842471,17.6176395 L7.87334251,0.901596785 C8.10561539,0.387640476 8.22175165,0.1306623 8.38264084,0.0514359996 C8.5224191,-0.0173946917 8.68629497,-0.0171315148 8.82585144,0.0521477684 C8.98648533,0.131890409 9.10179588,0.389239967 9.33241653,0.903939128 L16.8208733,17.6166744 C17.056701,18.1429948 17.174615,18.4061548 17.1257744,18.5804043 C17.0833593,18.7317292 16.9722638,18.8543084 16.8258266,18.911356 C16.6572053,18.9770458 16.3837529,18.8855014 15.8368464,18.7024136 L8.85836029,16.3662262 C8.76453462,16.3348162 8.71762203,16.3191113 8.6696167,16.3128357 C8.6270191,16.307267 8.5838811,16.3072108 8.5412693,16.3126698 C8.49324797,16.3188217 8.44629461,16.3344056 8.35238838,16.3655739 L1.29986262,18.7063713 Z"></path>
                <line x1="8.5668602" y1="16.2815704" x2="8.5668602" y2="9.28157043"></line>
            </g>
        </g>
    </g>
</svg>