<?xml version="1.0" encoding="UTF-8"?>
<svg width="24px" height="24px" viewBox="0 0 24 24" version="1.1" xmlns="http://www.w3.org/2000/svg" xmlns:xlink="http://www.w3.org/1999/xlink">
    <title>server-04</title>
    <g id="Line-icons" stroke="none" stroke-width="1" fill="none" fill-rule="evenodd" stroke-linecap="round" stroke-linejoin="round">
        <g id="Development" transform="translate(-880, -316)" fill-rule="nonzero" stroke="#000000" stroke-width="2">
            <g id="Icon" transform="translate(882, 318.5)">
                <path d="M0,8.5 C0,6.56700349 1.56700349,5 3.5,5 L16.5,5 C18.4329965,5 20,6.56700349 20,8.5 C20,10.4329965 18.4329965,12 16.5,12 L3.5,12 C1.56700373,12 0,10.4329965 0,8.5 Z"></path>
                <path d="M0,15.5 C0,13.5670035 1.56700373,12 3.5,12 L16.5,12 C18.4329965,12 20,13.5670035 20,15.5 C20,17.4329965 18.4329965,19 16.5,19 L3.5,19 C1.56700373,19 0,17.4329965 0,15.5 Z"></path>
                <path d="M19.5784872,4.62789598 L19.5255795,4.20463371 L19.5255795,4.20463371 C19.3395004,2.71601796 19.24646,1.97169232 18.8961449,1.41079676 C18.5874958,0.916618049 18.1416245,0.523010433 17.6129799,0.27804175 C17.0129623,0 16.2628555,0 14.7626457,0 L5.23735476,0 C3.73714399,0 2.98703837,0 2.38702059,0.27804175 C1.85837507,0.523010433 1.41250336,0.916618049 1.10385597,1.41079676 C0.753538191,1.97169423 0.660499096,2.71600747 0.474420786,4.20463371 L0.421513025,4.6278958 C0.216005548,6.27195561 1.38218264,7.77132615 3.02624245,7.97683363 C3.14967693,7.99226294 3.27395158,8 3.39834666,8 M4.01000023,8.5 L4,8.5 M4.01000023,15.5 L4,15.5 M16,8.5 L10,8.5 M10,15.5 L16,15.5"></path>
            </g>
        </g>
    </g>
</svg>