<?xml version="1.0" encoding="UTF-8"?>
<svg width="24px" height="24px" viewBox="0 0 24 24" version="1.1" xmlns="http://www.w3.org/2000/svg" xmlns:xlink="http://www.w3.org/1999/xlink">
    <title>server-06</title>
    <g id="Line-icons" stroke="none" stroke-width="1" fill="none" fill-rule="evenodd" stroke-linecap="round" stroke-linejoin="round">
        <g id="Development" transform="translate(-880, -396)" fill-rule="nonzero" stroke="#000000" stroke-width="2">
            <g id="Icon" transform="translate(882, 398)">
                <path d="M10,18 C14.4182787,18 18,14.4182787 18,10 C18,5.58172226 14.4182787,2 10,2 C5.58172226,2 2,5.58172226 2,10 C2,14.4182787 5.58172226,18 10,18 Z"></path>
                <path d="M10,2 C12.001024,4.19068217 13.1387532,7.03362703 13.200551,10 C13.1387532,12.966373 12.001024,15.8093178 10,18 C7.99897599,15.8093178 6.8623492,12.966373 6.80055141,10 C6.8623492,7.03362703 7.99897599,4.19068217 10,2 Z"></path>
                <path d="M2,20 C3.10456967,20 4,19.1045697 4,18 C4,16.8954306 3.10456967,16 2,16 C0.895430565,16 0,16.8954306 0,18 C0,19.1045697 0.895430565,20 2,20 Z"></path>
                <path d="M18,20 C19.1045697,20 20,19.1045697 20,18 C20,16.8954306 19.1045697,16 18,16 C16.8954306,16 16,16.8954306 16,18 C16,19.1045697 16.8954306,20 18,20 Z"></path>
                <path d="M2,4 C3.10456967,4 4,3.10456967 4,2 C4,0.895430565 3.10456967,0 2,0 C0.895430565,0 0,0.895430565 0,2 C0,3.10456967 0.895430565,4 2,4 Z"></path>
                <path d="M18,4 C19.1045697,4 20,3.10456967 20,2 C20,0.895430565 19.1045697,0 18,0 C16.8954306,0 16,0.895430565 16,2 C16,3.10456967 16.8954306,4 18,4 Z"></path>
                <line x1="2" y1="10" x2="18" y2="10"></line>
            </g>
        </g>
    </g>
</svg>