<?xml version="1.0" encoding="UTF-8"?>
<svg width="24px" height="24px" viewBox="0 0 24 24" version="1.1" xmlns="http://www.w3.org/2000/svg" xmlns:xlink="http://www.w3.org/1999/xlink">
    <title>server-02</title>
    <g id="Line-icons" stroke="none" stroke-width="1" fill="none" fill-rule="evenodd" stroke-linecap="round" stroke-linejoin="round">
        <g id="Development" transform="translate(-880, -236)" fill-rule="nonzero" stroke="#000000" stroke-width="2">
            <g id="Icon" transform="translate(882, 240)">
                <path d="M0,4 C0,1.79086113 1.79086113,0 4,0 L16,0 C18.2091389,0 20,1.79086113 20,4 C20,6.20913887 18.2091389,8 16,8 L4,8 C1.79086089,8 0,6.20913887 0,4 Z"></path>
                <path d="M0,12 C0,9.79086113 1.79086089,8 4,8 L16,8 C18.2091389,8 20,9.79086113 20,12 C20,14.2091389 18.2091389,16 16,16 L4,16 C1.79086089,16 0,14.2091389 0,12 Z"></path>
                <path d="M4.01000023,4 L4,4 M4,12 L4.01000023,12"></path>
            </g>
        </g>
    </g>
</svg>