<?xml version="1.0" encoding="UTF-8"?>
<svg width="24px" height="24px" viewBox="0 0 24 24" version="1.1" xmlns="http://www.w3.org/2000/svg" xmlns:xlink="http://www.w3.org/1999/xlink">
    <title>server-03</title>
    <g id="Line-icons" stroke="none" stroke-width="1" fill="none" fill-rule="evenodd" stroke-linecap="round" stroke-linejoin="round">
        <g id="Development" transform="translate(-880, -276)" fill-rule="nonzero" stroke="#000000" stroke-width="2">
            <g id="Icon" transform="translate(882, 279)">
                <path d="M0,14.5 C0,12.5670035 1.56700349,11 3.5,11 L16.5,11 C18.4329965,11 20,12.5670035 20,14.5 C20,16.4329965 18.4329965,18 16.5,18 L3.5,18 C1.56700373,18 0,16.4329965 0,14.5 Z"></path>
                <path d="M19.7788683,11.2935935 L19.3082581,4.4697504 L19.3082581,4.4697504 C19.1996574,2.89503551 19.1453571,2.10767817 18.8040657,1.51082182 C18.503582,0.985332072 18.051157,0.563035369 17.5062389,0.299418569 C16.8873158,0 16.0980873,0 14.5196323,0 L5.48036718,0 C3.90191221,0 3.11268449,0 2.49376082,0.299418569 C1.94884253,0.563035369 1.49641883,0.985332072 1.19593513,1.51082182 C0.854642868,2.10767817 0.800342441,2.89503431 0.691741586,4.46974707 L0.221131469,11.2935937 C0.10713643,12.9465218 1.35468813,14.3788959 3.00761618,14.492891 C3.07631629,14.4976289 3.14515916,14.5 3.21402245,14.5 M4.01000023,14.5 L4,14.5 M10,14.5 L16,14.5"></path>
            </g>
        </g>
    </g>
</svg>