<?xml version="1.0" encoding="UTF-8"?>
<svg width="24px" height="24px" viewBox="0 0 24 24" version="1.1" xmlns="http://www.w3.org/2000/svg" xmlns:xlink="http://www.w3.org/1999/xlink">
    <title>server-05</title>
    <g id="Line-icons" stroke="none" stroke-width="1" fill="none" fill-rule="evenodd" stroke-linecap="round" stroke-linejoin="round">
        <g id="Development" transform="translate(-880, -356)" fill-rule="nonzero" stroke="#000000" stroke-width="2">
            <g id="Icon" transform="translate(883, 358)">
                <path d="M9,14 C12.8659935,14 16,10.8659935 16,7 C16,3.1340065 12.8659935,0 9,0 C5.1340065,0 2,3.1340065 2,7 C2,10.8659935 5.1340065,14 9,14 Z"></path>
                <path d="M9,0 C10.750896,1.91684687 11.7468379,4.40442371 11.8009109,7 C11.7468379,9.59557629 10.750896,12.0831531 9,14 C7.24910402,12.0831531 6.25498458,9.59557629 6.20091152,7 C6.25498458,4.40442371 7.24910402,1.91684687 9,0 Z"></path>
                <path d="M9,20 C10.1045697,20 11,19.1045697 11,18 C11,16.8954306 10.1045697,16 9,16 C7.89543056,16 7,16.8954306 7,18 C7,19.1045697 7.89543056,20 9,20 Z"></path>
                <path d="M16,7 L2,7 M0,18 L7,18 M11,18 L18,18 M9,14 L9,16"></path>
            </g>
        </g>
    </g>
</svg>