<?xml version="1.0" encoding="UTF-8"?>
<svg width="24px" height="24px" viewBox="0 0 24 24" version="1.1" xmlns="http://www.w3.org/2000/svg" xmlns:xlink="http://www.w3.org/1999/xlink">
    <title>server-01</title>
    <g id="Line-icons" stroke="none" stroke-width="1" fill="none" fill-rule="evenodd" stroke-linecap="round" stroke-linejoin="round">
        <g id="Development" transform="translate(-880, -196)" fill-rule="nonzero" stroke="#000000" stroke-width="2">
            <g id="Icon" transform="translate(882, 198)">
                <path d="M0,3.19999981 C0,2.0798949 0,1.51984245 0.217986971,1.09201896 C0.409733713,0.715694815 0.715694815,0.409733713 1.09201896,0.217986971 C1.51984245,0 2.07989478,0 3.19999981,0 L16.7999992,0 C17.9201046,0 18.4801584,0 18.9079819,0.217986971 C19.284306,0.409733713 19.5902662,0.715694815 19.7820129,1.09201896 C20,1.51984245 20,2.07989502 20,3.20000005 L20,4.80000019 C20,5.9201051 20,6.48015743 19.7820129,6.90798092 C19.5902662,7.28430507 19.284306,7.5902662 18.9079819,7.78201294 C18.4801584,8 17.9201043,8 16.7999992,8 L3.20000052,8 C2.07989514,8 1.51984245,8 1.09201896,7.78201294 C0.715694815,7.5902662 0.409733713,7.28430507 0.217986971,6.90798092 C0,6.48015743 0,5.92010522 0,4.80000019 L0,3.19999981 Z"></path>
                <path d="M0,15.1999998 C0,14.0798949 0,13.5198426 0.217986971,13.0920191 C0.409733713,12.7156949 0.715694815,12.4097338 1.09201896,12.2179871 C1.51984245,12 2.07989478,12 3.19999981,12 L16.7999992,12 C17.9201046,12 18.4801584,12 18.9079819,12.2179871 C19.284306,12.4097338 19.5902662,12.7156949 19.7820129,13.0920191 C20,13.5198426 20,14.0798948 20,15.1999998 L20,16.7999992 C20,17.9201041 20,18.4801584 19.7820129,18.9079819 C19.5902662,19.284306 19.284306,19.5902662 18.9079819,19.7820129 C18.4801584,20 17.9201043,20 16.7999992,20 L3.20000052,20 C2.07989514,20 1.51984245,20 1.09201896,19.7820129 C0.715694815,19.5902662 0.409733713,19.284306 0.217986971,18.9079819 C0,18.4801584 0,17.9201043 0,16.7999992 L0,15.1999998 Z"></path>
                <path d="M4.01000023,4 L4,4 M4,16 L4.01000023,16"></path>
            </g>
        </g>
    </g>
</svg>