<?xml version="1.0" encoding="UTF-8"?>
<svg width="24px" height="24px" viewBox="0 0 24 24" version="1.1" xmlns="http://www.w3.org/2000/svg" xmlns:xlink="http://www.w3.org/1999/xlink">
    <title>settings-04</title>
    <g id="Line-icons" stroke="none" stroke-width="1" fill="none" fill-rule="evenodd" stroke-linecap="round" stroke-linejoin="round">
        <g id="General" transform="translate(-608, -1916)" fill-rule="nonzero" stroke="#000000" stroke-width="2">
            <g id="Icon" transform="translate(611, 1921)">
                <path d="M15,6 C16.6568542,6 18,4.65685415 18,3 C18,1.34314573 16.6568542,0 15,0 C13.3431457,0 12,1.34314668 12,3 C12,4.65685511 13.3431457,6 15,6 Z"></path>
                <path d="M3,14 C4.65685415,14 6,12.6568542 6,11 C6,9.34314573 4.65685415,8 3,8 C1.34314573,8 0,9.34314573 0,11 C0,12.6568542 1.34314573,14 3,14 Z"></path>
                <path d="M12,3 L0,3 M6,11 L18,11"></path>
            </g>
        </g>
    </g>
</svg>