<?xml version="1.0" encoding="UTF-8"?>
<svg width="24px" height="24px" viewBox="0 0 24 24" version="1.1" xmlns="http://www.w3.org/2000/svg" xmlns:xlink="http://www.w3.org/1999/xlink">
    <title>settings-01</title>
    <g id="Line-icons" stroke="none" stroke-width="1" fill="none" fill-rule="evenodd" stroke-linecap="round" stroke-linejoin="round">
        <g id="General" transform="translate(-608, -1796)" fill-rule="nonzero" stroke="#000000" stroke-width="2">
            <g id="Icon" transform="translate(610, 1798)">
                <path d="M10,13 C11.6568542,13 13,11.6568542 13,10 C13,8.34314573 11.6568542,7 10,7 C8.34314573,7 7,8.34314573 7,10 C7,11.6568542 8.34314573,13 10,13 Z"></path>
                <path d="M16.727272,12.727273 C16.6062582,13.0014694 16.5701607,13.3056307 16.6236324,13.6005354 C16.6771042,13.8954401 16.8176942,14.167565 17.0272732,14.3818188 L17.0818195,14.4363632 C17.2508676,14.6052234 17.3849741,14.8057493 17.4764729,15.026473 C17.5679716,15.2471968 17.6150665,15.4837905 17.6150665,15.7227278 C17.6150665,15.961665 17.5679716,16.1982597 17.4764729,16.4189835 C17.3849741,16.6397072 17.2508676,16.8402303 17.0818195,17.0090904 C16.9129594,17.1781385 16.7124344,17.3122469 16.4917107,17.4037457 C16.2709869,17.4952444 16.0343922,17.5423393 15.795455,17.5423393 C15.5565177,17.5423393 15.319924,17.4952444 15.0992002,17.4037457 C14.8784765,17.3122469 14.6779506,17.1781385 14.5090904,17.0090904 L14.454546,16.954546 C14.2402922,16.744967 13.9681673,16.604377 13.6732626,16.5509052 C13.3783579,16.4974335 13.0741966,16.533531 12.8000002,16.6545448 C12.5311191,16.7697838 12.3018031,16.9611322 12.1402798,17.2050323 C11.9787565,17.4489325 11.8920759,17.7347399 11.8909092,18.0272732 L11.8909092,18.181818 C11.8909092,18.6640298 11.6993508,19.1264911 11.3583755,19.4674664 C11.0174003,19.8084416 10.554939,20 10.0727272,20 C9.59051538,20 9.12805408,19.8084416 8.78707886,19.4674664 C8.44610363,19.1264911 8.25454521,18.6640298 8.25454521,18.181818 L8.25454521,18.1000004 C8.24750677,17.7990963 8.15010801,17.5072681 7.97500992,17.262455 C7.79991183,17.0176419 7.55521408,16.8311668 7.27272749,16.727272 C6.99853107,16.6062582 6.69436979,16.5701607 6.39946508,16.6236324 C6.10456038,16.6771042 5.83243547,16.8176942 5.61818171,17.0272732 L5.5636363,17.0818195 C5.39477617,17.2508676 5.19425169,17.3849741 4.97352791,17.4764729 C4.75280413,17.5679716 4.51620996,17.6150665 4.2772727,17.6150665 C4.03833544,17.6150665 3.80174151,17.5679716 3.58101773,17.4764729 C3.36029395,17.3849741 3.15976924,17.2508676 2.9909091,17.0818195 C2.821861,16.9129594 2.68775377,16.7124344 2.59625506,16.4917107 C2.50475635,16.2709869 2.45766068,16.0343922 2.45766068,15.795455 C2.45766068,15.5565177 2.50475635,15.319924 2.59625506,15.0992002 C2.68775377,14.8784765 2.821861,14.6779506 2.9909091,14.5090904 L3.0454545,14.454546 C3.25503345,14.2402922 3.39562328,13.9681673 3.44909501,13.6732626 C3.50256674,13.3783579 3.46646827,13.0741966 3.34545445,12.8000002 C3.2302155,12.5311191 3.03886876,12.3018031 2.79496861,12.1402798 C2.55106845,11.9787565 2.26526067,11.8920759 1.97272742,11.8909092 L1.81818187,11.8909092 C1.33597004,11.8909092 0.873508394,11.6993508 0.532533169,11.3583755 C0.191557944,11.0174003 0,10.554939 0,10.0727272 C0,9.59051538 0.191557944,9.12805408 0.532533169,8.78707886 C0.873508394,8.44610363 1.33597004,8.25454521 1.81818187,8.25454521 L1.89999998,8.25454521 C2.20090404,8.24750677 2.49273169,8.15010801 2.73754478,7.97500992 C2.98235786,7.79991183 3.16883245,7.55521408 3.27272725,7.27272749 C3.39374106,6.99853107 3.42983954,6.69436979 3.37636781,6.39946508 C3.32289607,6.10456038 3.18230624,5.83243547 2.9727273,5.61818171 L2.9181819,5.5636363 C2.7491338,5.39477617 2.61502657,5.19425169 2.52352786,4.97352791 C2.43202915,4.75280413 2.38493347,4.51620996 2.38493347,4.2772727 C2.38493347,4.03833544 2.43202915,3.80174151 2.52352786,3.58101773 C2.61502657,3.36029395 2.7491338,3.15976924 2.9181819,2.9909091 C3.08704203,2.821861 3.28756675,2.68775377 3.50829053,2.59625506 C3.72901431,2.50475635 3.96560824,2.45766068 4.2045455,2.45766068 C4.44348276,2.45766068 4.68007693,2.50475635 4.9008007,2.59625506 C5.12152448,2.68775377 5.32204896,2.821861 5.4909091,2.9909091 L5.5454545,3.0454545 C5.75970827,3.25503345 6.0318327,3.39562328 6.3267374,3.44909501 C6.62164211,3.50256674 6.92580387,3.46646827 7.20000029,3.34545445 L7.27272749,3.34545445 C7.5416086,3.2302155 7.77092509,3.03886876 7.93244839,2.79496861 C8.09397168,2.55106845 8.18065129,2.26526067 8.18181801,1.97272742 L8.18181801,1.81818187 C8.18181801,1.33597004 8.37337643,0.873508394 8.71435165,0.532533169 C9.05532688,0.191557944 9.51778817,0 10,0 C10.4822118,0 10.9446731,0.191557944 11.2856483,0.532533169 C11.6266236,0.873508394 11.818182,1.33597004 11.818182,1.81818187 L11.818182,1.89999998 C11.8193487,2.19253322 11.9060293,2.47834149 12.0675526,2.72224164 C12.2290759,2.96614179 12.4583919,3.15748829 12.727273,3.27272725 C13.0014694,3.39374106 13.3056307,3.42983954 13.6005354,3.37636781 C13.8954401,3.32289607 14.167565,3.18230624 14.3818188,2.9727273 L14.4363632,2.9181819 C14.6052234,2.7491338 14.8057493,2.61502657 15.026473,2.52352786 C15.2471968,2.43202915 15.4837905,2.38493347 15.7227278,2.38493347 C15.961665,2.38493347 16.1982597,2.43202915 16.4189835,2.52352786 C16.6397072,2.61502657 16.8402303,2.7491338 17.0090904,2.9181819 C17.1781385,3.08704203 17.3122469,3.28756675 17.4037457,3.50829053 C17.4952444,3.72901431 17.5423393,3.96560824 17.5423393,4.2045455 C17.5423393,4.44348276 17.4952444,4.68007693 17.4037457,4.9008007 C17.3122469,5.12152448 17.1781385,5.32204896 17.0090904,5.4909091 L16.954546,5.5454545 C16.744967,5.75970827 16.604377,6.0318327 16.5509052,6.3267374 C16.4974335,6.62164211 16.533531,6.92580387 16.6545448,7.20000029 L16.6545448,7.27272749 C16.7697838,7.5416086 16.9611322,7.77092509 17.2050323,7.93244839 C17.4489325,8.09397168 17.7347399,8.18065129 18.0272732,8.18181801 L18.181818,8.18181801 C18.6640298,8.18181801 19.1264911,8.37337643 19.4674664,8.71435165 C19.8084416,9.05532688 20,9.51778817 20,10 C20,10.4822118 19.8084416,10.9446731 19.4674664,11.2856483 C19.1264911,11.6266236 18.6640298,11.818182 18.181818,11.818182 L18.1000004,11.818182 C17.8074671,11.8193487 17.5216597,11.9060293 17.2777596,12.0675526 C17.0338594,12.2290759 16.842511,12.4583919 16.727272,12.727273 Z"></path>
            </g>
        </g>
    </g>
</svg>