<?xml version="1.0" encoding="UTF-8"?>
<svg width="24px" height="24px" viewBox="0 0 24 24" version="1.1" xmlns="http://www.w3.org/2000/svg" xmlns:xlink="http://www.w3.org/1999/xlink">
    <title>settings-03</title>
    <g id="Line-icons" stroke="none" stroke-width="1" fill="none" fill-rule="evenodd" stroke-linecap="round" stroke-linejoin="round">
        <g id="General" transform="translate(-608, -1876)" fill-rule="nonzero" stroke="#000000" stroke-width="2">
            <g id="Icon" transform="translate(611, 1879)">
                <path d="M3.5,18 C1.56700373,18 0,16.4329963 0,14.5 C0,12.5670033 1.56700373,11 3.5,11 C5.43299675,11 7,12.5670033 7,14.5 C7,16.4329963 5.43299675,18 3.5,18 Z"></path>
                <path d="M14.5,7 C16.4329963,7 18,5.43299627 18,3.5 C18,1.56700325 16.4329963,0 14.5,0 C12.5670033,0 11,1.56700325 11,3.5 C11,5.43299627 12.5670033,7 14.5,7 Z"></path>
                <path d="M12.0505085,6 L2.5,6 C1.11928868,6 0,4.88071179 0,3.5 C0,2.11928821 1.11928833,1 2.5,1 L12.0505085,1 M5.9494915,17 L15.5,17 C16.8807116,17 18,15.8807118 18,14.5 C18,13.1192882 16.8807116,12 15.5,12 L5.9494915,12"></path>
            </g>
        </g>
    </g>
</svg>