<?xml version="1.0" encoding="UTF-8"?>
<svg width="24px" height="24px" viewBox="0 0 24 24" version="1.1" xmlns="http://www.w3.org/2000/svg" xmlns:xlink="http://www.w3.org/1999/xlink">
    <title>settings-02</title>
    <g id="Line-icons" stroke="none" stroke-width="1" fill="none" fill-rule="evenodd" stroke-linecap="round" stroke-linejoin="round">
        <g id="General" transform="translate(-608, -1836)" fill-rule="nonzero" stroke="#000000" stroke-width="2">
            <g id="Icon" transform="translate(611.045, 1838)">
                <path d="M6.35012054,17.3711128 L6.93456507,18.6855564 C7.10830435,19.07683 7.3918424,19.4092847 7.7507906,19.642601 C8.1097388,19.8759173 8.5286746,20 8.95678711,20 C9.38489962,20 9.80383542,19.8759173 10.1627836,19.642601 C10.5217318,19.4092847 10.8052694,19.07683 10.9790087,18.6855564 L11.5634527,17.3711128 C11.7714998,16.9047019 12.1214588,16.5158601 12.5634537,16.2600021 C13.0082382,16.0034365 13.5227849,15.8941486 14.0334539,15.9477797 L15.4634542,16.1000004 C15.8891242,16.1450254 16.3187158,16.0655923 16.70014,15.8713303 C17.0815642,15.6770682 17.3984378,15.3763203 17.6123428,15.0055552 C17.8265219,14.6350144 17.9285587,14.2102799 17.9060745,13.7828836 C17.8835904,13.3554873 17.7375513,12.9438013 17.4856758,12.5977783 L16.6390095,11.4344454 C16.3375303,11.0171307 16.1764462,10.5148152 16.1790085,10 C16.178915,9.48658776 16.3415123,8.98635083 16.6434536,8.57111168 L17.4901199,7.40777779 C17.7419954,7.06175485 17.8880345,6.65006971 17.9105186,6.22267342 C17.9330028,5.79527712 17.830966,5.3705408 17.616787,5 C17.4028819,4.62923488 17.0860083,4.32848933 16.7045841,4.13422728 C16.3231599,3.93996522 15.8935683,3.86053046 15.4678984,3.90555549 L14.0378981,4.05777788 C13.527229,4.11140895 13.0126823,4.0021213 12.5678978,3.74555564 C12.1250246,3.48825222 11.7749707,3.09735802 11.5678988,2.62888932 L10.9790087,1.31444466 C10.8052694,0.923171103 10.5217318,0.59071511 10.1627836,0.357398778 C9.80383542,0.124082446 9.38489962,0 8.95678711,0 C8.5286746,0 8.1097388,0.124082446 7.7507906,0.357398778 C7.3918424,0.59071511 7.10830435,0.923171103 6.93456507,1.31444466 L6.35012054,2.62888932 C6.14304855,3.09735802 5.79299322,3.48825222 5.35012007,3.74555564 C4.90533555,4.0021213 4.39078957,4.11140895 3.88012052,4.05777788 L2.44567561,3.90555549 C2.02000567,3.86053046 1.590415,3.93996522 1.20899081,4.13422728 C0.827566624,4.32848933 0.510691598,4.62923488 0.296786547,5 C0.0826075226,5.3705408 -0.0194301165,5.79527712 0.0030540463,6.22267342 C0.0255382091,6.65006971 0.171578079,7.06175485 0.423453569,7.40777779 L1.27011979,8.57111168 C1.57206109,8.98635083 1.73465805,9.48658776 1.73456454,10 C1.73465805,10.5134122 1.57206109,11.0136501 1.27011979,11.4288893 L0.423453569,12.5922232 C0.171578079,12.9382461 0.0255382091,13.3499312 0.0030540463,13.7773275 C-0.0194301165,14.2047238 0.0826075226,14.6294602 0.296786547,15 C0.510902554,15.3705731 0.827815503,15.6711586 1.20918477,15.8653927 C1.59055403,16.0596268 2.02003765,16.1391871 2.44567561,16.0944462 L3.87567592,15.9422226 C4.38634497,15.8885915 4.90089142,15.9978785 5.34567595,16.2544441 C5.79020396,16.5110185 6.1418848,16.9019929 6.35012054,17.3711128 Z"></path>
                <path d="M8.95499992,13 C10.6118541,13 11.9549999,11.6568542 11.9549999,10 C11.9549999,8.34314573 10.6118541,7 8.95499992,7 C7.29814565,7 5.95499992,8.34314573 5.95499992,10 C5.95499992,11.6568542 7.29814565,13 8.95499992,13 Z"></path>
            </g>
        </g>
    </g>
</svg>