<?xml version="1.0" encoding="UTF-8"?>
<svg width="24px" height="24px" viewBox="0 0 24 24" version="1.1" xmlns="http://www.w3.org/2000/svg" xmlns:xlink="http://www.w3.org/1999/xlink">
    <title>share-02</title>
    <g id="Line-icons" stroke="none" stroke-width="1" fill="none" fill-rule="evenodd" stroke-linecap="round" stroke-linejoin="round">
        <g id="General" transform="translate(-608, -1996)" fill-rule="nonzero" stroke="#000000" stroke-width="2">
            <g id="Icon" transform="translate(611, 1999)">
                <polyline points="13 4 9 0 5 4"></polyline>
                <path d="M4,8 C3.07002831,8 2.60504246,8 2.22354293,8.10222244 C1.18826675,8.37962386 0.379623927,9.18826699 0.10222251,10.2235432 C0,10.6050427 0,11.0700285 0,12 L0,13.1999998 C0,14.8801575 0,15.7202373 0.326980442,16.3619728 C0.614600539,16.9264584 1.07354224,17.3853998 1.6380285,17.6730194 C2.2797637,18 3.11984229,18 4.79999971,18 L13.1999998,18 C14.8801575,18 15.7202368,18 16.3619709,17.6730194 C16.9264584,17.3853998 17.3853989,16.9264584 17.6730194,16.3619728 C18,15.7202373 18,14.8801575 18,13.1999998 L18,12 C18,11.0700285 18,10.6050427 17.8977776,10.2235432 C17.6203766,9.18826699 16.8117332,8.37962386 15.7764568,8.10222244 C15.3949575,8 14.9299717,8 14,8 M9,0 L9,12"></path>
            </g>
        </g>
    </g>
</svg>