<?xml version="1.0" encoding="UTF-8"?>
<svg width="24px" height="24px" viewBox="0 0 24 24" version="1.1" xmlns="http://www.w3.org/2000/svg" xmlns:xlink="http://www.w3.org/1999/xlink">
    <title>share-06</title>
    <g id="Line-icons" stroke="none" stroke-width="1" fill="none" fill-rule="evenodd" stroke-linecap="round" stroke-linejoin="round">
        <g id="General" transform="translate(-880, -196)" fill-rule="nonzero" stroke="#000000" stroke-width="2">
            <g id="share-06" transform="translate(883, 199.5871)">
                <path d="M17.7913609,9.02029514 C18.0354815,8.81104888 18.1575416,8.706426 18.2022648,8.58192635 C18.2415181,8.47265378 18.2415181,8.35312614 18.2022648,8.24385357 C18.1575416,8.11935391 18.0354817,8.01473074 17.7913609,7.80548429 L9.32063293,0.544861197 C8.90040377,0.184664786 8.69028959,0.00456659027 8.51239872,0 C8.35779704,-0.00368073772 8.2101219,0.0642403215 8.11242008,0.18411833 C8,0.322054759 8,0.598791361 8,1.15226471 L8,5.44752121 C5.86532116,5.82097578 3.91159415,6.90264654 2.45970917,8.52675533 C0.876824975,10.2974014 0.0012346541,12.5888348 0,14.9638529 L0,15.5758524 C1.04934144,14.311759 2.35950613,13.2894039 3.84075785,12.5788107 C5.14669657,11.9523191 6.55841541,11.5812092 8,11.4834166 L8,15.6735134 C8,16.2269878 8,16.5037262 8.11242008,16.6416626 C8.2101219,16.7615406 8.35779704,16.8294612 8.51239872,16.8257809 C8.69028959,16.8212139 8.90040389,16.6411144 9.32063293,16.2809181 L17.7913609,9.02029514 Z" id="Icon"></path>
            </g>
        </g>
    </g>
</svg>