<?xml version="1.0" encoding="UTF-8"?>
<svg width="24px" height="24px" viewBox="0 0 24 24" version="1.1" xmlns="http://www.w3.org/2000/svg" xmlns:xlink="http://www.w3.org/1999/xlink">
    <title>shuffle-01</title>
    <g id="Line-icons" stroke="none" stroke-width="1" fill="none" fill-rule="evenodd" stroke-linecap="round" stroke-linejoin="round">
        <g id="Media-&amp;-devices" transform="translate(-608, -836)" fill-rule="nonzero" stroke="#000000" stroke-width="2">
            <g id="Icon" transform="translate(611, 839)">
                <polyline points="15 12 18 15 15 18"></polyline>
                <polyline points="15 0 18 3 15 6"></polyline>
                <path d="M0,3 L2.43111801,3 C3.37033129,3 3.83993793,3 4.26620388,3.12945247 C4.64357376,3.24405569 4.99464321,3.43194225 5.29932594,3.68236256 C5.6434865,3.96522939 5.90397978,4.35596907 6.42496014,5.13743973 C6.46801724,5.20202539 6.4505649,5.28928709 6.38597924,5.3323442 C6.34836817,5.35741825 6.30099268,5.36287214 6.25866789,5.34700035 M18,15 L15.568882,15 C14.6296692,15 14.1600628,15 13.7337961,14.8705473 C13.3564262,14.7559443 13.0053568,14.5680571 12.7006741,14.3176374 C12.356514,14.034771 12.0960188,13.6440268 11.5750408,12.8625603 C11.5319837,12.7979746 11.5494361,12.7107129 11.6140217,12.6676558 C11.6516328,12.6425818 11.6990083,12.6371279 11.7413331,12.6529997 M18,3 L15.568882,3 C14.6296692,3 14.1600618,3 13.7337961,3.12945247 C13.3564262,3.2440557 13.0053568,3.43194249 12.7006741,3.68236279 C12.356514,3.96522921 12.0960188,4.35597062 11.5750408,5.13743782 L6.42495918,12.8625612 C5.90397787,13.6440334 5.64348698,14.03477 5.29932594,14.3176374 C4.99464321,14.5680571 4.64357376,14.7559443 4.2662034,14.8705473 C3.83993769,15 3.37033105,15 2.43111777,15 C2.02459023,15 1.69503454,14.6704443 1.69503454,14.2639168 C1.69503454,14.017805 1.81803488,13.7879767 2.02281226,13.6514585"></path>
            </g>
        </g>
    </g>
</svg>