<?xml version="1.0" encoding="UTF-8"?>
<svg width="24px" height="24px" viewBox="0 0 24 24" version="1.1" xmlns="http://www.w3.org/2000/svg" xmlns:xlink="http://www.w3.org/1999/xlink">
    <title>signal-03</title>
    <g id="Line-icons" stroke="none" stroke-width="1" fill="none" fill-rule="evenodd" stroke-linecap="round" stroke-linejoin="round">
        <g id="Media-&amp;-devices" transform="translate(-608, -996)" fill-rule="nonzero" stroke="#000000" stroke-width="2">
            <g id="signal-03" transform="translate(610, 998)">
                <path d="M8.58578676,11.4142132 C7.80473816,10.6331646 7.80473822,9.36683536 8.58578676,8.58578682 C9.36683536,7.80473822 10.6331646,7.80473822 11.4142131,8.58578682 C12.1952617,9.36683536 12.1952617,10.6331646 11.4142131,11.4142132 M5.75735897,14.2426405 C3.41421312,11.8994946 3.41421336,8.1005044 5.75735897,5.75735903 C8.10050458,3.41421318 11.8994946,3.41421318 14.2426404,5.75735903 C16.5857858,8.1005044 16.5857868,11.8994946 14.2426404,14.2426405 M2.92893237,17.0710678 C-0.976310551,13.1658249 -0.976311028,6.83417559 2.92893237,2.92893219 C6.83417505,-0.97631073 13.1658248,-0.97631073 17.0710678,2.92893219 C20.9763107,6.83417559 20.9763107,13.1658249 17.0710678,17.0710678" id="Icon"></path>
            </g>
        </g>
    </g>
</svg>