<?xml version="1.0" encoding="UTF-8"?>
<svg width="24px" height="24px" viewBox="0 0 24 24" version="1.1" xmlns="http://www.w3.org/2000/svg" xmlns:xlink="http://www.w3.org/1999/xlink">
    <title>signal-01</title>
    <g id="Line-icons" stroke="none" stroke-width="1" fill="none" fill-rule="evenodd" stroke-linecap="round" stroke-linejoin="round">
        <g id="Media-&amp;-devices" transform="translate(-608, -916)" fill-rule="nonzero" stroke="#000000" stroke-width="2">
            <g id="Icon" transform="translate(610, 920.9289)">
                <path d="M10,9.07106781 C11.1045694,9.07106781 12,8.17563725 12,7.07106781 C12,5.96649826 11.1045694,5.07106781 10,5.07106781 C8.89543045,5.07106781 8,5.96649826 8,7.07106781 C8,8.17563725 8.89543045,9.07106781 10,9.07106781 Z"></path>
                <path d="M14.2426414,11.3137074 C16.5857873,8.9705615 16.5857878,5.17157316 14.2426414,2.82842684 M5.7573595,2.82839203 C3.41421318,5.17153835 3.41421366,8.97052717 5.7573595,11.313673 M2.92893219,0 C-0.97631073,3.90524292 -0.97631073,10.2368927 2.92893219,14.1421814 M17.0710678,0 C20.9763107,3.9052887 20.9763107,10.2369385 17.0710678,14.1421814"></path>
            </g>
        </g>
    </g>
</svg>