<?xml version="1.0" encoding="UTF-8"?>
<svg width="24px" height="24px" viewBox="0 0 24 24" version="1.1" xmlns="http://www.w3.org/2000/svg" xmlns:xlink="http://www.w3.org/1999/xlink">
    <title>signal-02</title>
    <g id="Line-icons" stroke="none" stroke-width="1" fill="none" fill-rule="evenodd" stroke-linecap="round" stroke-linejoin="round">
        <g id="Media-&amp;-devices" transform="translate(-608, -956)" fill-rule="nonzero" stroke="#000000" stroke-width="2">
            <g id="Icon" transform="translate(609.9998, 958.929)">
                <path d="M10.0002213,9.07104492 C11.1047907,9.07104492 12.0002213,8.17561436 12.0002213,7.07104492 C12.0002213,5.96647537 11.1047907,5.07104492 10.0002213,5.07104492 C8.8956517,5.07104492 8.00022125,5.96647537 8.00022125,7.07104492 C8.00022125,8.17561436 8.8956517,9.07104492 10.0002213,9.07104492 Z"></path>
                <path d="M14.242897,11.3136501 C16.5860429,8.97050428 16.5860434,5.17151546 14.242897,2.82836914 M5.75758076,2.82836914 C3.41443443,5.17151546 3.41443491,8.97050428 5.75758076,11.3136501 M2.92893219,0 C-0.97631073,3.90524292 -0.97631073,10.2368927 2.92893219,14.1421356 M17.0715103,14.1421356 C20.9767532,10.2368927 20.9767532,3.90524292 17.0715103,0 M10.0002213,18.0710449 L10.0002213,9.07104492"></path>
            </g>
        </g>
    </g>
</svg>