<?xml version="1.0" encoding="UTF-8"?>
<svg width="24px" height="24px" viewBox="0 0 24 24" version="1.1" xmlns="http://www.w3.org/2000/svg" xmlns:xlink="http://www.w3.org/1999/xlink">
    <title>simcard</title>
    <g id="Line-icons" stroke="none" stroke-width="1" fill="none" fill-rule="evenodd" stroke-linecap="round" stroke-linejoin="round">
        <g id="Media-&amp;-devices" transform="translate(-608, -1036)" fill-rule="nonzero" stroke="#000000" stroke-width="2">
            <g id="Icon" transform="translate(612, 1038)">
                <path d="M0,4.80000019 C0,3.11984253 0,2.27976376 0.326980442,1.6380285 C0.614600539,1.0735423 1.0735423,0.614600539 1.6380285,0.326980442 C2.27976376,0 3.11984253,0 4.80000019,0 L8.01177502,0 C8.74554682,0 9.1124323,0 9.45769501,0.0828902423 C9.76380366,0.156380437 10.0564379,0.277593389 10.3248549,0.442079484 C10.6276047,0.627604827 10.8870325,0.88703239 11.4058876,1.40588748 L14.5941124,4.59411192 C15.1129679,5.11296743 15.3723951,5.37239531 15.5579205,5.67514515 C15.7224066,5.94356209 15.8436193,6.23619586 15.9171095,6.54230452 C16,6.88756722 16,7.25445306 16,7.98822498 L16,15.1999998 C16,16.8801577 16,17.7202356 15.6730194,18.3619709 C15.3853993,18.9264571 14.9264581,19.3853993 14.3619719,19.6730194 C13.7202366,20 12.8801575,20 11.1999998,20 L4.80000019,20 C3.11984253,20 2.27976376,20 1.6380285,19.6730194 C1.0735423,19.3853993 0.614600539,18.9264571 0.326980442,18.3619709 C0,17.7202356 0,16.8801575 0,15.1999998 L0,4.80000019 Z"></path>
                <path d="M4,11.8000002 C4,11.5199738 4,11.3799604 4.05449677,11.2730045 C4.10243345,11.1789235 4.1789235,11.1024335 4.27300453,11.0544968 C4.3799604,11 4.51997393,11 4.80000019,11 L11.1999998,11 C11.4800262,11 11.6200396,11 11.7269955,11.0544968 C11.8210765,11.1024335 11.8975665,11.1789235 11.9455032,11.2730045 C12,11.3799604 12,11.5199739 12,11.8000002 L12,15.1999998 C12,15.4800262 12,15.6200396 11.9455032,15.7269955 C11.8975665,15.8210765 11.8210765,15.8975665 11.7269955,15.9455032 C11.6200396,16 11.4800261,16 11.1999998,16 L4.80000019,16 C4.51997381,16 4.3799604,16 4.27300453,15.9455032 C4.1789235,15.8975665 4.10243345,15.8210765 4.05449677,15.7269955 C4,15.6200396 4,15.4800261 4,15.1999998 L4,11.8000002 Z"></path>
            </g>
        </g>
    </g>
</svg>