<?xml version="1.0" encoding="UTF-8"?>
<svg width="24px" height="24px" viewBox="0 0 24 24" version="1.1" xmlns="http://www.w3.org/2000/svg" xmlns:xlink="http://www.w3.org/1999/xlink">
    <title>skew</title>
    <g id="Line-icons" stroke="none" stroke-width="1" fill="none" fill-rule="evenodd" stroke-linecap="round" stroke-linejoin="round">
        <g id="Editor" transform="translate(-880, -516)" fill-rule="nonzero" stroke="#000000" stroke-width="2">
            <g id="Icon" transform="translate(882, 519)">
                <path d="M2,1.5999999 C2,1.03994745 2,0.759921223 2.10899353,0.546009481 C2.2048669,0.357847407 2.35784747,0.204866856 2.54600954,0.108993486 C2.75992128,0 3.03994739,0 3.5999999,0 L4.4000001,0 C4.96005255,0 5.24007872,0 5.45399046,0.108993486 C5.64215253,0.204866856 5.7951331,0.357847407 5.89100647,0.546009481 C6,0.759921223 6,1.03994751 6,1.60000002 L6,2.4000001 C6,2.96005255 6,3.24007872 5.89100647,3.45399046 C5.7951331,3.64215253 5.64215253,3.7951331 5.45399046,3.89100647 C5.24007872,4 4.96005261,4 4.4000001,4 L3.5999999,4 C3.03994745,4 2.75992128,4 2.54600954,3.89100647 C2.35784747,3.7951331 2.2048669,3.64215253 2.10899353,3.45399046 C2,3.24007872 2,2.96005261 2,2.4000001 L2,1.5999999 Z"></path>
                <path d="M0,15.6000004 C0,15.0399479 0,14.7599208 0.108993486,14.5460091 C0.204866856,14.357847 0.357847407,14.2048669 0.546009481,14.1089935 C0.759921223,14 1.03994751,14 1.60000002,14 L2.4000001,14 C2.96005255,14 3.24007872,14 3.45399046,14.1089935 C3.64215253,14.2048669 3.7951331,14.357847 3.89100647,14.5460091 C4,14.7599208 4,15.0399479 4,15.6000004 L4,16.3999996 C4,16.9600521 4,17.2400792 3.89100647,17.4539909 C3.7951331,17.642153 3.64215253,17.7951331 3.45399046,17.8910065 C3.24007872,18 2.96005261,18 2.4000001,18 L1.5999999,18 C1.03994745,18 0.759921223,18 0.546009481,17.8910065 C0.357847407,17.7951331 0.204866856,17.642153 0.108993486,17.4539909 C0,17.2400792 0,16.9600521 0,16.3999996 L0,15.6000004 Z"></path>
                <path d="M16,1.5999999 C16,1.03994745 16,0.759921223 16.1089935,0.546009481 C16.2048669,0.357847407 16.357847,0.204866856 16.5460091,0.108993486 C16.7599208,0 17.0399479,0 17.6000004,0 L18.3999996,0 C18.9600521,0 19.2400792,0 19.4539909,0.108993486 C19.642153,0.204866856 19.7951331,0.357847407 19.8910065,0.546009481 C20,0.759921223 20,1.03994751 20,1.60000002 L20,2.4000001 C20,2.96005255 20,3.24007872 19.8910065,3.45399046 C19.7951331,3.64215253 19.642153,3.7951331 19.4539909,3.89100647 C19.2400792,4 18.9600521,4 18.3999996,4 L17.6000004,4 C17.0399479,4 16.7599208,4 16.5460091,3.89100647 C16.357847,3.7951331 16.2048669,3.64215253 16.1089935,3.45399046 C16,3.24007872 16,2.96005261 16,2.4000001 L16,1.5999999 Z"></path>
                <path d="M14,15.6000004 C14,15.0399479 14,14.7599208 14.1089935,14.5460091 C14.2048669,14.357847 14.357847,14.2048669 14.5460091,14.1089935 C14.7599208,14 15.0399479,14 15.6000004,14 L16.3999996,14 C16.9600521,14 17.2400792,14 17.4539909,14.1089935 C17.642153,14.2048669 17.7951331,14.357847 17.8910065,14.5460091 C18,14.7599208 18,15.0399479 18,15.6000004 L18,16.3999996 C18,16.9600521 18,17.2400792 17.8910065,17.4539909 C17.7951331,17.642153 17.642153,17.7951331 17.4539909,17.8910065 C17.2400792,18 16.9600521,18 16.3999996,18 L15.6000004,18 C15.0399479,18 14.7599208,18 14.5460091,17.8910065 C14.357847,17.7951331 14.2048669,17.642153 14.1089935,17.4539909 C14,17.2400792 14,16.9600521 14,16.3999996 L14,15.6000004 Z"></path>
                <path d="M16.2855644,13.9998951 L17.7141361,3.99989557 M2.35714293,14 L4.14285707,4 M6,2 L16,2 M14,16 L4,16"></path>
            </g>
        </g>
    </g>
</svg>