<?xml version="1.0" encoding="UTF-8"?>
<svg width="24px" height="24px" viewBox="0 0 24 24" version="1.1" xmlns="http://www.w3.org/2000/svg" xmlns:xlink="http://www.w3.org/1999/xlink">
    <title>skip-forward</title>
    <g id="Line-icons" stroke="none" stroke-width="1" fill="none" fill-rule="evenodd" stroke-linecap="round" stroke-linejoin="round">
        <g id="Media-&amp;-devices" transform="translate(-608, -1116)" fill-rule="nonzero" stroke="#000000" stroke-width="2">
            <g id="Icon" transform="translate(613, 1121)">
                <path d="M0,2.32899952 C0,1.26329982 0,0.730449945 0.218457147,0.456773281 C0.408445522,0.218761429 0.696538866,0.0802966063 1.00107968,0.0806254297 C1.35125434,0.0810035257 1.76734006,0.413872123 2.59951162,1.07960939 L8.43826199,5.7506094 C8.97210836,6.17768648 9.2390313,6.39122492 9.33567047,6.64920282 C9.4204018,6.87539279 9.4204018,7.12460721 9.33567047,7.35079718 C9.2390313,7.60877508 8.97210795,7.82231289 8.43826199,8.24938965 L2.59951305,12.9203892 C1.76734072,13.586127 1.35125434,13.9189964 1.00107968,13.9193745 C0.696538866,13.9197033 0.408445522,13.7812381 0.218457147,13.5432262 C0,13.2695496 0,12.7367003 0,11.6710005 L0,2.32899952 Z"></path>
                <line x1="14" y1="0" x2="14" y2="14"></line>
            </g>
        </g>
    </g>
</svg>