<?xml version="1.0" encoding="UTF-8"?>
<svg width="24px" height="24px" viewBox="0 0 24 24" version="1.1" xmlns="http://www.w3.org/2000/svg" xmlns:xlink="http://www.w3.org/1999/xlink">
    <title>skip-back</title>
    <g id="Line-icons" stroke="none" stroke-width="1" fill="none" fill-rule="evenodd" stroke-linecap="round" stroke-linejoin="round">
        <g id="Media-&amp;-devices" transform="translate(-608, -1076)" fill-rule="nonzero" stroke="#000000" stroke-width="2">
            <g id="Icon" transform="translate(613, 1081)">
                <path d="M14,11.6710005 C14,12.7367002 14,13.2695496 13.7815428,13.5432262 C13.5915544,13.7812381 13.3034613,13.9197033 12.9989204,13.9193745 C12.6487458,13.9189964 12.2326595,13.5861284 11.4004879,12.9203911 L5.56173801,8.2493906 C5.02789164,7.82231352 4.7609687,7.60877508 4.66432953,7.35079718 C4.5795982,7.12460721 4.5795982,6.87539279 4.66432953,6.64920282 C4.7609687,6.39122492 5.02789158,6.17768663 5.56173754,5.75060987 L11.4004869,1.07961035 C12.2326593,0.41387248 12.6487458,0.0810035257 12.9989204,0.0806254297 C13.3034613,0.0802966063 13.5915544,0.218761429 13.7815428,0.456773281 C14,0.730449945 14,1.26329994 14,2.32899976 L14,11.6710005 Z"></path>
                <line x1="0" y1="14" x2="0" y2="0"></line>
            </g>
        </g>
    </g>
</svg>