<?xml version="1.0" encoding="UTF-8"?>
<svg width="24px" height="24px" viewBox="0 0 24 24" version="1.1" xmlns="http://www.w3.org/2000/svg" xmlns:xlink="http://www.w3.org/1999/xlink">
    <title>sliders-02</title>
    <g id="Line-icons" stroke="none" stroke-width="1" fill="none" fill-rule="evenodd" stroke-linecap="round" stroke-linejoin="round">
        <g id="Media-&amp;-devices" transform="translate(-608, -1196)" fill-rule="nonzero" stroke="#000000" stroke-width="2">
            <g id="Icon" transform="translate(611, 1199)">
                <path d="M9,8 C10.1045697,8 11,7.10456967 11,6 C11,4.89543056 10.1045697,4 9,4 C7.89543056,4 7,4.89543056 7,6 C7,7.10456967 7.89543056,8 9,8 Z"></path>
                <path d="M16,14 C17.1045697,14 18,13.1045697 18,12 C18,10.8954306 17.1045697,10 16,10 C14.8954306,10 14,10.8954306 14,12 C14,13.1045697 14.8954306,14 16,14 Z"></path>
                <path d="M2,12 C3.10456967,12 4,11.1045697 4,10 C4,8.89543056 3.10456967,8 2,8 C0.895430565,8 0,8.89543056 0,10 C0,11.1045697 0.895430565,12 2,12 Z"></path>
                <path d="M2,12 L2,18 M2,0 L2,4 M9,12 L9,18 M9,0 L9,4 M16,14 L16,18 M16,6 L16,0"></path>
            </g>
        </g>
    </g>
</svg>