<?xml version="1.0" encoding="UTF-8"?>
<svg width="24px" height="24px" viewBox="0 0 24 24" version="1.1" xmlns="http://www.w3.org/2000/svg" xmlns:xlink="http://www.w3.org/1999/xlink">
    <title>speaker-03</title>
    <g id="Line-icons" stroke="none" stroke-width="1" fill="none" fill-rule="evenodd" stroke-linecap="round" stroke-linejoin="round">
        <g id="Media-&amp;-devices" transform="translate(-880, -316)" fill-rule="nonzero" stroke="#000000" stroke-width="2">
            <g id="Icon" transform="translate(883, 318)">
                <path d="M0,4.80000019 C0,3.11984253 0,2.27976376 0.326980442,1.6380285 C0.614600539,1.0735423 1.0735423,0.614600539 1.6380285,0.326980442 C2.27976376,0 3.11984253,0 4.80000019,0 L13.2000008,0 C14.8801581,0 15.7202356,0 16.3619709,0.326980442 C16.9264571,0.614600539 17.3853993,1.0735423 17.6730194,1.6380285 C18,2.27976376 18,3.11984253 18,4.80000019 L18,11.1999998 C18,12.8801575 18,13.7202366 17.6730194,14.3619719 C17.3853993,14.9264581 16.9264571,15.3853993 16.3619709,15.6730194 C15.7202356,16 14.8801575,16 13.1999998,16 L4.79999971,16 C3.11984241,16 2.27976376,16 1.6380285,15.6730194 C1.0735423,15.3853993 0.614600539,14.9264581 0.326980442,14.3619719 C0,13.7202366 0,12.8801575 0,11.1999998 L0,4.80000019 Z"></path>
                <path d="M9,13 C11.7614241,13 14,10.7614241 14,8 C14,5.23857617 11.7614241,3 9,3 C6.23857617,3 4,5.23857617 4,8 C4,10.7614241 6.23857617,13 9,13 Z"></path>
                <path d="M9.5,8 C9.5,8.27614239 9.27614239,8.5 9,8.5 C8.72385761,8.5 8.5,8.27614239 8.5,8 C8.5,7.72385761 8.72385761,7.5 9,7.5 C9.27614239,7.5 9.5,7.72385761 9.5,8 Z"></path>
                <path d="M15,16 L15,18.3999996 C15,18.960052 15,19.2400792 14.8910065,19.4539909 C14.7951336,19.642153 14.6421528,19.7951331 14.4539909,19.8910065 C14.2400789,20 13.9600525,20 13.3999996,20 L4.60000038,20 C4.03994751,20 3.75992131,20 3.54600954,19.8910065 C3.35784748,19.7951331 3.2048669,19.642153 3.10899353,19.4539909 C3,19.2400792 3,18.960052 3,18.3999996 L3,16 M9,8 L9.01000023,8"></path>
            </g>
        </g>
    </g>
</svg>