<?xml version="1.0" encoding="UTF-8"?>
<svg width="24px" height="24px" viewBox="0 0 24 24" version="1.1" xmlns="http://www.w3.org/2000/svg" xmlns:xlink="http://www.w3.org/1999/xlink">
    <title>speaker-01</title>
    <g id="Line-icons" stroke="none" stroke-width="1" fill="none" fill-rule="evenodd" stroke-linecap="round" stroke-linejoin="round">
        <g id="Media-&amp;-devices" transform="translate(-880, -236)" fill-rule="nonzero" stroke="#000000" stroke-width="2">
            <g id="Icon" transform="translate(884, 238)">
                <path d="M0,4.80000019 C0,3.11984253 0,2.27976376 0.326980442,1.6380285 C0.614600539,1.0735423 1.0735423,0.614600539 1.6380285,0.326980442 C2.27976376,0 3.11984253,0 4.80000019,0 L11.1999998,0 C12.8801575,0 13.7202366,0 14.3619719,0.326980442 C14.9264581,0.614600539 15.3853993,1.0735423 15.6730194,1.6380285 C16,2.27976376 16,3.11984253 16,4.80000019 L16,15.1999998 C16,16.8801575 16,17.7202356 15.6730194,18.3619709 C15.3853993,18.9264571 14.9264581,19.3853993 14.3619719,19.6730194 C13.7202366,20 12.8801575,20 11.1999998,20 L4.80000019,20 C3.11984253,20 2.27976376,20 1.6380285,19.6730194 C1.0735423,19.3853993 0.614600539,18.9264571 0.326980442,18.3619709 C0,17.7202356 0,16.8801575 0,15.1999998 L0,4.80000019 Z"></path>
                <path d="M8.5,4 C8.5,4.27614239 8.27614239,4.5 8,4.5 C7.72385761,4.5 7.5,4.27614239 7.5,4 C7.5,3.72385761 7.72385761,3.5 8,3.5 C8.27614239,3.5 8.5,3.72385761 8.5,4 Z"></path>
                <path d="M8,16 C10.2091389,16 12,14.2091389 12,12 C12,9.79086089 10.2091389,8 8,8 C5.79086089,8 4,9.79086089 4,12 C4,14.2091389 5.79086089,16 8,16 Z"></path>
                <line x1="8" y1="4" x2="8.01000023" y2="4"></line>
            </g>
        </g>
    </g>
</svg>