<?xml version="1.0" encoding="UTF-8"?>
<svg width="24px" height="24px" viewBox="0 0 24 24" version="1.1" xmlns="http://www.w3.org/2000/svg" xmlns:xlink="http://www.w3.org/1999/xlink">
    <title>speaker-02</title>
    <g id="Line-icons" stroke="none" stroke-width="1" fill="none" fill-rule="evenodd" stroke-linecap="round" stroke-linejoin="round">
        <g id="Media-&amp;-devices" transform="translate(-880, -276)" fill-rule="nonzero" stroke="#000000" stroke-width="2">
            <g id="Icon" transform="translate(882, 278)">
                <path d="M0,4.80000019 C0,3.11984253 0,2.27976376 0.326980442,1.6380285 C0.614600539,1.0735423 1.0735423,0.614600539 1.6380285,0.326980442 C2.27976376,0 3.11984253,0 4.80000019,0 L15.1999998,0 C16.8801575,0 17.7202356,0 18.3619709,0.326980442 C18.9264571,0.614600539 19.3853993,1.0735423 19.6730194,1.6380285 C20,2.27976376 20,3.11984253 20,4.80000019 L20,15.1999998 C20,16.8801575 20,17.7202356 19.6730194,18.3619709 C19.3853993,18.9264571 18.9264571,19.3853993 18.3619709,19.6730194 C17.7202356,20 16.8801575,20 15.1999998,20 L4.80000019,20 C3.11984253,20 2.27976376,20 1.6380285,19.6730194 C1.0735423,19.3853993 0.614600539,18.9264571 0.326980442,18.3619709 C0,17.7202356 0,16.8801575 0,15.1999998 L0,4.80000019 Z"></path>
                <path d="M10.5,10 C10.5,10.2761424 10.2761424,10.5 10,10.5 C9.72385761,10.5 9.5,10.2761424 9.5,10 C9.5,9.72385761 9.72385761,9.5 10,9.5 C10.2761424,9.5 10.5,9.72385761 10.5,10 Z"></path>
                <path d="M10,15 C12.7614241,15 15,12.7614241 15,10 C15,7.23857617 12.7614241,5 10,5 C7.23857617,5 5,7.23857617 5,10 C5,12.7614241 7.23857617,15 10,15 Z"></path>
                <path d="M10.0100002,10 L10,10 M16.0100002,4 L16,4 M4.01000023,4 L4,4 M16.0100002,16 L16,16 M4,16 L4.01000023,16"></path>
            </g>
        </g>
    </g>
</svg>