<?xml version="1.0" encoding="UTF-8"?>
<svg width="24px" height="24px" viewBox="0 0 24 24" version="1.1" xmlns="http://www.w3.org/2000/svg" xmlns:xlink="http://www.w3.org/1999/xlink">
    <title>speedometer-02</title>
    <g id="Line-icons" stroke="none" stroke-width="1" fill="none" fill-rule="evenodd" stroke-linecap="round" stroke-linejoin="round">
        <g id="General" transform="translate(-880, -476)" fill-rule="nonzero" stroke="#000000" stroke-width="2">
            <g id="Icon" transform="translate(882, 478)">
                <path d="M10,20 C15.5228481,20 20,15.5228481 20,10 C20,4.47715235 15.5228481,0 10,0 C4.47715235,0 0,4.47715235 0,10 C0,15.5228481 4.47715235,20 10,20 Z"></path>
                <path d="M10,12 C11.1045697,12 12,11.1045697 12,10 C12,8.89543056 11.1045697,8 10,8 C8.89543056,8 8,8.89543056 8,10 C8,11.1045697 8.89543056,12 10,12 Z"></path>
                <path d="M10,2.5 L10,0 M0,10 L2.5,10 M17.5,10 L20,10 M11.4999065,8.5 L17.0784264,3 M17.0784264,17.0784264 L16.8745308,16.8745308 C16.182723,16.1827224 15.836812,15.8368116 15.4331427,15.5894442 C15.0752516,15.3701285 14.68507,15.2085113 14.2769222,15.1105251 C13.8165684,15 13.327384,15 12.3490152,15.0000134 L7.65095615,15.0000362 C6.67259717,15.0000411 6.1834178,15.0000434 5.72306967,15.1105652 C5.31492686,15.2085534 4.92475033,15.3701721 4.56686306,15.5894871 C4.16319883,15.8368544 3.81729746,16.1827575 3.12549448,16.8745632 L2.92163086,17.0784264 M2.92163086,3 L4.65808105,4.7364502"></path>
            </g>
        </g>
    </g>
</svg>