<?xml version="1.0" encoding="UTF-8"?>
<svg width="24px" height="24px" viewBox="0 0 24 24" version="1.1" xmlns="http://www.w3.org/2000/svg" xmlns:xlink="http://www.w3.org/1999/xlink">
    <title>speedometer-01</title>
    <g id="Line-icons" stroke="none" stroke-width="1" fill="none" fill-rule="evenodd" stroke-linecap="round" stroke-linejoin="round">
        <g id="General" transform="translate(-880, -436)" fill-rule="nonzero" stroke="#000000" stroke-width="2">
            <g id="Icon" transform="translate(882, 438)">
                <path d="M10,20 C15.5228481,20 20,15.5228481 20,10 C20,4.47715235 15.5228481,0 10,0 C4.47715235,0 0,4.47715235 0,10 C0,15.5228481 4.47715235,20 10,20 Z"></path>
                <path d="M10,12 C11.1045697,12 12,11.1045697 12,10 C12,8.89543056 11.1045697,8 10,8 C8.89543056,8 8,8.89543056 8,10 C8,11.1045697 8.89543056,12 10,12 Z"></path>
                <path d="M10,2.5 L10,0 M10,20 L10,17.5 M0,10 L2.5,10 M17.5,10 L20,10 M15.3046875,15.3046875 L17.0784264,17.0784264 M4.69715166,15.302906 L2.92163086,17.0784264 M4.65808105,4.7364502 L2.92163086,3 M17.0784264,3 L11.4999065,8.5"></path>
            </g>
        </g>
    </g>
</svg>