<?xml version="1.0" encoding="UTF-8"?>
<svg width="24px" height="24px" viewBox="0 0 24 24" version="1.1" xmlns="http://www.w3.org/2000/svg" xmlns:xlink="http://www.w3.org/1999/xlink">
    <title>speedometer-04</title>
    <g id="Line-icons" stroke="none" stroke-width="1" fill="none" fill-rule="evenodd" stroke-linecap="round" stroke-linejoin="round">
        <g id="General" transform="translate(-880, -556)" fill-rule="nonzero" stroke="#000000" stroke-width="2">
            <g id="Icon" transform="translate(882, 558)">
                <path d="M10,20 C15.5228481,20 20,15.5228481 20,10 C20,4.47715235 15.5228481,0 10,0 C4.47715235,0 0,4.47715235 0,10 C0,15.5228481 4.47715235,20 10,20 Z"></path>
                <path d="M10,11 C10.5522847,11 11,10.5522847 11,10 C11,9.44771522 10.5522847,9 10,9 C9.44771522,9 9,9.44771522 9,10 C9,10.5522847 9.44771522,11 10,11 Z"></path>
                <path d="M15.7453403,13.9999571 C16.5361965,12.8661318 17,11.4872293 17,10 C17,9.48511022 16.9444075,8.98320422 16.8388996,8.49995708 M4.25468922,14 C3.46381474,12.8661661 3,11.4872484 3,10 C3,6.13400674 6.13400674,3 10,3 C10.4221349,3 10.8355417,3.03736639 11.2370949,3.10897183 M14.4999065,5.5 L9.99990654,10"></path>
            </g>
        </g>
    </g>
</svg>