<?xml version="1.0" encoding="UTF-8"?>
<svg width="24px" height="24px" viewBox="0 0 24 24" version="1.1" xmlns="http://www.w3.org/2000/svg" xmlns:xlink="http://www.w3.org/1999/xlink">
    <title>stand</title>
    <g id="Line-icons" stroke="none" stroke-width="1" fill="none" fill-rule="evenodd" stroke-linecap="round" stroke-linejoin="round">
        <g id="Education" transform="translate(-880, -276)" fill-rule="nonzero" stroke="#000000" stroke-width="2">
            <g id="Icon" transform="translate(882, 278)">
                <path d="M0,5.19999981 C0,4.0798949 0,3.51984257 0.217986971,3.09201908 C0.409733713,2.71569493 0.715694815,2.4097338 1.09201896,2.21798706 C1.51984245,2 2.07989478,2 3.19999981,2 L16.7999992,2 C17.9201046,2 18.4801584,2 18.9079819,2.21798706 C19.284306,2.4097338 19.5902662,2.71569493 19.7820129,3.09201908 C20,3.51984257 20,4.07989478 20,5.19999981 L20,11.8000002 C20,12.9201051 20,13.4801574 19.7820129,13.9079809 C19.5902662,14.2843051 19.284306,14.5902662 18.9079819,14.7820129 C18.4801584,15 17.9201043,15 16.7999992,15 L3.20000052,15 C2.07989514,15 1.51984245,15 1.09201896,14.7820129 C0.715694815,14.5902662 0.409733713,14.2843051 0.217986971,13.9079809 C0,13.4801574 0,12.9201052 0,11.8000002 L0,5.19999981 Z"></path>
                <path d="M2,20 L7,15 M18,20 L13,15 M10,2 L10,0 M10,20 L10,15"></path>
            </g>
        </g>
    </g>
</svg>