<?xml version="1.0" encoding="UTF-8"?>
<svg width="24px" height="24px" viewBox="0 0 24 24" version="1.1" xmlns="http://www.w3.org/2000/svg" xmlns:xlink="http://www.w3.org/1999/xlink">
    <title>stars-01</title>
    <g id="Line-icons" stroke="none" stroke-width="1" fill="none" fill-rule="evenodd" stroke-linecap="round" stroke-linejoin="round">
        <g id="Weather" transform="translate(-608, -356)" fill-rule="nonzero" stroke="#000000" stroke-width="2">
            <g id="Icon" transform="translate(610, 358)">
                <path d="M4.5,11 L5.28445816,12.5689173 C5.54994738,13.0998955 5.68269229,13.3653843 5.86003065,13.5954466 C6.01739213,13.7995927 6.20040677,13.9826084 6.40455294,14.1399698 C6.63461526,14.3173082 6.90010476,14.4500526 7.4310832,14.7155418 L9,15.5 L7.4310832,16.2844582 C6.90010482,16.5499474 6.63461581,16.6826927 6.40455341,16.8600311 C6.20040718,17.0173927 6.01739214,17.2004062 5.86003065,17.4045525 C5.68269226,17.6346149 5.54994741,17.900105 5.28445816,18.4310837 L4.5,20 L3.7155416,18.4310837 C3.45005238,17.9001054 3.31730771,17.6346148 3.13996935,17.4045525 C2.98260787,17.2004063 2.79959299,17.0173926 2.59544683,16.8600311 C2.3653845,16.6826928 2.09989524,16.5499474 1.5689168,16.2844582 L0,15.5 L1.56891668,14.7155418 C2.09989506,14.4500526 2.36538419,14.3173082 2.59544659,14.1399698 C2.79959282,13.9826083 2.98260786,13.7995928 3.13996935,13.5954466 C3.31730774,13.3653842 3.45005235,13.099895 3.7155416,12.5689163 L4.5,11 Z"></path>
                <path d="M13,0 L14.1786222,3.06441879 C14.4606337,3.79764837 14.6016396,4.16426313 14.8209143,4.47264147 C15.0152547,4.74595335 15.2540471,4.98474532 15.527359,5.17908573 C15.8357374,5.39836039 16.2023516,5.53936636 16.9355812,5.82137775 L20,7 L16.9355831,8.17862225 C16.2023534,8.46063372 15.8357374,8.60163957 15.527359,8.82091427 C15.2540471,9.01525469 15.0152556,9.2540471 14.8209152,9.52735901 C14.6016405,9.83573741 14.4606346,10.2023523 14.1786232,10.9355822 L13,14 L11.8213778,10.9355812 C11.5393663,10.2023516 11.3983604,9.83573735 11.1790857,9.52735901 C10.9847453,9.25404713 10.7459539,9.01525468 10.4726419,8.82091427 C10.1642636,8.60163961 9.79764843,8.46063364 9.06441879,8.17862225 L6,7 L9.06441784,5.82137775 C9.79764795,5.53936616 10.1642626,5.39836046 10.472641,5.17908573 C10.7459529,4.98474531 10.9847453,4.74595338 11.1790857,4.47264147 C11.3983604,4.16426301 11.5393663,3.79764807 11.8213778,3.06441808 L13,0 Z"></path>
            </g>
        </g>
    </g>
</svg>