<?xml version="1.0" encoding="UTF-8"?>
<svg width="24px" height="24px" viewBox="0 0 24 24" version="1.1" xmlns="http://www.w3.org/2000/svg" xmlns:xlink="http://www.w3.org/1999/xlink">
    <title>star-06</title>
    <g id="Line-icons" stroke="none" stroke-width="1" fill="none" fill-rule="evenodd" stroke-linecap="round" stroke-linejoin="round">
        <g id="Shapes" transform="translate(-880, -196)" fill-rule="nonzero" stroke="#000000" stroke-width="2">
            <g id="Icon" transform="translate(882, 198)">
                <path d="M11,1 L12.7341776,5.50886154 C13.0161895,6.24209231 13.1571949,6.60870779 13.3764696,6.91708612 C13.57081,7.19039801 13.8096024,7.4291895 14.0829144,7.62352991 C14.3912927,7.84280457 14.757907,7.98381007 15.4911366,8.26582146 L20,10 L15.4911394,11.7341776 C14.7579086,12.0161895 14.3912937,12.1571949 14.0829153,12.3764696 C13.8096034,12.57081 13.570811,12.8096024 13.3764706,13.0829144 C13.1571959,13.3912928 13.01619,13.7579069 12.7341785,14.4911366 L11,19 L9.26582241,14.4911385 C8.98381045,13.7579077 8.84280509,13.3912927 8.62353039,13.0829144 C8.42918995,12.8096025 8.19039804,12.57081 7.91708612,12.3764696 C7.60870776,12.157195 7.24209255,12.0161899 6.50886297,11.7341785 L2,10 L6.50886011,8.26582241 C7.24209118,7.98381045 7.60870674,7.84280512 7.91708517,7.62353039 C8.19039708,7.42918997 8.42918904,7.19039756 8.62352943,6.91708565 C8.84280413,6.60870719 8.98380998,6.24209243 9.26582146,5.5088625 L11,1 Z"></path>
                <path d="M2.5,15 L2.5,20 M2.5,0 L2.5,5 M5,2.5 L0,2.5 M0,17.5 L5,17.5"></path>
            </g>
        </g>
    </g>
</svg>