<?xml version="1.0" encoding="UTF-8"?>
<svg width="24px" height="24px" viewBox="0 0 24 24" version="1.1" xmlns="http://www.w3.org/2000/svg" xmlns:xlink="http://www.w3.org/1999/xlink">
    <title>stars-03</title>
    <g id="Line-icons" stroke="none" stroke-width="1" fill="none" fill-rule="evenodd" stroke-linecap="round" stroke-linejoin="round">
        <g id="Weather" transform="translate(-608, -436)" fill-rule="nonzero" stroke="#000000" stroke-width="2">
            <g id="Icon" transform="translate(610, 438)">
                <path d="M4.5,0 L5.28445816,1.56891727 C5.54994738,2.09989554 5.68269229,2.36538452 5.86003065,2.59544683 C6.01739213,2.79959297 6.20040677,2.9826079 6.40455294,3.13996935 C6.63461526,3.31730768 6.90010476,3.45005238 7.4310832,3.7155416 L9,4.5 L7.4310832,5.28445816 C6.90010482,5.54994735 6.63461581,5.68269223 6.40455341,5.86003065 C6.20040718,6.01739217 6.01739214,6.20040716 5.86003065,6.40455341 C5.68269226,6.63461584 5.54994741,6.900105 5.28445816,7.43108368 L4.5,9 L3.7155416,7.43108273 C3.45005238,6.90010446 3.31730771,6.63461524 3.13996935,6.40455294 C2.98260787,6.20040679 2.79959299,6.0173921 2.59544683,5.86003065 C2.3653845,5.68269232 2.09989524,5.54994786 1.5689168,5.28445864 L0,4.5 L1.56891668,3.7155416 C2.09989506,3.45005241 2.36538419,3.31730777 2.59544659,3.13996935 C2.79959282,2.98260783 2.98260786,2.79959284 3.13996935,2.59544659 C3.31730774,2.36538416 3.45005235,2.09989488 3.7155416,1.5689162 L4.5,0 Z"></path>
                <path d="M15,10 L15.9511261,11.9022522 C16.216615,12.4332297 16.3493588,12.6987182 16.5266972,12.9287806 C16.6840586,13.1329267 16.8670742,13.3159414 17.0712204,13.4733028 C17.3012827,13.6506412 17.5667712,13.7833856 18.0977497,14.0488749 L20,15 L18.0977497,15.9511261 C17.5667718,16.2166151 17.3012828,16.3493587 17.0712204,16.5266972 C16.8670742,16.6840587 16.6840587,16.8670741 16.5266972,17.0712204 C16.3493588,17.3012828 16.2166145,17.5667728 15.9511251,18.0977516 L15,20 L14.0488749,18.0977478 C13.783386,17.5667703 13.6506412,17.3012827 13.4733028,17.0712204 C13.3159414,16.8670743 13.1329267,16.6840586 12.9287806,16.5266972 C12.6987182,16.3493588 12.4332288,16.2166144 11.9022503,15.9511251 L10,15 L11.9022512,14.0488749 C12.4332291,13.7833859 12.6987182,13.6506413 12.9287806,13.4733028 C13.1329268,13.3159413 13.3159413,13.1329268 13.4733028,12.9287806 C13.6506412,12.6987181 13.7833855,12.4332281 14.0488749,11.9022493 L15,10 Z"></path>
                <path d="M16.5,1 L16.5,6 M3.5,14 L3.5,19 M19,3.5 L14,3.5 M1,16.5 L6,16.5"></path>
            </g>
        </g>
    </g>
</svg>