<?xml version="1.0" encoding="UTF-8"?>
<svg width="24px" height="24px" viewBox="0 0 24 24" version="1.1" xmlns="http://www.w3.org/2000/svg" xmlns:xlink="http://www.w3.org/1999/xlink">
    <title>star-03</title>
    <g id="Line-icons" stroke="none" stroke-width="1" fill="none" fill-rule="evenodd" stroke-linecap="round" stroke-linejoin="round">
        <g id="Shapes" transform="translate(-608, -356)" fill-rule="nonzero" stroke="#000000" stroke-width="2">
            <g id="star-03" transform="translate(610.8076, 358.5845)">
                <path d="M8.48202801,0.781901181 C8.711713,0.339801997 8.82655606,0.118752416 8.98048115,0.0469149388 C9.11451307,-0.0156383179 9.26936278,-0.0156383179 9.4033947,0.0469149388 C9.55731979,0.118752416 9.67216189,0.339801997 9.90184689,0.781901181 L11.4148693,3.69417691 C11.5139389,3.88486665 11.5634736,3.98021177 11.6377783,4.04355574 C11.7033678,4.09947012 11.7822971,4.1374803 11.8669071,4.15389824 C11.9627597,4.1724977 12.0681882,4.15177893 12.2790442,4.11034155 L15.4993076,3.47749591 C15.9881612,3.38142648 16.2325881,3.33339177 16.3847237,3.40894532 C16.5171973,3.47473439 16.6137437,3.59580061 16.6484051,3.73959231 C16.688211,3.90472575 16.5869909,4.13233525 16.3845501,4.58755445 L15.0509949,7.58625793 C14.9636765,7.78260674 14.9200166,7.88078113 14.9168205,7.97836924 C14.9139993,8.06451128 14.9334932,8.1499197 14.9734106,8.22630692 C15.0186321,8.31284404 15.1005646,8.38235289 15.2644281,8.52137089 L17.7670078,10.6445007 C18.1469129,10.9668033 18.3368653,11.1279551 18.3726501,11.2940063 C18.4038102,11.4385972 18.3693533,11.5895639 18.2785435,11.706316 C18.1742556,11.8403965 17.9331934,11.9031718 17.4510689,12.0287218 L14.2751303,12.8557673 C14.0671765,12.9099205 13.9631998,12.9369968 13.8849096,12.9953432 C13.8158021,13.0468462 13.7611817,13.1153385 13.7263479,13.1941738 C13.6868856,13.2834844 13.6836244,13.39088 13.677103,13.60567 L13.5775061,16.8860149 C13.5623867,17.3839895 13.5548269,17.6329774 13.4473143,17.7644863 C13.3536965,17.8789991 13.2141817,17.9461851 13.0662823,17.9480019 C12.8964314,17.9500431 12.6970527,17.8007134 12.2982941,17.5020523 L9.67151833,15.5346584 C9.49952255,15.4058376 9.41352482,15.3414274 9.31909466,15.316596 C9.23574016,15.2946772 9.14813473,15.2946772 9.06478024,15.316596 C8.97035007,15.3414274 8.88435221,15.4058377 8.71235657,15.5346584 L6.0855813,17.5020523 C5.68682262,17.8007134 5.48744345,17.9500431 5.31759262,17.9480019 C5.16969319,17.9461851 5.03017838,17.8789991 4.93656063,17.7644863 C4.82904804,17.6329774 4.82148866,17.3839908 4.8063693,16.8860168 L4.70677233,13.60567 C4.70025092,13.3908797 4.69698977,13.2834844 4.65752745,13.1941738 C4.62269364,13.1153385 4.56807281,13.0468462 4.49896526,12.9953432 C4.42067511,12.9369968 4.31669824,12.9099204 4.10874462,12.8557673 L0.93280673,12.0287218 C0.450682282,11.9031719 0.209620059,11.8403965 0.105332144,11.706316 C0.0145223215,11.5895639 -0.0199349327,11.4385972 0.0112250829,11.2940063 C0.0470099011,11.1279551 0.236962467,10.9668033 0.616867602,10.6445007 L3.11944723,8.52137089 C3.28331091,8.3823528 3.36524284,8.31284403 3.41046429,8.22630692 C3.45038174,8.1499197 3.46987557,8.06451128 3.46705437,7.97836924 C3.4638583,7.88078114 3.42019907,7.7826066 3.33288074,7.58625793 L1.99932587,4.58755493 C1.79688492,4.13233539 1.6956645,3.90472573 1.73547041,3.73959231 C1.77013184,3.59580062 1.86667891,3.47473438 1.99915254,3.40894532 C2.15128806,3.33339178 2.3957147,3.38142652 2.88456798,3.47749591 L6.10483122,4.11034155 C6.31568731,4.15177896 6.42111523,4.17249769 6.51696777,4.15389824 C6.60157782,4.13748031 6.68050705,4.09947012 6.74609661,4.04355574 C6.82040134,3.98021177 6.8699361,3.88486674 6.96900558,3.69417715 L8.48202801,0.781901181 Z" id="Icon"></path>
            </g>
        </g>
    </g>
</svg>