<?xml version="1.0" encoding="UTF-8"?>
<svg width="24px" height="24px" viewBox="0 0 24 24" version="1.1" xmlns="http://www.w3.org/2000/svg" xmlns:xlink="http://www.w3.org/1999/xlink">
    <title>stars-02</title>
    <g id="Line-icons" stroke="none" stroke-width="1" fill="none" fill-rule="evenodd" stroke-linecap="round" stroke-linejoin="round">
        <g id="Weather" transform="translate(-608, -396)" fill-rule="nonzero" stroke="#000000" stroke-width="2">
            <g id="Icon" transform="translate(610, 398)">
                <path d="M11,1 L12.7341776,5.50886106 C13.0161895,6.24209183 13.1571959,6.60870731 13.3764706,6.91708565 C13.570811,7.19039753 13.8096024,7.4291895 14.0829144,7.62352991 C14.3912927,7.84280457 14.7579079,7.98381007 15.4911375,8.26582146 L20,10 L15.4911404,11.7341766 C14.7579096,12.0161885 14.3912937,12.1571949 14.0829153,12.3764696 C13.8096034,12.57081 13.5708119,12.8096024 13.3764715,13.0829144 C13.1571968,13.3912928 13.0161909,13.7579069 12.7341795,14.4911366 L11,19 L9.26582336,14.4911385 C8.98381141,13.7579077 8.84280509,13.3912917 8.62353039,13.0829134 C8.42918995,12.8096015 8.19039851,12.57081 7.9170866,12.3764696 C7.60870823,12.157195 7.24209303,12.016189 6.50886345,11.7341776 L2,10 L6.50886059,8.26582241 C7.24209166,7.98381045 7.60870722,7.84280464 7.91708565,7.62352991 C8.19039756,7.42918949 8.42918999,7.19039756 8.62353039,6.91708565 C8.84280509,6.60870719 8.98381093,6.24209195 9.26582241,5.50886202 L11,1 Z"></path>
                <path d="M2.5,15 L2.5,20 M2.5,0 L2.5,5 M5,2.5 L0,2.5 M0,17.5 L5,17.5"></path>
            </g>
        </g>
    </g>
</svg>