<?xml version="1.0" encoding="UTF-8"?>
<svg width="24px" height="24px" viewBox="0 0 24 24" version="1.1" xmlns="http://www.w3.org/2000/svg" xmlns:xlink="http://www.w3.org/1999/xlink">
    <title>star-01</title>
    <g id="Line-icons" stroke="none" stroke-width="1" fill="none" fill-rule="evenodd" stroke-linecap="round" stroke-linejoin="round">
        <g id="Shapes" transform="translate(-608, -276)" fill-rule="nonzero" stroke="#000000" stroke-width="2">
            <g id="star-01" transform="translate(610.5742, 278.6296)">
                <path d="M8.7084322,0.82367754 C8.93891813,0.356738418 9.05416031,0.123268858 9.21060944,0.048675172 C9.34672798,-0.0162250549 9.5048679,-0.0162250549 9.64098644,0.048675172 C9.79743557,0.123268858 9.91267785,0.356738299 10.1431637,0.823677242 L12.3298416,5.25364494 C12.3978861,5.39149563 12.4319082,5.46042133 12.4816294,5.51393652 C12.5256528,5.56131922 12.5784508,5.59971059 12.6370974,5.62698269 C12.7033342,5.65778447 12.7793907,5.66890125 12.9315042,5.69113493 L17.822773,6.40606689 C18.3378444,6.48135231 18.5953789,6.51899521 18.7145634,6.6447978 C18.8182605,6.75425304 18.8670283,6.90465762 18.8472881,7.05413628 C18.8245997,7.22593988 18.6381518,7.40754092 18.265255,7.77074242 L14.7272291,11.2167797 C14.6169383,11.324203 14.5617926,11.3779142 14.5262089,11.441823 C14.4947032,11.4984077 14.474491,11.560574 14.4666948,11.6248674 C14.4578896,11.6974828 14.4709022,11.7733555 14.4969282,11.9251003 L15.3317404,16.7924767 C15.41979,17.3058505 15.4638147,17.5625373 15.3810778,17.7148609 C15.3090928,17.8473894 15.1811337,17.940345 15.0328436,17.9678345 C14.8624041,17.9994299 14.6319002,17.87821 14.1708927,17.6357708 L9.79815865,15.336194 C9.6619141,15.2645444 9.59379272,15.2287196 9.5220232,15.2146444 C9.45847858,15.2021823 9.39311824,15.2021823 9.32957363,15.2146444 C9.25780411,15.2287196 9.18968171,15.2645444 9.05343723,15.336194 L4.68070459,17.6357708 C4.21969673,17.8782102 3.98919252,17.9994299 3.818753,17.9678345 C3.67046288,17.940345 3.54250352,17.8473894 3.47051859,17.7148609 C3.38778161,17.5625373 3.4318063,17.3058497 3.51985574,16.7924767 L4.35466719,11.9251003 C4.38069322,11.7733553 4.39370628,11.6974828 4.38490105,11.6248674 C4.37710492,11.560574 4.35689269,11.4984077 4.325387,11.441823 C4.28980332,11.3779142 4.23465766,11.3242021 4.12436676,11.2167788 L0.586340606,7.77074194 C0.213444144,7.4075408 0.026995929,7.22593988 0.00430753268,7.05413628 C-0.0154326297,6.90465762 0.0333347768,6.75425304 0.137031913,6.6447978 C0.256216429,6.51899521 0.51375258,6.48135245 1.02882493,6.40606689 L5.92009211,5.69113493 C6.07220523,5.66890131 6.14826169,5.65778447 6.21449852,5.62698269 C6.27314505,5.59971059 6.32594308,5.56131922 6.36996651,5.51393652 C6.41968765,5.46042133 6.45371023,5.39149563 6.52175474,5.25364494 L8.7084322,0.82367754 Z" id="Icon"></path>
            </g>
        </g>
    </g>
</svg>