<?xml version="1.0" encoding="UTF-8"?>
<svg width="24px" height="24px" viewBox="0 0 24 24" version="1.1" xmlns="http://www.w3.org/2000/svg" xmlns:xlink="http://www.w3.org/1999/xlink">
    <title>star-02</title>
    <g id="Line-icons" stroke="none" stroke-width="1" fill="none" fill-rule="evenodd" stroke-linecap="round" stroke-linejoin="round">
        <g id="Shapes" transform="translate(-608, -316)" fill-rule="nonzero" stroke="#000000" stroke-width="2">
            <g id="star-02" transform="translate(611.7099, 318.5035)">
                <path d="M7.59648943,0.703511834 C7.82397071,0.307655394 7.93771167,0.109727163 8.08637905,0.043391984 C8.21604323,-0.0144639947 8.36419034,-0.0144639947 8.49385452,0.043391984 C8.6425219,0.109727163 8.7562627,0.307655931 8.98374462,0.703513443 L10.9389105,4.10583639 C11.0231202,4.25237577 11.0652243,4.32564557 11.1242638,4.37889147 C11.1765001,4.42600188 11.238089,4.46156019 11.305006,4.48324299 C11.380638,4.50774967 11.4651442,4.50757888 11.6341562,4.50723696 L15.558239,4.4992981 C16.0148018,4.49837443 16.2430829,4.49791274 16.3748646,4.59349489 C16.4898014,4.67685939 16.5638745,4.8051587 16.5786018,4.94637918 C16.5954876,5.10829653 16.4809472,5.30576345 16.2518654,5.70069742 L14.2829494,9.09508133 C14.1981475,9.24127874 14.155747,9.31437729 14.1391544,9.3921299 C14.1244738,9.46092313 14.1244738,9.53203971 14.1391544,9.60083294 C14.155747,9.67858554 14.1981473,9.75168465 14.2829494,9.89788246 L16.2518654,13.2922668 C16.4809467,13.6871999 16.5954876,13.8846668 16.5786018,14.0465841 C16.5638745,14.1878046 16.4898014,14.3161039 16.3748646,14.3994684 C16.2430829,14.4950506 16.0148009,14.4945884 15.5582371,14.4936647 L11.6341562,14.4857264 C11.4651445,14.4853844 11.380638,14.4852132 11.305006,14.5097198 C11.238089,14.5314026 11.1765001,14.5669614 11.1242638,14.6140718 C11.0652243,14.6673177 11.0231194,14.7405872 10.9389095,14.8871269 L8.98374367,18.2894516 C8.75626239,18.685308 8.6425219,18.8832364 8.49385452,18.9495716 C8.36419034,19.0074276 8.21604323,19.0074276 8.08637905,18.9495716 C7.93771167,18.8832364 7.82397039,18.6853072 7.59648848,18.2894497 L5.64132309,14.8871269 C5.55711336,14.7405875 5.51500875,14.6673177 5.45596933,14.6140718 C5.40373298,14.5669614 5.34214406,14.5314026 5.27522707,14.5097198 C5.19959506,14.4852132 5.11508891,14.4853844 4.94607687,14.4857264 L1.02199531,14.4936647 C0.565432549,14.4945884 0.33715114,14.4950506 0.205369487,14.3994684 C0.0904326439,14.3161039 0.0163589545,14.1878046 0.00163161999,14.0465841 C-0.0152541095,13.8846668 0.0992867947,13.6871998 0.328368604,13.2922659 L2.29728436,9.89788151 C2.38208632,9.75168408 2.42448726,9.67858554 2.44107985,9.60083294 C2.4557605,9.53203971 2.4557605,9.46092313 2.44107985,9.3921299 C2.42448726,9.3143773 2.38208605,9.24127816 2.29728389,9.09508038 L0.328367859,5.70069599 C0.0992865413,5.30576289 -0.0152541095,5.10829651 0.00163161999,4.94637918 C0.0163589545,4.80515872 0.0904326439,4.67685938 0.205369487,4.59349489 C0.33715114,4.49791275 0.565433025,4.49837443 1.02199674,4.4992981 L4.94607735,4.50723696 C5.11508903,4.50757888 5.19959506,4.50774967 5.27522707,4.48324299 C5.34214406,4.46156019 5.40373298,4.42600188 5.45596933,4.37889147 C5.51500875,4.32564557 5.55711366,4.25237559 5.64132357,4.10583591 L7.59648943,0.703511834 Z" id="Icon"></path>
            </g>
        </g>
    </g>
</svg>