<?xml version="1.0" encoding="UTF-8"?>
<svg width="24px" height="24px" viewBox="0 0 24 24" version="1.1" xmlns="http://www.w3.org/2000/svg" xmlns:xlink="http://www.w3.org/1999/xlink">
    <title>star-04</title>
    <g id="Line-icons" stroke="none" stroke-width="1" fill="none" fill-rule="evenodd" stroke-linecap="round" stroke-linejoin="round">
        <g id="Shapes" transform="translate(-608, -396)" fill-rule="nonzero" stroke="#000000" stroke-width="2">
            <g id="star-04" transform="translate(610, 398)">
                <path d="M10,0 L12.0119562,5.2310853 C12.2939679,5.9643153 12.4349736,6.33093014 12.6542482,6.63930845 C12.8485886,6.91262028 13.0873811,7.15141189 13.360693,7.34575224 C13.6690713,7.56502686 14.0356855,7.70603284 14.7689152,7.98804426 L20,10 L14.7689161,12.0119562 C14.0356865,12.2939678 13.6690722,12.4349736 13.3606939,12.6542482 C13.0873821,12.8485886 12.8485895,13.0873811 12.6542492,13.360693 C12.4349746,13.6690713 12.2939695,14.0356855 12.0119581,14.7689152 L10,20 L7.98804474,14.7689152 C7.70603311,14.0356855 7.56502737,13.6690703 7.34575272,13.360692 C7.15141232,13.0873802 6.91262031,12.8485886 6.63930845,12.6542482 C6.33093017,12.4349736 5.96431559,12.2939685 5.23108625,12.0119572 L0,10 L5.23108387,7.98804474 C5.96431404,7.70603311 6.33092907,7.56502745 6.6393075,7.34575272 C6.9126195,7.15141223 7.15141131,6.91261998 7.34575176,6.63930798 C7.56502646,6.33092952 7.70603237,5.96431464 7.98804379,5.23108482 L10,0 Z" id="Icon"></path>
            </g>
        </g>
    </g>
</svg>