<?xml version="1.0" encoding="UTF-8"?>
<svg width="24px" height="24px" viewBox="0 0 24 24" version="1.1" xmlns="http://www.w3.org/2000/svg" xmlns:xlink="http://www.w3.org/1999/xlink">
    <title>star-05</title>
    <g id="Line-icons" stroke="none" stroke-width="1" fill="none" fill-rule="evenodd" stroke-linecap="round" stroke-linejoin="round">
        <g id="Shapes" transform="translate(-880, -156)" fill-rule="nonzero" stroke="#000000" stroke-width="2">
            <g id="Icon" transform="translate(882, 158)">
                <path d="M10,0 L11.3014975,5.20599174 C11.5554619,6.22184885 11.6824447,6.72977763 11.9469156,7.14308882 C12.1808492,7.50867665 12.4913238,7.81915084 12.8569117,8.05308437 C13.2702229,8.31755528 13.7781516,8.44453791 14.7940102,8.69850254 L20,10 L14.7940092,11.3014975 C13.7781519,11.5554618 13.270223,11.6824446 12.8569117,11.9469156 C12.4913236,12.1808493 12.1808492,12.4913236 11.9469156,12.8569117 C11.6824447,13.2702231 11.5554619,13.7781523 11.3014975,14.7940111 L10,20 L8.69850254,14.7940083 C8.444538,13.778151 8.31755629,13.2702228 8.05308533,12.8569117 C7.81915171,12.4913238 7.50867668,12.1808491 7.14308882,11.9469156 C6.72977763,11.6824448 6.22184813,11.555462 5.20598984,11.3014975 L0,10 L5.20599079,8.69850254 C6.22184825,8.44453818 6.72977704,8.31755537 7.14308834,8.05308437 C7.50867626,7.81915076 7.81915079,7.50867629 8.05308437,7.14308834 C8.31755534,6.72977701 8.44453794,6.22184777 8.69850254,5.20598888 L10,0 Z"></path>
                <path d="M10,0 L11.3014975,5.20599174 C11.5554619,6.22184885 11.6824447,6.72977763 11.9469156,7.14308882 C12.1808492,7.50867665 12.4913238,7.81915084 12.8569117,8.05308437 C13.2702229,8.31755528 13.7781516,8.44453791 14.7940102,8.69850254 L20,10 L14.7940092,11.3014975 C13.7781519,11.5554618 13.270223,11.6824446 12.8569117,11.9469156 C12.4913236,12.1808493 12.1808492,12.4913236 11.9469156,12.8569117 C11.6824447,13.2702231 11.5554619,13.7781523 11.3014975,14.7940111 L10,20 L8.69850254,14.7940083 C8.444538,13.778151 8.31755629,13.2702228 8.05308533,12.8569117 C7.81915171,12.4913238 7.50867668,12.1808491 7.14308882,11.9469156 C6.72977763,11.6824448 6.22184813,11.555462 5.20598984,11.3014975 L0,10 L5.20599079,8.69850254 C6.22184825,8.44453818 6.72977704,8.31755537 7.14308834,8.05308437 C7.50867626,7.81915076 7.81915079,7.50867629 8.05308437,7.14308834 C8.31755534,6.72977701 8.44453794,6.22184777 8.69850254,5.20598888 L10,0 Z"></path>
            </g>
        </g>
    </g>
</svg>