<?xml version="1.0" encoding="UTF-8"?>
<svg width="24px" height="24px" viewBox="0 0 24 24" version="1.1" xmlns="http://www.w3.org/2000/svg" xmlns:xlink="http://www.w3.org/1999/xlink">
    <title>stop-square</title>
    <g id="Line-icons" stroke="none" stroke-width="1" fill="none" fill-rule="evenodd" stroke-linecap="round" stroke-linejoin="round">
        <g id="Media-&amp;-devices" transform="translate(-880, -436)" fill-rule="nonzero" stroke="#000000" stroke-width="2">
            <g id="Icon" transform="translate(883, 439)">
                <path d="M0,4.79999971 C0,3.11984241 0,2.27976376 0.326980442,1.6380285 C0.614600539,1.0735423 1.0735423,0.614600539 1.6380285,0.326980442 C2.27976376,0 3.11984253,0 4.80000019,0 L13.2000008,0 C14.8801581,0 15.7202356,0 16.3619709,0.326980442 C16.9264571,0.614600539 17.3853993,1.0735423 17.6730194,1.6380285 C18,2.27976376 18,3.11984253 18,4.80000019 L18,13.2000008 C18,14.8801581 18,15.7202356 17.6730194,16.3619709 C17.3853993,16.9264571 16.9264571,17.3853993 16.3619709,17.6730194 C15.7202356,18 14.8801575,18 13.1999998,18 L4.79999971,18 C3.11984241,18 2.27976376,18 1.6380285,17.6730194 C1.0735423,17.3853993 0.614600539,16.9264571 0.326980442,16.3619709 C0,15.7202356 0,14.8801575 0,13.1999998 L0,4.79999971 Z"></path>
                <path d="M5,6.5999999 C5,6.03994745 5,5.75992128 5.10899353,5.54600954 C5.2048669,5.35784747 5.35784747,5.2048669 5.54600954,5.10899353 C5.75992128,5 6.03994739,5 6.5999999,5 L11.3999996,5 C11.9600521,5 12.2400792,5 12.4539909,5.10899353 C12.642153,5.2048669 12.7951331,5.35784747 12.8910065,5.54600954 C13,5.75992128 13,6.03994739 13,6.5999999 L13,11.3999996 C13,11.9600521 13,12.2400792 12.8910065,12.4539909 C12.7951331,12.642153 12.642153,12.7951331 12.4539909,12.8910065 C12.2400792,13 11.9600521,13 11.3999996,13 L6.5999999,13 C6.03994745,13 5.75992128,13 5.54600954,12.8910065 C5.35784747,12.7951331 5.2048669,12.642153 5.10899353,12.4539909 C5,12.2400792 5,11.9600521 5,11.3999996 L5,6.5999999 Z"></path>
            </g>
        </g>
    </g>
</svg>