<?xml version="1.0" encoding="UTF-8"?>
<svg width="24px" height="24px" viewBox="0 0 24 24" version="1.1" xmlns="http://www.w3.org/2000/svg" xmlns:xlink="http://www.w3.org/1999/xlink">
    <title>stop-circle</title>
    <g id="Line-icons" stroke="none" stroke-width="1" fill="none" fill-rule="evenodd" stroke-linecap="round" stroke-linejoin="round">
        <g id="Media-&amp;-devices" transform="translate(-880, -396)" fill-rule="nonzero" stroke="#000000" stroke-width="2">
            <g id="Icon" transform="translate(882, 398)">
                <path d="M10,20 C15.5228481,20 20,15.5228481 20,10 C20,4.47715235 15.5228481,0 10,0 C4.47715235,0 0,4.47715235 0,10 C0,15.5228481 4.47715235,20 10,20 Z"></path>
                <path d="M6,7.5999999 C6,7.03994745 6,6.75992128 6.10899353,6.54600954 C6.2048669,6.35784747 6.35784747,6.2048669 6.54600954,6.10899353 C6.75992128,6 7.03994739,6 7.5999999,6 L12.3999996,6 C12.9600521,6 13.2400792,6 13.4539909,6.10899353 C13.642153,6.2048669 13.7951331,6.35784747 13.8910065,6.54600954 C14,6.75992128 14,7.03994739 14,7.5999999 L14,12.3999996 C14,12.9600521 14,13.2400792 13.8910065,13.4539909 C13.7951331,13.642153 13.642153,13.7951331 13.4539909,13.8910065 C13.2400792,14 12.9600521,14 12.3999996,14 L7.5999999,14 C7.03994745,14 6.75992128,14 6.54600954,13.8910065 C6.35784747,13.7951331 6.2048669,13.642153 6.10899353,13.4539909 C6,13.2400792 6,12.9600521 6,12.3999996 L6,7.5999999 Z"></path>
            </g>
        </g>
    </g>
</svg>