<?xml version="1.0" encoding="UTF-8"?>
<svg width="24px" height="24px" viewBox="0 0 24 24" version="1.1" xmlns="http://www.w3.org/2000/svg" xmlns:xlink="http://www.w3.org/1999/xlink">
    <title>strikethrough-02</title>
    <g id="Line-icons" stroke="none" stroke-width="1" fill="none" fill-rule="evenodd" stroke-linecap="round" stroke-linejoin="round">
        <g id="Editor" transform="translate(-880, -596)" fill-rule="nonzero" stroke="#000000" stroke-width="2">
            <g id="strikethrough-02" transform="translate(883, 600)">
                <path d="M3,12 C3,14.2091389 4.79086113,16 7,16 L11,16 C13.2091389,16 15,14.2091389 15,12 C15,9.79086113 13.2091389,8 11,8 M7.5,16 C9.70913887,16 11.5,14.2091389 11.5,12 C11.5,9.79086113 9.70913887,8 7.5,8 M15,4 C15,1.79086113 13.2091389,0 11,0 L7,0 C4.79086113,0 3,1.79086113 3,4 M6.5,4 C6.5,1.79086113 8.29086113,0 10.5,0 M0,8 L18,8" id="Icon"></path>
            </g>
        </g>
    </g>
</svg>