<?xml version="1.0" encoding="UTF-8"?>
<svg width="24px" height="24px" viewBox="0 0 24 24" version="1.1" xmlns="http://www.w3.org/2000/svg" xmlns:xlink="http://www.w3.org/1999/xlink">
    <title>sun-setting-03</title>
    <g id="Line-icons" stroke="none" stroke-width="1" fill="none" fill-rule="evenodd" stroke-linecap="round" stroke-linejoin="round">
        <g id="Weather" transform="translate(-608, -596)" fill-rule="nonzero" stroke="#000000" stroke-width="2">
            <g id="Icon" transform="translate(610, 599)">
                <path d="M4.06005859,17.9125004 C5.27005863,18.4625004 6.81005955,18.4625004 8.02005959,17.9125004 C9.23005962,17.3625004 10.7700586,17.3625004 11.9800587,17.9125004 C13.1900587,18.4625004 14.7300587,18.4625004 15.9400587,17.9125004"></path>
                <path d="M0.100097656,14.4125004 C1.31009769,13.8625004 2.85009766,13.8625004 4.06009769,14.4125004 C5.27009773,14.9625004 6.81009769,14.9625004 8.02009773,14.4125004 C9.23009777,13.8625004 10.7700977,13.8625004 11.9800978,14.4125004 C13.1900978,14.9625004 14.7300978,14.9625004 15.9400978,14.4125004 C17.1500978,13.8625004 18.6900969,13.8625004 19.9000969,14.4125004"></path>
                <path d="M10,2 L10,0 M0,10 L2,10 M2.89990234,2.89990234 L4.314116,4.314116 M17.0997601,2.89990234 L15.6855469,4.314116 M18,10 L20,10 M5,10 C5,7.23857617 7.23857617,5 10,5 C12.7614241,5 15,7.23857617 15,10"></path>
            </g>
        </g>
    </g>
</svg>