<?xml version="1.0" encoding="UTF-8"?>
<svg width="24px" height="24px" viewBox="0 0 24 24" version="1.1" xmlns="http://www.w3.org/2000/svg" xmlns:xlink="http://www.w3.org/1999/xlink">
    <title>sun</title>
    <g id="Line-icons" stroke="none" stroke-width="1" fill="none" fill-rule="evenodd" stroke-linecap="round" stroke-linejoin="round">
        <g id="Weather" transform="translate(-608, -476)" fill-rule="nonzero" stroke="#000000" stroke-width="2">
            <g id="Icon" transform="translate(610, 478)">
                <path d="M10,15 C12.7614241,15 15,12.7614241 15,10 C15,7.23857617 12.7614241,5 10,5 C7.23857617,5 5,7.23857617 5,10 C5,12.7614241 7.23857617,15 10,15 Z"></path>
                <path d="M10,2 L10,0 M10,20 L10,18 M0,10 L2,10 M2.89990234,2.89990234 L4.314116,4.314116 M17.1000977,2.89990234 L15.6858845,4.314116 M2.89990234,17.1042137 L4.314116,15.6900005 M17.1000977,17.1042137 L15.6858845,15.6900005 M20,10 L18,10"></path>
            </g>
        </g>
    </g>
</svg>