<?xml version="1.0" encoding="UTF-8"?>
<svg width="24px" height="24px" viewBox="0 0 24 24" version="1.1" xmlns="http://www.w3.org/2000/svg" xmlns:xlink="http://www.w3.org/1999/xlink">
    <title>tablet-02</title>
    <g id="Line-icons" stroke="none" stroke-width="1" fill="none" fill-rule="evenodd" stroke-linecap="round" stroke-linejoin="round">
        <g id="Media-&amp;-devices" transform="translate(-880, -516)" fill-rule="nonzero" stroke="#000000" stroke-width="2">
            <g id="Icon" transform="translate(884, 518)">
                <path d="M0,3.20000052 C0,2.07989514 0,1.51984245 0.217986971,1.09201896 C0.409733713,0.715694815 0.715694815,0.409733713 1.09201896,0.217986971 C1.51984245,0 2.07989502,0 3.20000005,0 L12.8000002,0 C13.9201051,0 14.4801574,0 14.9079809,0.217986971 C15.2843051,0.409733713 15.5902662,0.715694815 15.7820129,1.09201896 C16,1.51984245 16,2.07989478 16,3.19999981 L16,16.7999992 C16,17.9201046 16,18.4801584 15.7820129,18.9079819 C15.5902662,19.284306 15.2843051,19.5902662 14.9079809,19.7820129 C14.4801574,20 13.9201052,20 12.8000002,20 L3.19999981,20 C2.0798949,20 1.51984245,20 1.09201896,19.7820129 C0.715694815,19.5902662 0.409733713,19.284306 0.217986971,18.9079819 C0,18.4801584 0,17.9201043 0,16.7999992 L0,3.20000052 Z"></path>
                <path d="M11,0 L11,1.39999998 C11,1.96005249 11,2.24007869 10.8910065,2.45399046 C10.7951331,2.64215255 10.6421533,2.79513311 10.4539909,2.89100647 C10.2400794,3 9.96005201,3 9.39999962,3 L6.5999999,3 C6.03994751,3 5.75992131,3 5.54600954,2.89100647 C5.35784748,2.79513311 5.2048669,2.64215255 5.10899353,2.45399046 C5,2.24007869 5,1.96005249 5,1.39999986 L5,0"></path>
            </g>
        </g>
    </g>
</svg>