<?xml version="1.0" encoding="UTF-8"?>
<svg width="24px" height="24px" viewBox="0 0 24 24" version="1.1" xmlns="http://www.w3.org/2000/svg" xmlns:xlink="http://www.w3.org/1999/xlink">
    <title>target-04</title>
    <g id="Line-icons" stroke="none" stroke-width="1" fill="none" fill-rule="evenodd" stroke-linecap="round" stroke-linejoin="round">
        <g id="General" transform="translate(-880, -716)" fill-rule="nonzero" stroke="#000000" stroke-width="2">
            <g id="Icon" transform="translate(882, 718)">
                <polygon points="16.999958 0 13.999958 3 13.999958 6 16.999958 6 19.999958 3 17.999958 2"></polygon>
                <line x1="13.999958" y1="6" x2="9.99997044" y2="9.99994659"></line>
                <path d="M20,10 C20,15.5228481 15.5228481,20 10,20 C4.47715235,20 0,15.5228481 0,10 C0,4.47715235 4.47715235,0 10,0 M15,10 C15,12.7614241 12.7614241,15 10,15 C7.23857617,15 5,12.7614241 5,10 C5,7.23857617 7.23857617,5 10,5"></path>
            </g>
        </g>
    </g>
</svg>