<?xml version="1.0" encoding="UTF-8"?>
<svg width="24px" height="24px" viewBox="0 0 24 24" version="1.1" xmlns="http://www.w3.org/2000/svg" xmlns:xlink="http://www.w3.org/1999/xlink">
    <title>telescope</title>
    <g id="Line-icons" stroke="none" stroke-width="1" fill="none" fill-rule="evenodd" stroke-linecap="round" stroke-linejoin="round">
        <g id="Education" transform="translate(-880, -316)" fill-rule="nonzero" stroke="#000000" stroke-width="2">
            <g id="Icon" transform="translate(882.0684, 318.6465)">
                <path d="M9.93204784,12.5534916 C11.0366175,12.5534916 11.9320478,11.6580613 11.9320478,10.5534916 C11.9320478,9.44892216 11.0366175,8.55349159 9.93204784,8.55349159 C8.82747841,8.55349159 7.93204784,9.44892216 7.93204784,10.5534916 C7.93204784,11.6580613 8.82747841,12.5534916 9.93204784,12.5534916 Z"></path>
                <path d="M2.73057508,6.02315187 C2.65809894,5.75266719 2.62186081,5.61742482 2.6468184,5.5 C2.66877172,5.39672635 2.72285838,5.30304508 2.80132675,5.23239183 C2.8905334,5.15206981 3.02577579,5.11583207 3.29626036,5.04335594 L15.080555,1.88576353 L16.374651,6.71539259 L4.5903554,9.87298489 C4.31987086,9.945461 4.18462881,9.98169893 4.06721258,9.95674133 C3.96393035,9.93478802 3.87024908,9.88070112 3.79959583,9.80223274 C3.71927381,9.7130261 3.68303583,9.57778418 3.6105597,9.30729961 L2.73057508,6.02315187 Z"></path>
                <path d="M15.6499577,4.01080036 C15.3600531,2.92886186 15.2151005,2.38789248 15.3149309,1.91822755 C15.4027442,1.50509864 15.6190918,1.13037437 15.9329653,0.847761393 C16.2897919,0.526473284 16.8307604,0.381521024 17.9126987,0.0916165188 C18.1831833,0.0191404 18.3184263,-0.0170976622 18.4358425,0.00785993133 C18.5391247,0.0298132477 18.6328055,0.0839000419 18.7034588,0.162368417 C18.7837808,0.25157506 18.8200181,0.386817366 18.8924942,0.657301962 L20.2901173,5.87330103 C20.3625935,6.14378586 20.3988323,6.27902809 20.3738747,6.39644432 C20.3519213,6.49972655 20.2978344,6.59340782 20.2193661,6.66406107 C20.1301594,6.7443831 19.9949166,6.78062131 19.724432,6.85309744 C18.6424936,7.14300194 18.1015257,7.28795408 17.6318607,7.1881237 C17.2187318,7.10031044 16.8440067,6.88396332 16.5613937,6.57008982 C16.2401056,6.21326324 16.0951537,5.67229378 15.8052492,4.5903554 L15.6499577,4.01080036 Z"></path>
                <path d="M0.0916165188,7.76553392 C0.0191404,7.49504936 -0.0170976622,7.35980734 0.00785993133,7.24239111 C0.0298132477,7.13910888 0.0839000419,7.04542761 0.162368417,6.97477436 C0.25157506,6.89445233 0.386817336,6.8582146 0.657301962,6.78573847 L2.00959802,6.42339182 C2.28008258,6.3509157 2.41532508,6.3146773 2.53274131,6.3396349 C2.63602354,6.36158821 2.72970457,6.41567511 2.80035782,6.49414349 C2.88067985,6.58335013 2.91691782,6.71859246 2.98939395,6.98907709 L3.3517406,8.34137344 C3.42421672,8.61185801 3.46045488,8.74710003 3.43549728,8.86451626 C3.41354397,8.96779849 3.35945707,9.06147929 3.28098869,9.13213253 C3.19178205,9.21245456 3.05653971,9.24869277 2.78605509,9.3211689 L1.43375897,9.68351555 C1.16327441,9.75599167 1.02803221,9.79222959 0.910615981,9.767272 C0.807333753,9.74531868 0.713652655,9.69123178 0.642999411,9.6127634 C0.562677383,9.52355676 0.526439324,9.3883149 0.45396319,9.11783028 L0.0916165188,7.76553392 Z"></path>
                <path d="M15.9320478,19.353426 L11.0534239,12.198164 M8.81067181,12.198164 L3.93204808,19.353426"></path>
            </g>
        </g>
    </g>
</svg>