<?xml version="1.0" encoding="UTF-8"?>
<svg width="24px" height="24px" viewBox="0 0 24 24" version="1.1" xmlns="http://www.w3.org/2000/svg" xmlns:xlink="http://www.w3.org/1999/xlink">
    <title>terminal-browser</title>
    <g id="Line-icons" stroke="none" stroke-width="1" fill="none" fill-rule="evenodd" stroke-linecap="round" stroke-linejoin="round">
        <g id="Development" transform="translate(-880, -476)" fill-rule="nonzero" stroke="#000000" stroke-width="2">
            <g id="Icon" transform="translate(882, 479)">
                <path d="M15.2000008,18 C16.8801583,18 17.7202375,18 18.3619728,17.6730194 C18.9264591,17.3853993 19.3854011,16.9264572 19.6730213,16.3619709 C20,15.7202356 20,14.880156 20,13.1999979 L20,4.80000067 C20,3.11984348 20,2.27976513 19.6730213,1.63802993 C19.3854012,1.07354373 18.926459,0.614602119 18.3619728,0.326981992 C17.7202377,0 16.8801589,0 15.2000017,0 L4.80000114,0 C3.11984313,0 2.27976429,0 1.63802898,0.326980114 C1.07354271,0.614600211 0.614600927,1.07354188 0.32698077,1.63802814 C0,2.2797634 0,3.11984253 0,4.80000067 L0,13.1999979 C0,14.880155 0,15.7202338 0.326980442,16.361969 C0.614600509,16.9264552 1.07354212,17.3853954 1.63802826,17.6730156 C2.2797634,18 3.11984134,18 4.79999781,18 L15.2000008,18 Z"></path>
                <polyline points="4 14.499999 6.5 11.999999 4 9.49999905"></polyline>
                <path d="M0,6 L20,6 M9,14.5 L13,14.5"></path>
            </g>
        </g>
    </g>
</svg>