<?xml version="1.0" encoding="UTF-8"?>
<svg width="24px" height="24px" viewBox="0 0 24 24" version="1.1" xmlns="http://www.w3.org/2000/svg" xmlns:xlink="http://www.w3.org/1999/xlink">
    <title>text-input</title>
    <g id="Line-icons" stroke="none" stroke-width="1" fill="none" fill-rule="evenodd" stroke-linecap="round" stroke-linejoin="round">
        <g id="Editor" transform="translate(-880, -716)" fill-rule="nonzero" stroke="#000000" stroke-width="2">
            <g id="text-input" transform="translate(882, 719)">
                <path d="M8.4361148,4 L3.20000005,4 L3.20000005,4 C2.07989502,4 1.51984251,4 1.09201896,4.21798706 C0.715694845,4.4097338 0.409733713,4.71569496 0.217986971,5.09201908 C0,5.51984262 0,6.07989502 0,7.19999981 L0,10.8000002 C0,11.920105 0,12.4801579 0.217986971,12.9079809 C0.409733713,13.2843056 0.715694845,13.5902662 1.09201896,13.7820129 C1.51984251,14 2.07989478,14 3.19999957,14 L8.4361148,14 C9.32763354,14 9.65091978,13.9071744 9.9768457,13.7328673 C10.3027716,13.5585602 10.5585602,13.3027716 10.7328673,12.9768457 C10.9071744,12.6509198 11,12.3276335 11,11.4361148 M15,4 L16.7999992,4 C17.9201043,4 18.4801586,4 18.9079819,4.21798706 C19.284306,4.4097338 19.5902662,4.71569496 19.7820129,5.09201908 C20,5.51984262 20,6.07989502 20,7.19999981 L20,10.8000002 C20,11.920105 20,12.4801579 19.7820129,12.9079809 C19.5902662,13.2843056 19.284306,13.5902662 18.9079819,13.7820129 C18.4801586,14 17.9201041,14 16.7999992,14 L15,14 M15,0 L15,18 M12.5,0 L17.5,0 M17.5,18 L12.5,18" id="Icon"></path>
            </g>
        </g>
    </g>
</svg>