<?xml version="1.0" encoding="UTF-8"?>
<svg width="24px" height="24px" viewBox="0 0 24 24" version="1.1" xmlns="http://www.w3.org/2000/svg" xmlns:xlink="http://www.w3.org/1999/xlink">
    <title>thermometer-warm</title>
    <g id="Line-icons" stroke="none" stroke-width="1" fill="none" fill-rule="evenodd" stroke-linecap="round" stroke-linejoin="round">
        <g id="Weather" transform="translate(-880, -356)" fill-rule="nonzero" stroke="#000000" stroke-width="2">
            <g id="Icon" transform="translate(882, 358)">
                <path d="M10,7 C9.10772049,6.98562194 8.23625797,7.27003497 7.52424145,7.8079958 C6.81222492,8.34595662 6.30054985,9.10656655 6.07061291,9.96883011 C5.84067596,10.8310937 5.90568322,11.745485 6.25529385,12.5665464 C6.60490447,13.3876079 7.21903825,14.0681804 8,14.5"></path>
                <line x1="10" y1="1" x2="10" y2="3"></line>
                <line x1="4.5999999" y1="16.3999996" x2="3.19999981" y2="17.7999992"></line>
                <line x1="2" y1="11" x2="0" y2="11"></line>
                <line x1="4.5999999" y1="5.5999999" x2="3.19999981" y2="4.19999981"></line>
                <path d="M14,2 C14,0.895430446 14.8954306,0 16,0 C17.1045694,0 18,0.895430565 18,2 L18,12.5351286 C19.1956029,13.2267475 20,14.5194349 20,16 C20,18.2091389 18.2091389,20 16,20 C13.7908611,20 12,18.2091389 12,16 C12,14.5194349 12.8043973,13.2267475 14,12.5351286 L14,2 Z"></path>
            </g>
        </g>
    </g>
</svg>