<?xml version="1.0" encoding="UTF-8"?>
<svg width="24px" height="24px" viewBox="0 0 24 24" version="1.1" xmlns="http://www.w3.org/2000/svg" xmlns:xlink="http://www.w3.org/1999/xlink">
    <title>thermometer-03</title>
    <g id="Line-icons" stroke="none" stroke-width="1" fill="none" fill-rule="evenodd" stroke-linecap="round" stroke-linejoin="round">
        <g id="Weather" transform="translate(-880, -276)" fill-rule="nonzero" stroke="#000000" stroke-width="2">
            <g id="Icon" transform="translate(883.5, 278)">
                <path d="M7,2.5 C7,1.11928821 5.88071179,0 4.5,0 C3.11928821,0 2,1.11928678 2,2.5 L2,11.7577744 C0.794014215,12.5650358 0,13.9397926 0,15.5 C0,17.985281 2.01471853,20 4.5,20 C6.98528147,20 9,17.985281 9,15.5 C9,13.9397926 8.20598555,12.5650358 7,11.7577744 L7,2.5 Z"></path>
                <path d="M4.5,16.5 C5.05228472,16.5 5.5,16.0522847 5.5,15.5 C5.5,14.9477152 5.05228472,14.5 4.5,14.5 C3.94771522,14.5 3.5,14.9477152 3.5,15.5 C3.5,16.0522847 3.94771522,16.5 4.5,16.5 Z"></path>
                <path d="M11.5,1 L17.5,1 M11.5,5 L17.5,5 M17.5,9 L11.5,9"></path>
            </g>
        </g>
    </g>
</svg>