<?xml version="1.0" encoding="UTF-8"?>
<svg width="24px" height="24px" viewBox="0 0 24 24" version="1.1" xmlns="http://www.w3.org/2000/svg" xmlns:xlink="http://www.w3.org/1999/xlink">
    <title>thermometer-cold</title>
    <g id="Line-icons" stroke="none" stroke-width="1" fill="none" fill-rule="evenodd" stroke-linecap="round" stroke-linejoin="round">
        <g id="Weather" transform="translate(-880, -316)" fill-rule="nonzero" stroke="#000000" stroke-width="2">
            <g id="Icon" transform="translate(882, 318)">
                <line x1="0" y1="10" x2="10" y2="10"></line>
                <line x1="7" y1="2" x2="7" y2="18"></line>
                <polyline points="1 7 4 10 1 13"></polyline>
                <polyline points="10 4 7 7 4 4"></polyline>
                <polyline points="4 16 7 13 8.5 14.5"></polyline>
                <path d="M14,2 C14,0.895430446 14.8954306,0 16,0 C17.1045694,0 18,0.895430565 18,2 L18,12.5351286 C19.1956029,13.2267475 20,14.5194349 20,16 C20,18.2091389 18.2091389,20 16,20 C13.7908611,20 12,18.2091389 12,16 C12,14.5194349 12.8043973,13.2267475 14,12.5351286 L14,2 Z"></path>
            </g>
        </g>
    </g>
</svg>