<?xml version="1.0" encoding="UTF-8"?>
<svg width="24px" height="24px" viewBox="0 0 24 24" version="1.1" xmlns="http://www.w3.org/2000/svg" xmlns:xlink="http://www.w3.org/1999/xlink">
    <title>thumbs-down</title>
    <g id="Line-icons" stroke="none" stroke-width="1" fill="none" fill-rule="evenodd" stroke-linecap="round" stroke-linejoin="round">
        <g id="Alerts-&amp;-feedback" transform="translate(-880, -276)" fill-rule="nonzero" stroke="#000000" stroke-width="2">
            <g id="Icon" transform="translate(882.5419, 278)">
                <path d="M0.831887722,4.07012367 C1.05411644,2.62563694 1.16523084,1.90339381 1.51929963,1.36071551 C1.83136061,0.882422209 2.2734589,0.503137738 2.79364157,0.267433435 C3.38384813,0 4.11458945,0 5.57607222,0 L16.2580605,0 C17.3781654,0 17.9382177,0 18.3660412,0.217986971 C18.7423653,0.409733713 19.0483274,0.715694815 19.2400742,1.09201896 C19.4580612,1.51984245 19.4580612,2.0798949 19.4580612,3.19999981 L19.4580612,7.80000019 C19.4580612,8.92010498 19.4580612,9.48015743 19.2400742,9.90798092 C19.0483274,10.2843051 18.7423653,10.5902662 18.3660412,10.7820129 C17.9382177,11 17.3781655,11 16.2580605,11 L15.4978571,11 C15.1214885,11 14.9333041,11 14.7690105,11.059186 C14.6237861,11.1115022 14.492645,11.1967274 14.3858566,11.3081875 C14.265046,11.4342832 14.1886168,11.6062481 14.035759,11.9501781 L10.675004,19.5118771 C10.5430805,19.8087049 10.2487235,20 9.92389965,20 C8.56205451,20 7.45806074,18.8960057 7.45806074,17.5341606 L7.45806074,14.6000004 C7.45806074,14.0399479 7.4580607,13.7599208 7.34906721,13.5460091 C7.25319384,13.357847 7.10021327,13.2048669 6.9120512,13.1089935 C6.69813946,13 6.41811335,13 5.85806084,13 L5.0529952,13 C3.12539327,13 2.16159225,13 1.47198319,12.6078682 C0.866709471,12.2636915 0.400002718,11.7196923 0.151864454,11.0691223 C-0.130847946,10.3279057 0.0157049596,9.37531185 0.308810741,7.47012424 L0.831887722,4.07012367 Z"></path>
                <line x1="14.4580603" y1="0" x2="14.4580603" y2="11"></line>
            </g>
        </g>
    </g>
</svg>