<?xml version="1.0" encoding="UTF-8"?>
<svg width="24px" height="24px" viewBox="0 0 24 24" version="1.1" xmlns="http://www.w3.org/2000/svg" xmlns:xlink="http://www.w3.org/1999/xlink">
    <title>ticket-01</title>
    <g id="Line-icons" stroke="none" stroke-width="1" fill="none" fill-rule="evenodd" stroke-linecap="round" stroke-linejoin="round">
        <g id="Maps-&amp;-travel" transform="translate(-880, -276)" fill-rule="nonzero" stroke="#000000" stroke-width="2">
            <g id="Icon" transform="translate(882, 280)">
                <path d="M16.7999992,0 L3.20000005,0 C2.07989502,0 1.51984251,0 1.09201896,0.217986971 C0.715694845,0.409733713 0.409733713,0.715694845 0.217986971,1.09201896 C0,1.51984251 0,2.07989502 0,3.20000005 L0,4.5 C1.93299663,4.5 3.5,6.06700325 3.5,8 C3.5,9.93299675 1.93299663,11.5 0,11.5 L0,12.8000002 C0,13.920105 0,14.4801579 0.217986971,14.9079809 C0.409733713,15.2843056 0.715694845,15.5902662 1.09201896,15.7820129 C1.51984251,16 2.07989526,16 3.20000052,16 L16.7999992,16 C17.920105,16 18.4801579,16 18.9079819,15.7820129 C19.2843056,15.5902662 19.5902672,15.2843056 19.7820129,14.9079809 C20,14.4801579 20,13.920105 20,12.8000002 L20,11.5 C18.0670033,11.5 16.5,9.93299675 16.5,8 C16.5,6.06700325 18.0670033,4.5 20,4.5 L20,3.20000005 C20,2.07989502 20,1.51984251 19.7820129,1.09201896 C19.5902672,0.715694845 19.2843056,0.409733713 18.9079819,0.217986971 C18.4801579,0 17.920105,0 16.7999992,0 Z"></path>
                <path d="M8,3 L8,4 M8,7.5 L8,8.5 M8,13 L8,12"></path>
            </g>
        </g>
    </g>
</svg>