<?xml version="1.0" encoding="UTF-8"?>
<svg width="24px" height="24px" viewBox="0 0 24 24" version="1.1" xmlns="http://www.w3.org/2000/svg" xmlns:xlink="http://www.w3.org/1999/xlink">
    <title>toggle-01-right</title>
    <g id="Line-icons" stroke="none" stroke-width="1" fill="none" fill-rule="evenodd" stroke-linecap="round" stroke-linejoin="round">
        <g id="General" transform="translate(-880, -836)" fill-rule="nonzero" stroke="#000000" stroke-width="2">
            <g id="Icon" transform="translate(882, 843)">
                <path d="M0,5 C0,2.23857641 2.23857641,0 5,0 L15,0 C17.7614236,0 20,2.23857641 20,5 C20,7.76142359 17.7614236,10 15,10 L5,10 C2.23857641,10 0,7.76142359 0,5 Z"></path>
                <path d="M15,10 C17.7614236,10 20,7.76142359 20,5 C20,2.23857641 17.7614236,0 15,0 C12.2385762,0 10,2.23857617 10,5 C10,7.76142359 12.2385762,10 15,10 Z"></path>
            </g>
        </g>
    </g>
</svg>