<?xml version="1.0" encoding="UTF-8"?>
<svg width="24px" height="24px" viewBox="0 0 24 24" version="1.1" xmlns="http://www.w3.org/2000/svg" xmlns:xlink="http://www.w3.org/1999/xlink">
    <title>toggle-01-left</title>
    <g id="Line-icons" stroke="none" stroke-width="1" fill="none" fill-rule="evenodd" stroke-linecap="round" stroke-linejoin="round">
        <g id="General" transform="translate(-880, -796)" fill-rule="nonzero" stroke="#000000" stroke-width="2">
            <g id="Icon" transform="translate(882, 803)">
                <path d="M0,5 C0,2.23857641 2.23857641,0 5,0 L15,0 C17.7614236,0 20,2.23857641 20,5 C20,7.76142359 17.7614236,10 15,10 L5,10 C2.23857641,10 0,7.76142359 0,5 Z"></path>
                <path d="M5,10 C7.76142359,10 10,7.76142359 10,5 C10,2.23857617 7.76142359,0 5,0 C2.23857641,0 0,2.23857641 0,5 C0,7.76142359 2.23857641,10 5,10 Z"></path>
            </g>
        </g>
    </g>
</svg>