<?xml version="1.0" encoding="UTF-8"?>
<svg width="24px" height="24px" viewBox="0 0 24 24" version="1.1" xmlns="http://www.w3.org/2000/svg" xmlns:xlink="http://www.w3.org/1999/xlink">
    <title>toggle-03-right</title>
    <g id="Line-icons" stroke="none" stroke-width="1" fill="none" fill-rule="evenodd" stroke-linecap="round" stroke-linejoin="round">
        <g id="General" transform="translate(-880, -996)" fill-rule="nonzero" stroke="#000000" stroke-width="2">
            <g id="Icon" transform="translate(882, 1002)">
                <path d="M0,6 C0,2.68629169 2.68629169,0 6,0 L14,0 C17.3137083,0 20,2.68629169 20,6 C20,9.31370831 17.3137083,12 14,12 L6,12 C2.68629169,12 0,9.31370831 0,6 Z"></path>
                <path d="M14,8.5 C15.3807118,8.5 16.5,7.38071179 16.5,6 C16.5,4.61928809 15.3807118,3.5 14,3.5 C12.6192881,3.5 11.5,4.61928809 11.5,6 C11.5,7.38071179 12.6192881,8.5 14,8.5 Z"></path>
            </g>
        </g>
    </g>
</svg>