<?xml version="1.0" encoding="UTF-8"?>
<svg width="24px" height="24px" viewBox="0 0 24 24" version="1.1" xmlns="http://www.w3.org/2000/svg" xmlns:xlink="http://www.w3.org/1999/xlink">
    <title>toggle-03-left</title>
    <g id="Line-icons" stroke="none" stroke-width="1" fill="none" fill-rule="evenodd" stroke-linecap="round" stroke-linejoin="round">
        <g id="General" transform="translate(-880, -956)" fill-rule="nonzero" stroke="#000000" stroke-width="2">
            <g id="Icon" transform="translate(882, 962)">
                <path d="M0,6 C0,2.68629169 2.68629169,0 6,0 L14,0 C17.3137083,0 20,2.68629169 20,6 C20,9.31370831 17.3137083,12 14,12 L6,12 C2.68629169,12 0,9.31370831 0,6 Z"></path>
                <path d="M6,8.5 C7.38071179,8.5 8.5,7.38071179 8.5,6 C8.5,4.61928809 7.38071179,3.5 6,3.5 C4.61928809,3.5 3.5,4.61928809 3.5,6 C3.5,7.38071179 4.61928809,8.5 6,8.5 Z"></path>
            </g>
        </g>
    </g>
</svg>