<?xml version="1.0" encoding="UTF-8"?>
<svg width="24px" height="24px" viewBox="0 0 24 24" version="1.1" xmlns="http://www.w3.org/2000/svg" xmlns:xlink="http://www.w3.org/1999/xlink">
    <title>tool-01</title>
    <g id="Line-icons" stroke="none" stroke-width="1" fill="none" fill-rule="evenodd" stroke-linecap="round" stroke-linejoin="round">
        <g id="General" transform="translate(-880, -1036)" fill-rule="nonzero" stroke="#000000" stroke-width="2">
            <g id="tool-01" transform="translate(882.8787, 1038)">
                <path d="M12.7526913,5.63137054 C12.3566745,5.23535374 12.1586658,5.03734516 12.0844774,4.8090167 C12.0192195,4.60817334 12.0192195,4.3918262 12.0844774,4.19098282 C12.1586658,3.96265435 12.3566747,3.76464587 12.7526922,3.36862826 L15.5910625,0.530257165 C14.8378468,0.189623535 14.0017281,0 13.1213207,0 C9.80761242,0 7.12132025,2.68629146 7.12132025,6 C7.12132025,6.49103948 7.18030767,6.9683018 7.29158258,7.42508745 C7.41074237,7.91424069 7.47032198,8.15881744 7.45974398,8.31332874 C7.44866959,8.47509058 7.42455197,8.56115411 7.34995317,8.70511436 C7.27869807,8.84262198 7.142178,8.97914225 6.86913824,9.25218201 L0.62131995,15.5 C-0.207107008,16.328427 -0.207106471,17.6715731 0.621320486,18.5 C1.44974738,19.3284268 2.79289389,19.3284269 3.62132072,18.5 L9.86913872,12.252182 C10.1421784,11.9791423 10.2786978,11.8426222 10.4162054,11.7713671 C10.5601656,11.6967683 10.6462302,11.6726506 10.807992,11.6615763 C10.9625033,11.6509983 11.2070802,11.7105779 11.6962328,11.8297377 C12.1530188,11.9410127 12.6302812,12 13.1213207,12 C16.43503,12 19.1213207,9.31370831 19.1213207,6 C19.1213207,5.11959219 18.9316959,4.28347349 18.5910625,3.53025723 L15.7526913,6.36862898 C15.3566743,6.76464608 15.1586654,6.96265438 14.930337,7.03684282 C14.7294936,7.10210081 14.513147,7.10210079 14.3123035,7.03684282 C14.083975,6.96265441 13.8859658,6.76464558 13.4899483,6.36862803 L12.7526913,5.63137054 Z" id="Icon"></path>
            </g>
        </g>
    </g>
</svg>