<?xml version="1.0" encoding="UTF-8"?>
<svg width="24px" height="24px" viewBox="0 0 24 24" version="1.1" xmlns="http://www.w3.org/2000/svg" xmlns:xlink="http://www.w3.org/1999/xlink">
    <title>tool-02</title>
    <g id="Line-icons" stroke="none" stroke-width="1" fill="none" fill-rule="evenodd" stroke-linecap="round" stroke-linejoin="round">
        <g id="General" transform="translate(-880, -1076)" fill-rule="nonzero" stroke="#000000" stroke-width="2">
            <g id="Icon" transform="translate(882, 1078)">
                <line x1="4" y1="4" x2="8.5" y2="8.5"></line>
                <polygon points="1 0 4 1 4 4 1 4 0 1"></polygon>
                <path d="M17.2589874,0.741012573 L14.6313705,3.36862898 C14.2353535,3.76464599 14.0373451,3.96265434 13.9631567,4.19098282 C13.8978987,4.39182621 13.8978987,4.60817379 13.9631567,4.80901718 C14.0373451,5.03734566 14.2353535,5.23535347 14.6313696,5.63136959 L14.8686295,5.86862898 C15.2646464,6.26464593 15.4626543,6.4626544 15.6909828,6.53684282 C15.8918262,6.60210079 16.1081738,6.60210079 16.3090172,6.53684282 C16.5373457,6.4626544 16.7353542,6.26464623 17.1313705,5.86862993 L19.589283,3.41071701 C19.8540134,4.05488491 20,4.7603941 20,5.5 C20,8.53756618 17.5375652,11 14.5,11 C14.1337912,11 13.7759413,10.9642094 13.4297581,10.8959351 C12.9436145,10.8000577 12.700543,10.7521189 12.5531864,10.7668018 C12.3965272,10.7824117 12.3193196,10.8059011 12.1805105,10.8801832 C12.0499442,10.9500543 11.918972,11.0810265 11.6570272,11.3429708 L4.5,18.4999866 C3.67157304,19.3284124 2.32842785,19.328413 1.5,18.4999866 C0.671574116,17.6715594 0.671574116,16.3284113 1.5,15.4999847 L8.6570282,8.34296989 C8.9189727,8.08102581 9.04994541,7.95005411 9.11981678,7.81948757 C9.19409901,7.68067858 9.21758826,7.60346995 9.23319817,7.44681072 C9.24788116,7.29945388 9.19994225,7.05638263 9.10406494,6.57024002 C9.03579063,6.22405744 9,5.86620849 9,5.5 C9,2.46243382 11.4624338,0 14.5,0 C15.5055017,0 16.4479828,0.269822925 17.2589874,0.741012573 Z"></path>
                <path d="M10.0000515,12.9999447 L15.5,18.4998913 C16.3284218,19.328315 17.6715629,19.328315 18.4999866,18.4998913 C19.3284149,17.671463 19.3284099,16.3283113 18.4999752,15.4998894 L13.9753132,10.9752979 C13.6550102,10.944985 13.3427072,10.8872031 13.0407848,10.8043327 C12.6517224,10.6975446 12.2249446,10.7750548 11.939661,11.060338 L10.0000515,12.9999447 Z"></path>
            </g>
        </g>
    </g>
</svg>