<?xml version="1.0" encoding="UTF-8"?>
<svg width="24px" height="24px" viewBox="0 0 24 24" version="1.1" xmlns="http://www.w3.org/2000/svg" xmlns:xlink="http://www.w3.org/1999/xlink">
    <title>train</title>
    <g id="Line-icons" stroke="none" stroke-width="1" fill="none" fill-rule="evenodd" stroke-linecap="round" stroke-linejoin="round">
        <g id="Maps-&amp;-travel" transform="translate(-880, -356)" fill-rule="nonzero" stroke="#000000" stroke-width="2">
            <g id="Icon" transform="translate(884, 358)">
                <path d="M0,7.80000067 C0,6.11984277 0,5.27976388 0.326980442,4.63802862 C0.614600539,4.07354242 1.0735423,3.61460045 1.6380285,3.32698035 C2.27976376,3 3.11984253,3 4.80000019,3 L11.1999998,3 C12.8801575,3 13.7202366,3 14.3619719,3.32698035 C14.9264581,3.61460045 15.3853993,4.07354242 15.6730194,4.63802862 C16,5.27976388 16,6.11984265 16,7.80000019 L16,12.1999989 C16,13.8801568 16,14.7202356 15.6730194,15.3619709 C15.3853993,15.9264571 14.9264581,16.3853993 14.3619719,16.6730194 C13.7202366,17 12.8801575,17 11.1999998,17 L4.80000019,17 C3.11984253,17 2.27976376,17 1.6380285,16.6730194 C1.0735423,16.3853993 0.614600539,15.9264571 0.326980442,15.3619709 C0,14.7202356 0,13.8801574 0,12.1999998 L0,7.80000067 Z"></path>
                <path d="M5,13.5 C5,13.7761424 4.77614239,14 4.5,14 C4.22385761,14 4,13.7761424 4,13.5 C4,13.2238576 4.22385761,13 4.5,13 C4.77614239,13 5,13.2238576 5,13.5 Z"></path>
                <path d="M12,13.5 C12,13.7761424 11.7761424,14 11.5,14 C11.2238576,14 11,13.7761424 11,13.5 C11,13.2238576 11.2238576,13 11.5,13 C11.7761424,13 12,13.2238576 12,13.5 Z"></path>
                <path d="M10.5,20 L5.5,20 M12,0 L4,0 M8,0 L8,3 M16,10 L0,10 M14.5,20 L13,17 M1.5,20 L3,17 M4.51000023,13.5 L4.5,13.5 M11.5,13.5 L11.5100002,13.5"></path>
            </g>
        </g>
    </g>
</svg>