<?xml version="1.0" encoding="UTF-8"?>
<svg width="24px" height="24px" viewBox="0 0 24 24" version="1.1" xmlns="http://www.w3.org/2000/svg" xmlns:xlink="http://www.w3.org/1999/xlink">
    <title>tram</title>
    <g id="Line-icons" stroke="none" stroke-width="1" fill="none" fill-rule="evenodd" stroke-linecap="round" stroke-linejoin="round">
        <g id="Maps-&amp;-travel" transform="translate(-880, -396)" fill-rule="nonzero" stroke="#000000" stroke-width="2">
            <g id="Icon" transform="translate(884, 398)">
                <path d="M0,8.80000019 C0,7.11984229 0,6.27976388 0.326980442,5.63802862 C0.614600539,5.07354242 1.0735423,4.61460069 1.6380285,4.32698059 C2.27976376,4 3.11984253,4 4.80000019,4 L11.1999998,4 C12.8801575,4 13.7202366,4 14.3619719,4.32698059 C14.9264581,4.61460069 15.3853993,5.07354242 15.6730194,5.63802862 C16,6.27976388 16,7.11984265 16,8.80000019 L16,13.1999989 C16,14.8801568 16,15.7202356 15.6730194,16.3619709 C15.3853993,16.9264571 14.9264581,17.3853993 14.3619719,17.6730194 C13.7202366,18 12.8801575,18 11.1999998,18 L4.80000019,18 C3.11984253,18 2.27976376,18 1.6380285,17.6730194 C1.0735423,17.3853993 0.614600539,16.9264571 0.326980442,16.3619709 C0,15.7202356 0,14.8801574 0,13.1999998 L0,8.80000019 Z"></path>
                <path d="M5,14.5 C5,14.7761424 4.77614239,15 4.5,15 C4.22385761,15 4,14.7761424 4,14.5 C4,14.2238576 4.22385761,14 4.5,14 C4.77614239,14 5,14.2238576 5,14.5 Z"></path>
                <path d="M12,14.5 C12,14.7761424 11.7761424,15 11.5,15 C11.2238576,15 11,14.7761424 11,14.5 C11,14.2238576 11.2238576,14 11.5,14 C11.7761424,14 12,14.2238576 12,14.5 Z"></path>
                <path d="M13.5134983,0.506749392 L13.5134983,0.506749392 L13.5134983,0.506749392 C13.1355133,0.317756742 12.9465208,0.223260418 12.7484522,0.156620219 C12.5725498,0.0974376276 12.3915339,0.054705698 12.2077351,0.028974073 C12.0007744,0 11.7894745,0 11.3668737,0 L4.63312626,0 C4.21052575,0 3.99922538,0 3.79226542,0.028974073 C3.60846567,0.054705698 3.42745042,0.0974376276 3.25154757,0.156620219 C3.05347943,0.223260358 2.86448574,0.3177571 2.48650122,0.506749392 C2.3578844,0.5710578 2.30575214,0.727454596 2.37006054,0.856071412 C2.41416502,0.944280359 2.50432129,1 2.60294189,1 M5,0 L7,4 M11,0 L8.99998379,4 M16,11 L0,11 M14,20 L13,18 M2.00015831,20 L3,18 M4.51000023,14.5 L4.5,14.5 M11.5,14.5 L11.5100002,14.5"></path>
            </g>
        </g>
    </g>
</svg>