<?xml version="1.0" encoding="UTF-8"?>
<svg width="24px" height="24px" viewBox="0 0 24 24" version="1.1" xmlns="http://www.w3.org/2000/svg" xmlns:xlink="http://www.w3.org/1999/xlink">
    <title>translate-01</title>
    <g id="Line-icons" stroke="none" stroke-width="1" fill="none" fill-rule="evenodd" stroke-linecap="round" stroke-linejoin="round">
        <g id="General" transform="translate(-880, -1116)" fill-rule="nonzero" stroke="#000000" stroke-width="2">
            <g id="Icon" transform="translate(882, 1119)">
                <path d="M17.2935844,14 L11.7064157,14 C11.4302733,14 11.2064157,13.7761424 11.2064157,13.5 C11.2064157,13.4253393 11.2231358,13.3516262 11.2553486,13.2842722 L13.7782936,8.00902367 L13.7782936,8.00902367 C14.0091748,7.52627182 14.1246152,7.28489596 14.2825727,7.20861769 C14.4199357,7.14228493 14.5800643,7.14228493 14.7174273,7.20861769 C14.8753848,7.28489596 14.9908257,7.52627218 15.2217073,8.00902462 L17.7446515,13.2842723 C17.8637946,13.5333898 17.7584296,13.831924 17.5093121,13.9510671 C17.4419581,13.9832799 17.3682451,14 17.2935844,14 Z"></path>
                <path d="M10.913044,14 L9,18 M20,18 L18.086956,14 M0,2 L6,2 L9.5,2 L12,2 M6,2 L6,0 M9.5,2 C9.00386143,4.9572854 7.85258675,7.63618279 6.16554976,9.88442802 C6.76264811,10.342083 7.38747406,10.7248077 8,11 M3,6 C3.60276222,7.42663717 4.81302118,8.84776306 6.16554976,9.88442802 C4.56085968,12.022933 2.47143435,13.7718019 0,15"></path>
            </g>
        </g>
    </g>
</svg>