<?xml version="1.0" encoding="UTF-8"?>
<svg width="24px" height="24px" viewBox="0 0 24 24" version="1.1" xmlns="http://www.w3.org/2000/svg" xmlns:xlink="http://www.w3.org/1999/xlink">
    <title>transform</title>
    <g id="Line-icons" stroke="none" stroke-width="1" fill="none" fill-rule="evenodd" stroke-linecap="round" stroke-linejoin="round">
        <g id="Editor" transform="translate(-880, -756)" fill-rule="nonzero" stroke="#000000" stroke-width="2">
            <g id="Icon" transform="translate(883, 759)">
                <path d="M0,1.5999999 C0,1.03994745 0,0.759921223 0.108993486,0.546009481 C0.204866856,0.357847407 0.357847407,0.204866856 0.546009481,0.108993486 C0.759921223,0 1.03994751,0 1.60000002,0 L2.4000001,0 C2.96005255,0 3.24007872,0 3.45399046,0.108993486 C3.64215253,0.204866856 3.7951331,0.357847407 3.89100647,0.546009481 C4,0.759921223 4,1.03994751 4,1.60000002 L4,2.4000001 C4,2.96005255 4,3.24007872 3.89100647,3.45399046 C3.7951331,3.64215253 3.64215253,3.7951331 3.45399046,3.89100647 C3.24007872,4 2.96005261,4 2.4000001,4 L1.5999999,4 C1.03994745,4 0.759921223,4 0.546009481,3.89100647 C0.357847407,3.7951331 0.204866856,3.64215253 0.108993486,3.45399046 C0,3.24007872 0,2.96005261 0,2.4000001 L0,1.5999999 Z"></path>
                <path d="M0,15.6000004 C0,15.0399479 0,14.7599208 0.108993486,14.5460091 C0.204866856,14.357847 0.357847407,14.2048669 0.546009481,14.1089935 C0.759921223,14 1.03994751,14 1.60000002,14 L2.4000001,14 C2.96005255,14 3.24007872,14 3.45399046,14.1089935 C3.64215253,14.2048669 3.7951331,14.357847 3.89100647,14.5460091 C4,14.7599208 4,15.0399479 4,15.6000004 L4,16.3999996 C4,16.9600521 4,17.2400792 3.89100647,17.4539909 C3.7951331,17.642153 3.64215253,17.7951331 3.45399046,17.8910065 C3.24007872,18 2.96005261,18 2.4000001,18 L1.5999999,18 C1.03994745,18 0.759921223,18 0.546009481,17.8910065 C0.357847407,17.7951331 0.204866856,17.642153 0.108993486,17.4539909 C0,17.2400792 0,16.9600521 0,16.3999996 L0,15.6000004 Z"></path>
                <path d="M14,1.5999999 C14,1.03994745 14,0.759921223 14.1089935,0.546009481 C14.2048669,0.357847407 14.357847,0.204866856 14.5460091,0.108993486 C14.7599208,0 15.0399479,0 15.6000004,0 L16.3999996,0 C16.9600521,0 17.2400792,0 17.4539909,0.108993486 C17.642153,0.204866856 17.7951331,0.357847407 17.8910065,0.546009481 C18,0.759921223 18,1.03994751 18,1.60000002 L18,2.4000001 C18,2.96005255 18,3.24007872 17.8910065,3.45399046 C17.7951331,3.64215253 17.642153,3.7951331 17.4539909,3.89100647 C17.2400792,4 16.9600521,4 16.3999996,4 L15.6000004,4 C15.0399479,4 14.7599208,4 14.5460091,3.89100647 C14.357847,3.7951331 14.2048669,3.64215253 14.1089935,3.45399046 C14,3.24007872 14,2.96005261 14,2.4000001 L14,1.5999999 Z"></path>
                <path d="M14,15.6000004 C14,15.0399479 14,14.7599208 14.1089935,14.5460091 C14.2048669,14.357847 14.357847,14.2048669 14.5460091,14.1089935 C14.7599208,14 15.0399479,14 15.6000004,14 L16.3999996,14 C16.9600521,14 17.2400792,14 17.4539909,14.1089935 C17.642153,14.2048669 17.7951331,14.357847 17.8910065,14.5460091 C18,14.7599208 18,15.0399479 18,15.6000004 L18,16.3999996 C18,16.9600521 18,17.2400792 17.8910065,17.4539909 C17.7951331,17.642153 17.642153,17.7951331 17.4539909,17.8910065 C17.2400792,18 16.9600521,18 16.3999996,18 L15.6000004,18 C15.0399479,18 14.7599208,18 14.5460091,17.8910065 C14.357847,17.7951331 14.2048669,17.642153 14.1089935,17.4539909 C14,17.2400792 14,16.9600521 14,16.3999996 L14,15.6000004 Z"></path>
                <path d="M16,14 L16,4 M2,14 L2,4 M4,2 L14,2 M14,16 L4,16"></path>
            </g>
        </g>
    </g>
</svg>