<?xml version="1.0" encoding="UTF-8"?>
<svg width="24px" height="24px" viewBox="0 0 24 24" version="1.1" xmlns="http://www.w3.org/2000/svg" xmlns:xlink="http://www.w3.org/1999/xlink">
    <title>trash-01</title>
    <g id="Line-icons" stroke="none" stroke-width="1" fill="none" fill-rule="evenodd" stroke-linecap="round" stroke-linejoin="round">
        <g id="General" transform="translate(-880, -1196)" fill-rule="nonzero" stroke="#000000" stroke-width="2">
            <g id="Icon" transform="translate(883, 1198)">
                <line x1="0" y1="4" x2="18" y2="4"></line>
                <path d="M13,4 L13,3.20000005 C13,2.07989502 13,1.51984251 12.7820129,1.09201896 C12.5902662,0.715694845 12.2843051,0.409733713 11.9079809,0.217986971 C11.4801574,0 10.920105,0 9.80000019,0 L8.19999981,0 C7.07989478,0 6.51984262,0 6.09201908,0.217986971 C5.71569496,0.409733713 5.4097338,0.715694845 5.21798706,1.09201896 C5,1.51984251 5,2.07989502 5,3.20000005 L5,4 M7,14.5 L7,9.5 M11,14.5 L11,9.5 M16,4 L16,15.1999998 C16,16.8801575 16,17.7202377 15.6730194,18.3619728 C15.3853998,18.9264584 14.9264574,19.3853998 14.3619719,19.6730194 C13.7202368,20 12.8801575,20 11.1999998,20 L6.80000067,20 C5.11984253,20 4.27976382,20 3.63802862,19.6730194 C3.07354236,19.3853998 2.61460045,18.9264584 2.32698035,18.3619728 C2,17.7202377 2,16.8801575 2,15.1999998 L2,4"></path>
            </g>
        </g>
    </g>
</svg>