<?xml version="1.0" encoding="UTF-8"?>
<svg width="24px" height="24px" viewBox="0 0 24 24" version="1.1" xmlns="http://www.w3.org/2000/svg" xmlns:xlink="http://www.w3.org/1999/xlink">
    <title>trash-03</title>
    <g id="Line-icons" stroke="none" stroke-width="1" fill="none" fill-rule="evenodd" stroke-linecap="round" stroke-linejoin="round">
        <g id="General" transform="translate(-880, -1276)" fill-rule="nonzero" stroke="#000000" stroke-width="2">
            <g id="Icon" transform="translate(883, 1279)">
                <line x1="6" y1="0" x2="12" y2="0"></line>
                <line x1="0" y1="3" x2="18" y2="3"></line>
                <path d="M16,3 L15.2987137,13.51929 C15.1934977,15.097537 15.1408892,15.8866606 14.8000174,16.4850044 C14.4999123,17.0117884 14.0472431,17.4352846 13.5016632,17.6996841 C12.8819695,18 12.091095,18 10.5093451,18 L7.49065495,18 C5.90890551,18 5.11803055,18 4.49833727,17.6996841 C3.95275724,17.4352846 3.50008821,17.0117884 3.19998312,16.4850044 C2.85911083,15.8866606 2.80650252,15.097537 2.70128608,13.5192909 L2,3 M7,12.5 L7,7.5 M11,7.5 L11,12.5"></path>
            </g>
        </g>
    </g>
</svg>