<?xml version="1.0" encoding="UTF-8"?>
<svg width="24px" height="24px" viewBox="0 0 24 24" version="1.1" xmlns="http://www.w3.org/2000/svg" xmlns:xlink="http://www.w3.org/1999/xlink">
    <title>trend-up-01</title>
    <g id="Line-icons" stroke="none" stroke-width="1" fill="none" fill-rule="evenodd" stroke-linecap="round" stroke-linejoin="round">
        <g id="Charts" transform="translate(-880, -476)" fill-rule="nonzero" stroke="#000000" stroke-width="2">
            <g id="Icon" transform="translate(882, 483)">
                <path d="M15.6426117,4.35738832 L12.1313696,7.86863041 L12.1313696,7.86863041 C11.7353534,8.26464659 11.5373457,8.46265488 11.3090172,8.5368433 C11.1081738,8.60210127 10.8918262,8.60210127 10.6909828,8.5368433 C10.4626543,8.46265488 10.2646464,8.26464593 9.86862946,7.86862898 L7.13136959,5.13136959 C6.73535359,4.73535359 6.53734566,4.5373456 6.30901718,4.46315718 C6.10817379,4.39789921 5.89182621,4.39789921 5.69098282,4.46315718 C5.46265434,4.5373456 5.26464593,4.73535407 4.86862898,5.13137102 L4.35738832,5.64261168 C3.96686403,6.03313597 3.96686403,6.66630095 4.35738832,7.05682524 C4.66174858,7.3611855 5.12672004,7.43663998 5.5117087,7.24414565"></path>
                <path d="M13,0 L18.7180574,1.08469149e-16 C19.1638168,-6.30236993e-17 19.3254599,0.0464128056 19.4884229,0.133566352 C19.6513858,0.220719898 19.7792801,0.348614185 19.8664336,0.511577148 C19.9535872,0.674540111 20,0.83618323 20,1.2819426 L20,7 L20,7"></path>
            </g>
        </g>
    </g>
</svg>