<?xml version="1.0" encoding="UTF-8"?>
<svg width="24px" height="24px" viewBox="0 0 24 24" version="1.1" xmlns="http://www.w3.org/2000/svg" xmlns:xlink="http://www.w3.org/1999/xlink">
    <title>triangle</title>
    <g id="Line-icons" stroke="none" stroke-width="1" fill="none" fill-rule="evenodd" stroke-linecap="round" stroke-linejoin="round">
        <g id="Shapes" transform="translate(-880, -276)" fill-rule="nonzero" stroke="#000000" stroke-width="2">
            <g id="triangle" transform="translate(881.7363, 278.4958)">
                <path d="M0.65385884,15.6024818 L8.87874508,1.39585996 C9.33331394,0.610695481 9.56059837,0.218113184 9.85712814,0.0862598419 C10.1157846,-0.0287532806 10.4110689,-0.0287532806 10.6697264,0.0862598419 C10.9662552,0.218113184 11.1935396,0.610694289 11.6481075,1.39585662 L19.8729935,15.602478 C20.3291988,16.3904705 20.5573006,16.7844658 20.5235882,17.107832 C20.4941826,17.3898792 20.3464127,17.6461792 20.117054,17.8129425 C19.8540974,18.004137 19.3988342,18.004137 18.4883118,18.004137 L2.03854251,18.004137 C1.12801814,18.004137 0.672755778,18.004137 0.409798324,17.8129425 C0.180440724,17.6461792 0.0326703228,17.3898792 0.00326490775,17.107832 C-0.0304482542,16.7844658 0.197654068,16.3904705 0.65385884,15.6024818 Z" id="Icon"></path>
            </g>
        </g>
    </g>
</svg>