<?xml version="1.0" encoding="UTF-8"?>
<svg width="24px" height="24px" viewBox="0 0 24 24" version="1.1" xmlns="http://www.w3.org/2000/svg" xmlns:xlink="http://www.w3.org/1999/xlink">
    <title>truck-02</title>
    <g id="Line-icons" stroke="none" stroke-width="1" fill="none" fill-rule="evenodd" stroke-linecap="round" stroke-linejoin="round">
        <g id="Maps-&amp;-travel" transform="translate(-880, -476)" fill-rule="nonzero" stroke="#000000" stroke-width="2">
            <g id="Icon" transform="translate(882, 479)">
                <path d="M10.8000002,0 L3.20000005,0 C2.07989502,0 1.51984251,0 1.09201896,0.217986971 C0.715694845,0.409733713 0.409733713,0.715694845 0.217986971,1.09201896 C0,1.51984251 0,2.07989502 0,3.19999981 L0,9.80000019 C0,10.920105 0,11.4801579 0.217986971,11.9079809 C0.409733713,12.2843056 0.715694845,12.5902662 1.09201896,12.7820129 C1.51984251,13 2.07989502,13 3.19999981,13 L14,13 L14,3.20000005 C14,2.07989502 14,1.51984251 13.7820129,1.09201896 C13.5902662,0.715694845 13.2843056,0.409733713 12.9079809,0.217986971 C12.4801579,0 11.920105,0 10.8000002,0 Z"></path>
                <path d="M4.5,18 C5.88071203,18 7,16.880712 7,15.5 C7,14.1192881 5.88071203,13 4.5,13 C3.11928809,13 2,14.1192881 2,15.5 C2,16.880712 3.11928809,18 4.5,18 Z"></path>
                <path d="M15.5,18 C16.880712,18 18,16.880712 18,15.5 C18,14.1192881 16.880712,13 15.5,13 C14.1192881,13 13,14.1192881 13,15.5 C13,16.880712 14.1192881,18 15.5,18 Z"></path>
                <path d="M14,5 L16.3372574,5 C16.5818479,5 16.7041435,5 16.819231,5.02762985 C16.9212673,5.05212658 17.0188117,5.09253114 17.108284,5.14735985 C17.2092006,5.20920163 17.2956781,5.29567763 17.4686298,5.46862936 L19.5313702,7.53137064 C19.7043219,7.70432258 19.7907982,7.79079843 19.8526402,7.89171505 C19.9074688,7.98118734 19.9478731,8.07873178 19.9723701,8.18076801 C20,8.29585552 20,8.41815114 20,8.66274166 L20,11.3999996 C20,11.960052 20,12.2400794 19.8910065,12.4539909 C19.7951331,12.6421533 19.6421533,12.7951331 19.4539909,12.8910065 C19.2400794,13 18.960052,13 18.3999996,13 L14,13"></path>
            </g>
        </g>
    </g>
</svg>