<?xml version="1.0" encoding="UTF-8"?>
<svg width="24px" height="24px" viewBox="0 0 24 24" version="1.1" xmlns="http://www.w3.org/2000/svg" xmlns:xlink="http://www.w3.org/1999/xlink">
    <title>truck-01</title>
    <g id="Line-icons" stroke="none" stroke-width="1" fill="none" fill-rule="evenodd" stroke-linecap="round" stroke-linejoin="round">
        <g id="Maps-&amp;-travel" transform="translate(-880, -436)" fill-rule="nonzero" stroke="#000000" stroke-width="2">
            <g id="Icon" transform="translate(882, 440)">
                <path d="M5,16 C6.65685415,16 8,14.6568542 8,13 C8,11.3431457 6.65685415,10 5,10 C3.34314573,10 2,11.3431457 2,13 C2,14.6568542 3.34314573,16 5,16 Z"></path>
                <path d="M16,16 C17.3807118,16 18.5,14.8807118 18.5,13.5 C18.5,12.1192881 17.3807118,11 16,11 C14.6192881,11 13.5,12.1192881 13.5,13.5 C13.5,14.8807118 14.6192881,16 16,16 Z"></path>
                <path d="M12,3 L14.3372583,3 C14.5818489,3 14.7041445,3 14.819232,3.02763009 C14.9212682,3.05212682 15.0188127,3.09253114 15.108285,3.14735985 C15.2092016,3.20920163 15.2956772,3.29567742 15.4686289,3.46862912 L19.5313721,7.53137112 C19.7043238,7.70432281 19.7907982,7.79079819 19.8526402,7.89171505 C19.9074688,7.98118734 19.9478731,8.07873201 19.9723701,8.18076801 C20,8.29585552 20,8.4181509 20,8.66274166 L20,11.5 C20,11.9659414 20,12.1989126 19.9238796,12.3826838 C19.8223858,12.6277113 19.6277108,12.8223858 19.3826828,12.9238796 C19.1989117,13 18.9659414,13 18.5,13 M13.5,13 L12,13 L12,13 L12,3.20000005 C12,2.07989502 12,1.51984251 11.7820129,1.09201896 C11.5902662,0.715694845 11.2843056,0.409733713 10.9079809,0.217986971 C10.4801579,0 9.92010498,0 8.80000019,0 L3.20000029,0 C2.07989502,0 1.51984251,0 1.09201896,0.217986971 C0.715694845,0.409733713 0.409733713,0.715694845 0.217986971,1.09201896 C0,1.51984251 0,2.07989502 0,3.19999981 L0,11 C0,12.1045694 0.895430565,13 2,13 M12,13 L8,13"></path>
            </g>
        </g>
    </g>
</svg>