<?xml version="1.0" encoding="UTF-8"?>
<svg width="24px" height="24px" viewBox="0 0 24 24" version="1.1" xmlns="http://www.w3.org/2000/svg" xmlns:xlink="http://www.w3.org/1999/xlink">
    <title>tv-01</title>
    <g id="Line-icons" stroke="none" stroke-width="1" fill="none" fill-rule="evenodd" stroke-linecap="round" stroke-linejoin="round">
        <g id="Media-&amp;-devices" transform="translate(-880, -556)" fill-rule="nonzero" stroke="#000000" stroke-width="2">
            <g id="Icon" transform="translate(882, 559)">
                <path d="M0,4.80000067 C0,3.11984277 0,2.27976376 0.326980442,1.6380285 C0.614600539,1.0735423 1.0735423,0.614600539 1.6380285,0.326980442 C2.27976376,0 3.11984253,0 4.80000019,0 L15.1999998,0 C16.8801575,0 17.7202356,0 18.3619709,0.326980442 C18.9264571,0.614600539 19.3853993,1.0735423 19.6730194,1.6380285 C20,2.27976376 20,3.11984253 20,4.80000019 L20,9.19999981 C20,10.8801577 20,11.7202366 19.6730194,12.3619719 C19.3853993,12.9264581 18.9264571,13.3853993 18.3619709,13.6730194 C17.7202356,14 16.8801575,14 15.1999998,14 L4.80000019,14 C3.11984253,14 2.27976376,14 1.6380285,13.6730194 C1.0735423,13.3853993 0.614600539,12.9264581 0.326980442,12.3619719 C0,11.7202366 0,10.8801575 0,9.19999981 L0,4.80000067 Z"></path>
                <path d="M16,14 L16,16.3999996 C16,16.960052 16,17.2400792 15.8910065,17.4539909 C15.7951336,17.642153 15.6421528,17.7951331 15.4539909,17.8910065 C15.2400789,18 14.9600525,18 14.3999996,18 L5.60000038,18 C5.03994751,18 4.75992131,18 4.54600954,17.8910065 C4.35784748,17.7951331 4.2048669,17.642153 4.10899353,17.4539909 C4,17.2400792 4,16.960052 4,16.3999996 L4,14"></path>
            </g>
        </g>
    </g>
</svg>