<?xml version="1.0" encoding="UTF-8"?>
<svg width="24px" height="24px" viewBox="0 0 24 24" version="1.1" xmlns="http://www.w3.org/2000/svg" xmlns:xlink="http://www.w3.org/1999/xlink">
    <title>tv-03</title>
    <g id="Line-icons" stroke="none" stroke-width="1" fill="none" fill-rule="evenodd" stroke-linecap="round" stroke-linejoin="round">
        <g id="Media-&amp;-devices" transform="translate(-880, -636)" fill-rule="nonzero" stroke="#000000" stroke-width="2">
            <g id="Icon" transform="translate(882, 639)">
                <polyline points="15 0 10 4 5 0"></polyline>
                <path d="M0,8.80000019 C0,7.11984229 0,6.27976388 0.326980442,5.63802862 C0.614600539,5.07354242 1.0735423,4.61460069 1.6380285,4.32698059 C2.27976376,4 3.11984253,4 4.80000019,4 L15.1999998,4 C16.8801575,4 17.7202356,4 18.3619709,4.32698059 C18.9264571,4.61460069 19.3853993,5.07354242 19.6730194,5.63802862 C20,6.27976388 20,7.11984253 20,8.80000019 L20,13.1999998 C20,14.8801577 20,15.7202356 19.6730194,16.3619709 C19.3853993,16.9264571 18.9264571,17.3853993 18.3619709,17.6730194 C17.7202356,18 16.8801575,18 15.1999998,18 L4.80000019,18 C3.11984253,18 2.27976376,18 1.6380285,17.6730194 C1.0735423,17.3853993 0.614600539,16.9264571 0.326980442,16.3619709 C0,15.7202356 0,14.8801575 0,13.1999998 L0,8.80000019 Z"></path>
            </g>
        </g>
    </g>
</svg>