<?xml version="1.0" encoding="UTF-8"?>
<svg width="24px" height="24px" viewBox="0 0 24 24" version="1.1" xmlns="http://www.w3.org/2000/svg" xmlns:xlink="http://www.w3.org/1999/xlink">
    <title>umbrella-01</title>
    <g id="Line-icons" stroke="none" stroke-width="1" fill="none" fill-rule="evenodd" stroke-linecap="round" stroke-linejoin="round">
        <g id="Weather" transform="translate(-880, -396)" fill-rule="nonzero" stroke="#000000" stroke-width="2">
            <g id="Icon" transform="translate(882.0525, 398)">
                <path d="M9.94747448,0 C4.96704292,0 0.836991534,3.64090824 0.0737814754,8.4062624 C-0.000711023808,8.87138081 -0.0379572697,9.10394001 0.0555623583,9.35234165 C0.129969653,9.54997826 0.312141687,9.76364899 0.495524287,9.86837387 C0.72601074,10 0.999832153,10 1.54747486,10 L18.3474751,10 C18.8951187,10 19.1689396,10 19.3994255,9.86837387 C19.5828094,9.76364899 19.7649803,9.54997826 19.8393879,9.35234165 C19.9329071,9.10394001 19.8956623,8.87138081 19.8211689,8.40626335 C19.0579586,3.64090824 14.927906,0 9.94747448,0 Z"></path>
                <path d="M14.9474745,17.4000015 C14.9474744,18.8359423 13.8281863,20 12.4474745,20 C11.0667627,20 9.94747537,18.8359404 9.94747543,17.3999996 L9.94747543,10"></path>
            </g>
        </g>
    </g>
</svg>