<?xml version="1.0" encoding="UTF-8"?>
<svg width="24px" height="24px" viewBox="0 0 24 24" version="1.1" xmlns="http://www.w3.org/2000/svg" xmlns:xlink="http://www.w3.org/1999/xlink">
    <title>umbrella-03</title>
    <g id="Line-icons" stroke="none" stroke-width="1" fill="none" fill-rule="evenodd" stroke-linecap="round" stroke-linejoin="round">
        <g id="Weather" transform="translate(-880, -476)" fill-rule="nonzero" stroke="#000000" stroke-width="2">
            <g id="Icon" transform="translate(882, 477.9983)">
                <path d="M15,1.34141564 C10.68682,-1.14880013 5.28963661,-0.0607068539 2.24600005,3.68460584 C1.94892836,4.05016404 1.80039249,4.23294336 1.757182,4.49482536 C1.72280231,4.70318732 1.77373294,4.97931662 1.88018405,5.16170311 C2.0139783,5.39093755 2.25111461,5.52784824 2.7253871,5.8016696 L17.2746124,14.2016697 C17.7488854,14.4754913 17.986022,14.6124021 18.251442,14.6136541 C18.4626188,14.6146503 18.7272193,14.5206925 18.8904762,14.3867378 C19.0956675,14.2183755 19.1796915,13.9983504 19.3477383,13.5583 C21.0694566,9.04977703 19.3131804,3.83163166 15,1.34141564 Z"></path>
                <path d="M10,10.0016699 L4.24999952,19.9609623 M6.53589821,8.00166988 C9.29732203,3.2187438 13.0868292,0.236846089 15,1.34141564 C16.9131699,2.44598508 16.2255254,7.2187438 13.4641018,12.0016699 M20,20.0016689 L0,20.0016689"></path>
            </g>
        </g>
    </g>
</svg>