<?xml version="1.0" encoding="UTF-8"?>
<svg width="24px" height="24px" viewBox="0 0 24 24" version="1.1" xmlns="http://www.w3.org/2000/svg" xmlns:xlink="http://www.w3.org/1999/xlink">
    <title>upload-01</title>
    <g id="Line-icons" stroke="none" stroke-width="1" fill="none" fill-rule="evenodd" stroke-linecap="round" stroke-linejoin="round">
        <g id="General" transform="translate(-880, -1356)" fill-rule="nonzero" stroke="#000000" stroke-width="2">
            <g id="Icon" transform="translate(883, 1359)">
                <polyline points="14 5 9 0 4 5"></polyline>
                <path d="M18,13.1999998 L18,13.1999998 L18,13.1999998 C18,14.8801575 18,15.7202358 17.6730194,16.3619709 C17.3853989,16.9264574 16.9264584,17.3853993 16.3619709,17.6730194 C15.7202368,18 14.8801575,18 13.1999998,18 L4.79999971,18 C3.11984229,18 2.2797637,18 1.6380285,17.6730194 C1.07354224,17.3853993 0.614600539,16.9264574 0.326980442,16.3619709 C0,15.7202358 0,14.8801574 0,13.1999998 C-8.11624372e-17,12.5372582 0.537258215,12 1.19999981,12 M9,0 L9,12"></path>
            </g>
        </g>
    </g>
</svg>