<?xml version="1.0" encoding="UTF-8"?>
<svg width="24px" height="24px" viewBox="0 0 24 24" version="1.1" xmlns="http://www.w3.org/2000/svg" xmlns:xlink="http://www.w3.org/1999/xlink">
    <title>usb-flash-drive</title>
    <g id="Line-icons" stroke="none" stroke-width="1" fill="none" fill-rule="evenodd" stroke-linecap="round" stroke-linejoin="round">
        <g id="Media-&amp;-devices" transform="translate(-880, -676)" fill-rule="nonzero" stroke="#000000" stroke-width="2">
            <g id="Icon" transform="translate(884, 678)">
                <path d="M0,10.1999998 C0,9.07989478 0,8.51984257 0.217986971,8.09201908 C0.409733713,7.71569493 0.715694815,7.4097338 1.09201896,7.21798706 C1.51984245,7 2.07989502,7 3.20000005,7 L12.8000002,7 C13.9201051,7 14.4801574,7 14.9079809,7.21798706 C15.2843051,7.4097338 15.5902662,7.71569493 15.7820129,8.09201908 C16,8.51984257 16,9.07989466 16,10.1999998 L16,15.1999998 C16,16.8801578 16,17.7202376 15.6730194,18.3619728 C15.3853993,18.926459 14.9264581,19.3853993 14.3619719,19.6730194 C13.7202366,20 12.8801575,20 11.1999998,20 L4.80000019,20 C3.11984253,20 2.27976376,20 1.6380285,19.6730194 C1.0735423,19.3853993 0.614600539,18.926459 0.326980442,18.3619728 C0,17.7202376 0,16.8801576 0,15.1999998 L0,10.1999998 Z"></path>
                <path d="M14,7 L14,1.60000002 C14,1.03994751 14,0.759921253 13.8910065,0.546009481 C13.7951336,0.357847422 13.6421528,0.204866856 13.4539909,0.108993486 C13.2400789,0 12.9600525,0 12.3999996,0 L3.60000014,0 C3.03994751,0 2.75992131,0 2.54600954,0.108993486 C2.35784748,0.204866856 2.2048669,0.357847422 2.10899353,0.546009481 C2,0.759921253 2,1.03994751 2,1.5999999 L2,7 M6,3 L6,4 M10,4 L10,3"></path>
            </g>
        </g>
    </g>
</svg>