<?xml version="1.0" encoding="UTF-8"?>
<svg width="24px" height="24px" viewBox="0 0 24 24" version="1.1" xmlns="http://www.w3.org/2000/svg" xmlns:xlink="http://www.w3.org/1999/xlink">
    <title>user-02</title>
    <g id="Line-icons" stroke="none" stroke-width="1" fill="none" fill-rule="evenodd" stroke-linecap="round" stroke-linejoin="round">
        <g id="Users" transform="translate(-64, -476)" fill-rule="nonzero" stroke="#000000" stroke-width="2">
            <g id="Icon" transform="translate(67.6427, 479)">
                <path d="M8.35727215,12 C5.1871953,12 2.36807013,13.5306339 0.573266983,15.9059668 C0.186977208,16.4172022 -0.00616768656,16.6728187 0,17.0182838 C0.00503119173,17.2851863 0.172633499,17.6218953 0.382639199,17.7866936 C0.654459983,18 1.03114152,18 1.78450465,18 L14.9300413,18 C15.6834049,18 16.0600872,18 16.3319073,17.7866936 C16.5419121,17.6218953 16.7095146,17.2851863 16.7145462,17.0182838 C16.7207146,16.6728187 16.5275688,16.4172018 16.1412792,15.9059668 C14.3464766,13.5306337 11.5273495,12 8.35727215,12 Z"></path>
                <path d="M8.3572731,9 C10.8425546,9 12.8572731,6.98528147 12.8572731,4.5 C12.8572731,2.01471853 10.8425546,0 8.3572731,0 C5.87199163,0 3.8572731,2.01471853 3.8572731,4.5 C3.8572731,6.98528147 5.87199163,9 8.3572731,9 Z"></path>
            </g>
        </g>
    </g>
</svg>