<?xml version="1.0" encoding="UTF-8"?>
<svg width="24px" height="24px" viewBox="0 0 24 24" version="1.1" xmlns="http://www.w3.org/2000/svg" xmlns:xlink="http://www.w3.org/1999/xlink">
    <title>user-check-02</title>
    <g id="Line-icons" stroke="none" stroke-width="1" fill="none" fill-rule="evenodd" stroke-linecap="round" stroke-linejoin="round">
        <g id="Users" transform="translate(-336, -156)" fill-rule="nonzero" stroke="#000000" stroke-width="2">
            <g id="Icon" transform="translate(338, 160)">
                <path d="M7,7 C8.93299675,7 10.5,5.43299675 10.5,3.5 C10.5,1.56700325 8.93299675,0 7,0 C5.06700325,0 3.5,1.56700325 3.5,3.5 C3.5,5.43299675 5.06700325,7 7,7 Z"></path>
                <polyline points="14 2 16 4 20 0"></polyline>
                <path d="M14,15.8000002 L14,15.8000002 L14,15.8000002 C14,14.1198425 14,13.2797633 13.6730194,12.6380281 C13.3853998,12.0735419 12.9264574,11.6146007 12.3619719,11.3269806 C11.7202368,11 10.8801575,11 9.19999981,11 L4.80000019,11 C3.11984253,11 2.2797637,11 1.6380285,11.3269806 C1.07354224,11.6146007 0.614600539,12.0735419 0.326980442,12.6380281 C0,13.2797633 0,14.1198425 0,15.8000002 C8.11624372e-17,16.4627418 0.537258215,17 1.19999981,17"></path>
            </g>
        </g>
    </g>
</svg>