<?xml version="1.0" encoding="UTF-8"?>
<svg width="24px" height="24px" viewBox="0 0 24 24" version="1.1" xmlns="http://www.w3.org/2000/svg" xmlns:xlink="http://www.w3.org/1999/xlink">
    <title>users-edit</title>
    <g id="Line-icons" stroke="none" stroke-width="1" fill="none" fill-rule="evenodd" stroke-linecap="round" stroke-linejoin="round">
        <g id="Users" transform="translate(-880, -196)" fill-rule="nonzero" stroke="#000000" stroke-width="2">
            <g id="Icon" transform="translate(882, 199)">
                <path d="M10.4049778,16.4749832 C10.4402966,16.2984339 10.4579563,16.2101594 10.4902468,16.1278439 C10.518908,16.0547801 10.5560708,15.9853448 10.6009684,15.9209709 C10.6515511,15.8484456 10.7152076,15.7847885 10.8425207,15.6574755 L17.5,9 C18.0522896,8.44770658 18.9477214,8.44769651 19.5000229,8.99997044 C20.0523465,9.55226648 20.0523554,10.4477425 19.500042,11.0000486 L12.842555,17.6574478 C12.7152293,17.7847719 12.6515659,17.8484336 12.5790329,17.8990192 C12.5146522,17.9439194 12.4452097,17.981084 12.372138,18.0097446 C12.2898136,18.0420344 12.201529,18.0596914 12.0249605,18.0950031 L9.99987221,18.5 L10.4049778,16.4749832 Z"></path>
                <path d="M7.5,8 C9.70913887,8 11.5,6.20913887 11.5,4 C11.5,1.79086089 9.70913887,0 7.5,0 C5.29086089,0 3.5,1.79086089 3.5,4 C3.5,6.20913887 5.29086089,8 7.5,8 Z"></path>
                <path d="M6,12 L6,12 L6,12 C4.13623381,12 3.20435047,12 2.46926618,12.3044815 C1.48915398,12.7104573 0.710457683,13.4891537 0.304481864,14.4692659 C0,15.2043502 0,16.1362338 0,18 M13.5,0.29075861 C14.9659152,0.884145975 16,2.321311 16,4"></path>
            </g>
        </g>
    </g>
</svg>