<?xml version="1.0" encoding="UTF-8"?>
<svg width="24px" height="24px" viewBox="0 0 24 24" version="1.1" xmlns="http://www.w3.org/2000/svg" xmlns:xlink="http://www.w3.org/1999/xlink">
    <title>user-right-02</title>
    <g id="Line-icons" stroke="none" stroke-width="1" fill="none" fill-rule="evenodd" stroke-linecap="round" stroke-linejoin="round">
        <g id="Users" transform="translate(-608, -196)" fill-rule="nonzero" stroke="#000000" stroke-width="2">
            <g id="Icon" transform="translate(610, 199)">
                <path d="M7,8 C8.93299675,8 10.5,6.43299675 10.5,4.5 C10.5,2.56700325 8.93299675,1 7,1 C5.06700325,1 3.5,2.56700325 3.5,4.5 C3.5,6.43299675 5.06700325,8 7,8 Z"></path>
                <path d="M17,6 L20,3 L17,0 M20,3 L14,3 M14,16.7999992 L14,16.7999992 L14,16.7999992 C14,15.1198416 14,14.2797633 13.6730194,13.6380281 C13.3853998,13.0735419 12.9264574,12.6146007 12.3619719,12.3269806 C11.7202368,12 10.8801575,12 9.19999981,12 L4.80000019,12 C3.11984253,12 2.2797637,12 1.6380285,12.3269806 C1.07354224,12.6146007 0.614600539,13.0735419 0.326980442,13.6380281 C0,14.2797633 0,15.1198416 0,16.7999992 C8.11625017e-17,17.4627414 0.537258642,18 1.20000076,18"></path>
            </g>
        </g>
    </g>
</svg>