<?xml version="1.0" encoding="UTF-8"?>
<svg width="24px" height="24px" viewBox="0 0 24 24" version="1.1" xmlns="http://www.w3.org/2000/svg" xmlns:xlink="http://www.w3.org/1999/xlink">
    <title>user-square</title>
    <g id="Line-icons" stroke="none" stroke-width="1" fill="none" fill-rule="evenodd" stroke-linecap="round" stroke-linejoin="round">
        <g id="Users" transform="translate(-608, -236)" fill-rule="nonzero" stroke="#000000" stroke-width="2">
            <g id="Icon" transform="translate(610, 238)">
                <path d="M10,11.5 C12.2091389,11.5 14,9.70913887 14,7.5 C14,5.29086089 12.2091389,3.5 10,3.5 C7.79086089,3.5 6,5.29086089 6,7.5 C6,9.70913887 7.79086089,11.5 10,11.5 Z"></path>
                <path d="M0,4.80000019 C0,3.11984253 0,2.27976376 0.326980442,1.6380285 C0.614600539,1.0735423 1.0735423,0.614600539 1.6380285,0.326980442 C2.27976376,0 3.11984253,0 4.80000019,0 L15.1999998,0 C16.8801575,0 17.7202356,0 18.3619709,0.326980442 C18.9264571,0.614600539 19.3853993,1.0735423 19.6730194,1.6380285 C20,2.27976376 20,3.11984253 20,4.80000019 L20,15.1999998 C20,16.8801575 20,17.7202356 19.6730194,18.3619709 C19.3853993,18.9264571 18.9264571,19.3853993 18.3619709,19.6730194 C18.2486663,19.730751 18.1291779,19.7782892 17.9999752,19.8174343 C17.3973988,20 16.5835094,20 15.1999998,20 L4.80000019,20 C3.41649103,20 2.60260028,20 2.00002384,19.8174343 C1.87082094,19.7782892 1.75133322,19.730751 1.6380285,19.6730194 C1.0735423,19.3853993 0.614600539,18.9264571 0.326980442,18.3619709 C0,17.7202356 0,16.8801575 0,15.1999998 L0,4.80000019 Z"></path>
                <path d="M2.00002384,19.8174343 C2.0003526,19.0081013 2.00520616,18.5798618 2.076859,18.2196388 C2.39248568,16.6328763 3.63287628,15.3924852 5.21963882,15.0768585 C5.60603428,15 6.07068968,15 7,15 L13,15 C13.9293108,15 14.3939657,15 14.7803612,15.0768585 C16.3671236,15.3924852 17.6075144,16.6328763 17.9231415,18.2196388 C17.994794,18.5798617 17.9996465,19.0081015 17.9999752,19.8174343"></path>
            </g>
        </g>
    </g>
</svg>