<?xml version="1.0" encoding="UTF-8"?>
<svg width="24px" height="24px" viewBox="0 0 24 24" version="1.1" xmlns="http://www.w3.org/2000/svg" xmlns:xlink="http://www.w3.org/1999/xlink">
    <title>user-edit</title>
    <g id="Line-icons" stroke="none" stroke-width="1" fill="none" fill-rule="evenodd" stroke-linecap="round" stroke-linejoin="round">
        <g id="Users" transform="translate(-336, -316)" fill-rule="nonzero" stroke="#000000" stroke-width="2">
            <g id="Icon" transform="translate(338, 319)">
                <path d="M8,9 C10.4852815,9 12.5,6.98528147 12.5,4.5 C12.5,2.01471853 10.4852815,0 8,0 C5.51471853,0 3.5,2.01471853 3.5,4.5 C3.5,6.98528147 5.51471853,9 8,9 Z"></path>
                <path d="M9.88609982,14.8986502 C9.92853288,14.7501345 9.94974994,14.6758764 9.98155022,14.606616 C10.0097868,14.5451173 10.0441923,14.4866442 10.084239,14.4320946 C10.1293399,14.3706604 10.1839493,14.3160505 10.2931681,14.2068319 L16.7500153,7.7499938 C17.4403731,7.05963695 18.5596606,7.05962765 19.2500305,7.74997234 C19.9404218,8.44033837 19.940427,9.55966771 19.2500439,10.250042 L12.7931662,16.7068367 C12.6839481,16.8160534 12.629339,16.870662 12.5679054,16.9157619 C12.5133564,16.9558078 12.4548838,16.9902137 12.3933859,17.0184498 C12.3241264,17.0502495 12.249869,17.0714668 12.1013556,17.1138992 L9,18 L9.88609982,14.8986502 Z"></path>
                <path d="M5.5,12.5 L5.5,12.5 L5.5,12.5 C4.10443783,12.5 3.40665436,12.5 2.83885813,12.6722393 C1.56045496,13.0600398 0.560040176,14.0604545 0.172239631,15.3388577 C0,15.9066539 0,16.6044374 0,18"></path>
            </g>
        </g>
    </g>
</svg>