<?xml version="1.0" encoding="UTF-8"?>
<svg width="24px" height="24px" viewBox="0 0 24 24" version="1.1" xmlns="http://www.w3.org/2000/svg" xmlns:xlink="http://www.w3.org/1999/xlink">
    <title>user-circle</title>
    <g id="Line-icons" stroke="none" stroke-width="1" fill="none" fill-rule="evenodd" stroke-linecap="round" stroke-linejoin="round">
        <g id="Users" transform="translate(-336, -196)" fill-rule="nonzero" stroke="#000000" stroke-width="2">
            <g id="Icon" transform="translate(338, 198)">
                <path d="M10,11.5 C12.2091389,11.5 14,9.70913887 14,7.5 C14,5.29086089 12.2091389,3.5 10,3.5 C7.79086089,3.5 6,5.29086089 6,7.5 C6,9.70913887 7.79086089,11.5 10,11.5 Z"></path>
                <path d="M10,20 C15.5228481,20 20,15.5228481 20,10 C20,4.47715235 15.5228481,0 10,0 C4.47715235,0 0,4.47715235 0,10 C0,15.5228481 4.47715235,20 10,20 Z"></path>
                <path d="M3.31629515,17.4384041 C3.92462063,16.0052006 5.34492183,15 7,15 L13,15 C14.655077,15 16.0753746,16.0052059 16.6837006,17.4384079"></path>
            </g>
        </g>
    </g>
</svg>