<?xml version="1.0" encoding="UTF-8"?>
<svg width="24px" height="24px" viewBox="0 0 24 24" version="1.1" xmlns="http://www.w3.org/2000/svg" xmlns:xlink="http://www.w3.org/1999/xlink">
    <title>users-minus</title>
    <g id="Line-icons" stroke="none" stroke-width="1" fill="none" fill-rule="evenodd" stroke-linecap="round" stroke-linejoin="round">
        <g id="Users" transform="translate(-880, -276)" fill-rule="nonzero" stroke="#000000" stroke-width="2">
            <g id="Icon" transform="translate(882, 279)">
                <path d="M7.5,8 C9.70913887,8 11.5,6.20913887 11.5,4 C11.5,1.79086089 9.70913887,0 7.5,0 C5.29086089,0 3.5,1.79086089 3.5,4 C3.5,6.20913887 5.29086089,8 7.5,8 Z"></path>
                <path d="M20,15 L14,15 M13.5,0.29075861 C14.9659152,0.884145975 16,2.321311 16,4 C16,5.678689 14.9659152,7.11585379 13.5,7.70924139 M6,12 L6,12 L6,12 C4.13623381,12 3.20435047,12 2.46926618,12.3044815 C1.48915398,12.7104573 0.710457683,13.4891537 0.304481864,14.4692659 C0,15.2043502 0,16.1362338 0,18"></path>
            </g>
        </g>
    </g>
</svg>