<?xml version="1.0" encoding="UTF-8"?>
<svg width="24px" height="24px" viewBox="0 0 24 24" version="1.1" xmlns="http://www.w3.org/2000/svg" xmlns:xlink="http://www.w3.org/1999/xlink">
    <title>users-03</title>
    <g id="Line-icons" stroke="none" stroke-width="1" fill="none" fill-rule="evenodd" stroke-linecap="round" stroke-linejoin="round">
        <g id="Users" transform="translate(-608, -512)" fill-rule="nonzero" stroke="#000000" stroke-width="2">
            <g id="Icon" transform="translate(610.0539, 515)">
                <path d="M7.44612551,9 C9.93140697,9 11.946126,6.98528147 11.946126,4.5 C11.946126,2.01471853 9.93140697,0 7.44612551,0 C4.96084404,0 2.94612575,2.01471853 2.94612575,4.5 C2.94612575,6.98528147 4.96084404,9 7.44612551,9 Z"></path>
                <path d="M7.44612503,12 C4.61549759,12 2.0996635,13.5445507 0.505356193,15.9383411 C0.156088233,16.4627533 -0.0185456884,16.7249594 0.00155955437,17.0599155 C0.0172140587,17.3207211 0.188174188,17.6399918 0.396564782,17.7975922 C0.664203882,18 1.03229678,18 1.76848269,18 L13.1237688,18 C13.8599548,18 14.2280483,18 14.4956875,17.7975922 C14.7040777,17.6399918 14.8750381,17.3207211 14.8906927,17.0599155 C14.9107971,16.7249594 14.7361631,16.4627535 14.3868952,15.9383411 C12.7925882,13.5445509 10.276752,12 7.44612503,12 Z"></path>
                <path d="M15.946126,12.8368845 C17.4020263,13.568252 18.6502573,14.7419513 19.5613651,16.2096272 C19.7417922,16.5002716 19.832006,16.6455932 19.8631973,16.8468304 C19.9265828,17.2557726 19.6469319,17.7585325 19.2660618,17.9203644 C19.0786388,18 18.8678014,18 18.4461269,18 M13.946126,8.53223991 C15.4278445,7.7958889 16.446125,6.26686049 16.446125,4.5 C16.446125,2.73313928 15.4278445,1.2041111 13.946126,0.467759848"></path>
            </g>
        </g>
    </g>
</svg>