<?xml version="1.0" encoding="UTF-8"?>
<svg width="24px" height="24px" viewBox="0 0 24 24" version="1.1" xmlns="http://www.w3.org/2000/svg" xmlns:xlink="http://www.w3.org/1999/xlink">
    <title>variable</title>
    <g id="Line-icons" stroke="none" stroke-width="1" fill="none" fill-rule="evenodd" stroke-linecap="round" stroke-linejoin="round">
        <g id="Development" transform="translate(-880, -596)" fill-rule="nonzero" stroke="#000000" stroke-width="2">
            <g id="variable" transform="translate(882, 599)">
                <path d="M17.9060726,18 C19.2463682,15.2888422 20,12.232893 20,9 C20,5.76710653 19.2463675,2.71115756 17.9060726,0 M2.0939281,0 C0.753632784,2.71115804 0,5.76710653 0,9 C0,12.232893 0.753633022,15.2888422 2.0939281,18 M14.4589596,5.625 L14.4589596,5.625 L14.4589596,5.625 C13.8055582,5.625 13.1847801,5.91201606 12.759552,6.41071939 L7.38471127,12.7142811 C6.95948327,13.2129841 6.33870554,13.5 5.68530416,13.5 C5.66662199,13.5 5.65147709,13.4848551 5.65147709,13.4661729 C5.65147709,13.4564491 5.6556616,13.4471955 5.66296289,13.4407734 M7.79824681,5.625 L8.108922,5.625 L8.108922,5.625 C8.60858965,5.625 9.04771876,5.9579747 9.18498802,6.44093895 L10.9594231,12.6840611 C11.0966921,13.1670251 11.5358214,13.5 12.0354891,13.5 L12.3461643,13.5 C12.6223067,13.5 12.8461643,13.2761424 12.8461643,13 C12.8461643,12.8810891 12.8037852,12.7660707 12.7266327,12.675587" id="Icon"></path>
            </g>
        </g>
    </g>
</svg>