<?xml version="1.0" encoding="UTF-8"?>
<svg width="24px" height="24px" viewBox="0 0 24 24" version="1.1" xmlns="http://www.w3.org/2000/svg" xmlns:xlink="http://www.w3.org/1999/xlink">
    <title>video-recorder-off</title>
    <g id="Line-icons" stroke="none" stroke-width="1" fill="none" fill-rule="evenodd" stroke-linecap="round" stroke-linejoin="round">
        <g id="Media-&amp;-devices" transform="translate(-880, -756)" fill-rule="nonzero" stroke="#000000" stroke-width="2">
            <g id="Icon" transform="translate(882, 758)">
                <path d="M20,6.93137074 C20,6.32555509 20,6.02264716 19.8802032,5.88238287 C19.7762575,5.760678 19.6203288,5.69609063 19.4607697,5.7086482 C19.2768785,5.72312074 19.062692,5.93730894 18.6343155,6.36568546 L15,10 L18.6343155,13.6343155 C19.0626912,14.0626912 19.2768785,14.2768797 19.4607697,14.2913523 C19.6203288,14.3039098 19.7762575,14.2393225 19.8802032,14.1176176 C20,13.9773533 20,13.6744452 20,13.0686293 L20,6.93137074 Z"></path>
                <path d="M3,3 C1.34314585,3 0,4.34314585 0,6 L0,14 C0,15.6568546 1.34314561,17 3,17 L12,17 C13.3526583,17 14.4962273,16.1047783 14.8705454,14.8744926 M20,20 L0,0 M10.1999998,3 L10.1999998,3 L10.1999998,3 C11.8801575,3 12.7202358,3 13.3619709,3.32698035 C13.9264574,3.61460045 14.3853993,4.07354236 14.6730194,4.63802862 C15,5.27976382 15,6.11984253 15,7.80000019 L15,10"></path>
            </g>
        </g>
    </g>
</svg>