<?xml version="1.0" encoding="UTF-8"?>
<svg width="24px" height="24px" viewBox="0 0 24 24" version="1.1" xmlns="http://www.w3.org/2000/svg" xmlns:xlink="http://www.w3.org/1999/xlink">
    <title>video-recorder</title>
    <g id="Line-icons" stroke="none" stroke-width="1" fill="none" fill-rule="evenodd" stroke-linecap="round" stroke-linejoin="round">
        <g id="Media-&amp;-devices" transform="translate(-880, -716)" fill-rule="nonzero" stroke="#000000" stroke-width="2">
            <g id="Icon" transform="translate(882, 721)">
                <path d="M20,3.9313705 C20,3.32555485 20,3.02264692 19.8802032,2.88238263 C19.7762575,2.76067776 19.6203288,2.69609063 19.4607697,2.7086482 C19.2768785,2.72312074 19.062692,2.93730894 18.6343155,3.36568546 L15,7 L18.6343155,10.6343155 C19.0626912,11.0626912 19.2768785,11.2768797 19.4607697,11.2913523 C19.6203288,11.3039098 19.7762575,11.2393225 19.8802032,11.1176176 C20,10.9773533 20,10.6744452 20,10.0686293 L20,3.9313705 Z"></path>
                <path d="M0,4.80000067 C0,3.11984277 0,2.27976376 0.326980442,1.6380285 C0.614600539,1.0735423 1.0735423,0.614600539 1.6380285,0.326980442 C2.27976376,0 3.11984241,0 4.80000019,0 L10.1999998,0 C11.8801572,0 12.7202366,0 13.3619719,0.326980442 C13.9264581,0.614600539 14.3853993,1.0735423 14.6730194,1.6380285 C15,2.27976376 15,3.11984253 15,4.80000019 L15,9.19999981 C15,10.8801577 15,11.7202366 14.6730194,12.3619719 C14.3853993,12.9264581 13.9264581,13.3853993 13.3619719,13.6730194 C12.7202366,14 11.8801576,14 10.1999998,14 L4.79999971,14 C3.11984229,14 2.27976376,14 1.6380285,13.6730194 C1.0735423,13.3853993 0.614600539,12.9264581 0.326980442,12.3619719 C0,11.7202366 0,10.8801575 0,9.19999981 L0,4.80000067 Z"></path>
            </g>
        </g>
    </g>
</svg>