<?xml version="1.0" encoding="UTF-8"?>
<svg width="24px" height="24px" viewBox="0 0 24 24" version="1.1" xmlns="http://www.w3.org/2000/svg" xmlns:xlink="http://www.w3.org/1999/xlink">
    <title>virus</title>
    <g id="Line-icons" stroke="none" stroke-width="1" fill="none" fill-rule="evenodd" stroke-linecap="round" stroke-linejoin="round">
        <g id="General" transform="translate(-880, -1596)" fill-rule="nonzero" stroke="#000000" stroke-width="2">
            <g id="Icon" transform="translate(882, 1598)">
                <path d="M9.99997711,15 C12.7614012,15 15,12.761446 15,10.0000219 C15,7.23859811 12.7614012,5 9.99997711,5 C7.23855329,5 5,7.23859906 5,10.0000229 C5,12.761447 7.23855329,15 9.99997711,15 Z"></path>
                <path d="M9.99997711,0.19273537 L9.99997711,0 L9.99997711,0 C9.28671646,0 8.59089756,0.0746744424 7.91991091,0.216631785 M12.0800428,0.216631785 C11.4090567,0.0746744424 10.7132378,0 9.99997711,0 M9.99997711,19.8142392 L9.99997711,20 L9.99997711,20 C10.7121716,20 11.4069767,19.9255486 12.077034,19.7840042 M7.91544771,19.782423 C8.58781147,19.9249935 9.28513527,20 9.99997711,20 M6.46444321,6.46446609 L2.9289093,2.92893219 M17.0710449,17.0710678 L13.535511,13.5355339 M0.193020105,10.0000229 L0,10.0000229 L0,10.0000229 C0,10.7133379 0.0746629536,11.4091854 0.216641396,12.0802193 M0.217265785,7.91683149 C0.0748819262,8.58877563 0,9.2856636 0,10.0000229 M19.8068436,10.0000219 L20,10.0000219 L20,10.0000219 C20,9.28670692 19.925293,8.59081459 19.7833138,7.91978073 M19.7834797,12.0794277 C19.9253502,11.408638 20,10.7130566 20,10.0000219 M6.46444321,13.5355339 L2.9289093,17.0710678 M17.0710449,2.92893243 L13.535511,6.46446609 M18.3887844,4.55469418 C17.6248569,3.38022852 16.6209736,2.37618756 15.44664,1.61207545 M15.4444571,18.3893452 C16.6183128,17.6259804 17.6219597,16.6229229 18.3860168,15.4495592 M1.61474359,15.4507961 C2.37831306,16.6230335 3.38103724,17.6252308 4.55371189,18.3881836 M1.61170757,4.55386686 C2.37544632,3.37994385 3.37893581,2.37632751 4.55275345,1.61244035"></path>
            </g>
        </g>
    </g>
</svg>