<?xml version="1.0" encoding="UTF-8"?>
<svg width="24px" height="24px" viewBox="0 0 24 24" version="1.1" xmlns="http://www.w3.org/2000/svg" xmlns:xlink="http://www.w3.org/1999/xlink">
    <title>voicemail</title>
    <g id="Line-icons" stroke="none" stroke-width="1" fill="none" fill-rule="evenodd" stroke-linecap="round" stroke-linejoin="round">
        <g id="Media-&amp;-devices" transform="translate(-880, -796)" fill-rule="nonzero" stroke="#000000" stroke-width="2">
            <g id="Icon" transform="translate(882, 804)">
                <path d="M4,8 C6.20913935,8 8,6.20913935 8,4 C8,1.79086089 6.20913935,0 4,0 C1.79086089,0 0,1.79086089 0,4 C0,6.20913935 1.79086089,8 4,8 Z"></path>
                <path d="M16,8 C18.2091393,8 20,6.20913935 20,4 C20,1.79086089 18.2091393,0 16,0 C13.7908609,0 12,1.79086089 12,4 C12,6.20913935 13.7908609,8 16,8 Z"></path>
                <line x1="4" y1="8.00000191" x2="16" y2="8.00000095"></line>
            </g>
        </g>
    </g>
</svg>