<?xml version="1.0" encoding="UTF-8"?>
<svg width="24px" height="24px" viewBox="0 0 24 24" version="1.1" xmlns="http://www.w3.org/2000/svg" xmlns:xlink="http://www.w3.org/1999/xlink">
    <title>volume-minus</title>
    <g id="Line-icons" stroke="none" stroke-width="1" fill="none" fill-rule="evenodd" stroke-linecap="round" stroke-linejoin="round">
        <g id="Media-&amp;-devices" transform="translate(-880, -916)" fill-rule="nonzero" stroke="#000000" stroke-width="2">
            <g id="Icon" transform="translate(882, 919.7071)">
                <path d="M0,5.8928957 C0,5.33284324 0,5.05281708 0.108993486,4.83890533 C0.204866856,4.65074326 0.357847407,4.49776269 0.546009481,4.40188932 C0.759921223,4.29289584 1.03994751,4.29289579 1.60000002,4.29289579 L3.33725834,4.29289579 C3.58184893,4.29289579 3.70414418,4.29289602 3.81923175,4.26526594 C3.92126797,4.24076921 4.01881264,4.20036465 4.10828495,4.14553595 C4.20920157,4.08369416 4.29567766,3.99721837 4.46862936,3.82426667 L7.63431549,0.658580184 C8.06269124,0.230204433 8.27687949,0.0160165939 8.46077061,0.00154405436 C8.62032971,-0.0110135155 8.77625746,0.0535737947 8.88020325,0.175278664 C9,0.315542951 9,0.61845094 9,1.22426689 L9,15.3615255 C9,15.9673414 9,16.2702486 8.88020325,16.4105129 C8.77625746,16.5322178 8.62032971,16.5968052 8.46077061,16.5842476 C8.27687949,16.569775 8.06269106,16.3555873 7.63431454,15.9272108 L4.46862888,12.7615242 C4.29567748,12.5885728 4.20920157,12.5020979 4.10828495,12.4402561 C4.01881264,12.3854274 3.92126797,12.3450229 3.81923175,12.3205261 C3.70414418,12.292896 3.58184898,12.2928963 3.33725834,12.2928963 L1.5999999,12.2928963 C1.03994745,12.2928963 0.759921223,12.2928962 0.546009481,12.1839027 C0.357847407,12.0880294 0.204866856,11.9350483 0.108993486,11.7468863 C0,11.5329745 0,11.2529485 0,10.6928959 L0,5.8928957 Z"></path>
                <line x1="13" y1="8.29289532" x2="20" y2="8.29289532"></line>
            </g>
        </g>
    </g>
</svg>