<?xml version="1.0" encoding="UTF-8"?>
<svg width="24px" height="24px" viewBox="0 0 24 24" version="1.1" xmlns="http://www.w3.org/2000/svg" xmlns:xlink="http://www.w3.org/1999/xlink">
    <title>watch-square</title>
    <g id="Line-icons" stroke="none" stroke-width="1" fill="none" fill-rule="evenodd" stroke-linecap="round" stroke-linejoin="round">
        <g id="Time" transform="translate(-880, -396)" fill-rule="nonzero" stroke="#000000" stroke-width="2">
            <g id="Icon" transform="translate(885.5, 398)">
                <polyline points="6.5 7 6.5 10 8 11.5"></polyline>
                <path d="M0,6.69999981 C0,5.5798949 0,5.01984257 0.217986971,4.59201908 C0.409733713,4.21569493 0.715694815,3.9097338 1.09201896,3.71798706 C1.51984245,3.5 2.07989502,3.5 3.20000005,3.5 L9.80000019,3.5 C10.9201051,3.5 11.4801574,3.5 11.9079809,3.71798706 C12.2843051,3.9097338 12.5902662,4.21569493 12.7820129,4.59201908 C13,5.01984257 13,5.57989478 13,6.69999981 L13,13.3000002 C13,14.4201051 13,14.9801574 12.7820129,15.4079809 C12.5902662,15.7843051 12.2843051,16.0902662 11.9079809,16.2820129 C11.4801574,16.5 10.9201052,16.5 9.80000019,16.5 L3.19999981,16.5 C2.0798949,16.5 1.51984245,16.5 1.09201896,16.2820129 C0.715694815,16.0902662 0.409733713,15.7843051 0.217986971,15.4079809 C0,14.9801574 0,14.4201052 0,13.3000002 L0,6.69999981 Z"></path>
                <path d="M11.5,16.5 L11.1631117,17.6791077 C10.9254179,18.5110403 10.8065662,18.9270151 10.5639353,19.2357674 C10.3497782,19.5082867 10.0684757,19.7204738 9.74760818,19.8515244 C9.3840785,20 8.95146418,20 8.08623505,20 L4.91376495,20 C4.04853606,20 3.6159215,20 3.25239182,19.8515244 C2.9315244,19.7204738 2.65022153,19.5082867 2.43606424,19.2357674 C2.19343275,18.9270141 2.07458445,18.5110462 1.83688772,17.6791077 L1.5,16.5 M11.5,3.5 L11.1631117,2.32089233 C10.9254179,1.48895955 10.8065662,1.07298434 10.5639353,0.76423198 C10.3497782,0.49171266 10.0684757,0.279525548 9.74760818,0.148474976 C9.3840785,0 8.95146418,0 8.08623505,0 L4.91376495,0 C4.04853606,0 3.6159215,0 3.25239182,0.148474976 C2.9315244,0.279525548 2.65022153,0.49171266 2.43606424,0.76423198 C2.19343275,1.07298529 2.07458445,1.48895454 1.83688772,2.32089305 L1.5,3.5"></path>
            </g>
        </g>
    </g>
</svg>