<?xml version="1.0" encoding="UTF-8"?>
<svg width="24px" height="24px" viewBox="0 0 24 24" version="1.1" xmlns="http://www.w3.org/2000/svg" xmlns:xlink="http://www.w3.org/1999/xlink">
    <title>watch-circle</title>
    <g id="Line-icons" stroke="none" stroke-width="1" fill="none" fill-rule="evenodd" stroke-linecap="round" stroke-linejoin="round">
        <g id="Time" transform="translate(-880, -356)" fill-rule="nonzero" stroke="#000000" stroke-width="2">
            <g id="Icon" transform="translate(885, 358)">
                <polyline points="7 7 7 10 8.5 11.5"></polyline>
                <path d="M7,17 C10.8659935,17 14,13.8659935 14,10 C14,6.13400674 10.8659935,3 7,3 C3.13400674,3 0,6.13400674 0,10 C0,13.8659935 3.13400674,17 7,17 Z"></path>
                <path d="M2,15 L2.4855144,17.4275723 C2.66878027,18.3439014 2.76041323,18.8020661 2.99964285,19.1447773 C3.21060252,19.4469905 3.5009681,19.6850324 3.83868504,19.8326263 C4.22165811,20 4.68889618,20 5.62337255,20 L8.37662697,20 C9.31110334,20 9.77834177,20 10.161315,19.8326263 C10.499032,19.6850324 10.7893972,19.4469905 11.0003576,19.1447773 C11.2395868,18.8020661 11.3312197,18.3439 11.5144854,17.4275703 L12,15 M2,5 L2.48551416,2.57242894 C2.66878009,1.6560992 2.76041323,1.19793439 2.99964285,0.85522294 C3.21060252,0.553009868 3.5009681,0.314966857 3.83868504,0.167372674 C4.22165811,0 4.68889618,0 5.62337255,0 L8.37662697,0 C9.31110334,0 9.77834177,0 10.161315,0.167372674 C10.499032,0.314966857 10.7893972,0.553009868 11.0003576,0.85522294 C11.2395868,1.19793439 11.3312197,1.65609896 11.5144854,2.57242823 L12,5"></path>
            </g>
        </g>
    </g>
</svg>