<?xml version="1.0" encoding="UTF-8"?>
<svg width="24px" height="24px" viewBox="0 0 24 24" version="1.1" xmlns="http://www.w3.org/2000/svg" xmlns:xlink="http://www.w3.org/1999/xlink">
    <title>waves</title>
    <g id="Line-icons" stroke="none" stroke-width="1" fill="none" fill-rule="evenodd" stroke-linecap="round" stroke-linejoin="round">
        <g id="Weather" transform="translate(-880, -516)" fill-rule="nonzero" stroke="#000000" stroke-width="2">
            <g id="Icon" transform="translate(882, 521)">
                <path d="M0,1 C0.600000024,1.5 1.20000005,2 2.5,2 C5,2 5,0 7.5,0 C8.79999995,0 9.39999998,0.5 10,1"></path>
                <path d="M0,13 C0.600000024,13.5 1.20000005,14 2.5,14 C5,14 5,12 7.5,12 C8.79999995,12 9.39999998,12.5 10,13"></path>
                <path d="M0,7 C0.600000024,7.5 1.20000005,8 2.5,8 C5,8 5,6 7.5,6 C8.79999995,6 9.39999998,6.5 10,7"></path>
                <path d="M10,1 C10.6,1.5 11.2,2 12.5,2 C15,2 15,0 17.5,0 C18.8,0 19.4,0.5 20,1"></path>
                <path d="M10,13 C10.6,13.5 11.2,14 12.5,14 C15,14 15,12 17.5,12 C18.8,12 19.4,12.5 20,13"></path>
                <path d="M10,7 C10.6,7.5 11.2,8 12.5,8 C15,8 15,6 17.5,6 C18.8,6 19.4,6.5 20,7"></path>
            </g>
        </g>
    </g>
</svg>