<?xml version="1.0" encoding="UTF-8"?>
<svg width="24px" height="24px" viewBox="0 0 24 24" version="1.1" xmlns="http://www.w3.org/2000/svg" xmlns:xlink="http://www.w3.org/1999/xlink">
    <title>webcam-01</title>
    <g id="Line-icons" stroke="none" stroke-width="1" fill="none" fill-rule="evenodd" stroke-linecap="round" stroke-linejoin="round">
        <g id="Media-&amp;-devices" transform="translate(-880, -1036)" fill-rule="nonzero" stroke="#000000" stroke-width="2">
            <g id="Icon" transform="translate(884, 1038)">
                <path d="M8,16 C12.4182777,16 16,12.4182777 16,8 C16,3.58172178 12.4182777,0 8,0 C3.58172178,0 0,3.58172178 0,8 C0,12.4182777 3.58172178,16 8,16 Z"></path>
                <path d="M8,11 C9.65685415,11 11,9.65685415 11,8 C11,6.34314573 9.65685415,5 8,5 C6.34314573,5 5,6.34314573 5,8 C5,9.65685415 6.34314573,11 8,11 Z"></path>
                <path d="M8,16 L8,20 L3,20 M13,20 L8,20"></path>
            </g>
        </g>
    </g>
</svg>