<?xml version="1.0" encoding="UTF-8"?>
<svg width="24px" height="24px" viewBox="0 0 24 24" version="1.1" xmlns="http://www.w3.org/2000/svg" xmlns:xlink="http://www.w3.org/1999/xlink">
    <title>webcam-02</title>
    <g id="Line-icons" stroke="none" stroke-width="1" fill="none" fill-rule="evenodd" stroke-linecap="round" stroke-linejoin="round">
        <g id="Media-&amp;-devices" transform="translate(-880, -1076)" fill-rule="nonzero" stroke="#000000" stroke-width="2">
            <g id="Icon" transform="translate(883.5, 1078)">
                <path d="M8.5,17 C13.1944208,17 17,13.1944208 17,8.5 C17,3.80557919 13.1944208,0 8.5,0 C3.80557919,0 0,3.80557919 0,8.5 C0,13.1944208 3.80557919,17 8.5,17 Z"></path>
                <path d="M8.5,11.6875 C10.2604074,11.6875 11.6875,10.2604074 11.6875,8.5 C11.6875,6.73959231 10.2604074,5.3125 8.5,5.3125 C6.73959231,5.3125 5.3125,6.73959231 5.3125,8.5 C5.3125,10.2604074 6.73959231,11.6875 8.5,11.6875 Z"></path>
                <line x1="4.5" y1="20" x2="12.5" y2="20"></line>
            </g>
        </g>
    </g>
</svg>