<?xml version="1.0" encoding="UTF-8"?>
<svg width="24px" height="24px" viewBox="0 0 24 24" version="1.1" xmlns="http://www.w3.org/2000/svg" xmlns:xlink="http://www.w3.org/1999/xlink">
    <title>wifi-off</title>
    <g id="Line-icons" stroke="none" stroke-width="1" fill="none" fill-rule="evenodd" stroke-linecap="round" stroke-linejoin="round">
        <g id="Media-&amp;-devices" transform="translate(-880, -1156)" fill-rule="nonzero" stroke="#000000" stroke-width="2">
            <g id="Icon" transform="translate(881.1934, 1159)">
                <path d="M7.33642578,12.6100273 C8.35162795,11.8887753 9.56609893,11.5012817 10.8114262,11.5012817 C12.0567534,11.5012817 13.2712234,11.8887753 14.2864256,12.6100273"></path>
                <path d="M17.8866405,9.05001259 C16.7690108,8.1191088 15.48689,7.42633113 14.1185808,7.00001907 M21.3865623,5.49997473 C18.464139,2.92394042 14.7022665,1.50262451 10.8065624,1.50262451 C10.2015526,1.50262451 9.59977072,1.53690469 9.00385952,1.60446656 M10.8166409,16.5 L10.8066406,16.5 M4.56514692,2.76305866 C2.87503099,3.47974932 1.33360577,4.47869349 0,5.70076132 M8.53928566,6.73392868 C6.64836264,7.1301553 4.93597996,8.01198041 3.53857422,9.24296951 M14.5049696,12.7751026 C13.4858608,11.9762682 12.2018137,11.5 10.8065271,11.5 C9.39013124,11.5 8.08836496,11.9907882 7.06201172,12.8115807 M1.80664063,0 L19.8066406,18"></path>
            </g>
        </g>
    </g>
</svg>