<?xml version="1.0" encoding="UTF-8"?>
<svg width="24px" height="24px" viewBox="0 0 24 24" version="1.1" xmlns="http://www.w3.org/2000/svg" xmlns:xlink="http://www.w3.org/1999/xlink">
    <title>wind-02</title>
    <g id="Line-icons" stroke="none" stroke-width="1" fill="none" fill-rule="evenodd" stroke-linecap="round" stroke-linejoin="round">
        <g id="Weather" transform="translate(-880, -596)" fill-rule="nonzero" stroke="#000000" stroke-width="2">
            <g id="wind-02" transform="translate(882, 600)">
                <path d="M7.50928593,0.666666687 C7.87549973,0.25750041 8.407691,0 9.00002384,0 C10.1045933,0 11.0000229,0.895430446 11.0000229,2 C11.0000229,3.10456944 10.1045933,4 9.00002384,4 L0,4 M10.5092859,15.333333 C10.8754997,15.7424993 11.407691,16 12.0000238,16 C13.1045933,16 14.0000229,15.1045696 14.0000229,14 C14.0000229,12.8954306 13.1045933,12 12.0000238,12 L0,12 M14.763916,3 C15.3132362,2.38625062 16.1115227,2 17.0000229,2 C18.6568775,2 20.0000229,3.34314573 20.0000229,5 C20.0000229,6.65685415 18.6568775,8 17.0000229,8 L0,8" id="Icon"></path>
            </g>
        </g>
    </g>
</svg>