<?xml version="1.0" encoding="UTF-8"?>
<svg width="24px" height="24px" viewBox="0 0 24 24" version="1.1" xmlns="http://www.w3.org/2000/svg" xmlns:xlink="http://www.w3.org/1999/xlink">
    <title>wind-01</title>
    <g id="Line-icons" stroke="none" stroke-width="1" fill="none" fill-rule="evenodd" stroke-linecap="round" stroke-linejoin="round">
        <g id="Weather" transform="translate(-880, -556)" fill-rule="nonzero" stroke="#000000" stroke-width="2">
            <g id="wind-01" transform="translate(883, 561)">
                <path d="M18,13 C17.2063929,12.686988 16.5397263,12.4543414 16,12.3020601 C10.8797131,10.8573928 7.12028742,15.1426073 2,13.6979398 C1.4602743,13.5456586 0.793607632,13.3130119 0,13 M18,6.99999997 C17.2063929,6.68698836 16.5397263,6.4543419 16,6.30206057 C10.8797131,4.85739323 7.12028742,9.14260682 2,7.69793937 C1.4602743,7.54565808 0.793607632,7.31301162 0,6.99999997 M18,0.999999969 C17.2063929,0.686988343 16.5397263,0.454341867 16,0.302060543 C10.8797131,-1.1426068 7.12028742,3.14260694 2,1.69793948 C1.4602743,1.5456582 0.793607632,1.31301169 0,0.999999969" id="Icon"></path>
            </g>
        </g>
    </g>
</svg>