<?xml version="1.0" encoding="UTF-8"?>
<svg width="24px" height="24px" viewBox="0 0 24 24" version="1.1" xmlns="http://www.w3.org/2000/svg" xmlns:xlink="http://www.w3.org/1999/xlink">
    <title>youtube</title>
    <g id="Line-icons" stroke="none" stroke-width="1" fill="none" fill-rule="evenodd" stroke-linecap="round" stroke-linejoin="round">
        <g id="Media-&amp;-devices" transform="translate(-880, -1196)" fill-rule="nonzero" stroke="#000000" stroke-width="2">
            <g id="Icon" transform="translate(882, 1201)">
                <path d="M19.5813236,2.19988585 C19.4733396,1.76846266 19.2534157,1.3731758 18.9437675,1.05395091 C18.6341194,0.734726012 18.2457127,0.502869122 17.8177776,0.381798446 C16.7754075,0.127266149 14.1694816,0 10,0 C5.83051999,0 3.22459491,0.139386714 2.18222475,0.418160141 C1.75428972,0.539230816 1.36588264,0.771087706 1.05623448,1.0903126 C0.746586323,1.40953749 0.526663803,1.80482435 0.418679804,2.23624754 C0.13252607,3.82303381 -0.00744727557,5.43272674 0.000519649824,7.04508877 C-0.0096804623,8.66959083 0.130301774,10.2915586 0.418679804,11.8902922 C0.537727483,12.3083135 0.762577027,12.6885644 1.071504,12.9943066 C1.38043097,13.3000487 1.76299229,13.5209468 2.18222475,13.6356564 C3.22459491,13.9144287 5.83051999,14.0538149 10,14.0538149 C14.1694816,14.0538149 16.7754075,13.9144287 17.8177776,13.6356564 C18.2457127,13.5145857 18.6341194,13.2827278 18.9437675,12.9635029 C19.2534157,12.644278 19.4733396,12.248992 19.5813236,11.8175688 C19.8652699,10.242731 20.0052338,8.64530957 19.9994831,7.04508877 C20.0096832,5.42058671 19.8697017,3.79861939 19.5813236,2.19988585 Z"></path>
                <path d="M7.75,4.46533251 C7.75,3.98804763 7.75000007,3.74940528 7.84974194,3.61617732 C7.9366625,3.50007513 8.0697137,3.42743585 8.21437931,3.41710329 C8.38038397,3.40524661 8.58112422,3.53429425 8.98260593,3.79238963 L12.9254227,6.32705784 C13.273808,6.55101986 13.4480012,6.66300046 13.5081663,6.80539036 C13.5607361,6.92980475 13.5607361,7.07019525 13.5081663,7.19460964 C13.4480012,7.33699954 13.2738085,7.44898033 12.9254227,7.67294264 L8.98260498,10.2076111 C8.58112377,10.4657062 8.38038397,10.5947539 8.21437931,10.5828972 C8.0697137,10.5725646 7.9366625,10.4999246 7.84974194,10.3838224 C7.75000007,10.2505945 7.75,10.0119528 7.75,9.53466797 L7.75,4.46533251 Z"></path>
            </g>
        </g>
    </g>
</svg>