<?xml version="1.0" encoding="UTF-8"?>
<svg width="24px" height="24px" viewBox="0 0 24 24" version="1.1" xmlns="http://www.w3.org/2000/svg" xmlns:xlink="http://www.w3.org/1999/xlink">
    <title>zap-off</title>
    <g id="Line-icons" stroke="none" stroke-width="1" fill="none" fill-rule="evenodd" stroke-linecap="round" stroke-linejoin="round">
        <g id="General" transform="translate(-880, -1916)" fill-rule="nonzero" stroke="#000000" stroke-width="2">
            <g id="zap-off" transform="translate(883, 1918)">
                <path d="M4.64948853,6.42061372 L1.09345555,10.6878529 L1.09345555,10.6878529 C0.744647145,11.1064229 0.570242882,11.3157086 0.56757766,11.4924612 C0.565260649,11.6461177 0.633730948,11.7923045 0.753256321,11.8888931 C0.890747905,12 1.16317642,12 1.70803332,12 L9,12 L8,20 L12.620434,14.4554792 C12.7557816,14.2930621 12.7894086,14.2210775 12.8098104,14.1357743 C12.8302122,14.0504711 12.8263401,13.965108 12.7982991,13.8820023 C12.770258,13.7988965 12.7302519,13.7302519 12.5807556,13.5807556 M13.8456921,8 L16.2919674,8 L16.2919674,8 C16.8368242,8 17.1092525,8 17.2467442,8.11110687 C17.3662691,8.20769534 17.4347396,8.35388243 17.4324226,8.5075388 C17.4297571,8.68429166 17.255353,8.89357686 16.9065437,9.31214809 L15.903146,10.516225 C15.726364,10.7283635 15.4110816,10.7570255 15.1989432,10.5802434 C15.186467,10.5698465 15.1745047,10.558848 15.1630989,10.5472869 M7.94729402,2.46320127 L9.99996185,0 L9.99996185,0 L9.52958173,3.7630387 C9.49533047,4.03704867 9.24543536,4.2314115 8.9714254,4.19716023 C8.85845881,4.1830394 8.75369351,4.13079005 8.67445023,4.04905052 M18,19 L0,1" id="Icon"></path>
            </g>
        </g>
    </g>
</svg>