<?xml version="1.0" encoding="UTF-8"?>
<svg width="24px" height="24px" viewBox="0 0 24 24" version="1.1" xmlns="http://www.w3.org/2000/svg" xmlns:xlink="http://www.w3.org/1999/xlink">
    <title>zap-square</title>
    <g id="Line-icons" stroke="none" stroke-width="1" fill="none" fill-rule="evenodd" stroke-linecap="round" stroke-linejoin="round">
        <g id="General" transform="translate(-880, -1956)" fill-rule="nonzero" stroke="#000000" stroke-width="2">
            <g id="Icon" transform="translate(883, 1959)">
                <path d="M0,4.79999971 C0,3.11984241 0,2.27976376 0.326980442,1.6380285 C0.614600539,1.0735423 1.0735423,0.614600539 1.6380285,0.326980442 C2.27976376,0 3.11984253,0 4.80000019,0 L13.2000008,0 C14.8801581,0 15.7202356,0 16.3619709,0.326980442 C16.9264571,0.614600539 17.3853993,1.0735423 17.6730194,1.6380285 C18,2.27976376 18,3.11984253 18,4.80000019 L18,13.2000008 C18,14.8801581 18,15.7202356 17.6730194,16.3619709 C17.3853993,16.9264571 16.9264571,17.3853993 16.3619709,17.6730194 C15.7202356,18 14.8801575,18 13.1999998,18 L4.79999971,18 C3.11984241,18 2.27976376,18 1.6380285,17.6730194 C1.0735423,17.3853993 0.614600539,16.9264571 0.326980442,16.3619709 C0,15.7202356 0,14.8801575 0,13.1999998 L0,4.79999971 Z"></path>
                <path d="M9,3 L4.43359947,9.22690964 C4.13256365,9.63741302 3.98204594,9.84266458 3.98690295,10.0141554 C3.99113056,10.1634233 4.06185386,10.3029887 4.17972422,10.3946695 C4.315143,10.5 4.56966984,10.5 5.07872391,10.5 L9,10.5 L9,15 L13.5664005,8.77309036 C13.8674363,8.36258698 14.0179538,8.15733542 14.0130968,7.98584461 C14.0088692,7.83657669 13.9381466,7.69701079 13.8202763,7.60532999 C13.6848575,7.5 13.4303302,7.5 12.9212761,7.5 L9,7.5 L9,3 Z"></path>
            </g>
        </g>
    </g>
</svg>