<?xml version="1.0"?>
<svg xmlns="http://www.w3.org/2000/svg" width="24" height="24" viewBox="0 0 24 24" fill="none" data-category="ai" data-tags="ai-search-02" data-set="Stroke" data-type="Rounded">
<path d="M16.0001 16.5L20 20.4999" stroke="#141B34" stroke-width="1.5" stroke-linecap="round" stroke-linejoin="round"/>
<path d="M18 11.5C18 15.366 14.866 18.5 11 18.5C7.13401 18.5 4 15.366 4 11.5C4 7.63401 7.13401 4.5 11 4.5" stroke="#141B34" stroke-width="1.5" stroke-linecap="round" stroke-linejoin="round"/>
<path d="M15.5 3.5L15.7579 4.19703C16.0961 5.11102 16.2652 5.56802 16.5986 5.90139C16.932 6.23477 17.389 6.40387 18.303 6.74208L19 7L18.303 7.25792C17.389 7.59613 16.932 7.76524 16.5986 8.09861C16.2652 8.43198 16.0961 8.88898 15.7579 9.80297L15.5 10.5L15.2421 9.80297C14.9039 8.88898 14.7348 8.43198 14.4014 8.09861C14.068 7.76524 13.611 7.59613 12.697 7.25792L12 7L12.697 6.74208C13.611 6.40387 14.068 6.23477 14.4014 5.90139C14.7348 5.56802 14.9039 5.11102 15.2421 4.19703L15.5 3.5Z" stroke="#141B34" stroke-width="1.5" stroke-linecap="round" stroke-linejoin="round"/>
</svg>
